M48
;Layer_Color=9474304
;FILE_FORMAT=4:3
METRIC,LZ
;TYPE=PLATED
T01F00S00C0.300
T02F00S00C1.100
T03F00S00C1.210
;TYPE=NON_PLATED
T04F00S00C0.650
T05F00S00C0.900
T06F00S00C1.150
%
T01
X0051892Y-0032642
X0045892
X0039892
X0033892
X0030892Y-0038642
X0036892
X0042892
X0048892
X0024892
X0018892
X0012892
X0015892Y-0032642
X0009892
X0003892
X0000892Y-0038642
X0006892
X0006452Y-0029312
X0008382Y-0029261
X0006223Y-0022365
X0009892Y-0020642
X0010051Y-0016505
Y-0015255
X0010363Y-0012903
X0006892Y-0014642
X0006274Y-0004889
X0006892Y-0002642
X0009892Y0003358
X0003892
X0015892
X0016967Y0002286
X001778
X0021208Y000221
X0021892Y0003358
X0022543Y-0000279
X0022864Y-0004322
X0024892Y-0002642
X0027593Y-0003848
X0027178Y-0004676
X002794Y-000508
X0029335Y-0002826
X0030808
X0029079Y-000062
X0031229Y0000991
X0033892Y0003358
X0033109Y0004242
X0035611Y0007722
X0038659Y0005537
X0039892Y0003358
X0042128Y-0001132
X0042723Y-000315
X0043517Y-0003654
Y-0004466
X0042128Y-0006632
X0039892Y-0008642
X0037407Y-0007727
X003744Y-0004216
Y-0003404
X0035687Y-0000063
X0032512Y-000508
X0032207Y-0015342
X0033325Y-0015443
X0034849Y-0015646
X0036195Y-0013754
X0036119Y-001839
X0035966Y-0021336
X0039892Y-0020642
X0037389Y-0026213
X0036322Y-0027229
X0030892Y-0026642
X0029261Y-0028346
X0025756Y-0029312
X0024079Y-0029261
X0024892Y-0026642
X0021844Y-0025806
X0018059Y-0026483
X0018052Y-002776
X0012243Y-0026453
X001237Y-001858
X0013589
X0010998Y-0018631
X001143Y-0013614
X0014152Y-001615
X0015892Y-0020642
X0022504Y-0020472
X0022962Y-0019761
X0029566Y-002159
X0031242Y-0014783
X0042892Y-0014642
X0045974Y-0000762
X0046507Y000473
X0044624Y0006324
X0020196Y0006975
X001803Y0008363
X0017217
X0016815Y0007569
X0014696Y0006975
X0012662Y-0000584
X0012892Y-0002642
X0015892Y-0008642
X0021892
X0020168Y0010668
X002613Y0011708
X0028029Y0010439
X0031369Y0008746
X0036892Y0009358
X0042892
X0042189Y0010363
X0048892Y0009358
X0006892
X0000892
T02
X0045212Y-0026467
Y-0023927
Y-0021387
Y-0018847
Y-0016307
T03
X0013244Y0006385
X0021504
X0041538Y000032
X0047488Y000068
Y-00083
X0041538Y-000794
X0021864Y0012335
X0012884
T04
X0020974Y0005135
X0040288Y-000741
T05
X0032219Y0011151
X0034519
T06
X0013774Y0005135
X0040288Y-000021
M30
