G04*
G04 #@! TF.GenerationSoftware,Altium Limited,Altium Designer,26.5.1 (12)*
G04*
G04 Layer_Color=32896*
G04 Board_Origin=66616740|373809532*
%FSLAX44Y44*%
%MOMM*%
G71*
G04*
G04 #@! TF.SameCoordinates,F19D7668-0BCF-4497-8D96-F11F38428737*
G04*
G04*
G04 #@! TF.FilePolarity,Positive*
G04*
G01*
G75*
%ADD11C,0.2540*%
G36*
X1278765Y21796D02*
X1279190Y21721D01*
X1279590Y21621D01*
X1279965Y21521D01*
X1280264Y21421D01*
X1280514Y21321D01*
X1280614Y21271D01*
X1280689Y21246D01*
X1280714Y21221D01*
X1280739D01*
Y18996D01*
X1280314Y19171D01*
X1279965Y19321D01*
X1279640Y19421D01*
X1279365Y19471D01*
X1279165Y19521D01*
X1279015Y19546D01*
X1278890D01*
X1278540Y19521D01*
X1278240Y19421D01*
X1277965Y19296D01*
X1277740Y19171D01*
X1277565Y19021D01*
X1277415Y18896D01*
X1277340Y18796D01*
X1277315Y18772D01*
X1277115Y18471D01*
X1276965Y18147D01*
X1276865Y17797D01*
X1276790Y17472D01*
X1276740Y17197D01*
X1276715Y16947D01*
Y16797D01*
Y16772D01*
Y16747D01*
Y16347D01*
X1276765Y15922D01*
X1276890Y15047D01*
X1277115Y14148D01*
X1277390Y13198D01*
X1277740Y12248D01*
X1278090Y11298D01*
X1278490Y10374D01*
X1278890Y9474D01*
X1279315Y8624D01*
X1279715Y7849D01*
X1280065Y7124D01*
X1280240Y6824D01*
X1280414Y6525D01*
X1280564Y6250D01*
X1280689Y6025D01*
X1280789Y5825D01*
X1280889Y5650D01*
X1280989Y5500D01*
X1281039Y5400D01*
X1281064Y5350D01*
X1281089Y5325D01*
Y5000D01*
X1274166D01*
Y7124D01*
X1278065D01*
X1277715Y7799D01*
X1277390Y8449D01*
X1277090Y9074D01*
X1276815Y9649D01*
X1276590Y10174D01*
X1276366Y10648D01*
X1276165Y11098D01*
X1275991Y11498D01*
X1275816Y11873D01*
X1275691Y12173D01*
X1275591Y12448D01*
X1275491Y12673D01*
X1275416Y12848D01*
X1275366Y12973D01*
X1275341Y13048D01*
Y13073D01*
X1275066Y13873D01*
X1274866Y14648D01*
X1274716Y15322D01*
X1274666Y15647D01*
X1274616Y15947D01*
X1274591Y16197D01*
X1274566Y16447D01*
X1274541Y16647D01*
X1274516Y16822D01*
Y16972D01*
Y17072D01*
Y17122D01*
Y17147D01*
X1274566Y17922D01*
X1274666Y18597D01*
X1274841Y19196D01*
X1274941Y19446D01*
X1275016Y19671D01*
X1275116Y19871D01*
X1275216Y20071D01*
X1275291Y20221D01*
X1275391Y20346D01*
X1275441Y20446D01*
X1275491Y20521D01*
X1275541Y20546D01*
Y20571D01*
X1275741Y20796D01*
X1275966Y20996D01*
X1276190Y21146D01*
X1276415Y21296D01*
X1276865Y21521D01*
X1277315Y21671D01*
X1277715Y21746D01*
X1277890Y21796D01*
X1278040D01*
X1278165Y21821D01*
X1278340D01*
X1278765Y21796D01*
D02*
G37*
G36*
X1413330Y13848D02*
X1416255Y5000D01*
X1414005D01*
X1412106Y11223D01*
X1412056D01*
X1410106Y5000D01*
X1407832D01*
X1410781Y13848D01*
X1408257Y21646D01*
X1410531D01*
X1412056Y16097D01*
X1412106D01*
X1413580Y21646D01*
X1415830D01*
X1413330Y13848D01*
D02*
G37*
G36*
X1393760Y5000D02*
X1391661D01*
X1391811Y17022D01*
X1391736Y17072D01*
X1389662Y11598D01*
X1389262D01*
X1387187Y17072D01*
X1387112Y17022D01*
X1387237Y5000D01*
X1385138D01*
Y21646D01*
X1386987D01*
X1389462Y15522D01*
X1391936Y21646D01*
X1393760D01*
Y5000D01*
D02*
G37*
G36*
X1341024Y16622D02*
X1341299Y16047D01*
X1341524Y15447D01*
X1341724Y14872D01*
X1341899Y14298D01*
X1342024Y13748D01*
X1342149Y13198D01*
X1342249Y12698D01*
X1342324Y12223D01*
X1342399Y11773D01*
X1342448Y11373D01*
X1342473Y11023D01*
X1342498Y10724D01*
X1342523Y10474D01*
Y10299D01*
Y10199D01*
Y10149D01*
Y9674D01*
X1342473Y9224D01*
X1342424Y8799D01*
X1342374Y8399D01*
X1342299Y8024D01*
X1342224Y7699D01*
X1342124Y7399D01*
X1342024Y7124D01*
X1341949Y6899D01*
X1341849Y6675D01*
X1341774Y6500D01*
X1341699Y6350D01*
X1341649Y6250D01*
X1341599Y6175D01*
X1341549Y6125D01*
Y6100D01*
X1341349Y5850D01*
X1341174Y5650D01*
X1340974Y5450D01*
X1340749Y5300D01*
X1340349Y5050D01*
X1339974Y4875D01*
X1339624Y4775D01*
X1339374Y4725D01*
X1339274Y4700D01*
X1339124D01*
X1338849Y4725D01*
X1338600Y4775D01*
X1338350Y4850D01*
X1338100Y4950D01*
X1337675Y5200D01*
X1337325Y5475D01*
X1337025Y5750D01*
X1336800Y6000D01*
X1336725Y6100D01*
X1336675Y6175D01*
X1336625Y6225D01*
Y6250D01*
X1336275Y6849D01*
X1336025Y7499D01*
X1335850Y8149D01*
X1335725Y8774D01*
X1335675Y9049D01*
X1335650Y9299D01*
X1335625Y9549D01*
Y9749D01*
X1335600Y9899D01*
Y10024D01*
Y10099D01*
Y10124D01*
X1335625Y10948D01*
X1335725Y11673D01*
X1335800Y11998D01*
X1335875Y12298D01*
X1335950Y12573D01*
X1336025Y12848D01*
X1336125Y13073D01*
X1336200Y13248D01*
X1336275Y13423D01*
X1336325Y13573D01*
X1336400Y13673D01*
X1336425Y13748D01*
X1336475Y13798D01*
Y13823D01*
X1336650Y14073D01*
X1336825Y14298D01*
X1337000Y14473D01*
X1337175Y14622D01*
X1337550Y14872D01*
X1337925Y15047D01*
X1338225Y15147D01*
X1338500Y15197D01*
X1338600Y15222D01*
X1338725D01*
X1339024Y15197D01*
X1339324Y15147D01*
X1339449Y15122D01*
X1339524Y15097D01*
X1339599Y15072D01*
X1339624D01*
X1336425Y21646D01*
X1338575D01*
X1341024Y16622D01*
D02*
G37*
G36*
X1324878Y5000D02*
X1322754D01*
Y12323D01*
X1319554D01*
Y5000D01*
X1317430D01*
Y21646D01*
X1319554D01*
Y14323D01*
X1322754D01*
Y21646D01*
X1324878D01*
Y5000D01*
D02*
G37*
G36*
X1425377Y5000D02*
X1423428D01*
Y15347D01*
X1423403Y15372D01*
X1419654Y5000D01*
X1417929D01*
Y21646D01*
X1419879D01*
Y11373D01*
X1419929Y11298D01*
X1423678Y21646D01*
X1425377D01*
Y5000D01*
D02*
G37*
G36*
X1300209Y4775D02*
X1298735D01*
X1295661Y21646D01*
X1297910D01*
X1299460Y10424D01*
X1301009Y21646D01*
X1303259D01*
X1300209Y4775D01*
D02*
G37*
G36*
X1378814Y21846D02*
X1379189Y21771D01*
X1379539Y21671D01*
X1379864Y21521D01*
X1380164Y21346D01*
X1380439Y21146D01*
X1380689Y20946D01*
X1380914Y20721D01*
X1381114Y20496D01*
X1381289Y20296D01*
X1381439Y20096D01*
X1381564Y19921D01*
X1381664Y19796D01*
X1381738Y19671D01*
X1381763Y19596D01*
X1381788Y19571D01*
X1381988Y19121D01*
X1382163Y18647D01*
X1382463Y17622D01*
X1382663Y16547D01*
X1382738Y16047D01*
X1382788Y15547D01*
X1382838Y15072D01*
X1382888Y14623D01*
X1382913Y14223D01*
Y13898D01*
X1382938Y13623D01*
Y13398D01*
Y13273D01*
Y13223D01*
X1382913Y12473D01*
X1382888Y11773D01*
X1382838Y11123D01*
X1382763Y10524D01*
X1382663Y9974D01*
X1382563Y9449D01*
X1382463Y8974D01*
X1382363Y8549D01*
X1382263Y8174D01*
X1382163Y7849D01*
X1382063Y7574D01*
X1381963Y7349D01*
X1381888Y7175D01*
X1381839Y7049D01*
X1381788Y6974D01*
Y6949D01*
X1381564Y6575D01*
X1381314Y6225D01*
X1381039Y5950D01*
X1380764Y5700D01*
X1380489Y5475D01*
X1380214Y5300D01*
X1379939Y5175D01*
X1379689Y5050D01*
X1379439Y4950D01*
X1379214Y4900D01*
X1378989Y4850D01*
X1378814Y4800D01*
X1378664D01*
X1378564Y4775D01*
X1378464D01*
X1377964Y4825D01*
X1377515Y4925D01*
X1377065Y5075D01*
X1376690Y5250D01*
X1376365Y5400D01*
X1376115Y5550D01*
X1376040Y5625D01*
X1375965Y5650D01*
X1375940Y5700D01*
X1375915D01*
Y7974D01*
X1376165Y7774D01*
X1376390Y7574D01*
X1376840Y7274D01*
X1377215Y7074D01*
X1377565Y6924D01*
X1377814Y6849D01*
X1378014Y6800D01*
X1378139Y6775D01*
X1378189D01*
X1378439Y6800D01*
X1378664Y6849D01*
X1378864Y6924D01*
X1379064Y7024D01*
X1379389Y7249D01*
X1379664Y7549D01*
X1379864Y7824D01*
X1380014Y8074D01*
X1380039Y8149D01*
X1380089Y8224D01*
X1380114Y8274D01*
Y8299D01*
X1380214Y8599D01*
X1380314Y8949D01*
X1380389Y9324D01*
X1380439Y9724D01*
X1380539Y10549D01*
X1380614Y11373D01*
X1380639Y11773D01*
X1380664Y12148D01*
Y12473D01*
X1380689Y12748D01*
Y12998D01*
Y13173D01*
Y13273D01*
Y13323D01*
Y13948D01*
X1380664Y14548D01*
X1380639Y15097D01*
X1380589Y15597D01*
X1380564Y16047D01*
X1380514Y16447D01*
X1380464Y16822D01*
X1380389Y17147D01*
X1380339Y17422D01*
X1380289Y17672D01*
X1380239Y17897D01*
X1380214Y18047D01*
X1380164Y18172D01*
X1380139Y18272D01*
X1380114Y18322D01*
Y18347D01*
X1379989Y18621D01*
X1379864Y18846D01*
X1379739Y19046D01*
X1379589Y19221D01*
X1379439Y19371D01*
X1379264Y19496D01*
X1378964Y19671D01*
X1378689Y19796D01*
X1378464Y19846D01*
X1378314Y19871D01*
X1378264D01*
X1377865Y19821D01*
X1377465Y19721D01*
X1377115Y19546D01*
X1376790Y19371D01*
X1376515Y19171D01*
X1376290Y18996D01*
X1376165Y18896D01*
X1376115Y18846D01*
Y20996D01*
X1376590Y21296D01*
X1377015Y21496D01*
X1377390Y21646D01*
X1377740Y21771D01*
X1378014Y21821D01*
X1378239Y21846D01*
X1378364Y21871D01*
X1378414D01*
X1378814Y21846D01*
D02*
G37*
G36*
X1374090Y9099D02*
X1374041Y8424D01*
X1373916Y7799D01*
X1373766Y7274D01*
X1373566Y6824D01*
X1373366Y6450D01*
X1373291Y6325D01*
X1373216Y6200D01*
X1373141Y6100D01*
X1373091Y6025D01*
X1373041Y6000D01*
Y5975D01*
X1372841Y5775D01*
X1372616Y5575D01*
X1372191Y5275D01*
X1371741Y5075D01*
X1371316Y4925D01*
X1370941Y4850D01*
X1370666Y4800D01*
X1370541Y4775D01*
X1370391D01*
X1370116Y4800D01*
X1369841Y4825D01*
X1369342Y4950D01*
X1368917Y5150D01*
X1368517Y5350D01*
X1368217Y5550D01*
X1367992Y5750D01*
X1367842Y5875D01*
X1367792Y5925D01*
X1367592Y6150D01*
X1367417Y6400D01*
X1367142Y6924D01*
X1366942Y7499D01*
X1366817Y8024D01*
X1366717Y8524D01*
X1366692Y8724D01*
Y8924D01*
X1366667Y9074D01*
Y9174D01*
Y9249D01*
Y9274D01*
Y21646D01*
X1368817D01*
Y9024D01*
X1368842Y8649D01*
X1368892Y8299D01*
X1368967Y8024D01*
X1369042Y7774D01*
X1369117Y7599D01*
X1369192Y7449D01*
X1369242Y7374D01*
X1369267Y7349D01*
X1369442Y7150D01*
X1369617Y7024D01*
X1369816Y6924D01*
X1369991Y6849D01*
X1370141Y6800D01*
X1370266Y6775D01*
X1370391D01*
X1370666Y6800D01*
X1370891Y6874D01*
X1371116Y6999D01*
X1371291Y7150D01*
X1371441Y7324D01*
X1371566Y7524D01*
X1371741Y7949D01*
X1371866Y8374D01*
X1371891Y8574D01*
X1371916Y8749D01*
X1371941Y8899D01*
Y9024D01*
Y9099D01*
Y9124D01*
Y21646D01*
X1374090D01*
Y9099D01*
D02*
G37*
G36*
X1329727Y21846D02*
X1330102Y21771D01*
X1330452Y21671D01*
X1330777Y21521D01*
X1331077Y21346D01*
X1331351Y21146D01*
X1331601Y20946D01*
X1331826Y20721D01*
X1332026Y20496D01*
X1332201Y20296D01*
X1332351Y20096D01*
X1332476Y19921D01*
X1332576Y19796D01*
X1332651Y19671D01*
X1332676Y19596D01*
X1332701Y19571D01*
X1332901Y19121D01*
X1333076Y18647D01*
X1333376Y17622D01*
X1333576Y16547D01*
X1333651Y16047D01*
X1333701Y15547D01*
X1333751Y15072D01*
X1333801Y14622D01*
X1333826Y14223D01*
Y13898D01*
X1333851Y13623D01*
Y13398D01*
Y13273D01*
Y13223D01*
X1333826Y12473D01*
X1333801Y11773D01*
X1333751Y11123D01*
X1333676Y10524D01*
X1333576Y9974D01*
X1333476Y9449D01*
X1333376Y8974D01*
X1333276Y8549D01*
X1333176Y8174D01*
X1333076Y7849D01*
X1332976Y7574D01*
X1332876Y7349D01*
X1332801Y7174D01*
X1332751Y7049D01*
X1332701Y6974D01*
Y6949D01*
X1332476Y6575D01*
X1332226Y6225D01*
X1331951Y5950D01*
X1331676Y5700D01*
X1331401Y5475D01*
X1331126Y5300D01*
X1330851Y5175D01*
X1330602Y5050D01*
X1330352Y4950D01*
X1330127Y4900D01*
X1329902Y4850D01*
X1329727Y4800D01*
X1329577D01*
X1329477Y4775D01*
X1329377D01*
X1328877Y4825D01*
X1328427Y4925D01*
X1327977Y5075D01*
X1327602Y5250D01*
X1327277Y5400D01*
X1327027Y5550D01*
X1326953Y5625D01*
X1326877Y5650D01*
X1326853Y5700D01*
X1326828D01*
Y7974D01*
X1327077Y7774D01*
X1327302Y7574D01*
X1327752Y7274D01*
X1328127Y7074D01*
X1328477Y6924D01*
X1328727Y6849D01*
X1328927Y6799D01*
X1329052Y6775D01*
X1329102D01*
X1329352Y6799D01*
X1329577Y6849D01*
X1329777Y6924D01*
X1329977Y7024D01*
X1330302Y7249D01*
X1330577Y7549D01*
X1330777Y7824D01*
X1330927Y8074D01*
X1330952Y8149D01*
X1331001Y8224D01*
X1331026Y8274D01*
Y8299D01*
X1331126Y8599D01*
X1331226Y8949D01*
X1331301Y9324D01*
X1331351Y9724D01*
X1331451Y10549D01*
X1331526Y11373D01*
X1331551Y11773D01*
X1331576Y12148D01*
Y12473D01*
X1331601Y12748D01*
Y12998D01*
Y13173D01*
Y13273D01*
Y13323D01*
Y13948D01*
X1331576Y14547D01*
X1331551Y15097D01*
X1331501Y15597D01*
X1331476Y16047D01*
X1331426Y16447D01*
X1331376Y16822D01*
X1331301Y17147D01*
X1331251Y17422D01*
X1331201Y17672D01*
X1331151Y17897D01*
X1331126Y18047D01*
X1331077Y18172D01*
X1331051Y18272D01*
X1331026Y18322D01*
Y18347D01*
X1330901Y18621D01*
X1330777Y18846D01*
X1330652Y19046D01*
X1330502Y19221D01*
X1330352Y19371D01*
X1330177Y19496D01*
X1329877Y19671D01*
X1329602Y19796D01*
X1329377Y19846D01*
X1329227Y19871D01*
X1329177D01*
X1328777Y19821D01*
X1328377Y19721D01*
X1328027Y19546D01*
X1327702Y19371D01*
X1327427Y19171D01*
X1327202Y18996D01*
X1327077Y18896D01*
X1327027Y18846D01*
Y20996D01*
X1327502Y21296D01*
X1327927Y21496D01*
X1328302Y21646D01*
X1328652Y21771D01*
X1328927Y21821D01*
X1329152Y21846D01*
X1329277Y21871D01*
X1329327D01*
X1329727Y21846D01*
D02*
G37*
G36*
X1434200Y5000D02*
X1432051D01*
Y21646D01*
X1434200D01*
Y5000D01*
D02*
G37*
G36*
X1431976Y13423D02*
X1429001Y5000D01*
X1426777D01*
X1430076Y13723D01*
X1427427Y21646D01*
X1429626D01*
X1431976Y13423D01*
D02*
G37*
G36*
X1349372Y5000D02*
X1347222D01*
Y21646D01*
X1349372D01*
Y5000D01*
D02*
G37*
G36*
X1291962D02*
X1289812D01*
Y21646D01*
X1291962D01*
Y5000D01*
D02*
G37*
G36*
X1284338Y7499D02*
X1284513Y7449D01*
X1284688Y7399D01*
X1284813Y7324D01*
X1284938Y7224D01*
X1285013Y7174D01*
X1285063Y7124D01*
X1285088Y7099D01*
X1285213Y6949D01*
X1285313Y6775D01*
X1285388Y6625D01*
X1285438Y6475D01*
X1285463Y6350D01*
X1285488Y6250D01*
Y6175D01*
Y6150D01*
X1285463Y5950D01*
X1285413Y5750D01*
X1285363Y5600D01*
X1285288Y5450D01*
X1285213Y5325D01*
X1285138Y5250D01*
X1285113Y5200D01*
X1285088Y5175D01*
X1284938Y5050D01*
X1284763Y4950D01*
X1284613Y4875D01*
X1284463Y4825D01*
X1284338Y4800D01*
X1284238Y4775D01*
X1284138D01*
X1283938Y4800D01*
X1283739Y4850D01*
X1283589Y4900D01*
X1283439Y4975D01*
X1283314Y5050D01*
X1283239Y5125D01*
X1283189Y5150D01*
X1283164Y5175D01*
X1283039Y5325D01*
X1282939Y5500D01*
X1282864Y5650D01*
X1282814Y5825D01*
X1282789Y5950D01*
X1282764Y6050D01*
Y6125D01*
Y6150D01*
X1282789Y6350D01*
X1282814Y6525D01*
X1282889Y6700D01*
X1282964Y6824D01*
X1283039Y6949D01*
X1283089Y7024D01*
X1283139Y7074D01*
X1283164Y7099D01*
X1283314Y7249D01*
X1283489Y7349D01*
X1283639Y7424D01*
X1283789Y7474D01*
X1283938Y7499D01*
X1284039Y7524D01*
X1284138D01*
X1284338Y7499D01*
D02*
G37*
G36*
X1407782Y1901D02*
X1395035D01*
Y3126D01*
X1407782D01*
Y1901D01*
D02*
G37*
G36*
X1365468D02*
X1352721Y1901D01*
Y3126D01*
X1365468Y3126D01*
Y1901D01*
D02*
G37*
G36*
X1316105Y1901D02*
X1303359D01*
Y3126D01*
X1316105D01*
Y1901D01*
D02*
G37*
G36*
X1325650Y197D02*
X1325934Y147D01*
X1326200Y81D01*
X1326450Y14D01*
X1326650Y-53D01*
X1326817Y-119D01*
X1326884Y-153D01*
X1326933Y-169D01*
X1326950Y-186D01*
X1326967D01*
Y-1669D01*
X1326684Y-1552D01*
X1326450Y-1452D01*
X1326234Y-1386D01*
X1326050Y-1352D01*
X1325917Y-1319D01*
X1325817Y-1303D01*
X1325734D01*
X1325500Y-1319D01*
X1325300Y-1386D01*
X1325117Y-1469D01*
X1324967Y-1552D01*
X1324851Y-1652D01*
X1324751Y-1736D01*
X1324701Y-1802D01*
X1324684Y-1819D01*
X1324551Y-2019D01*
X1324451Y-2236D01*
X1324384Y-2469D01*
X1324334Y-2685D01*
X1324301Y-2869D01*
X1324284Y-3035D01*
Y-3135D01*
Y-3152D01*
Y-3169D01*
Y-3435D01*
X1324317Y-3719D01*
X1324401Y-4302D01*
X1324551Y-4902D01*
X1324734Y-5535D01*
X1324967Y-6168D01*
X1325201Y-6801D01*
X1325467Y-7418D01*
X1325734Y-8017D01*
X1326017Y-8584D01*
X1326284Y-9100D01*
X1326517Y-9584D01*
X1326633Y-9784D01*
X1326750Y-9984D01*
X1326850Y-10167D01*
X1326933Y-10317D01*
X1327000Y-10450D01*
X1327067Y-10567D01*
X1327133Y-10667D01*
X1327167Y-10733D01*
X1327183Y-10767D01*
X1327200Y-10783D01*
Y-11000D01*
X1322585D01*
Y-9584D01*
X1325184D01*
X1324951Y-9134D01*
X1324734Y-8701D01*
X1324534Y-8284D01*
X1324351Y-7901D01*
X1324201Y-7551D01*
X1324051Y-7234D01*
X1323918Y-6934D01*
X1323801Y-6668D01*
X1323684Y-6418D01*
X1323601Y-6218D01*
X1323534Y-6035D01*
X1323468Y-5885D01*
X1323418Y-5768D01*
X1323384Y-5685D01*
X1323368Y-5635D01*
Y-5618D01*
X1323184Y-5085D01*
X1323051Y-4568D01*
X1322951Y-4118D01*
X1322918Y-3902D01*
X1322885Y-3702D01*
X1322868Y-3535D01*
X1322851Y-3369D01*
X1322834Y-3235D01*
X1322818Y-3119D01*
Y-3019D01*
Y-2952D01*
Y-2919D01*
Y-2902D01*
X1322851Y-2386D01*
X1322918Y-1936D01*
X1323035Y-1536D01*
X1323101Y-1369D01*
X1323151Y-1219D01*
X1323218Y-1086D01*
X1323284Y-953D01*
X1323334Y-853D01*
X1323401Y-769D01*
X1323434Y-703D01*
X1323468Y-653D01*
X1323501Y-636D01*
Y-619D01*
X1323634Y-469D01*
X1323784Y-336D01*
X1323934Y-236D01*
X1324084Y-136D01*
X1324384Y14D01*
X1324684Y114D01*
X1324951Y164D01*
X1325067Y197D01*
X1325167D01*
X1325251Y214D01*
X1325367D01*
X1325650Y197D01*
D02*
G37*
G36*
X1295525D02*
X1295808Y147D01*
X1296075Y81D01*
X1296325Y14D01*
X1296525Y-53D01*
X1296691Y-119D01*
X1296758Y-153D01*
X1296808Y-169D01*
X1296824Y-186D01*
X1296841D01*
Y-1669D01*
X1296558Y-1552D01*
X1296325Y-1452D01*
X1296108Y-1386D01*
X1295925Y-1352D01*
X1295791Y-1319D01*
X1295692Y-1303D01*
X1295608D01*
X1295375Y-1319D01*
X1295175Y-1386D01*
X1294992Y-1469D01*
X1294842Y-1552D01*
X1294725Y-1652D01*
X1294625Y-1736D01*
X1294575Y-1802D01*
X1294558Y-1819D01*
X1294425Y-2019D01*
X1294325Y-2236D01*
X1294259Y-2469D01*
X1294209Y-2685D01*
X1294175Y-2869D01*
X1294158Y-3035D01*
Y-3135D01*
Y-3152D01*
Y-3169D01*
Y-3435D01*
X1294192Y-3719D01*
X1294275Y-4302D01*
X1294425Y-4902D01*
X1294608Y-5535D01*
X1294842Y-6168D01*
X1295075Y-6801D01*
X1295342Y-7418D01*
X1295608Y-8017D01*
X1295891Y-8584D01*
X1296158Y-9100D01*
X1296391Y-9584D01*
X1296508Y-9784D01*
X1296625Y-9984D01*
X1296725Y-10167D01*
X1296808Y-10317D01*
X1296875Y-10450D01*
X1296941Y-10567D01*
X1297008Y-10667D01*
X1297041Y-10733D01*
X1297058Y-10767D01*
X1297074Y-10783D01*
Y-11000D01*
X1292459D01*
Y-9584D01*
X1295058D01*
X1294825Y-9134D01*
X1294608Y-8701D01*
X1294409Y-8284D01*
X1294225Y-7901D01*
X1294075Y-7551D01*
X1293925Y-7234D01*
X1293792Y-6934D01*
X1293675Y-6668D01*
X1293559Y-6418D01*
X1293475Y-6218D01*
X1293409Y-6035D01*
X1293342Y-5885D01*
X1293292Y-5768D01*
X1293259Y-5685D01*
X1293242Y-5635D01*
Y-5618D01*
X1293059Y-5085D01*
X1292926Y-4568D01*
X1292825Y-4118D01*
X1292792Y-3902D01*
X1292759Y-3702D01*
X1292742Y-3535D01*
X1292726Y-3369D01*
X1292709Y-3235D01*
X1292692Y-3119D01*
Y-3019D01*
Y-2952D01*
Y-2919D01*
Y-2902D01*
X1292726Y-2386D01*
X1292792Y-1936D01*
X1292909Y-1536D01*
X1292975Y-1369D01*
X1293026Y-1219D01*
X1293092Y-1086D01*
X1293159Y-953D01*
X1293209Y-853D01*
X1293275Y-769D01*
X1293309Y-703D01*
X1293342Y-653D01*
X1293375Y-636D01*
Y-619D01*
X1293509Y-469D01*
X1293659Y-336D01*
X1293809Y-236D01*
X1293959Y-136D01*
X1294259Y14D01*
X1294558Y114D01*
X1294825Y164D01*
X1294942Y197D01*
X1295042D01*
X1295125Y214D01*
X1295242D01*
X1295525Y197D01*
D02*
G37*
G36*
X1283395D02*
X1283678Y147D01*
X1283945Y81D01*
X1284194Y14D01*
X1284394Y-53D01*
X1284561Y-119D01*
X1284628Y-153D01*
X1284678Y-169D01*
X1284694Y-186D01*
X1284711D01*
Y-1669D01*
X1284428Y-1552D01*
X1284194Y-1452D01*
X1283978Y-1386D01*
X1283795Y-1352D01*
X1283661Y-1319D01*
X1283561Y-1303D01*
X1283478D01*
X1283245Y-1319D01*
X1283045Y-1386D01*
X1282861Y-1469D01*
X1282711Y-1552D01*
X1282595Y-1652D01*
X1282495Y-1736D01*
X1282445Y-1802D01*
X1282428Y-1819D01*
X1282295Y-2019D01*
X1282195Y-2236D01*
X1282128Y-2469D01*
X1282078Y-2685D01*
X1282045Y-2869D01*
X1282028Y-3035D01*
Y-3135D01*
Y-3152D01*
Y-3169D01*
Y-3435D01*
X1282062Y-3719D01*
X1282145Y-4302D01*
X1282295Y-4902D01*
X1282478Y-5535D01*
X1282711Y-6168D01*
X1282945Y-6801D01*
X1283211Y-7418D01*
X1283478Y-8017D01*
X1283761Y-8584D01*
X1284028Y-9100D01*
X1284261Y-9584D01*
X1284378Y-9784D01*
X1284494Y-9984D01*
X1284594Y-10167D01*
X1284678Y-10317D01*
X1284744Y-10450D01*
X1284811Y-10567D01*
X1284878Y-10667D01*
X1284911Y-10733D01*
X1284928Y-10767D01*
X1284944Y-10783D01*
Y-11000D01*
X1280329D01*
Y-9584D01*
X1282928D01*
X1282695Y-9134D01*
X1282478Y-8701D01*
X1282278Y-8284D01*
X1282095Y-7901D01*
X1281945Y-7551D01*
X1281795Y-7234D01*
X1281662Y-6934D01*
X1281545Y-6668D01*
X1281429Y-6418D01*
X1281345Y-6218D01*
X1281279Y-6035D01*
X1281212Y-5885D01*
X1281162Y-5768D01*
X1281129Y-5685D01*
X1281112Y-5635D01*
Y-5618D01*
X1280929Y-5085D01*
X1280795Y-4568D01*
X1280695Y-4118D01*
X1280662Y-3902D01*
X1280629Y-3702D01*
X1280612Y-3535D01*
X1280595Y-3369D01*
X1280579Y-3235D01*
X1280562Y-3119D01*
Y-3019D01*
Y-2952D01*
Y-2919D01*
Y-2902D01*
X1280595Y-2386D01*
X1280662Y-1936D01*
X1280779Y-1536D01*
X1280845Y-1369D01*
X1280895Y-1219D01*
X1280962Y-1086D01*
X1281029Y-953D01*
X1281078Y-853D01*
X1281145Y-769D01*
X1281178Y-703D01*
X1281212Y-653D01*
X1281245Y-636D01*
Y-619D01*
X1281378Y-469D01*
X1281528Y-336D01*
X1281678Y-236D01*
X1281828Y-136D01*
X1282128Y14D01*
X1282428Y114D01*
X1282695Y164D01*
X1282811Y197D01*
X1282911D01*
X1282995Y214D01*
X1283111D01*
X1283395Y197D01*
D02*
G37*
G36*
X1277629Y-3252D02*
X1277813Y-3635D01*
X1277963Y-4035D01*
X1278096Y-4418D01*
X1278213Y-4802D01*
X1278296Y-5168D01*
X1278379Y-5535D01*
X1278446Y-5868D01*
X1278496Y-6184D01*
X1278546Y-6485D01*
X1278579Y-6751D01*
X1278596Y-6984D01*
X1278613Y-7184D01*
X1278629Y-7351D01*
Y-7467D01*
Y-7534D01*
Y-7567D01*
Y-7884D01*
X1278596Y-8184D01*
X1278562Y-8467D01*
X1278529Y-8734D01*
X1278479Y-8984D01*
X1278429Y-9200D01*
X1278363Y-9400D01*
X1278296Y-9584D01*
X1278246Y-9734D01*
X1278179Y-9884D01*
X1278129Y-10000D01*
X1278079Y-10100D01*
X1278046Y-10167D01*
X1278013Y-10217D01*
X1277979Y-10250D01*
Y-10267D01*
X1277846Y-10433D01*
X1277729Y-10567D01*
X1277596Y-10700D01*
X1277446Y-10800D01*
X1277179Y-10967D01*
X1276930Y-11083D01*
X1276696Y-11150D01*
X1276530Y-11183D01*
X1276463Y-11200D01*
X1276363D01*
X1276180Y-11183D01*
X1276013Y-11150D01*
X1275846Y-11100D01*
X1275680Y-11033D01*
X1275397Y-10867D01*
X1275163Y-10683D01*
X1274963Y-10500D01*
X1274814Y-10333D01*
X1274763Y-10267D01*
X1274730Y-10217D01*
X1274697Y-10184D01*
Y-10167D01*
X1274464Y-9767D01*
X1274297Y-9334D01*
X1274180Y-8900D01*
X1274097Y-8484D01*
X1274064Y-8301D01*
X1274047Y-8134D01*
X1274030Y-7967D01*
Y-7834D01*
X1274014Y-7734D01*
Y-7651D01*
Y-7601D01*
Y-7584D01*
X1274030Y-7034D01*
X1274097Y-6551D01*
X1274147Y-6334D01*
X1274197Y-6135D01*
X1274247Y-5951D01*
X1274297Y-5768D01*
X1274364Y-5618D01*
X1274414Y-5501D01*
X1274464Y-5385D01*
X1274497Y-5285D01*
X1274547Y-5218D01*
X1274564Y-5168D01*
X1274597Y-5135D01*
Y-5118D01*
X1274714Y-4951D01*
X1274830Y-4802D01*
X1274947Y-4685D01*
X1275063Y-4585D01*
X1275313Y-4418D01*
X1275563Y-4302D01*
X1275763Y-4235D01*
X1275947Y-4202D01*
X1276013Y-4185D01*
X1276096D01*
X1276296Y-4202D01*
X1276496Y-4235D01*
X1276580Y-4252D01*
X1276630Y-4268D01*
X1276680Y-4285D01*
X1276696D01*
X1274564Y97D01*
X1275996D01*
X1277629Y-3252D01*
D02*
G37*
G36*
X1314303Y-9334D02*
X1314420Y-9367D01*
X1314537Y-9400D01*
X1314620Y-9450D01*
X1314703Y-9517D01*
X1314753Y-9550D01*
X1314787Y-9584D01*
X1314803Y-9600D01*
X1314886Y-9700D01*
X1314953Y-9817D01*
X1315003Y-9917D01*
X1315036Y-10017D01*
X1315053Y-10100D01*
X1315070Y-10167D01*
Y-10217D01*
Y-10234D01*
X1315053Y-10367D01*
X1315020Y-10500D01*
X1314987Y-10600D01*
X1314937Y-10700D01*
X1314886Y-10783D01*
X1314837Y-10833D01*
X1314820Y-10867D01*
X1314803Y-10883D01*
X1314703Y-10967D01*
X1314587Y-11033D01*
X1314487Y-11083D01*
X1314387Y-11117D01*
X1314303Y-11133D01*
X1314237Y-11150D01*
X1314170D01*
X1314037Y-11133D01*
X1313904Y-11100D01*
X1313804Y-11067D01*
X1313703Y-11017D01*
X1313620Y-10967D01*
X1313570Y-10917D01*
X1313537Y-10900D01*
X1313520Y-10883D01*
X1313437Y-10783D01*
X1313370Y-10667D01*
X1313320Y-10567D01*
X1313287Y-10450D01*
X1313270Y-10367D01*
X1313254Y-10300D01*
Y-10250D01*
Y-10234D01*
X1313270Y-10100D01*
X1313287Y-9984D01*
X1313337Y-9867D01*
X1313387Y-9784D01*
X1313437Y-9700D01*
X1313470Y-9650D01*
X1313504Y-9617D01*
X1313520Y-9600D01*
X1313620Y-9500D01*
X1313737Y-9434D01*
X1313837Y-9384D01*
X1313937Y-9350D01*
X1314037Y-9334D01*
X1314103Y-9317D01*
X1314170D01*
X1314303Y-9334D01*
D02*
G37*
G36*
X1299241D02*
X1299357Y-9367D01*
X1299474Y-9400D01*
X1299557Y-9450D01*
X1299641Y-9517D01*
X1299690Y-9550D01*
X1299724Y-9584D01*
X1299740Y-9600D01*
X1299824Y-9700D01*
X1299890Y-9817D01*
X1299940Y-9917D01*
X1299974Y-10017D01*
X1299990Y-10100D01*
X1300007Y-10167D01*
Y-10217D01*
Y-10234D01*
X1299990Y-10367D01*
X1299957Y-10500D01*
X1299924Y-10600D01*
X1299874Y-10700D01*
X1299824Y-10783D01*
X1299774Y-10833D01*
X1299757Y-10867D01*
X1299740Y-10883D01*
X1299641Y-10967D01*
X1299524Y-11033D01*
X1299424Y-11083D01*
X1299324Y-11117D01*
X1299241Y-11133D01*
X1299174Y-11150D01*
X1299107D01*
X1298974Y-11133D01*
X1298841Y-11100D01*
X1298741Y-11067D01*
X1298641Y-11017D01*
X1298557Y-10967D01*
X1298507Y-10917D01*
X1298474Y-10900D01*
X1298457Y-10883D01*
X1298374Y-10783D01*
X1298307Y-10667D01*
X1298257Y-10567D01*
X1298224Y-10450D01*
X1298208Y-10367D01*
X1298191Y-10300D01*
Y-10250D01*
Y-10234D01*
X1298208Y-10100D01*
X1298224Y-9984D01*
X1298274Y-9867D01*
X1298324Y-9784D01*
X1298374Y-9700D01*
X1298407Y-9650D01*
X1298441Y-9617D01*
X1298457Y-9600D01*
X1298557Y-9500D01*
X1298674Y-9434D01*
X1298774Y-9384D01*
X1298874Y-9350D01*
X1298974Y-9334D01*
X1299041Y-9317D01*
X1299107D01*
X1299241Y-9334D01*
D02*
G37*
G36*
X1320935Y-1203D02*
X1318136D01*
X1320069Y-10900D01*
X1318702Y-11200D01*
X1316403Y97D01*
X1320935D01*
Y-1203D01*
D02*
G37*
G36*
X1309921Y197D02*
X1310121Y147D01*
X1310321Y81D01*
X1310488Y-36D01*
X1310654Y-153D01*
X1310804Y-319D01*
X1310954Y-486D01*
X1311087Y-686D01*
X1311204Y-886D01*
X1311321Y-1119D01*
X1311504Y-1586D01*
X1311671Y-2102D01*
X1311787Y-2636D01*
X1311887Y-3169D01*
X1311954Y-3685D01*
X1312021Y-4168D01*
X1312037Y-4402D01*
X1312054Y-4602D01*
Y-4802D01*
X1312071Y-4968D01*
Y-5118D01*
X1312087Y-5251D01*
Y-5351D01*
Y-5435D01*
Y-5485D01*
Y-5501D01*
Y-6035D01*
X1312071Y-6518D01*
X1312037Y-6968D01*
X1312004Y-7401D01*
X1311954Y-7784D01*
X1311904Y-8134D01*
X1311854Y-8451D01*
X1311804Y-8734D01*
X1311754Y-8984D01*
X1311704Y-9200D01*
X1311654Y-9384D01*
X1311604Y-9534D01*
X1311571Y-9650D01*
X1311537Y-9734D01*
X1311521Y-9784D01*
Y-9800D01*
X1311404Y-10050D01*
X1311271Y-10267D01*
X1311138Y-10450D01*
X1310988Y-10617D01*
X1310838Y-10750D01*
X1310688Y-10850D01*
X1310538Y-10950D01*
X1310388Y-11017D01*
X1310121Y-11133D01*
X1310004Y-11150D01*
X1309904Y-11183D01*
X1309821D01*
X1309754Y-11200D01*
X1309704D01*
X1309471Y-11183D01*
X1309255Y-11133D01*
X1309055Y-11067D01*
X1308871Y-10983D01*
X1308555Y-10750D01*
X1308305Y-10483D01*
X1308105Y-10234D01*
X1307955Y-10000D01*
X1307922Y-9917D01*
X1307888Y-9850D01*
X1307855Y-9800D01*
Y-9784D01*
X1307755Y-9500D01*
X1307655Y-9200D01*
X1307588Y-8867D01*
X1307522Y-8517D01*
X1307422Y-7801D01*
X1307339Y-7118D01*
X1307322Y-6784D01*
X1307305Y-6485D01*
X1307289Y-6201D01*
Y-5968D01*
X1307272Y-5768D01*
Y-5635D01*
Y-5535D01*
Y-5501D01*
Y-4968D01*
X1307305Y-4468D01*
X1307322Y-4002D01*
X1307372Y-3568D01*
X1307405Y-3185D01*
X1307455Y-2819D01*
X1307522Y-2502D01*
X1307572Y-2219D01*
X1307622Y-1969D01*
X1307688Y-1752D01*
X1307738Y-1569D01*
X1307772Y-1436D01*
X1307822Y-1319D01*
X1307838Y-1236D01*
X1307872Y-1186D01*
Y-1169D01*
X1307988Y-919D01*
X1308122Y-719D01*
X1308255Y-519D01*
X1308405Y-369D01*
X1308555Y-236D01*
X1308721Y-119D01*
X1308871Y-36D01*
X1309005Y47D01*
X1309288Y147D01*
X1309405Y164D01*
X1309505Y197D01*
X1309588D01*
X1309655Y214D01*
X1309704D01*
X1309921Y197D01*
D02*
G37*
G36*
X1305872Y-1203D02*
X1303073D01*
X1305006Y-10900D01*
X1303639Y-11200D01*
X1301340Y97D01*
X1305872D01*
Y-1203D01*
D02*
G37*
G36*
X1288793Y197D02*
X1288993Y147D01*
X1289193Y81D01*
X1289360Y-36D01*
X1289526Y-153D01*
X1289676Y-319D01*
X1289826Y-486D01*
X1289960Y-686D01*
X1290076Y-886D01*
X1290193Y-1119D01*
X1290376Y-1586D01*
X1290543Y-2102D01*
X1290659Y-2636D01*
X1290759Y-3169D01*
X1290826Y-3685D01*
X1290893Y-4168D01*
X1290909Y-4402D01*
X1290926Y-4602D01*
Y-4802D01*
X1290943Y-4968D01*
Y-5118D01*
X1290959Y-5251D01*
Y-5351D01*
Y-5435D01*
Y-5485D01*
Y-5501D01*
Y-6035D01*
X1290943Y-6518D01*
X1290909Y-6968D01*
X1290876Y-7401D01*
X1290826Y-7784D01*
X1290776Y-8134D01*
X1290726Y-8451D01*
X1290676Y-8734D01*
X1290626Y-8984D01*
X1290576Y-9200D01*
X1290526Y-9384D01*
X1290476Y-9534D01*
X1290443Y-9650D01*
X1290410Y-9734D01*
X1290393Y-9784D01*
Y-9800D01*
X1290276Y-10050D01*
X1290143Y-10267D01*
X1290010Y-10450D01*
X1289860Y-10617D01*
X1289710Y-10750D01*
X1289560Y-10850D01*
X1289410Y-10950D01*
X1289260Y-11017D01*
X1288993Y-11133D01*
X1288876Y-11150D01*
X1288777Y-11183D01*
X1288693D01*
X1288627Y-11200D01*
X1288577D01*
X1288343Y-11183D01*
X1288127Y-11133D01*
X1287927Y-11067D01*
X1287744Y-10983D01*
X1287427Y-10750D01*
X1287177Y-10483D01*
X1286977Y-10234D01*
X1286827Y-10000D01*
X1286794Y-9917D01*
X1286760Y-9850D01*
X1286727Y-9800D01*
Y-9784D01*
X1286627Y-9500D01*
X1286527Y-9200D01*
X1286461Y-8867D01*
X1286394Y-8517D01*
X1286294Y-7801D01*
X1286211Y-7118D01*
X1286194Y-6784D01*
X1286177Y-6485D01*
X1286161Y-6201D01*
Y-5968D01*
X1286144Y-5768D01*
Y-5635D01*
Y-5535D01*
Y-5501D01*
Y-4968D01*
X1286177Y-4468D01*
X1286194Y-4002D01*
X1286244Y-3568D01*
X1286277Y-3185D01*
X1286327Y-2819D01*
X1286394Y-2502D01*
X1286444Y-2219D01*
X1286494Y-1969D01*
X1286561Y-1752D01*
X1286611Y-1569D01*
X1286644Y-1436D01*
X1286694Y-1319D01*
X1286710Y-1236D01*
X1286744Y-1186D01*
Y-1169D01*
X1286860Y-919D01*
X1286994Y-719D01*
X1287127Y-519D01*
X1287277Y-369D01*
X1287427Y-236D01*
X1287594Y-119D01*
X1287744Y-36D01*
X1287877Y47D01*
X1288160Y147D01*
X1288277Y164D01*
X1288377Y197D01*
X1288460D01*
X1288527Y214D01*
X1288577D01*
X1288793Y197D01*
D02*
G37*
G36*
X5436Y-233839D02*
Y-234881D01*
X4086Y-234489D01*
Y-238863D01*
X2711D01*
Y-232939D01*
X2836D01*
X5436Y-233839D01*
D02*
G37*
G36*
X7993Y-237005D02*
X8001Y-237147D01*
X8018Y-237272D01*
X8043Y-237380D01*
X8068Y-237463D01*
X8102Y-237538D01*
X8127Y-237588D01*
X8143Y-237621D01*
X8152Y-237630D01*
X8218Y-237705D01*
X8293Y-237755D01*
X8368Y-237796D01*
X8443Y-237821D01*
X8510Y-237838D01*
X8560Y-237846D01*
X8610D01*
X8726Y-237838D01*
X8818Y-237821D01*
X8901Y-237788D01*
X8968Y-237755D01*
X9018Y-237730D01*
X9051Y-237696D01*
X9068Y-237680D01*
X9076Y-237672D01*
X9126Y-237596D01*
X9160Y-237505D01*
X9185Y-237405D01*
X9201Y-237305D01*
X9210Y-237222D01*
X9218Y-237147D01*
Y-237097D01*
Y-237088D01*
Y-237080D01*
X10651D01*
X10642Y-237238D01*
X10626Y-237397D01*
X10601Y-237538D01*
X10568Y-237672D01*
X10526Y-237796D01*
X10484Y-237913D01*
X10434Y-238013D01*
X10384Y-238105D01*
X10334Y-238188D01*
X10284Y-238263D01*
X10243Y-238321D01*
X10201Y-238371D01*
X10168Y-238413D01*
X10143Y-238438D01*
X10126Y-238455D01*
X10118Y-238463D01*
X10009Y-238546D01*
X9901Y-238621D01*
X9776Y-238688D01*
X9651Y-238738D01*
X9526Y-238788D01*
X9401Y-238829D01*
X9160Y-238888D01*
X9051Y-238904D01*
X8943Y-238921D01*
X8851Y-238930D01*
X8768Y-238938D01*
X8701Y-238946D01*
X8610D01*
X8393Y-238938D01*
X8202Y-238904D01*
X8018Y-238871D01*
X7868Y-238821D01*
X7735Y-238780D01*
X7685Y-238763D01*
X7643Y-238738D01*
X7610Y-238729D01*
X7585Y-238713D01*
X7568Y-238705D01*
X7560D01*
X7393Y-238605D01*
X7252Y-238496D01*
X7127Y-238380D01*
X7018Y-238271D01*
X6944Y-238171D01*
X6885Y-238096D01*
X6860Y-238063D01*
X6844Y-238038D01*
X6835Y-238030D01*
Y-238021D01*
X6744Y-237846D01*
X6677Y-237672D01*
X6635Y-237505D01*
X6602Y-237347D01*
X6585Y-237205D01*
X6577Y-237147D01*
X6569Y-237097D01*
Y-237063D01*
Y-237030D01*
Y-237013D01*
Y-237005D01*
Y-232939D01*
X7993D01*
Y-237005D01*
D02*
G37*
G36*
X-938Y-232864D02*
X-763Y-232881D01*
X-605Y-232914D01*
X-463Y-232956D01*
X-321Y-233006D01*
X-196Y-233064D01*
X-88Y-233123D01*
X20Y-233181D01*
X112Y-233248D01*
X187Y-233306D01*
X254Y-233364D01*
X312Y-233414D01*
X353Y-233456D01*
X387Y-233489D01*
X404Y-233506D01*
X412Y-233514D01*
X503Y-233639D01*
X587Y-233781D01*
X662Y-233922D01*
X720Y-234081D01*
X770Y-234231D01*
X812Y-234381D01*
X878Y-234681D01*
X903Y-234822D01*
X920Y-234947D01*
X928Y-235064D01*
X937Y-235164D01*
X945Y-235247D01*
Y-235314D01*
Y-235347D01*
Y-235364D01*
Y-236447D01*
X937Y-236663D01*
X920Y-236872D01*
X895Y-237063D01*
X862Y-237238D01*
X820Y-237405D01*
X770Y-237555D01*
X728Y-237696D01*
X670Y-237821D01*
X620Y-237930D01*
X578Y-238021D01*
X528Y-238105D01*
X487Y-238171D01*
X454Y-238230D01*
X428Y-238263D01*
X412Y-238288D01*
X404Y-238296D01*
X295Y-238413D01*
X179Y-238513D01*
X62Y-238596D01*
X-63Y-238671D01*
X-188Y-238738D01*
X-313Y-238788D01*
X-438Y-238829D01*
X-563Y-238863D01*
X-680Y-238888D01*
X-780Y-238913D01*
X-879Y-238930D01*
X-963Y-238938D01*
X-1029D01*
X-1080Y-238946D01*
X-1121D01*
X-1304Y-238938D01*
X-1471Y-238921D01*
X-1629Y-238888D01*
X-1771Y-238846D01*
X-1913Y-238796D01*
X-2038Y-238738D01*
X-2146Y-238680D01*
X-2254Y-238621D01*
X-2346Y-238563D01*
X-2421Y-238505D01*
X-2487Y-238446D01*
X-2546Y-238396D01*
X-2587Y-238355D01*
X-2621Y-238321D01*
X-2637Y-238305D01*
X-2646Y-238296D01*
X-2737Y-238171D01*
X-2821Y-238030D01*
X-2896Y-237888D01*
X-2962Y-237730D01*
X-3012Y-237580D01*
X-3054Y-237421D01*
X-3121Y-237130D01*
X-3146Y-236988D01*
X-3162Y-236863D01*
X-3171Y-236747D01*
X-3179Y-236647D01*
X-3187Y-236563D01*
Y-236497D01*
Y-236464D01*
Y-236447D01*
Y-235364D01*
X-3179Y-235147D01*
X-3162Y-234939D01*
X-3137Y-234747D01*
X-3104Y-234572D01*
X-3062Y-234406D01*
X-3012Y-234256D01*
X-2971Y-234114D01*
X-2921Y-233989D01*
X-2862Y-233881D01*
X-2821Y-233789D01*
X-2771Y-233706D01*
X-2729Y-233639D01*
X-2696Y-233581D01*
X-2671Y-233547D01*
X-2654Y-233522D01*
X-2646Y-233514D01*
X-2537Y-233398D01*
X-2421Y-233298D01*
X-2304Y-233206D01*
X-2179Y-233131D01*
X-2054Y-233073D01*
X-1921Y-233014D01*
X-1796Y-232973D01*
X-1679Y-232939D01*
X-1563Y-232914D01*
X-1454Y-232889D01*
X-1363Y-232873D01*
X-1279Y-232864D01*
X-1204Y-232856D01*
X-1113D01*
X-938Y-232864D01*
D02*
G37*
G36*
X1396102Y-236001D02*
X1396293Y-236035D01*
X1396477Y-236085D01*
X1396635Y-236135D01*
X1396760Y-236193D01*
X1396818Y-236218D01*
X1396860Y-236235D01*
X1396893Y-236260D01*
X1396918Y-236268D01*
X1396935Y-236285D01*
X1396943D01*
X1397110Y-236401D01*
X1397260Y-236526D01*
X1397385Y-236651D01*
X1397493Y-236776D01*
X1397576Y-236893D01*
X1397635Y-236976D01*
X1397660Y-237010D01*
X1397668Y-237035D01*
X1397685Y-237051D01*
Y-237060D01*
X1397776Y-237243D01*
X1397835Y-237426D01*
X1397885Y-237601D01*
X1397918Y-237768D01*
X1397935Y-237901D01*
X1397943Y-237959D01*
Y-238009D01*
X1397951Y-238051D01*
Y-238084D01*
Y-238101D01*
Y-238109D01*
X1397943Y-238276D01*
X1397935Y-238434D01*
X1397910Y-238584D01*
X1397876Y-238726D01*
X1397843Y-238851D01*
X1397801Y-238976D01*
X1397760Y-239084D01*
X1397718Y-239184D01*
X1397676Y-239267D01*
X1397635Y-239351D01*
X1397593Y-239417D01*
X1397560Y-239467D01*
X1397526Y-239509D01*
X1397501Y-239542D01*
X1397493Y-239559D01*
X1397485Y-239567D01*
X1397393Y-239659D01*
X1397293Y-239742D01*
X1397193Y-239817D01*
X1397085Y-239884D01*
X1396976Y-239934D01*
X1396868Y-239975D01*
X1396668Y-240042D01*
X1396568Y-240067D01*
X1396485Y-240084D01*
X1396402Y-240092D01*
X1396335Y-240100D01*
X1396277Y-240109D01*
X1396202D01*
X1396102Y-240100D01*
X1396002Y-240092D01*
X1395818Y-240051D01*
X1395643Y-239984D01*
X1395502Y-239909D01*
X1395377Y-239842D01*
X1395327Y-239809D01*
X1395285Y-239776D01*
X1395252Y-239751D01*
X1395227Y-239734D01*
X1395219Y-239717D01*
X1395210D01*
X1395252Y-239925D01*
X1395327Y-240117D01*
X1395410Y-240275D01*
X1395527Y-240417D01*
X1395643Y-240542D01*
X1395777Y-240642D01*
X1395918Y-240734D01*
X1396060Y-240800D01*
X1396193Y-240859D01*
X1396327Y-240900D01*
X1396452Y-240934D01*
X1396560Y-240950D01*
X1396652Y-240967D01*
X1396727Y-240975D01*
X1396768Y-240984D01*
X1397043D01*
Y-242083D01*
X1396960D01*
X1396785Y-242075D01*
X1396618Y-242067D01*
X1396452Y-242050D01*
X1396302Y-242025D01*
X1396152Y-241992D01*
X1396018Y-241958D01*
X1395893Y-241925D01*
X1395777Y-241892D01*
X1395668Y-241858D01*
X1395577Y-241825D01*
X1395494Y-241792D01*
X1395427Y-241758D01*
X1395377Y-241733D01*
X1395335Y-241717D01*
X1395310Y-241700D01*
X1395302D01*
X1395052Y-241542D01*
X1394827Y-241367D01*
X1394635Y-241183D01*
X1394561Y-241092D01*
X1394485Y-241009D01*
X1394419Y-240925D01*
X1394361Y-240850D01*
X1394310Y-240775D01*
X1394269Y-240717D01*
X1394244Y-240667D01*
X1394219Y-240634D01*
X1394211Y-240609D01*
X1394202Y-240600D01*
X1394136Y-240459D01*
X1394077Y-240317D01*
X1393977Y-240026D01*
X1393911Y-239742D01*
X1393886Y-239601D01*
X1393869Y-239476D01*
X1393852Y-239351D01*
X1393836Y-239242D01*
X1393827Y-239142D01*
Y-239059D01*
X1393819Y-238984D01*
Y-238934D01*
Y-238901D01*
Y-238892D01*
Y-238368D01*
X1393836Y-238109D01*
X1393869Y-237876D01*
X1393911Y-237668D01*
X1393961Y-237484D01*
X1393986Y-237401D01*
X1394011Y-237334D01*
X1394036Y-237276D01*
X1394052Y-237218D01*
X1394069Y-237185D01*
X1394086Y-237151D01*
X1394094Y-237135D01*
Y-237126D01*
X1394202Y-236935D01*
X1394319Y-236768D01*
X1394435Y-236626D01*
X1394561Y-236510D01*
X1394660Y-236410D01*
X1394752Y-236343D01*
X1394785Y-236327D01*
X1394802Y-236310D01*
X1394819Y-236293D01*
X1394827D01*
X1395010Y-236193D01*
X1395194Y-236118D01*
X1395369Y-236068D01*
X1395535Y-236026D01*
X1395677Y-236010D01*
X1395735Y-236001D01*
X1395785D01*
X1395827Y-235993D01*
X1395885D01*
X1396102Y-236001D01*
D02*
G37*
G36*
X1400151Y-240142D02*
X1400159Y-240284D01*
X1400176Y-240409D01*
X1400201Y-240517D01*
X1400226Y-240600D01*
X1400259Y-240675D01*
X1400284Y-240725D01*
X1400301Y-240759D01*
X1400309Y-240767D01*
X1400376Y-240842D01*
X1400451Y-240892D01*
X1400526Y-240934D01*
X1400601Y-240959D01*
X1400667Y-240975D01*
X1400717Y-240984D01*
X1400767D01*
X1400884Y-240975D01*
X1400975Y-240959D01*
X1401059Y-240925D01*
X1401125Y-240892D01*
X1401175Y-240867D01*
X1401209Y-240834D01*
X1401225Y-240817D01*
X1401234Y-240809D01*
X1401284Y-240734D01*
X1401317Y-240642D01*
X1401342Y-240542D01*
X1401359Y-240442D01*
X1401367Y-240359D01*
X1401375Y-240284D01*
Y-240234D01*
Y-240226D01*
Y-240217D01*
X1402808D01*
X1402800Y-240375D01*
X1402783Y-240534D01*
X1402758Y-240675D01*
X1402725Y-240809D01*
X1402683Y-240934D01*
X1402642Y-241050D01*
X1402592Y-241150D01*
X1402542Y-241242D01*
X1402492Y-241325D01*
X1402442Y-241400D01*
X1402400Y-241458D01*
X1402359Y-241509D01*
X1402325Y-241550D01*
X1402300Y-241575D01*
X1402283Y-241592D01*
X1402275Y-241600D01*
X1402167Y-241683D01*
X1402059Y-241758D01*
X1401934Y-241825D01*
X1401809Y-241875D01*
X1401684Y-241925D01*
X1401559Y-241967D01*
X1401317Y-242025D01*
X1401209Y-242042D01*
X1401100Y-242058D01*
X1401009Y-242067D01*
X1400925Y-242075D01*
X1400859Y-242083D01*
X1400767D01*
X1400551Y-242075D01*
X1400359Y-242042D01*
X1400176Y-242008D01*
X1400026Y-241958D01*
X1399892Y-241917D01*
X1399842Y-241900D01*
X1399801Y-241875D01*
X1399767Y-241867D01*
X1399742Y-241850D01*
X1399726Y-241842D01*
X1399718D01*
X1399551Y-241742D01*
X1399409Y-241633D01*
X1399284Y-241517D01*
X1399176Y-241409D01*
X1399101Y-241308D01*
X1399043Y-241234D01*
X1399018Y-241200D01*
X1399001Y-241175D01*
X1398993Y-241167D01*
Y-241159D01*
X1398901Y-240984D01*
X1398834Y-240809D01*
X1398793Y-240642D01*
X1398759Y-240484D01*
X1398743Y-240342D01*
X1398734Y-240284D01*
X1398726Y-240234D01*
Y-240201D01*
Y-240167D01*
Y-240151D01*
Y-240142D01*
Y-236077D01*
X1400151D01*
Y-240142D01*
D02*
G37*
%LPC*%
G36*
X1339149Y13148D02*
X1339099D01*
X1338875Y13123D01*
X1338674Y13023D01*
X1338500Y12898D01*
X1338350Y12698D01*
X1338225Y12498D01*
X1338125Y12248D01*
X1337950Y11723D01*
X1337875Y11198D01*
X1337850Y10948D01*
X1337825Y10748D01*
X1337800Y10574D01*
Y10424D01*
Y10324D01*
Y10299D01*
X1337825Y9674D01*
X1337850Y9124D01*
X1337925Y8674D01*
X1338000Y8274D01*
X1338100Y7924D01*
X1338200Y7624D01*
X1338325Y7399D01*
X1338425Y7224D01*
X1338549Y7074D01*
X1338674Y6949D01*
X1338775Y6874D01*
X1338875Y6824D01*
X1339024Y6775D01*
X1339074D01*
X1339299Y6799D01*
X1339474Y6899D01*
X1339649Y7074D01*
X1339799Y7274D01*
X1339924Y7499D01*
X1340024Y7774D01*
X1340174Y8374D01*
X1340249Y8949D01*
X1340274Y9224D01*
X1340299Y9449D01*
X1340324Y9649D01*
Y9824D01*
Y9924D01*
Y9949D01*
X1340299Y10524D01*
X1340274Y10999D01*
X1340199Y11423D01*
X1340124Y11798D01*
X1340049Y12098D01*
X1339924Y12373D01*
X1339824Y12573D01*
X1339699Y12748D01*
X1339599Y12873D01*
X1339474Y12973D01*
X1339374Y13048D01*
X1339299Y13098D01*
X1339149Y13148D01*
D02*
G37*
G36*
X1276380Y-5568D02*
X1276346D01*
X1276197Y-5585D01*
X1276063Y-5651D01*
X1275947Y-5735D01*
X1275846Y-5868D01*
X1275763Y-6001D01*
X1275697Y-6168D01*
X1275580Y-6518D01*
X1275530Y-6868D01*
X1275513Y-7034D01*
X1275497Y-7168D01*
X1275480Y-7284D01*
Y-7384D01*
Y-7451D01*
Y-7467D01*
X1275497Y-7884D01*
X1275513Y-8251D01*
X1275563Y-8551D01*
X1275613Y-8817D01*
X1275680Y-9050D01*
X1275747Y-9250D01*
X1275830Y-9400D01*
X1275897Y-9517D01*
X1275980Y-9617D01*
X1276063Y-9700D01*
X1276130Y-9750D01*
X1276197Y-9784D01*
X1276296Y-9817D01*
X1276330D01*
X1276480Y-9800D01*
X1276596Y-9734D01*
X1276713Y-9617D01*
X1276813Y-9484D01*
X1276896Y-9334D01*
X1276963Y-9151D01*
X1277063Y-8751D01*
X1277113Y-8367D01*
X1277130Y-8184D01*
X1277146Y-8034D01*
X1277163Y-7901D01*
Y-7784D01*
Y-7717D01*
Y-7701D01*
X1277146Y-7318D01*
X1277130Y-7001D01*
X1277080Y-6718D01*
X1277030Y-6468D01*
X1276980Y-6268D01*
X1276896Y-6085D01*
X1276830Y-5951D01*
X1276746Y-5835D01*
X1276680Y-5751D01*
X1276596Y-5685D01*
X1276530Y-5635D01*
X1276480Y-5601D01*
X1276380Y-5568D01*
D02*
G37*
G36*
X1309704Y-1086D02*
X1309688D01*
X1309605Y-1103D01*
X1309521Y-1119D01*
X1309371Y-1236D01*
X1309238Y-1386D01*
X1309138Y-1552D01*
X1309071Y-1719D01*
X1309005Y-1869D01*
X1308988Y-1986D01*
X1308971Y-2002D01*
Y-2019D01*
X1308938Y-2219D01*
X1308888Y-2436D01*
X1308855Y-2685D01*
X1308838Y-2952D01*
X1308788Y-3535D01*
X1308771Y-4118D01*
X1308755Y-4402D01*
Y-4652D01*
X1308738Y-4902D01*
Y-5102D01*
Y-5268D01*
Y-5401D01*
Y-5485D01*
Y-5518D01*
Y-5918D01*
X1308755Y-6284D01*
Y-6634D01*
X1308771Y-6968D01*
X1308805Y-7268D01*
X1308821Y-7551D01*
X1308855Y-7818D01*
X1308888Y-8051D01*
X1308921Y-8267D01*
X1308955Y-8484D01*
X1309005Y-8667D01*
X1309038Y-8834D01*
X1309121Y-9117D01*
X1309205Y-9350D01*
X1309305Y-9534D01*
X1309388Y-9667D01*
X1309471Y-9767D01*
X1309538Y-9834D01*
X1309605Y-9867D01*
X1309655Y-9884D01*
X1309671Y-9900D01*
X1309688D01*
X1309771Y-9884D01*
X1309854Y-9850D01*
X1309921Y-9784D01*
X1309988Y-9717D01*
X1310054Y-9617D01*
X1310121Y-9500D01*
X1310221Y-9217D01*
X1310321Y-8884D01*
X1310388Y-8517D01*
X1310454Y-8117D01*
X1310504Y-7701D01*
X1310538Y-7301D01*
X1310571Y-6901D01*
X1310588Y-6535D01*
X1310604Y-6201D01*
X1310621Y-5918D01*
Y-5801D01*
Y-5701D01*
Y-5618D01*
Y-5568D01*
Y-5535D01*
Y-5518D01*
Y-5018D01*
X1310604Y-4552D01*
Y-4152D01*
X1310588Y-3769D01*
X1310571Y-3435D01*
X1310554Y-3135D01*
X1310521Y-2885D01*
X1310504Y-2652D01*
X1310488Y-2469D01*
X1310454Y-2302D01*
X1310438Y-2169D01*
X1310421Y-2069D01*
X1310404Y-2002D01*
Y-1936D01*
X1310388Y-1919D01*
Y-1902D01*
X1310338Y-1752D01*
X1310288Y-1636D01*
X1310238Y-1519D01*
X1310171Y-1436D01*
X1310071Y-1286D01*
X1309955Y-1186D01*
X1309854Y-1136D01*
X1309771Y-1103D01*
X1309704Y-1086D01*
D02*
G37*
G36*
X1288577D02*
X1288560D01*
X1288477Y-1103D01*
X1288393Y-1119D01*
X1288243Y-1236D01*
X1288110Y-1386D01*
X1288010Y-1552D01*
X1287943Y-1719D01*
X1287877Y-1869D01*
X1287860Y-1986D01*
X1287843Y-2002D01*
Y-2019D01*
X1287810Y-2219D01*
X1287760Y-2436D01*
X1287727Y-2685D01*
X1287710Y-2952D01*
X1287660Y-3535D01*
X1287643Y-4118D01*
X1287627Y-4402D01*
Y-4652D01*
X1287610Y-4902D01*
Y-5102D01*
Y-5268D01*
Y-5401D01*
Y-5485D01*
Y-5518D01*
Y-5918D01*
X1287627Y-6284D01*
Y-6634D01*
X1287643Y-6968D01*
X1287677Y-7268D01*
X1287693Y-7551D01*
X1287727Y-7818D01*
X1287760Y-8051D01*
X1287793Y-8267D01*
X1287827Y-8484D01*
X1287877Y-8667D01*
X1287910Y-8834D01*
X1287993Y-9117D01*
X1288077Y-9350D01*
X1288177Y-9534D01*
X1288260Y-9667D01*
X1288343Y-9767D01*
X1288410Y-9834D01*
X1288477Y-9867D01*
X1288527Y-9884D01*
X1288543Y-9900D01*
X1288560D01*
X1288643Y-9884D01*
X1288727Y-9850D01*
X1288793Y-9784D01*
X1288860Y-9717D01*
X1288927Y-9617D01*
X1288993Y-9500D01*
X1289093Y-9217D01*
X1289193Y-8884D01*
X1289260Y-8517D01*
X1289326Y-8117D01*
X1289376Y-7701D01*
X1289410Y-7301D01*
X1289443Y-6901D01*
X1289460Y-6535D01*
X1289476Y-6201D01*
X1289493Y-5918D01*
Y-5801D01*
Y-5701D01*
Y-5618D01*
Y-5568D01*
Y-5535D01*
Y-5518D01*
Y-5018D01*
X1289476Y-4552D01*
Y-4152D01*
X1289460Y-3769D01*
X1289443Y-3435D01*
X1289426Y-3135D01*
X1289393Y-2885D01*
X1289376Y-2652D01*
X1289360Y-2469D01*
X1289326Y-2302D01*
X1289310Y-2169D01*
X1289293Y-2069D01*
X1289276Y-2002D01*
Y-1936D01*
X1289260Y-1919D01*
Y-1902D01*
X1289210Y-1752D01*
X1289160Y-1636D01*
X1289110Y-1519D01*
X1289043Y-1436D01*
X1288943Y-1286D01*
X1288827Y-1186D01*
X1288727Y-1136D01*
X1288643Y-1103D01*
X1288577Y-1086D01*
D02*
G37*
G36*
X-1104Y-233914D02*
X-1121D01*
X-1246Y-233931D01*
X-1354Y-233964D01*
X-1446Y-234014D01*
X-1521Y-234072D01*
X-1571Y-234131D01*
X-1613Y-234181D01*
X-1638Y-234214D01*
X-1646Y-234231D01*
X-1704Y-234364D01*
X-1746Y-234514D01*
X-1771Y-234672D01*
X-1796Y-234830D01*
X-1804Y-234972D01*
Y-235030D01*
X-1813Y-235081D01*
Y-235131D01*
Y-235164D01*
Y-235180D01*
Y-235189D01*
Y-236655D01*
X-1804Y-236880D01*
X-1788Y-237072D01*
X-1754Y-237238D01*
X-1729Y-237363D01*
X-1696Y-237472D01*
X-1663Y-237538D01*
X-1646Y-237580D01*
X-1638Y-237596D01*
X-1571Y-237696D01*
X-1488Y-237763D01*
X-1404Y-237813D01*
X-1321Y-237855D01*
X-1246Y-237871D01*
X-1188Y-237880D01*
X-1146Y-237888D01*
X-1129D01*
X-1005Y-237871D01*
X-888Y-237838D01*
X-796Y-237796D01*
X-730Y-237738D01*
X-671Y-237680D01*
X-630Y-237638D01*
X-605Y-237605D01*
X-596Y-237588D01*
X-571Y-237530D01*
X-538Y-237455D01*
X-496Y-237305D01*
X-471Y-237147D01*
X-455Y-236988D01*
X-438Y-236838D01*
Y-236780D01*
X-430Y-236722D01*
Y-236680D01*
Y-236638D01*
Y-236622D01*
Y-236613D01*
Y-235097D01*
X-438Y-234889D01*
X-463Y-234706D01*
X-488Y-234556D01*
X-513Y-234431D01*
X-546Y-234339D01*
X-571Y-234272D01*
X-588Y-234231D01*
X-596Y-234214D01*
X-663Y-234114D01*
X-746Y-234039D01*
X-838Y-233989D01*
X-921Y-233947D01*
X-996Y-233931D01*
X-1063Y-233922D01*
X-1104Y-233914D01*
D02*
G37*
G36*
X1395910Y-237051D02*
X1395893D01*
X1395777Y-237060D01*
X1395677Y-237093D01*
X1395585Y-237135D01*
X1395510Y-237185D01*
X1395452Y-237243D01*
X1395410Y-237285D01*
X1395385Y-237318D01*
X1395377Y-237326D01*
X1395310Y-237443D01*
X1395269Y-237576D01*
X1395235Y-237709D01*
X1395210Y-237851D01*
X1395194Y-237976D01*
X1395185Y-238076D01*
Y-238109D01*
Y-238143D01*
Y-238159D01*
Y-238168D01*
Y-238734D01*
X1395227Y-238801D01*
X1395269Y-238859D01*
X1395369Y-238959D01*
X1395477Y-239026D01*
X1395585Y-239067D01*
X1395685Y-239101D01*
X1395760Y-239109D01*
X1395793Y-239117D01*
X1395835D01*
X1395960Y-239109D01*
X1396060Y-239076D01*
X1396160Y-239034D01*
X1396235Y-238984D01*
X1396293Y-238934D01*
X1396343Y-238892D01*
X1396368Y-238859D01*
X1396377Y-238851D01*
X1396443Y-238743D01*
X1396493Y-238617D01*
X1396527Y-238493D01*
X1396552Y-238376D01*
X1396568Y-238268D01*
X1396577Y-238184D01*
Y-238151D01*
Y-238126D01*
Y-238118D01*
Y-238109D01*
X1396568Y-237951D01*
X1396543Y-237809D01*
X1396518Y-237684D01*
X1396477Y-237576D01*
X1396443Y-237484D01*
X1396418Y-237426D01*
X1396393Y-237384D01*
X1396385Y-237368D01*
X1396310Y-237260D01*
X1396227Y-237185D01*
X1396143Y-237126D01*
X1396060Y-237093D01*
X1395993Y-237068D01*
X1395943Y-237060D01*
X1395910Y-237051D01*
D02*
G37*
%LPD*%
D11*
X1384357Y-349837D02*
Y-336037D01*
Y-349837D02*
X1398158D01*
X1384357Y-323337D02*
X1411958D01*
X1384357D02*
Y-246037D01*
X1411958D01*
Y-323337D02*
Y-246037D01*
X18300Y-323200D02*
Y-245900D01*
X-9300D02*
X18300D01*
X-9300Y-323200D02*
Y-245900D01*
Y-323200D02*
X18300D01*
X-9300Y-349700D02*
X4500D01*
X-9300D02*
Y-335900D01*
M02*
