G04*
G04 #@! TF.GenerationSoftware,Altium Limited,Altium Designer,26.5.1 (12)*
G04*
G04 Layer_Color=8421504*
G04 Board_Origin=66616740|373809532*
%FSLAX44Y44*%
%MOMM*%
G71*
G04*
G04 #@! TF.SameCoordinates,F19D7668-0BCF-4497-8D96-F11F38428737*
G04*
G04*
G04 #@! TF.FilePolarity,Positive*
G04*
G01*
G75*
G04:AMPARAMS|DCode=12|XSize=0.9mm|YSize=0.95mm|CornerRadius=0.1125mm|HoleSize=0mm|Usage=FLASHONLY|Rotation=180.000|XOffset=0mm|YOffset=0mm|HoleType=Round|Shape=RoundedRectangle|*
%AMROUNDEDRECTD12*
21,1,0.9000,0.7250,0,0,180.0*
21,1,0.6750,0.9500,0,0,180.0*
1,1,0.2250,-0.3375,0.3625*
1,1,0.2250,0.3375,0.3625*
1,1,0.2250,0.3375,-0.3625*
1,1,0.2250,-0.3375,-0.3625*
%
%ADD12ROUNDEDRECTD12*%
G04:AMPARAMS|DCode=13|XSize=0.8mm|YSize=0.95mm|CornerRadius=0.1mm|HoleSize=0mm|Usage=FLASHONLY|Rotation=180.000|XOffset=0mm|YOffset=0mm|HoleType=Round|Shape=RoundedRectangle|*
%AMROUNDEDRECTD13*
21,1,0.8000,0.7500,0,0,180.0*
21,1,0.6000,0.9500,0,0,180.0*
1,1,0.2000,-0.3000,0.3750*
1,1,0.2000,0.3000,0.3750*
1,1,0.2000,0.3000,-0.3750*
1,1,0.2000,-0.3000,-0.3750*
%
%ADD13ROUNDEDRECTD13*%
G04:AMPARAMS|DCode=14|XSize=0.875mm|YSize=0.95mm|CornerRadius=0.1094mm|HoleSize=0mm|Usage=FLASHONLY|Rotation=180.000|XOffset=0mm|YOffset=0mm|HoleType=Round|Shape=RoundedRectangle|*
%AMROUNDEDRECTD14*
21,1,0.8750,0.7313,0,0,180.0*
21,1,0.6563,0.9500,0,0,180.0*
1,1,0.2188,-0.3281,0.3656*
1,1,0.2188,0.3281,0.3656*
1,1,0.2188,0.3281,-0.3656*
1,1,0.2188,-0.3281,-0.3656*
%
%ADD14ROUNDEDRECTD14*%
G04:AMPARAMS|DCode=15|XSize=1.475mm|YSize=0.4mm|CornerRadius=0.05mm|HoleSize=0mm|Usage=FLASHONLY|Rotation=0.000|XOffset=0mm|YOffset=0mm|HoleType=Round|Shape=RoundedRectangle|*
%AMROUNDEDRECTD15*
21,1,1.4750,0.3000,0,0,0.0*
21,1,1.3750,0.4000,0,0,0.0*
1,1,0.1000,0.6875,-0.1500*
1,1,0.1000,-0.6875,-0.1500*
1,1,0.1000,-0.6875,0.1500*
1,1,0.1000,0.6875,0.1500*
%
%ADD15ROUNDEDRECTD15*%
G04:AMPARAMS|DCode=16|XSize=0.3mm|YSize=1.55mm|CornerRadius=0.0375mm|HoleSize=0mm|Usage=FLASHONLY|Rotation=0.000|XOffset=0mm|YOffset=0mm|HoleType=Round|Shape=RoundedRectangle|*
%AMROUNDEDRECTD16*
21,1,0.3000,1.4750,0,0,0.0*
21,1,0.2250,1.5500,0,0,0.0*
1,1,0.0750,0.1125,-0.7375*
1,1,0.0750,-0.1125,-0.7375*
1,1,0.0750,-0.1125,0.7375*
1,1,0.0750,0.1125,0.7375*
%
%ADD16ROUNDEDRECTD16*%
%ADD17C,1.5000*%
G04:AMPARAMS|DCode=18|XSize=0.9mm|YSize=0.95mm|CornerRadius=0.1125mm|HoleSize=0mm|Usage=FLASHONLY|Rotation=270.000|XOffset=0mm|YOffset=0mm|HoleType=Round|Shape=RoundedRectangle|*
%AMROUNDEDRECTD18*
21,1,0.9000,0.7250,0,0,270.0*
21,1,0.6750,0.9500,0,0,270.0*
1,1,0.2250,-0.3625,-0.3375*
1,1,0.2250,-0.3625,0.3375*
1,1,0.2250,0.3625,0.3375*
1,1,0.2250,0.3625,-0.3375*
%
%ADD18ROUNDEDRECTD18*%
%ADD19R,3.3020X3.3020*%
%ADD20R,0.2540X0.8128*%
%ADD21R,0.8128X0.2540*%
G04:AMPARAMS|DCode=22|XSize=1.025mm|YSize=1.4mm|CornerRadius=0.123mm|HoleSize=0mm|Usage=FLASHONLY|Rotation=90.000|XOffset=0mm|YOffset=0mm|HoleType=Round|Shape=RoundedRectangle|*
%AMROUNDEDRECTD22*
21,1,1.0250,1.1540,0,0,90.0*
21,1,0.7790,1.4000,0,0,90.0*
1,1,0.2460,0.5770,0.3895*
1,1,0.2460,0.5770,-0.3895*
1,1,0.2460,-0.5770,-0.3895*
1,1,0.2460,-0.5770,0.3895*
%
%ADD22ROUNDEDRECTD22*%
G04:AMPARAMS|DCode=23|XSize=1mm|YSize=1.45mm|CornerRadius=0.125mm|HoleSize=0mm|Usage=FLASHONLY|Rotation=270.000|XOffset=0mm|YOffset=0mm|HoleType=Round|Shape=RoundedRectangle|*
%AMROUNDEDRECTD23*
21,1,1.0000,1.2000,0,0,270.0*
21,1,0.7500,1.4500,0,0,270.0*
1,1,0.2500,-0.6000,-0.3750*
1,1,0.2500,-0.6000,0.3750*
1,1,0.2500,0.6000,0.3750*
1,1,0.2500,0.6000,-0.3750*
%
%ADD23ROUNDEDRECTD23*%
G04:AMPARAMS|DCode=24|XSize=0.8mm|YSize=0.95mm|CornerRadius=0.1mm|HoleSize=0mm|Usage=FLASHONLY|Rotation=90.000|XOffset=0mm|YOffset=0mm|HoleType=Round|Shape=RoundedRectangle|*
%AMROUNDEDRECTD24*
21,1,0.8000,0.7500,0,0,90.0*
21,1,0.6000,0.9500,0,0,90.0*
1,1,0.2000,0.3750,0.3000*
1,1,0.2000,0.3750,-0.3000*
1,1,0.2000,-0.3750,-0.3000*
1,1,0.2000,-0.3750,0.3000*
%
%ADD24ROUNDEDRECTD24*%
G04:AMPARAMS|DCode=25|XSize=3.5mm|YSize=2.5mm|CornerRadius=0.125mm|HoleSize=0mm|Usage=FLASHONLY|Rotation=90.000|XOffset=0mm|YOffset=0mm|HoleType=Round|Shape=RoundedRectangle|*
%AMROUNDEDRECTD25*
21,1,3.5000,2.2500,0,0,90.0*
21,1,3.2500,2.5000,0,0,90.0*
1,1,0.2500,1.1250,1.6250*
1,1,0.2500,1.1250,-1.6250*
1,1,0.2500,-1.1250,-1.6250*
1,1,0.2500,-1.1250,1.6250*
%
%ADD25ROUNDEDRECTD25*%
G04:AMPARAMS|DCode=26|XSize=1mm|YSize=1.45mm|CornerRadius=0.125mm|HoleSize=0mm|Usage=FLASHONLY|Rotation=0.000|XOffset=0mm|YOffset=0mm|HoleType=Round|Shape=RoundedRectangle|*
%AMROUNDEDRECTD26*
21,1,1.0000,1.2000,0,0,0.0*
21,1,0.7500,1.4500,0,0,0.0*
1,1,0.2500,0.3750,-0.6000*
1,1,0.2500,-0.3750,-0.6000*
1,1,0.2500,-0.3750,0.6000*
1,1,0.2500,0.3750,0.6000*
%
%ADD26ROUNDEDRECTD26*%
G04:AMPARAMS|DCode=27|XSize=3mm|YSize=1.2mm|CornerRadius=0.12mm|HoleSize=0mm|Usage=FLASHONLY|Rotation=90.000|XOffset=0mm|YOffset=0mm|HoleType=Round|Shape=RoundedRectangle|*
%AMROUNDEDRECTD27*
21,1,3.0000,0.9600,0,0,90.0*
21,1,2.7600,1.2000,0,0,90.0*
1,1,0.2400,0.4800,1.3800*
1,1,0.2400,0.4800,-1.3800*
1,1,0.2400,-0.4800,-1.3800*
1,1,0.2400,-0.4800,1.3800*
%
%ADD27ROUNDEDRECTD27*%
G04:AMPARAMS|DCode=28|XSize=1.7mm|YSize=5.7mm|CornerRadius=0.1275mm|HoleSize=0mm|Usage=FLASHONLY|Rotation=0.000|XOffset=0mm|YOffset=0mm|HoleType=Round|Shape=RoundedRectangle|*
%AMROUNDEDRECTD28*
21,1,1.7000,5.4450,0,0,0.0*
21,1,1.4450,5.7000,0,0,0.0*
1,1,0.2550,0.7225,-2.7225*
1,1,0.2550,-0.7225,-2.7225*
1,1,0.2550,-0.7225,2.7225*
1,1,0.2550,0.7225,2.7225*
%
%ADD28ROUNDEDRECTD28*%
%ADD29R,1.4000X1.6000*%
%ADD30R,1.5000X1.5000*%
G04:AMPARAMS|DCode=31|XSize=1.55mm|YSize=0.3mm|CornerRadius=0.0375mm|HoleSize=0mm|Usage=FLASHONLY|Rotation=0.000|XOffset=0mm|YOffset=0mm|HoleType=Round|Shape=RoundedRectangle|*
%AMROUNDEDRECTD31*
21,1,1.5500,0.2250,0,0,0.0*
21,1,1.4750,0.3000,0,0,0.0*
1,1,0.0750,0.7375,-0.1125*
1,1,0.0750,-0.7375,-0.1125*
1,1,0.0750,-0.7375,0.1125*
1,1,0.0750,0.7375,0.1125*
%
%ADD31ROUNDEDRECTD31*%
G04:AMPARAMS|DCode=32|XSize=1.4mm|YSize=4.2mm|CornerRadius=0.126mm|HoleSize=0mm|Usage=FLASHONLY|Rotation=270.000|XOffset=0mm|YOffset=0mm|HoleType=Round|Shape=RoundedRectangle|*
%AMROUNDEDRECTD32*
21,1,1.4000,3.9480,0,0,270.0*
21,1,1.1480,4.2000,0,0,270.0*
1,1,0.2520,-1.9740,-0.5740*
1,1,0.2520,-1.9740,0.5740*
1,1,0.2520,1.9740,0.5740*
1,1,0.2520,1.9740,-0.5740*
%
%ADD32ROUNDEDRECTD32*%
%ADD33R,1.2000X1.4000*%
G04:AMPARAMS|DCode=34|XSize=1.225mm|YSize=3.35mm|CornerRadius=0.1225mm|HoleSize=0mm|Usage=FLASHONLY|Rotation=270.000|XOffset=0mm|YOffset=0mm|HoleType=Round|Shape=RoundedRectangle|*
%AMROUNDEDRECTD34*
21,1,1.2250,3.1050,0,0,270.0*
21,1,0.9800,3.3500,0,0,270.0*
1,1,0.2450,-1.5525,-0.4900*
1,1,0.2450,-1.5525,0.4900*
1,1,0.2450,1.5525,0.4900*
1,1,0.2450,1.5525,-0.4900*
%
%ADD34ROUNDEDRECTD34*%
%ADD35R,1.4000X1.2000*%
G04:AMPARAMS|DCode=36|XSize=2.5mm|YSize=1.8mm|CornerRadius=0.126mm|HoleSize=0mm|Usage=FLASHONLY|Rotation=270.000|XOffset=0mm|YOffset=0mm|HoleType=Round|Shape=RoundedRectangle|*
%AMROUNDEDRECTD36*
21,1,2.5000,1.5480,0,0,270.0*
21,1,2.2480,1.8000,0,0,270.0*
1,1,0.2520,-0.7740,-1.1240*
1,1,0.2520,-0.7740,1.1240*
1,1,0.2520,0.7740,1.1240*
1,1,0.2520,0.7740,-1.1240*
%
%ADD36ROUNDEDRECTD36*%
G36*
X1019460Y-345315D02*
X1033970D01*
Y-359825D01*
X1019460D01*
Y-345315D01*
D02*
G37*
G36*
Y-328805D02*
X1033970D01*
Y-343315D01*
X1019460D01*
Y-328805D01*
D02*
G37*
G36*
X1035970Y-345315D02*
X1050480D01*
Y-359825D01*
X1035970D01*
Y-345315D01*
D02*
G37*
G36*
Y-328805D02*
X1050480D01*
Y-343315D01*
X1035970D01*
Y-328805D01*
D02*
G37*
D12*
X513250Y-157125D02*
D03*
X528750D02*
D03*
X1141550Y-299000D02*
D03*
X1126050D02*
D03*
X1105550Y-309000D02*
D03*
X772050Y-373000D02*
D03*
X787550D02*
D03*
X735750Y-161125D02*
D03*
X720250D02*
D03*
X676550Y-331000D02*
D03*
X661050D02*
D03*
X658550Y-231000D02*
D03*
X643050D02*
D03*
Y-313000D02*
D03*
X658550D02*
D03*
X1333050Y-128000D02*
D03*
X1348550D02*
D03*
X512250Y-26125D02*
D03*
X527750D02*
D03*
X706050Y-380000D02*
D03*
X721550D02*
D03*
X1159765Y-480430D02*
D03*
X1175265D02*
D03*
X1105550Y-327000D02*
D03*
X1090050D02*
D03*
X735750Y-179125D02*
D03*
X720250D02*
D03*
X643050Y-249000D02*
D03*
X658550D02*
D03*
X1333050Y-363000D02*
D03*
X1348550D02*
D03*
X1090050Y-309000D02*
D03*
X1333050Y-243000D02*
D03*
X1348550D02*
D03*
D13*
X109750Y-407125D02*
D03*
X126250D02*
D03*
X199750D02*
D03*
X216250D02*
D03*
X289750D02*
D03*
X306250D02*
D03*
X306375Y-237000D02*
D03*
X289875D02*
D03*
X396375D02*
D03*
X379875D02*
D03*
X109750Y-322125D02*
D03*
X109875Y-152000D02*
D03*
X126375D02*
D03*
X126250Y-322125D02*
D03*
X199750D02*
D03*
X216250D02*
D03*
X289750D02*
D03*
X306250D02*
D03*
X379750D02*
D03*
X396250D02*
D03*
X379750Y-407125D02*
D03*
X396250D02*
D03*
X917050Y-232000D02*
D03*
X1103050Y-291000D02*
D03*
X917050Y-250000D02*
D03*
Y-268000D02*
D03*
Y-286000D02*
D03*
X1103050Y-272000D02*
D03*
X771835Y-355570D02*
D03*
X788335D02*
D03*
X199875Y-237000D02*
D03*
X216375D02*
D03*
X14408Y-193193D02*
D03*
X-2092D02*
D03*
X289875Y-152000D02*
D03*
X306375D02*
D03*
X900550Y-232000D02*
D03*
X1086550Y-291000D02*
D03*
X199875Y-152000D02*
D03*
X216375D02*
D03*
X788235Y-391570D02*
D03*
X771735D02*
D03*
X900550Y-250000D02*
D03*
X109875Y-237000D02*
D03*
X126375D02*
D03*
X1175515Y-499430D02*
D03*
X1159015D02*
D03*
X379875Y-152000D02*
D03*
X396375D02*
D03*
X900550Y-268000D02*
D03*
X1086550Y-272000D02*
D03*
X900550Y-286000D02*
D03*
X-1892Y-211293D02*
D03*
X14608D02*
D03*
X749550Y-492000D02*
D03*
X766050D02*
D03*
D14*
X396000Y-255375D02*
D03*
X380250D02*
D03*
X306000D02*
D03*
X290250D02*
D03*
X110250Y-340625D02*
D03*
X126000D02*
D03*
X306000Y-170125D02*
D03*
X290250D02*
D03*
X126000D02*
D03*
X110250D02*
D03*
X200250Y-340625D02*
D03*
X216000D02*
D03*
X290250D02*
D03*
X306000D02*
D03*
X380250D02*
D03*
X396000D02*
D03*
X110250Y-425875D02*
D03*
X126000D02*
D03*
X200250D02*
D03*
X216000D02*
D03*
X290250D02*
D03*
X306000D02*
D03*
X380250D02*
D03*
X396000D02*
D03*
X110250Y-255375D02*
D03*
X126000D02*
D03*
X200250D02*
D03*
X216000D02*
D03*
X200250Y-170125D02*
D03*
X216000D02*
D03*
X380250D02*
D03*
X396000D02*
D03*
D15*
X530625Y-74875D02*
D03*
X473375Y-81375D02*
D03*
Y-74875D02*
D03*
X530625Y-48875D02*
D03*
X528625Y-174375D02*
D03*
Y-180875D02*
D03*
Y-187375D02*
D03*
Y-193875D02*
D03*
Y-200375D02*
D03*
Y-206875D02*
D03*
Y-213375D02*
D03*
Y-219875D02*
D03*
X471375D02*
D03*
Y-213375D02*
D03*
Y-206875D02*
D03*
Y-200375D02*
D03*
Y-193875D02*
D03*
Y-187375D02*
D03*
Y-180875D02*
D03*
Y-174375D02*
D03*
X530625Y-42375D02*
D03*
Y-55375D02*
D03*
Y-61875D02*
D03*
Y-68375D02*
D03*
Y-81375D02*
D03*
Y-87875D02*
D03*
X473375D02*
D03*
Y-68375D02*
D03*
Y-61875D02*
D03*
Y-55375D02*
D03*
Y-48875D02*
D03*
Y-42375D02*
D03*
D16*
X749435Y-330020D02*
D03*
X724435D02*
D03*
X729435D02*
D03*
X734435D02*
D03*
X739435D02*
D03*
X744435D02*
D03*
X754435D02*
D03*
X759435D02*
D03*
X764435D02*
D03*
X769435D02*
D03*
X774435D02*
D03*
X779435D02*
D03*
X784435D02*
D03*
X789435D02*
D03*
X794435D02*
D03*
X799435D02*
D03*
Y-216520D02*
D03*
X794435D02*
D03*
X789435D02*
D03*
X784435D02*
D03*
X779435D02*
D03*
X774435D02*
D03*
X769435D02*
D03*
X764435D02*
D03*
X759435D02*
D03*
X754435D02*
D03*
X749435D02*
D03*
X744435D02*
D03*
X739435D02*
D03*
X734435D02*
D03*
X729435D02*
D03*
X724435D02*
D03*
D17*
X0Y0D02*
D03*
X1417800Y-600000D02*
D03*
D18*
X812000Y-166375D02*
D03*
Y-181875D02*
D03*
X794000Y-166375D02*
D03*
Y-181875D02*
D03*
X1107800Y-354250D02*
D03*
X985270Y-385265D02*
D03*
X1039800Y-427750D02*
D03*
X1107800Y-369750D02*
D03*
X1087800Y-427750D02*
D03*
X973800D02*
D03*
Y-412250D02*
D03*
X1087800D02*
D03*
X862885Y-286620D02*
D03*
Y-271120D02*
D03*
X844485Y-286320D02*
D03*
Y-270820D02*
D03*
X1039800Y-412250D02*
D03*
X1089800Y-347500D02*
D03*
Y-363000D02*
D03*
X985270Y-369765D02*
D03*
D19*
X1034970Y-344315D02*
D03*
D20*
X1057470Y-373271D02*
D03*
X1052470D02*
D03*
X1047470D02*
D03*
X1042470D02*
D03*
X1037470D02*
D03*
X1032470D02*
D03*
X1027470D02*
D03*
X1022470D02*
D03*
X1017470D02*
D03*
X1012470D02*
D03*
Y-315359D02*
D03*
X1017470D02*
D03*
X1022470D02*
D03*
X1027470D02*
D03*
X1032470D02*
D03*
X1037470D02*
D03*
X1042470D02*
D03*
X1047470D02*
D03*
X1052470D02*
D03*
X1057470D02*
D03*
D21*
X1006014Y-366815D02*
D03*
Y-361815D02*
D03*
Y-356815D02*
D03*
Y-351815D02*
D03*
Y-346815D02*
D03*
Y-341815D02*
D03*
Y-336815D02*
D03*
Y-331815D02*
D03*
Y-326815D02*
D03*
Y-321815D02*
D03*
X1063926D02*
D03*
Y-326815D02*
D03*
Y-331815D02*
D03*
Y-336815D02*
D03*
Y-341815D02*
D03*
Y-346815D02*
D03*
Y-351815D02*
D03*
Y-356815D02*
D03*
Y-361815D02*
D03*
Y-366815D02*
D03*
D22*
X1099800Y-234875D02*
D03*
X985800Y-307875D02*
D03*
Y-326125D02*
D03*
X1099800Y-253125D02*
D03*
D23*
Y-216500D02*
D03*
Y-197500D02*
D03*
D24*
X1069770Y-411965D02*
D03*
X678800Y-205250D02*
D03*
Y-188750D02*
D03*
X642800Y-205250D02*
D03*
Y-188750D02*
D03*
X1069770Y-428465D02*
D03*
X660800Y-188750D02*
D03*
Y-205250D02*
D03*
X1274800Y-318250D02*
D03*
Y-301750D02*
D03*
X1020800Y-287250D02*
D03*
Y-270750D02*
D03*
X1385800Y-408000D02*
D03*
Y-424500D02*
D03*
X1038800Y-270750D02*
D03*
Y-287250D02*
D03*
X1109300Y-527950D02*
D03*
Y-511450D02*
D03*
X1385800Y-169750D02*
D03*
Y-186250D02*
D03*
X1405800D02*
D03*
Y-169750D02*
D03*
X624800Y-188750D02*
D03*
Y-205250D02*
D03*
X1405800Y-424500D02*
D03*
Y-408000D02*
D03*
X1294800Y-301750D02*
D03*
Y-318250D02*
D03*
D25*
X1261800Y-204500D02*
D03*
Y-269500D02*
D03*
X1170800Y-204000D02*
D03*
Y-269000D02*
D03*
D26*
X980300Y-283000D02*
D03*
X999300D02*
D03*
D27*
X1256300Y-362500D02*
D03*
X1231300Y-437500D02*
D03*
X1256300D02*
D03*
X1231300Y-362500D02*
D03*
D28*
X1030300Y-229000D02*
D03*
X1075300D02*
D03*
X960300D02*
D03*
X1005300D02*
D03*
D29*
X1145700Y-607000D02*
D03*
Y-527000D02*
D03*
X1190700Y-607000D02*
D03*
Y-527000D02*
D03*
D30*
X1049800Y-545000D02*
D03*
X971800D02*
D03*
D31*
X705185Y-235770D02*
D03*
Y-240770D02*
D03*
Y-245770D02*
D03*
Y-250770D02*
D03*
Y-255770D02*
D03*
Y-260770D02*
D03*
Y-265770D02*
D03*
Y-270770D02*
D03*
Y-275770D02*
D03*
Y-280770D02*
D03*
Y-285770D02*
D03*
Y-290770D02*
D03*
Y-295770D02*
D03*
Y-300770D02*
D03*
Y-305770D02*
D03*
Y-310770D02*
D03*
X818685D02*
D03*
Y-305770D02*
D03*
Y-300770D02*
D03*
Y-295770D02*
D03*
Y-290770D02*
D03*
Y-285770D02*
D03*
Y-280770D02*
D03*
Y-275770D02*
D03*
Y-270770D02*
D03*
Y-265770D02*
D03*
Y-260770D02*
D03*
Y-255770D02*
D03*
Y-250770D02*
D03*
Y-245770D02*
D03*
Y-240770D02*
D03*
Y-235770D02*
D03*
D32*
X587885Y-266170D02*
D03*
Y-303170D02*
D03*
D33*
X642885Y-270020D02*
D03*
X658885Y-292020D02*
D03*
X642885D02*
D03*
X658885Y-270020D02*
D03*
D34*
X1139370Y-318090D02*
D03*
Y-377340D02*
D03*
D35*
X1018870Y-410715D02*
D03*
X994870D02*
D03*
Y-429715D02*
D03*
X1018870D02*
D03*
D36*
X1181800Y-327000D02*
D03*
Y-367000D02*
D03*
X1240800Y-478000D02*
D03*
Y-518000D02*
D03*
M02*
