G04*
G04 #@! TF.GenerationSoftware,Altium Limited,Altium Designer,26.5.1 (12)*
G04*
G04 Layer_Physical_Order=1*
G04 Layer_Color=255*
G04 Board_Origin=66616740|373809532*
%FSLAX44Y44*%
%MOMM*%
G71*
G04*
G04 #@! TF.SameCoordinates,F19D7668-0BCF-4497-8D96-F11F38428737*
G04*
G04*
G04 #@! TF.FilePolarity,Positive*
G04*
G01*
G75*
%ADD11C,0.2540*%
G04:AMPARAMS|DCode=12|XSize=0.9mm|YSize=0.95mm|CornerRadius=0.1125mm|HoleSize=0mm|Usage=FLASHONLY|Rotation=180.000|XOffset=0mm|YOffset=0mm|HoleType=Round|Shape=RoundedRectangle|*
%AMROUNDEDRECTD12*
21,1,0.9000,0.7250,0,0,180.0*
21,1,0.6750,0.9500,0,0,180.0*
1,1,0.2250,-0.3375,0.3625*
1,1,0.2250,0.3375,0.3625*
1,1,0.2250,0.3375,-0.3625*
1,1,0.2250,-0.3375,-0.3625*
%
%ADD12ROUNDEDRECTD12*%
G04:AMPARAMS|DCode=13|XSize=0.8mm|YSize=0.95mm|CornerRadius=0.1mm|HoleSize=0mm|Usage=FLASHONLY|Rotation=180.000|XOffset=0mm|YOffset=0mm|HoleType=Round|Shape=RoundedRectangle|*
%AMROUNDEDRECTD13*
21,1,0.8000,0.7500,0,0,180.0*
21,1,0.6000,0.9500,0,0,180.0*
1,1,0.2000,-0.3000,0.3750*
1,1,0.2000,0.3000,0.3750*
1,1,0.2000,0.3000,-0.3750*
1,1,0.2000,-0.3000,-0.3750*
%
%ADD13ROUNDEDRECTD13*%
G04:AMPARAMS|DCode=14|XSize=0.875mm|YSize=0.95mm|CornerRadius=0.1094mm|HoleSize=0mm|Usage=FLASHONLY|Rotation=180.000|XOffset=0mm|YOffset=0mm|HoleType=Round|Shape=RoundedRectangle|*
%AMROUNDEDRECTD14*
21,1,0.8750,0.7313,0,0,180.0*
21,1,0.6563,0.9500,0,0,180.0*
1,1,0.2188,-0.3281,0.3656*
1,1,0.2188,0.3281,0.3656*
1,1,0.2188,0.3281,-0.3656*
1,1,0.2188,-0.3281,-0.3656*
%
%ADD14ROUNDEDRECTD14*%
G04:AMPARAMS|DCode=15|XSize=1.475mm|YSize=0.4mm|CornerRadius=0.05mm|HoleSize=0mm|Usage=FLASHONLY|Rotation=0.000|XOffset=0mm|YOffset=0mm|HoleType=Round|Shape=RoundedRectangle|*
%AMROUNDEDRECTD15*
21,1,1.4750,0.3000,0,0,0.0*
21,1,1.3750,0.4000,0,0,0.0*
1,1,0.1000,0.6875,-0.1500*
1,1,0.1000,-0.6875,-0.1500*
1,1,0.1000,-0.6875,0.1500*
1,1,0.1000,0.6875,0.1500*
%
%ADD15ROUNDEDRECTD15*%
G04:AMPARAMS|DCode=16|XSize=0.3mm|YSize=1.55mm|CornerRadius=0.0375mm|HoleSize=0mm|Usage=FLASHONLY|Rotation=0.000|XOffset=0mm|YOffset=0mm|HoleType=Round|Shape=RoundedRectangle|*
%AMROUNDEDRECTD16*
21,1,0.3000,1.4750,0,0,0.0*
21,1,0.2250,1.5500,0,0,0.0*
1,1,0.0750,0.1125,-0.7375*
1,1,0.0750,-0.1125,-0.7375*
1,1,0.0750,-0.1125,0.7375*
1,1,0.0750,0.1125,0.7375*
%
%ADD16ROUNDEDRECTD16*%
%ADD17C,1.5000*%
G04:AMPARAMS|DCode=18|XSize=0.9mm|YSize=0.95mm|CornerRadius=0.1125mm|HoleSize=0mm|Usage=FLASHONLY|Rotation=270.000|XOffset=0mm|YOffset=0mm|HoleType=Round|Shape=RoundedRectangle|*
%AMROUNDEDRECTD18*
21,1,0.9000,0.7250,0,0,270.0*
21,1,0.6750,0.9500,0,0,270.0*
1,1,0.2250,-0.3625,-0.3375*
1,1,0.2250,-0.3625,0.3375*
1,1,0.2250,0.3625,0.3375*
1,1,0.2250,0.3625,-0.3375*
%
%ADD18ROUNDEDRECTD18*%
%ADD19R,3.3020X3.3020*%
%ADD20R,0.2540X0.8128*%
%ADD21R,0.8128X0.2540*%
G04:AMPARAMS|DCode=22|XSize=1.025mm|YSize=1.4mm|CornerRadius=0.123mm|HoleSize=0mm|Usage=FLASHONLY|Rotation=90.000|XOffset=0mm|YOffset=0mm|HoleType=Round|Shape=RoundedRectangle|*
%AMROUNDEDRECTD22*
21,1,1.0250,1.1540,0,0,90.0*
21,1,0.7790,1.4000,0,0,90.0*
1,1,0.2460,0.5770,0.3895*
1,1,0.2460,0.5770,-0.3895*
1,1,0.2460,-0.5770,-0.3895*
1,1,0.2460,-0.5770,0.3895*
%
%ADD22ROUNDEDRECTD22*%
G04:AMPARAMS|DCode=23|XSize=1mm|YSize=1.45mm|CornerRadius=0.125mm|HoleSize=0mm|Usage=FLASHONLY|Rotation=270.000|XOffset=0mm|YOffset=0mm|HoleType=Round|Shape=RoundedRectangle|*
%AMROUNDEDRECTD23*
21,1,1.0000,1.2000,0,0,270.0*
21,1,0.7500,1.4500,0,0,270.0*
1,1,0.2500,-0.6000,-0.3750*
1,1,0.2500,-0.6000,0.3750*
1,1,0.2500,0.6000,0.3750*
1,1,0.2500,0.6000,-0.3750*
%
%ADD23ROUNDEDRECTD23*%
G04:AMPARAMS|DCode=24|XSize=0.8mm|YSize=0.95mm|CornerRadius=0.1mm|HoleSize=0mm|Usage=FLASHONLY|Rotation=90.000|XOffset=0mm|YOffset=0mm|HoleType=Round|Shape=RoundedRectangle|*
%AMROUNDEDRECTD24*
21,1,0.8000,0.7500,0,0,90.0*
21,1,0.6000,0.9500,0,0,90.0*
1,1,0.2000,0.3750,0.3000*
1,1,0.2000,0.3750,-0.3000*
1,1,0.2000,-0.3750,-0.3000*
1,1,0.2000,-0.3750,0.3000*
%
%ADD24ROUNDEDRECTD24*%
G04:AMPARAMS|DCode=25|XSize=3.5mm|YSize=2.5mm|CornerRadius=0.125mm|HoleSize=0mm|Usage=FLASHONLY|Rotation=90.000|XOffset=0mm|YOffset=0mm|HoleType=Round|Shape=RoundedRectangle|*
%AMROUNDEDRECTD25*
21,1,3.5000,2.2500,0,0,90.0*
21,1,3.2500,2.5000,0,0,90.0*
1,1,0.2500,1.1250,1.6250*
1,1,0.2500,1.1250,-1.6250*
1,1,0.2500,-1.1250,-1.6250*
1,1,0.2500,-1.1250,1.6250*
%
%ADD25ROUNDEDRECTD25*%
G04:AMPARAMS|DCode=26|XSize=1mm|YSize=1.45mm|CornerRadius=0.125mm|HoleSize=0mm|Usage=FLASHONLY|Rotation=0.000|XOffset=0mm|YOffset=0mm|HoleType=Round|Shape=RoundedRectangle|*
%AMROUNDEDRECTD26*
21,1,1.0000,1.2000,0,0,0.0*
21,1,0.7500,1.4500,0,0,0.0*
1,1,0.2500,0.3750,-0.6000*
1,1,0.2500,-0.3750,-0.6000*
1,1,0.2500,-0.3750,0.6000*
1,1,0.2500,0.3750,0.6000*
%
%ADD26ROUNDEDRECTD26*%
G04:AMPARAMS|DCode=27|XSize=3mm|YSize=1.2mm|CornerRadius=0.12mm|HoleSize=0mm|Usage=FLASHONLY|Rotation=90.000|XOffset=0mm|YOffset=0mm|HoleType=Round|Shape=RoundedRectangle|*
%AMROUNDEDRECTD27*
21,1,3.0000,0.9600,0,0,90.0*
21,1,2.7600,1.2000,0,0,90.0*
1,1,0.2400,0.4800,1.3800*
1,1,0.2400,0.4800,-1.3800*
1,1,0.2400,-0.4800,-1.3800*
1,1,0.2400,-0.4800,1.3800*
%
%ADD27ROUNDEDRECTD27*%
G04:AMPARAMS|DCode=28|XSize=1.7mm|YSize=5.7mm|CornerRadius=0.1275mm|HoleSize=0mm|Usage=FLASHONLY|Rotation=0.000|XOffset=0mm|YOffset=0mm|HoleType=Round|Shape=RoundedRectangle|*
%AMROUNDEDRECTD28*
21,1,1.7000,5.4450,0,0,0.0*
21,1,1.4450,5.7000,0,0,0.0*
1,1,0.2550,0.7225,-2.7225*
1,1,0.2550,-0.7225,-2.7225*
1,1,0.2550,-0.7225,2.7225*
1,1,0.2550,0.7225,2.7225*
%
%ADD28ROUNDEDRECTD28*%
%ADD29R,1.4000X1.6000*%
%ADD30R,1.5000X1.5000*%
G04:AMPARAMS|DCode=31|XSize=1.55mm|YSize=0.3mm|CornerRadius=0.0375mm|HoleSize=0mm|Usage=FLASHONLY|Rotation=0.000|XOffset=0mm|YOffset=0mm|HoleType=Round|Shape=RoundedRectangle|*
%AMROUNDEDRECTD31*
21,1,1.5500,0.2250,0,0,0.0*
21,1,1.4750,0.3000,0,0,0.0*
1,1,0.0750,0.7375,-0.1125*
1,1,0.0750,-0.7375,-0.1125*
1,1,0.0750,-0.7375,0.1125*
1,1,0.0750,0.7375,0.1125*
%
%ADD31ROUNDEDRECTD31*%
G04:AMPARAMS|DCode=32|XSize=1.4mm|YSize=4.2mm|CornerRadius=0.126mm|HoleSize=0mm|Usage=FLASHONLY|Rotation=270.000|XOffset=0mm|YOffset=0mm|HoleType=Round|Shape=RoundedRectangle|*
%AMROUNDEDRECTD32*
21,1,1.4000,3.9480,0,0,270.0*
21,1,1.1480,4.2000,0,0,270.0*
1,1,0.2520,-1.9740,-0.5740*
1,1,0.2520,-1.9740,0.5740*
1,1,0.2520,1.9740,0.5740*
1,1,0.2520,1.9740,-0.5740*
%
%ADD32ROUNDEDRECTD32*%
%ADD33R,1.2000X1.4000*%
G04:AMPARAMS|DCode=34|XSize=1.225mm|YSize=3.35mm|CornerRadius=0.1225mm|HoleSize=0mm|Usage=FLASHONLY|Rotation=270.000|XOffset=0mm|YOffset=0mm|HoleType=Round|Shape=RoundedRectangle|*
%AMROUNDEDRECTD34*
21,1,1.2250,3.1050,0,0,270.0*
21,1,0.9800,3.3500,0,0,270.0*
1,1,0.2450,-1.5525,-0.4900*
1,1,0.2450,-1.5525,0.4900*
1,1,0.2450,1.5525,0.4900*
1,1,0.2450,1.5525,-0.4900*
%
%ADD34ROUNDEDRECTD34*%
%ADD35R,1.4000X1.2000*%
G04:AMPARAMS|DCode=36|XSize=2.5mm|YSize=1.8mm|CornerRadius=0.126mm|HoleSize=0mm|Usage=FLASHONLY|Rotation=270.000|XOffset=0mm|YOffset=0mm|HoleType=Round|Shape=RoundedRectangle|*
%AMROUNDEDRECTD36*
21,1,2.5000,1.5480,0,0,270.0*
21,1,2.2480,1.8000,0,0,270.0*
1,1,0.2520,-0.7740,-1.1240*
1,1,0.2520,-0.7740,1.1240*
1,1,0.2520,0.7740,1.1240*
1,1,0.2520,0.7740,-1.1240*
%
%ADD36ROUNDEDRECTD36*%
%ADD66C,1.6000*%
%ADD67C,1.8000*%
%ADD69R,1.8000X1.8000*%
%ADD74C,0.7874*%
%ADD75R,0.3000X0.3000*%
%ADD76C,0.2500*%
%ADD77C,0.3000*%
%ADD78C,0.5000*%
%ADD79C,0.4000*%
%ADD80C,0.6000*%
%ADD81C,0.8000*%
%ADD82C,3.0000*%
%ADD83R,1.7000X1.7000*%
%ADD84C,1.7000*%
%ADD85C,0.9906*%
%ADD86R,1.7000X1.7000*%
%ADD87R,2.8000X2.8000*%
%ADD88C,2.8000*%
%ADD89C,0.5000*%
%ADD90C,0.6000*%
%ADD91C,1.0000*%
G36*
X1171952Y-473619D02*
X1171890D01*
X1170671Y-473862D01*
X1169637Y-474552D01*
X1168947Y-475586D01*
X1168704Y-476805D01*
Y-484055D01*
X1168947Y-485275D01*
X1169637Y-486308D01*
X1170671Y-486999D01*
X1171890Y-487242D01*
X1172202D01*
Y-492684D01*
X1171345Y-492854D01*
X1170352Y-493517D01*
X1169689Y-494510D01*
X1169456Y-495680D01*
Y-503180D01*
X1169689Y-504351D01*
X1170352Y-505343D01*
X1171345Y-506006D01*
X1172515Y-506239D01*
X1177277D01*
X1182209Y-511171D01*
X1186768Y-515730D01*
X1186254Y-517000D01*
X1181700D01*
Y-537000D01*
X1187132D01*
Y-597000D01*
X1181700D01*
Y-616666D01*
X1154700D01*
Y-597000D01*
X1150288D01*
Y-537000D01*
X1154700D01*
Y-517000D01*
X1145388D01*
Y-495001D01*
X1153919Y-486470D01*
X1154379D01*
X1155171Y-486999D01*
X1156390Y-487242D01*
X1163140D01*
X1164360Y-486999D01*
X1165393Y-486308D01*
X1166084Y-485275D01*
X1166326Y-484055D01*
Y-476805D01*
X1166084Y-475586D01*
X1165393Y-474552D01*
X1164360Y-473862D01*
X1164353Y-473861D01*
Y-473130D01*
X1164265Y-472687D01*
Y-472235D01*
X1164092Y-471818D01*
X1164004Y-471375D01*
X1163786Y-471049D01*
X1163820Y-470879D01*
X1164362Y-469912D01*
X1164518Y-469779D01*
X1171952D01*
Y-473619D01*
D02*
G37*
G36*
X1434966Y-576000D02*
X1393300D01*
Y-616666D01*
X1199700D01*
Y-597000D01*
X1194269D01*
Y-537000D01*
X1199700D01*
Y-517000D01*
X1194269D01*
Y-514615D01*
X1193997Y-513250D01*
X1193223Y-512092D01*
X1187256Y-506124D01*
X1181574Y-500443D01*
Y-495680D01*
X1181341Y-494510D01*
X1180678Y-493517D01*
X1179686Y-492854D01*
X1178829Y-492684D01*
Y-487204D01*
X1179859Y-486999D01*
X1180893Y-486308D01*
X1181584Y-485275D01*
X1181826Y-484055D01*
Y-476805D01*
X1181584Y-475586D01*
X1180893Y-474552D01*
X1179859Y-473862D01*
X1178640Y-473619D01*
X1178579D01*
Y-467930D01*
X1178327Y-466662D01*
X1177608Y-465587D01*
X1176144Y-464122D01*
X1175069Y-463404D01*
X1173801Y-463152D01*
X1147335D01*
X1146067Y-463404D01*
X1144992Y-464122D01*
X1120427Y-488686D01*
X772109D01*
Y-488250D01*
X771876Y-487079D01*
X771213Y-486087D01*
X770220Y-485424D01*
X769050Y-485191D01*
X763050D01*
X761880Y-485424D01*
X760887Y-486087D01*
X760224Y-487079D01*
X759991Y-488250D01*
Y-495750D01*
X760224Y-496921D01*
X760887Y-497913D01*
X761880Y-498576D01*
X763050Y-498809D01*
X769050D01*
X770220Y-498576D01*
X771213Y-497913D01*
X771876Y-496921D01*
X772109Y-495750D01*
Y-495314D01*
X1121800D01*
X1123068Y-495061D01*
X1124143Y-494343D01*
X1148707Y-469779D01*
X1155013D01*
X1155168Y-469912D01*
X1155710Y-470879D01*
X1155744Y-471049D01*
X1155526Y-471375D01*
X1155438Y-471818D01*
X1155265Y-472235D01*
Y-472687D01*
X1155177Y-473130D01*
Y-473861D01*
X1155171Y-473862D01*
X1154137Y-474552D01*
X1153447Y-475586D01*
X1153204Y-476805D01*
Y-477294D01*
X1152019D01*
X1150263Y-477643D01*
X1148775Y-478637D01*
X1137556Y-489856D01*
X1136561Y-491345D01*
X1136212Y-493101D01*
Y-518571D01*
X1136561Y-520327D01*
X1136612Y-520403D01*
Y-522500D01*
X1136700Y-522943D01*
Y-537000D01*
X1141112D01*
Y-597000D01*
X1136700D01*
Y-616666D01*
X15866D01*
Y-597604D01*
X-21166D01*
X-21166Y-23000D01*
X22000D01*
Y20666D01*
X1434966D01*
Y-576000D01*
D02*
G37*
G36*
X13866Y-600054D02*
X13841D01*
X13741Y-600079D01*
X13591Y-600104D01*
X13416Y-600154D01*
X13241Y-600204D01*
X13041Y-600304D01*
X12866Y-600429D01*
X12741Y-600579D01*
Y-600604D01*
X12716Y-600654D01*
X12666Y-600754D01*
X12641Y-600904D01*
X12591Y-601129D01*
X12541Y-601404D01*
X12516Y-601779D01*
Y-602229D01*
Y-602253D01*
Y-602354D01*
Y-602478D01*
X12491Y-602653D01*
Y-602853D01*
X12466Y-603103D01*
X12442Y-603653D01*
X12366Y-604253D01*
X12292Y-604853D01*
X12167Y-605403D01*
X12091Y-605653D01*
X12017Y-605853D01*
Y-605878D01*
X11992Y-605903D01*
X11942Y-605978D01*
X11892Y-606077D01*
X11742Y-606328D01*
X11542Y-606652D01*
X11242Y-607002D01*
X10892Y-607377D01*
X10467Y-607727D01*
X9942Y-608077D01*
X9917D01*
X9867Y-608102D01*
X9792Y-608152D01*
X9667Y-608202D01*
X9517Y-608277D01*
X9342Y-608352D01*
X9117Y-608427D01*
X8867Y-608502D01*
X8592Y-608577D01*
X8267Y-608652D01*
X7943Y-608727D01*
X7568Y-608802D01*
X7168Y-608877D01*
X6718Y-608927D01*
X6268Y-608952D01*
X5768Y-608977D01*
Y-613701D01*
Y-613751D01*
Y-613851D01*
X5793Y-614050D01*
X5818Y-614250D01*
X5868Y-614475D01*
X5968Y-614725D01*
X6068Y-614950D01*
X6218Y-615125D01*
X6243Y-615150D01*
X6318Y-615200D01*
X6418Y-615250D01*
X6568Y-615325D01*
X6793Y-615425D01*
X7043Y-615475D01*
X7343Y-615525D01*
X7718Y-615550D01*
X8143D01*
Y-616000D01*
X1119D01*
Y-615550D01*
X1719D01*
X1894Y-615525D01*
X2119Y-615500D01*
X2369Y-615450D01*
X2619Y-615375D01*
X2844Y-615275D01*
X3019Y-615125D01*
X3044Y-615100D01*
X3094Y-615050D01*
X3169Y-614925D01*
X3244Y-614775D01*
X3319Y-614600D01*
X3394Y-614350D01*
X3444Y-614050D01*
X3469Y-613701D01*
Y-608977D01*
X3244D01*
X3094Y-608952D01*
X2919D01*
X2694Y-608927D01*
X2169Y-608877D01*
X1619Y-608802D01*
X1019Y-608702D01*
X419Y-608552D01*
X-105Y-608377D01*
X-130D01*
X-155Y-608352D01*
X-230Y-608327D01*
X-330Y-608277D01*
X-555Y-608152D01*
X-855Y-607952D01*
X-1205Y-607727D01*
X-1555Y-607452D01*
X-1905Y-607127D01*
X-2230Y-606777D01*
X-2255Y-606752D01*
X-2305Y-606652D01*
X-2405Y-606527D01*
X-2530Y-606353D01*
X-2655Y-606128D01*
X-2755Y-605903D01*
X-2880Y-605653D01*
X-2980Y-605378D01*
Y-605353D01*
X-3005Y-605278D01*
X-3030Y-605178D01*
X-3080Y-605028D01*
X-3105Y-604853D01*
X-3155Y-604653D01*
X-3230Y-604178D01*
X-3304Y-601404D01*
Y-601379D01*
Y-601279D01*
X-3329Y-601154D01*
X-3354Y-601004D01*
X-3480Y-600679D01*
X-3555Y-600529D01*
X-3654Y-600404D01*
X-3679Y-600379D01*
X-3704Y-600354D01*
X-3779Y-600304D01*
X-3879Y-600254D01*
X-4029Y-600204D01*
X-4204Y-600129D01*
X-4429Y-600079D01*
X-4704Y-600054D01*
Y-599604D01*
X-4554D01*
X-4454Y-599629D01*
X-4179Y-599654D01*
X-3854Y-599704D01*
X-3480Y-599779D01*
X-3105Y-599879D01*
X-2730Y-600004D01*
X-2405Y-600154D01*
X-2380Y-600179D01*
X-2280Y-600229D01*
X-2130Y-600354D01*
X-1955Y-600504D01*
X-1780Y-600679D01*
X-1580Y-600904D01*
X-1405Y-601154D01*
X-1255Y-601454D01*
X-1230Y-601504D01*
X-1205Y-601604D01*
X-1130Y-601804D01*
X-1055Y-602104D01*
X-980Y-602478D01*
X-905Y-602928D01*
X-855Y-603503D01*
X-805Y-604153D01*
Y-604178D01*
Y-604203D01*
Y-604278D01*
X-780Y-604378D01*
X-755Y-604628D01*
X-705Y-604953D01*
X-655Y-605303D01*
X-580Y-605653D01*
X-455Y-606003D01*
X-330Y-606328D01*
X-305Y-606353D01*
X-255Y-606452D01*
X-155Y-606602D01*
X-5Y-606777D01*
X195Y-606977D01*
X419Y-607202D01*
X720Y-607427D01*
X1044Y-607627D01*
X1094Y-607652D01*
X1219Y-607702D01*
X1419Y-607777D01*
X1719Y-607877D01*
X2069Y-607977D01*
X2469Y-608052D01*
X2944Y-608102D01*
X3469Y-608127D01*
Y-602079D01*
Y-602029D01*
Y-601929D01*
X3444Y-601754D01*
X3419Y-601529D01*
X3369Y-601304D01*
X3269Y-601079D01*
X3169Y-600854D01*
X3019Y-600679D01*
X2994Y-600654D01*
X2944Y-600604D01*
X2819Y-600529D01*
X2669Y-600454D01*
X2469Y-600379D01*
X2219Y-600304D01*
X1919Y-600254D01*
X1544Y-600229D01*
X1119D01*
Y-599779D01*
X8143D01*
Y-600229D01*
X7543D01*
X7368Y-600254D01*
X7143Y-600279D01*
X6893Y-600329D01*
X6643Y-600429D01*
X6418Y-600529D01*
X6218Y-600679D01*
X6193Y-600704D01*
X6143Y-600754D01*
X6068Y-600854D01*
X5993Y-601004D01*
X5918Y-601204D01*
X5843Y-601454D01*
X5793Y-601729D01*
X5768Y-602079D01*
Y-608127D01*
X6018D01*
X6268Y-608102D01*
X6618Y-608052D01*
X6993Y-608002D01*
X7393Y-607927D01*
X7793Y-607802D01*
X8167Y-607627D01*
X8217Y-607602D01*
X8317Y-607527D01*
X8493Y-607427D01*
X8692Y-607277D01*
X8917Y-607077D01*
X9142Y-606852D01*
X9342Y-606602D01*
X9517Y-606328D01*
X9542Y-606302D01*
X9592Y-606177D01*
X9642Y-606003D01*
X9742Y-605728D01*
X9817Y-605403D01*
X9892Y-605003D01*
X9967Y-604503D01*
X10017Y-603953D01*
Y-603928D01*
Y-603878D01*
X10042Y-603803D01*
Y-603678D01*
X10067Y-603403D01*
X10117Y-603053D01*
X10167Y-602678D01*
X10217Y-602304D01*
X10317Y-601954D01*
X10392Y-601654D01*
X10417Y-601604D01*
X10467Y-601504D01*
X10542Y-601329D01*
X10667Y-601129D01*
X10842Y-600904D01*
X11042Y-600654D01*
X11292Y-600429D01*
X11592Y-600204D01*
X11642Y-600179D01*
X11742Y-600104D01*
X11942Y-600029D01*
X12191Y-599929D01*
X12516Y-599804D01*
X12916Y-599729D01*
X13366Y-599654D01*
X13866Y-599604D01*
Y-600054D01*
D02*
G37*
G36*
X-13327Y-599804D02*
X-12877D01*
X-12377Y-599854D01*
X-11852Y-599904D01*
X-11328Y-599979D01*
X-10853Y-600079D01*
X-10828D01*
X-10778Y-600104D01*
X-10678Y-600129D01*
X-10553Y-600154D01*
X-10403Y-600204D01*
X-10228Y-600279D01*
X-9853Y-600429D01*
X-9403Y-600629D01*
X-8953Y-600904D01*
X-8528Y-601229D01*
X-8128Y-601604D01*
X-8078Y-601654D01*
X-7978Y-601804D01*
X-7828Y-602029D01*
X-7653Y-602328D01*
X-7478Y-602703D01*
X-7329Y-603128D01*
X-7229Y-603603D01*
X-7179Y-604128D01*
Y-604153D01*
Y-604178D01*
Y-604328D01*
X-7229Y-604578D01*
X-7279Y-604853D01*
X-7354Y-605203D01*
X-7503Y-605578D01*
X-7678Y-605953D01*
X-7928Y-606328D01*
X-7953Y-606377D01*
X-8078Y-606477D01*
X-8253Y-606652D01*
X-8478Y-606852D01*
X-8803Y-607077D01*
X-9178Y-607327D01*
X-9628Y-607527D01*
X-10128Y-607727D01*
X-10103D01*
X-10053Y-607752D01*
X-9953Y-607777D01*
X-9853Y-607802D01*
X-9553Y-607877D01*
X-9178Y-608002D01*
X-8753Y-608177D01*
X-8353Y-608377D01*
X-7953Y-608602D01*
X-7603Y-608877D01*
X-7578D01*
X-7553Y-608927D01*
X-7429Y-609077D01*
X-7229Y-609302D01*
X-7004Y-609627D01*
X-6804Y-610001D01*
X-6604Y-610476D01*
X-6479Y-610976D01*
X-6429Y-611251D01*
Y-611551D01*
Y-611576D01*
Y-611601D01*
Y-611751D01*
X-6479Y-612001D01*
X-6529Y-612301D01*
X-6629Y-612651D01*
X-6754Y-613051D01*
X-6954Y-613476D01*
X-7204Y-613900D01*
X-7229Y-613951D01*
X-7329Y-614076D01*
X-7503Y-614275D01*
X-7753Y-614500D01*
X-8053Y-614775D01*
X-8403Y-615050D01*
X-8828Y-615275D01*
X-9303Y-615500D01*
X-9328D01*
X-9353Y-615525D01*
X-9453Y-615550D01*
X-9553Y-615575D01*
X-9703Y-615625D01*
X-9853Y-615650D01*
X-10078Y-615700D01*
X-10303Y-615750D01*
X-10578Y-615800D01*
X-10878Y-615850D01*
X-11202Y-615875D01*
X-11577Y-615925D01*
X-11977Y-615950D01*
X-12402Y-615975D01*
X-12852Y-616000D01*
X-21000D01*
Y-615550D01*
X-20225D01*
X-20050Y-615525D01*
X-19850Y-615475D01*
X-19600Y-615400D01*
X-19375Y-615275D01*
X-19151Y-615125D01*
X-18951Y-614925D01*
X-18925Y-614900D01*
X-18901Y-614825D01*
X-18851Y-614725D01*
X-18800Y-614550D01*
X-18751Y-614300D01*
X-18726Y-613975D01*
X-18676Y-613601D01*
Y-613126D01*
Y-602653D01*
Y-602628D01*
Y-602578D01*
Y-602503D01*
Y-602403D01*
X-18701Y-602154D01*
X-18726Y-601854D01*
X-18751Y-601529D01*
X-18826Y-601229D01*
X-18901Y-600954D01*
X-18975Y-600854D01*
X-19025Y-600779D01*
X-19051Y-600754D01*
X-19101Y-600704D01*
X-19225Y-600604D01*
X-19375Y-600504D01*
X-19575Y-600404D01*
X-19800Y-600304D01*
X-20075Y-600254D01*
X-20400Y-600229D01*
X-21000D01*
Y-599779D01*
X-13502D01*
X-13327Y-599804D01*
D02*
G37*
%LPC*%
G36*
X528000Y-5537D02*
X527557Y-5625D01*
X527105D01*
X526688Y-5798D01*
X526244Y-5886D01*
X525868Y-6137D01*
X525451Y-6310D01*
X525131Y-6630D01*
X524756Y-6881D01*
X524505Y-7256D01*
X524185Y-7576D01*
X524012Y-7993D01*
X523761Y-8369D01*
X523673Y-8812D01*
X523500Y-9230D01*
Y-9682D01*
X523412Y-10125D01*
Y-19505D01*
X523156Y-19556D01*
X522122Y-20247D01*
X521431Y-21281D01*
X521189Y-22500D01*
Y-29750D01*
X521431Y-30969D01*
X522122Y-32003D01*
X523156Y-32694D01*
X524375Y-32936D01*
X526037D01*
Y-38326D01*
X523750D01*
X522775Y-38520D01*
X521948Y-39073D01*
X521395Y-39900D01*
X521201Y-40875D01*
Y-43875D01*
X521280Y-44271D01*
X520445Y-45541D01*
X511131D01*
X484233Y-18642D01*
X483151Y-17920D01*
X481875Y-17666D01*
X132125D01*
X130849Y-17920D01*
X129768Y-18642D01*
X126785Y-21625D01*
X126105D01*
X124451Y-22310D01*
X123185Y-23576D01*
X122500Y-25230D01*
Y-27020D01*
X123185Y-28674D01*
X124451Y-29940D01*
X126105Y-30625D01*
X127895D01*
X129549Y-29940D01*
X130815Y-28674D01*
X131500Y-27020D01*
Y-26340D01*
X133506Y-24334D01*
X480494D01*
X507393Y-51233D01*
X508474Y-51955D01*
X509750Y-52209D01*
X520445D01*
X521280Y-53479D01*
X521201Y-53875D01*
Y-56875D01*
X521395Y-57850D01*
X521913Y-58625D01*
X521395Y-59400D01*
X521201Y-60375D01*
Y-63375D01*
X521395Y-64350D01*
X521913Y-65125D01*
X521395Y-65900D01*
X521201Y-66875D01*
Y-69875D01*
X521395Y-70851D01*
X521913Y-71625D01*
X521395Y-72400D01*
X521201Y-73375D01*
Y-76375D01*
X520863Y-76787D01*
X518021D01*
X516321Y-77125D01*
X516006D01*
X514168Y-77886D01*
X512761Y-79293D01*
X512000Y-81130D01*
Y-83120D01*
X512761Y-84957D01*
X514168Y-86364D01*
X516006Y-87125D01*
X517995D01*
X519832Y-86364D01*
X519974Y-86222D01*
X520139Y-86242D01*
X521201Y-86692D01*
Y-89375D01*
X521395Y-90350D01*
X521948Y-91177D01*
X522775Y-91730D01*
X522960Y-91767D01*
X522835Y-93037D01*
X420581D01*
X419732Y-91767D01*
X420000Y-91120D01*
Y-90172D01*
X425228Y-84944D01*
X465096D01*
X465525Y-85230D01*
X466500Y-85424D01*
X480250D01*
X481226Y-85230D01*
X482052Y-84677D01*
X482605Y-83850D01*
X482799Y-82875D01*
Y-79875D01*
X482605Y-78900D01*
X482087Y-78125D01*
X482605Y-77350D01*
X482799Y-76375D01*
Y-73375D01*
X482605Y-72400D01*
X482087Y-71625D01*
X482605Y-70851D01*
X482799Y-69875D01*
Y-66875D01*
X482605Y-65900D01*
X482087Y-65125D01*
X482605Y-64350D01*
X482799Y-63375D01*
Y-60375D01*
X482605Y-59400D01*
X482087Y-58625D01*
X482605Y-57850D01*
X482799Y-56875D01*
Y-53875D01*
X482605Y-52900D01*
X482087Y-52125D01*
X482605Y-51350D01*
X482799Y-50375D01*
Y-47375D01*
X482605Y-46400D01*
X482087Y-45625D01*
X482605Y-44851D01*
X482799Y-43875D01*
Y-40875D01*
X482605Y-39900D01*
X482052Y-39073D01*
X481226Y-38520D01*
X480250Y-38326D01*
X466500D01*
X465525Y-38520D01*
X465096Y-38807D01*
X225750D01*
X224384Y-39078D01*
X223227Y-39852D01*
X213453Y-49625D01*
X213105D01*
X211451Y-50310D01*
X210185Y-51576D01*
X209500Y-53230D01*
Y-55020D01*
X210185Y-56674D01*
X211451Y-57940D01*
X213105Y-58625D01*
X214895D01*
X216549Y-57940D01*
X217815Y-56674D01*
X218500Y-55020D01*
Y-54672D01*
X227228Y-45944D01*
X326339D01*
X326865Y-47214D01*
X315022Y-59056D01*
X311795D01*
X311549Y-58810D01*
X309895Y-58125D01*
X308105D01*
X306451Y-58810D01*
X305185Y-60076D01*
X304500Y-61730D01*
Y-63520D01*
X305185Y-65174D01*
X306451Y-66440D01*
X308105Y-67125D01*
X309895D01*
X311549Y-66440D01*
X311795Y-66194D01*
X316500D01*
X317866Y-65922D01*
X319023Y-65148D01*
X331728Y-52444D01*
X405339D01*
X405865Y-53714D01*
X396453Y-63125D01*
X396105D01*
X394451Y-63810D01*
X393185Y-65076D01*
X392500Y-66730D01*
Y-68520D01*
X392699Y-69001D01*
X391993Y-70057D01*
X243500D01*
X242134Y-70328D01*
X240977Y-71102D01*
X219147Y-92931D01*
X204340D01*
X203972Y-91716D01*
X204737Y-91205D01*
X207105Y-88837D01*
X208965Y-86053D01*
X210247Y-82959D01*
X210900Y-79674D01*
Y-76326D01*
X210247Y-73041D01*
X208965Y-69948D01*
X207105Y-67163D01*
X204737Y-64795D01*
X201952Y-62935D01*
X198859Y-61653D01*
X195574Y-61000D01*
X192226D01*
X188941Y-61653D01*
X185847Y-62935D01*
X183063Y-64795D01*
X180695Y-67163D01*
X178835Y-69948D01*
X177553Y-73041D01*
X176900Y-76326D01*
Y-79674D01*
X177553Y-82959D01*
X178835Y-86053D01*
X180695Y-88837D01*
X183063Y-91205D01*
X183828Y-91716D01*
X183460Y-92931D01*
X145503D01*
X145239Y-92293D01*
X143832Y-90886D01*
X141995Y-90125D01*
X140006D01*
X138168Y-90886D01*
X136761Y-92293D01*
X136000Y-94130D01*
Y-96120D01*
X136475Y-97267D01*
X135681Y-98537D01*
X-8000D01*
X-8443Y-98625D01*
X-8895D01*
X-9312Y-98798D01*
X-9756Y-98886D01*
X-10131Y-99137D01*
X-10549Y-99310D01*
X-10869Y-99630D01*
X-11244Y-99881D01*
X-11495Y-100257D01*
X-11815Y-100576D01*
X-11988Y-100993D01*
X-12239Y-101369D01*
X-12327Y-101812D01*
X-12500Y-102230D01*
Y-102682D01*
X-12588Y-103125D01*
X-12500Y-103568D01*
Y-104020D01*
X-12327Y-104438D01*
X-12239Y-104881D01*
X-11988Y-105257D01*
X-11815Y-105674D01*
X-11495Y-105994D01*
X-11244Y-106369D01*
X-10869Y-106620D01*
X-10549Y-106940D01*
X-10131Y-107113D01*
X-9756Y-107364D01*
X-9312Y-107452D01*
X-8895Y-107625D01*
X-8443D01*
X-8000Y-107713D01*
X21252D01*
X21778Y-108983D01*
X21185Y-109576D01*
X20500Y-111230D01*
Y-113020D01*
X21185Y-114674D01*
X22451Y-115940D01*
X24105Y-116625D01*
X25895D01*
X27549Y-115940D01*
X28815Y-114674D01*
X29500Y-113020D01*
Y-112340D01*
X29611Y-112229D01*
X34611D01*
X35137Y-113499D01*
X33756Y-114881D01*
X33505Y-115257D01*
X33185Y-115576D01*
X33012Y-115993D01*
X32761Y-116369D01*
X32673Y-116812D01*
X32500Y-117230D01*
Y-117682D01*
X32412Y-118125D01*
X32500Y-118568D01*
Y-119020D01*
X32673Y-119438D01*
X32761Y-119881D01*
X33012Y-120257D01*
X33185Y-120674D01*
X33505Y-120994D01*
X33756Y-121369D01*
X34132Y-121620D01*
X34451Y-121940D01*
X34868Y-122113D01*
X35244Y-122364D01*
X35687Y-122452D01*
X36105Y-122625D01*
X36557D01*
X37000Y-122713D01*
X37443Y-122625D01*
X37895D01*
X38313Y-122452D01*
X38756Y-122364D01*
X39132Y-122113D01*
X39549Y-121940D01*
X39869Y-121620D01*
X40244Y-121369D01*
X40901Y-120713D01*
X335000D01*
X336756Y-120364D01*
X338244Y-119369D01*
X343026Y-114588D01*
X538709D01*
X540005Y-115125D01*
X541995D01*
X543291Y-114588D01*
X654369D01*
X654895Y-115858D01*
X622277Y-148477D01*
X621503Y-149634D01*
X621231Y-151000D01*
Y-182691D01*
X621050D01*
X619879Y-182924D01*
X618887Y-183587D01*
X618224Y-184580D01*
X617991Y-185750D01*
Y-191750D01*
X618224Y-192920D01*
X618887Y-193913D01*
X619879Y-194576D01*
X621050Y-194809D01*
X628550D01*
X629721Y-194576D01*
X630713Y-193913D01*
X631376Y-192920D01*
X631609Y-191750D01*
Y-185750D01*
X631376Y-184580D01*
X630713Y-183587D01*
X629721Y-182924D01*
X628550Y-182691D01*
X628369D01*
Y-152478D01*
X630058Y-150789D01*
X631231Y-151275D01*
Y-175000D01*
X631503Y-176366D01*
X632277Y-177523D01*
X637051Y-182297D01*
X636926Y-183561D01*
X636887Y-183587D01*
X636224Y-184580D01*
X635991Y-185750D01*
Y-191750D01*
X636224Y-192920D01*
X636887Y-193913D01*
X637879Y-194576D01*
X639050Y-194809D01*
X646550D01*
X647720Y-194576D01*
X648713Y-193913D01*
X649376Y-192920D01*
X649609Y-191750D01*
Y-185750D01*
X649376Y-184580D01*
X648713Y-183587D01*
X647720Y-182924D01*
X646550Y-182691D01*
X645376D01*
Y-182007D01*
X645104Y-180642D01*
X644331Y-179484D01*
X638369Y-173522D01*
Y-150478D01*
X648573Y-140273D01*
X648573Y-140273D01*
X663028Y-125819D01*
X681275D01*
X681761Y-126992D01*
X676277Y-132477D01*
X675503Y-133634D01*
X675231Y-135000D01*
Y-173422D01*
X665726Y-182927D01*
X665721Y-182924D01*
X664550Y-182691D01*
X657050D01*
X655880Y-182924D01*
X654887Y-183587D01*
X654224Y-184580D01*
X653991Y-185750D01*
Y-191750D01*
X654224Y-192920D01*
X654887Y-193913D01*
X655880Y-194576D01*
X657050Y-194809D01*
X664550D01*
X665721Y-194576D01*
X666713Y-193913D01*
X667376Y-192920D01*
X667609Y-191750D01*
Y-190036D01*
X668505Y-189858D01*
X669662Y-189084D01*
X670818Y-187929D01*
X671991Y-188415D01*
Y-191750D01*
X672224Y-192920D01*
X672887Y-193913D01*
X673879Y-194576D01*
X675050Y-194809D01*
X682550D01*
X683721Y-194576D01*
X683785Y-194533D01*
X684594Y-195520D01*
X680923Y-199191D01*
X675050D01*
X673879Y-199424D01*
X672887Y-200087D01*
X672224Y-201080D01*
X671991Y-202250D01*
Y-208250D01*
X671223Y-209186D01*
X669423D01*
X667609Y-207373D01*
Y-202250D01*
X667376Y-201080D01*
X666713Y-200087D01*
X665721Y-199424D01*
X664550Y-199191D01*
X657050D01*
X655880Y-199424D01*
X654887Y-200087D01*
X654224Y-201080D01*
X653991Y-202250D01*
Y-208250D01*
X654224Y-209421D01*
X654887Y-210413D01*
X655880Y-211076D01*
X657050Y-211309D01*
X662173D01*
X663377Y-212513D01*
X662891Y-213686D01*
X655923D01*
X649609Y-207373D01*
Y-202250D01*
X649376Y-201080D01*
X648713Y-200087D01*
X647720Y-199424D01*
X646550Y-199191D01*
X639050D01*
X637879Y-199424D01*
X636887Y-200087D01*
X636224Y-201080D01*
X635991Y-202250D01*
Y-208250D01*
X636224Y-209421D01*
X636887Y-210413D01*
X637879Y-211076D01*
X639050Y-211309D01*
X644173D01*
X649872Y-217008D01*
X649386Y-218181D01*
X642778D01*
X631609Y-207012D01*
Y-202250D01*
X631376Y-201080D01*
X630713Y-200087D01*
X629721Y-199424D01*
X628550Y-199191D01*
X621050D01*
X619879Y-199424D01*
X618887Y-200087D01*
X618224Y-201080D01*
X617991Y-202250D01*
Y-208250D01*
X618224Y-209421D01*
X618887Y-210413D01*
X619879Y-211076D01*
X621050Y-211309D01*
X625812D01*
X638777Y-224273D01*
X639934Y-225047D01*
X641300Y-225319D01*
X651379D01*
X652145Y-226589D01*
X651989Y-227375D01*
Y-234625D01*
X652231Y-235844D01*
X652922Y-236878D01*
X653956Y-237569D01*
X655175Y-237811D01*
X661925D01*
X663144Y-237569D01*
X664178Y-236878D01*
X664869Y-235844D01*
X665111Y-234625D01*
X666380Y-234627D01*
X671300Y-239547D01*
Y-240495D01*
X672061Y-242332D01*
X673468Y-243739D01*
X675305Y-244500D01*
X676253D01*
X690046Y-258293D01*
X691204Y-259067D01*
X692570Y-259338D01*
X695137D01*
X695388Y-259645D01*
Y-261895D01*
X695573Y-262821D01*
X695872Y-263270D01*
X695573Y-263718D01*
X695388Y-264645D01*
Y-266895D01*
X695573Y-267821D01*
X696097Y-268607D01*
X696883Y-269132D01*
X697810Y-269316D01*
X712560D01*
X713486Y-269132D01*
X714272Y-268607D01*
X714797Y-267821D01*
X714981Y-266895D01*
Y-264645D01*
X714797Y-263718D01*
X714498Y-263270D01*
X714797Y-262821D01*
X714981Y-261895D01*
Y-259645D01*
X714797Y-258718D01*
X714498Y-258270D01*
X714797Y-257821D01*
X714940Y-257100D01*
X715515Y-256777D01*
X716251Y-256615D01*
X716451Y-256815D01*
X718105Y-257500D01*
X719895D01*
X721549Y-256815D01*
X722815Y-255549D01*
X723500Y-253895D01*
Y-252105D01*
X722815Y-250451D01*
X722717Y-250353D01*
X723243Y-249083D01*
X795030D01*
X796299Y-248831D01*
X797374Y-248113D01*
X807181Y-238305D01*
X808764Y-238366D01*
X809073Y-238718D01*
X808888Y-239645D01*
Y-241895D01*
X809073Y-242821D01*
X809372Y-243270D01*
X809073Y-243718D01*
X808888Y-244645D01*
Y-246895D01*
X809073Y-247821D01*
X809372Y-248270D01*
X809073Y-248718D01*
X808888Y-249645D01*
Y-251895D01*
X809073Y-252821D01*
X809372Y-253270D01*
X809073Y-253718D01*
X808888Y-254645D01*
Y-256895D01*
X809073Y-257821D01*
X809372Y-258270D01*
X809073Y-258718D01*
X808888Y-259645D01*
Y-261895D01*
X809073Y-262821D01*
X809372Y-263270D01*
X809073Y-263718D01*
X808888Y-264645D01*
Y-266895D01*
X809073Y-267821D01*
X809372Y-268270D01*
X809073Y-268718D01*
X808888Y-269645D01*
Y-271895D01*
X809073Y-272821D01*
X809597Y-273607D01*
X810383Y-274132D01*
X811310Y-274316D01*
X826060D01*
X826986Y-274132D01*
X827772Y-273607D01*
X828297Y-272821D01*
X828481Y-271895D01*
Y-269645D01*
X828297Y-268718D01*
X827997Y-268270D01*
X828297Y-267821D01*
X828481Y-266895D01*
Y-264645D01*
X828942Y-264083D01*
X845885D01*
X847153Y-263831D01*
X848228Y-263113D01*
X857457Y-253883D01*
X894518D01*
X894724Y-254921D01*
X895387Y-255913D01*
X896379Y-256576D01*
X897550Y-256809D01*
X903550D01*
X904721Y-256576D01*
X905713Y-255913D01*
X906376Y-254921D01*
X906609Y-253750D01*
Y-246250D01*
X906376Y-245079D01*
X905713Y-244087D01*
X904721Y-243424D01*
X903550Y-243191D01*
X897550D01*
X896379Y-243424D01*
X895387Y-244087D01*
X894724Y-245079D01*
X894491Y-246250D01*
Y-247256D01*
X856085D01*
X855830Y-247307D01*
X855204Y-246136D01*
X863457Y-237883D01*
X895367D01*
X895387Y-237913D01*
X896379Y-238576D01*
X897550Y-238809D01*
X903550D01*
X904721Y-238576D01*
X905713Y-237913D01*
X906376Y-236921D01*
X906609Y-235750D01*
Y-228250D01*
X906376Y-227080D01*
X905713Y-226087D01*
X904721Y-225424D01*
X903550Y-225191D01*
X897550D01*
X896379Y-225424D01*
X895387Y-226087D01*
X894724Y-227080D01*
X894491Y-228250D01*
Y-231256D01*
X862085D01*
X860817Y-231508D01*
X859742Y-232227D01*
X839512Y-252456D01*
X828942D01*
X828481Y-251894D01*
Y-249645D01*
X828297Y-248718D01*
X827998Y-248270D01*
X828297Y-247821D01*
X828481Y-246895D01*
Y-244645D01*
X828297Y-243718D01*
X827997Y-243270D01*
X828297Y-242821D01*
X828481Y-241895D01*
Y-239645D01*
X828297Y-238718D01*
X827998Y-238270D01*
X828297Y-237821D01*
X828481Y-236895D01*
Y-234645D01*
X828297Y-233718D01*
X827772Y-232932D01*
X826986Y-232407D01*
X826060Y-232223D01*
X814922D01*
X814436Y-231050D01*
X831173Y-214314D01*
X935164D01*
X936432Y-214061D01*
X937507Y-213343D01*
X948466Y-202384D01*
X949736Y-202910D01*
Y-256225D01*
X949990Y-257503D01*
X950714Y-258586D01*
X951797Y-259310D01*
X953075Y-259564D01*
X956222D01*
Y-283250D01*
X956222Y-283250D01*
X956532Y-284811D01*
X957416Y-286134D01*
X976737Y-305454D01*
Y-311770D01*
X976987Y-313030D01*
X977701Y-314099D01*
X978770Y-314813D01*
X980030Y-315063D01*
X991570D01*
X992830Y-314813D01*
X993899Y-314099D01*
X994613Y-313030D01*
X994863Y-311770D01*
Y-309527D01*
X1000362D01*
X1008062Y-317227D01*
X1008062Y-317227D01*
X1008086Y-317243D01*
X1008118Y-317275D01*
X1007592Y-318545D01*
X999950D01*
Y-330085D01*
X1012078D01*
Y-321423D01*
X1020740D01*
Y-316765D01*
X1020767Y-316725D01*
X1021038Y-315359D01*
Y-310081D01*
X1022308Y-309555D01*
X1023901Y-311148D01*
Y-315359D01*
X1024173Y-316725D01*
X1024200Y-316765D01*
Y-321423D01*
X1029355D01*
X1029389Y-321594D01*
X1030112Y-322675D01*
X1032953Y-325516D01*
X1034035Y-326239D01*
X1035311Y-326493D01*
X1051578D01*
X1054258Y-329173D01*
X1055339Y-329896D01*
X1056615Y-330149D01*
X1057862D01*
Y-340085D01*
Y-350085D01*
Y-360085D01*
X1062520D01*
X1062560Y-360112D01*
X1063926Y-360384D01*
X1066537D01*
X1067694Y-360614D01*
X1067921D01*
Y-377690D01*
X1068193Y-379055D01*
X1068966Y-380213D01*
X1072578Y-383825D01*
X1072160Y-385203D01*
X1072122Y-385210D01*
X1061038Y-374127D01*
Y-373271D01*
X1060767Y-371906D01*
X1060740Y-371865D01*
Y-367207D01*
X1024200D01*
Y-373052D01*
X1024156Y-373271D01*
Y-391958D01*
X1021427Y-394686D01*
X982470D01*
X981201Y-394939D01*
X980126Y-395657D01*
X972926Y-402857D01*
X972208Y-403932D01*
X971956Y-405200D01*
Y-405689D01*
X970175D01*
X968956Y-405931D01*
X967922Y-406622D01*
X967231Y-407656D01*
X966989Y-408875D01*
Y-415625D01*
X967231Y-416844D01*
X967922Y-417878D01*
X968956Y-418569D01*
X970175Y-418811D01*
X976929D01*
X985870Y-427751D01*
Y-437715D01*
X1003870D01*
Y-421715D01*
X989206D01*
X987379Y-419888D01*
X987865Y-418715D01*
X1003870D01*
Y-402715D01*
X985870D01*
Y-416720D01*
X984696Y-417206D01*
X980611Y-413121D01*
Y-408875D01*
X980369Y-407656D01*
X979678Y-406622D01*
X979575Y-405580D01*
X983842Y-401314D01*
X1022800D01*
X1024068Y-401061D01*
X1025143Y-400343D01*
X1029813Y-395673D01*
X1030700Y-395586D01*
X1035356Y-400242D01*
Y-405852D01*
X1034956Y-405931D01*
X1033922Y-406622D01*
X1033401Y-407402D01*
X1027870D01*
Y-402715D01*
X1009870D01*
Y-418715D01*
X1027870D01*
Y-414029D01*
X1032989D01*
Y-415625D01*
X1033231Y-416844D01*
X1033922Y-417878D01*
X1034956Y-418569D01*
X1036175Y-418811D01*
X1043425D01*
X1044216Y-418654D01*
X1045486Y-419417D01*
Y-440627D01*
X1041428Y-444686D01*
X945002D01*
X944049Y-443734D01*
X942395Y-443049D01*
X940605D01*
X938951Y-443734D01*
X937685Y-445000D01*
X937000Y-446654D01*
Y-448444D01*
X937111Y-448712D01*
X936139Y-449684D01*
X935695Y-449500D01*
X933905D01*
X932251Y-450185D01*
X930985Y-451451D01*
X930300Y-453105D01*
Y-454895D01*
X930985Y-456549D01*
X932251Y-457815D01*
X933905Y-458500D01*
X935695D01*
X937349Y-457815D01*
X937850Y-457314D01*
X1044800D01*
X1046068Y-457061D01*
X1047143Y-456343D01*
X1058143Y-445343D01*
X1058861Y-444268D01*
X1059114Y-443000D01*
Y-396805D01*
X1060287Y-396319D01*
X1066456Y-402488D01*
Y-405906D01*
X1066020D01*
X1064849Y-406139D01*
X1063857Y-406802D01*
X1063194Y-407795D01*
X1062961Y-408965D01*
Y-414965D01*
X1063194Y-416136D01*
X1063857Y-417128D01*
X1064849Y-417791D01*
X1066020Y-418024D01*
X1073520D01*
X1074690Y-417791D01*
X1075683Y-417128D01*
X1076346Y-416136D01*
X1076578Y-414965D01*
Y-408965D01*
X1076346Y-407795D01*
X1075683Y-406802D01*
X1074690Y-406139D01*
X1073520Y-405906D01*
X1073083D01*
Y-401115D01*
X1072831Y-399847D01*
X1072113Y-398772D01*
X1053849Y-380508D01*
X1054335Y-379335D01*
X1056153D01*
X1069059Y-392242D01*
X1070217Y-393015D01*
X1071583Y-393287D01*
X1072439D01*
X1083650Y-404498D01*
X1083232Y-405876D01*
X1082956Y-405931D01*
X1081922Y-406622D01*
X1081231Y-407656D01*
X1080989Y-408875D01*
Y-415625D01*
X1081231Y-416844D01*
X1081922Y-417878D01*
X1082956Y-418569D01*
X1084175Y-418811D01*
X1091425D01*
X1092644Y-418569D01*
X1093678Y-417878D01*
X1094369Y-416844D01*
X1094573Y-415819D01*
X1096255D01*
X1097251Y-416815D01*
X1098905Y-417500D01*
X1100695D01*
X1102349Y-416815D01*
X1103615Y-415549D01*
X1104300Y-413895D01*
Y-412105D01*
X1103615Y-410451D01*
X1102349Y-409185D01*
X1100695Y-408500D01*
X1098905D01*
X1098467Y-408681D01*
X1094573D01*
X1094369Y-407656D01*
X1093678Y-406622D01*
X1092644Y-405931D01*
X1091425Y-405689D01*
X1091369D01*
Y-403602D01*
X1091097Y-402236D01*
X1090323Y-401078D01*
X1087799Y-398554D01*
X1088325Y-397284D01*
X1134370D01*
X1135735Y-397012D01*
X1136893Y-396239D01*
X1141893Y-391239D01*
X1142666Y-390081D01*
X1142938Y-388715D01*
Y-385528D01*
X1154895D01*
X1156153Y-385278D01*
X1157220Y-384565D01*
X1157933Y-383498D01*
X1158183Y-382240D01*
Y-372440D01*
X1157933Y-371182D01*
X1157220Y-370115D01*
X1156153Y-369402D01*
X1154895Y-369152D01*
X1123845D01*
X1122586Y-369402D01*
X1121519Y-370115D01*
X1120807Y-371182D01*
X1120556Y-372440D01*
Y-382240D01*
X1120807Y-383498D01*
X1121519Y-384565D01*
X1122586Y-385278D01*
X1123845Y-385528D01*
X1135801D01*
Y-387237D01*
X1132891Y-390147D01*
X1088993D01*
X1075058Y-376211D01*
Y-361964D01*
X1076232Y-361478D01*
X1079784Y-365031D01*
X1080942Y-365804D01*
X1082307Y-366076D01*
X1082989D01*
Y-366375D01*
X1083231Y-367594D01*
X1083922Y-368628D01*
X1084956Y-369319D01*
X1086175Y-369561D01*
X1093425D01*
X1094644Y-369319D01*
X1095678Y-368628D01*
X1096369Y-367594D01*
X1096611Y-366375D01*
Y-359625D01*
X1096595Y-359545D01*
X1097401Y-358564D01*
X1101176D01*
X1101231Y-358844D01*
X1101922Y-359878D01*
X1102956Y-360569D01*
X1104175Y-360811D01*
X1111425D01*
X1112644Y-360569D01*
X1113678Y-359878D01*
X1114369Y-358844D01*
X1114611Y-357625D01*
Y-350875D01*
X1114369Y-349656D01*
X1113678Y-348622D01*
X1112644Y-347931D01*
X1111425Y-347689D01*
X1104175D01*
X1102956Y-347931D01*
X1101922Y-348622D01*
X1101231Y-349656D01*
X1100989Y-350875D01*
Y-351936D01*
X1097401D01*
X1096595Y-350955D01*
X1096611Y-350875D01*
Y-345384D01*
X1115645D01*
X1117010Y-345112D01*
X1118168Y-344339D01*
X1133025Y-329481D01*
X1133799Y-328323D01*
X1134071Y-326958D01*
Y-326278D01*
X1154895D01*
X1156153Y-326028D01*
X1157220Y-325315D01*
X1157542Y-324833D01*
X1170736D01*
Y-338240D01*
X1170989Y-339512D01*
X1171710Y-340590D01*
X1172788Y-341311D01*
X1174060Y-341564D01*
X1189540D01*
X1190812Y-341311D01*
X1191890Y-340590D01*
X1192611Y-339512D01*
X1192864Y-338240D01*
Y-315760D01*
X1192611Y-314488D01*
X1191890Y-313410D01*
X1190812Y-312689D01*
X1189540Y-312436D01*
X1174060D01*
X1173248Y-312598D01*
X1158065D01*
X1157933Y-311932D01*
X1157220Y-310865D01*
X1156153Y-310152D01*
X1154895Y-309902D01*
X1137604D01*
X1137118Y-308729D01*
X1140035Y-305811D01*
X1144925D01*
X1146144Y-305569D01*
X1147178Y-304878D01*
X1147869Y-303844D01*
X1148111Y-302625D01*
Y-297236D01*
X1156323Y-289023D01*
X1156551Y-288682D01*
X1158204Y-288268D01*
X1158232Y-288278D01*
X1158282Y-288311D01*
X1159550Y-288564D01*
X1182050D01*
X1183318Y-288311D01*
X1184393Y-287593D01*
X1185111Y-286518D01*
X1185364Y-285250D01*
Y-271588D01*
X1247236D01*
Y-285750D01*
X1247489Y-287018D01*
X1248207Y-288093D01*
X1249282Y-288811D01*
X1250550Y-289064D01*
X1272815D01*
X1273443Y-289664D01*
X1273800Y-290209D01*
Y-291994D01*
X1274561Y-293832D01*
X1274817Y-294088D01*
Y-295691D01*
X1271050D01*
X1269880Y-295924D01*
X1268887Y-296587D01*
X1268224Y-297579D01*
X1267991Y-298750D01*
Y-304750D01*
X1268224Y-305921D01*
X1268887Y-306913D01*
X1269880Y-307576D01*
X1271050Y-307809D01*
X1278550D01*
X1279721Y-307576D01*
X1280713Y-306913D01*
X1281376Y-305921D01*
X1281609Y-304750D01*
Y-298750D01*
X1281444Y-297922D01*
Y-295317D01*
X1281632Y-295239D01*
X1283039Y-293832D01*
X1283800Y-291994D01*
Y-290005D01*
X1283039Y-288168D01*
X1281632Y-286761D01*
X1279795Y-286000D01*
X1277805D01*
X1277473Y-286138D01*
X1276364Y-285222D01*
Y-253250D01*
X1276111Y-251982D01*
X1275393Y-250907D01*
X1274318Y-250189D01*
X1273050Y-249936D01*
X1250550D01*
X1249282Y-250189D01*
X1248207Y-250907D01*
X1247489Y-251982D01*
X1247236Y-253250D01*
Y-262412D01*
X1185364D01*
Y-252750D01*
X1185111Y-251482D01*
X1184393Y-250407D01*
X1183318Y-249689D01*
X1182050Y-249436D01*
X1159550D01*
X1158282Y-249689D01*
X1157207Y-250407D01*
X1156489Y-251482D01*
X1156236Y-252750D01*
Y-270017D01*
X1151277Y-274977D01*
X1150503Y-276134D01*
X1150231Y-277500D01*
Y-285022D01*
X1143064Y-292189D01*
X1138175D01*
X1136956Y-292431D01*
X1135922Y-293122D01*
X1135231Y-294156D01*
X1134989Y-295375D01*
Y-300764D01*
X1130857Y-304897D01*
X1119625D01*
X1118260Y-305168D01*
X1117102Y-305942D01*
X1109363Y-313681D01*
X1097402D01*
X1096596Y-312700D01*
X1096611Y-312625D01*
Y-305375D01*
X1096369Y-304156D01*
X1095678Y-303122D01*
X1094644Y-302431D01*
X1093425Y-302189D01*
X1088286D01*
X1087573Y-301477D01*
X1086416Y-300703D01*
X1085050Y-300431D01*
X1078743D01*
X1078257Y-299258D01*
X1080220Y-297295D01*
X1081387Y-296913D01*
X1082380Y-297576D01*
X1083550Y-297809D01*
X1089550D01*
X1090721Y-297576D01*
X1091713Y-296913D01*
X1092376Y-295921D01*
X1092609Y-294750D01*
Y-287250D01*
X1092376Y-286079D01*
X1091713Y-285087D01*
X1090721Y-284424D01*
X1089864Y-284254D01*
Y-278746D01*
X1090721Y-278576D01*
X1091713Y-277913D01*
X1092376Y-276921D01*
X1092609Y-275750D01*
Y-268250D01*
X1092376Y-267080D01*
X1091713Y-266087D01*
X1090721Y-265424D01*
X1089550Y-265191D01*
X1083550D01*
X1083048Y-265291D01*
X1081778Y-264415D01*
Y-259564D01*
X1082525D01*
X1083803Y-259310D01*
X1084886Y-258586D01*
X1085610Y-257503D01*
X1085670Y-257203D01*
X1090773D01*
X1090987Y-258280D01*
X1091701Y-259349D01*
X1092770Y-260063D01*
X1094030Y-260313D01*
X1105570D01*
X1106830Y-260063D01*
X1107899Y-259349D01*
X1108613Y-258280D01*
X1108863Y-257020D01*
Y-249230D01*
X1108613Y-247970D01*
X1107899Y-246901D01*
X1106830Y-246187D01*
X1105570Y-245937D01*
X1094030D01*
X1092770Y-246187D01*
X1091701Y-246901D01*
X1090987Y-247970D01*
X1090773Y-249047D01*
X1085864D01*
Y-201775D01*
X1085610Y-200497D01*
X1084886Y-199414D01*
X1083803Y-198690D01*
X1082525Y-198436D01*
X1068075D01*
X1066797Y-198690D01*
X1065714Y-199414D01*
X1064990Y-200497D01*
X1064736Y-201775D01*
Y-256225D01*
X1064990Y-257503D01*
X1065714Y-258586D01*
X1066797Y-259310D01*
X1068075Y-259564D01*
X1073622D01*
Y-277923D01*
X1072352Y-278772D01*
X1071695Y-278500D01*
X1069905D01*
X1068251Y-279185D01*
X1066985Y-280451D01*
X1066300Y-282105D01*
Y-283895D01*
X1066985Y-285549D01*
X1066995Y-285559D01*
Y-286697D01*
X1053502Y-300191D01*
X1052981D01*
X1051705Y-300445D01*
X1050624Y-301168D01*
X1045112Y-306679D01*
X1044389Y-307761D01*
X1044136Y-309037D01*
Y-315359D01*
X1044200Y-315681D01*
Y-319825D01*
X1040740D01*
Y-316765D01*
X1040767Y-316725D01*
X1041038Y-315359D01*
Y-303909D01*
X1051323Y-293623D01*
X1052097Y-292466D01*
X1052369Y-291100D01*
Y-251000D01*
X1052097Y-249634D01*
X1051323Y-248477D01*
X1040864Y-238017D01*
Y-201775D01*
X1040610Y-200497D01*
X1039886Y-199414D01*
X1038803Y-198690D01*
X1037525Y-198436D01*
X1023075D01*
X1021797Y-198690D01*
X1020714Y-199414D01*
X1019990Y-200497D01*
X1019736Y-201775D01*
Y-256225D01*
X1019990Y-257503D01*
X1020714Y-258586D01*
X1021797Y-259310D01*
X1023075Y-259564D01*
X1035276D01*
X1035802Y-260834D01*
X1034985Y-261651D01*
X1034300Y-263305D01*
Y-264840D01*
X1033879Y-264924D01*
X1032887Y-265587D01*
X1032224Y-266579D01*
X1032104Y-267181D01*
X1027496D01*
X1027376Y-266579D01*
X1026713Y-265587D01*
X1025721Y-264924D01*
X1024550Y-264691D01*
X1017050D01*
X1015880Y-264924D01*
X1014887Y-265587D01*
X1014639Y-265959D01*
X1013369Y-265574D01*
Y-259396D01*
X1013803Y-259310D01*
X1014886Y-258586D01*
X1015610Y-257503D01*
X1015864Y-256225D01*
Y-201775D01*
X1015610Y-200497D01*
X1014886Y-199414D01*
X1013803Y-198690D01*
X1012525Y-198436D01*
X998075D01*
X996797Y-198690D01*
X995714Y-199414D01*
X994990Y-200497D01*
X994736Y-201775D01*
Y-256225D01*
X994990Y-257503D01*
X995714Y-258586D01*
X996797Y-259310D01*
X998075Y-259564D01*
X1006231D01*
Y-273799D01*
X1004961Y-274368D01*
X1004318Y-273939D01*
X1003050Y-273686D01*
X1002388D01*
Y-268000D01*
X1002300Y-267557D01*
Y-267105D01*
X1002127Y-266687D01*
X1002039Y-266244D01*
X1001788Y-265868D01*
X1001615Y-265451D01*
X1001295Y-265131D01*
X1001044Y-264756D01*
X1000669Y-264505D01*
X1000349Y-264185D01*
X999932Y-264012D01*
X999556Y-263761D01*
X999113Y-263673D01*
X998695Y-263500D01*
X998243D01*
X997800Y-263412D01*
X997357Y-263500D01*
X996905D01*
X996487Y-263673D01*
X996044Y-263761D01*
X995668Y-264012D01*
X995251Y-264185D01*
X994931Y-264505D01*
X994556Y-264756D01*
X994305Y-265131D01*
X993985Y-265451D01*
X993812Y-265868D01*
X993561Y-266244D01*
X993473Y-266687D01*
X993300Y-267105D01*
Y-267557D01*
X993212Y-268000D01*
Y-274654D01*
X993207Y-274657D01*
X992489Y-275732D01*
X992236Y-277000D01*
Y-289000D01*
X992489Y-290268D01*
X993207Y-291343D01*
X994282Y-292061D01*
X995550Y-292314D01*
X997583D01*
Y-292993D01*
X997855Y-294358D01*
X998629Y-295516D01*
X1003471Y-300358D01*
X1002845Y-301529D01*
X1002052Y-301371D01*
X1002051Y-301371D01*
X993479D01*
X992830Y-300937D01*
X991570Y-300687D01*
X983504D01*
X964378Y-281561D01*
Y-259564D01*
X967525D01*
X968803Y-259310D01*
X969886Y-258586D01*
X970610Y-257503D01*
X970864Y-256225D01*
Y-201775D01*
X970610Y-200497D01*
X969886Y-199414D01*
X968803Y-198690D01*
X967525Y-198436D01*
X954210D01*
X953684Y-197166D01*
X959537Y-191314D01*
X1068800D01*
X1070068Y-191061D01*
X1071143Y-190343D01*
X1074923Y-186564D01*
X1182907D01*
X1184164Y-186814D01*
X1289928D01*
X1303457Y-200343D01*
X1304532Y-201061D01*
X1305800Y-201314D01*
X1419427D01*
X1420800Y-202686D01*
Y-203995D01*
X1421561Y-205832D01*
X1422968Y-207239D01*
X1424805Y-208000D01*
X1426795D01*
X1428632Y-207239D01*
X1430039Y-205832D01*
X1430800Y-203995D01*
Y-202005D01*
X1430039Y-200168D01*
X1428632Y-198761D01*
X1426795Y-198000D01*
X1425486D01*
X1423143Y-195657D01*
X1422068Y-194939D01*
X1420800Y-194686D01*
X1419459D01*
X1418973Y-193513D01*
X1421143Y-191343D01*
X1421861Y-190268D01*
X1422114Y-189000D01*
Y-174000D01*
X1421861Y-172732D01*
X1421143Y-171657D01*
X1416893Y-167407D01*
X1415818Y-166689D01*
X1414550Y-166436D01*
X1412546D01*
X1412376Y-165579D01*
X1411713Y-164587D01*
X1410721Y-163924D01*
X1409550Y-163691D01*
X1402050D01*
X1400880Y-163924D01*
X1399887Y-164587D01*
X1399224Y-165579D01*
X1398991Y-166750D01*
Y-172750D01*
X1399224Y-173920D01*
X1399887Y-174913D01*
X1400880Y-175576D01*
X1402050Y-175809D01*
X1409550D01*
X1410721Y-175576D01*
X1411713Y-174913D01*
X1412321Y-174003D01*
X1412432Y-173908D01*
X1413731Y-173617D01*
X1415486Y-175373D01*
Y-187627D01*
X1413879Y-189235D01*
X1412609Y-188709D01*
Y-183250D01*
X1412376Y-182080D01*
X1411713Y-181087D01*
X1410721Y-180424D01*
X1409550Y-180191D01*
X1402050D01*
X1400880Y-180424D01*
X1399887Y-181087D01*
X1399224Y-182080D01*
X1399058Y-182916D01*
X1392542D01*
X1392376Y-182080D01*
X1391713Y-181087D01*
X1390721Y-180424D01*
X1389550Y-180191D01*
X1382050D01*
X1380880Y-180424D01*
X1379887Y-181087D01*
X1379224Y-182080D01*
X1379058Y-182916D01*
X1332044D01*
X1331518Y-181646D01*
X1331615Y-181549D01*
X1332300Y-179895D01*
Y-178105D01*
X1332704Y-177500D01*
X1333695D01*
X1335349Y-176815D01*
X1336615Y-175549D01*
X1337300Y-173895D01*
Y-172105D01*
X1337101Y-171625D01*
X1337807Y-170569D01*
X1350005D01*
X1350251Y-170815D01*
X1351905Y-171500D01*
X1353695D01*
X1355349Y-170815D01*
X1356615Y-169549D01*
X1357300Y-167895D01*
Y-166105D01*
X1356615Y-164451D01*
X1355349Y-163185D01*
X1353695Y-162500D01*
X1351905D01*
X1350251Y-163185D01*
X1349167Y-162474D01*
X1349101Y-162375D01*
X1349300Y-161895D01*
Y-160105D01*
X1348615Y-158451D01*
X1347349Y-157185D01*
X1345695Y-156500D01*
X1343905D01*
X1342251Y-157185D01*
X1342005Y-157431D01*
X1325615D01*
X1325275Y-156161D01*
X1326124Y-155672D01*
X1327985Y-153810D01*
X1329302Y-151529D01*
X1329983Y-148986D01*
Y-146353D01*
X1329302Y-143810D01*
X1327985Y-141529D01*
X1326236Y-139780D01*
X1331204Y-134811D01*
X1336425D01*
X1337644Y-134569D01*
X1338678Y-133878D01*
X1339369Y-132844D01*
X1339611Y-131625D01*
Y-124375D01*
X1339369Y-123156D01*
X1338678Y-122122D01*
X1337644Y-121431D01*
X1336425Y-121189D01*
X1329675D01*
X1328456Y-121431D01*
X1327422Y-122122D01*
X1326731Y-123156D01*
X1326489Y-124375D01*
Y-130096D01*
X1320201Y-136383D01*
X1319479Y-137465D01*
X1319438Y-137669D01*
X1318667D01*
X1316124Y-138351D01*
X1313843Y-139668D01*
X1311982Y-141529D01*
X1310665Y-143810D01*
X1309984Y-146353D01*
Y-147227D01*
X1308810Y-147713D01*
X1275824Y-114727D01*
X1274666Y-113953D01*
X1273300Y-113681D01*
X1111280Y-113681D01*
X1111278Y-113680D01*
X1110908Y-113049D01*
X1110672Y-112411D01*
X1110788Y-112132D01*
X1111039Y-111756D01*
X1111127Y-111313D01*
X1111300Y-110895D01*
Y-110443D01*
X1111388Y-110000D01*
Y-107250D01*
X1111039Y-105494D01*
X1110044Y-104006D01*
X1100419Y-94381D01*
X1098931Y-93386D01*
X1097175Y-93037D01*
X551581D01*
X550732Y-91767D01*
X551000Y-91120D01*
Y-89130D01*
X550239Y-87293D01*
X548832Y-85886D01*
X546995Y-85125D01*
X545520D01*
X545026Y-84795D01*
X543750Y-84541D01*
X540805D01*
X539970Y-83271D01*
X540049Y-82875D01*
Y-79875D01*
X540017Y-79714D01*
X540961Y-78444D01*
X546272D01*
X549000Y-81172D01*
Y-82120D01*
X549761Y-83957D01*
X551168Y-85364D01*
X553005Y-86125D01*
X554995D01*
X556832Y-85364D01*
X557503Y-84694D01*
X657444D01*
X658810Y-84422D01*
X659900Y-83694D01*
X759205D01*
X759451Y-83940D01*
X761105Y-84625D01*
X762895D01*
X764549Y-83940D01*
X765815Y-82674D01*
X766500Y-81020D01*
Y-79230D01*
X765815Y-77576D01*
X764549Y-76310D01*
X762895Y-75625D01*
X761105D01*
X759451Y-76310D01*
X758851Y-76071D01*
X758238Y-74652D01*
X758500Y-74020D01*
Y-72230D01*
X757815Y-70576D01*
X756549Y-69310D01*
X754895Y-68625D01*
X753105D01*
X751451Y-69310D01*
X751340Y-69421D01*
X750829Y-69319D01*
X750141Y-67888D01*
X750500Y-67020D01*
Y-65230D01*
X749815Y-63576D01*
X748549Y-62310D01*
X746895Y-61625D01*
X745105D01*
X743451Y-62310D01*
X742205Y-63556D01*
X571503D01*
X570832Y-62886D01*
X568995Y-62125D01*
X567940D01*
X565774Y-59959D01*
X566300Y-58689D01*
X764777D01*
X765185Y-59674D01*
X766451Y-60940D01*
X768105Y-61625D01*
X769895D01*
X771549Y-60940D01*
X772815Y-59674D01*
X773500Y-58020D01*
Y-56230D01*
X772815Y-54576D01*
X771549Y-53310D01*
X769895Y-52625D01*
X768984D01*
X768518Y-52314D01*
X767250Y-52061D01*
X540791D01*
X539966Y-50791D01*
X540049Y-50375D01*
Y-47375D01*
X539855Y-46400D01*
X539338Y-45625D01*
X539855Y-44851D01*
X540049Y-43875D01*
Y-40875D01*
X539855Y-39900D01*
X539302Y-39073D01*
X538475Y-38520D01*
X537500Y-38326D01*
X535213D01*
Y-29250D01*
X534864Y-27494D01*
X534311Y-26667D01*
Y-22500D01*
X534069Y-21281D01*
X533378Y-20247D01*
X532588Y-19719D01*
Y-10125D01*
X532500Y-9682D01*
Y-9230D01*
X532327Y-8812D01*
X532239Y-8369D01*
X531988Y-7993D01*
X531815Y-7576D01*
X531496Y-7256D01*
X531244Y-6881D01*
X530869Y-6630D01*
X530549Y-6310D01*
X530132Y-6137D01*
X529756Y-5886D01*
X529313Y-5798D01*
X528895Y-5625D01*
X528443D01*
X528000Y-5537D01*
D02*
G37*
G36*
X1345674Y-61000D02*
X1342326D01*
X1339041Y-61653D01*
X1335948Y-62935D01*
X1333163Y-64795D01*
X1330795Y-67163D01*
X1328935Y-69948D01*
X1327653Y-73041D01*
X1327000Y-76326D01*
Y-79674D01*
X1327653Y-82959D01*
X1328935Y-86053D01*
X1330795Y-88837D01*
X1333163Y-91205D01*
X1335948Y-93065D01*
X1339041Y-94347D01*
X1342326Y-95000D01*
X1345674D01*
X1348959Y-94347D01*
X1352052Y-93065D01*
X1354837Y-91205D01*
X1357205Y-88837D01*
X1359065Y-86053D01*
X1360347Y-82959D01*
X1361000Y-79674D01*
Y-76326D01*
X1360347Y-73041D01*
X1359065Y-69948D01*
X1357205Y-67163D01*
X1354837Y-64795D01*
X1352052Y-62935D01*
X1348959Y-61653D01*
X1345674Y-61000D01*
D02*
G37*
G36*
X541995Y-149125D02*
X540005D01*
X538168Y-149886D01*
X536761Y-151293D01*
X536349Y-152287D01*
X535811Y-152284D01*
X534987Y-152158D01*
X534378Y-151247D01*
X533344Y-150556D01*
X532125Y-150314D01*
X525375D01*
X524156Y-150556D01*
X523122Y-151247D01*
X522431Y-152281D01*
X522189Y-153500D01*
Y-160750D01*
X522431Y-161969D01*
X523122Y-163003D01*
X524099Y-163656D01*
Y-170326D01*
X521750D01*
X520775Y-170520D01*
X519948Y-171073D01*
X519395Y-171900D01*
X519201Y-172875D01*
Y-175875D01*
X519395Y-176850D01*
X518854Y-178327D01*
X518070Y-178852D01*
X501477Y-195445D01*
X500703Y-196603D01*
X500431Y-197968D01*
Y-211522D01*
X435397Y-276556D01*
X325859D01*
X325414Y-275837D01*
X325322Y-275286D01*
X325924Y-274694D01*
X395585D01*
X396951Y-274422D01*
X398109Y-273648D01*
X424456Y-247301D01*
X425790Y-247763D01*
X425844Y-248211D01*
X425761Y-248293D01*
X425000Y-250130D01*
Y-252120D01*
X425761Y-253957D01*
X427168Y-255364D01*
X429006Y-256125D01*
X430995D01*
X432832Y-255364D01*
X434239Y-253957D01*
X435000Y-252120D01*
Y-250130D01*
X434239Y-248293D01*
X434105Y-248159D01*
X464821Y-217444D01*
X470875D01*
X470974Y-217424D01*
X478250D01*
X479226Y-217230D01*
X480052Y-216677D01*
X480605Y-215850D01*
X480799Y-214875D01*
Y-211875D01*
X480605Y-210900D01*
X480087Y-210125D01*
X480605Y-209350D01*
X480799Y-208375D01*
Y-205375D01*
X480605Y-204400D01*
X480087Y-203625D01*
X480605Y-202850D01*
X480799Y-201875D01*
Y-198875D01*
X480605Y-197900D01*
X480087Y-197125D01*
X480605Y-196350D01*
X480799Y-195375D01*
Y-192375D01*
X480605Y-191400D01*
X480087Y-190625D01*
X480605Y-189850D01*
X480799Y-188875D01*
Y-185875D01*
X480605Y-184900D01*
X480087Y-184125D01*
X480605Y-183350D01*
X480799Y-182375D01*
Y-179375D01*
X480605Y-178400D01*
X480087Y-177625D01*
X480605Y-176850D01*
X480799Y-175875D01*
Y-172875D01*
X480605Y-171900D01*
X480052Y-171073D01*
X479226Y-170520D01*
X478250Y-170326D01*
X464500D01*
X463525Y-170520D01*
X463096Y-170806D01*
X431750D01*
X430384Y-171078D01*
X429227Y-171852D01*
X416522Y-184556D01*
X243503D01*
X242832Y-183886D01*
X240995Y-183125D01*
X239006D01*
X237168Y-183886D01*
X235761Y-185293D01*
X235000Y-187130D01*
Y-189120D01*
X235761Y-190957D01*
X237168Y-192364D01*
X239006Y-193125D01*
X240995D01*
X242832Y-192364D01*
X243503Y-191694D01*
X327564D01*
X328090Y-192964D01*
X327761Y-193293D01*
X327000Y-195130D01*
Y-197120D01*
X327761Y-198957D01*
X329168Y-200364D01*
X331006Y-201125D01*
X332995D01*
X334832Y-200364D01*
X335503Y-199694D01*
X417728D01*
X418058Y-200588D01*
X418090Y-200964D01*
X416761Y-202293D01*
X416000Y-204130D01*
Y-206120D01*
X416761Y-207957D01*
X418168Y-209364D01*
X420005Y-210125D01*
X421995D01*
X423832Y-209364D01*
X425239Y-207957D01*
X426000Y-206120D01*
Y-205172D01*
X440228Y-190944D01*
X443339D01*
X443865Y-192214D01*
X424522Y-211556D01*
X151036D01*
X149995Y-211125D01*
X148006D01*
X146168Y-211886D01*
X144761Y-213293D01*
X144000Y-215131D01*
Y-217120D01*
X144761Y-218957D01*
X146168Y-220364D01*
X148006Y-221125D01*
X149995D01*
X151832Y-220364D01*
X153239Y-218957D01*
X153348Y-218694D01*
X251589D01*
X252115Y-219964D01*
X250953Y-221125D01*
X250005D01*
X248168Y-221886D01*
X246761Y-223293D01*
X246000Y-225130D01*
Y-227120D01*
X246761Y-228957D01*
X248168Y-230364D01*
X250005Y-231125D01*
X251995D01*
X253832Y-230364D01*
X255239Y-228957D01*
X256000Y-227120D01*
Y-226172D01*
X256978Y-225194D01*
X301042D01*
X301891Y-226464D01*
X301625Y-227105D01*
Y-228895D01*
X302235Y-230367D01*
X302204Y-230424D01*
X301212Y-231087D01*
X300549Y-232079D01*
X300316Y-233250D01*
Y-240750D01*
X300549Y-241921D01*
X301212Y-242913D01*
X302204Y-243576D01*
X303375Y-243809D01*
X309375D01*
X310546Y-243576D01*
X311538Y-242913D01*
X312201Y-241921D01*
X312434Y-240750D01*
Y-233250D01*
X312201Y-232079D01*
X311538Y-231087D01*
X310546Y-230424D01*
X310233Y-229840D01*
X310625Y-228895D01*
Y-227105D01*
X310359Y-226464D01*
X311208Y-225194D01*
X393042Y-225194D01*
X393891Y-226464D01*
X393625Y-227105D01*
Y-228895D01*
X393693Y-229058D01*
X392832Y-230299D01*
X392205Y-230424D01*
X391212Y-231087D01*
X390549Y-232079D01*
X390316Y-233250D01*
Y-240750D01*
X390549Y-241921D01*
X391212Y-242913D01*
X392205Y-243576D01*
X393375Y-243809D01*
X399375D01*
X400546Y-243576D01*
X401538Y-242913D01*
X402201Y-241921D01*
X402434Y-240750D01*
Y-233250D01*
X402201Y-232079D01*
X401538Y-231087D01*
X401526Y-230963D01*
X401940Y-230549D01*
X402625Y-228895D01*
Y-227105D01*
X402359Y-226464D01*
X403208Y-225194D01*
X431500D01*
X432866Y-224922D01*
X434023Y-224148D01*
X454228Y-203944D01*
X455924D01*
X456450Y-205214D01*
X394107Y-267556D01*
X325503D01*
X324832Y-266886D01*
X322995Y-266125D01*
X321006D01*
X319168Y-266886D01*
X317761Y-268293D01*
X317000Y-270130D01*
Y-272120D01*
X317761Y-273957D01*
X319090Y-275286D01*
X319058Y-275662D01*
X318728Y-276556D01*
X168250Y-276556D01*
X166884Y-276828D01*
X165727Y-277602D01*
X128012Y-315316D01*
X123250D01*
X122079Y-315549D01*
X121087Y-316212D01*
X120424Y-317204D01*
X120191Y-318375D01*
Y-325875D01*
X120424Y-327046D01*
X121087Y-328038D01*
X122079Y-328701D01*
X123250Y-328934D01*
X129250D01*
X130421Y-328701D01*
X131413Y-328038D01*
X132076Y-327046D01*
X132309Y-325875D01*
Y-321113D01*
X169728Y-283694D01*
X436875Y-283694D01*
X438241Y-283422D01*
X439398Y-282648D01*
X506523Y-215523D01*
X507297Y-214366D01*
X507569Y-213000D01*
Y-199446D01*
X517971Y-189044D01*
X519323Y-189488D01*
X519395Y-189850D01*
X519913Y-190625D01*
X519395Y-191400D01*
X519201Y-192375D01*
Y-195375D01*
X519395Y-196350D01*
X519913Y-197125D01*
X519395Y-197900D01*
X519201Y-198875D01*
Y-201875D01*
X519395Y-202850D01*
X519913Y-203625D01*
X519395Y-204400D01*
X519201Y-205375D01*
Y-208375D01*
X518863Y-208787D01*
X516750D01*
X514994Y-209136D01*
X513506Y-210131D01*
X512162Y-211474D01*
X511168Y-211886D01*
X509761Y-213293D01*
X509000Y-215131D01*
Y-217120D01*
X509761Y-218957D01*
X511168Y-220364D01*
X513005Y-221125D01*
X514995D01*
X516832Y-220364D01*
X517931Y-219265D01*
X519201Y-219700D01*
Y-221375D01*
X519395Y-222350D01*
X519948Y-223177D01*
X520775Y-223730D01*
X521750Y-223924D01*
X535500D01*
X536475Y-223730D01*
X537302Y-223177D01*
X537855Y-222350D01*
X538049Y-221375D01*
Y-218375D01*
X537855Y-217400D01*
X537337Y-216625D01*
X537855Y-215850D01*
X538049Y-214875D01*
Y-211875D01*
X538017Y-211714D01*
X538961Y-210444D01*
X543522D01*
X545153Y-212074D01*
X546310Y-212848D01*
X547676Y-213120D01*
X549924D01*
X551168Y-214364D01*
X553005Y-215125D01*
X554995D01*
X556832Y-214364D01*
X558239Y-212957D01*
X559000Y-211120D01*
Y-209130D01*
X558902Y-208894D01*
X559979Y-208175D01*
X560168Y-208364D01*
X562006Y-209125D01*
X563995D01*
X565832Y-208364D01*
X567239Y-206957D01*
X568000Y-205120D01*
Y-203130D01*
X567239Y-201293D01*
X566050Y-200104D01*
X566769Y-199027D01*
X567006Y-199125D01*
X568995D01*
X570832Y-198364D01*
X572239Y-196957D01*
X573000Y-195120D01*
Y-193130D01*
X572239Y-191293D01*
X570832Y-189886D01*
X568995Y-189125D01*
X567006D01*
X565168Y-189886D01*
X564748Y-190306D01*
X550469D01*
X549620Y-189036D01*
X550000Y-188120D01*
Y-186130D01*
X549239Y-184293D01*
X547832Y-182886D01*
X545995Y-182125D01*
X544006D01*
X542168Y-182886D01*
X541138Y-183916D01*
X538888D01*
X537995Y-182646D01*
X538049Y-182375D01*
Y-179375D01*
X537855Y-178400D01*
X537337Y-177625D01*
X537855Y-176850D01*
X538049Y-175875D01*
Y-172875D01*
X537855Y-171900D01*
X537302Y-171073D01*
X536475Y-170520D01*
X535500Y-170326D01*
X533276D01*
Y-163707D01*
X533344Y-163694D01*
X534378Y-163003D01*
X535069Y-161969D01*
X535120Y-161713D01*
X538000D01*
X539756Y-161364D01*
X541244Y-160369D01*
X542838Y-158776D01*
X543832Y-158364D01*
X545239Y-156957D01*
X546000Y-155120D01*
Y-153131D01*
X545239Y-151293D01*
X543832Y-149886D01*
X541995Y-149125D01*
D02*
G37*
G36*
X1351925Y-121189D02*
X1345175D01*
X1343956Y-121431D01*
X1342922Y-122122D01*
X1342231Y-123156D01*
X1341989Y-124375D01*
Y-131625D01*
X1342231Y-132844D01*
X1342922Y-133878D01*
X1343956Y-134569D01*
X1345175Y-134811D01*
X1350065D01*
X1355168Y-139914D01*
X1355175Y-139923D01*
X1355371Y-140225D01*
X1355531Y-140569D01*
X1355656Y-140969D01*
X1355741Y-141437D01*
X1355780Y-141981D01*
X1355763Y-142603D01*
X1355685Y-143302D01*
X1355541Y-144077D01*
X1355312Y-144980D01*
X1355302Y-145162D01*
X1354984Y-146353D01*
Y-148986D01*
X1355665Y-151529D01*
X1356982Y-153810D01*
X1358843Y-155672D01*
X1361124Y-156988D01*
X1363667Y-157669D01*
X1366300D01*
X1368843Y-156988D01*
X1371124Y-155672D01*
X1372985Y-153810D01*
X1374302Y-151529D01*
X1374984Y-148986D01*
Y-146353D01*
X1374302Y-143810D01*
X1372985Y-141529D01*
X1371124Y-139668D01*
X1368843Y-138351D01*
X1367749Y-138058D01*
X1367593Y-137976D01*
X1364273Y-136999D01*
X1363439Y-136706D01*
X1361972Y-136103D01*
X1361445Y-135841D01*
X1361019Y-135593D01*
X1360759Y-135412D01*
X1355111Y-129764D01*
Y-124375D01*
X1354869Y-123156D01*
X1354178Y-122122D01*
X1353144Y-121431D01*
X1351925Y-121189D01*
D02*
G37*
G36*
X398020Y-138500D02*
X396230D01*
X394576Y-139185D01*
X393310Y-140451D01*
X392625Y-142105D01*
Y-143895D01*
X392798Y-144313D01*
X392204Y-145424D01*
X391212Y-146087D01*
X390549Y-147079D01*
X390316Y-148250D01*
Y-155750D01*
X390549Y-156920D01*
X391212Y-157913D01*
X392205Y-158576D01*
X393375Y-158809D01*
X399375D01*
X400546Y-158576D01*
X401538Y-157913D01*
X402201Y-156920D01*
X402434Y-155750D01*
Y-148250D01*
X402201Y-147079D01*
X401538Y-146087D01*
X400955Y-145697D01*
X400940Y-145549D01*
X401625Y-143895D01*
Y-142105D01*
X400940Y-140451D01*
X399674Y-139185D01*
X398020Y-138500D01*
D02*
G37*
G36*
X310020D02*
X308230D01*
X306576Y-139185D01*
X305310Y-140451D01*
X304625Y-142105D01*
Y-143895D01*
X304725Y-144135D01*
X304019Y-145191D01*
X303375D01*
X302204Y-145424D01*
X301212Y-146087D01*
X300549Y-147079D01*
X300316Y-148250D01*
Y-155750D01*
X300549Y-156920D01*
X301212Y-157913D01*
X302204Y-158576D01*
X303375Y-158809D01*
X309375D01*
X310546Y-158576D01*
X311538Y-157913D01*
X312201Y-156920D01*
X312434Y-155750D01*
Y-149549D01*
X312444Y-149500D01*
Y-146045D01*
X312940Y-145549D01*
X313625Y-143895D01*
Y-142105D01*
X312940Y-140451D01*
X311674Y-139185D01*
X310020Y-138500D01*
D02*
G37*
G36*
X216020Y-137500D02*
X214230D01*
X212576Y-138185D01*
X211310Y-139451D01*
X210625Y-141105D01*
Y-142895D01*
X211310Y-144549D01*
X211485Y-144724D01*
X211361Y-145988D01*
X211212Y-146087D01*
X210549Y-147079D01*
X210316Y-148250D01*
Y-155750D01*
X210549Y-156920D01*
X211212Y-157913D01*
X212204Y-158576D01*
X213375Y-158809D01*
X219375D01*
X220546Y-158576D01*
X221538Y-157913D01*
X222201Y-156920D01*
X222434Y-155750D01*
Y-148250D01*
X222201Y-147079D01*
X221538Y-146087D01*
X220546Y-145424D01*
X219944Y-145304D01*
Y-143250D01*
X219672Y-141884D01*
X219625Y-141814D01*
Y-141105D01*
X218940Y-139451D01*
X217674Y-138185D01*
X216020Y-137500D01*
D02*
G37*
G36*
X128020Y-135500D02*
X126230D01*
X124576Y-136185D01*
X123310Y-137451D01*
X122625Y-139105D01*
Y-140895D01*
X123310Y-142549D01*
X123556Y-142795D01*
Y-145191D01*
X123375D01*
X122205Y-145424D01*
X121212Y-146087D01*
X120549Y-147079D01*
X120316Y-148250D01*
Y-155750D01*
X120549Y-156920D01*
X121212Y-157913D01*
X122205Y-158576D01*
X123375Y-158809D01*
X129375D01*
X130546Y-158576D01*
X131538Y-157913D01*
X132201Y-156920D01*
X132434Y-155750D01*
Y-148250D01*
X132201Y-147079D01*
X131538Y-146087D01*
X130694Y-145523D01*
Y-142795D01*
X130940Y-142549D01*
X131625Y-140895D01*
Y-139105D01*
X130940Y-137451D01*
X129674Y-136185D01*
X128020Y-135500D01*
D02*
G37*
G36*
X379875Y-144431D02*
X378509Y-144703D01*
X377779Y-145191D01*
X376875D01*
X375704Y-145424D01*
X374712Y-146087D01*
X374049Y-147079D01*
X373816Y-148250D01*
Y-155750D01*
X374049Y-156920D01*
X374712Y-157913D01*
X375704Y-158576D01*
X376494Y-158733D01*
Y-163409D01*
X375762Y-163554D01*
X374738Y-164238D01*
X374055Y-165262D01*
X373815Y-166469D01*
Y-173781D01*
X374055Y-174988D01*
X374738Y-176012D01*
X375762Y-176695D01*
X376969Y-176936D01*
X383531D01*
X384738Y-176695D01*
X385762Y-176012D01*
X386446Y-174988D01*
X386686Y-173781D01*
Y-166469D01*
X386446Y-165262D01*
X385762Y-164238D01*
X384738Y-163554D01*
X383631Y-163334D01*
Y-158658D01*
X384045Y-158576D01*
X385038Y-157913D01*
X385701Y-156920D01*
X385934Y-155750D01*
Y-148250D01*
X385701Y-147079D01*
X385038Y-146087D01*
X384045Y-145424D01*
X382875Y-145191D01*
X381971D01*
X381241Y-144703D01*
X379875Y-144431D01*
D02*
G37*
G36*
X290063Y-144619D02*
X288697Y-144891D01*
X288247Y-145191D01*
X286875D01*
X285704Y-145424D01*
X284712Y-146087D01*
X284049Y-147079D01*
X283816Y-148250D01*
Y-155750D01*
X284049Y-156920D01*
X284712Y-157913D01*
X285704Y-158576D01*
X286494Y-158733D01*
Y-163409D01*
X285762Y-163554D01*
X284738Y-164238D01*
X284055Y-165262D01*
X283815Y-166469D01*
Y-173781D01*
X284055Y-174988D01*
X284738Y-176012D01*
X285762Y-176695D01*
X286969Y-176936D01*
X293531D01*
X294738Y-176695D01*
X295762Y-176012D01*
X296446Y-174988D01*
X296686Y-173781D01*
Y-166469D01*
X296446Y-165262D01*
X295762Y-164238D01*
X294738Y-163554D01*
X293631Y-163334D01*
Y-158658D01*
X294046Y-158576D01*
X295038Y-157913D01*
X295701Y-156920D01*
X295934Y-155750D01*
Y-148250D01*
X295701Y-147079D01*
X295038Y-146087D01*
X294046Y-145424D01*
X292875Y-145191D01*
X291878D01*
X291428Y-144891D01*
X290063Y-144619D01*
D02*
G37*
G36*
X199875Y-144431D02*
X198509Y-144703D01*
X197779Y-145191D01*
X196875D01*
X195704Y-145424D01*
X194712Y-146087D01*
X194049Y-147079D01*
X193816Y-148250D01*
Y-155750D01*
X194049Y-156920D01*
X194712Y-157913D01*
X195704Y-158576D01*
X196494Y-158733D01*
Y-163409D01*
X195762Y-163554D01*
X194738Y-164238D01*
X194055Y-165262D01*
X193815Y-166469D01*
Y-173781D01*
X194055Y-174988D01*
X194738Y-176012D01*
X195762Y-176695D01*
X196969Y-176936D01*
X203531D01*
X204738Y-176695D01*
X205762Y-176012D01*
X206446Y-174988D01*
X206686Y-173781D01*
Y-166469D01*
X206446Y-165262D01*
X205762Y-164238D01*
X204738Y-163554D01*
X203631Y-163334D01*
Y-158658D01*
X204046Y-158576D01*
X205038Y-157913D01*
X205701Y-156920D01*
X205934Y-155750D01*
Y-148250D01*
X205701Y-147079D01*
X205038Y-146087D01*
X204046Y-145424D01*
X202875Y-145191D01*
X201971D01*
X201241Y-144703D01*
X199875Y-144431D01*
D02*
G37*
G36*
X110063Y-144619D02*
X108697Y-144891D01*
X108247Y-145191D01*
X106875D01*
X105704Y-145424D01*
X104712Y-146087D01*
X104049Y-147079D01*
X103816Y-148250D01*
Y-155750D01*
X104049Y-156920D01*
X104712Y-157913D01*
X105704Y-158576D01*
X106494Y-158733D01*
Y-163409D01*
X105762Y-163554D01*
X104738Y-164238D01*
X104055Y-165262D01*
X103814Y-166469D01*
Y-173781D01*
X104055Y-174988D01*
X104738Y-176012D01*
X105762Y-176695D01*
X106969Y-176936D01*
X113531D01*
X114738Y-176695D01*
X115762Y-176012D01*
X116446Y-174988D01*
X116686Y-173781D01*
Y-166469D01*
X116446Y-165262D01*
X115762Y-164238D01*
X114738Y-163554D01*
X113631Y-163334D01*
Y-158658D01*
X114045Y-158576D01*
X115038Y-157913D01*
X115701Y-156920D01*
X115934Y-155750D01*
Y-148250D01*
X115701Y-147079D01*
X115038Y-146087D01*
X114045Y-145424D01*
X112875Y-145191D01*
X111878D01*
X111428Y-144891D01*
X110063Y-144619D01*
D02*
G37*
G36*
X26538Y-186363D02*
X24747D01*
X23094Y-187048D01*
X22142Y-187999D01*
X20051D01*
X19571Y-187280D01*
X18578Y-186617D01*
X17408Y-186385D01*
X11408D01*
X10237Y-186617D01*
X9245Y-187280D01*
X8582Y-188273D01*
X8349Y-189443D01*
Y-196943D01*
X8582Y-198114D01*
X7580Y-198901D01*
X7529Y-198850D01*
X3966Y-195287D01*
Y-189443D01*
X3734Y-188273D01*
X3071Y-187280D01*
X2078Y-186617D01*
X908Y-186385D01*
X-5092D01*
X-6263Y-186617D01*
X-7255Y-187280D01*
X-7918Y-188273D01*
X-8151Y-189443D01*
Y-196943D01*
X-7918Y-198114D01*
X-7255Y-199106D01*
X-6263Y-199769D01*
X-5092Y-200002D01*
X-749D01*
X2044Y-202794D01*
Y-249488D01*
X447Y-249916D01*
X-1947Y-251298D01*
X-3902Y-253253D01*
X-5284Y-255647D01*
X-6000Y-258318D01*
Y-261082D01*
X-5284Y-263753D01*
X-3902Y-266147D01*
X-1947Y-268102D01*
X447Y-269484D01*
X3118Y-270200D01*
X5882D01*
X8553Y-269484D01*
X10947Y-268102D01*
X12902Y-266147D01*
X14284Y-263753D01*
X15000Y-261082D01*
Y-258318D01*
X14284Y-255647D01*
X12902Y-253253D01*
X10947Y-251298D01*
X8712Y-250007D01*
Y-218221D01*
X9982Y-217565D01*
X10437Y-217869D01*
X11608Y-218102D01*
X17608D01*
X18778Y-217869D01*
X19771Y-217206D01*
X20434Y-216214D01*
X20666Y-215043D01*
Y-207543D01*
X20434Y-206373D01*
X19771Y-205380D01*
X18778Y-204717D01*
X17842Y-204531D01*
Y-199916D01*
X18578Y-199769D01*
X19571Y-199106D01*
X20234Y-198114D01*
X20466Y-196943D01*
Y-194668D01*
X23083D01*
X23094Y-194678D01*
X24747Y-195363D01*
X26538D01*
X28192Y-194678D01*
X29457Y-193412D01*
X30143Y-191758D01*
Y-189968D01*
X29457Y-188314D01*
X28192Y-187048D01*
X26538Y-186363D01*
D02*
G37*
G36*
X1366300Y-202670D02*
X1363667D01*
X1361124Y-203351D01*
X1358843Y-204668D01*
X1356982Y-206529D01*
X1355665Y-208810D01*
X1354984Y-211353D01*
Y-213986D01*
X1355665Y-216529D01*
X1356982Y-218810D01*
X1358843Y-220672D01*
X1361124Y-221988D01*
X1363667Y-222670D01*
X1366300D01*
X1368843Y-221988D01*
X1371124Y-220672D01*
X1372985Y-218810D01*
X1374302Y-216529D01*
X1374984Y-213986D01*
Y-211353D01*
X1374302Y-208810D01*
X1372985Y-206529D01*
X1371124Y-204668D01*
X1368843Y-203351D01*
X1366300Y-202670D01*
D02*
G37*
G36*
X1321300D02*
X1318667D01*
X1316124Y-203351D01*
X1313843Y-204668D01*
X1311982Y-206529D01*
X1310665Y-208810D01*
X1309984Y-211353D01*
Y-213986D01*
X1310665Y-216529D01*
X1311982Y-218810D01*
X1313843Y-220672D01*
X1316124Y-221988D01*
X1318667Y-222670D01*
X1321300D01*
X1323843Y-221988D01*
X1326124Y-220672D01*
X1327985Y-218810D01*
X1329302Y-216529D01*
X1329983Y-213986D01*
Y-211353D01*
X1329302Y-208810D01*
X1327985Y-206529D01*
X1326124Y-204668D01*
X1323843Y-203351D01*
X1321300Y-202670D01*
D02*
G37*
G36*
X920050Y-225191D02*
X914050D01*
X912879Y-225424D01*
X911887Y-226087D01*
X911224Y-227080D01*
X910991Y-228250D01*
Y-235750D01*
X911224Y-236921D01*
X911887Y-237913D01*
X912879Y-238576D01*
X914050Y-238809D01*
X920050D01*
X921220Y-238576D01*
X922213Y-237913D01*
X922876Y-236921D01*
X923109Y-235750D01*
Y-234444D01*
X930293D01*
X931218Y-235369D01*
X933055Y-236130D01*
X935045D01*
X936882Y-235369D01*
X938289Y-233963D01*
X939050Y-232125D01*
Y-230136D01*
X938289Y-228298D01*
X936882Y-226892D01*
X935045Y-226130D01*
X933055D01*
X931218Y-226892D01*
X930293Y-227817D01*
X923023D01*
X922876Y-227080D01*
X922213Y-226087D01*
X921220Y-225424D01*
X920050Y-225191D01*
D02*
G37*
G36*
X1105800Y-209436D02*
X1093800D01*
X1092532Y-209689D01*
X1091457Y-210407D01*
X1090739Y-211482D01*
X1090486Y-212750D01*
Y-220250D01*
X1090739Y-221518D01*
X1091457Y-222593D01*
X1092532Y-223311D01*
X1093800Y-223564D01*
X1094396D01*
X1095382Y-224834D01*
X1095212Y-225688D01*
X1095357Y-226417D01*
X1094315Y-227687D01*
X1094030D01*
X1092770Y-227937D01*
X1091701Y-228651D01*
X1090987Y-229720D01*
X1090737Y-230980D01*
Y-238770D01*
X1090987Y-240030D01*
X1091701Y-241099D01*
X1092770Y-241813D01*
X1094030Y-242063D01*
X1105570D01*
X1106830Y-241813D01*
X1107899Y-241099D01*
X1108613Y-240030D01*
X1108863Y-238770D01*
Y-230980D01*
X1108839Y-230858D01*
X1109881Y-229588D01*
X1113800D01*
X1114243Y-229500D01*
X1114695D01*
X1115113Y-229327D01*
X1115556Y-229239D01*
X1115932Y-228988D01*
X1116349Y-228815D01*
X1116669Y-228495D01*
X1117044Y-228244D01*
X1117295Y-227868D01*
X1117615Y-227549D01*
X1117788Y-227132D01*
X1118039Y-226756D01*
X1118127Y-226313D01*
X1118300Y-225895D01*
Y-225443D01*
X1118388Y-225000D01*
X1118300Y-224557D01*
Y-224105D01*
X1118127Y-223687D01*
X1118039Y-223244D01*
X1117788Y-222868D01*
X1117615Y-222451D01*
X1117295Y-222131D01*
X1117044Y-221756D01*
X1116669Y-221505D01*
X1116349Y-221185D01*
X1115932Y-221012D01*
X1115556Y-220761D01*
X1115113Y-220673D01*
X1114695Y-220500D01*
X1114243D01*
X1113800Y-220412D01*
X1109247D01*
X1109114Y-220250D01*
Y-212750D01*
X1108861Y-211482D01*
X1108143Y-210407D01*
X1107068Y-209689D01*
X1105800Y-209436D01*
D02*
G37*
G36*
X218020Y-223500D02*
X216230D01*
X214576Y-224185D01*
X213310Y-225451D01*
X212625Y-227105D01*
Y-228895D01*
X212798Y-229313D01*
X212204Y-230424D01*
X211212Y-231087D01*
X210549Y-232079D01*
X210316Y-233250D01*
Y-240750D01*
X210549Y-241921D01*
X211212Y-242913D01*
X212204Y-243576D01*
X213375Y-243809D01*
X219375D01*
X220546Y-243576D01*
X221538Y-242913D01*
X222201Y-241921D01*
X222434Y-240750D01*
Y-233250D01*
X222201Y-232079D01*
X221538Y-231087D01*
X220954Y-230697D01*
X220940Y-230549D01*
X221625Y-228895D01*
Y-227105D01*
X220940Y-225451D01*
X219674Y-224185D01*
X218020Y-223500D01*
D02*
G37*
G36*
X130020D02*
X128230D01*
X126576Y-224185D01*
X125310Y-225451D01*
X124625Y-227105D01*
Y-227994D01*
X123852Y-228768D01*
X123078Y-229925D01*
X123011Y-230264D01*
X122205Y-230424D01*
X121212Y-231087D01*
X120549Y-232079D01*
X120316Y-233250D01*
Y-240750D01*
X120549Y-241921D01*
X121212Y-242913D01*
X122205Y-243576D01*
X123375Y-243809D01*
X129375D01*
X130546Y-243576D01*
X131538Y-242913D01*
X132201Y-241921D01*
X132434Y-240750D01*
Y-233250D01*
X132201Y-232079D01*
X131884Y-231605D01*
X132940Y-230549D01*
X133625Y-228895D01*
Y-227105D01*
X132940Y-225451D01*
X131674Y-224185D01*
X130020Y-223500D01*
D02*
G37*
G36*
X920050Y-243191D02*
X914050D01*
X912879Y-243424D01*
X911887Y-244087D01*
X911224Y-245079D01*
X910991Y-246250D01*
Y-253750D01*
X911224Y-254921D01*
X911887Y-255913D01*
X912879Y-256576D01*
X914050Y-256809D01*
X920050D01*
X921220Y-256576D01*
X922213Y-255913D01*
X922876Y-254921D01*
X923109Y-253750D01*
Y-253044D01*
X938208D01*
X939133Y-253969D01*
X940971Y-254730D01*
X942960D01*
X944798Y-253969D01*
X946204Y-252563D01*
X946965Y-250725D01*
Y-248736D01*
X946204Y-246898D01*
X944798Y-245492D01*
X942960Y-244730D01*
X940971D01*
X939133Y-245492D01*
X938208Y-246417D01*
X923109D01*
Y-246250D01*
X922876Y-245079D01*
X922213Y-244087D01*
X921220Y-243424D01*
X920050Y-243191D01*
D02*
G37*
G36*
X379875Y-229666D02*
X378599Y-229920D01*
X378193Y-230191D01*
X376875D01*
X375704Y-230424D01*
X374712Y-231087D01*
X374049Y-232079D01*
X373816Y-233250D01*
Y-240750D01*
X374049Y-241921D01*
X374712Y-242913D01*
X375704Y-243576D01*
X376729Y-243780D01*
Y-248612D01*
X375762Y-248804D01*
X374738Y-249488D01*
X374054Y-250512D01*
X373814Y-251719D01*
Y-259031D01*
X374054Y-260238D01*
X374738Y-261262D01*
X375762Y-261945D01*
X376969Y-262186D01*
X383531D01*
X384738Y-261945D01*
X385762Y-261262D01*
X386446Y-260238D01*
X386686Y-259031D01*
Y-251719D01*
X386446Y-250512D01*
X385762Y-249488D01*
X384738Y-248804D01*
X383531Y-248564D01*
X383397D01*
Y-243705D01*
X384046Y-243576D01*
X385038Y-242913D01*
X385701Y-241921D01*
X385934Y-240750D01*
Y-233250D01*
X385701Y-232079D01*
X385038Y-231087D01*
X384046Y-230424D01*
X382875Y-230191D01*
X381557D01*
X381151Y-229920D01*
X379875Y-229666D01*
D02*
G37*
G36*
X289875Y-228431D02*
X288509Y-228703D01*
X287352Y-229477D01*
X286874Y-230191D01*
X285704Y-230424D01*
X284712Y-231087D01*
X284049Y-232079D01*
X283816Y-233250D01*
Y-240750D01*
X284049Y-241921D01*
X284712Y-242913D01*
X285704Y-243576D01*
X286494Y-243733D01*
Y-248659D01*
X285762Y-248804D01*
X284738Y-249488D01*
X284055Y-250512D01*
X283814Y-251719D01*
Y-259031D01*
X284055Y-260238D01*
X284738Y-261262D01*
X285762Y-261945D01*
X286969Y-262186D01*
X293531D01*
X294738Y-261945D01*
X295762Y-261262D01*
X296446Y-260238D01*
X296686Y-259031D01*
Y-251719D01*
X296446Y-250512D01*
X295762Y-249488D01*
X294738Y-248804D01*
X293631Y-248584D01*
Y-243658D01*
X294046Y-243576D01*
X295038Y-242913D01*
X295701Y-241921D01*
X295934Y-240750D01*
Y-233250D01*
X295701Y-232079D01*
X295038Y-231087D01*
X294046Y-230424D01*
X292948Y-230206D01*
X292586Y-229664D01*
X292398Y-229477D01*
X291241Y-228703D01*
X289875Y-228431D01*
D02*
G37*
G36*
X199875Y-229431D02*
X198509Y-229703D01*
X197779Y-230191D01*
X196875D01*
X195704Y-230424D01*
X194712Y-231087D01*
X194049Y-232079D01*
X193816Y-233250D01*
Y-240750D01*
X194049Y-241921D01*
X194712Y-242913D01*
X195704Y-243576D01*
X196494Y-243733D01*
Y-248659D01*
X195762Y-248804D01*
X194738Y-249488D01*
X194055Y-250512D01*
X193814Y-251719D01*
Y-259031D01*
X194055Y-260238D01*
X194738Y-261262D01*
X195762Y-261945D01*
X196969Y-262186D01*
X203531D01*
X204738Y-261945D01*
X205762Y-261262D01*
X206446Y-260238D01*
X206686Y-259031D01*
Y-251719D01*
X206446Y-250512D01*
X205762Y-249488D01*
X204738Y-248804D01*
X203631Y-248584D01*
Y-243658D01*
X204046Y-243576D01*
X205038Y-242913D01*
X205701Y-241921D01*
X205934Y-240750D01*
Y-233250D01*
X205701Y-232079D01*
X205038Y-231087D01*
X204046Y-230424D01*
X202875Y-230191D01*
X201971D01*
X201241Y-229703D01*
X199875Y-229431D01*
D02*
G37*
G36*
X109875D02*
X108509Y-229703D01*
X107779Y-230191D01*
X106875D01*
X105704Y-230424D01*
X104712Y-231087D01*
X104049Y-232079D01*
X103816Y-233250D01*
Y-240750D01*
X104049Y-241921D01*
X104712Y-242913D01*
X105704Y-243576D01*
X106494Y-243733D01*
Y-248659D01*
X105762Y-248804D01*
X104738Y-249488D01*
X104055Y-250512D01*
X103814Y-251719D01*
Y-259031D01*
X104055Y-260238D01*
X104738Y-261262D01*
X105762Y-261945D01*
X106969Y-262186D01*
X113531D01*
X114738Y-261945D01*
X115762Y-261262D01*
X116446Y-260238D01*
X116686Y-259031D01*
Y-251719D01*
X116446Y-250512D01*
X115762Y-249488D01*
X114738Y-248804D01*
X113631Y-248584D01*
Y-243658D01*
X114046Y-243576D01*
X115038Y-242913D01*
X115701Y-241921D01*
X115934Y-240750D01*
Y-233250D01*
X115701Y-232079D01*
X115038Y-231087D01*
X114046Y-230424D01*
X112875Y-230191D01*
X111971D01*
X111241Y-229703D01*
X109875Y-229431D01*
D02*
G37*
G36*
X1356695Y-223500D02*
X1354905D01*
X1353251Y-224185D01*
X1351985Y-225451D01*
X1351300Y-227105D01*
Y-228895D01*
X1351985Y-230549D01*
X1353251Y-231815D01*
X1354905Y-232500D01*
X1356695D01*
X1358349Y-231815D01*
X1358595Y-231569D01*
X1364842D01*
X1386349Y-253076D01*
X1386352Y-253079D01*
X1386576Y-253419D01*
X1386796Y-253856D01*
X1387003Y-254396D01*
X1387189Y-255038D01*
X1387346Y-255782D01*
X1387468Y-256602D01*
X1387610Y-258627D01*
X1387619Y-259768D01*
X1387657Y-259955D01*
Y-261220D01*
X1388373Y-263890D01*
X1389755Y-266284D01*
X1391710Y-268239D01*
X1394105Y-269622D01*
X1396775Y-270337D01*
X1399540D01*
X1402210Y-269622D01*
X1404605Y-268239D01*
X1406559Y-266284D01*
X1407942Y-263890D01*
X1408657Y-261220D01*
Y-258455D01*
X1407942Y-255784D01*
X1406559Y-253390D01*
X1404605Y-251435D01*
X1402210Y-250053D01*
X1399540Y-249337D01*
X1398295D01*
X1398128Y-249299D01*
X1395867Y-249238D01*
X1394946Y-249151D01*
X1394102Y-249026D01*
X1393358Y-248868D01*
X1392716Y-248683D01*
X1392177Y-248476D01*
X1391740Y-248256D01*
X1391399Y-248032D01*
X1391396Y-248029D01*
X1368844Y-225477D01*
X1367686Y-224703D01*
X1366320Y-224431D01*
X1358595D01*
X1358349Y-224185D01*
X1356695Y-223500D01*
D02*
G37*
G36*
X607625Y-257106D02*
X568145D01*
X566873Y-257359D01*
X565794Y-258079D01*
X565074Y-259158D01*
X564821Y-260430D01*
Y-271910D01*
X565074Y-273182D01*
X565794Y-274260D01*
X566873Y-274980D01*
X568145Y-275233D01*
X607625D01*
X608897Y-274980D01*
X609975Y-274260D01*
X610696Y-273182D01*
X610949Y-271910D01*
Y-269826D01*
X612219Y-269774D01*
X612752Y-270308D01*
X614590Y-271070D01*
X616579D01*
X618417Y-270308D01*
X619824Y-268902D01*
X620585Y-267064D01*
Y-265075D01*
X619824Y-263237D01*
X618417Y-261831D01*
X616579Y-261070D01*
X614590D01*
X612752Y-261831D01*
X612219Y-262365D01*
X610949Y-262030D01*
Y-260430D01*
X610696Y-259158D01*
X609975Y-258079D01*
X608897Y-257359D01*
X607625Y-257106D01*
D02*
G37*
G36*
X903550Y-261191D02*
X897550D01*
X896379Y-261424D01*
X895387Y-262087D01*
X894724Y-263079D01*
X894491Y-264250D01*
Y-264686D01*
X887250D01*
X885982Y-264939D01*
X885591Y-265200D01*
X884655D01*
X883001Y-265885D01*
X881735Y-267151D01*
X881050Y-268805D01*
Y-270595D01*
X881735Y-272249D01*
X883001Y-273515D01*
X884655Y-274200D01*
X886445D01*
X888099Y-273515D01*
X889365Y-272249D01*
X889752Y-271314D01*
X894491D01*
Y-271750D01*
X894724Y-272920D01*
X895387Y-273913D01*
X896379Y-274576D01*
X897550Y-274809D01*
X903550D01*
X904721Y-274576D01*
X905713Y-273913D01*
X906376Y-272920D01*
X906609Y-271750D01*
Y-264250D01*
X906376Y-263079D01*
X905713Y-262087D01*
X904721Y-261424D01*
X903550Y-261191D01*
D02*
G37*
G36*
X1351925Y-236189D02*
X1345175D01*
X1343956Y-236431D01*
X1342922Y-237122D01*
X1342231Y-238156D01*
X1341989Y-239375D01*
Y-246625D01*
X1342231Y-247844D01*
X1342922Y-248878D01*
X1343956Y-249569D01*
X1345175Y-249811D01*
X1350065D01*
X1358132Y-257879D01*
X1356982Y-259029D01*
X1355665Y-261310D01*
X1354984Y-263853D01*
Y-266486D01*
X1355665Y-269029D01*
X1356982Y-271310D01*
X1358843Y-273172D01*
X1361124Y-274488D01*
X1363667Y-275170D01*
X1366300D01*
X1368843Y-274488D01*
X1371124Y-273172D01*
X1372985Y-271310D01*
X1374302Y-269029D01*
X1374984Y-266486D01*
Y-263853D01*
X1374302Y-261310D01*
X1372985Y-259029D01*
X1371124Y-257168D01*
X1368843Y-255851D01*
X1366300Y-255170D01*
X1365351D01*
X1365019Y-254673D01*
X1355111Y-244764D01*
Y-239375D01*
X1354869Y-238156D01*
X1354178Y-237122D01*
X1353144Y-236431D01*
X1351925Y-236189D01*
D02*
G37*
G36*
X1336425D02*
X1329675D01*
X1328456Y-236431D01*
X1327422Y-237122D01*
X1326731Y-238156D01*
X1326489Y-239375D01*
Y-245096D01*
X1320201Y-251383D01*
X1319479Y-252465D01*
X1319225Y-253741D01*
Y-254023D01*
X1319186Y-254212D01*
X1319124Y-254378D01*
X1319042Y-254524D01*
X1318927Y-254670D01*
X1318760Y-254826D01*
X1318525Y-254993D01*
X1318208Y-255165D01*
X1317805Y-255334D01*
X1317238Y-255514D01*
X1317104Y-255588D01*
X1317021Y-255611D01*
X1316955Y-255628D01*
X1316955Y-255628D01*
X1316124Y-255851D01*
X1313843Y-257168D01*
X1311982Y-259029D01*
X1310665Y-261310D01*
X1309984Y-263853D01*
Y-266486D01*
X1310665Y-269029D01*
X1311982Y-271310D01*
X1313843Y-273172D01*
X1316124Y-274488D01*
X1318667Y-275170D01*
X1321300D01*
X1323843Y-274488D01*
X1326124Y-273172D01*
X1327985Y-271310D01*
X1329302Y-269029D01*
X1329983Y-266486D01*
Y-263853D01*
X1329302Y-261310D01*
X1327985Y-259029D01*
X1327793Y-258837D01*
X1327574Y-258533D01*
X1327200Y-257951D01*
X1326874Y-257382D01*
X1326598Y-256826D01*
X1326369Y-256283D01*
X1326185Y-255753D01*
X1326045Y-255236D01*
X1326002Y-255013D01*
X1331204Y-249811D01*
X1336425D01*
X1337644Y-249569D01*
X1338678Y-248878D01*
X1339369Y-247844D01*
X1339611Y-246625D01*
Y-239375D01*
X1339369Y-238156D01*
X1338678Y-237122D01*
X1337644Y-236431D01*
X1336425Y-236189D01*
D02*
G37*
G36*
X1399540Y-274737D02*
X1396775D01*
X1394105Y-275453D01*
X1391710Y-276835D01*
X1390830Y-277715D01*
X1390685Y-277806D01*
X1389043Y-279362D01*
X1388331Y-279951D01*
X1387646Y-280460D01*
X1387008Y-280875D01*
X1386422Y-281197D01*
X1385895Y-281432D01*
X1385430Y-281586D01*
X1385031Y-281668D01*
X1385027Y-281669D01*
X1352705D01*
X1352615Y-281451D01*
X1351349Y-280185D01*
X1349695Y-279500D01*
X1347905D01*
X1346251Y-280185D01*
X1344985Y-281451D01*
X1344300Y-283105D01*
Y-284895D01*
X1344985Y-286549D01*
X1346251Y-287815D01*
X1347905Y-288500D01*
X1348620D01*
X1348672Y-288534D01*
X1350037Y-288806D01*
X1385027D01*
X1385031Y-288806D01*
X1385430Y-288888D01*
X1385895Y-289042D01*
X1386422Y-289277D01*
X1387008Y-289600D01*
X1387646Y-290014D01*
X1388311Y-290508D01*
X1389843Y-291840D01*
X1390657Y-292640D01*
X1390816Y-292745D01*
X1391710Y-293639D01*
X1394105Y-295022D01*
X1396775Y-295737D01*
X1399540D01*
X1402210Y-295022D01*
X1404605Y-293639D01*
X1406559Y-291684D01*
X1407942Y-289290D01*
X1408657Y-286619D01*
Y-283855D01*
X1407942Y-281184D01*
X1406559Y-278790D01*
X1404605Y-276835D01*
X1402210Y-275453D01*
X1399540Y-274737D01*
D02*
G37*
G36*
X5954Y-274060D02*
X5770D01*
Y-283830D01*
X15540D01*
Y-283647D01*
X14788Y-280839D01*
X13334Y-278321D01*
X11279Y-276266D01*
X8761Y-274812D01*
X5954Y-274060D01*
D02*
G37*
G36*
X3230D02*
X3047D01*
X239Y-274812D01*
X-2279Y-276266D01*
X-4334Y-278321D01*
X-5788Y-280839D01*
X-6540Y-283647D01*
Y-283830D01*
X3230D01*
Y-274060D01*
D02*
G37*
G36*
X661925Y-242189D02*
X655175D01*
X653956Y-242431D01*
X652922Y-243122D01*
X652231Y-244156D01*
X651989Y-245375D01*
Y-252625D01*
X652106Y-253213D01*
X644299Y-261020D01*
X634885D01*
Y-279020D01*
X649615D01*
X650885Y-279020D01*
Y-279020D01*
X650885D01*
Y-279020D01*
X666885D01*
Y-262715D01*
X668058Y-262229D01*
X682112Y-276283D01*
X681626Y-277456D01*
X678885D01*
X677617Y-277708D01*
X676542Y-278426D01*
X668058Y-286910D01*
X666885Y-286424D01*
Y-283020D01*
X652155D01*
X650885Y-283020D01*
X649615Y-283020D01*
X634885D01*
Y-301020D01*
X649615D01*
X650885Y-301020D01*
X652155Y-301020D01*
X655321D01*
Y-306189D01*
X655175D01*
X653956Y-306431D01*
X652922Y-307122D01*
X652231Y-308156D01*
X651989Y-309375D01*
Y-316625D01*
X652231Y-317844D01*
X652922Y-318878D01*
X653956Y-319569D01*
X655175Y-319811D01*
X661925D01*
X663144Y-319569D01*
X664178Y-318878D01*
X664869Y-317844D01*
X665111Y-316625D01*
Y-309375D01*
X664869Y-308156D01*
X664178Y-307122D01*
X663144Y-306431D01*
X661948Y-306193D01*
Y-301020D01*
X666885D01*
Y-295333D01*
X667635D01*
X668903Y-295081D01*
X669978Y-294363D01*
X680257Y-284083D01*
X683865D01*
X684351Y-285257D01*
X674811Y-294796D01*
X674038Y-295954D01*
X673766Y-297320D01*
Y-324189D01*
X673175D01*
X671956Y-324431D01*
X670922Y-325122D01*
X670231Y-326156D01*
X669989Y-327375D01*
Y-334625D01*
X670231Y-335844D01*
X670922Y-336878D01*
X671956Y-337569D01*
X673175Y-337811D01*
X679925D01*
X681144Y-337569D01*
X682178Y-336878D01*
X682869Y-335844D01*
X683111Y-334625D01*
Y-333138D01*
X694891D01*
X703266Y-341513D01*
Y-346030D01*
X701835D01*
X701055Y-346186D01*
X700393Y-346628D01*
X699951Y-347289D01*
X699796Y-348070D01*
Y-363070D01*
X699951Y-363850D01*
X700393Y-364511D01*
X701055Y-364953D01*
X701835Y-365109D01*
X703266D01*
Y-373189D01*
X702675D01*
X701456Y-373431D01*
X700422Y-374122D01*
X699731Y-375156D01*
X699489Y-376375D01*
Y-383625D01*
X699731Y-384844D01*
X700350Y-385770D01*
X700402Y-386029D01*
X700258Y-387133D01*
X700187Y-387249D01*
X698985Y-388451D01*
X698300Y-390105D01*
Y-391895D01*
X698985Y-393549D01*
X700251Y-394815D01*
X701905Y-395500D01*
X703695D01*
X705349Y-394815D01*
X706615Y-393549D01*
X707300Y-391895D01*
Y-391547D01*
X708573Y-390273D01*
X709347Y-389116D01*
X709619Y-387750D01*
Y-386773D01*
X710644Y-386569D01*
X711678Y-385878D01*
X712369Y-384844D01*
X712611Y-383625D01*
Y-376375D01*
X712369Y-375156D01*
X711678Y-374122D01*
X710644Y-373431D01*
X710403Y-373383D01*
Y-365109D01*
X711835D01*
X712033Y-365069D01*
X712235Y-365069D01*
X712419Y-364992D01*
X712615Y-364953D01*
X712783Y-364841D01*
X712970Y-364764D01*
X713704Y-364766D01*
X713888Y-364842D01*
X714054Y-364953D01*
X714252Y-364993D01*
X714439Y-365070D01*
X714639Y-365070D01*
X714835Y-365109D01*
X726335D01*
X727115Y-364953D01*
X727777Y-364511D01*
X728219Y-363850D01*
X728374Y-363070D01*
Y-351833D01*
X729043Y-351254D01*
X730415Y-351549D01*
X731681Y-352815D01*
X733335Y-353500D01*
X734790D01*
X735501Y-354254D01*
X735693Y-354640D01*
X735500Y-355105D01*
Y-356895D01*
X736185Y-358549D01*
X737451Y-359815D01*
X739105Y-360500D01*
X740895D01*
X742549Y-359815D01*
X743815Y-358549D01*
X744500Y-356895D01*
Y-356161D01*
X746792Y-353869D01*
X747515Y-352787D01*
X747738Y-351664D01*
X748494Y-351211D01*
X748910Y-351039D01*
X750027Y-352156D01*
Y-353541D01*
X750712Y-355195D01*
X751978Y-356461D01*
X753632Y-357146D01*
X755422D01*
X757076Y-356461D01*
X758342Y-355195D01*
X759027Y-353541D01*
Y-351751D01*
X758654Y-350852D01*
X759486Y-349582D01*
X759527D01*
X760074Y-349355D01*
X760774Y-349776D01*
X761231Y-350251D01*
Y-365265D01*
X761485Y-366541D01*
X762207Y-367622D01*
X765489Y-370904D01*
Y-376625D01*
X765731Y-377844D01*
X766422Y-378878D01*
X767456Y-379569D01*
X768401Y-379757D01*
Y-384827D01*
X767564Y-384994D01*
X766572Y-385657D01*
X765909Y-386649D01*
X765676Y-387820D01*
Y-395320D01*
X765909Y-396490D01*
X766572Y-397482D01*
X767564Y-398145D01*
X768735Y-398378D01*
X773829D01*
X800808Y-425358D01*
X801889Y-426080D01*
X803165Y-426334D01*
X843770D01*
X844251Y-426815D01*
X845905Y-427500D01*
X847695D01*
X849349Y-426815D01*
X849560Y-426604D01*
X860340D01*
X860352Y-426633D01*
X862022Y-428303D01*
X864204Y-429207D01*
X866566D01*
X868748Y-428303D01*
X870418Y-426633D01*
X871048Y-425113D01*
X872422D01*
X873052Y-426633D01*
X874722Y-428303D01*
X876242Y-428932D01*
Y-430307D01*
X874722Y-430937D01*
X873052Y-432607D01*
X872148Y-434789D01*
Y-437150D01*
X873052Y-439333D01*
X874722Y-441003D01*
X876904Y-441907D01*
X877163D01*
X877530Y-442857D01*
X877555Y-443177D01*
X876331Y-444400D01*
X875416Y-445986D01*
X874942Y-447754D01*
Y-449585D01*
X875416Y-451353D01*
X876331Y-452939D01*
X877626Y-454233D01*
X879211Y-455149D01*
X880979Y-455623D01*
X882810D01*
X884579Y-455149D01*
X886164Y-454233D01*
X887459Y-452939D01*
X888374Y-451353D01*
X888848Y-449585D01*
Y-447754D01*
X888374Y-445986D01*
X887459Y-444400D01*
X886164Y-443106D01*
X884579Y-442190D01*
X882810Y-441717D01*
X882530D01*
X882004Y-440447D01*
X883118Y-439333D01*
X884022Y-437150D01*
Y-434789D01*
X883118Y-432607D01*
X881448Y-430937D01*
X879928Y-430307D01*
Y-428932D01*
X881448Y-428303D01*
X882912Y-426838D01*
X888939D01*
X889186Y-427085D01*
X890840Y-427770D01*
X892630D01*
X894284Y-427085D01*
X895550Y-425819D01*
X896235Y-424165D01*
Y-422374D01*
X895550Y-420720D01*
X894284Y-419455D01*
X892630Y-418770D01*
X890840D01*
X889186Y-419455D01*
X888939Y-419701D01*
X882912D01*
X881448Y-418237D01*
X879928Y-417607D01*
Y-416232D01*
X881448Y-415603D01*
X882932Y-414119D01*
X894555D01*
X895251Y-414815D01*
X896905Y-415500D01*
X898695D01*
X900349Y-414815D01*
X901615Y-413549D01*
X902300Y-411895D01*
Y-410105D01*
X901615Y-408451D01*
X900349Y-407185D01*
X898695Y-406500D01*
X896905D01*
X895251Y-407185D01*
X894985Y-407451D01*
X883219D01*
X883118Y-407207D01*
X881448Y-405536D01*
X879266Y-404633D01*
X876904D01*
X875873Y-405060D01*
X875358Y-405273D01*
X874795Y-404132D01*
X875304Y-403838D01*
X876004Y-403433D01*
X877299Y-402139D01*
X878214Y-400553D01*
X878688Y-398785D01*
Y-396954D01*
X878214Y-395186D01*
X877299Y-393600D01*
X876004Y-392306D01*
X874419Y-391390D01*
X872650Y-390917D01*
X870819D01*
X869051Y-391390D01*
X867466Y-392306D01*
X866171Y-393600D01*
X865256Y-395186D01*
X864782Y-396954D01*
Y-398785D01*
X865256Y-400553D01*
X866171Y-402139D01*
X867466Y-403433D01*
X868166Y-403838D01*
X868675Y-404132D01*
X868112Y-405273D01*
X867597Y-405060D01*
X866566Y-404633D01*
X864204D01*
X862022Y-405536D01*
X860557Y-407001D01*
X837595D01*
X837349Y-406755D01*
X835695Y-406070D01*
X833905D01*
X832251Y-406755D01*
X832005Y-407001D01*
X809563D01*
X794294Y-391732D01*
Y-387820D01*
X794061Y-386649D01*
X793398Y-385657D01*
X792405Y-384994D01*
X791235Y-384761D01*
X785235D01*
X784064Y-384994D01*
X783072Y-385657D01*
X782409Y-386649D01*
X782176Y-387820D01*
Y-395320D01*
X782221Y-395544D01*
X781050Y-396170D01*
X777794Y-392913D01*
Y-387820D01*
X777561Y-386649D01*
X776898Y-385657D01*
X775905Y-384994D01*
X775069Y-384827D01*
Y-379811D01*
X775425D01*
X776644Y-379569D01*
X777678Y-378878D01*
X778369Y-377844D01*
X778611Y-376625D01*
Y-369375D01*
X778369Y-368156D01*
X777678Y-367122D01*
X776644Y-366431D01*
X775425Y-366189D01*
X770204D01*
X768274Y-364259D01*
X768330Y-362792D01*
X768835Y-362378D01*
X774835D01*
X776005Y-362146D01*
X776998Y-361483D01*
X777661Y-360490D01*
X777894Y-359320D01*
Y-351820D01*
X777661Y-350649D01*
X776998Y-349657D01*
X776005Y-348994D01*
X775148Y-348823D01*
Y-342394D01*
X774896Y-341126D01*
X774870Y-341086D01*
X775548Y-339816D01*
X775560D01*
X776487Y-339632D01*
X776935Y-339332D01*
X777383Y-339632D01*
X778310Y-339816D01*
X780560D01*
X781487Y-339632D01*
X781935Y-339332D01*
X782383Y-339632D01*
X783310Y-339816D01*
X785560D01*
X786487Y-339632D01*
X786935Y-339332D01*
X787383Y-339632D01*
X788310Y-339816D01*
X790560D01*
X791487Y-339632D01*
X791935Y-339332D01*
X792383Y-339632D01*
X793310Y-339816D01*
X795560D01*
X795866Y-340068D01*
Y-340635D01*
X796138Y-342000D01*
X796911Y-343158D01*
X800846Y-347093D01*
X802004Y-347867D01*
X803370Y-348138D01*
X886005D01*
X886251Y-348385D01*
X887905Y-349070D01*
X889695D01*
X891349Y-348385D01*
X892615Y-347119D01*
X893300Y-345465D01*
Y-343675D01*
X892615Y-342021D01*
X891349Y-340755D01*
X889695Y-340070D01*
X887905D01*
X886251Y-340755D01*
X886005Y-341001D01*
X804848D01*
X803003Y-339157D01*
Y-330020D01*
X802981Y-329909D01*
Y-322645D01*
X802797Y-321718D01*
X802272Y-320932D01*
X801487Y-320407D01*
X800560Y-320223D01*
X798310D01*
X797383Y-320407D01*
X796935Y-320707D01*
X796487Y-320407D01*
X795560Y-320223D01*
X793310D01*
X792383Y-320407D01*
X791935Y-320707D01*
X791487Y-320407D01*
X790560Y-320223D01*
X788310D01*
X787383Y-320407D01*
X786935Y-320707D01*
X786487Y-320407D01*
X785560Y-320223D01*
X783310D01*
X782383Y-320407D01*
X781935Y-320707D01*
X781487Y-320407D01*
X780560Y-320223D01*
X778310D01*
X777383Y-320407D01*
X776935Y-320707D01*
X776487Y-320407D01*
X775560Y-320223D01*
X773310D01*
X772383Y-320407D01*
X771935Y-320707D01*
X771487Y-320407D01*
X770560Y-320223D01*
X768310D01*
X767383Y-320407D01*
X766935Y-320707D01*
X766487Y-320407D01*
X765560Y-320223D01*
X763310D01*
X762383Y-320407D01*
X761935Y-320707D01*
X761487Y-320407D01*
X760560Y-320223D01*
X758310D01*
X757383Y-320407D01*
X756935Y-320707D01*
X756487Y-320407D01*
X755560Y-320223D01*
X753310D01*
X752383Y-320407D01*
X751935Y-320707D01*
X751487Y-320407D01*
X750560Y-320223D01*
X748310D01*
X747383Y-320407D01*
X746935Y-320707D01*
X746487Y-320407D01*
X745560Y-320223D01*
X743310D01*
X742383Y-320407D01*
X741935Y-320707D01*
X741487Y-320407D01*
X740560Y-320223D01*
X738310D01*
X737383Y-320407D01*
X736935Y-320707D01*
X736487Y-320407D01*
X735560Y-320223D01*
X733310D01*
X732921Y-319006D01*
X732732Y-318054D01*
X731958Y-316896D01*
X730108Y-315046D01*
X728951Y-314273D01*
X727585Y-314001D01*
X715536D01*
X714822Y-312861D01*
X714815Y-312731D01*
X714981Y-311895D01*
Y-309645D01*
X714797Y-308718D01*
X714498Y-308270D01*
X714797Y-307821D01*
X714981Y-306895D01*
Y-304645D01*
X714797Y-303718D01*
X714497Y-303270D01*
X714797Y-302821D01*
X714981Y-301895D01*
Y-299645D01*
X714797Y-298718D01*
X714498Y-298270D01*
X714797Y-297821D01*
X714981Y-296895D01*
Y-294645D01*
X714797Y-293718D01*
X714497Y-293270D01*
X714797Y-292821D01*
X714981Y-291895D01*
Y-289645D01*
X714797Y-288718D01*
X714498Y-288270D01*
X714797Y-287821D01*
X714981Y-286895D01*
Y-284645D01*
X714797Y-283718D01*
X714498Y-283270D01*
X714797Y-282821D01*
X714981Y-281895D01*
Y-279645D01*
X714797Y-278718D01*
X714497Y-278270D01*
X714797Y-277821D01*
X714981Y-276895D01*
Y-274645D01*
X714797Y-273718D01*
X714272Y-272932D01*
X713486Y-272407D01*
X712560Y-272223D01*
X697810D01*
X696883Y-272407D01*
X696811Y-272456D01*
X687657D01*
X665111Y-249910D01*
Y-245375D01*
X664869Y-244156D01*
X664178Y-243122D01*
X663144Y-242431D01*
X661925Y-242189D01*
D02*
G37*
G36*
X15540Y-286370D02*
X5770D01*
Y-296140D01*
X5954D01*
X8761Y-295388D01*
X11279Y-293934D01*
X13334Y-291879D01*
X14788Y-289361D01*
X15540Y-286553D01*
Y-286370D01*
D02*
G37*
G36*
X3230D02*
X-6540D01*
Y-286553D01*
X-5788Y-289361D01*
X-4334Y-291879D01*
X-2279Y-293934D01*
X239Y-295388D01*
X3047Y-296140D01*
X3230D01*
Y-286370D01*
D02*
G37*
G36*
X1118800Y-278412D02*
X1118357Y-278500D01*
X1117905D01*
X1117487Y-278673D01*
X1117044Y-278761D01*
X1116668Y-279012D01*
X1116251Y-279185D01*
X1115931Y-279505D01*
X1115556Y-279756D01*
X1111150Y-284162D01*
X1104550D01*
X1104402Y-284191D01*
X1100050D01*
X1098879Y-284424D01*
X1097887Y-285087D01*
X1097224Y-286079D01*
X1096991Y-287250D01*
Y-294750D01*
X1097224Y-295921D01*
X1097887Y-296913D01*
X1098879Y-297576D01*
X1100050Y-297809D01*
X1106050D01*
X1107221Y-297576D01*
X1108213Y-296913D01*
X1108876Y-295921D01*
X1109109Y-294750D01*
Y-293338D01*
X1113050D01*
X1114806Y-292989D01*
X1116294Y-291994D01*
X1122044Y-286244D01*
X1122295Y-285868D01*
X1122615Y-285549D01*
X1122788Y-285131D01*
X1123039Y-284756D01*
X1123127Y-284313D01*
X1123300Y-283895D01*
Y-283443D01*
X1123388Y-283000D01*
X1123300Y-282557D01*
Y-282105D01*
X1123127Y-281687D01*
X1123039Y-281244D01*
X1122788Y-280868D01*
X1122615Y-280451D01*
X1122295Y-280131D01*
X1122044Y-279756D01*
X1121669Y-279505D01*
X1121349Y-279185D01*
X1120931Y-279012D01*
X1120556Y-278761D01*
X1120113Y-278673D01*
X1119695Y-278500D01*
X1119243D01*
X1118800Y-278412D01*
D02*
G37*
G36*
X1399540Y-300137D02*
X1396775D01*
X1394105Y-300853D01*
X1391710Y-302235D01*
X1390830Y-303115D01*
X1390685Y-303207D01*
X1389043Y-304762D01*
X1388331Y-305352D01*
X1387646Y-305860D01*
X1387008Y-306275D01*
X1386422Y-306597D01*
X1385895Y-306832D01*
X1385430Y-306986D01*
X1385031Y-307068D01*
X1385027Y-307069D01*
X1344232D01*
X1343349Y-306185D01*
X1341695Y-305500D01*
X1339905D01*
X1338251Y-306185D01*
X1336985Y-307451D01*
X1336300Y-309105D01*
Y-310895D01*
X1336985Y-312549D01*
X1338251Y-313815D01*
X1339905Y-314500D01*
X1341695D01*
X1342406Y-314206D01*
X1385027D01*
X1385031Y-314206D01*
X1385430Y-314288D01*
X1385895Y-314442D01*
X1386422Y-314677D01*
X1387008Y-315000D01*
X1387646Y-315414D01*
X1388311Y-315908D01*
X1389843Y-317239D01*
X1390657Y-318041D01*
X1390816Y-318145D01*
X1391710Y-319039D01*
X1394105Y-320422D01*
X1396775Y-321137D01*
X1399540D01*
X1402210Y-320422D01*
X1404605Y-319039D01*
X1406559Y-317084D01*
X1407942Y-314690D01*
X1408657Y-312020D01*
Y-309255D01*
X1407942Y-306584D01*
X1406559Y-304190D01*
X1404605Y-302235D01*
X1402210Y-300853D01*
X1399540Y-300137D01*
D02*
G37*
G36*
X1320787Y-297908D02*
X1318997D01*
X1317343Y-298593D01*
X1316077Y-299859D01*
X1315392Y-301513D01*
Y-302193D01*
X1302756Y-314829D01*
X1301496Y-314682D01*
X1301376Y-314079D01*
X1300713Y-313087D01*
X1299721Y-312424D01*
X1298550Y-312191D01*
X1291050D01*
X1289879Y-312424D01*
X1288887Y-313087D01*
X1288224Y-314079D01*
X1288058Y-314916D01*
X1281542D01*
X1281376Y-314079D01*
X1280713Y-313087D01*
X1279721Y-312424D01*
X1278550Y-312191D01*
X1271050D01*
X1269880Y-312424D01*
X1268887Y-313087D01*
X1268224Y-314079D01*
X1267991Y-315250D01*
Y-321250D01*
X1268224Y-322421D01*
X1268887Y-323413D01*
X1269880Y-324076D01*
X1271050Y-324309D01*
X1278550D01*
X1279721Y-324076D01*
X1280713Y-323413D01*
X1281376Y-322421D01*
X1281542Y-321584D01*
X1288058D01*
X1288224Y-322421D01*
X1288887Y-323413D01*
X1289879Y-324076D01*
X1291050Y-324309D01*
X1298550D01*
X1299721Y-324076D01*
X1300713Y-323413D01*
X1301376Y-322421D01*
X1301542Y-321584D01*
X1304050D01*
X1305326Y-321330D01*
X1306408Y-320607D01*
X1320107Y-306908D01*
X1320787D01*
X1322441Y-306223D01*
X1323707Y-304957D01*
X1324392Y-303303D01*
Y-301513D01*
X1323707Y-299859D01*
X1322441Y-298593D01*
X1320787Y-297908D01*
D02*
G37*
G36*
X838935Y-277201D02*
X818685D01*
X818574Y-277223D01*
X811310D01*
X810383Y-277407D01*
X809597Y-277932D01*
X809073Y-278718D01*
X808888Y-279645D01*
Y-281895D01*
X809073Y-282821D01*
X809372Y-283270D01*
X809073Y-283718D01*
X808888Y-284645D01*
Y-286895D01*
X809073Y-287821D01*
X809372Y-288270D01*
X809073Y-288718D01*
X808888Y-289645D01*
Y-291895D01*
X809073Y-292821D01*
X809372Y-293270D01*
X809073Y-293718D01*
X808888Y-294645D01*
Y-296895D01*
X809073Y-297821D01*
X809372Y-298270D01*
X809073Y-298718D01*
X808888Y-299645D01*
Y-301895D01*
X809073Y-302821D01*
X809372Y-303270D01*
X809073Y-303718D01*
X808888Y-304645D01*
Y-306895D01*
X809073Y-307821D01*
X809372Y-308270D01*
X809073Y-308718D01*
X808888Y-309645D01*
Y-311895D01*
X809073Y-312821D01*
X809597Y-313607D01*
X810383Y-314132D01*
X811310Y-314316D01*
X826060D01*
X826986Y-314132D01*
X827029Y-314104D01*
X857986D01*
X861240Y-317358D01*
X862322Y-318080D01*
X863598Y-318334D01*
X894770D01*
X895251Y-318815D01*
X896905Y-319500D01*
X898695D01*
X900349Y-318815D01*
X901615Y-317549D01*
X902300Y-315895D01*
Y-314105D01*
X901615Y-312451D01*
X900349Y-311185D01*
X898695Y-310500D01*
X896905D01*
X895251Y-311185D01*
X894770Y-311666D01*
X889148D01*
X888622Y-310396D01*
X888900Y-310119D01*
X889585Y-308465D01*
Y-306674D01*
X889037Y-305353D01*
X889622Y-304083D01*
X890885D01*
X892153Y-303831D01*
X893228Y-303113D01*
X902428Y-293913D01*
X903146Y-292838D01*
X903152Y-292809D01*
X903550D01*
X904721Y-292576D01*
X905713Y-291913D01*
X906376Y-290921D01*
X906609Y-289750D01*
Y-282250D01*
X906376Y-281079D01*
X905713Y-280087D01*
X904721Y-279424D01*
X903550Y-279191D01*
X897550D01*
X896379Y-279424D01*
X895387Y-280087D01*
X894724Y-281079D01*
X894491Y-282250D01*
Y-289750D01*
X894724Y-290921D01*
X895254Y-291714D01*
X889512Y-297456D01*
X828942D01*
X828481Y-296895D01*
Y-294645D01*
X828297Y-293718D01*
X827997Y-293270D01*
X828297Y-292821D01*
X828481Y-291895D01*
Y-289645D01*
X828297Y-288718D01*
X827998Y-288270D01*
X828297Y-287821D01*
X828481Y-286895D01*
Y-284645D01*
X828733Y-284338D01*
X837457D01*
X837674Y-284555D01*
Y-289695D01*
X837916Y-290914D01*
X838607Y-291947D01*
X839641Y-292638D01*
X840860Y-292881D01*
X848110D01*
X849329Y-292638D01*
X850363Y-291947D01*
X851053Y-290914D01*
X851257Y-289888D01*
X856074D01*
Y-289995D01*
X856316Y-291214D01*
X857007Y-292248D01*
X858040Y-292938D01*
X859260Y-293181D01*
X866510D01*
X867729Y-292938D01*
X868763Y-292248D01*
X869454Y-291214D01*
X869658Y-290188D01*
X873132D01*
X874252Y-291308D01*
X876090Y-292070D01*
X878079D01*
X879917Y-291308D01*
X881324Y-289902D01*
X882085Y-288064D01*
Y-286075D01*
X881324Y-284237D01*
X879917Y-282831D01*
X878079Y-282070D01*
X876090D01*
X874252Y-282831D01*
X874032Y-283051D01*
X869658D01*
X869454Y-282025D01*
X868763Y-280992D01*
X867729Y-280301D01*
X866510Y-280058D01*
X859260D01*
X858040Y-280301D01*
X857007Y-280992D01*
X856316Y-282025D01*
X856172Y-282751D01*
X851257D01*
X851053Y-281725D01*
X850363Y-280692D01*
X849329Y-280001D01*
X848110Y-279758D01*
X842970D01*
X841458Y-278246D01*
X840300Y-277473D01*
X838935Y-277201D01*
D02*
G37*
G36*
X607625Y-294106D02*
X568145D01*
X566873Y-294359D01*
X565794Y-295079D01*
X565074Y-296158D01*
X564821Y-297430D01*
Y-308910D01*
X565074Y-310182D01*
X565794Y-311260D01*
X566873Y-311980D01*
X568145Y-312233D01*
X591902D01*
X596761Y-317093D01*
X597919Y-317866D01*
X599285Y-318138D01*
X614082D01*
X614753Y-318808D01*
X616590Y-319570D01*
X618579D01*
X620417Y-318808D01*
X621824Y-317402D01*
X622585Y-315564D01*
Y-313575D01*
X621824Y-311737D01*
X620417Y-310331D01*
X618579Y-309570D01*
X616590D01*
X614753Y-310331D01*
X614082Y-311001D01*
X611559D01*
X610785Y-309731D01*
X610949Y-308910D01*
Y-297430D01*
X610696Y-296158D01*
X609975Y-295079D01*
X608897Y-294359D01*
X607625Y-294106D01*
D02*
G37*
G36*
X5882Y-300000D02*
X3118D01*
X447Y-300716D01*
X-1947Y-302098D01*
X-3902Y-304053D01*
X-5284Y-306447D01*
X-6000Y-309118D01*
Y-311882D01*
X-5284Y-314553D01*
X-3902Y-316947D01*
X-1947Y-318902D01*
X447Y-320284D01*
X3118Y-321000D01*
X5882D01*
X8553Y-320284D01*
X10947Y-318902D01*
X12902Y-316947D01*
X14284Y-314553D01*
X15000Y-311882D01*
Y-309118D01*
X14284Y-306447D01*
X12902Y-304053D01*
X10947Y-302098D01*
X8553Y-300716D01*
X5882Y-300000D01*
D02*
G37*
G36*
X399250Y-315316D02*
X393250D01*
X392080Y-315549D01*
X391087Y-316212D01*
X390424Y-317204D01*
X390191Y-318375D01*
Y-325875D01*
X390424Y-327046D01*
X391087Y-328038D01*
X392080Y-328701D01*
X393250Y-328934D01*
X399250D01*
X400421Y-328701D01*
X401413Y-328038D01*
X402076Y-327046D01*
X402309Y-325875D01*
Y-325694D01*
X411498D01*
X412168Y-326364D01*
X414006Y-327125D01*
X415995D01*
X417832Y-326364D01*
X419239Y-324957D01*
X420000Y-323120D01*
Y-321130D01*
X419239Y-319293D01*
X417832Y-317886D01*
X415995Y-317125D01*
X414006D01*
X412168Y-317886D01*
X411498Y-318556D01*
X402309D01*
Y-318375D01*
X402076Y-317204D01*
X401413Y-316212D01*
X400421Y-315549D01*
X399250Y-315316D01*
D02*
G37*
G36*
X309250D02*
X303250D01*
X302080Y-315549D01*
X301087Y-316212D01*
X300424Y-317204D01*
X300191Y-318375D01*
Y-325875D01*
X300424Y-327046D01*
X301087Y-328038D01*
X302080Y-328701D01*
X303250Y-328934D01*
X309250D01*
X310421Y-328701D01*
X311413Y-328038D01*
X312076Y-327046D01*
X312309Y-325875D01*
Y-325694D01*
X324497D01*
X325168Y-326364D01*
X327006Y-327125D01*
X328995D01*
X330832Y-326364D01*
X332239Y-324957D01*
X333000Y-323120D01*
Y-321130D01*
X332239Y-319293D01*
X330832Y-317886D01*
X328995Y-317125D01*
X327006D01*
X325168Y-317886D01*
X324497Y-318556D01*
X312309D01*
Y-318375D01*
X312076Y-317204D01*
X311413Y-316212D01*
X310421Y-315549D01*
X309250Y-315316D01*
D02*
G37*
G36*
X219250D02*
X213250D01*
X212080Y-315549D01*
X211087Y-316212D01*
X210424Y-317204D01*
X210191Y-318375D01*
Y-325875D01*
X210424Y-327046D01*
X211087Y-328038D01*
X212080Y-328701D01*
X213250Y-328934D01*
X219250D01*
X220421Y-328701D01*
X221413Y-328038D01*
X222076Y-327046D01*
X222309Y-325875D01*
Y-325694D01*
X226497D01*
X227168Y-326364D01*
X229006Y-327125D01*
X230995D01*
X232832Y-326364D01*
X234239Y-324957D01*
X235000Y-323120D01*
Y-321130D01*
X234239Y-319293D01*
X232832Y-317886D01*
X230995Y-317125D01*
X229006D01*
X227168Y-317886D01*
X226497Y-318556D01*
X222309D01*
Y-318375D01*
X222076Y-317204D01*
X221413Y-316212D01*
X220421Y-315549D01*
X219250Y-315316D01*
D02*
G37*
G36*
X991570Y-318937D02*
X980030D01*
X978770Y-319187D01*
X977701Y-319901D01*
X976987Y-320970D01*
X976875Y-321537D01*
X972675D01*
X970919Y-321886D01*
X969431Y-322881D01*
X968556Y-323756D01*
X968305Y-324131D01*
X967985Y-324451D01*
X967812Y-324868D01*
X967561Y-325244D01*
X967473Y-325687D01*
X967300Y-326105D01*
Y-326557D01*
X967212Y-327000D01*
X967300Y-327443D01*
Y-327895D01*
X967473Y-328312D01*
X967561Y-328756D01*
X967812Y-329132D01*
X967985Y-329549D01*
X968305Y-329869D01*
X968556Y-330244D01*
X968932Y-330495D01*
X969251Y-330815D01*
X969668Y-330988D01*
X970044Y-331239D01*
X970488Y-331327D01*
X970905Y-331500D01*
X971357D01*
X971800Y-331588D01*
X972243Y-331500D01*
X972695D01*
X973113Y-331327D01*
X973556Y-331239D01*
X973932Y-330988D01*
X974349Y-330815D01*
X974451Y-330713D01*
X976875D01*
X976987Y-331280D01*
X977701Y-332349D01*
X978770Y-333063D01*
X980030Y-333313D01*
X991570D01*
X992830Y-333063D01*
X993899Y-332349D01*
X994613Y-331280D01*
X994863Y-330020D01*
Y-322230D01*
X994613Y-320970D01*
X993899Y-319901D01*
X992830Y-319187D01*
X991570Y-318937D01*
D02*
G37*
G36*
X1366300Y-320170D02*
X1363667D01*
X1361124Y-320851D01*
X1358843Y-322168D01*
X1356982Y-324030D01*
X1355665Y-326310D01*
X1354984Y-328853D01*
Y-331486D01*
X1355665Y-334029D01*
X1356982Y-336310D01*
X1358833Y-338161D01*
X1358830Y-338470D01*
X1358572Y-339431D01*
X1336595D01*
X1336349Y-339185D01*
X1334695Y-338500D01*
X1332905D01*
X1331251Y-339185D01*
X1329985Y-340451D01*
X1329300Y-342105D01*
Y-343895D01*
X1329985Y-345549D01*
X1331251Y-346815D01*
X1332905Y-347500D01*
X1334695D01*
X1336349Y-346815D01*
X1336595Y-346569D01*
X1368416D01*
X1369782Y-346297D01*
X1370940Y-345523D01*
X1376857Y-339606D01*
X1387331D01*
X1387511Y-339622D01*
X1387657Y-339646D01*
Y-346537D01*
X1408657D01*
Y-325537D01*
X1387657D01*
Y-332428D01*
X1387511Y-332453D01*
X1387331Y-332469D01*
X1376035D01*
X1375093Y-331588D01*
X1374984Y-331252D01*
Y-328853D01*
X1374302Y-326310D01*
X1372985Y-324030D01*
X1371124Y-322168D01*
X1368843Y-320851D01*
X1366300Y-320170D01*
D02*
G37*
G36*
X1321300D02*
X1318667D01*
X1316124Y-320851D01*
X1313843Y-322168D01*
X1311982Y-324030D01*
X1310665Y-326310D01*
X1309984Y-328853D01*
Y-331486D01*
X1310665Y-334029D01*
X1311982Y-336310D01*
X1313843Y-338172D01*
X1316124Y-339488D01*
X1318667Y-340170D01*
X1321300D01*
X1323843Y-339488D01*
X1326124Y-338172D01*
X1327985Y-336310D01*
X1329302Y-334029D01*
X1329983Y-331486D01*
Y-328853D01*
X1329302Y-326310D01*
X1327985Y-324030D01*
X1326124Y-322168D01*
X1323843Y-320851D01*
X1321300Y-320170D01*
D02*
G37*
G36*
X15000Y-325400D02*
X-6000D01*
Y-346400D01*
X15000D01*
Y-325400D01*
D02*
G37*
G36*
X382750Y-315316D02*
X376750D01*
X375579Y-315549D01*
X374587Y-316212D01*
X373924Y-317204D01*
X373691Y-318375D01*
Y-325875D01*
X373924Y-327046D01*
X374587Y-328038D01*
X375579Y-328701D01*
X376181Y-328821D01*
Y-333971D01*
X375762Y-334054D01*
X374738Y-334738D01*
X374054Y-335762D01*
X373814Y-336969D01*
Y-344281D01*
X374054Y-345488D01*
X374738Y-346512D01*
X375762Y-347196D01*
X376969Y-347436D01*
X379710D01*
X379750Y-347444D01*
X379790Y-347436D01*
X383531D01*
X384738Y-347196D01*
X385762Y-346512D01*
X386446Y-345488D01*
X386686Y-344281D01*
Y-336969D01*
X386446Y-335762D01*
X385762Y-334738D01*
X384738Y-334054D01*
X383531Y-333814D01*
X383319D01*
Y-328821D01*
X383921Y-328701D01*
X384913Y-328038D01*
X385576Y-327046D01*
X385809Y-325875D01*
Y-318375D01*
X385576Y-317204D01*
X384913Y-316212D01*
X383921Y-315549D01*
X382750Y-315316D01*
D02*
G37*
G36*
X292750D02*
X286750D01*
X285579Y-315549D01*
X284587Y-316212D01*
X283924Y-317204D01*
X283691Y-318375D01*
Y-325875D01*
X283924Y-327046D01*
X284587Y-328038D01*
X285579Y-328701D01*
X286432Y-328870D01*
Y-333921D01*
X285762Y-334054D01*
X284738Y-334738D01*
X284055Y-335762D01*
X283814Y-336969D01*
Y-344281D01*
X284055Y-345488D01*
X284738Y-346512D01*
X285762Y-347196D01*
X286969Y-347436D01*
X289960D01*
X290000Y-347444D01*
X290040Y-347436D01*
X293531D01*
X294738Y-347196D01*
X295762Y-346512D01*
X296446Y-345488D01*
X296686Y-344281D01*
Y-336969D01*
X296446Y-335762D01*
X295762Y-334738D01*
X294738Y-334054D01*
X293569Y-333822D01*
Y-328771D01*
X293921Y-328701D01*
X294913Y-328038D01*
X295576Y-327046D01*
X295809Y-325875D01*
Y-318375D01*
X295576Y-317204D01*
X294913Y-316212D01*
X293921Y-315549D01*
X292750Y-315316D01*
D02*
G37*
G36*
X202750D02*
X196750D01*
X195579Y-315549D01*
X194587Y-316212D01*
X193924Y-317204D01*
X193691Y-318375D01*
Y-325875D01*
X193924Y-327046D01*
X194587Y-328038D01*
X195579Y-328701D01*
X196182Y-328821D01*
Y-333971D01*
X195762Y-334054D01*
X194738Y-334738D01*
X194055Y-335762D01*
X193814Y-336969D01*
Y-344281D01*
X194055Y-345488D01*
X194738Y-346512D01*
X195762Y-347196D01*
X196969Y-347436D01*
X199710D01*
X199750Y-347444D01*
X199790Y-347436D01*
X203531D01*
X204738Y-347196D01*
X205762Y-346512D01*
X206446Y-345488D01*
X206686Y-344281D01*
Y-336969D01*
X206446Y-335762D01*
X205762Y-334738D01*
X204738Y-334054D01*
X203531Y-333814D01*
X203319D01*
Y-328821D01*
X203921Y-328701D01*
X204913Y-328038D01*
X205576Y-327046D01*
X205809Y-325875D01*
Y-318375D01*
X205576Y-317204D01*
X204913Y-316212D01*
X203921Y-315549D01*
X202750Y-315316D01*
D02*
G37*
G36*
X112750D02*
X106750D01*
X105580Y-315549D01*
X104587Y-316212D01*
X103924Y-317204D01*
X103691Y-318375D01*
Y-325875D01*
X103924Y-327046D01*
X104587Y-328038D01*
X105580Y-328701D01*
X106181Y-328821D01*
Y-333971D01*
X105762Y-334054D01*
X104738Y-334738D01*
X104055Y-335762D01*
X103814Y-336969D01*
Y-344281D01*
X104055Y-345488D01*
X104738Y-346512D01*
X105762Y-347196D01*
X106969Y-347436D01*
X109710D01*
X109750Y-347444D01*
X109790Y-347436D01*
X113531D01*
X114738Y-347196D01*
X115762Y-346512D01*
X116446Y-345488D01*
X116686Y-344281D01*
Y-336969D01*
X116446Y-335762D01*
X115762Y-334738D01*
X114738Y-334054D01*
X113531Y-333814D01*
X113319D01*
Y-328821D01*
X113921Y-328701D01*
X114913Y-328038D01*
X115576Y-327046D01*
X115809Y-325875D01*
Y-318375D01*
X115576Y-317204D01*
X114913Y-316212D01*
X113921Y-315549D01*
X112750Y-315316D01*
D02*
G37*
G36*
X920050Y-261191D02*
X914050D01*
X912879Y-261424D01*
X911887Y-262087D01*
X911224Y-263079D01*
X910991Y-264250D01*
Y-271750D01*
X911224Y-272920D01*
X911887Y-273913D01*
X912879Y-274576D01*
X914050Y-274809D01*
X919173D01*
X920986Y-276623D01*
Y-278423D01*
X920050Y-279191D01*
X914050D01*
X912879Y-279424D01*
X911887Y-280087D01*
X911224Y-281079D01*
X910991Y-282250D01*
Y-289750D01*
X911224Y-290921D01*
X911887Y-291913D01*
X912879Y-292576D01*
X913736Y-292746D01*
Y-309250D01*
X913989Y-310518D01*
X914707Y-311593D01*
X962272Y-359158D01*
X963347Y-359877D01*
X964615Y-360129D01*
X1006014D01*
X1006233Y-360085D01*
X1012078D01*
Y-348545D01*
X1006233D01*
X1006014Y-348502D01*
X972173D01*
X927614Y-303943D01*
Y-275250D01*
X927361Y-273982D01*
X926643Y-272907D01*
X923109Y-269373D01*
Y-264250D01*
X922876Y-263079D01*
X922213Y-262087D01*
X921220Y-261424D01*
X920050Y-261191D01*
D02*
G37*
G36*
X791335Y-348761D02*
X785335D01*
X784164Y-348994D01*
X783172Y-349657D01*
X782509Y-350649D01*
X782276Y-351820D01*
Y-359320D01*
X782509Y-360490D01*
X783172Y-361483D01*
X784164Y-362146D01*
X785335Y-362378D01*
X791335D01*
X792505Y-362146D01*
X793498Y-361483D01*
X794108Y-360569D01*
X856859D01*
X857105Y-360815D01*
X858759Y-361500D01*
X860549D01*
X862203Y-360815D01*
X863469Y-359549D01*
X864154Y-357895D01*
Y-356105D01*
X863469Y-354451D01*
X862203Y-353185D01*
X860549Y-352500D01*
X858759D01*
X857105Y-353185D01*
X856859Y-353431D01*
X794394D01*
Y-351820D01*
X794161Y-350649D01*
X793498Y-349657D01*
X792505Y-348994D01*
X791335Y-348761D01*
D02*
G37*
G36*
X1236100Y-345437D02*
X1226500D01*
X1225251Y-345686D01*
X1224193Y-346393D01*
X1223486Y-347451D01*
X1223237Y-348700D01*
Y-361902D01*
X1192864D01*
Y-355760D01*
X1192611Y-354488D01*
X1191890Y-353410D01*
X1190812Y-352689D01*
X1189540Y-352436D01*
X1174060D01*
X1172788Y-352689D01*
X1171710Y-353410D01*
X1170989Y-354488D01*
X1170736Y-355760D01*
Y-378240D01*
X1170989Y-379512D01*
X1171710Y-380590D01*
X1172788Y-381311D01*
X1174060Y-381564D01*
X1189540D01*
X1190812Y-381311D01*
X1191890Y-380590D01*
X1192611Y-379512D01*
X1192864Y-378240D01*
Y-372098D01*
X1223237D01*
Y-376300D01*
X1223486Y-377548D01*
X1224193Y-378607D01*
X1225251Y-379314D01*
X1226500Y-379563D01*
X1236100D01*
X1237349Y-379314D01*
X1238407Y-378607D01*
X1239114Y-377548D01*
X1239363Y-376300D01*
Y-348700D01*
X1239114Y-347451D01*
X1238407Y-346393D01*
X1237349Y-345686D01*
X1236100Y-345437D01*
D02*
G37*
G36*
X988895Y-363204D02*
X981645D01*
X980425Y-363447D01*
X979392Y-364137D01*
X978701Y-365171D01*
X978458Y-366390D01*
Y-366431D01*
X973820D01*
X972544Y-366685D01*
X972498Y-366715D01*
X971475D01*
X969821Y-367400D01*
X968555Y-368666D01*
X967870Y-370320D01*
Y-372110D01*
X968555Y-373764D01*
X969821Y-375030D01*
X971475Y-375715D01*
X973265D01*
X974919Y-375030D01*
X976184Y-373764D01*
X976460Y-373099D01*
X978458D01*
Y-373140D01*
X978701Y-374360D01*
X979392Y-375393D01*
X980425Y-376084D01*
X981645Y-376326D01*
X988895D01*
X990114Y-376084D01*
X991148Y-375393D01*
X991838Y-374360D01*
X992081Y-373140D01*
Y-370149D01*
X1006014D01*
X1006336Y-370085D01*
X1012078D01*
Y-363545D01*
X1006336D01*
X1006014Y-363481D01*
X990166D01*
X990114Y-363447D01*
X988895Y-363204D01*
D02*
G37*
G36*
X1020740Y-367207D02*
X1014200D01*
Y-379335D01*
X1020740D01*
Y-367207D01*
D02*
G37*
G36*
X1351925Y-356189D02*
X1345175D01*
X1343956Y-356431D01*
X1342922Y-357122D01*
X1342231Y-358156D01*
X1341989Y-359375D01*
Y-366625D01*
X1342231Y-367844D01*
X1342922Y-368878D01*
X1343956Y-369569D01*
X1345175Y-369811D01*
X1350065D01*
X1355403Y-375150D01*
X1355408Y-375155D01*
X1355607Y-375462D01*
X1355775Y-375817D01*
X1355911Y-376236D01*
X1356010Y-376728D01*
X1356064Y-377298D01*
X1356066Y-377949D01*
X1356011Y-378679D01*
X1355894Y-379486D01*
X1355700Y-380420D01*
X1355699Y-380548D01*
X1355484Y-381353D01*
Y-383986D01*
X1356165Y-386529D01*
X1357482Y-388810D01*
X1359343Y-390672D01*
X1361624Y-391988D01*
X1364167Y-392669D01*
X1366800D01*
X1369343Y-391988D01*
X1371624Y-390672D01*
X1373485Y-388810D01*
X1374802Y-386529D01*
X1375484Y-383986D01*
Y-381353D01*
X1374802Y-378810D01*
X1373485Y-376529D01*
X1371624Y-374668D01*
X1369343Y-373351D01*
X1367774Y-372930D01*
X1367613Y-372859D01*
X1366935Y-372706D01*
X1366800Y-372670D01*
X1366775D01*
X1366448Y-372596D01*
X1364418Y-372058D01*
X1362776Y-371506D01*
X1362144Y-371246D01*
X1361602Y-370987D01*
X1361176Y-370744D01*
X1360901Y-370554D01*
X1355111Y-364764D01*
Y-359375D01*
X1354869Y-358156D01*
X1354178Y-357122D01*
X1353144Y-356431D01*
X1351925Y-356189D01*
D02*
G37*
G36*
X1336425D02*
X1329675D01*
X1328456Y-356431D01*
X1327422Y-357122D01*
X1326731Y-358156D01*
X1326489Y-359375D01*
Y-365096D01*
X1320701Y-370883D01*
X1319979Y-371965D01*
X1319839Y-372670D01*
X1319167D01*
X1316624Y-373351D01*
X1314343Y-374668D01*
X1312482Y-376529D01*
X1311165Y-378810D01*
X1310484Y-381353D01*
Y-383986D01*
X1311165Y-386529D01*
X1312482Y-388810D01*
X1314343Y-390672D01*
X1316624Y-391988D01*
X1319167Y-392669D01*
X1321800D01*
X1324343Y-391988D01*
X1326624Y-390672D01*
X1328485Y-388810D01*
X1329802Y-386529D01*
X1330483Y-383986D01*
Y-381353D01*
X1329802Y-378810D01*
X1328485Y-376529D01*
X1326624Y-374668D01*
X1327341Y-373675D01*
X1331204Y-369811D01*
X1336425D01*
X1337644Y-369569D01*
X1338678Y-368878D01*
X1339369Y-367844D01*
X1339611Y-366625D01*
Y-359375D01*
X1339369Y-358156D01*
X1338678Y-357122D01*
X1337644Y-356431D01*
X1336425Y-356189D01*
D02*
G37*
G36*
X399250Y-400316D02*
X393250D01*
X392080Y-400549D01*
X391087Y-401212D01*
X390424Y-402205D01*
X390191Y-403375D01*
Y-410875D01*
X390424Y-412046D01*
X391087Y-413038D01*
X392080Y-413701D01*
X393250Y-413934D01*
X399250D01*
X400421Y-413701D01*
X401413Y-413038D01*
X402076Y-412046D01*
X402309Y-410875D01*
Y-410694D01*
X422964D01*
X424006Y-411125D01*
X425995D01*
X427832Y-410364D01*
X429239Y-408957D01*
X430000Y-407120D01*
Y-405131D01*
X429239Y-403293D01*
X427832Y-401886D01*
X425995Y-401125D01*
X424006D01*
X422168Y-401886D01*
X420761Y-403293D01*
X420652Y-403556D01*
X402309D01*
Y-403375D01*
X402076Y-402205D01*
X401413Y-401212D01*
X400421Y-400549D01*
X399250Y-400316D01*
D02*
G37*
G36*
X309250D02*
X303250D01*
X302080Y-400549D01*
X301087Y-401212D01*
X300424Y-402205D01*
X300191Y-403375D01*
Y-410875D01*
X300424Y-412046D01*
X301087Y-413038D01*
X302080Y-413701D01*
X303250Y-413934D01*
X309250D01*
X310421Y-413701D01*
X311413Y-413038D01*
X312076Y-412046D01*
X312309Y-410875D01*
Y-410694D01*
X315964D01*
X317006Y-411125D01*
X318995D01*
X320832Y-410364D01*
X322239Y-408957D01*
X323000Y-407120D01*
Y-405131D01*
X322239Y-403293D01*
X320832Y-401886D01*
X318995Y-401125D01*
X317006D01*
X315168Y-401886D01*
X313761Y-403293D01*
X313652Y-403556D01*
X312309D01*
Y-403375D01*
X312076Y-402205D01*
X311413Y-401212D01*
X310421Y-400549D01*
X309250Y-400316D01*
D02*
G37*
G36*
X219250D02*
X213250D01*
X212080Y-400549D01*
X211087Y-401212D01*
X210424Y-402205D01*
X210191Y-403375D01*
Y-410875D01*
X210424Y-412046D01*
X211087Y-413038D01*
X212080Y-413701D01*
X213250Y-413934D01*
X219250D01*
X220421Y-413701D01*
X221413Y-413038D01*
X222076Y-412046D01*
X222309Y-410875D01*
Y-410694D01*
X240652D01*
X240761Y-410957D01*
X242168Y-412364D01*
X244006Y-413125D01*
X245995D01*
X247832Y-412364D01*
X249239Y-410957D01*
X250000Y-409120D01*
Y-407131D01*
X249239Y-405293D01*
X247832Y-403886D01*
X245995Y-403125D01*
X244006D01*
X242964Y-403556D01*
X222309D01*
Y-403375D01*
X222076Y-402205D01*
X221413Y-401212D01*
X220421Y-400549D01*
X219250Y-400316D01*
D02*
G37*
G36*
X129250D02*
X123250D01*
X122079Y-400549D01*
X121087Y-401212D01*
X120424Y-402205D01*
X120191Y-403375D01*
Y-410875D01*
X120424Y-412046D01*
X121087Y-413038D01*
X122079Y-413701D01*
X123250Y-413934D01*
X129250D01*
X130421Y-413701D01*
X131413Y-413038D01*
X132076Y-412046D01*
X132309Y-410875D01*
Y-410694D01*
X138652D01*
X138761Y-410957D01*
X140168Y-412364D01*
X142006Y-413125D01*
X143995D01*
X145832Y-412364D01*
X147239Y-410957D01*
X148000Y-409120D01*
Y-407131D01*
X147239Y-405293D01*
X145832Y-403886D01*
X143995Y-403125D01*
X142006D01*
X140964Y-403556D01*
X132309D01*
Y-403375D01*
X132076Y-402205D01*
X131413Y-401212D01*
X130421Y-400549D01*
X129250Y-400316D01*
D02*
G37*
G36*
X1409550Y-401941D02*
X1402050D01*
X1400880Y-402174D01*
X1399887Y-402837D01*
X1399224Y-403829D01*
X1398991Y-405000D01*
Y-411000D01*
X1399224Y-412170D01*
X1399887Y-413163D01*
X1400880Y-413826D01*
X1402050Y-414059D01*
X1409550D01*
X1410721Y-413826D01*
X1411713Y-413163D01*
X1412376Y-412170D01*
X1412447Y-411814D01*
X1417554D01*
X1417561Y-411832D01*
X1418968Y-413239D01*
X1420806Y-414000D01*
X1422795D01*
X1424632Y-413239D01*
X1426039Y-411832D01*
X1426800Y-409995D01*
Y-408005D01*
X1426039Y-406168D01*
X1424632Y-404761D01*
X1422795Y-404000D01*
X1420806D01*
X1418968Y-404761D01*
X1418543Y-405186D01*
X1412609D01*
Y-405000D01*
X1412376Y-403829D01*
X1411713Y-402837D01*
X1410721Y-402174D01*
X1409550Y-401941D01*
D02*
G37*
G36*
X1321287Y-415408D02*
X1319497D01*
X1317843Y-416093D01*
X1316577Y-417359D01*
X1315892Y-419013D01*
Y-420803D01*
X1316577Y-422457D01*
X1317843Y-423723D01*
X1319497Y-424408D01*
X1320177D01*
X1322626Y-426857D01*
X1323708Y-427580D01*
X1324984Y-427834D01*
X1379058D01*
X1379224Y-428671D01*
X1379887Y-429663D01*
X1380880Y-430326D01*
X1382050Y-430559D01*
X1389550D01*
X1390721Y-430326D01*
X1391713Y-429663D01*
X1392376Y-428671D01*
X1392542Y-427834D01*
X1399058D01*
X1399224Y-428671D01*
X1399887Y-429663D01*
X1400880Y-430326D01*
X1402050Y-430559D01*
X1409550D01*
X1410721Y-430326D01*
X1411713Y-429663D01*
X1412376Y-428671D01*
X1412609Y-427500D01*
Y-421500D01*
X1412376Y-420330D01*
X1411713Y-419337D01*
X1410721Y-418674D01*
X1409550Y-418441D01*
X1402050D01*
X1400880Y-418674D01*
X1399887Y-419337D01*
X1399224Y-420330D01*
X1399058Y-421166D01*
X1392542D01*
X1392376Y-420330D01*
X1391713Y-419337D01*
X1390721Y-418674D01*
X1389550Y-418441D01*
X1382050D01*
X1380880Y-418674D01*
X1379887Y-419337D01*
X1379224Y-420330D01*
X1379058Y-421166D01*
X1326364D01*
X1324892Y-419693D01*
Y-419013D01*
X1324207Y-417359D01*
X1322941Y-416093D01*
X1321287Y-415408D01*
D02*
G37*
G36*
X382750Y-400316D02*
X376750D01*
X375579Y-400549D01*
X374587Y-401212D01*
X373924Y-402205D01*
X373691Y-403375D01*
Y-410875D01*
X373924Y-412046D01*
X374587Y-413038D01*
X375579Y-413701D01*
X376432Y-413870D01*
Y-419171D01*
X375762Y-419305D01*
X374738Y-419988D01*
X374055Y-421012D01*
X373815Y-422219D01*
Y-429531D01*
X374055Y-430738D01*
X374738Y-431762D01*
X375762Y-432445D01*
X376969Y-432686D01*
X383531D01*
X384738Y-432445D01*
X385762Y-431762D01*
X386446Y-430738D01*
X386686Y-429531D01*
Y-422219D01*
X386446Y-421012D01*
X385762Y-419988D01*
X384738Y-419305D01*
X383569Y-419072D01*
Y-413771D01*
X383921Y-413701D01*
X384913Y-413038D01*
X385576Y-412046D01*
X385809Y-410875D01*
Y-403375D01*
X385576Y-402205D01*
X384913Y-401212D01*
X383921Y-400549D01*
X382750Y-400316D01*
D02*
G37*
G36*
X292750D02*
X286750D01*
X285579Y-400549D01*
X284587Y-401212D01*
X283924Y-402205D01*
X283691Y-403375D01*
Y-410875D01*
X283924Y-412046D01*
X284587Y-413038D01*
X285579Y-413701D01*
X286432Y-413870D01*
Y-419171D01*
X285762Y-419305D01*
X284738Y-419988D01*
X284055Y-421012D01*
X283815Y-422219D01*
Y-429531D01*
X284055Y-430738D01*
X284738Y-431762D01*
X285762Y-432445D01*
X286969Y-432686D01*
X293531D01*
X294738Y-432445D01*
X295762Y-431762D01*
X296446Y-430738D01*
X296686Y-429531D01*
Y-422219D01*
X296446Y-421012D01*
X295762Y-419988D01*
X294738Y-419305D01*
X293569Y-419072D01*
Y-413771D01*
X293921Y-413701D01*
X294913Y-413038D01*
X295576Y-412046D01*
X295809Y-410875D01*
Y-403375D01*
X295576Y-402205D01*
X294913Y-401212D01*
X293921Y-400549D01*
X292750Y-400316D01*
D02*
G37*
G36*
X202750D02*
X196750D01*
X195579Y-400549D01*
X194587Y-401212D01*
X193924Y-402205D01*
X193691Y-403375D01*
Y-410875D01*
X193924Y-412046D01*
X194587Y-413038D01*
X195579Y-413701D01*
X196182Y-413821D01*
Y-419221D01*
X195762Y-419305D01*
X194738Y-419988D01*
X194055Y-421012D01*
X193815Y-422219D01*
Y-429531D01*
X194055Y-430738D01*
X194738Y-431762D01*
X195762Y-432445D01*
X196969Y-432686D01*
X203531D01*
X204738Y-432445D01*
X205762Y-431762D01*
X206446Y-430738D01*
X206686Y-429531D01*
Y-422219D01*
X206446Y-421012D01*
X205762Y-419988D01*
X204738Y-419305D01*
X203531Y-419064D01*
X203319D01*
Y-413821D01*
X203921Y-413701D01*
X204913Y-413038D01*
X205576Y-412046D01*
X205809Y-410875D01*
Y-403375D01*
X205576Y-402205D01*
X204913Y-401212D01*
X203921Y-400549D01*
X202750Y-400316D01*
D02*
G37*
G36*
X112750D02*
X106750D01*
X105580Y-400549D01*
X104587Y-401212D01*
X103924Y-402205D01*
X103691Y-403375D01*
Y-410875D01*
X103924Y-412046D01*
X104587Y-413038D01*
X105580Y-413701D01*
X106181Y-413821D01*
Y-419221D01*
X105762Y-419305D01*
X104738Y-419988D01*
X104055Y-421012D01*
X103814Y-422219D01*
Y-429531D01*
X104055Y-430738D01*
X104738Y-431762D01*
X105762Y-432445D01*
X106969Y-432686D01*
X113531D01*
X114739Y-432445D01*
X115762Y-431762D01*
X116446Y-430738D01*
X116686Y-429531D01*
Y-422219D01*
X116446Y-421012D01*
X115762Y-419988D01*
X114739Y-419305D01*
X113531Y-419064D01*
X113319D01*
Y-413821D01*
X113921Y-413701D01*
X114913Y-413038D01*
X115576Y-412046D01*
X115809Y-410875D01*
Y-403375D01*
X115576Y-402205D01*
X114913Y-401212D01*
X113921Y-400549D01*
X112750Y-400316D01*
D02*
G37*
G36*
X1027870Y-421715D02*
X1009870D01*
Y-437715D01*
X1027870D01*
Y-421715D01*
D02*
G37*
G36*
X862490Y-441717D02*
X860659D01*
X858891Y-442190D01*
X857306Y-443106D01*
X856011Y-444400D01*
X855096Y-445986D01*
X854622Y-447754D01*
Y-449585D01*
X855096Y-451353D01*
X856011Y-452939D01*
X857306Y-454233D01*
X858891Y-455149D01*
X860659Y-455623D01*
X862490D01*
X864259Y-455149D01*
X865844Y-454233D01*
X867139Y-452939D01*
X868054Y-451353D01*
X868528Y-449585D01*
Y-447754D01*
X868054Y-445986D01*
X867139Y-444400D01*
X865844Y-443106D01*
X864259Y-442190D01*
X862490Y-441717D01*
D02*
G37*
G36*
X1366800Y-437670D02*
X1364167D01*
X1361624Y-438351D01*
X1359343Y-439668D01*
X1357482Y-441529D01*
X1356165Y-443810D01*
X1355484Y-446353D01*
Y-448986D01*
X1356165Y-451529D01*
X1357482Y-453810D01*
X1359343Y-455672D01*
X1361624Y-456988D01*
X1364167Y-457669D01*
X1366800D01*
X1369343Y-456988D01*
X1371624Y-455672D01*
X1373485Y-453810D01*
X1374802Y-451529D01*
X1375484Y-448986D01*
Y-446353D01*
X1374802Y-443810D01*
X1373485Y-441529D01*
X1371624Y-439668D01*
X1369343Y-438351D01*
X1366800Y-437670D01*
D02*
G37*
G36*
X1321800D02*
X1319167D01*
X1316624Y-438351D01*
X1314343Y-439668D01*
X1312482Y-441529D01*
X1311165Y-443810D01*
X1310484Y-446353D01*
Y-448986D01*
X1311165Y-451529D01*
X1312482Y-453810D01*
X1314343Y-455672D01*
X1316624Y-456988D01*
X1319167Y-457669D01*
X1321800D01*
X1324343Y-456988D01*
X1326624Y-455672D01*
X1328485Y-453810D01*
X1329802Y-451529D01*
X1330483Y-448986D01*
Y-446353D01*
X1329802Y-443810D01*
X1328485Y-441529D01*
X1326624Y-439668D01*
X1324343Y-438351D01*
X1321800Y-437670D01*
D02*
G37*
G36*
X932695Y-459500D02*
X930905D01*
X929251Y-460185D01*
X929005Y-460431D01*
X850595D01*
X850349Y-460185D01*
X848695Y-459500D01*
X846905D01*
X845251Y-460185D01*
X843985Y-461451D01*
X843300Y-463105D01*
Y-464895D01*
X843985Y-466549D01*
X845251Y-467815D01*
X846905Y-468500D01*
X848695D01*
X850349Y-467815D01*
X850595Y-467569D01*
X929005D01*
X929251Y-467815D01*
X930905Y-468500D01*
X932695D01*
X934349Y-467815D01*
X935615Y-466549D01*
X936300Y-464895D01*
Y-463105D01*
X935615Y-461451D01*
X934349Y-460185D01*
X932695Y-459500D01*
D02*
G37*
G36*
X1261100Y-420437D02*
X1251500D01*
X1250251Y-420686D01*
X1249193Y-421393D01*
X1248486Y-422451D01*
X1248237Y-423700D01*
Y-451300D01*
X1248486Y-452548D01*
X1249193Y-453607D01*
X1250251Y-454314D01*
X1251202Y-454503D01*
Y-459388D01*
X1250674Y-459917D01*
X1250285D01*
X1248334Y-460305D01*
X1246681Y-461410D01*
X1244654Y-463436D01*
X1234308D01*
X1233266Y-462166D01*
X1233398Y-461500D01*
Y-454563D01*
X1236100D01*
X1237349Y-454314D01*
X1238407Y-453607D01*
X1239114Y-452548D01*
X1239363Y-451300D01*
Y-423700D01*
X1239114Y-422451D01*
X1238407Y-421393D01*
X1237349Y-420686D01*
X1236100Y-420437D01*
X1226500D01*
X1225251Y-420686D01*
X1224193Y-421393D01*
X1223486Y-422451D01*
X1223237Y-423700D01*
Y-440322D01*
X1223202Y-440500D01*
Y-459388D01*
X1219195Y-463395D01*
X1218090Y-465049D01*
X1217702Y-467000D01*
Y-496500D01*
X1218090Y-498451D01*
X1219195Y-500105D01*
X1229736Y-510646D01*
Y-529240D01*
X1229989Y-530512D01*
X1230710Y-531590D01*
X1231788Y-532311D01*
X1233060Y-532564D01*
X1235387D01*
Y-572685D01*
X1235775Y-574636D01*
X1236880Y-576290D01*
X1241195Y-580605D01*
X1242849Y-581710D01*
X1244800Y-582098D01*
X1262907D01*
X1263433Y-582144D01*
X1264157Y-582265D01*
X1264717Y-582416D01*
X1265107Y-582575D01*
X1265333Y-582713D01*
X1265427Y-582801D01*
X1265452Y-582839D01*
X1265468Y-582882D01*
X1265500Y-583190D01*
Y-593000D01*
X1297500D01*
Y-561000D01*
X1265500D01*
Y-570810D01*
X1265468Y-571118D01*
X1265452Y-571161D01*
X1265427Y-571199D01*
X1265333Y-571287D01*
X1265107Y-571425D01*
X1264717Y-571584D01*
X1264157Y-571735D01*
X1263433Y-571856D01*
X1262907Y-571902D01*
X1246912D01*
X1245583Y-570574D01*
Y-532564D01*
X1248540D01*
X1249812Y-532311D01*
X1250890Y-531590D01*
X1251611Y-530512D01*
X1251864Y-529240D01*
Y-506760D01*
X1251611Y-505488D01*
X1250890Y-504410D01*
X1249812Y-503689D01*
X1248540Y-503436D01*
X1236946D01*
X1227898Y-494388D01*
Y-469441D01*
X1228466Y-468998D01*
X1229736Y-469618D01*
Y-489240D01*
X1229989Y-490512D01*
X1230710Y-491590D01*
X1231788Y-492311D01*
X1233060Y-492564D01*
X1244654D01*
X1248453Y-496362D01*
X1250107Y-497467D01*
X1252057Y-497855D01*
X1256446D01*
X1257702Y-499112D01*
Y-522000D01*
X1258090Y-523951D01*
X1259195Y-525605D01*
X1284195Y-550605D01*
X1285849Y-551710D01*
X1287800Y-552098D01*
X1300188D01*
X1313694Y-565604D01*
X1314203Y-566339D01*
X1314672Y-567205D01*
X1315090Y-568195D01*
X1315451Y-569314D01*
X1315750Y-570563D01*
X1315980Y-571914D01*
X1316242Y-575107D01*
X1316262Y-576882D01*
X1316300Y-577065D01*
Y-578576D01*
X1316915Y-581667D01*
X1318121Y-584579D01*
X1319872Y-587199D01*
X1322101Y-589428D01*
X1324721Y-591179D01*
X1327633Y-592385D01*
X1330724Y-593000D01*
X1333876D01*
X1336967Y-592385D01*
X1339879Y-591179D01*
X1342499Y-589428D01*
X1344728Y-587199D01*
X1346479Y-584579D01*
X1347685Y-581667D01*
X1348300Y-578576D01*
Y-575424D01*
X1347685Y-572333D01*
X1346479Y-569421D01*
X1344728Y-566801D01*
X1342499Y-564572D01*
X1339879Y-562821D01*
X1336967Y-561615D01*
X1333876Y-561000D01*
X1332388D01*
X1332228Y-560963D01*
X1328724Y-560846D01*
X1327241Y-560684D01*
X1325863Y-560450D01*
X1324614Y-560151D01*
X1323495Y-559790D01*
X1322505Y-559372D01*
X1321640Y-558903D01*
X1320904Y-558394D01*
X1305905Y-543395D01*
X1304251Y-542290D01*
X1302300Y-541902D01*
X1289912D01*
X1267898Y-519888D01*
Y-497000D01*
X1267510Y-495049D01*
X1266405Y-493395D01*
X1262162Y-489153D01*
X1260508Y-488047D01*
X1258557Y-487659D01*
X1254169D01*
X1251864Y-485354D01*
Y-470646D01*
X1252397Y-470113D01*
X1252785D01*
X1254736Y-469725D01*
X1256390Y-468619D01*
X1259905Y-465105D01*
X1261010Y-463451D01*
X1261398Y-461500D01*
Y-454503D01*
X1262349Y-454314D01*
X1263407Y-453607D01*
X1264114Y-452548D01*
X1264363Y-451300D01*
Y-423700D01*
X1264114Y-422451D01*
X1263407Y-421393D01*
X1262349Y-420686D01*
X1261100Y-420437D01*
D02*
G37*
G36*
X1365800Y-401412D02*
X1192800D01*
X1191044Y-401761D01*
X1189556Y-402756D01*
X1155556Y-436756D01*
X1120900Y-471412D01*
X837701D01*
X829044Y-462756D01*
X827556Y-461761D01*
X825800Y-461412D01*
X701800D01*
X42656Y-461412D01*
X42538Y-461363D01*
X40747D01*
X39093Y-462048D01*
X37828Y-463314D01*
X37505Y-464092D01*
X37404Y-464244D01*
X37368Y-464423D01*
X37143Y-464968D01*
Y-465557D01*
X37054Y-466000D01*
X37143Y-466443D01*
Y-466758D01*
X37263Y-467049D01*
X37404Y-467756D01*
X37804Y-468355D01*
X37828Y-468412D01*
X37871Y-468455D01*
X38398Y-469244D01*
X39887Y-470239D01*
X41642Y-470588D01*
X701800Y-470588D01*
X823900D01*
X831556Y-478244D01*
X831556Y-478244D01*
X832556Y-479244D01*
X834044Y-480239D01*
X835800Y-480588D01*
X1122800D01*
X1124556Y-480239D01*
X1126044Y-479244D01*
X1162044Y-443244D01*
X1194700Y-410588D01*
X1365800D01*
X1366243Y-410500D01*
X1366379D01*
X1366504Y-410448D01*
X1367556Y-410239D01*
X1369044Y-409244D01*
X1370039Y-407756D01*
X1370388Y-406000D01*
X1370039Y-404244D01*
X1369044Y-402756D01*
X1367556Y-401761D01*
X1366504Y-401552D01*
X1366379Y-401500D01*
X1366243D01*
X1365800Y-401412D01*
D02*
G37*
G36*
X752550Y-485191D02*
X746550D01*
X745379Y-485424D01*
X744387Y-486087D01*
X743724Y-487079D01*
X743603Y-487686D01*
X719850D01*
X719349Y-487185D01*
X717695Y-486500D01*
X715905D01*
X714251Y-487185D01*
X712985Y-488451D01*
X712300Y-490105D01*
Y-491895D01*
X712985Y-493549D01*
X714251Y-494815D01*
X715905Y-495500D01*
X717695D01*
X719349Y-494815D01*
X719850Y-494314D01*
X743491D01*
Y-495750D01*
X743724Y-496921D01*
X744387Y-497913D01*
X745379Y-498576D01*
X746550Y-498809D01*
X752550D01*
X753720Y-498576D01*
X754713Y-497913D01*
X755376Y-496921D01*
X755609Y-495750D01*
Y-488250D01*
X755376Y-487079D01*
X754713Y-486087D01*
X753720Y-485424D01*
X752550Y-485191D01*
D02*
G37*
G36*
X1113050Y-505391D02*
X1105550D01*
X1104380Y-505624D01*
X1103387Y-506287D01*
X1102724Y-507280D01*
X1102602Y-507891D01*
X739055D01*
X738349Y-507185D01*
X736695Y-506500D01*
X734905D01*
X733251Y-507185D01*
X731985Y-508451D01*
X731300Y-510105D01*
Y-511895D01*
X731985Y-513549D01*
X733251Y-514815D01*
X734905Y-515500D01*
X736695D01*
X738349Y-514815D01*
X738605Y-514559D01*
X1102513D01*
X1102724Y-515620D01*
X1103387Y-516613D01*
X1104380Y-517276D01*
X1105550Y-517509D01*
X1113050D01*
X1114221Y-517276D01*
X1115213Y-516613D01*
X1115876Y-515620D01*
X1116109Y-514450D01*
Y-508450D01*
X1115876Y-507280D01*
X1115213Y-506287D01*
X1114221Y-505624D01*
X1113050Y-505391D01*
D02*
G37*
G36*
X1345674Y-501000D02*
X1342326D01*
X1339041Y-501653D01*
X1335948Y-502935D01*
X1333163Y-504795D01*
X1330795Y-507163D01*
X1328935Y-509948D01*
X1327653Y-513041D01*
X1327000Y-516326D01*
Y-519674D01*
X1327653Y-522959D01*
X1328935Y-526053D01*
X1330795Y-528837D01*
X1333163Y-531205D01*
X1335948Y-533065D01*
X1339041Y-534347D01*
X1342326Y-535000D01*
X1345674D01*
X1348959Y-534347D01*
X1352052Y-533065D01*
X1354837Y-531205D01*
X1357205Y-528837D01*
X1359065Y-526053D01*
X1360347Y-522959D01*
X1361000Y-519674D01*
Y-516326D01*
X1360347Y-513041D01*
X1359065Y-509948D01*
X1357205Y-507163D01*
X1354837Y-504795D01*
X1352052Y-502935D01*
X1348959Y-501653D01*
X1345674Y-501000D01*
D02*
G37*
G36*
X195574Y-501000D02*
X192226D01*
X188941Y-501653D01*
X185847Y-502935D01*
X183063Y-504795D01*
X180695Y-507163D01*
X178835Y-509948D01*
X177553Y-513041D01*
X176900Y-516326D01*
Y-519674D01*
X177553Y-522959D01*
X178835Y-526053D01*
X180695Y-528837D01*
X183063Y-531205D01*
X185847Y-533065D01*
X188941Y-534347D01*
X192226Y-535000D01*
X195574D01*
X198859Y-534347D01*
X201952Y-533065D01*
X204737Y-531205D01*
X207105Y-528837D01*
X208965Y-526053D01*
X210247Y-522959D01*
X210900Y-519674D01*
Y-516326D01*
X210247Y-513041D01*
X208965Y-509948D01*
X207105Y-507163D01*
X204737Y-504795D01*
X201952Y-502935D01*
X198859Y-501653D01*
X195574Y-501000D01*
D02*
G37*
G36*
X841525Y-533530D02*
X831755D01*
Y-535913D01*
X831883Y-535998D01*
X832099Y-536075D01*
X832340Y-536100D01*
X831755D01*
Y-543299D01*
X841525D01*
Y-533530D01*
D02*
G37*
G36*
X829215D02*
X819445D01*
Y-543299D01*
X829215D01*
Y-536100D01*
X827260D01*
X827501Y-536075D01*
X827717Y-535998D01*
X827908Y-535872D01*
X828073Y-535694D01*
X828213Y-535465D01*
X828327Y-535186D01*
X828416Y-534855D01*
X828479Y-534474D01*
X828517Y-534043D01*
X828530Y-533560D01*
X829215D01*
Y-533530D01*
D02*
G37*
G36*
X933467Y-534070D02*
X930703D01*
X928032Y-534785D01*
X925638Y-536167D01*
X923683Y-538122D01*
X922300Y-540517D01*
X921585Y-543187D01*
Y-545952D01*
X922300Y-548622D01*
X923683Y-551017D01*
X925638Y-552972D01*
X928032Y-554354D01*
X930703Y-555070D01*
X933467D01*
X936138Y-554354D01*
X938532Y-552972D01*
X939412Y-552092D01*
X939557Y-552000D01*
X941199Y-550445D01*
X941911Y-549855D01*
X942597Y-549347D01*
X943234Y-548932D01*
X943820Y-548609D01*
X944348Y-548374D01*
X944812Y-548221D01*
X945211Y-548138D01*
X945215Y-548138D01*
X962300D01*
Y-554500D01*
X981300D01*
Y-535500D01*
X962300D01*
Y-541001D01*
X945215D01*
X945211Y-541001D01*
X944812Y-540918D01*
X944348Y-540765D01*
X943820Y-540530D01*
X943234Y-540207D01*
X942597Y-539792D01*
X941931Y-539298D01*
X940399Y-537967D01*
X939585Y-537166D01*
X939426Y-537061D01*
X938532Y-536167D01*
X936138Y-534785D01*
X933467Y-534070D01*
D02*
G37*
G36*
X908067D02*
X905303D01*
X902632Y-534785D01*
X900238Y-536167D01*
X898283Y-538122D01*
X896900Y-540517D01*
X896185Y-543187D01*
Y-545952D01*
X896900Y-548622D01*
X898283Y-551017D01*
X900238Y-552972D01*
X902632Y-554354D01*
X905303Y-555070D01*
X908067D01*
X910738Y-554354D01*
X913132Y-552972D01*
X915087Y-551017D01*
X916469Y-548622D01*
X917185Y-545952D01*
Y-543187D01*
X916469Y-540517D01*
X915087Y-538122D01*
X913132Y-536167D01*
X910738Y-534785D01*
X908067Y-534070D01*
D02*
G37*
G36*
X882667D02*
X879902D01*
X877232Y-534785D01*
X874838Y-536167D01*
X872883Y-538122D01*
X871500Y-540517D01*
X870785Y-543187D01*
Y-545952D01*
X871500Y-548622D01*
X872883Y-551017D01*
X874838Y-552972D01*
X877232Y-554354D01*
X879902Y-555070D01*
X882667D01*
X885338Y-554354D01*
X887732Y-552972D01*
X889687Y-551017D01*
X891069Y-548622D01*
X891785Y-545952D01*
Y-543187D01*
X891069Y-540517D01*
X889687Y-538122D01*
X887732Y-536167D01*
X885338Y-534785D01*
X882667Y-534070D01*
D02*
G37*
G36*
X857267D02*
X854502D01*
X851832Y-534785D01*
X849438Y-536167D01*
X847483Y-538122D01*
X846100Y-540517D01*
X845385Y-543187D01*
Y-545952D01*
X846100Y-548622D01*
X847483Y-551017D01*
X849438Y-552972D01*
X851832Y-554354D01*
X854502Y-555070D01*
X857267D01*
X859938Y-554354D01*
X862332Y-552972D01*
X864287Y-551017D01*
X865669Y-548622D01*
X866385Y-545952D01*
Y-543187D01*
X865669Y-540517D01*
X864287Y-538122D01*
X862332Y-536167D01*
X859938Y-534785D01*
X857267Y-534070D01*
D02*
G37*
G36*
X841525Y-545839D02*
X831755D01*
Y-553039D01*
X833340D01*
X833099Y-553064D01*
X832883Y-553141D01*
X832692Y-553268D01*
X832527Y-553446D01*
X832387Y-553674D01*
X832273Y-553954D01*
X832184Y-554284D01*
X832121Y-554665D01*
X832083Y-555097D01*
X832070Y-555579D01*
X831755D01*
Y-555610D01*
X841525D01*
Y-545839D01*
D02*
G37*
G36*
X829215D02*
X819445D01*
Y-555610D01*
X829215D01*
Y-553680D01*
X829212Y-553674D01*
X829073Y-553446D01*
X828908Y-553268D01*
X828717Y-553141D01*
X828501Y-553064D01*
X828260Y-553039D01*
X829215D01*
Y-545839D01*
D02*
G37*
G36*
X1113050Y-521891D02*
X1105550D01*
X1104380Y-522124D01*
X1103387Y-522787D01*
X1102724Y-523779D01*
X1102491Y-524950D01*
Y-530950D01*
X1102724Y-532121D01*
X1103387Y-533113D01*
X1104380Y-533776D01*
X1105550Y-534009D01*
X1105986D01*
Y-539197D01*
X1105980Y-539276D01*
X1105891Y-539656D01*
X1105717Y-540131D01*
X1105444Y-540692D01*
X1105068Y-541329D01*
X1104584Y-542033D01*
X1104005Y-542782D01*
X1102471Y-544507D01*
X1101550Y-545438D01*
X1101444Y-545600D01*
X1100498Y-546546D01*
X1099050Y-549054D01*
X1098300Y-551852D01*
Y-554748D01*
X1099050Y-557546D01*
X1100498Y-560054D01*
X1102546Y-562102D01*
X1105054Y-563550D01*
X1107852Y-564300D01*
X1110748D01*
X1113546Y-563550D01*
X1116054Y-562102D01*
X1118102Y-560054D01*
X1119550Y-557546D01*
X1120300Y-554748D01*
Y-551852D01*
X1119550Y-549054D01*
X1118102Y-546546D01*
X1117156Y-545600D01*
X1117050Y-545438D01*
X1116129Y-544507D01*
X1114595Y-542782D01*
X1114016Y-542033D01*
X1113532Y-541329D01*
X1113156Y-540692D01*
X1112884Y-540131D01*
X1112709Y-539656D01*
X1112620Y-539276D01*
X1112614Y-539197D01*
Y-534009D01*
X1113050D01*
X1114221Y-533776D01*
X1115213Y-533113D01*
X1115876Y-532121D01*
X1116109Y-530950D01*
Y-524950D01*
X1115876Y-523779D01*
X1115213Y-522787D01*
X1114221Y-522124D01*
X1113050Y-521891D01*
D02*
G37*
G36*
X1120840Y-567160D02*
X1110570D01*
Y-577430D01*
X1120840D01*
Y-567160D01*
D02*
G37*
G36*
X1108030D02*
X1097760D01*
Y-577430D01*
X1108030D01*
Y-567160D01*
D02*
G37*
G36*
X1120840Y-579970D02*
X1110570D01*
Y-590240D01*
X1120840D01*
Y-579970D01*
D02*
G37*
G36*
X1108030D02*
X1097760D01*
Y-590240D01*
X1108030D01*
Y-579970D01*
D02*
G37*
%LPD*%
G36*
X1323831Y-139105D02*
X1323915Y-140529D01*
X1323941Y-140640D01*
X1323971Y-140715D01*
X1324004Y-140753D01*
X1321012Y-139736D01*
X1321065Y-139733D01*
X1321112Y-139708D01*
X1321153Y-139662D01*
X1321189Y-139594D01*
X1321220Y-139505D01*
X1321245Y-139395D01*
X1321264Y-139263D01*
X1321278Y-139111D01*
X1321289Y-138741D01*
X1323829D01*
X1323831Y-139105D01*
D02*
G37*
G36*
X779597Y-136992D02*
X777153Y-139435D01*
X775845D01*
X774007Y-140197D01*
X772601Y-141603D01*
X771840Y-143441D01*
Y-145430D01*
X772601Y-147268D01*
X774007Y-148674D01*
X775845Y-149435D01*
X777834D01*
X779672Y-148674D01*
X781078Y-147268D01*
X781840Y-145430D01*
Y-144122D01*
X785648Y-140314D01*
X1261427D01*
X1295530Y-174416D01*
X1295004Y-175686D01*
X1187035D01*
X1185778Y-175436D01*
X1071686D01*
X1070418Y-175688D01*
X1069343Y-176407D01*
X1065564Y-180186D01*
X1038805D01*
X1038099Y-179130D01*
X1038300Y-178645D01*
Y-176855D01*
X1037615Y-175201D01*
X1036349Y-173935D01*
X1034695Y-173250D01*
X1032905D01*
X1031251Y-173935D01*
X1030375Y-174811D01*
X954655D01*
X953379Y-175065D01*
X952298Y-175788D01*
X935419Y-192666D01*
X816800D01*
X815524Y-192920D01*
X814443Y-193642D01*
X810585Y-197500D01*
X809905D01*
X808251Y-198185D01*
X806985Y-199451D01*
X806300Y-201105D01*
Y-202895D01*
X806985Y-204549D01*
X808251Y-205815D01*
X809905Y-206500D01*
X811695D01*
X813349Y-205815D01*
X814615Y-204549D01*
X815300Y-202895D01*
Y-202215D01*
X818181Y-199334D01*
X932682D01*
X933361Y-200604D01*
X933306Y-200686D01*
X827800D01*
X826532Y-200939D01*
X825457Y-201657D01*
X804251Y-222862D01*
X802981Y-222336D01*
Y-209145D01*
X802797Y-208218D01*
X802272Y-207432D01*
X801487Y-206907D01*
X800560Y-206723D01*
X798310D01*
X797769Y-206279D01*
Y-204879D01*
X814212Y-188436D01*
X815625D01*
X816844Y-188194D01*
X817878Y-187503D01*
X818569Y-186469D01*
X818811Y-185250D01*
Y-184121D01*
X821925D01*
X822168Y-184364D01*
X824006Y-185125D01*
X825995D01*
X827832Y-184364D01*
X829239Y-182957D01*
X830000Y-181120D01*
Y-179130D01*
X829239Y-177293D01*
X827832Y-175886D01*
X825995Y-175125D01*
X824006D01*
X822168Y-175886D01*
X820761Y-177293D01*
X820695Y-177453D01*
X818603D01*
X818569Y-177281D01*
X817878Y-176247D01*
X816844Y-175556D01*
X815625Y-175314D01*
X808375D01*
X807156Y-175556D01*
X806122Y-176247D01*
X805431Y-177281D01*
X805189Y-178500D01*
Y-185250D01*
X805431Y-186469D01*
X805959Y-187259D01*
X798839Y-194379D01*
X797569Y-193853D01*
Y-188436D01*
X797625D01*
X798844Y-188194D01*
X799878Y-187503D01*
X800569Y-186469D01*
X800811Y-185250D01*
Y-178500D01*
X800569Y-177281D01*
X799878Y-176247D01*
X798844Y-175556D01*
X797625Y-175314D01*
X790375D01*
X789156Y-175556D01*
X788122Y-176247D01*
X787431Y-177281D01*
X787189Y-178500D01*
Y-185250D01*
X787431Y-186469D01*
X788122Y-187503D01*
X789156Y-188194D01*
X790375Y-188436D01*
X790432D01*
Y-193822D01*
X788888Y-195365D01*
X788540D01*
X786886Y-196050D01*
X785620Y-197316D01*
X784935Y-198970D01*
Y-200760D01*
X785620Y-202414D01*
X785866Y-202661D01*
Y-206472D01*
X785560Y-206723D01*
X783310D01*
X782383Y-206907D01*
X781935Y-207207D01*
X781487Y-206907D01*
X780560Y-206723D01*
X778310D01*
X777383Y-206907D01*
X776935Y-207207D01*
X776487Y-206907D01*
X775560Y-206723D01*
X773310D01*
X772383Y-206907D01*
X771935Y-207207D01*
X771487Y-206907D01*
X770560Y-206723D01*
X768310D01*
X768003Y-206472D01*
Y-162435D01*
X767732Y-161069D01*
X766958Y-159911D01*
X750648Y-143602D01*
X749491Y-142828D01*
X748125Y-142556D01*
X740303D01*
X739632Y-141886D01*
X737795Y-141125D01*
X735806D01*
X733968Y-141886D01*
X732561Y-143293D01*
X731800Y-145130D01*
Y-147120D01*
X732181Y-148041D01*
Y-154352D01*
X731156Y-154556D01*
X730122Y-155247D01*
X729431Y-156281D01*
X729189Y-157500D01*
Y-164750D01*
X729431Y-165969D01*
X730122Y-167003D01*
X731156Y-167694D01*
X732181Y-167898D01*
Y-172352D01*
X731156Y-172556D01*
X730122Y-173247D01*
X729431Y-174281D01*
X729189Y-175500D01*
Y-182750D01*
X729431Y-183969D01*
X730122Y-185003D01*
X730741Y-185416D01*
X730355Y-186686D01*
X694800D01*
X693532Y-186939D01*
X692457Y-187657D01*
X686320Y-193794D01*
X685333Y-192985D01*
X685376Y-192920D01*
X685609Y-191750D01*
Y-185750D01*
X685376Y-184580D01*
X684713Y-183587D01*
X684302Y-183312D01*
X684029Y-181789D01*
X686323Y-179494D01*
X687097Y-178337D01*
X687369Y-176971D01*
Y-138549D01*
X690099Y-135819D01*
X779111D01*
X779597Y-136992D01*
D02*
G37*
G36*
X760866Y-163913D02*
Y-216520D01*
X760888Y-216630D01*
Y-223895D01*
X761073Y-224821D01*
X761598Y-225607D01*
X762383Y-226132D01*
X763310Y-226316D01*
X765560D01*
X766487Y-226132D01*
X766935Y-225832D01*
X767383Y-226132D01*
X768310Y-226316D01*
X770560D01*
X771487Y-226132D01*
X771935Y-225832D01*
X772383Y-226132D01*
X773310Y-226316D01*
X773888D01*
X774140Y-227586D01*
X773718Y-227761D01*
X772311Y-229168D01*
X771550Y-231005D01*
Y-231367D01*
X770461Y-232456D01*
X739805D01*
X739099Y-231400D01*
X739300Y-230915D01*
Y-229125D01*
X738663Y-227586D01*
X738869Y-227014D01*
X739257Y-226316D01*
X740560D01*
X741487Y-226132D01*
X741935Y-225832D01*
X742383Y-226132D01*
X743310Y-226316D01*
X745560D01*
X746487Y-226132D01*
X746935Y-225832D01*
X747383Y-226132D01*
X748310Y-226316D01*
X750560D01*
X751487Y-226132D01*
X752272Y-225607D01*
X752797Y-224821D01*
X752981Y-223895D01*
Y-216630D01*
X753003Y-216520D01*
Y-194635D01*
X752732Y-193269D01*
X751958Y-192111D01*
X742311Y-182465D01*
Y-175500D01*
X742069Y-174281D01*
X741378Y-173247D01*
X740344Y-172556D01*
X739319Y-172352D01*
Y-167898D01*
X740344Y-167694D01*
X741378Y-167003D01*
X742069Y-165969D01*
X742311Y-164750D01*
Y-157500D01*
X742069Y-156281D01*
X741378Y-155247D01*
X740344Y-154556D01*
X739319Y-154352D01*
Y-150494D01*
X739632Y-150364D01*
X740303Y-149694D01*
X746647D01*
X760866Y-163913D01*
D02*
G37*
G36*
X1032224Y-274921D02*
X1032887Y-275913D01*
X1033879Y-276576D01*
X1035050Y-276809D01*
X1042550D01*
X1043721Y-276576D01*
X1043961Y-276415D01*
X1045231Y-277094D01*
Y-280906D01*
X1043961Y-281585D01*
X1043721Y-281424D01*
X1042550Y-281191D01*
X1035050D01*
X1033879Y-281424D01*
X1032887Y-282087D01*
X1032224Y-283079D01*
X1031991Y-284250D01*
Y-289344D01*
X1030112Y-291223D01*
X1029389Y-292304D01*
X1029136Y-293580D01*
Y-304629D01*
X1027962Y-305115D01*
X1013369Y-290522D01*
Y-275926D01*
X1014639Y-275541D01*
X1014887Y-275913D01*
X1015880Y-276576D01*
X1017050Y-276809D01*
X1024550D01*
X1025721Y-276576D01*
X1026713Y-275913D01*
X1027376Y-274921D01*
X1027496Y-274319D01*
X1032104D01*
X1032224Y-274921D01*
D02*
G37*
G36*
X1359462Y-136994D02*
X1359923Y-137315D01*
X1360478Y-137637D01*
X1361129Y-137961D01*
X1362713Y-138613D01*
X1363647Y-138940D01*
X1367018Y-139932D01*
X1357289Y-145481D01*
X1357534Y-144515D01*
X1357704Y-143603D01*
X1357800Y-142743D01*
X1357821Y-141936D01*
X1357767Y-141181D01*
X1357639Y-140480D01*
X1357437Y-139831D01*
X1357159Y-139236D01*
X1356808Y-138693D01*
X1356381Y-138203D01*
X1359095Y-136674D01*
X1359462Y-136994D01*
D02*
G37*
G36*
X1390166Y-249661D02*
X1390717Y-250024D01*
X1391351Y-250343D01*
X1392066Y-250618D01*
X1392863Y-250848D01*
X1393741Y-251034D01*
X1394702Y-251176D01*
X1395744Y-251274D01*
X1398072Y-251338D01*
X1389658Y-259752D01*
X1389648Y-258547D01*
X1389496Y-256381D01*
X1389354Y-255421D01*
X1389168Y-254543D01*
X1388938Y-253746D01*
X1388663Y-253031D01*
X1388344Y-252397D01*
X1387982Y-251845D01*
X1387574Y-251376D01*
X1389696Y-249254D01*
X1390166Y-249661D01*
D02*
G37*
G36*
X1323854Y-254391D02*
X1323931Y-255043D01*
X1324058Y-255697D01*
X1324236Y-256355D01*
X1324464Y-257014D01*
X1324744Y-257677D01*
X1325074Y-258342D01*
X1325456Y-259010D01*
X1325888Y-259680D01*
X1326371Y-260353D01*
X1317856Y-257458D01*
X1318508Y-257250D01*
X1319092Y-257006D01*
X1319607Y-256725D01*
X1320053Y-256408D01*
X1320431Y-256055D01*
X1320740Y-255665D01*
X1320980Y-255239D01*
X1321152Y-254776D01*
X1321255Y-254277D01*
X1321289Y-253741D01*
X1323829D01*
X1323854Y-254391D01*
D02*
G37*
G36*
X1392087Y-291187D02*
X1391228Y-290342D01*
X1389590Y-288918D01*
X1388810Y-288339D01*
X1388057Y-287850D01*
X1387331Y-287449D01*
X1386631Y-287138D01*
X1385958Y-286915D01*
X1385311Y-286782D01*
X1384691Y-286737D01*
Y-283737D01*
X1385311Y-283693D01*
X1385958Y-283559D01*
X1386631Y-283337D01*
X1387331Y-283025D01*
X1388057Y-282625D01*
X1388810Y-282135D01*
X1389590Y-281557D01*
X1390396Y-280889D01*
X1392087Y-279287D01*
Y-291187D01*
D02*
G37*
G36*
X695388Y-289645D02*
Y-291895D01*
X695573Y-292821D01*
X695872Y-293270D01*
X695573Y-293718D01*
X695388Y-294645D01*
Y-296895D01*
X695573Y-297821D01*
X695872Y-298270D01*
X695573Y-298718D01*
X695388Y-299645D01*
Y-301895D01*
X695573Y-302821D01*
X695872Y-303270D01*
X695573Y-303718D01*
X695388Y-304645D01*
Y-306895D01*
X695573Y-307821D01*
X695872Y-308270D01*
X695573Y-308718D01*
X695388Y-309645D01*
Y-311895D01*
X695555Y-312731D01*
X695548Y-312861D01*
X694833Y-314001D01*
X691587D01*
X690917Y-313331D01*
X689079Y-312570D01*
X687090D01*
X685253Y-313331D01*
X683846Y-314737D01*
X683085Y-316575D01*
Y-318564D01*
X683846Y-320402D01*
X685253Y-321808D01*
X687090Y-322570D01*
X689079D01*
X690917Y-321808D01*
X691587Y-321138D01*
X725866D01*
Y-330020D01*
X725888Y-330130D01*
Y-337395D01*
X726073Y-338321D01*
X726598Y-339107D01*
X727383Y-339632D01*
X728123Y-339779D01*
X728426Y-340306D01*
X728612Y-341086D01*
X723668Y-346030D01*
X714835D01*
X714639Y-346069D01*
X714439Y-346069D01*
X714252Y-346146D01*
X714054Y-346186D01*
X713888Y-346297D01*
X713704Y-346373D01*
X712970Y-346375D01*
X712783Y-346298D01*
X712615Y-346186D01*
X712419Y-346147D01*
X712235Y-346070D01*
X712033Y-346070D01*
X711835Y-346030D01*
X710403D01*
Y-340035D01*
X710132Y-338669D01*
X709358Y-337511D01*
X698893Y-327046D01*
X697735Y-326273D01*
X696370Y-326001D01*
X682765D01*
X682178Y-325122D01*
X681144Y-324431D01*
X680903Y-324383D01*
Y-298798D01*
X690363Y-289338D01*
X695137D01*
X695388Y-289645D01*
D02*
G37*
G36*
X726335Y-363070D02*
X714835D01*
X719835Y-355570D01*
X714835Y-348070D01*
X726335D01*
Y-363070D01*
D02*
G37*
G36*
X716835Y-355570D02*
X711835Y-363070D01*
X701835D01*
Y-348070D01*
X711835D01*
X716835Y-355570D01*
D02*
G37*
G36*
X1392087Y-316587D02*
X1391228Y-315742D01*
X1389590Y-314318D01*
X1388810Y-313739D01*
X1388057Y-313250D01*
X1387331Y-312849D01*
X1386631Y-312538D01*
X1385958Y-312315D01*
X1385311Y-312182D01*
X1384691Y-312137D01*
Y-309137D01*
X1385311Y-309093D01*
X1385958Y-308959D01*
X1386631Y-308737D01*
X1387331Y-308425D01*
X1388057Y-308025D01*
X1388810Y-307535D01*
X1389590Y-306957D01*
X1390396Y-306289D01*
X1392087Y-304687D01*
Y-316587D01*
D02*
G37*
G36*
X1389688Y-339037D02*
X1389658Y-338752D01*
X1389568Y-338497D01*
X1389418Y-338272D01*
X1389208Y-338077D01*
X1388938Y-337912D01*
X1388608Y-337777D01*
X1388218Y-337672D01*
X1387768Y-337597D01*
X1387258Y-337552D01*
X1386688Y-337537D01*
Y-334537D01*
X1387258Y-334522D01*
X1387768Y-334477D01*
X1388218Y-334402D01*
X1388608Y-334297D01*
X1388938Y-334162D01*
X1389208Y-333997D01*
X1389418Y-333802D01*
X1389568Y-333577D01*
X1389658Y-333322D01*
X1389688Y-333037D01*
Y-339037D01*
D02*
G37*
G36*
X1359613Y-372142D02*
X1360089Y-372472D01*
X1360657Y-372795D01*
X1361314Y-373110D01*
X1362063Y-373418D01*
X1363831Y-374012D01*
X1365962Y-374576D01*
X1367163Y-374848D01*
X1357697Y-380834D01*
X1357903Y-379840D01*
X1358039Y-378903D01*
X1358106Y-378022D01*
X1358103Y-377197D01*
X1358030Y-376430D01*
X1357887Y-375719D01*
X1357674Y-375064D01*
X1357392Y-374466D01*
X1357040Y-373924D01*
X1356618Y-373439D01*
X1359227Y-371805D01*
X1359613Y-372142D01*
D02*
G37*
G36*
X1324336Y-373695D02*
X1324390Y-374489D01*
X1324438Y-374829D01*
X1324500Y-375132D01*
X1324574Y-375396D01*
X1324663Y-375622D01*
X1324766Y-375811D01*
X1324882Y-375961D01*
X1325011Y-376074D01*
X1320915Y-374681D01*
X1321081Y-374675D01*
X1321229Y-374639D01*
X1321361Y-374571D01*
X1321474Y-374473D01*
X1321570Y-374345D01*
X1321649Y-374185D01*
X1321710Y-373995D01*
X1321754Y-373775D01*
X1321780Y-373523D01*
X1321789Y-373241D01*
X1324329D01*
X1324336Y-373695D01*
D02*
G37*
G36*
X1319634Y-559995D02*
X1320571Y-560643D01*
X1321620Y-561212D01*
X1322784Y-561703D01*
X1324062Y-562116D01*
X1325454Y-562449D01*
X1326960Y-562705D01*
X1328579Y-562882D01*
X1332160Y-563001D01*
X1318301Y-576860D01*
X1318280Y-575013D01*
X1318005Y-571660D01*
X1317749Y-570154D01*
X1317415Y-568762D01*
X1317003Y-567484D01*
X1316512Y-566320D01*
X1315943Y-565271D01*
X1315296Y-564334D01*
X1314570Y-563512D01*
X1318812Y-559269D01*
X1319634Y-559995D01*
D02*
G37*
G36*
X1267531Y-583000D02*
X1267470Y-582430D01*
X1267290Y-581920D01*
X1266991Y-581470D01*
X1266571Y-581080D01*
X1266031Y-580750D01*
X1265370Y-580480D01*
X1264591Y-580270D01*
X1263690Y-580120D01*
X1262671Y-580030D01*
X1261531Y-580000D01*
Y-574000D01*
X1262671Y-573970D01*
X1263690Y-573880D01*
X1264591Y-573730D01*
X1265370Y-573520D01*
X1266031Y-573250D01*
X1266571Y-572920D01*
X1266991Y-572530D01*
X1267290Y-572080D01*
X1267470Y-571570D01*
X1267531Y-571000D01*
Y-583000D01*
D02*
G37*
G36*
X939014Y-539465D02*
X940653Y-540889D01*
X941432Y-541468D01*
X942185Y-541957D01*
X942911Y-542358D01*
X943611Y-542669D01*
X944285Y-542892D01*
X944931Y-543025D01*
X945551Y-543070D01*
Y-546070D01*
X944931Y-546114D01*
X944285Y-546248D01*
X943611Y-546470D01*
X942911Y-546782D01*
X942185Y-547182D01*
X941432Y-547672D01*
X940653Y-548250D01*
X939847Y-548918D01*
X938155Y-550520D01*
Y-538620D01*
X939014Y-539465D01*
D02*
G37*
G36*
X1110601Y-539594D02*
X1110752Y-540242D01*
X1111004Y-540930D01*
X1111358Y-541658D01*
X1111813Y-542426D01*
X1112368Y-543235D01*
X1113025Y-544084D01*
X1114641Y-545903D01*
X1115600Y-546873D01*
X1103000D01*
X1103960Y-545903D01*
X1105575Y-544084D01*
X1106232Y-543235D01*
X1106787Y-542426D01*
X1107242Y-541658D01*
X1107596Y-540930D01*
X1107848Y-540242D01*
X1107999Y-539594D01*
X1108050Y-538987D01*
X1110550D01*
X1110601Y-539594D01*
D02*
G37*
%LPC*%
G36*
X-13852Y-600579D02*
X-14452D01*
X-14677Y-600604D01*
X-14951D01*
X-15276Y-600654D01*
X-15651Y-600704D01*
X-16001Y-600754D01*
X-16376Y-600854D01*
Y-607077D01*
X-16326D01*
X-16226Y-607102D01*
X-16026Y-607127D01*
X-15751Y-607152D01*
X-15426Y-607177D01*
X-15051Y-607202D01*
X-14627Y-607227D01*
X-13702D01*
X-13552Y-607202D01*
X-13152Y-607177D01*
X-12727Y-607127D01*
X-12277Y-607077D01*
X-11877Y-606977D01*
X-11502Y-606852D01*
X-11452Y-606827D01*
X-11352Y-606777D01*
X-11202Y-606702D01*
X-11003Y-606577D01*
X-10778Y-606402D01*
X-10553Y-606203D01*
X-10353Y-605978D01*
X-10153Y-605703D01*
X-10128Y-605678D01*
X-10078Y-605578D01*
X-10003Y-605403D01*
X-9903Y-605203D01*
X-9828Y-604953D01*
X-9753Y-604678D01*
X-9703Y-604353D01*
X-9678Y-604028D01*
Y-604003D01*
Y-603953D01*
Y-603878D01*
X-9703Y-603778D01*
X-9728Y-603528D01*
X-9828Y-603178D01*
X-9953Y-602803D01*
X-10178Y-602403D01*
X-10453Y-602004D01*
X-10653Y-601804D01*
X-10853Y-601604D01*
X-10878D01*
X-10903Y-601554D01*
X-10977Y-601504D01*
X-11078Y-601454D01*
X-11178Y-601354D01*
X-11328Y-601279D01*
X-11502Y-601179D01*
X-11702Y-601079D01*
X-11927Y-601004D01*
X-12177Y-600904D01*
X-12477Y-600804D01*
X-12777Y-600729D01*
X-13102Y-600679D01*
X-13452Y-600629D01*
X-13852Y-600579D01*
D02*
G37*
G36*
X-14352Y-608077D02*
X-14827D01*
X-15127Y-608102D01*
X-15451D01*
X-15801Y-608127D01*
X-16101Y-608152D01*
X-16376Y-608202D01*
Y-614850D01*
X-16326D01*
X-16251Y-614875D01*
X-16151Y-614900D01*
X-15876Y-614950D01*
X-15526Y-615000D01*
X-15101Y-615050D01*
X-14652Y-615100D01*
X-14177Y-615125D01*
X-13677Y-615150D01*
X-13477D01*
X-13327Y-615125D01*
X-13127D01*
X-12927Y-615100D01*
X-12427Y-615025D01*
X-11902Y-614925D01*
X-11352Y-614750D01*
X-10828Y-614525D01*
X-10578Y-614375D01*
X-10353Y-614200D01*
X-10328D01*
X-10303Y-614151D01*
X-10178Y-614025D01*
X-9978Y-613825D01*
X-9778Y-613526D01*
X-9578Y-613176D01*
X-9378Y-612776D01*
X-9253Y-612301D01*
X-9203Y-612051D01*
Y-611776D01*
Y-611726D01*
Y-611626D01*
X-9228Y-611426D01*
X-9278Y-611201D01*
X-9328Y-610926D01*
X-9428Y-610626D01*
X-9553Y-610301D01*
X-9728Y-609977D01*
X-9753Y-609926D01*
X-9828Y-609827D01*
X-9953Y-609677D01*
X-10128Y-609477D01*
X-10353Y-609252D01*
X-10653Y-609027D01*
X-11003Y-608802D01*
X-11402Y-608602D01*
X-11427D01*
X-11452Y-608577D01*
X-11527Y-608552D01*
X-11602Y-608527D01*
X-11852Y-608427D01*
X-12202Y-608327D01*
X-12627Y-608252D01*
X-13127Y-608152D01*
X-13702Y-608102D01*
X-14352Y-608077D01*
D02*
G37*
%LPD*%
D11*
X740000Y-356000D02*
Y-355946D01*
X724514Y-341588D02*
Y-329973D01*
X724435Y-329895D02*
X724514Y-329973D01*
Y-341588D02*
X724592Y-341667D01*
X744435Y-351511D02*
Y-330020D01*
X740000Y-355946D02*
X744435Y-351511D01*
X764435Y-342091D02*
Y-330020D01*
Y-342091D02*
X765514Y-343170D01*
X764565Y-365265D02*
Y-350051D01*
X765514Y-349102D02*
Y-343170D01*
X764565Y-350051D02*
X765514Y-349102D01*
X771470Y-372170D02*
X771735D01*
X764565Y-365265D02*
X771470Y-372170D01*
X759205Y-226929D02*
Y-216625D01*
X757800Y-229000D02*
Y-228334D01*
X759205Y-216625D02*
X759435Y-216395D01*
X757800Y-228334D02*
X759205Y-226929D01*
X734435Y-216520D02*
X734617Y-216702D01*
Y-229837D02*
Y-216702D01*
Y-229837D02*
X734800Y-230020D01*
X528625Y-187375D02*
X528750Y-187250D01*
X544875D01*
X545000Y-187125D01*
X530625Y-87875D02*
X543750D01*
X546000Y-90125D01*
X509750Y-48875D02*
X530625D01*
X481875Y-21000D02*
X509750Y-48875D01*
X132125Y-21000D02*
X481875D01*
X815604Y-103395D02*
X819334Y-107125D01*
X820000D01*
X333727Y-103395D02*
X815604D01*
X28230Y-108895D02*
X328228D01*
X25000Y-112125D02*
X28230Y-108895D01*
X328228D02*
X333727Y-103395D01*
X127000Y-26125D02*
X132125Y-21000D01*
X812000Y-181875D02*
X813088Y-180787D01*
X824338D01*
X825000Y-180125D01*
X812000Y-185933D02*
Y-181875D01*
X-1946Y-223071D02*
Y-211472D01*
X-1946Y-211472D02*
X-1946Y-211472D01*
X-2000Y-223125D02*
X-1946Y-223071D01*
X-2000Y-280863D02*
X2237Y-285100D01*
X4625D01*
X397250Y-425750D02*
X402975D01*
X396125Y-426875D02*
X397250Y-425750D01*
X307125Y-424750D02*
X312850D01*
X306000Y-425875D02*
X307125Y-424750D01*
X219125Y-425000D02*
X224850D01*
X218000Y-426125D02*
X219125Y-425000D01*
X127125Y-424750D02*
X132850D01*
X126000Y-425875D02*
X127125Y-424750D01*
X127125Y-339500D02*
X132850D01*
X126000Y-340625D02*
X127125Y-339500D01*
X217125D02*
X222850D01*
X216000Y-340625D02*
X217125Y-339500D01*
X307125D02*
X312850D01*
X306000Y-340625D02*
X307125Y-339500D01*
X397250Y-340500D02*
X402975D01*
X396125Y-341625D02*
X397250Y-340500D01*
Y-255250D02*
X402975D01*
X396125Y-256375D02*
X397250Y-255250D01*
X307125Y-254250D02*
X312850D01*
X306000Y-255375D02*
X307125Y-254250D01*
X217125D02*
X222850D01*
X216000Y-255375D02*
X217125Y-254250D01*
X127125D02*
X132850D01*
X380062Y-254937D02*
X380250Y-255125D01*
X379875Y-233000D02*
X380062Y-233188D01*
Y-254937D02*
Y-233188D01*
X810800Y-202000D02*
X816800Y-196000D01*
X936800D01*
X954655Y-178145D01*
X1033405D01*
X1033800Y-177750D01*
X1099800Y-197625D02*
Y-193750D01*
X794435Y-203498D02*
X812000Y-185933D01*
X794435Y-216520D02*
Y-203498D01*
X299125Y-181000D02*
X299596Y-180529D01*
Y-176904D02*
X304228Y-172272D01*
Y-171772D01*
X299596Y-180529D02*
Y-176904D01*
X304228Y-171772D02*
X305875Y-170125D01*
X629800Y-223000D02*
X630271Y-223471D01*
X643050Y-231125D02*
Y-230750D01*
X635771Y-223471D02*
X643050Y-230750D01*
X630271Y-223471D02*
X635771D01*
X1241925Y-194000D02*
X1251925D01*
X1241800Y-194125D02*
X1241925Y-194000D01*
X1187675Y-198500D02*
X1187800Y-198375D01*
X1177675Y-198500D02*
X1187675D01*
X830800Y-558875D02*
Y-548875D01*
Y-558875D02*
X830925Y-559000D01*
X829800Y-539125D02*
Y-529125D01*
X829675Y-529000D02*
X829800Y-529125D01*
X855510Y-435970D02*
X865510D01*
X855385Y-436095D02*
X855510Y-435970D01*
X1392329Y-402221D02*
Y-399471D01*
X1385800Y-408125D02*
X1386425D01*
X1392329Y-399471D02*
X1392800Y-399000D01*
X1386425Y-408125D02*
X1392329Y-402221D01*
X1052675Y-545000D02*
X1062675D01*
X1062800Y-544875D01*
X787675Y-373000D02*
X797675D01*
X797800Y-372875D01*
X724800Y-392000D02*
Y-391560D01*
X721800Y-388560D02*
Y-379875D01*
Y-388560D02*
X724800Y-391560D01*
X654000Y-338300D02*
Y-338300D01*
X660925Y-331375D01*
Y-331000D01*
X638646Y-308471D02*
X639695Y-309520D01*
X639820D01*
X643175Y-312875D01*
X633800Y-308000D02*
X634271Y-308471D01*
X643175Y-313000D02*
Y-312875D01*
X634271Y-308471D02*
X638646D01*
X631800Y-244000D02*
X632466D01*
X640199Y-246274D02*
X642925Y-249000D01*
X632466Y-244000D02*
X634740Y-246274D01*
X640199D01*
X976570Y-277471D02*
X979800Y-280701D01*
Y-283125D02*
Y-280701D01*
X971271Y-277471D02*
X976570D01*
X970800Y-277000D02*
X971271Y-277471D01*
X1091280Y-435814D02*
X1093800Y-438334D01*
X1091280Y-435814D02*
Y-430980D01*
X1087800Y-427625D02*
X1087925D01*
X1091280Y-430980D01*
X1093800Y-439000D02*
Y-438334D01*
X1073250Y-435784D02*
X1074800Y-437334D01*
X1073250Y-435784D02*
Y-431195D01*
X1070395Y-428340D02*
X1073250Y-431195D01*
X1069770Y-428340D02*
X1070395D01*
X1074800Y-438000D02*
Y-437334D01*
X1107675Y-370000D02*
X1117675D01*
X1117800Y-369875D01*
X1245925Y-367000D02*
X1255925D01*
X1245800Y-367125D02*
X1245925Y-367000D01*
Y-356000D02*
X1255925D01*
X1245800Y-356125D02*
X1245925Y-356000D01*
X1260675Y-370000D02*
X1270675D01*
X1270800Y-369875D01*
X1258675Y-356000D02*
X1268675D01*
X1268800Y-355875D01*
X1254800Y-352125D02*
Y-342125D01*
X1254675Y-342000D02*
X1254800Y-342125D01*
X1147925Y-213500D02*
X1157925D01*
X1147800Y-213625D02*
X1147925Y-213500D01*
X1148925Y-201500D02*
X1158925D01*
X1148800Y-201625D02*
X1148925Y-201500D01*
X1177675Y-211500D02*
X1187675D01*
X1187800Y-211375D01*
X1270513Y-213508D02*
X1280513D01*
X1280638Y-213383D01*
X1269675Y-203000D02*
X1279675D01*
X1279800Y-202875D01*
X1241925Y-216000D02*
X1251925D01*
X1241800Y-216125D02*
X1241925Y-216000D01*
X1240925Y-206000D02*
X1250925D01*
X1240800Y-206125D02*
X1240925Y-206000D01*
X1294800Y-302125D02*
Y-292125D01*
X1294675Y-292000D02*
X1294800Y-292125D01*
X1385800Y-170125D02*
Y-160125D01*
X1385675Y-160000D02*
X1385800Y-160125D01*
X396000Y-168625D02*
X406000D01*
X406125Y-168500D01*
X215875Y-170125D02*
X225875D01*
X226000Y-170000D01*
X1054883Y-303525D02*
X1070329Y-288078D01*
Y-283471D02*
X1070800Y-283000D01*
X1070329Y-288078D02*
Y-283471D01*
X1047470Y-309037D02*
X1052981Y-303525D01*
X1047470Y-315359D02*
Y-309037D01*
X1052981Y-303525D02*
X1054883D01*
X1042470Y-304330D02*
X1046800Y-300000D01*
X1046800D01*
X1057800Y-289000D01*
X1042470Y-315359D02*
Y-304330D01*
X1057800Y-289000D02*
Y-281000D01*
X1035320Y-290730D02*
Y-289980D01*
X1032470Y-315359D02*
Y-293580D01*
X1038050Y-287250D02*
X1038800D01*
X1035320Y-289980D02*
X1038050Y-287250D01*
X1032470Y-293580D02*
X1035320Y-290730D01*
X510000Y-12125D02*
Y-11125D01*
Y-12125D02*
X512250Y-14375D01*
Y-26125D02*
Y-14375D01*
X970923Y-383269D02*
X971539Y-383885D01*
X970870Y-383215D02*
X970923Y-383269D01*
X1022470Y-356815D02*
X1023220Y-356065D01*
X1017470Y-361815D02*
X1022470Y-356815D01*
X846800Y-423270D02*
X865385D01*
X803165Y-423000D02*
X846800D01*
X771735Y-391570D02*
X803165Y-423000D01*
X983889Y-383885D02*
X985270Y-385265D01*
X971539Y-383885D02*
X983889D01*
X972370Y-371215D02*
X973820Y-369765D01*
X985270D01*
X988220Y-366815D01*
X1006014D01*
X1015800Y-385715D02*
X1019370D01*
X1012470Y-381085D02*
X1015800Y-384416D01*
X1012470Y-381085D02*
Y-373271D01*
X1015800Y-385000D02*
Y-384416D01*
X736025Y-511225D02*
X1109075D01*
X735800Y-511000D02*
X736025Y-511225D01*
X1109075D02*
X1109300Y-511450D01*
X1056615Y-326815D02*
X1063926D01*
X1052959Y-323159D02*
X1056615Y-326815D01*
X1035311Y-323159D02*
X1052959D01*
X1032470Y-320318D02*
X1035311Y-323159D01*
X1032470Y-320318D02*
Y-315359D01*
X4500Y-259700D02*
X5378Y-258822D01*
Y-201413D01*
X-2092Y-193943D02*
X5378Y-201413D01*
X-2092Y-193943D02*
Y-193193D01*
X14508Y-211193D02*
X14608Y-211293D01*
X14508Y-211193D02*
Y-193293D01*
X14408Y-193193D02*
X14508Y-193293D01*
X14408Y-193193D02*
X16267Y-191334D01*
X25172D01*
X25642Y-190863D01*
X878085Y-410570D02*
X878300Y-410785D01*
X897585D01*
X897800Y-411000D01*
X863598Y-315000D02*
X897800D01*
X859367Y-310770D02*
X863598Y-315000D01*
X818685Y-310770D02*
X859367D01*
X1319800Y-185000D02*
X1321050Y-186250D01*
X1385800D01*
X1405800D01*
X1304050Y-318250D02*
X1319892Y-302408D01*
X1320484Y-382669D02*
X1323059Y-380094D01*
Y-373241D01*
X1333050Y-363250D01*
Y-363000D01*
X1319984Y-147669D02*
X1322559Y-145094D01*
Y-138741D01*
X1333050Y-128250D01*
Y-128000D01*
X1319984Y-265170D02*
X1322559Y-262594D01*
Y-253741D01*
X1333050Y-243250D01*
Y-243000D01*
X1294800Y-318250D02*
X1304050D01*
X1274800D02*
X1294800D01*
X1320392Y-419908D02*
X1324984Y-424500D01*
X1385800D01*
X1405800D01*
X771735Y-391570D02*
Y-388170D01*
Y-372170D01*
X1034970Y-344315D02*
X1042470Y-336815D01*
X1022470Y-382615D02*
Y-373271D01*
X1019370Y-385715D02*
X1022470Y-382615D01*
X1034970Y-344315D02*
X1045870Y-355215D01*
X960370Y-379715D02*
Y-370715D01*
X1052470Y-361815D02*
X1063926D01*
X969270D02*
X1006014D01*
X963870Y-383215D02*
X970870D01*
X1042470Y-336815D02*
Y-332715D01*
X1045870Y-355215D02*
X1052470Y-361815D01*
X960370Y-379715D02*
X963870Y-383215D01*
X960370Y-370715D02*
X969270Y-361815D01*
X1022470Y-373271D02*
Y-356815D01*
Y-331815D02*
X1024620Y-333965D01*
X1034970Y-344315D01*
X1023220Y-356065D02*
X1034970Y-344315D01*
X1022470Y-331815D02*
Y-315359D01*
X1006014Y-361815D02*
X1017470D01*
D12*
X513250Y-157125D02*
D03*
X528750D02*
D03*
X1141550Y-299000D02*
D03*
X1126050D02*
D03*
X1105550Y-309000D02*
D03*
X772050Y-373000D02*
D03*
X787550D02*
D03*
X735750Y-161125D02*
D03*
X720250D02*
D03*
X676550Y-331000D02*
D03*
X661050D02*
D03*
X658550Y-231000D02*
D03*
X643050D02*
D03*
Y-313000D02*
D03*
X658550D02*
D03*
X1333050Y-128000D02*
D03*
X1348550D02*
D03*
X512250Y-26125D02*
D03*
X527750D02*
D03*
X706050Y-380000D02*
D03*
X721550D02*
D03*
X1159765Y-480430D02*
D03*
X1175265D02*
D03*
X1105550Y-327000D02*
D03*
X1090050D02*
D03*
X735750Y-179125D02*
D03*
X720250D02*
D03*
X643050Y-249000D02*
D03*
X658550D02*
D03*
X1333050Y-363000D02*
D03*
X1348550D02*
D03*
X1090050Y-309000D02*
D03*
X1333050Y-243000D02*
D03*
X1348550D02*
D03*
D13*
X109750Y-407125D02*
D03*
X126250D02*
D03*
X199750D02*
D03*
X216250D02*
D03*
X289750D02*
D03*
X306250D02*
D03*
X306375Y-237000D02*
D03*
X289875D02*
D03*
X396375D02*
D03*
X379875D02*
D03*
X109750Y-322125D02*
D03*
X109875Y-152000D02*
D03*
X126375D02*
D03*
X126250Y-322125D02*
D03*
X199750D02*
D03*
X216250D02*
D03*
X289750D02*
D03*
X306250D02*
D03*
X379750D02*
D03*
X396250D02*
D03*
X379750Y-407125D02*
D03*
X396250D02*
D03*
X917050Y-232000D02*
D03*
X1103050Y-291000D02*
D03*
X917050Y-250000D02*
D03*
Y-268000D02*
D03*
Y-286000D02*
D03*
X1103050Y-272000D02*
D03*
X771835Y-355570D02*
D03*
X788335D02*
D03*
X199875Y-237000D02*
D03*
X216375D02*
D03*
X14408Y-193193D02*
D03*
X-2092D02*
D03*
X289875Y-152000D02*
D03*
X306375D02*
D03*
X900550Y-232000D02*
D03*
X1086550Y-291000D02*
D03*
X199875Y-152000D02*
D03*
X216375D02*
D03*
X788235Y-391570D02*
D03*
X771735D02*
D03*
X900550Y-250000D02*
D03*
X109875Y-237000D02*
D03*
X126375D02*
D03*
X1175515Y-499430D02*
D03*
X1159015D02*
D03*
X379875Y-152000D02*
D03*
X396375D02*
D03*
X900550Y-268000D02*
D03*
X1086550Y-272000D02*
D03*
X900550Y-286000D02*
D03*
X-1892Y-211293D02*
D03*
X14608D02*
D03*
X749550Y-492000D02*
D03*
X766050D02*
D03*
D14*
X396000Y-255375D02*
D03*
X380250D02*
D03*
X306000D02*
D03*
X290250D02*
D03*
X110250Y-340625D02*
D03*
X126000D02*
D03*
X306000Y-170125D02*
D03*
X290250D02*
D03*
X126000D02*
D03*
X110250D02*
D03*
X200250Y-340625D02*
D03*
X216000D02*
D03*
X290250D02*
D03*
X306000D02*
D03*
X380250D02*
D03*
X396000D02*
D03*
X110250Y-425875D02*
D03*
X126000D02*
D03*
X200250D02*
D03*
X216000D02*
D03*
X290250D02*
D03*
X306000D02*
D03*
X380250D02*
D03*
X396000D02*
D03*
X110250Y-255375D02*
D03*
X126000D02*
D03*
X200250D02*
D03*
X216000D02*
D03*
X200250Y-170125D02*
D03*
X216000D02*
D03*
X380250D02*
D03*
X396000D02*
D03*
D15*
X530625Y-74875D02*
D03*
X473375Y-81375D02*
D03*
Y-74875D02*
D03*
X530625Y-48875D02*
D03*
X528625Y-174375D02*
D03*
Y-180875D02*
D03*
Y-187375D02*
D03*
Y-193875D02*
D03*
Y-200375D02*
D03*
Y-206875D02*
D03*
Y-213375D02*
D03*
Y-219875D02*
D03*
X471375D02*
D03*
Y-213375D02*
D03*
Y-206875D02*
D03*
Y-200375D02*
D03*
Y-193875D02*
D03*
Y-187375D02*
D03*
Y-180875D02*
D03*
Y-174375D02*
D03*
X530625Y-42375D02*
D03*
Y-55375D02*
D03*
Y-61875D02*
D03*
Y-68375D02*
D03*
Y-81375D02*
D03*
Y-87875D02*
D03*
X473375D02*
D03*
Y-68375D02*
D03*
Y-61875D02*
D03*
Y-55375D02*
D03*
Y-48875D02*
D03*
Y-42375D02*
D03*
D16*
X749435Y-330020D02*
D03*
X724435D02*
D03*
X729435D02*
D03*
X734435D02*
D03*
X739435D02*
D03*
X744435D02*
D03*
X754435D02*
D03*
X759435D02*
D03*
X764435D02*
D03*
X769435D02*
D03*
X774435D02*
D03*
X779435D02*
D03*
X784435D02*
D03*
X789435D02*
D03*
X794435D02*
D03*
X799435D02*
D03*
Y-216520D02*
D03*
X794435D02*
D03*
X789435D02*
D03*
X784435D02*
D03*
X779435D02*
D03*
X774435D02*
D03*
X769435D02*
D03*
X764435D02*
D03*
X759435D02*
D03*
X754435D02*
D03*
X749435D02*
D03*
X744435D02*
D03*
X739435D02*
D03*
X734435D02*
D03*
X729435D02*
D03*
X724435D02*
D03*
D17*
X0Y0D02*
D03*
X1417800Y-600000D02*
D03*
D18*
X812000Y-166375D02*
D03*
Y-181875D02*
D03*
X794000Y-166375D02*
D03*
Y-181875D02*
D03*
X1107800Y-354250D02*
D03*
X985270Y-385265D02*
D03*
X1039800Y-427750D02*
D03*
X1107800Y-369750D02*
D03*
X1087800Y-427750D02*
D03*
X973800D02*
D03*
Y-412250D02*
D03*
X1087800D02*
D03*
X862885Y-286620D02*
D03*
Y-271120D02*
D03*
X844485Y-286320D02*
D03*
Y-270820D02*
D03*
X1039800Y-412250D02*
D03*
X1089800Y-347500D02*
D03*
Y-363000D02*
D03*
X985270Y-369765D02*
D03*
D19*
X1034970Y-344315D02*
D03*
D20*
X1057470Y-373271D02*
D03*
X1052470D02*
D03*
X1047470D02*
D03*
X1042470D02*
D03*
X1037470D02*
D03*
X1032470D02*
D03*
X1027470D02*
D03*
X1022470D02*
D03*
X1017470D02*
D03*
X1012470D02*
D03*
Y-315359D02*
D03*
X1017470D02*
D03*
X1022470D02*
D03*
X1027470D02*
D03*
X1032470D02*
D03*
X1037470D02*
D03*
X1042470D02*
D03*
X1047470D02*
D03*
X1052470D02*
D03*
X1057470D02*
D03*
D21*
X1006014Y-366815D02*
D03*
Y-361815D02*
D03*
Y-356815D02*
D03*
Y-351815D02*
D03*
Y-346815D02*
D03*
Y-341815D02*
D03*
Y-336815D02*
D03*
Y-331815D02*
D03*
Y-326815D02*
D03*
Y-321815D02*
D03*
X1063926D02*
D03*
Y-326815D02*
D03*
Y-331815D02*
D03*
Y-336815D02*
D03*
Y-341815D02*
D03*
Y-346815D02*
D03*
Y-351815D02*
D03*
Y-356815D02*
D03*
Y-361815D02*
D03*
Y-366815D02*
D03*
D22*
X1099800Y-234875D02*
D03*
X985800Y-307875D02*
D03*
Y-326125D02*
D03*
X1099800Y-253125D02*
D03*
D23*
Y-216500D02*
D03*
Y-197500D02*
D03*
D24*
X1069770Y-411965D02*
D03*
X678800Y-205250D02*
D03*
Y-188750D02*
D03*
X642800Y-205250D02*
D03*
Y-188750D02*
D03*
X1069770Y-428465D02*
D03*
X660800Y-188750D02*
D03*
Y-205250D02*
D03*
X1274800Y-318250D02*
D03*
Y-301750D02*
D03*
X1020800Y-287250D02*
D03*
Y-270750D02*
D03*
X1385800Y-408000D02*
D03*
Y-424500D02*
D03*
X1038800Y-270750D02*
D03*
Y-287250D02*
D03*
X1109300Y-527950D02*
D03*
Y-511450D02*
D03*
X1385800Y-169750D02*
D03*
Y-186250D02*
D03*
X1405800D02*
D03*
Y-169750D02*
D03*
X624800Y-188750D02*
D03*
Y-205250D02*
D03*
X1405800Y-424500D02*
D03*
Y-408000D02*
D03*
X1294800Y-301750D02*
D03*
Y-318250D02*
D03*
D25*
X1261800Y-204500D02*
D03*
Y-269500D02*
D03*
X1170800Y-204000D02*
D03*
Y-269000D02*
D03*
D26*
X980300Y-283000D02*
D03*
X999300D02*
D03*
D27*
X1256300Y-362500D02*
D03*
X1231300Y-437500D02*
D03*
X1256300D02*
D03*
X1231300Y-362500D02*
D03*
D28*
X1030300Y-229000D02*
D03*
X1075300D02*
D03*
X960300D02*
D03*
X1005300D02*
D03*
D29*
X1145700Y-607000D02*
D03*
Y-527000D02*
D03*
X1190700Y-607000D02*
D03*
Y-527000D02*
D03*
D30*
X1049800Y-545000D02*
D03*
X971800D02*
D03*
D31*
X705185Y-235770D02*
D03*
Y-240770D02*
D03*
Y-245770D02*
D03*
Y-250770D02*
D03*
Y-255770D02*
D03*
Y-260770D02*
D03*
Y-265770D02*
D03*
Y-270770D02*
D03*
Y-275770D02*
D03*
Y-280770D02*
D03*
Y-285770D02*
D03*
Y-290770D02*
D03*
Y-295770D02*
D03*
Y-300770D02*
D03*
Y-305770D02*
D03*
Y-310770D02*
D03*
X818685D02*
D03*
Y-305770D02*
D03*
Y-300770D02*
D03*
Y-295770D02*
D03*
Y-290770D02*
D03*
Y-285770D02*
D03*
Y-280770D02*
D03*
Y-275770D02*
D03*
Y-270770D02*
D03*
Y-265770D02*
D03*
Y-260770D02*
D03*
Y-255770D02*
D03*
Y-250770D02*
D03*
Y-245770D02*
D03*
Y-240770D02*
D03*
Y-235770D02*
D03*
D32*
X587885Y-266170D02*
D03*
Y-303170D02*
D03*
D33*
X642885Y-270020D02*
D03*
X658885Y-292020D02*
D03*
X642885D02*
D03*
X658885Y-270020D02*
D03*
D34*
X1139370Y-318090D02*
D03*
Y-377340D02*
D03*
D35*
X1018870Y-410715D02*
D03*
X994870D02*
D03*
Y-429715D02*
D03*
X1018870D02*
D03*
D36*
X1181800Y-327000D02*
D03*
Y-367000D02*
D03*
X1240800Y-478000D02*
D03*
Y-518000D02*
D03*
D66*
X1319984Y-147669D02*
D03*
Y-212670D02*
D03*
X1364984Y-147669D02*
D03*
Y-212670D02*
D03*
Y-330170D02*
D03*
Y-265170D02*
D03*
X1319984Y-330170D02*
D03*
Y-265170D02*
D03*
X1365484Y-447670D02*
D03*
Y-382669D02*
D03*
X1320484Y-447670D02*
D03*
Y-382669D02*
D03*
D67*
X1109300Y-553300D02*
D03*
D69*
Y-578700D02*
D03*
D74*
X865385Y-410570D02*
D03*
X878085D02*
D03*
X865385Y-423270D02*
D03*
X878085D02*
D03*
X865385Y-435970D02*
D03*
X878085D02*
D03*
D75*
X706835Y-355570D02*
D03*
X721335D02*
D03*
D76*
X749435Y-346878D02*
X754527Y-351969D01*
X749435Y-346878D02*
Y-330020D01*
X734230Y-348803D02*
X739435Y-343598D01*
X734230Y-349000D02*
Y-348803D01*
X739435Y-343598D02*
Y-330020D01*
X754527Y-352646D02*
Y-351969D01*
X757997Y-345082D02*
X758632D01*
X754435Y-341520D02*
X757997Y-345082D01*
X754435Y-341520D02*
Y-330020D01*
X769435D02*
X769685Y-330270D01*
X771835Y-355570D02*
Y-342394D01*
X769685Y-340244D02*
Y-330270D01*
Y-340244D02*
X771835Y-342394D01*
X771833Y-235770D02*
X775603Y-232000D01*
X705185Y-235770D02*
X771833D01*
X705185Y-240770D02*
X791030D01*
X705185Y-245770D02*
X795030D01*
X775603Y-232000D02*
X776550D01*
X795030Y-245770D02*
X829800Y-211000D01*
X791030Y-240770D02*
X827800Y-204000D01*
X718611Y-253000D02*
X719000D01*
X716381Y-250770D02*
X718611Y-253000D01*
X705185Y-250770D02*
X716381D01*
X767250Y-55375D02*
X769000Y-57125D01*
X530625Y-55375D02*
X767250D01*
X1066936Y-183500D02*
X1071686Y-178750D01*
X1185778D01*
X1068800Y-188000D02*
X1073550Y-183250D01*
X956300Y-183500D02*
X1066936D01*
X958164Y-188000D02*
X1068800D01*
X1073550Y-183250D02*
X1183914D01*
X917050Y-268750D02*
X919800Y-271500D01*
X924300Y-305315D02*
Y-275250D01*
X920550Y-271500D02*
X924300Y-275250D01*
X917050Y-268750D02*
Y-268000D01*
X919800Y-271500D02*
X920550D01*
X964615Y-356815D02*
X1006014D01*
X917050Y-309250D02*
X964615Y-356815D01*
X924300Y-305315D02*
X970800Y-351815D01*
X917050Y-309250D02*
Y-286000D01*
X935164Y-211000D02*
X958164Y-188000D01*
X935800Y-204000D02*
X956300Y-183500D01*
X827800Y-204000D02*
X935800D01*
X829800Y-211000D02*
X935164D01*
X1186028Y-179000D02*
X1295639D01*
X1307219Y-190581D01*
X1185778Y-178750D02*
X1186028Y-179000D01*
X1184164Y-183500D02*
X1291300D01*
X1183914Y-183250D02*
X1184164Y-183500D01*
X1291300D02*
X1305800Y-198000D01*
X694800Y-190000D02*
X730800D01*
X744435Y-203635D01*
X679550Y-205250D02*
X694800Y-190000D01*
X744435Y-216520D02*
Y-203635D01*
X739185Y-216270D02*
Y-207385D01*
X699164Y-198000D02*
X729800D01*
X739185Y-207385D01*
X684664Y-212500D02*
X699164Y-198000D01*
X726542Y-205000D02*
X729185Y-207643D01*
X686528Y-217000D02*
X698528Y-205000D01*
X726542D01*
X646300Y-208750D02*
X654550Y-217000D01*
X643550Y-205250D02*
X646300Y-208000D01*
Y-208750D02*
Y-208000D01*
X642800Y-205250D02*
X643550D01*
X654550Y-217000D02*
X686528D01*
X664300Y-208750D02*
Y-208000D01*
X661550Y-205250D02*
X664300Y-208000D01*
X660800Y-205250D02*
X661550D01*
X668050Y-212500D02*
X684664D01*
X664300Y-208750D02*
X668050Y-212500D01*
X678800Y-205250D02*
X679550D01*
X739185Y-216270D02*
X739435Y-216520D01*
X1305800Y-198000D02*
X1420800D01*
X1278130Y-291670D02*
X1278800Y-291000D01*
X1274800Y-301750D02*
X1275380D01*
X1278130Y-299000D02*
Y-291670D01*
X1275380Y-301750D02*
X1278130Y-299000D01*
X784275Y-137000D02*
X1262800D01*
X1319300Y-193500D01*
X776840Y-144435D02*
X784275Y-137000D01*
X1052930Y-309969D02*
X1054853Y-308045D01*
X1052490Y-315339D02*
Y-311570D01*
X1052930Y-311130D01*
Y-309969D01*
X1054853Y-308045D02*
X1056755D01*
X1077700Y-287100D01*
X1052470Y-315359D02*
X1052490Y-315339D01*
X1073615Y-346815D02*
X1082050Y-355250D01*
X1107550D01*
X1063926Y-346815D02*
X1073615D01*
X1107550Y-355250D02*
X1107550Y-355250D01*
X1057470Y-312565D02*
X1057490Y-312545D01*
X1060284D02*
X1079329Y-293500D01*
X1057490Y-312545D02*
X1060284D01*
X1057470Y-315359D02*
Y-312565D01*
X941500Y-448000D02*
X1042800D01*
X934800Y-454000D02*
X1044800D01*
X1055800Y-443000D01*
X1042800Y-448000D02*
X1048800Y-442000D01*
X976800Y-436000D02*
X981800Y-441000D01*
X976800Y-436000D02*
Y-430750D01*
X973800Y-427750D02*
X976800Y-430750D01*
X1032800Y-441000D02*
X1037800Y-436000D01*
Y-429750D01*
X1039800Y-427750D01*
X1048800Y-442000D02*
Y-402636D01*
X1037470Y-391306D02*
X1048800Y-402636D01*
X1037470Y-391306D02*
Y-373271D01*
X1032470Y-392670D02*
X1038670Y-398870D01*
Y-412465D02*
Y-398870D01*
X1032470Y-392670D02*
Y-373271D01*
X1042470Y-380684D02*
Y-373271D01*
X1055800Y-443000D02*
Y-394014D01*
X1042470Y-380684D02*
X1055800Y-394014D01*
X1022800Y-398000D02*
X1027470Y-393330D01*
Y-373271D01*
X982470Y-398000D02*
X1022800D01*
X975270Y-405200D02*
X982470Y-398000D01*
X975270Y-412465D02*
Y-405200D01*
X1147335Y-466465D02*
X1173801D01*
X1175265Y-467930D01*
X1121800Y-492000D02*
X1147335Y-466465D01*
X1175265Y-480430D02*
Y-467930D01*
X766050Y-492000D02*
X1121800D01*
X1175515Y-499430D02*
Y-480680D01*
X1175265Y-480430D02*
X1175515Y-480680D01*
X1178765Y-502680D02*
X1184733Y-508648D01*
X1405800Y-408000D02*
X1406300Y-408500D01*
X1421300D01*
X1421800Y-409000D01*
X1319300Y-193500D02*
X1414300D01*
X1405800Y-169750D02*
X1414550D01*
X1418800Y-174000D01*
Y-189000D02*
Y-174000D01*
X1414300Y-193500D02*
X1418800Y-189000D01*
X1420800Y-198000D02*
X1425800Y-203000D01*
X716800Y-491000D02*
X748550D01*
X1086550Y-291000D02*
Y-272000D01*
X1084050Y-293500D02*
X1086550Y-291000D01*
X1079329Y-293500D02*
X1084050D01*
X917920Y-231130D02*
X934050D01*
X917050Y-232000D02*
X917920Y-231130D01*
X917050Y-250000D02*
X917320Y-249730D01*
X941965D01*
X970800Y-351815D02*
X1006014D01*
X1047470Y-378815D02*
X1069770Y-401115D01*
Y-411965D02*
Y-401115D01*
X1047470Y-378815D02*
Y-373271D01*
X1063926Y-336815D02*
X1100985D01*
X1103764Y-334035D01*
Y-328785D01*
X1105550Y-327000D01*
X1108800Y-323500D02*
X1109050D01*
X1105550Y-326750D02*
X1108800Y-323500D01*
X729185Y-216270D02*
Y-207643D01*
Y-216270D02*
X729435Y-216520D01*
X890885Y-300770D02*
X900085Y-291570D01*
X818685Y-300770D02*
X890885D01*
X900085Y-291570D02*
Y-283570D01*
X883285Y-305770D02*
X885085Y-307570D01*
X885550Y-269700D02*
X887250Y-268000D01*
X900550D01*
X818685Y-305770D02*
X883285D01*
X659435Y-250570D02*
X661085D01*
X686285Y-275770D01*
X705185D01*
X642885Y-269370D02*
Y-267120D01*
X659435Y-250570D01*
X658635Y-311470D02*
Y-292270D01*
X658885Y-292020D01*
X678885Y-280770D02*
X705185D01*
X667635Y-292020D02*
X678885Y-280770D01*
X658885Y-292020D02*
X667635D01*
X845885Y-260770D02*
X856085Y-250570D01*
X900085D01*
X818685Y-260770D02*
X845885D01*
X862085Y-234570D02*
X900085D01*
X840885Y-255770D02*
X862085Y-234570D01*
X818685Y-255770D02*
X840885D01*
X1018870Y-410715D02*
X1036920D01*
X1038670Y-412465D01*
X1109300Y-554000D02*
Y-527950D01*
X975270Y-412465D02*
X992520Y-429715D01*
X994870D01*
D77*
X721335Y-355570D02*
Y-353410D01*
X732677Y-343000D02*
X734435Y-341243D01*
X721335Y-353410D02*
X731745Y-343000D01*
X734435Y-341243D02*
Y-330020D01*
X731745Y-343000D02*
X732677D01*
X754435Y-195377D02*
X757000Y-192812D01*
X759435Y-195247D01*
Y-216520D02*
Y-195247D01*
X754435Y-216520D02*
Y-195377D01*
X757000Y-192812D02*
Y-192000D01*
X748125Y-146125D02*
X764435Y-162435D01*
Y-216520D02*
Y-162435D01*
X736800Y-146125D02*
X748125D01*
X436875Y-280125D02*
X504000Y-213000D01*
Y-197968D01*
X168250Y-280125D02*
X436875Y-280125D01*
X504000Y-197968D02*
X520593Y-181375D01*
X379750Y-343875D02*
Y-322125D01*
X380000Y-428875D02*
Y-407125D01*
X290000Y-428875D02*
Y-407125D01*
X199750Y-428875D02*
Y-407125D01*
X109750Y-428875D02*
Y-407125D01*
X290000Y-343875D02*
Y-322125D01*
X199750Y-343875D02*
Y-322125D01*
X109750Y-343875D02*
Y-322125D01*
X418679Y-68375D02*
X473375D01*
X408429Y-78625D02*
X418679Y-68375D01*
X404000Y-90125D02*
X419250Y-74875D01*
X473375D01*
X423750Y-81375D02*
X473375D01*
X415000Y-90125D02*
X423750Y-81375D01*
X324500Y-78625D02*
X408429D01*
X417608Y-62375D02*
X472875D01*
X243500Y-73625D02*
X406358D01*
X417608Y-62375D01*
X397000Y-67625D02*
X409250Y-55375D01*
X473375D01*
X330250Y-48875D02*
X473375D01*
X316500Y-62625D02*
X330250Y-48875D01*
X225750Y-42375D02*
X473375D01*
X214000Y-54125D02*
X225750Y-42375D01*
X547676Y-209551D02*
X553426D01*
X528625Y-206875D02*
X545000D01*
X553426Y-209551D02*
X554000Y-210125D01*
X545000Y-206875D02*
X547676Y-209551D01*
X550759Y-203625D02*
X562500D01*
X563000Y-204125D01*
X547509Y-200375D02*
X550759Y-203625D01*
X528625Y-193875D02*
X567750D01*
X568000Y-194125D01*
X555438Y-68375D02*
X560688Y-73625D01*
X567893Y-67125D02*
X744459D01*
X745459Y-66125D02*
X746000D01*
X753459Y-73125D02*
X754000D01*
X560688Y-73625D02*
X752959D01*
X753459Y-73125D01*
X744459Y-67125D02*
X745459Y-66125D01*
X562644Y-61875D02*
X567893Y-67125D01*
X530625Y-61875D02*
X562644D01*
X530625Y-68375D02*
X555438D01*
X658444Y-80125D02*
X762000D01*
X554000Y-81125D02*
X657444D01*
X658444Y-80125D01*
X547750Y-74875D02*
X554000Y-81125D01*
X530625Y-74875D02*
X547750D01*
X424188Y-406125D02*
X425000D01*
X423188Y-407125D02*
X424188Y-406125D01*
X396250Y-407125D02*
X423188D01*
X317188Y-406125D02*
X318000D01*
X316188Y-407125D02*
X317188Y-406125D01*
X306250Y-407125D02*
X316188D01*
X142188Y-408125D02*
X143000D01*
X141188Y-407125D02*
X142188Y-408125D01*
X126250Y-407125D02*
X141188D01*
X244188Y-408125D02*
X245000D01*
X243188Y-407125D02*
X244188Y-408125D01*
X216250Y-407125D02*
X243188D01*
X396250Y-322125D02*
X415000D01*
X306250D02*
X328000D01*
X216250D02*
X230000D01*
X126250D02*
X168250Y-280125D01*
X520593Y-181375D02*
X528125D01*
X528625Y-180875D01*
X430000Y-251125D02*
Y-247218D01*
X463343Y-213875D01*
X470875D01*
X471375Y-213375D01*
X322000Y-271125D02*
X395585D01*
X459500Y-207210D01*
X471040D01*
X471375Y-206875D01*
X251000Y-226125D02*
X255500Y-221625D01*
X431500Y-221625D01*
X452750Y-200375D01*
X471375D01*
X289875Y-232000D02*
X290063Y-232188D01*
Y-237000D02*
Y-232188D01*
X397742Y-228383D02*
X398125Y-228000D01*
X397742Y-235633D02*
Y-228383D01*
X149000Y-216125D02*
X150000Y-215125D01*
X426000D01*
X447250Y-193875D01*
X471375D01*
X199875Y-233000D02*
X200063Y-233188D01*
X306125Y-228000D02*
X306375Y-228250D01*
Y-233000D02*
Y-228250D01*
X438750Y-187375D02*
X471375D01*
X421000Y-205125D02*
X438750Y-187375D01*
X332000Y-196125D02*
X420000D01*
X435250Y-180875D01*
X471375D01*
X240000Y-188125D02*
X418000D01*
X431750Y-174375D01*
X471375D01*
X528625Y-200375D02*
X547509D01*
X472875Y-62375D02*
X473375Y-61875D01*
X309000Y-62625D02*
X316500D01*
X143187Y-96500D02*
X220625D01*
X141000Y-95125D02*
X141812D01*
X143187Y-96500D01*
X220625D02*
X243500Y-73625D01*
X308000Y-95125D02*
X324500Y-78625D01*
X233000Y-95125D02*
X308000D01*
X325000Y-90125D02*
X404000D01*
X129125Y-228541D02*
Y-228000D01*
X126375Y-231291D02*
X129125Y-228541D01*
X126375Y-233000D02*
Y-231291D01*
X216750Y-228375D02*
X217125Y-228000D01*
X216375Y-237000D02*
X216750Y-236625D01*
Y-228375D01*
X396375Y-237000D02*
X397742Y-235633D01*
X736800Y-146937D02*
Y-146125D01*
X735750Y-147987D02*
X736800Y-146937D01*
X735750Y-161125D02*
Y-147987D01*
X1038800Y-272250D02*
X1042842D01*
X1037300Y-270750D02*
X1038800Y-272250D01*
X794000Y-195300D02*
Y-182125D01*
X290063Y-254937D02*
Y-238000D01*
Y-254937D02*
X290250Y-255125D01*
X641807Y-187757D02*
Y-182007D01*
Y-187757D02*
X642800Y-188750D01*
X634800Y-175000D02*
X641807Y-182007D01*
X634800Y-175000D02*
Y-149000D01*
X683800Y-176971D02*
Y-137071D01*
X678800Y-181971D02*
X683800Y-176971D01*
X678800Y-188750D02*
Y-181971D01*
X660800Y-188750D02*
X662989Y-186561D01*
X667139D02*
X678800Y-174900D01*
X662989Y-186561D02*
X667139D01*
X678800Y-174900D02*
Y-135000D01*
X686550Y-127250D01*
X683800Y-137071D02*
X688621Y-132250D01*
X634800Y-149000D02*
X646050Y-137750D01*
Y-137750D01*
X661550Y-122250D01*
X1271229Y-122250D01*
X624800Y-151000D02*
X658550Y-117250D01*
X624800Y-188750D02*
Y-151000D01*
X658550Y-117250D02*
X1273300Y-117250D01*
X110063Y-169937D02*
X110250Y-170125D01*
X109875Y-149000D02*
X110063Y-149187D01*
Y-169937D02*
Y-148188D01*
X126375Y-152000D02*
X127125Y-151250D01*
Y-140000D01*
X789435Y-199865D02*
X794000Y-195300D01*
X789435Y-216520D02*
Y-199865D01*
X308875Y-143250D02*
X309125Y-143000D01*
X308875Y-149500D02*
Y-143250D01*
X306375Y-152000D02*
X308875Y-149500D01*
X396750Y-143375D02*
X397125Y-143000D01*
X396750Y-151625D02*
Y-143375D01*
X396375Y-152000D02*
X396750Y-151625D01*
X1271229Y-122250D02*
X1315979Y-167000D01*
X1273300Y-117250D02*
X1317050Y-161000D01*
X688621Y-132250D02*
X1267087Y-132250D01*
X1313837Y-179000D01*
X1269158Y-127250D02*
X1314908Y-173000D01*
X686550Y-127250D02*
X1269158Y-127250D01*
X859654Y-357000D02*
X859800D01*
X789765D02*
X859654D01*
X215125Y-142000D02*
X216375Y-143250D01*
Y-152000D02*
Y-143250D01*
X628050Y-208500D02*
Y-207750D01*
X624800Y-205250D02*
X625550D01*
X628050Y-208500D02*
X641300Y-221750D01*
X625550Y-205250D02*
X628050Y-207750D01*
X641300Y-221750D02*
X702589D01*
X707820Y-216520D01*
X1315979Y-167000D02*
X1352800D01*
X1313837Y-179000D02*
X1327800D01*
X1317050Y-161000D02*
X1344800D01*
X1314908Y-173000D02*
X1332800D01*
X379875Y-148000D02*
X380062Y-148188D01*
X109875Y-233000D02*
X110063Y-233188D01*
X702800Y-391000D02*
X706050Y-387750D01*
Y-380000D01*
X788335Y-355570D02*
X789765Y-357000D01*
X736530Y-181730D02*
X749435Y-194635D01*
X1037470Y-302430D02*
X1048800Y-291100D01*
X1029800Y-232000D02*
X1048800Y-251000D01*
Y-291100D02*
Y-251000D01*
X1037470Y-315359D02*
Y-302430D01*
X1022800Y-270750D02*
X1037300D01*
X1027470Y-315359D02*
Y-309669D01*
X1009800Y-292000D02*
Y-234500D01*
Y-292000D02*
X1027470Y-309669D01*
X1005300Y-230000D02*
X1009800Y-234500D01*
X1071615Y-351815D02*
X1082307Y-362507D01*
X1089307D02*
X1089800Y-363000D01*
X1082307Y-362507D02*
X1089307D01*
X1063926Y-351815D02*
X1071615D01*
X1067464Y-356815D02*
X1067694Y-357045D01*
X1063926Y-356815D02*
X1067464D01*
X1069439Y-357045D02*
X1071490Y-359095D01*
X1067694Y-357045D02*
X1069439D01*
X1071490Y-377690D02*
Y-359095D01*
X1063926Y-341815D02*
X1115645D01*
X1063926Y-321815D02*
Y-315621D01*
X1075546Y-304000D01*
X1099050Y-412250D02*
X1099800Y-413000D01*
X1087800Y-412250D02*
X1099050D01*
X1087800D02*
Y-403602D01*
X1073917Y-389718D02*
X1087800Y-403602D01*
X1071583Y-389718D02*
X1073917D01*
X1057470Y-375605D02*
X1071583Y-389718D01*
X1057470Y-375605D02*
Y-373271D01*
X834800Y-410570D02*
X865385D01*
X808085D02*
X834800D01*
X1147800Y-496000D02*
X1155585D01*
X1155765Y-496180D02*
X1156515D01*
X1155585Y-496000D02*
X1155765Y-496180D01*
X1159015Y-499430D02*
Y-498680D01*
X1156515Y-496180D02*
X1159015Y-498680D01*
X847800Y-464000D02*
X931800D01*
X1184733Y-508648D02*
X1190700Y-514615D01*
X1063926Y-326815D02*
X1071173D01*
X1080738Y-317250D01*
X1110841D01*
X1153800Y-277500D02*
X1164800Y-266500D01*
X1153800Y-286500D02*
Y-277500D01*
X1141550Y-298750D02*
X1153800Y-286500D01*
X1141550Y-299000D02*
Y-298750D01*
Y-299250D02*
Y-299000D01*
X1132335Y-308465D02*
X1141550Y-299250D01*
X1119625Y-308465D02*
X1132335D01*
X1110841Y-317250D02*
X1119625Y-308465D01*
X1038800Y-270750D02*
Y-264200D01*
X1020800Y-294000D02*
X1025800Y-299000D01*
X1020800Y-294000D02*
Y-287250D01*
X999300Y-283000D02*
X1001152Y-284852D01*
Y-292993D02*
X1017470Y-309310D01*
Y-315359D02*
Y-309310D01*
X1001152Y-292993D02*
Y-284852D01*
X1075546Y-304000D02*
X1085050D01*
X1086800Y-305750D01*
X1087050D01*
X1090050Y-308750D01*
Y-309000D02*
Y-308750D01*
X1063926Y-331815D02*
X1084985D01*
X1089800Y-327500D02*
Y-327000D01*
X1084985Y-331815D02*
X1086550Y-330250D01*
X1087050D02*
X1089800Y-327500D01*
X1086550Y-330250D02*
X1087050D01*
X1130502Y-326958D02*
Y-322715D01*
X1135127Y-318090D01*
X1115645Y-341815D02*
X1130502Y-326958D01*
X1135127Y-318090D02*
X1139370D01*
X1071490Y-377690D02*
X1087515Y-393715D01*
X1134370D01*
X932085Y-544570D02*
X971370D01*
X971800Y-545000D01*
X878085Y-423270D02*
X891735D01*
X799435Y-340635D02*
Y-330020D01*
Y-340635D02*
X803370Y-344570D01*
X888800D01*
X1175515Y-500180D02*
Y-499430D01*
Y-500180D02*
X1178015Y-502680D01*
X1178765D01*
X1184733Y-508648D01*
X1190700Y-527000D02*
Y-514615D01*
Y-607000D02*
Y-527000D01*
X1366320Y-228000D02*
X1398158Y-259837D01*
X1355800Y-228000D02*
X1366320D01*
X1348800Y-284000D02*
X1350037Y-285237D01*
X1398158D01*
X1340800Y-310000D02*
X1341437Y-310637D01*
X1398158D01*
X1333800Y-343000D02*
X1368416D01*
X1375379Y-336037D01*
X1398158D01*
X707820Y-216520D02*
X724435D01*
X749435D02*
Y-194635D01*
X1365484Y-382669D02*
Y-380183D01*
X1348550Y-363250D02*
X1365484Y-380183D01*
X1348550Y-363250D02*
Y-363000D01*
X1362496Y-262682D02*
X1364984Y-265170D01*
X1362496Y-262682D02*
Y-257196D01*
X1348550Y-243250D02*
X1362496Y-257196D01*
X1348550Y-243250D02*
Y-243000D01*
X1364984Y-147669D02*
Y-144684D01*
X1348550Y-128250D02*
X1364984Y-144684D01*
X1348550Y-128250D02*
Y-128000D01*
X706835Y-355570D02*
Y-340035D01*
X200063Y-254937D02*
X200250Y-255125D01*
X200063Y-254937D02*
Y-233188D01*
X110063Y-254937D02*
X110250Y-255125D01*
X110063Y-254937D02*
Y-233188D01*
X380062Y-169937D02*
X380250Y-170125D01*
X380062Y-169937D02*
Y-148188D01*
X290063Y-169937D02*
X290250Y-170125D01*
X290063Y-169937D02*
Y-148188D01*
X200063Y-169937D02*
X200250Y-170125D01*
X200063Y-169937D02*
Y-148188D01*
X199875Y-148000D02*
X200063Y-148188D01*
X675601Y-238801D02*
X692570Y-255770D01*
X705185D01*
X667800Y-231000D02*
X676300Y-239500D01*
X818685Y-275770D02*
X839535D01*
X804285D02*
X818685D01*
X736285Y-270770D02*
X739085Y-273570D01*
X844485Y-270820D02*
X862585D01*
X784585Y-256070D02*
X804285Y-275770D01*
X862885Y-271120D02*
Y-260770D01*
X692285Y-270770D02*
X705185D01*
X736285D01*
X862885Y-260770D02*
X864585Y-259070D01*
X839535Y-275770D02*
X844485Y-270820D01*
X686085Y-264570D02*
X692285Y-270770D01*
X862585Y-270820D02*
X862885Y-271120D01*
X844485Y-286320D02*
X862585D01*
X818685Y-280770D02*
X838935D01*
X862585Y-286320D02*
X862885Y-286620D01*
X677335Y-329570D02*
Y-297320D01*
X706835Y-376520D02*
Y-355570D01*
X875535Y-286620D02*
X876085Y-286070D01*
X705985Y-377370D02*
X706835Y-376520D01*
X696370Y-329570D02*
X706835Y-340035D01*
X838935Y-280770D02*
X844485Y-286320D01*
X677335Y-297320D02*
X688885Y-285770D01*
X735750Y-162325D02*
X735950Y-162125D01*
X677335Y-329570D02*
X696370D01*
X735750Y-179125D02*
Y-162325D01*
X789085Y-391570D02*
X808085Y-410570D01*
X862885Y-286620D02*
X875535D01*
X688885Y-285770D02*
X705185D01*
X788235Y-391570D02*
X789085D01*
X615485Y-266170D02*
X615585Y-266070D01*
X658550Y-231000D02*
X667800D01*
X587885Y-266170D02*
X615485D01*
X727585Y-317570D02*
X729435Y-319420D01*
Y-330020D02*
Y-319420D01*
X587885Y-303170D02*
X599285Y-314570D01*
X688085Y-317570D02*
X727585D01*
X599285Y-314570D02*
X617585D01*
X1134370Y-393715D02*
X1139370Y-388715D01*
Y-375140D01*
X988470Y-346815D02*
X1006014D01*
X984370Y-342715D02*
X988470Y-346815D01*
D78*
X341125Y-110000D02*
X736800D01*
X41642Y-466000D02*
X701800Y-466000D01*
X514000Y-216125D02*
X516750Y-213375D01*
X528625D01*
X517000Y-82125D02*
X517271D01*
X518021Y-81375D01*
X530625D01*
X538000Y-157125D02*
X541000Y-154125D01*
X528750Y-157125D02*
X538000D01*
X322500Y-97625D02*
X1097175D01*
X1106800Y-107250D01*
X528625Y-174375D02*
Y-172125D01*
X528688Y-172062D01*
Y-157188D01*
X528750Y-157125D01*
X527750Y-26375D02*
Y-26125D01*
Y-26375D02*
X530625Y-29250D01*
Y-42375D02*
Y-29250D01*
X317000Y-103125D02*
X322500Y-97625D01*
X335000Y-116125D02*
X341125Y-110000D01*
X-8000Y-103125D02*
X317000D01*
X39000Y-116125D02*
X335000D01*
X37000Y-118125D02*
X39000Y-116125D01*
X1106800Y-110000D02*
Y-107250D01*
X701800Y-466000D02*
X825800D01*
X528000Y-25875D02*
Y-10125D01*
X527750Y-26125D02*
X528000Y-25875D01*
X1100800Y-476000D02*
X1122800D01*
X1113050Y-288750D02*
X1118800Y-283000D01*
X1104550Y-288750D02*
X1113050D01*
X1103050Y-290250D02*
X1104550Y-288750D01*
X1103050Y-291000D02*
Y-290250D01*
X971800Y-327000D02*
X972675Y-326125D01*
X985800D01*
X997800Y-281500D02*
X999300Y-283000D01*
X997800Y-281500D02*
Y-268000D01*
X959800Y-476000D02*
X1100800D01*
X1365484Y-406000D02*
X1365800D01*
X1192800D02*
X1365484D01*
X835800Y-476000D02*
X959800D01*
X825800Y-466000D02*
X834800Y-475000D01*
Y-475000D02*
Y-475000D01*
Y-475000D02*
X835800Y-476000D01*
X1122800D02*
X1158800Y-440000D01*
X1192800Y-406000D01*
X1158314Y-481882D02*
X1159765Y-480430D01*
X1140800Y-493101D02*
X1152019Y-481882D01*
X1158314D01*
X1159765Y-480430D02*
Y-473130D01*
X1141200Y-522500D02*
Y-518971D01*
X1140800Y-518571D02*
Y-493101D01*
X1141200Y-522500D02*
X1145700Y-527000D01*
X1140800Y-518571D02*
X1141200Y-518971D01*
X1099800Y-225688D02*
X1100488Y-225000D01*
X1113800D01*
X1163800Y-268000D02*
X1164300Y-268500D01*
X1165300Y-267000D02*
X1255300D01*
X1255800Y-267500D01*
X1145700Y-607000D02*
Y-527000D01*
D79*
X459000Y-232000D02*
X465504D01*
X471375Y-226129D01*
Y-219875D01*
X1089785Y-342065D02*
X1089800Y-342080D01*
Y-347250D02*
Y-342080D01*
X1077700Y-287100D02*
Y-249025D01*
X1081800Y-253125D01*
X1075300Y-246625D02*
X1077700Y-249025D01*
X1110800Y-272000D02*
X1111800Y-273000D01*
X1103050Y-272000D02*
X1110800D01*
X1128550Y-291250D02*
X1131800Y-288000D01*
X1128550Y-296500D02*
Y-291250D01*
X1126050Y-299000D02*
X1128550Y-296500D01*
X1115300Y-299000D02*
X1126050D01*
X1105550Y-308750D02*
X1115300Y-299000D01*
X1105550Y-309000D02*
Y-308750D01*
X1099800Y-225688D02*
Y-216500D01*
X1075300Y-246625D02*
Y-229000D01*
X1081800Y-253125D02*
X1099800D01*
Y-234875D02*
Y-225688D01*
X960300Y-283250D02*
X980800Y-303750D01*
Y-304750D02*
X981944Y-305894D01*
X960300Y-283250D02*
Y-230000D01*
X981944Y-305894D02*
X983819D01*
X980800Y-304750D02*
Y-303750D01*
X983819Y-305894D02*
X985800Y-307875D01*
X984264Y-305449D02*
X1002052D01*
X1010946Y-314343D01*
X1010954D01*
X1011970Y-315359D01*
D80*
X1244800Y-577000D02*
X1281500D01*
X1240485Y-572685D02*
Y-518315D01*
Y-572685D02*
X1244800Y-577000D01*
X1240485Y-518315D02*
X1240800Y-518000D01*
Y-514500D01*
X1181800Y-367000D02*
X1228300D01*
X1231300Y-364000D01*
Y-362500D01*
X1228300Y-440500D02*
X1231300Y-437500D01*
X1228300Y-461500D02*
Y-440500D01*
X1222800Y-467000D02*
X1228300Y-461500D01*
X1222800Y-496500D02*
Y-467000D01*
Y-496500D02*
X1240800Y-514500D01*
X1256300Y-461500D02*
Y-437500D01*
X1252785Y-465015D02*
X1256300Y-461500D01*
X1250285Y-465015D02*
X1252785D01*
X1240800Y-474500D02*
X1250285Y-465015D01*
X1240800Y-478000D02*
Y-474500D01*
Y-481500D02*
Y-478000D01*
Y-481500D02*
X1252057Y-492757D01*
X1258557D01*
X1262800Y-497000D01*
Y-522000D02*
Y-497000D01*
Y-522000D02*
X1287800Y-547000D01*
X1302300D01*
X1332300Y-577000D01*
D81*
X1178370Y-318715D02*
X1184227Y-324573D01*
X1184370Y-324715D01*
X1139370Y-318090D02*
X1139995Y-318715D01*
X1178370D01*
D82*
X1344000Y-518000D02*
D03*
Y-78000D02*
D03*
X193900Y-518000D02*
D03*
Y-78000D02*
D03*
D83*
X4500Y-335900D02*
D03*
X1398158Y-336037D02*
D03*
D84*
Y-310637D02*
D03*
Y-285237D02*
D03*
Y-259837D02*
D03*
X4500Y-259700D02*
D03*
Y-285100D02*
D03*
Y-310500D02*
D03*
X855885Y-544570D02*
D03*
X881285D02*
D03*
X906685D02*
D03*
X932085D02*
D03*
D85*
X871735Y-397870D02*
D03*
X881895Y-448670D02*
D03*
X861575D02*
D03*
D86*
X830485Y-544570D02*
D03*
D87*
X1281500Y-577000D02*
D03*
D88*
X1332300D02*
D03*
D89*
X724592Y-341667D02*
D03*
X740000Y-356000D02*
D03*
X734230Y-349000D02*
D03*
X758632Y-345082D02*
D03*
X754527Y-352646D02*
D03*
X757800Y-229000D02*
D03*
X734800Y-230020D02*
D03*
X719000Y-253000D02*
D03*
X762000Y-80125D02*
D03*
X746000Y-66125D02*
D03*
X398125Y-228000D02*
D03*
X306125D02*
D03*
X769000Y-57125D02*
D03*
X754000Y-73125D02*
D03*
X820000Y-107125D02*
D03*
X309000Y-62625D02*
D03*
X397000Y-67625D02*
D03*
X736800Y-110000D02*
D03*
X214000Y-54125D02*
D03*
X129125Y-228000D02*
D03*
X217125D02*
D03*
X-8000Y-103125D02*
D03*
X25000Y-112125D02*
D03*
X37000Y-118125D02*
D03*
X127000Y-26125D02*
D03*
X-2000Y-223125D02*
D03*
X402975Y-425750D02*
D03*
X312850Y-424750D02*
D03*
X224850Y-425000D02*
D03*
X132850Y-424750D02*
D03*
X132850Y-339500D02*
D03*
X222850D02*
D03*
X312850D02*
D03*
X402975Y-340500D02*
D03*
Y-255250D02*
D03*
X312850Y-254250D02*
D03*
X222850D02*
D03*
X132850D02*
D03*
X1106800Y-110000D02*
D03*
X127125Y-140000D02*
D03*
X789435Y-199865D02*
D03*
X810800Y-202000D02*
D03*
X1033800Y-177750D02*
D03*
X1099800Y-193750D02*
D03*
X299125Y-181000D02*
D03*
X309125Y-143000D02*
D03*
X397125D02*
D03*
X215125Y-142000D02*
D03*
X629800Y-223000D02*
D03*
X1241925Y-194000D02*
D03*
X1187675Y-198500D02*
D03*
X701800Y-466000D02*
D03*
X702800Y-391000D02*
D03*
X859654Y-357000D02*
D03*
X830800Y-558875D02*
D03*
X829800Y-529125D02*
D03*
X855510Y-435970D02*
D03*
X1392800Y-399000D02*
D03*
X1062675Y-545000D02*
D03*
X797675Y-373000D02*
D03*
X724800Y-392000D02*
D03*
X654000Y-338300D02*
D03*
X633800Y-308000D02*
D03*
X631800Y-244000D02*
D03*
X970800Y-277000D02*
D03*
X1093800Y-439000D02*
D03*
X1074800Y-438000D02*
D03*
X1117675Y-370000D02*
D03*
X1245925Y-367000D02*
D03*
Y-356000D02*
D03*
X1270675Y-370000D02*
D03*
X1268675Y-356000D02*
D03*
X1254800Y-342125D02*
D03*
X1147925Y-213500D02*
D03*
X1148925Y-201500D02*
D03*
X1187675Y-211500D02*
D03*
X1280513Y-213508D02*
D03*
X1279675Y-203000D02*
D03*
X1241925Y-216000D02*
D03*
X1240925Y-206000D02*
D03*
X1294800Y-292125D02*
D03*
X1385800Y-160125D02*
D03*
X406000Y-168625D02*
D03*
X225875Y-170125D02*
D03*
X1070800Y-283000D02*
D03*
X510000Y-11125D02*
D03*
X528000Y-10125D02*
D03*
X1118800Y-283000D02*
D03*
X1111800Y-273000D02*
D03*
X1131800Y-288000D02*
D03*
X1100800Y-476000D02*
D03*
X1099800Y-413000D02*
D03*
X997800Y-268000D02*
D03*
X971800Y-327000D02*
D03*
X959800Y-476000D02*
D03*
X934800Y-454000D02*
D03*
X941500Y-447549D02*
D03*
X981800Y-441000D02*
D03*
X1032800D02*
D03*
X834800Y-410570D02*
D03*
Y-475000D02*
D03*
X1147800Y-496000D02*
D03*
X1159765Y-473130D02*
D03*
X1158800Y-440000D02*
D03*
X1365484Y-406000D02*
D03*
X41642Y-465863D02*
D03*
X1113800Y-225000D02*
D03*
X972370Y-371215D02*
D03*
X735800Y-511000D02*
D03*
X716800Y-491000D02*
D03*
X1038800Y-264200D02*
D03*
X1025800Y-299000D02*
D03*
X25642Y-190863D02*
D03*
X846800Y-423000D02*
D03*
X847800Y-464000D02*
D03*
X931800D02*
D03*
X897800Y-411000D02*
D03*
Y-315000D02*
D03*
X888800Y-344570D02*
D03*
X891735Y-423270D02*
D03*
X1352800Y-167000D02*
D03*
X1332800Y-173000D02*
D03*
X1327800Y-179000D02*
D03*
X1319800Y-185000D02*
D03*
X1355800Y-228000D02*
D03*
X1348800Y-284000D02*
D03*
X1344800Y-161000D02*
D03*
X1340800Y-310000D02*
D03*
X1319892Y-302408D02*
D03*
X1333800Y-343000D02*
D03*
X1320392Y-419908D02*
D03*
X885550Y-269700D02*
D03*
X885085Y-307570D02*
D03*
D90*
X757000Y-258000D02*
D03*
Y-270000D02*
D03*
Y-288000D02*
D03*
Y-311000D02*
D03*
Y-192000D02*
D03*
X459000Y-232000D02*
D03*
X514000Y-216125D02*
D03*
X545000Y-187125D02*
D03*
X541000Y-110125D02*
D03*
X554000Y-210125D02*
D03*
X563000Y-204125D02*
D03*
X568000Y-194125D02*
D03*
Y-67125D02*
D03*
X561000Y-73125D02*
D03*
X554000Y-81125D02*
D03*
X546000Y-90125D02*
D03*
X517000Y-82125D02*
D03*
X541000Y-154125D02*
D03*
X425000Y-406125D02*
D03*
X318000D02*
D03*
X245000Y-408125D02*
D03*
X143000D02*
D03*
X230000Y-322125D02*
D03*
X328000D02*
D03*
X415000D02*
D03*
X430000Y-251125D02*
D03*
X322000Y-271125D02*
D03*
X251000Y-226125D02*
D03*
X149000Y-216125D02*
D03*
X421000Y-205125D02*
D03*
X332000Y-196125D02*
D03*
X240000Y-188125D02*
D03*
X141000Y-95125D02*
D03*
X233000D02*
D03*
X415000Y-90125D02*
D03*
X325000D02*
D03*
X825000Y-180125D02*
D03*
X736800Y-146125D02*
D03*
X1307219Y-190581D02*
D03*
X1278800Y-291000D02*
D03*
X776840Y-144435D02*
D03*
X776550Y-232000D02*
D03*
X970923Y-383269D02*
D03*
X1421800Y-409000D02*
D03*
X1425800Y-203000D02*
D03*
X1015800Y-385000D02*
D03*
X934050Y-231130D02*
D03*
X941965Y-249730D02*
D03*
X676300Y-239500D02*
D03*
X877085Y-287070D02*
D03*
X1024620Y-333965D02*
D03*
X984370Y-342715D02*
D03*
X1023220Y-356065D02*
D03*
X1042470Y-332715D02*
D03*
X1045870Y-355215D02*
D03*
X1034970Y-344315D02*
D03*
X617585Y-314570D02*
D03*
X688085Y-317570D02*
D03*
X615585Y-266070D02*
D03*
X686085Y-264570D02*
D03*
X739085Y-273570D02*
D03*
X784585Y-256070D02*
D03*
X864585Y-259070D02*
D03*
D91*
X1387935Y-44760D02*
D03*
X1422935Y-114761D02*
D03*
X1387935Y-464761D02*
D03*
X1422935Y-534761D02*
D03*
X1317935Y-44760D02*
D03*
X1352935Y-114761D02*
D03*
Y-394761D02*
D03*
X1317935Y-464761D02*
D03*
Y-604761D02*
D03*
X1247935Y-44760D02*
D03*
X1282935Y-114761D02*
D03*
Y-254760D02*
D03*
X1247935Y-324761D02*
D03*
X1282935Y-394761D02*
D03*
X1247935Y-604761D02*
D03*
X1177935Y-44760D02*
D03*
X1212935Y-254760D02*
D03*
Y-394761D02*
D03*
Y-534761D02*
D03*
X1107935Y-44760D02*
D03*
X1142935Y-254760D02*
D03*
X1107935Y-604761D02*
D03*
X1037935Y-44760D02*
D03*
Y-464761D02*
D03*
X1072935Y-534761D02*
D03*
X1037935Y-604761D02*
D03*
X967935Y-44760D02*
D03*
X1002935Y-534761D02*
D03*
X967935Y-604761D02*
D03*
X897935Y-44760D02*
D03*
Y-184760D02*
D03*
Y-604761D02*
D03*
X827935Y-44760D02*
D03*
Y-324761D02*
D03*
Y-604761D02*
D03*
X757935Y-44760D02*
D03*
X792935Y-534761D02*
D03*
X757935Y-604761D02*
D03*
X687935Y-44760D02*
D03*
X722935Y-534761D02*
D03*
X687935Y-604761D02*
D03*
X617935Y-44760D02*
D03*
X652935Y-394761D02*
D03*
Y-534761D02*
D03*
X617935Y-604761D02*
D03*
X547935Y-44760D02*
D03*
Y-324761D02*
D03*
X582935Y-394761D02*
D03*
Y-534761D02*
D03*
X547935Y-604761D02*
D03*
X512935Y-254760D02*
D03*
X477935Y-324761D02*
D03*
X512935Y-394761D02*
D03*
Y-534761D02*
D03*
X477935Y-604761D02*
D03*
X442935Y-394761D02*
D03*
Y-534761D02*
D03*
X407935Y-604761D02*
D03*
X337935Y-324761D02*
D03*
X372935Y-394761D02*
D03*
Y-534761D02*
D03*
X337935Y-604761D02*
D03*
X267935Y-324761D02*
D03*
X302935Y-394761D02*
D03*
Y-534761D02*
D03*
X267935Y-604761D02*
D03*
X197935Y-44760D02*
D03*
Y-184760D02*
D03*
X232935Y-394761D02*
D03*
Y-534761D02*
D03*
X197935Y-604761D02*
D03*
X127935Y-184760D02*
D03*
X162935Y-254760D02*
D03*
Y-394761D02*
D03*
Y-534761D02*
D03*
X127935Y-604761D02*
D03*
X57935Y-44760D02*
D03*
Y-184760D02*
D03*
X92935Y-254760D02*
D03*
X57935Y-324761D02*
D03*
X92935Y-394761D02*
D03*
Y-534761D02*
D03*
X57935Y-604761D02*
D03*
X-12065Y-44760D02*
D03*
X22935Y-254760D02*
D03*
Y-394761D02*
D03*
X-12065Y-464761D02*
D03*
X22935Y-534761D02*
D03*
M02*
