M48
;Layer_Color=9474304
;FILE_FORMAT=4:3
METRIC,LZ
;TYPE=PLATED
T01F00S00C0.300
T02F00S00C0.350
T03F00S00C0.400
T04F00S00C0.500
T05F00S00C1.000
T06F00S00C1.400
T07F00S00C3.000
%
T01
X0091568Y009353
X0093218Y009528
X0091918Y009823
X0093718Y010063
X0095068Y010233
X0095893Y010278
X0096457Y0103195
X009712Y010343
X009777Y0103085
X0098368Y010238
X0097618Y009923
X0098668Y0098531
X0098493Y009773
X0099868Y009778
X0100068Y0098531
X0099453Y0098865
X0100745Y009913
X010161Y0099114
X010229Y0099279
X0102943Y009953
X0103768
X0104268Y009823
X0103593Y009653
X0102268Y009713
X0101618Y009593
X0102918Y009308
X0104868Y009368
X0105718Y009653
X0108168Y009593
X0097818Y009648
X0096518Y009713
X0095868Y009363
X0097168Y009308
X0093668Y011253
X0094718Y011668
Y011843
Y012033
X0097368Y012753
X0094718Y013338
Y013573
Y013798
X0097418Y014423
X0094668Y015013
X0094568Y015198
X0094918Y015413
X0098118Y016113
X0094568Y016688
X0094579Y016865
T02
X0087768Y016958
T03
X0091118Y011083
X0109518Y011078
Y012828
Y014548
X0091118Y014478
Y012763
Y016173
X0086468Y016958
X00902Y01787
X0114947Y0174694
X0116647
X0117547
X0109518Y016208
T04
X009Y009
Y0096
Y0102
X0093Y0114
X0108
Y0108
Y0102
X01095Y0099
Y0093
X0099Y009
X0093Y012
Y0126
X0096
X00975Y0129
X0093Y0132
Y0138
Y015
Y0156
X0108
Y015
Y0138
Y0132
Y0126
Y012
Y0168
X01095Y0171
X01065
Y0177
X01095
X01035
X01005
Y0171
X00975
X00945
X0093Y0168
X00945Y0159
X0105Y018
T05
X0096008Y0091794
X0098548
X0101088
X0103628
Y0178844
X0101088
X0098548
X0096008
T06
X0062807Y0108304
Y0113384
X0069927Y0114594
X0074967
Y0107094
X0069927
X0079967
Y0114594
X0095267
Y0110844
Y0107094
X0104347
Y0110844
Y0114594
X0119647
X0124647
X0129687
Y0107094
X0124647
X0119647
X0136807Y0108304
Y0113384
Y0125038
Y0130118
X0129687Y0131328
X0124647
X0119647
Y0123828
X0124647
X0129687
Y0140561
X0124647
X0119647
Y0148061
X0124647
X0129687
X0136807Y0146851
Y0141771
Y0158504
X0129687Y0157294
X0124647
X0119647
X0104347
X0095267
Y0148061
Y0144311
Y0140561
X0104347
Y0144311
Y0148061
Y0131328
Y0127578
Y0123828
X0095267
Y0127578
Y0131328
X0079967
Y0123828
Y0140561
Y0148061
Y0157294
X0074967
X0069927
X0062807Y0158504
Y0146851
Y0141771
X0069927Y0140561
X0074967
Y0148061
X0069927
Y0131328
X0074967
Y0123828
X0069927
X0062807Y0125038
Y0130118
Y0163584
X0069927Y0164794
X0074967
X0079967
X0095267
Y0161044
X0104347
Y0164794
X0119647
X0124647
X0129687
X0136807Y0163584
T07
X0079818Y010103
X0124818
X0074818Y017103
X0124818
M30
