G04*
G04 #@! TF.GenerationSoftware,Altium Limited,Altium Designer,26.5.1 (12)*
G04*
G04 Layer_Color=2752767*
G04 Board_Origin=0|0*
%FSLAX44Y44*%
%MOMM*%
G71*
G04*
G04 #@! TF.SameCoordinates,F9DE173E-AD32-4170-81DE-BFE943D2D91D*
G04*
G04*
G04 #@! TF.FilePolarity,Positive*
G04*
G01*
G75*
%ADD38C,0.1270*%
%ADD39C,0.1693*%
D38*
X329000Y1467920D02*
X323920Y1478080D01*
X334080D01*
X329000Y1467920D01*
Y1417920D02*
X323920Y1428080D01*
X334080D01*
X329000Y1417920D01*
X499020Y254820D02*
Y264980D01*
X509180D01*
Y254820D01*
X499020D01*
Y390320D02*
Y400480D01*
X509180D01*
Y390320D01*
X499020D01*
Y524335D02*
Y534495D01*
X509180D01*
Y524335D01*
X499020D01*
Y658349D02*
Y668509D01*
X509180D01*
Y658349D01*
X499020D01*
Y792364D02*
Y802524D01*
X509180D01*
Y792364D01*
X499020D01*
Y926379D02*
Y936539D01*
X509180D01*
Y926379D01*
X499020D01*
Y1060393D02*
Y1070553D01*
X509180D01*
Y1060393D01*
X499020D01*
X498608Y1194820D02*
Y1204980D01*
X508768D01*
Y1194820D01*
X498608D01*
X396520Y254920D02*
Y265080D01*
X406680D01*
Y254920D01*
X396520D01*
Y390420D02*
Y400580D01*
X406680D01*
Y390420D01*
X396520D01*
Y524435D02*
Y534595D01*
X406680D01*
Y524435D01*
X396520D01*
Y658449D02*
Y668609D01*
X406680D01*
Y658449D01*
X396520D01*
Y792464D02*
Y802624D01*
X406680D01*
Y792464D01*
X396520D01*
Y926479D02*
Y936639D01*
X406680D01*
Y926479D01*
X396520D01*
Y1060493D02*
Y1070653D01*
X406680D01*
Y1060493D01*
X396520D01*
Y1194870D02*
Y1205030D01*
X406680D01*
Y1194870D01*
X396520D01*
X604190Y1432820D02*
X599110Y1442980D01*
X609270D01*
X604190Y1432820D01*
X233000Y1292820D02*
X235540Y1295360D01*
X238080D01*
X235540Y1297900D01*
X238080Y1300440D01*
X235540D01*
X233000Y1302980D01*
X230460Y1300440D01*
X227920D01*
X230460Y1297900D01*
X227920Y1295360D01*
X230460D01*
X233000Y1292820D01*
X673000Y142820D02*
X675540Y145360D01*
X678080D01*
X675540Y147900D01*
X678080Y150440D01*
X675540D01*
X673000Y152980D01*
X670460Y150440D01*
X667920D01*
X670460Y147900D01*
X667920Y145360D01*
X670460D01*
X673000Y142820D01*
X233000D02*
X235540Y145360D01*
X238080D01*
X235540Y147900D01*
X238080Y150440D01*
X235540D01*
X233000Y152980D01*
X230460Y150440D01*
X227920D01*
X230460Y147900D01*
X227920Y145360D01*
X230460D01*
X233000Y142820D01*
X193520Y217420D02*
Y227580D01*
X203680D01*
Y217420D01*
X193520D01*
Y292420D02*
Y302580D01*
X203680D01*
Y292420D01*
X193520D01*
X243520Y217420D02*
Y227580D01*
X253680D01*
Y217420D01*
X243520D01*
Y292420D02*
Y302580D01*
X253680D01*
Y292420D01*
X243520D01*
X143120Y217420D02*
Y227580D01*
X153280D01*
Y217420D01*
X143120D01*
Y292420D02*
Y302580D01*
X153280D01*
Y292420D01*
X143120D01*
X396520D02*
Y302580D01*
X406680D01*
Y292420D01*
X396520D01*
Y217420D02*
Y227580D01*
X406680D01*
Y217420D01*
X396520D01*
X702020Y292320D02*
Y302480D01*
X712180D01*
Y292320D01*
X702020D01*
Y217320D02*
Y227480D01*
X712180D01*
Y217320D01*
X702020D01*
X652020Y292320D02*
Y302480D01*
X662180D01*
Y292320D01*
X652020D01*
Y217320D02*
Y227480D01*
X662180D01*
Y217320D01*
X652020D01*
X752420Y292320D02*
Y302480D01*
X762580D01*
Y292320D01*
X752420D01*
Y217320D02*
Y227480D01*
X762580D01*
Y217320D01*
X752420D01*
X499020D02*
Y227480D01*
X509180D01*
Y217320D01*
X499020D01*
Y292320D02*
Y302480D01*
X509180D01*
Y292320D01*
X499020D01*
X823920Y229470D02*
Y239630D01*
X834080D01*
Y229470D01*
X823920D01*
Y280270D02*
Y290430D01*
X834080D01*
Y280270D01*
X823920D01*
X71920D02*
Y290430D01*
X82080D01*
Y280270D01*
X71920D01*
Y229470D02*
Y239630D01*
X82080D01*
Y229470D01*
X71920D01*
X823920Y415770D02*
Y425930D01*
X834080D01*
Y415770D01*
X823920D01*
Y364970D02*
Y375130D01*
X834080D01*
Y364970D01*
X823920D01*
Y817814D02*
Y827974D01*
X834080D01*
Y817814D01*
X823920D01*
Y767014D02*
Y777174D01*
X834080D01*
Y767014D01*
X823920D01*
X71920Y1169420D02*
Y1179580D01*
X82080D01*
Y1169420D01*
X71920D01*
Y1220220D02*
Y1230380D01*
X82080D01*
Y1220220D01*
X71920D01*
X823920D02*
Y1230380D01*
X834080D01*
Y1220220D01*
X823920D01*
Y1169420D02*
Y1179580D01*
X834080D01*
Y1169420D01*
X823920D01*
X499020Y427820D02*
Y437980D01*
X509180D01*
Y427820D01*
X499020D01*
Y352820D02*
Y362980D01*
X509180D01*
Y352820D01*
X499020D01*
X752420D02*
Y362980D01*
X762580D01*
Y352820D01*
X752420D01*
Y427820D02*
Y437980D01*
X762580D01*
Y427820D01*
X752420D01*
X652020Y352820D02*
Y362980D01*
X662180D01*
Y352820D01*
X652020D01*
Y427820D02*
Y437980D01*
X662180D01*
Y427820D01*
X652020D01*
X702020Y352820D02*
Y362980D01*
X712180D01*
Y352820D01*
X702020D01*
Y427820D02*
Y437980D01*
X712180D01*
Y427820D01*
X702020D01*
X396520Y888979D02*
Y899139D01*
X406680D01*
Y888979D01*
X396520D01*
Y963979D02*
Y974139D01*
X406680D01*
Y963979D01*
X396520D01*
X143120D02*
Y974139D01*
X153280D01*
Y963979D01*
X143120D01*
Y888979D02*
Y899139D01*
X153280D01*
Y888979D01*
X143120D01*
X243520Y963979D02*
Y974139D01*
X253680D01*
Y963979D01*
X243520D01*
Y888979D02*
Y899139D01*
X253680D01*
Y888979D01*
X243520D01*
X193520Y963979D02*
Y974139D01*
X203680D01*
Y963979D01*
X193520D01*
Y888979D02*
Y899139D01*
X203680D01*
Y888979D01*
X193520D01*
X823920Y951829D02*
Y961989D01*
X834080D01*
Y951829D01*
X823920D01*
Y901029D02*
Y911189D01*
X834080D01*
Y901029D01*
X823920D01*
X396520Y486935D02*
Y497095D01*
X406680D01*
Y486935D01*
X396520D01*
Y561935D02*
Y572095D01*
X406680D01*
Y561935D01*
X396520D01*
X143120D02*
Y572095D01*
X153280D01*
Y561935D01*
X143120D01*
Y486935D02*
Y497095D01*
X153280D01*
Y486935D01*
X143120D01*
X243520Y561935D02*
Y572095D01*
X253680D01*
Y561935D01*
X243520D01*
Y486935D02*
Y497095D01*
X253680D01*
Y486935D01*
X243520D01*
X193520Y561935D02*
Y572095D01*
X203680D01*
Y561935D01*
X193520D01*
Y486935D02*
Y497095D01*
X203680D01*
Y486935D01*
X193520D01*
X396520Y1022993D02*
Y1033153D01*
X406680D01*
Y1022993D01*
X396520D01*
Y1097993D02*
Y1108153D01*
X406680D01*
Y1097993D01*
X396520D01*
X143120D02*
Y1108153D01*
X153280D01*
Y1097993D01*
X143120D01*
Y1022993D02*
Y1033153D01*
X153280D01*
Y1022993D01*
X143120D01*
X243520Y1097993D02*
Y1108153D01*
X253680D01*
Y1097993D01*
X243520D01*
Y1022993D02*
Y1033153D01*
X253680D01*
Y1022993D01*
X243520D01*
X193520Y1097993D02*
Y1108153D01*
X203680D01*
Y1097993D01*
X193520D01*
Y1022993D02*
Y1033153D01*
X203680D01*
Y1022993D01*
X193520D01*
X71920Y767014D02*
Y777174D01*
X82080D01*
Y767014D01*
X71920D01*
Y817814D02*
Y827974D01*
X82080D01*
Y817814D01*
X71920D01*
X396520Y352920D02*
Y363080D01*
X406680D01*
Y352920D01*
X396520D01*
Y427920D02*
Y438080D01*
X406680D01*
Y427920D01*
X396520D01*
X143120D02*
Y438080D01*
X153280D01*
Y427920D01*
X143120D01*
Y352920D02*
Y363080D01*
X153280D01*
Y352920D01*
X143120D01*
X243520Y427920D02*
Y438080D01*
X253680D01*
Y427920D01*
X243520D01*
Y352920D02*
Y363080D01*
X253680D01*
Y352920D01*
X243520D01*
X193520Y427920D02*
Y438080D01*
X203680D01*
Y427920D01*
X193520D01*
Y352920D02*
Y363080D01*
X203680D01*
Y352920D01*
X193520D01*
X554190Y1432820D02*
X549110Y1442980D01*
X559270D01*
X554190Y1432820D01*
X71920Y1035043D02*
Y1045203D01*
X82080D01*
Y1035043D01*
X71920D01*
Y1085843D02*
Y1096003D01*
X82080D01*
Y1085843D01*
X71920D01*
X499020Y695849D02*
Y706009D01*
X509180D01*
Y695849D01*
X499020D01*
Y620849D02*
Y631009D01*
X509180D01*
Y620849D01*
X499020D01*
X752420D02*
Y631009D01*
X762580D01*
Y620849D01*
X752420D01*
Y695849D02*
Y706009D01*
X762580D01*
Y695849D01*
X752420D01*
X652020Y620849D02*
Y631009D01*
X662180D01*
Y620849D01*
X652020D01*
Y695849D02*
Y706009D01*
X662180D01*
Y695849D01*
X652020D01*
X702020Y620849D02*
Y631009D01*
X712180D01*
Y620849D01*
X702020D01*
Y695849D02*
Y706009D01*
X712180D01*
Y695849D01*
X702020D01*
X499020Y963879D02*
Y974039D01*
X509180D01*
Y963879D01*
X499020D01*
Y888879D02*
Y899039D01*
X509180D01*
Y888879D01*
X499020D01*
X752420D02*
Y899039D01*
X762580D01*
Y888879D01*
X752420D01*
Y963879D02*
Y974039D01*
X762580D01*
Y963879D01*
X752420D01*
X652020Y888879D02*
Y899039D01*
X662180D01*
Y888879D01*
X652020D01*
Y963879D02*
Y974039D01*
X662180D01*
Y963879D01*
X652020D01*
X702020Y888879D02*
Y899039D01*
X712180D01*
Y888879D01*
X702020D01*
Y963879D02*
Y974039D01*
X712180D01*
Y963879D01*
X702020D01*
X499020Y561835D02*
Y571995D01*
X509180D01*
Y561835D01*
X499020D01*
Y486835D02*
Y496995D01*
X509180D01*
Y486835D01*
X499020D01*
X752420D02*
Y496995D01*
X762580D01*
Y486835D01*
X752420D01*
Y561835D02*
Y571995D01*
X762580D01*
Y561835D01*
X752420D01*
X652020Y486835D02*
Y496995D01*
X662180D01*
Y486835D01*
X652020D01*
Y561835D02*
Y571995D01*
X662180D01*
Y561835D01*
X652020D01*
X702020Y486835D02*
Y496995D01*
X712180D01*
Y486835D01*
X702020D01*
Y561835D02*
Y571995D01*
X712180D01*
Y561835D01*
X702020D01*
X499020Y1097893D02*
Y1108053D01*
X509180D01*
Y1097893D01*
X499020D01*
Y1022893D02*
Y1033053D01*
X509180D01*
Y1022893D01*
X499020D01*
X752420D02*
Y1033053D01*
X762580D01*
Y1022893D01*
X752420D01*
Y1097893D02*
Y1108053D01*
X762580D01*
Y1097893D01*
X752420D01*
X652020Y1022893D02*
Y1033053D01*
X662180D01*
Y1022893D01*
X652020D01*
Y1097893D02*
Y1108053D01*
X662180D01*
Y1097893D01*
X652020D01*
X702020Y1022893D02*
Y1033053D01*
X712180D01*
Y1022893D01*
X702020D01*
Y1097893D02*
Y1108053D01*
X712180D01*
Y1097893D01*
X702020D01*
X396520Y620949D02*
Y631109D01*
X406680D01*
Y620949D01*
X396520D01*
Y695949D02*
Y706109D01*
X406680D01*
Y695949D01*
X396520D01*
X143120D02*
Y706109D01*
X153280D01*
Y695949D01*
X143120D01*
Y620949D02*
Y631109D01*
X153280D01*
Y620949D01*
X143120D01*
X243520Y695949D02*
Y706109D01*
X253680D01*
Y695949D01*
X243520D01*
Y620949D02*
Y631109D01*
X253680D01*
Y620949D01*
X243520D01*
X193520Y695949D02*
Y706109D01*
X203680D01*
Y695949D01*
X193520D01*
Y620949D02*
Y631109D01*
X203680D01*
Y620949D01*
X193520D01*
X71920Y498985D02*
Y509145D01*
X82080D01*
Y498985D01*
X71920D01*
Y549785D02*
Y559945D01*
X82080D01*
Y549785D01*
X71920D01*
Y632999D02*
Y643159D01*
X82080D01*
Y632999D01*
X71920D01*
Y683799D02*
Y693959D01*
X82080D01*
Y683799D01*
X71920D01*
X823920Y549785D02*
Y559945D01*
X834080D01*
Y549785D01*
X823920D01*
Y498985D02*
Y509145D01*
X834080D01*
Y498985D01*
X823920D01*
X71920Y901029D02*
Y911189D01*
X82080D01*
Y901029D01*
X71920D01*
Y951829D02*
Y961989D01*
X82080D01*
Y951829D01*
X71920D01*
X823920Y1085843D02*
Y1096003D01*
X834080D01*
Y1085843D01*
X823920D01*
Y1035043D02*
Y1045203D01*
X834080D01*
Y1035043D01*
X823920D01*
X396520Y1157370D02*
Y1167530D01*
X406680D01*
Y1157370D01*
X396520D01*
Y1232370D02*
Y1242530D01*
X406680D01*
Y1232370D01*
X396520D01*
X143120D02*
Y1242530D01*
X153280D01*
Y1232370D01*
X143120D01*
Y1157370D02*
Y1167530D01*
X153280D01*
Y1157370D01*
X143120D01*
X243520Y1232370D02*
Y1242530D01*
X253680D01*
Y1232370D01*
X243520D01*
Y1157370D02*
Y1167530D01*
X253680D01*
Y1157370D01*
X243520D01*
X193520Y1232370D02*
Y1242530D01*
X203680D01*
Y1232370D01*
X193520D01*
Y1157370D02*
Y1167530D01*
X203680D01*
Y1157370D01*
X193520D01*
X71920Y364970D02*
Y375130D01*
X82080D01*
Y364970D01*
X71920D01*
Y415770D02*
Y425930D01*
X82080D01*
Y415770D01*
X71920D01*
X396520Y754964D02*
Y765124D01*
X406680D01*
Y754964D01*
X396520D01*
Y829964D02*
Y840124D01*
X406680D01*
Y829964D01*
X396520D01*
X143120D02*
Y840124D01*
X153280D01*
Y829964D01*
X143120D01*
Y754964D02*
Y765124D01*
X153280D01*
Y754964D01*
X143120D01*
X243520Y829964D02*
Y840124D01*
X253680D01*
Y829964D01*
X243520D01*
Y754964D02*
Y765124D01*
X253680D01*
Y754964D01*
X243520D01*
X193520Y829964D02*
Y840124D01*
X203680D01*
Y829964D01*
X193520D01*
Y754964D02*
Y765124D01*
X203680D01*
Y754964D01*
X193520D01*
X673000Y1292820D02*
X675540Y1295360D01*
X678080D01*
X675540Y1297900D01*
X678080Y1300440D01*
X675540D01*
X673000Y1302980D01*
X670460Y1300440D01*
X667920D01*
X670460Y1297900D01*
X667920Y1295360D01*
X670460D01*
X673000Y1292820D01*
X823920Y683799D02*
Y693959D01*
X834080D01*
Y683799D01*
X823920D01*
Y632999D02*
Y643159D01*
X834080D01*
Y632999D01*
X823920D01*
X499020Y829864D02*
Y840024D01*
X509180D01*
Y829864D01*
X499020D01*
Y754864D02*
Y765024D01*
X509180D01*
Y754864D01*
X499020D01*
X752420D02*
Y765024D01*
X762580D01*
Y754864D01*
X752420D01*
Y829864D02*
Y840024D01*
X762580D01*
Y829864D01*
X752420D01*
X652020Y754864D02*
Y765024D01*
X662180D01*
Y754864D01*
X652020D01*
Y829864D02*
Y840024D01*
X662180D01*
Y829864D01*
X652020D01*
X702020Y754864D02*
Y765024D01*
X712180D01*
Y754864D01*
X702020D01*
Y829864D02*
Y840024D01*
X712180D01*
Y829864D01*
X702020D01*
X498608Y1232320D02*
Y1242480D01*
X508768D01*
Y1232320D01*
X498608D01*
Y1157320D02*
Y1167480D01*
X508768D01*
Y1157320D01*
X498608D01*
X752008D02*
Y1167480D01*
X762168D01*
Y1157320D01*
X752008D01*
Y1232320D02*
Y1242480D01*
X762168D01*
Y1232320D01*
X752008D01*
X651608Y1157320D02*
Y1167480D01*
X661768D01*
Y1157320D01*
X651608D01*
Y1232320D02*
Y1242480D01*
X661768D01*
Y1232320D01*
X651608D01*
X701608Y1157320D02*
Y1167480D01*
X711768D01*
Y1157320D01*
X701608D01*
Y1232320D02*
Y1242480D01*
X711768D01*
Y1232320D01*
X701608D01*
X465170Y824320D02*
X467710Y829400D01*
X465170Y834480D01*
X470250Y831940D01*
X475330Y834480D01*
X472790Y829400D01*
X475330Y824320D01*
X470250Y826860D01*
X465170Y824320D01*
X471420Y275695D02*
X473960D01*
X476500Y278235D01*
X479040Y275695D01*
X481580D01*
Y278235D01*
X479040Y280775D01*
X481580Y283315D01*
Y285855D01*
X479040D01*
X476500Y283315D01*
X473960Y285855D01*
X471420D01*
Y283315D01*
X473960Y280775D01*
X471420Y278235D01*
Y275695D01*
X491920Y276920D02*
X494460D01*
X497000Y279460D01*
X499540Y276920D01*
X502080D01*
Y279460D01*
X499540Y282000D01*
X502080Y284540D01*
Y287080D01*
X499540D01*
X497000Y284540D01*
X494460Y287080D01*
X491920D01*
Y284540D01*
X494460Y282000D01*
X491920Y279460D01*
Y276920D01*
X450920Y259920D02*
X453460D01*
X456000Y262460D01*
X458540Y259920D01*
X461080D01*
Y262460D01*
X458540Y265000D01*
X461080Y267540D01*
Y270080D01*
X458540D01*
X456000Y267540D01*
X453460Y270080D01*
X450920D01*
Y267540D01*
X453460Y265000D01*
X450920Y262460D01*
Y259920D01*
X413920Y263920D02*
X416460D01*
X419000Y266460D01*
X421540Y263920D01*
X424080D01*
Y266460D01*
X421540Y269000D01*
X424080Y271540D01*
Y274080D01*
X421540D01*
X419000Y271540D01*
X416460Y274080D01*
X413920D01*
Y271540D01*
X416460Y269000D01*
X413920Y266460D01*
Y263920D01*
X564460Y256460D02*
Y253920D01*
X569540D01*
Y256460D01*
X572080D01*
Y261540D01*
X569540D01*
Y264080D01*
X564460D01*
Y261540D01*
X561920D01*
Y256460D01*
X564460D01*
X524920Y264920D02*
X527460D01*
X530000Y267460D01*
X532540Y264920D01*
X535080D01*
Y267460D01*
X532540Y270000D01*
X535080Y272540D01*
Y275080D01*
X532540D01*
X530000Y272540D01*
X527460Y275080D01*
X524920D01*
Y272540D01*
X527460Y270000D01*
X524920Y267460D01*
Y264920D01*
X450920Y283920D02*
X453460D01*
X456000Y286460D01*
X458540Y283920D01*
X461080D01*
Y286460D01*
X458540Y289000D01*
X461080Y291540D01*
Y294080D01*
X458540D01*
X456000Y291540D01*
X453460Y294080D01*
X450920D01*
Y291540D01*
X453460Y289000D01*
X450920Y286460D01*
Y283920D01*
X395920Y273920D02*
X398460Y279000D01*
X395920Y284080D01*
X401000Y281540D01*
X406080Y284080D01*
X403540Y279000D01*
X406080Y273920D01*
X401000Y276460D01*
X395920Y273920D01*
X500420Y124820D02*
X502960Y129900D01*
X500420Y134980D01*
X505500Y132440D01*
X510580Y134980D01*
X508040Y129900D01*
X510580Y124820D01*
X505500Y127360D01*
X500420Y124820D01*
X327460Y261460D02*
Y258920D01*
X332540D01*
Y261460D01*
X335080D01*
Y266540D01*
X332540D01*
Y269080D01*
X327460D01*
Y266540D01*
X324920D01*
Y261460D01*
X327460D01*
X474920Y139920D02*
X477460D01*
X480000Y142460D01*
X482540Y139920D01*
X485080D01*
Y142460D01*
X482540Y145000D01*
X485080Y147540D01*
Y150080D01*
X482540D01*
X480000Y147540D01*
X477460Y150080D01*
X474920D01*
Y147540D01*
X477460Y145000D01*
X474920Y142460D01*
Y139920D01*
X489501Y1346031D02*
X492041Y1351111D01*
X489501Y1356191D01*
X494581Y1353651D01*
X499661Y1356191D01*
X497121Y1351111D01*
X499661Y1346031D01*
X494581Y1348571D01*
X489501Y1346031D01*
X326310Y1395768D02*
Y1393228D01*
X331390D01*
Y1395768D01*
X333930D01*
Y1400847D01*
X331390D01*
Y1403387D01*
X326310D01*
Y1400847D01*
X323770D01*
Y1395768D01*
X326310D01*
X318310Y1395860D02*
Y1393320D01*
X323390D01*
Y1395860D01*
X325930D01*
Y1400940D01*
X323390D01*
Y1403480D01*
X318310D01*
Y1400940D01*
X315770D01*
Y1395860D01*
X318310D01*
X334560Y1395768D02*
Y1393228D01*
X339640D01*
Y1395768D01*
X342180D01*
Y1400847D01*
X339640D01*
Y1403387D01*
X334560D01*
Y1400847D01*
X332020D01*
Y1395768D01*
X334560D01*
X615735Y1435360D02*
Y1432820D01*
X620815D01*
Y1435360D01*
X623355D01*
Y1440440D01*
X620815D01*
Y1442980D01*
X615735D01*
Y1440440D01*
X613195D01*
Y1435360D01*
X615735D01*
X594270Y1452570D02*
X596810D01*
X599350Y1455110D01*
X601890Y1452570D01*
X604430D01*
Y1455110D01*
X601890Y1457650D01*
X604430Y1460190D01*
Y1462730D01*
X601890D01*
X599350Y1460190D01*
X596810Y1462730D01*
X594270D01*
Y1460190D01*
X596810Y1457650D01*
X594270Y1455110D01*
Y1452570D01*
X345920Y138820D02*
X348460Y143900D01*
X345920Y148980D01*
X351000Y146440D01*
X356080Y148980D01*
X353540Y143900D01*
X356080Y138820D01*
X351000Y141360D01*
X345920Y138820D01*
X754960Y254287D02*
Y251747D01*
X760040D01*
Y254287D01*
X762580D01*
Y259367D01*
X760040D01*
Y261907D01*
X754960D01*
Y259367D01*
X752420D01*
Y254287D01*
X754960D01*
X774960Y232010D02*
Y229470D01*
X780040D01*
Y232010D01*
X782580D01*
Y237090D01*
X780040D01*
Y239630D01*
X774960D01*
Y237090D01*
X772420D01*
Y232010D01*
X774960D01*
X779960Y325787D02*
Y323247D01*
X785040D01*
Y325787D01*
X787580D01*
Y330867D01*
X785040D01*
Y333407D01*
X779960D01*
Y330867D01*
X777420D01*
Y325787D01*
X779960D01*
X791460Y232010D02*
Y229470D01*
X796540D01*
Y232010D01*
X799080D01*
Y237090D01*
X796540D01*
Y239630D01*
X791460D01*
Y237090D01*
X788920D01*
Y232010D01*
X791460D01*
X801960Y325787D02*
Y323247D01*
X807040D01*
Y325787D01*
X809580D01*
Y330867D01*
X807040D01*
Y333407D01*
X801960D01*
Y330867D01*
X799420D01*
Y325787D01*
X801960D01*
X808960Y232010D02*
Y229470D01*
X814040D01*
Y232010D01*
X816580D01*
Y237090D01*
X814040D01*
Y239630D01*
X808960D01*
Y237090D01*
X806420D01*
Y232010D01*
X808960D01*
X822960Y313787D02*
Y311247D01*
X828040D01*
Y313787D01*
X830580D01*
Y318867D01*
X828040D01*
Y321407D01*
X822960D01*
Y318867D01*
X820420D01*
Y313787D01*
X822960D01*
X826460Y299787D02*
Y297247D01*
X831540D01*
Y299787D01*
X834080D01*
Y304867D01*
X831540D01*
Y307407D01*
X826460D01*
Y304867D01*
X823920D01*
Y299787D01*
X826460D01*
X754960Y279787D02*
Y277247D01*
X760040D01*
Y279787D01*
X762580D01*
Y284867D01*
X760040D01*
Y287407D01*
X754960D01*
Y284867D01*
X752420D01*
Y279787D01*
X754960D01*
X704560Y239287D02*
Y236747D01*
X709640D01*
Y239287D01*
X712180D01*
Y244367D01*
X709640D01*
Y246907D01*
X704560D01*
Y244367D01*
X702020D01*
Y239287D01*
X704560D01*
Y277787D02*
Y275247D01*
X709640D01*
Y277787D01*
X712180D01*
Y282867D01*
X709640D01*
Y285407D01*
X704560D01*
Y282867D01*
X702020D01*
Y277787D01*
X704560D01*
Y264287D02*
Y261747D01*
X709640D01*
Y264287D01*
X712180D01*
Y269367D01*
X709640D01*
Y271907D01*
X704560D01*
Y269367D01*
X702020D01*
Y264287D01*
X704560D01*
Y252287D02*
Y249747D01*
X709640D01*
Y252287D01*
X712180D01*
Y257367D01*
X709640D01*
Y259907D01*
X704560D01*
Y257367D01*
X702020D01*
Y252287D01*
X704560D01*
X707210Y310537D02*
Y307997D01*
X712290D01*
Y310537D01*
X714830D01*
Y315617D01*
X712290D01*
Y318157D01*
X707210D01*
Y315617D01*
X704670D01*
Y310537D01*
X707210D01*
X717710Y321037D02*
Y318497D01*
X722790D01*
Y321037D01*
X725330D01*
Y326117D01*
X722790D01*
Y328657D01*
X717710D01*
Y326117D01*
X715170D01*
Y321037D01*
X717710D01*
X735460Y325787D02*
Y323247D01*
X740540D01*
Y325787D01*
X743080D01*
Y330867D01*
X740540D01*
Y333407D01*
X735460D01*
Y330867D01*
X732920D01*
Y325787D01*
X735460D01*
X752960D02*
Y323247D01*
X758040D01*
Y325787D01*
X760580D01*
Y330867D01*
X758040D01*
Y333407D01*
X752960D01*
Y330867D01*
X750420D01*
Y325787D01*
X752960D01*
X754960Y265287D02*
Y262747D01*
X760040D01*
Y265287D01*
X762580D01*
Y270367D01*
X760040D01*
Y272907D01*
X754960D01*
Y270367D01*
X752420D01*
Y265287D01*
X754960D01*
Y239787D02*
Y237247D01*
X760040D01*
Y239787D01*
X762580D01*
Y244867D01*
X760040D01*
Y247407D01*
X754960D01*
Y244867D01*
X752420D01*
Y239787D01*
X754960D01*
X362420Y187320D02*
X364960D01*
X367500Y189860D01*
X370040Y187320D01*
X372580D01*
Y189860D01*
X370040Y192400D01*
X372580Y194940D01*
Y197480D01*
X370040D01*
X367500Y194940D01*
X364960Y197480D01*
X362420D01*
Y194940D01*
X364960Y192400D01*
X362420Y189860D01*
Y187320D01*
X365460Y252360D02*
Y249820D01*
X370540D01*
Y252360D01*
X373080D01*
Y257440D01*
X370540D01*
Y259980D01*
X365460D01*
Y257440D01*
X362920D01*
Y252360D01*
X365460D01*
X365770Y270360D02*
Y267820D01*
X370850D01*
Y270360D01*
X373390D01*
Y275440D01*
X370850D01*
Y277980D01*
X365770D01*
Y275440D01*
X363230D01*
Y270360D01*
X365770D01*
X373420Y159320D02*
X375960D01*
X378500Y161860D01*
X381040Y159320D01*
X383580D01*
Y161860D01*
X381040Y164400D01*
X383580Y166940D01*
Y169480D01*
X381040D01*
X378500Y166940D01*
X375960Y169480D01*
X373420D01*
Y166940D01*
X375960Y164400D01*
X373420Y161860D01*
Y159320D01*
X378420Y299320D02*
X380960D01*
X383500Y301860D01*
X386040Y299320D01*
X388580D01*
Y301860D01*
X386040Y304400D01*
X388580Y306940D01*
Y309480D01*
X386040D01*
X383500Y306940D01*
X380960Y309480D01*
X378420D01*
Y306940D01*
X380960Y304400D01*
X378420Y301860D01*
Y299320D01*
X420420Y301320D02*
X422960D01*
X425500Y303860D01*
X428040Y301320D01*
X430580D01*
Y303860D01*
X428040Y306400D01*
X430580Y308940D01*
Y311480D01*
X428040D01*
X425500Y308940D01*
X422960Y311480D01*
X420420D01*
Y308940D01*
X422960Y306400D01*
X420420Y303860D01*
Y301320D01*
X74460Y215033D02*
Y212493D01*
X79540D01*
Y215033D01*
X82080D01*
Y220113D01*
X79540D01*
Y222653D01*
X74460D01*
Y220113D01*
X71920D01*
Y215033D01*
X74460D01*
X77960Y201033D02*
Y198493D01*
X83040D01*
Y201033D01*
X85580D01*
Y206113D01*
X83040D01*
Y208653D01*
X77960D01*
Y206113D01*
X75420D01*
Y201033D01*
X77960D01*
X91960Y282810D02*
Y280270D01*
X97040D01*
Y282810D01*
X99580D01*
Y287890D01*
X97040D01*
Y290430D01*
X91960D01*
Y287890D01*
X89420D01*
Y282810D01*
X91960D01*
X109460D02*
Y280270D01*
X114540D01*
Y282810D01*
X117080D01*
Y287890D01*
X114540D01*
Y290430D01*
X109460D01*
Y287890D01*
X106920D01*
Y282810D01*
X109460D01*
X125960D02*
Y280270D01*
X131040D01*
Y282810D01*
X133580D01*
Y287890D01*
X131040D01*
Y290430D01*
X125960D01*
Y287890D01*
X123420D01*
Y282810D01*
X125960D01*
X145960Y249533D02*
Y246993D01*
X151040D01*
Y249533D01*
X153580D01*
Y254613D01*
X151040D01*
Y257153D01*
X145960D01*
Y254613D01*
X143420D01*
Y249533D01*
X145960D01*
Y235033D02*
Y232493D01*
X151040D01*
Y235033D01*
X153580D01*
Y240113D01*
X151040D01*
Y242653D01*
X145960D01*
Y240113D01*
X143420D01*
Y235033D01*
X145960D01*
X193710Y204283D02*
Y201743D01*
X198790D01*
Y204283D01*
X201330D01*
Y209363D01*
X198790D01*
Y211903D01*
X193710D01*
Y209363D01*
X191170D01*
Y204283D01*
X193710D01*
X196360Y237033D02*
Y234493D01*
X201440D01*
Y237033D01*
X203980D01*
Y242113D01*
X201440D01*
Y244653D01*
X196360D01*
Y242113D01*
X193820D01*
Y237033D01*
X196360D01*
Y250533D02*
Y247993D01*
X201440D01*
Y250533D01*
X203980D01*
Y255613D01*
X201440D01*
Y258153D01*
X196360D01*
Y255613D01*
X193820D01*
Y250533D01*
X196360D01*
Y262533D02*
Y259993D01*
X201440D01*
Y262533D01*
X203980D01*
Y267613D01*
X201440D01*
Y270153D01*
X196360D01*
Y267613D01*
X193820D01*
Y262533D01*
X196360D01*
Y275533D02*
Y272993D01*
X201440D01*
Y275533D01*
X203980D01*
Y280613D01*
X201440D01*
Y283153D01*
X196360D01*
Y280613D01*
X193820D01*
Y275533D01*
X196360D01*
X302420Y287320D02*
X304960D01*
X307500Y289860D01*
X310040Y287320D01*
X312580D01*
Y289860D01*
X310040Y292400D01*
X312580Y294940D01*
Y297480D01*
X310040D01*
X307500Y294940D01*
X304960Y297480D01*
X302420D01*
Y294940D01*
X304960Y292400D01*
X302420Y289860D01*
Y287320D01*
X306420Y225320D02*
X308960D01*
X311500Y227860D01*
X314040Y225320D01*
X316580D01*
Y227860D01*
X314040Y230400D01*
X316580Y232940D01*
Y235480D01*
X314040D01*
X311500Y232940D01*
X308960Y235480D01*
X306420D01*
Y232940D01*
X308960Y230400D01*
X306420Y227860D01*
Y225320D01*
X310420Y186320D02*
X312960D01*
X315500Y188860D01*
X318040Y186320D01*
X320580D01*
Y188860D01*
X318040Y191400D01*
X320580Y193940D01*
Y196480D01*
X318040D01*
X315500Y193940D01*
X312960Y196480D01*
X310420D01*
Y193940D01*
X312960Y191400D01*
X310420Y188860D01*
Y186320D01*
X312420Y255320D02*
X314960D01*
X317500Y257860D01*
X320040Y255320D01*
X322580D01*
Y257860D01*
X320040Y260400D01*
X322580Y262940D01*
Y265480D01*
X320040D01*
X317500Y262940D01*
X314960Y265480D01*
X312420D01*
Y262940D01*
X314960Y260400D01*
X312420Y257860D01*
Y255320D01*
X317420Y135320D02*
X319960D01*
X322500Y137860D01*
X325040Y135320D01*
X327580D01*
Y137860D01*
X325040Y140400D01*
X327580Y142940D01*
Y145480D01*
X325040D01*
X322500Y142940D01*
X319960Y145480D01*
X317420D01*
Y142940D01*
X319960Y140400D01*
X317420Y137860D01*
Y135320D01*
X329420Y168320D02*
X331960D01*
X334500Y170860D01*
X337040Y168320D01*
X339580D01*
Y170860D01*
X337040Y173400D01*
X339580Y175940D01*
Y178480D01*
X337040D01*
X334500Y175940D01*
X331960Y178480D01*
X329420D01*
Y175940D01*
X331960Y173400D01*
X329420Y170860D01*
Y168320D01*
X354460Y228860D02*
Y226320D01*
X359540D01*
Y228860D01*
X362080D01*
Y233940D01*
X359540D01*
Y236480D01*
X354460D01*
Y233940D01*
X351920D01*
Y228860D01*
X354460D01*
X145960Y260533D02*
Y257993D01*
X151040D01*
Y260533D01*
X153580D01*
Y265613D01*
X151040D01*
Y268153D01*
X145960D01*
Y265613D01*
X143420D01*
Y260533D01*
X145960D01*
Y275033D02*
Y272493D01*
X151040D01*
Y275033D01*
X153580D01*
Y280113D01*
X151040D01*
Y282653D01*
X145960D01*
Y280113D01*
X143420D01*
Y275033D01*
X145960D01*
X183210Y193783D02*
Y191243D01*
X188290D01*
Y193783D01*
X190830D01*
Y198863D01*
X188290D01*
Y201403D01*
X183210D01*
Y198863D01*
X180670D01*
Y193783D01*
X183210D01*
X467920Y299920D02*
X470460D01*
X473000Y302460D01*
X475540Y299920D01*
X478080D01*
Y302460D01*
X475540Y305000D01*
X478080Y307540D01*
Y310080D01*
X475540D01*
X473000Y307540D01*
X470460Y310080D01*
X467920D01*
Y307540D01*
X470460Y305000D01*
X467920Y302460D01*
Y299920D01*
X518420Y231320D02*
X520960D01*
X523500Y233860D01*
X526040Y231320D01*
X528580D01*
Y233860D01*
X526040Y236400D01*
X528580Y238940D01*
Y241480D01*
X526040D01*
X523500Y238940D01*
X520960Y241480D01*
X518420D01*
Y238940D01*
X520960Y236400D01*
X518420Y233860D01*
Y231320D01*
X521420Y179320D02*
X523960D01*
X526500Y181860D01*
X529040Y179320D01*
X531580D01*
Y181860D01*
X529040Y184400D01*
X531580Y186940D01*
Y189480D01*
X529040D01*
X526500Y186940D01*
X523960Y189480D01*
X521420D01*
Y186940D01*
X523960Y184400D01*
X521420Y181860D01*
Y179320D01*
X524420Y146320D02*
X526960D01*
X529500Y148860D01*
X532040Y146320D01*
X534580D01*
Y148860D01*
X532040Y151400D01*
X534580Y153940D01*
Y156480D01*
X532040D01*
X529500Y153940D01*
X526960Y156480D01*
X524420D01*
Y153940D01*
X526960Y151400D01*
X524420Y148860D01*
Y146320D01*
X539420Y132320D02*
X541960Y137400D01*
X539420Y142480D01*
X544500Y139940D01*
X549580Y142480D01*
X547040Y137400D01*
X549580Y132320D01*
X544500Y134860D01*
X539420Y132320D01*
X549420Y285320D02*
X551960D01*
X554500Y287860D01*
X557040Y285320D01*
X559580D01*
Y287860D01*
X557040Y290400D01*
X559580Y292940D01*
Y295480D01*
X557040D01*
X554500Y292940D01*
X551960Y295480D01*
X549420D01*
Y292940D01*
X551960Y290400D01*
X549420Y287860D01*
Y285320D01*
X551420Y232320D02*
X553960D01*
X556500Y234860D01*
X559040Y232320D01*
X561580D01*
Y234860D01*
X559040Y237400D01*
X561580Y239940D01*
Y242480D01*
X559040D01*
X556500Y239940D01*
X553960Y242480D01*
X551420D01*
Y239940D01*
X553960Y237400D01*
X551420Y234860D01*
Y232320D01*
X552420Y173320D02*
X554960D01*
X557500Y175860D01*
X560040Y173320D01*
X562580D01*
Y175860D01*
X560040Y178400D01*
X562580Y180940D01*
Y183480D01*
X560040D01*
X557500Y180940D01*
X554960Y183480D01*
X552420D01*
Y180940D01*
X554960Y178400D01*
X552420Y175860D01*
Y173320D01*
X561420Y132320D02*
X563960D01*
X566500Y134860D01*
X569040Y132320D01*
X571580D01*
Y134860D01*
X569040Y137400D01*
X571580Y139940D01*
Y142480D01*
X569040D01*
X566500Y139940D01*
X563960Y142480D01*
X561420D01*
Y139940D01*
X563960Y137400D01*
X561420Y134860D01*
Y132320D01*
X575420Y286320D02*
X577960D01*
X580500Y288860D01*
X583040Y286320D01*
X585580D01*
Y288860D01*
X583040Y291400D01*
X585580Y293940D01*
Y296480D01*
X583040D01*
X580500Y293940D01*
X577960Y296480D01*
X575420D01*
Y293940D01*
X577960Y291400D01*
X575420Y288860D01*
Y286320D01*
X579420Y224320D02*
X581960D01*
X584500Y226860D01*
X587040Y224320D01*
X589580D01*
Y226860D01*
X587040Y229400D01*
X589580Y231940D01*
Y234480D01*
X587040D01*
X584500Y231940D01*
X581960Y234480D01*
X579420D01*
Y231940D01*
X581960Y229400D01*
X579420Y226860D01*
Y224320D01*
X583420Y185320D02*
X585960D01*
X588500Y187860D01*
X591040Y185320D01*
X593580D01*
Y187860D01*
X591040Y190400D01*
X593580Y192940D01*
Y195480D01*
X591040D01*
X588500Y192940D01*
X585960Y195480D01*
X583420D01*
Y192940D01*
X585960Y190400D01*
X583420Y187860D01*
Y185320D01*
X585420Y254320D02*
X587960D01*
X590500Y256860D01*
X593040Y254320D01*
X595580D01*
Y256860D01*
X593040Y259400D01*
X595580Y261940D01*
Y264480D01*
X593040D01*
X590500Y261940D01*
X587960Y264480D01*
X585420D01*
Y261940D01*
X587960Y259400D01*
X585420Y256860D01*
Y254320D01*
X330960Y1279641D02*
X333500Y1284721D01*
X330960Y1289801D01*
X336040Y1287261D01*
X341120Y1289801D01*
X338580Y1284721D01*
X341120Y1279641D01*
X336040Y1282181D01*
X330960Y1279641D01*
X319420Y1355320D02*
X321960Y1360400D01*
X319420Y1365480D01*
X324500Y1362940D01*
X329580Y1365480D01*
X327040Y1360400D01*
X329580Y1355320D01*
X324500Y1357860D01*
X319420Y1355320D01*
X496190Y1390320D02*
X498730Y1395400D01*
X496190Y1400480D01*
X501270Y1397940D01*
X506350Y1400480D01*
X503810Y1395400D01*
X506350Y1390320D01*
X501270Y1392860D01*
X496190Y1390320D01*
X502170Y1300320D02*
X504710Y1305400D01*
X502170Y1310480D01*
X507250Y1307940D01*
X512330Y1310480D01*
X509790Y1305400D01*
X512330Y1300320D01*
X507250Y1302860D01*
X502170Y1300320D01*
X328420Y1272820D02*
X330960Y1277900D01*
X328420Y1282980D01*
X333500Y1280440D01*
X338580Y1282980D01*
X336040Y1277900D01*
X338580Y1272820D01*
X333500Y1275360D01*
X328420Y1272820D01*
X344920Y1343820D02*
X347460Y1348900D01*
X344920Y1353980D01*
X350000Y1351440D01*
X355080Y1353980D01*
X352540Y1348900D01*
X355080Y1343820D01*
X350000Y1346360D01*
X344920Y1343820D01*
X370310Y313860D02*
Y311320D01*
X375390D01*
Y313860D01*
X377930D01*
Y318940D01*
X375390D01*
Y321480D01*
X370310D01*
Y318940D01*
X367770D01*
Y313860D01*
X370310D01*
X337953Y1346333D02*
X340494Y1351413D01*
X337953Y1356493D01*
X343033Y1353953D01*
X348114Y1356493D01*
X345574Y1351413D01*
X348114Y1346333D01*
X343033Y1348873D01*
X337953Y1346333D01*
X357420Y1344820D02*
X359960Y1349900D01*
X357420Y1354980D01*
X362500Y1352440D01*
X367580Y1354980D01*
X365040Y1349900D01*
X367580Y1344820D01*
X362500Y1347360D01*
X357420Y1344820D01*
X379390Y399860D02*
Y397320D01*
X384470D01*
Y399860D01*
X387010D01*
Y404940D01*
X384470D01*
Y407480D01*
X379390D01*
Y404940D01*
X376850D01*
Y399860D01*
X379390D01*
X386970Y1246320D02*
X389510Y1251400D01*
X386970Y1256480D01*
X392050Y1253940D01*
X397130Y1256480D01*
X394590Y1251400D01*
X397130Y1246320D01*
X392050Y1248860D01*
X386970Y1246320D01*
X380000Y1329590D02*
X382540Y1334670D01*
X380000Y1339750D01*
X385080Y1337210D01*
X390160Y1339750D01*
X387620Y1334670D01*
X390160Y1329590D01*
X385080Y1332130D01*
X380000Y1329590D01*
X363920Y1348320D02*
X366460Y1353400D01*
X363920Y1358480D01*
X369000Y1355940D01*
X374080Y1358480D01*
X371540Y1353400D01*
X374080Y1348320D01*
X369000Y1350860D01*
X363920Y1348320D01*
X384960Y448860D02*
Y446320D01*
X390040D01*
Y448860D01*
X392580D01*
Y453940D01*
X390040D01*
Y456480D01*
X384960D01*
Y453940D01*
X382420D01*
Y448860D01*
X384960D01*
X374850Y352860D02*
Y350320D01*
X379930D01*
Y352860D01*
X382470D01*
Y357940D01*
X379930D01*
Y360480D01*
X374850D01*
Y357940D01*
X372310D01*
Y352860D01*
X374850D01*
X350690Y1347820D02*
X353230Y1352900D01*
X350690Y1357980D01*
X355770Y1355440D01*
X360850Y1357980D01*
X358310Y1352900D01*
X360850Y1347820D01*
X355770Y1350360D01*
X350690Y1347820D01*
X502420Y1275820D02*
X504960Y1280900D01*
X502420Y1285980D01*
X507500Y1283440D01*
X512580Y1285980D01*
X510040Y1280900D01*
X512580Y1275820D01*
X507500Y1278360D01*
X502420Y1275820D01*
X510910Y1141820D02*
X513450Y1146900D01*
X510910Y1151980D01*
X515990Y1149440D01*
X521070Y1151980D01*
X518530Y1146900D01*
X521070Y1141820D01*
X515990Y1144360D01*
X510910Y1141820D01*
X551420Y1272320D02*
X553960Y1277400D01*
X551420Y1282480D01*
X556500Y1279940D01*
X561580Y1282480D01*
X559040Y1277400D01*
X561580Y1272320D01*
X556500Y1274860D01*
X551420Y1272320D01*
X528420Y1286820D02*
X530960Y1291900D01*
X528420Y1296980D01*
X533500Y1294440D01*
X538580Y1296980D01*
X536040Y1291900D01*
X538580Y1286820D01*
X533500Y1289360D01*
X528420Y1286820D01*
X333250Y1266650D02*
X335790Y1271730D01*
X333250Y1276810D01*
X338330Y1274270D01*
X343410Y1276810D01*
X340870Y1271730D01*
X343410Y1266650D01*
X338330Y1269190D01*
X333250Y1266650D01*
X523420Y1272820D02*
X525960Y1277900D01*
X523420Y1282980D01*
X528500Y1280440D01*
X533580Y1282980D01*
X531040Y1277900D01*
X533580Y1272820D01*
X528500Y1275360D01*
X523420Y1272820D01*
X339920Y101320D02*
X342460Y106400D01*
X339920Y111480D01*
X345000Y108940D01*
X350080Y111480D01*
X347540Y106400D01*
X350080Y101320D01*
X345000Y103860D01*
X339920Y101320D01*
X475570Y1323820D02*
X478110Y1328900D01*
X475570Y1333980D01*
X480650Y1331440D01*
X485730Y1333980D01*
X483190Y1328900D01*
X485730Y1323820D01*
X480650Y1326360D01*
X475570Y1323820D01*
X534420D02*
X536960Y1328900D01*
X534420Y1333980D01*
X539500Y1331440D01*
X544580Y1333980D01*
X542040Y1328900D01*
X544580Y1323820D01*
X539500Y1326360D01*
X534420Y1323820D01*
X475570Y1311320D02*
X478110Y1316400D01*
X475570Y1321480D01*
X480650Y1318940D01*
X485730Y1321480D01*
X483190Y1316400D01*
X485730Y1311320D01*
X480650Y1313860D01*
X475570Y1311320D01*
X421250Y1323820D02*
X423790Y1328900D01*
X421250Y1333980D01*
X426330Y1331440D01*
X431410Y1333980D01*
X428870Y1328900D01*
X431410Y1323820D01*
X426330Y1326360D01*
X421250Y1323820D01*
X416920Y1310320D02*
X419460Y1315400D01*
X416920Y1320480D01*
X422000Y1317940D01*
X427080Y1320480D01*
X424540Y1315400D01*
X427080Y1310320D01*
X422000Y1312860D01*
X416920Y1310320D01*
X534420Y1310820D02*
X536960Y1315900D01*
X534420Y1320980D01*
X539500Y1318440D01*
X544580Y1320980D01*
X542040Y1315900D01*
X544580Y1310820D01*
X539500Y1313360D01*
X534420Y1310820D01*
X319420Y1321320D02*
X321960Y1326400D01*
X319420Y1331480D01*
X324500Y1328940D01*
X329580Y1331480D01*
X327040Y1326400D01*
X329580Y1321320D01*
X324500Y1323860D01*
X319420Y1321320D01*
X496650Y1317820D02*
X499190Y1322900D01*
X496650Y1327980D01*
X501730Y1325440D01*
X506810Y1327980D01*
X504270Y1322900D01*
X506810Y1317820D01*
X501730Y1320360D01*
X496650Y1317820D01*
X567920Y1377320D02*
X570460Y1382400D01*
X567920Y1387480D01*
X573000Y1384940D01*
X578080Y1387480D01*
X575540Y1382400D01*
X578080Y1377320D01*
X573000Y1379860D01*
X567920Y1377320D01*
X456920Y1376820D02*
X459460Y1381900D01*
X456920Y1386980D01*
X462000Y1384440D01*
X467080Y1386980D01*
X464540Y1381900D01*
X467080Y1376820D01*
X462000Y1379360D01*
X456920Y1376820D01*
X567420Y1300820D02*
X569960Y1305900D01*
X567420Y1310980D01*
X572500Y1308440D01*
X577580Y1310980D01*
X575040Y1305900D01*
X577580Y1300820D01*
X572500Y1303360D01*
X567420Y1300820D01*
X457150Y1312280D02*
X459690Y1317360D01*
X457150Y1322440D01*
X462230Y1319900D01*
X467310Y1322440D01*
X464770Y1317360D01*
X467310Y1312280D01*
X462230Y1314820D01*
X457150Y1312280D01*
X547920Y1345820D02*
X550460Y1350900D01*
X547920Y1355980D01*
X553000Y1353440D01*
X558080Y1355980D01*
X555540Y1350900D01*
X558080Y1345820D01*
X553000Y1348360D01*
X547920Y1345820D01*
X540420Y899820D02*
X542960Y904900D01*
X540420Y909980D01*
X545500Y907440D01*
X550580Y909980D01*
X548040Y904900D01*
X550580Y899820D01*
X545500Y902360D01*
X540420Y899820D01*
X540920Y1342820D02*
X543460Y1347900D01*
X540920Y1352980D01*
X546000Y1350440D01*
X551080Y1352980D01*
X548540Y1347900D01*
X551080Y1342820D01*
X546000Y1345360D01*
X540920Y1342820D01*
X532920Y922820D02*
X535460Y927900D01*
X532920Y932980D01*
X538000Y930440D01*
X543080Y932980D01*
X540540Y927900D01*
X543080Y922820D01*
X538000Y925360D01*
X532920Y922820D01*
X534920Y1346820D02*
X537460Y1351900D01*
X534920Y1356980D01*
X540000Y1354440D01*
X545080Y1356980D01*
X542540Y1351900D01*
X545080Y1346820D01*
X540000Y1349360D01*
X534920Y1346820D01*
X533610Y985320D02*
X536150Y990400D01*
X533610Y995480D01*
X538690Y992940D01*
X543770Y995480D01*
X541230Y990400D01*
X543770Y985320D01*
X538690Y987860D01*
X533610Y985320D01*
X527966Y1342793D02*
X530507Y1347873D01*
X527966Y1352953D01*
X533046Y1350413D01*
X538126Y1352953D01*
X535587Y1347873D01*
X538126Y1342793D01*
X533046Y1345333D01*
X527966Y1342793D01*
X529070Y1000820D02*
X531610Y1005900D01*
X529070Y1010980D01*
X534150Y1008440D01*
X539230Y1010980D01*
X536690Y1005900D01*
X539230Y1000820D01*
X534150Y1003360D01*
X529070Y1000820D01*
X521920Y1346320D02*
X524460Y1351400D01*
X521920Y1356480D01*
X527000Y1353940D01*
X532080Y1356480D01*
X529540Y1351400D01*
X532080Y1346320D01*
X527000Y1348860D01*
X521920Y1346320D01*
X524530Y1048820D02*
X527070Y1053900D01*
X524530Y1058980D01*
X529610Y1056440D01*
X534690Y1058980D01*
X532150Y1053900D01*
X534690Y1048820D01*
X529610Y1051360D01*
X524530Y1048820D01*
X515420Y1342320D02*
X517960Y1347400D01*
X515420Y1352480D01*
X520500Y1349940D01*
X525580Y1352480D01*
X523040Y1347400D01*
X525580Y1342320D01*
X520500Y1344860D01*
X515420Y1342320D01*
X519990Y1070820D02*
X522530Y1075900D01*
X519990Y1080980D01*
X525070Y1078440D01*
X530150Y1080980D01*
X527610Y1075900D01*
X530150Y1070820D01*
X525070Y1073360D01*
X519990Y1070820D01*
X508420Y1346820D02*
X510960Y1351900D01*
X508420Y1356980D01*
X513500Y1354440D01*
X518580Y1356980D01*
X516040Y1351900D01*
X518580Y1346820D01*
X513500Y1349360D01*
X508420Y1346820D01*
X515450Y1115320D02*
X517990Y1120400D01*
X515450Y1125480D01*
X520530Y1122940D01*
X525610Y1125480D01*
X523070Y1120400D01*
X525610Y1115320D01*
X520530Y1117860D01*
X515450Y1115320D01*
X386970Y1263820D02*
X389510Y1268900D01*
X386970Y1273980D01*
X392050Y1271440D01*
X397130Y1273980D01*
X394590Y1268900D01*
X397130Y1263820D01*
X392050Y1266360D01*
X386970Y1263820D01*
X376920Y1337820D02*
X379460Y1342900D01*
X376920Y1347980D01*
X382000Y1345440D01*
X387080Y1347980D01*
X384540Y1342900D01*
X387080Y1337820D01*
X382000Y1340360D01*
X376920Y1337820D01*
X331420Y1343820D02*
X333960Y1348900D01*
X331420Y1353980D01*
X336500Y1351440D01*
X341580Y1353980D01*
X339040Y1348900D01*
X341580Y1343820D01*
X336500Y1346360D01*
X331420Y1343820D01*
X370920Y1345320D02*
X373460Y1350400D01*
X370920Y1355480D01*
X376000Y1352940D01*
X381080Y1355480D01*
X378540Y1350400D01*
X381080Y1345320D01*
X376000Y1347860D01*
X370920Y1345320D01*
X384930Y1220820D02*
X387470Y1225900D01*
X384930Y1230980D01*
X390010Y1228440D01*
X395090Y1230980D01*
X392550Y1225900D01*
X395090Y1220820D01*
X390010Y1223360D01*
X384930Y1220820D01*
X462920Y1347320D02*
X465460Y1352400D01*
X462920Y1357480D01*
X468000Y1354940D01*
X473080Y1357480D01*
X470540Y1352400D01*
X473080Y1347320D01*
X468000Y1349860D01*
X462920Y1347320D01*
X791460Y367510D02*
Y364970D01*
X796540D01*
Y367510D01*
X799080D01*
Y372590D01*
X796540D01*
Y375130D01*
X791460D01*
Y372590D01*
X788920D01*
Y367510D01*
X791460D01*
X754960Y415287D02*
Y412747D01*
X760040D01*
Y415287D01*
X762580D01*
Y420367D01*
X760040D01*
Y422907D01*
X754960D01*
Y420367D01*
X752420D01*
Y415287D01*
X754960D01*
Y400787D02*
Y398247D01*
X760040D01*
Y400787D01*
X762580D01*
Y405867D01*
X760040D01*
Y408407D01*
X754960D01*
Y405867D01*
X752420D01*
Y400787D01*
X754960D01*
X774960Y367510D02*
Y364970D01*
X780040D01*
Y367510D01*
X782580D01*
Y372590D01*
X780040D01*
Y375130D01*
X774960D01*
Y372590D01*
X772420D01*
Y367510D01*
X774960D01*
X808960D02*
Y364970D01*
X814040D01*
Y367510D01*
X816580D01*
Y372590D01*
X814040D01*
Y375130D01*
X808960D01*
Y372590D01*
X806420D01*
Y367510D01*
X808960D01*
X754960Y389787D02*
Y387247D01*
X760040D01*
Y389787D01*
X762580D01*
Y394867D01*
X760040D01*
Y397407D01*
X754960D01*
Y394867D01*
X752420D01*
Y389787D01*
X754960D01*
Y375287D02*
Y372747D01*
X760040D01*
Y375287D01*
X762580D01*
Y380367D01*
X760040D01*
Y382907D01*
X754960D01*
Y380367D01*
X752420D01*
Y375287D01*
X754960D01*
X826460Y435287D02*
Y432747D01*
X831540D01*
Y435287D01*
X834080D01*
Y440367D01*
X831540D01*
Y442907D01*
X826460D01*
Y440367D01*
X823920D01*
Y435287D01*
X826460D01*
X801960Y461287D02*
Y458747D01*
X807040D01*
Y461287D01*
X809580D01*
Y466367D01*
X807040D01*
Y468907D01*
X801960D01*
Y466367D01*
X799420D01*
Y461287D01*
X801960D01*
X735460D02*
Y458747D01*
X740540D01*
Y461287D01*
X743080D01*
Y466367D01*
X740540D01*
Y468907D01*
X735460D01*
Y466367D01*
X732920D01*
Y461287D01*
X735460D01*
X704560Y387787D02*
Y385247D01*
X709640D01*
Y387787D01*
X712180D01*
Y392867D01*
X709640D01*
Y395407D01*
X704560D01*
Y392867D01*
X702020D01*
Y387787D01*
X704560D01*
X822960Y449287D02*
Y446747D01*
X828040D01*
Y449287D01*
X830580D01*
Y454367D01*
X828040D01*
Y456907D01*
X822960D01*
Y454367D01*
X820420D01*
Y449287D01*
X822960D01*
X704560Y413287D02*
Y410747D01*
X709640D01*
Y413287D01*
X712180D01*
Y418367D01*
X709640D01*
Y420907D01*
X704560D01*
Y418367D01*
X702020D01*
Y413287D01*
X704560D01*
X779960Y461287D02*
Y458747D01*
X785040D01*
Y461287D01*
X787580D01*
Y466367D01*
X785040D01*
Y468907D01*
X779960D01*
Y466367D01*
X777420D01*
Y461287D01*
X779960D01*
X717710Y456537D02*
Y453997D01*
X722790D01*
Y456537D01*
X725330D01*
Y461617D01*
X722790D01*
Y464157D01*
X717710D01*
Y461617D01*
X715170D01*
Y456537D01*
X717710D01*
X707210Y446037D02*
Y443497D01*
X712290D01*
Y446037D01*
X714830D01*
Y451117D01*
X712290D01*
Y453657D01*
X707210D01*
Y451117D01*
X704670D01*
Y446037D01*
X707210D01*
X704560Y399787D02*
Y397247D01*
X709640D01*
Y399787D01*
X712180D01*
Y404867D01*
X709640D01*
Y407407D01*
X704560D01*
Y404867D01*
X702020D01*
Y399787D01*
X704560D01*
Y374787D02*
Y372247D01*
X709640D01*
Y374787D01*
X712180D01*
Y379867D01*
X709640D01*
Y382407D01*
X704560D01*
Y379867D01*
X702020D01*
Y374787D01*
X704560D01*
X752960Y461287D02*
Y458747D01*
X758040D01*
Y461287D01*
X760580D01*
Y466367D01*
X758040D01*
Y468907D01*
X752960D01*
Y466367D01*
X750420D01*
Y461287D01*
X752960D01*
X410420Y1344320D02*
X412960Y1349400D01*
X410420Y1354480D01*
X415500Y1351940D01*
X420580Y1354480D01*
X418040Y1349400D01*
X420580Y1344320D01*
X415500Y1346860D01*
X410420Y1344320D01*
X444920Y645320D02*
X447460Y650400D01*
X444920Y655480D01*
X450000Y652940D01*
X455080Y655480D01*
X452540Y650400D01*
X455080Y645320D01*
X450000Y647860D01*
X444920Y645320D01*
X434750Y1343719D02*
X437290Y1348799D01*
X434750Y1353878D01*
X439830Y1351339D01*
X444910Y1353878D01*
X442370Y1348799D01*
X444910Y1343719D01*
X439830Y1346259D01*
X434750Y1343719D01*
X465170Y763820D02*
X467710Y768900D01*
X465170Y773980D01*
X470250Y771440D01*
X475330Y773980D01*
X472790Y768900D01*
X475330Y763820D01*
X470250Y766360D01*
X465170Y763820D01*
X426590Y1343719D02*
X429130Y1348799D01*
X426590Y1353878D01*
X431670Y1351339D01*
X436750Y1353878D01*
X434210Y1348799D01*
X436750Y1343719D01*
X431670Y1346259D01*
X426590Y1343719D01*
X452920Y712820D02*
X455460Y717900D01*
X452920Y722980D01*
X458000Y720440D01*
X463080Y722980D01*
X460540Y717900D01*
X463080Y712820D01*
X458000Y715360D01*
X452920Y712820D01*
X456420Y1289820D02*
X458960Y1294900D01*
X456420Y1299980D01*
X461500Y1297440D01*
X466580Y1299980D01*
X464040Y1294900D01*
X466580Y1289820D01*
X461500Y1292360D01*
X456420Y1289820D01*
X452920Y771320D02*
X455460Y776400D01*
X452920Y781480D01*
X458000Y778940D01*
X463080Y781480D01*
X460540Y776400D01*
X463080Y771320D01*
X458000Y773860D01*
X452920Y771320D01*
X418468Y1343719D02*
X421008Y1348799D01*
X418468Y1353878D01*
X423548Y1351339D01*
X428628Y1353878D01*
X426088Y1348799D01*
X428628Y1343719D01*
X423548Y1346259D01*
X418468Y1343719D01*
X451920Y697320D02*
X454460Y702400D01*
X451920Y707480D01*
X457000Y704940D01*
X462080Y707480D01*
X459540Y702400D01*
X462080Y697320D01*
X457000Y699860D01*
X451920Y697320D01*
X399420Y1285610D02*
X401960Y1290690D01*
X399420Y1295770D01*
X404500Y1293230D01*
X409580Y1295770D01*
X407040Y1290690D01*
X409580Y1285610D01*
X404500Y1288150D01*
X399420Y1285610D01*
X426420Y513320D02*
X428960Y518400D01*
X426420Y523480D01*
X431500Y520940D01*
X436580Y523480D01*
X434040Y518400D01*
X436580Y513320D01*
X431500Y515860D01*
X426420Y513320D01*
X469420Y1343320D02*
X471960Y1348400D01*
X469420Y1353480D01*
X474500Y1350940D01*
X479580Y1353480D01*
X477040Y1348400D01*
X479580Y1343320D01*
X474500Y1345860D01*
X469420Y1343320D01*
X462420Y842320D02*
X464960Y847400D01*
X462420Y852480D01*
X467500Y849940D01*
X472580Y852480D01*
X470040Y847400D01*
X472580Y842320D01*
X467500Y844860D01*
X462420Y842320D01*
X98960Y994607D02*
Y992067D01*
X104040D01*
Y994607D01*
X106580D01*
Y999687D01*
X104040D01*
Y1002227D01*
X98960D01*
Y999687D01*
X96420D01*
Y994607D01*
X98960D01*
X193710Y1009857D02*
Y1007317D01*
X198790D01*
Y1009857D01*
X201330D01*
Y1014937D01*
X198790D01*
Y1017477D01*
X193710D01*
Y1014937D01*
X191170D01*
Y1009857D01*
X193710D01*
X120960Y994607D02*
Y992067D01*
X126040D01*
Y994607D01*
X128580D01*
Y999687D01*
X126040D01*
Y1002227D01*
X120960D01*
Y999687D01*
X118420D01*
Y994607D01*
X120960D01*
X196360Y1042607D02*
Y1040067D01*
X201440D01*
Y1042607D01*
X203980D01*
Y1047687D01*
X201440D01*
Y1050227D01*
X196360D01*
Y1047687D01*
X193820D01*
Y1042607D01*
X196360D01*
Y1056107D02*
Y1053567D01*
X201440D01*
Y1056107D01*
X203980D01*
Y1061187D01*
X201440D01*
Y1063727D01*
X196360D01*
Y1061187D01*
X193820D01*
Y1056107D01*
X196360D01*
X183210Y999357D02*
Y996817D01*
X188290D01*
Y999357D01*
X190830D01*
Y1004437D01*
X188290D01*
Y1006977D01*
X183210D01*
Y1004437D01*
X180670D01*
Y999357D01*
X183210D01*
X147960Y994607D02*
Y992067D01*
X153040D01*
Y994607D01*
X155580D01*
Y999687D01*
X153040D01*
Y1002227D01*
X147960D01*
Y999687D01*
X145420D01*
Y994607D01*
X147960D01*
X77960Y1006607D02*
Y1004067D01*
X83040D01*
Y1006607D01*
X85580D01*
Y1011687D01*
X83040D01*
Y1014227D01*
X77960D01*
Y1011687D01*
X75420D01*
Y1006607D01*
X77960D01*
X196360Y1068107D02*
Y1065567D01*
X201440D01*
Y1068107D01*
X203980D01*
Y1073187D01*
X201440D01*
Y1075727D01*
X196360D01*
Y1073187D01*
X193820D01*
Y1068107D01*
X196360D01*
X165460Y994607D02*
Y992067D01*
X170540D01*
Y994607D01*
X173080D01*
Y999687D01*
X170540D01*
Y1002227D01*
X165460D01*
Y999687D01*
X162920D01*
Y994607D01*
X165460D01*
X74460Y1020607D02*
Y1018067D01*
X79540D01*
Y1020607D01*
X82080D01*
Y1025687D01*
X79540D01*
Y1028227D01*
X74460D01*
Y1025687D01*
X71920D01*
Y1020607D01*
X74460D01*
X196360Y1081107D02*
Y1078567D01*
X201440D01*
Y1081107D01*
X203980D01*
Y1086187D01*
X201440D01*
Y1088727D01*
X196360D01*
Y1086187D01*
X193820D01*
Y1081107D01*
X196360D01*
X109460Y1088383D02*
Y1085843D01*
X114540D01*
Y1088383D01*
X117080D01*
Y1093463D01*
X114540D01*
Y1096003D01*
X109460D01*
Y1093463D01*
X106920D01*
Y1088383D01*
X109460D01*
X145960Y1080607D02*
Y1078067D01*
X151040D01*
Y1080607D01*
X153580D01*
Y1085687D01*
X151040D01*
Y1088227D01*
X145960D01*
Y1085687D01*
X143420D01*
Y1080607D01*
X145960D01*
X91960Y1088383D02*
Y1085843D01*
X97040D01*
Y1088383D01*
X99580D01*
Y1093463D01*
X97040D01*
Y1096003D01*
X91960D01*
Y1093463D01*
X89420D01*
Y1088383D01*
X91960D01*
X145960Y1066107D02*
Y1063567D01*
X151040D01*
Y1066107D01*
X153580D01*
Y1071187D01*
X151040D01*
Y1073727D01*
X145960D01*
Y1071187D01*
X143420D01*
Y1066107D01*
X145960D01*
Y1055107D02*
Y1052567D01*
X151040D01*
Y1055107D01*
X153580D01*
Y1060187D01*
X151040D01*
Y1062727D01*
X145960D01*
Y1060187D01*
X143420D01*
Y1055107D01*
X145960D01*
X125960Y1088383D02*
Y1085843D01*
X131040D01*
Y1088383D01*
X133580D01*
Y1093463D01*
X131040D01*
Y1096003D01*
X125960D01*
Y1093463D01*
X123420D01*
Y1088383D01*
X125960D01*
X145960Y1040607D02*
Y1038067D01*
X151040D01*
Y1040607D01*
X153580D01*
Y1045687D01*
X151040D01*
Y1048227D01*
X145960D01*
Y1045687D01*
X143420D01*
Y1040607D01*
X145960D01*
X403920Y1347820D02*
X406460Y1352900D01*
X403920Y1357980D01*
X409000Y1355440D01*
X414080Y1357980D01*
X411540Y1352900D01*
X414080Y1347820D01*
X409000Y1350360D01*
X403920Y1347820D01*
X448420Y629820D02*
X450960Y634900D01*
X448420Y639980D01*
X453500Y637440D01*
X458580Y639980D01*
X456040Y634900D01*
X458580Y629820D01*
X453500Y632360D01*
X448420Y629820D01*
X791460Y903569D02*
Y901029D01*
X796540D01*
Y903569D01*
X799080D01*
Y908649D01*
X796540D01*
Y911189D01*
X791460D01*
Y908649D01*
X788920D01*
Y903569D01*
X791460D01*
X754960Y925845D02*
Y923305D01*
X760040D01*
Y925845D01*
X762580D01*
Y930925D01*
X760040D01*
Y933465D01*
X754960D01*
Y930925D01*
X752420D01*
Y925845D01*
X754960D01*
X774960Y903569D02*
Y901029D01*
X780040D01*
Y903569D01*
X782580D01*
Y908649D01*
X780040D01*
Y911189D01*
X774960D01*
Y908649D01*
X772420D01*
Y903569D01*
X774960D01*
X754960Y911345D02*
Y908805D01*
X760040D01*
Y911345D01*
X762580D01*
Y916425D01*
X760040D01*
Y918965D01*
X754960D01*
Y916425D01*
X752420D01*
Y911345D01*
X754960D01*
Y936845D02*
Y934305D01*
X760040D01*
Y936845D01*
X762580D01*
Y941925D01*
X760040D01*
Y944465D01*
X754960D01*
Y941925D01*
X752420D01*
Y936845D01*
X754960D01*
Y951345D02*
Y948805D01*
X760040D01*
Y951345D01*
X762580D01*
Y956425D01*
X760040D01*
Y958965D01*
X754960D01*
Y956425D01*
X752420D01*
Y951345D01*
X754960D01*
X808960Y903569D02*
Y901029D01*
X814040D01*
Y903569D01*
X816580D01*
Y908649D01*
X814040D01*
Y911189D01*
X808960D01*
Y908649D01*
X806420D01*
Y903569D01*
X808960D01*
X717710Y992595D02*
Y990055D01*
X722790D01*
Y992595D01*
X725330D01*
Y997675D01*
X722790D01*
Y1000215D01*
X717710D01*
Y997675D01*
X715170D01*
Y992595D01*
X717710D01*
X752960Y997345D02*
Y994805D01*
X758040D01*
Y997345D01*
X760580D01*
Y1002425D01*
X758040D01*
Y1004965D01*
X752960D01*
Y1002425D01*
X750420D01*
Y997345D01*
X752960D01*
X704560Y935845D02*
Y933305D01*
X709640D01*
Y935845D01*
X712180D01*
Y940925D01*
X709640D01*
Y943465D01*
X704560D01*
Y940925D01*
X702020D01*
Y935845D01*
X704560D01*
Y910845D02*
Y908305D01*
X709640D01*
Y910845D01*
X712180D01*
Y915925D01*
X709640D01*
Y918465D01*
X704560D01*
Y915925D01*
X702020D01*
Y910845D01*
X704560D01*
Y949345D02*
Y946805D01*
X709640D01*
Y949345D01*
X712180D01*
Y954425D01*
X709640D01*
Y956965D01*
X704560D01*
Y954425D01*
X702020D01*
Y949345D01*
X704560D01*
Y923845D02*
Y921305D01*
X709640D01*
Y923845D01*
X712180D01*
Y928925D01*
X709640D01*
Y931465D01*
X704560D01*
Y928925D01*
X702020D01*
Y923845D01*
X704560D01*
X801960Y997345D02*
Y994805D01*
X807040D01*
Y997345D01*
X809580D01*
Y1002425D01*
X807040D01*
Y1004965D01*
X801960D01*
Y1002425D01*
X799420D01*
Y997345D01*
X801960D01*
X822960Y985345D02*
Y982805D01*
X828040D01*
Y985345D01*
X830580D01*
Y990425D01*
X828040D01*
Y992965D01*
X822960D01*
Y990425D01*
X820420D01*
Y985345D01*
X822960D01*
X707210Y982095D02*
Y979555D01*
X712290D01*
Y982095D01*
X714830D01*
Y987175D01*
X712290D01*
Y989715D01*
X707210D01*
Y987175D01*
X704670D01*
Y982095D01*
X707210D01*
X735460Y997345D02*
Y994805D01*
X740540D01*
Y997345D01*
X743080D01*
Y1002425D01*
X740540D01*
Y1004965D01*
X735460D01*
Y1002425D01*
X732920D01*
Y997345D01*
X735460D01*
X779960D02*
Y994805D01*
X785040D01*
Y997345D01*
X787580D01*
Y1002425D01*
X785040D01*
Y1004965D01*
X779960D01*
Y1002425D01*
X777420D01*
Y997345D01*
X779960D01*
X826460Y971345D02*
Y968805D01*
X831540D01*
Y971345D01*
X834080D01*
Y976425D01*
X831540D01*
Y978965D01*
X826460D01*
Y976425D01*
X823920D01*
Y971345D01*
X826460D01*
X390920Y1347820D02*
X393460Y1352900D01*
X390920Y1357980D01*
X396000Y1355440D01*
X401080Y1357980D01*
X398540Y1352900D01*
X401080Y1347820D01*
X396000Y1350360D01*
X390920Y1347820D01*
X449920Y563320D02*
X452460Y568400D01*
X449920Y573480D01*
X455000Y570940D01*
X460080Y573480D01*
X457540Y568400D01*
X460080Y563320D01*
X455000Y565860D01*
X449920Y563320D01*
X74460Y484548D02*
Y482008D01*
X79540D01*
Y484548D01*
X82080D01*
Y489628D01*
X79540D01*
Y492168D01*
X74460D01*
Y489628D01*
X71920D01*
Y484548D01*
X74460D01*
X98960Y458548D02*
Y456008D01*
X104040D01*
Y458548D01*
X106580D01*
Y463628D01*
X104040D01*
Y466168D01*
X98960D01*
Y463628D01*
X96420D01*
Y458548D01*
X98960D01*
X193710Y473798D02*
Y471258D01*
X198790D01*
Y473798D01*
X201330D01*
Y478878D01*
X198790D01*
Y481418D01*
X193710D01*
Y478878D01*
X191170D01*
Y473798D01*
X193710D01*
X196360Y545048D02*
Y542508D01*
X201440D01*
Y545048D01*
X203980D01*
Y550128D01*
X201440D01*
Y552668D01*
X196360D01*
Y550128D01*
X193820D01*
Y545048D01*
X196360D01*
X147960Y458548D02*
Y456008D01*
X153040D01*
Y458548D01*
X155580D01*
Y463628D01*
X153040D01*
Y466168D01*
X147960D01*
Y463628D01*
X145420D01*
Y458548D01*
X147960D01*
X77960Y470548D02*
Y468008D01*
X83040D01*
Y470548D01*
X85580D01*
Y475628D01*
X83040D01*
Y478168D01*
X77960D01*
Y475628D01*
X75420D01*
Y470548D01*
X77960D01*
X196360Y532048D02*
Y529508D01*
X201440D01*
Y532048D01*
X203980D01*
Y537128D01*
X201440D01*
Y539668D01*
X196360D01*
Y537128D01*
X193820D01*
Y532048D01*
X196360D01*
X183210Y463298D02*
Y460758D01*
X188290D01*
Y463298D01*
X190830D01*
Y468378D01*
X188290D01*
Y470918D01*
X183210D01*
Y468378D01*
X180670D01*
Y463298D01*
X183210D01*
X165460Y458548D02*
Y456008D01*
X170540D01*
Y458548D01*
X173080D01*
Y463628D01*
X170540D01*
Y466168D01*
X165460D01*
Y463628D01*
X162920D01*
Y458548D01*
X165460D01*
X120960D02*
Y456008D01*
X126040D01*
Y458548D01*
X128580D01*
Y463628D01*
X126040D01*
Y466168D01*
X120960D01*
Y463628D01*
X118420D01*
Y458548D01*
X120960D01*
X196360Y506548D02*
Y504008D01*
X201440D01*
Y506548D01*
X203980D01*
Y511628D01*
X201440D01*
Y514168D01*
X196360D01*
Y511628D01*
X193820D01*
Y506548D01*
X196360D01*
Y520048D02*
Y517508D01*
X201440D01*
Y520048D01*
X203980D01*
Y525128D01*
X201440D01*
Y527668D01*
X196360D01*
Y525128D01*
X193820D01*
Y520048D01*
X196360D01*
X145960Y544548D02*
Y542008D01*
X151040D01*
Y544548D01*
X153580D01*
Y549628D01*
X151040D01*
Y552168D01*
X145960D01*
Y549628D01*
X143420D01*
Y544548D01*
X145960D01*
Y530048D02*
Y527508D01*
X151040D01*
Y530048D01*
X153580D01*
Y535128D01*
X151040D01*
Y537668D01*
X145960D01*
Y535128D01*
X143420D01*
Y530048D01*
X145960D01*
Y519048D02*
Y516508D01*
X151040D01*
Y519048D01*
X153580D01*
Y524128D01*
X151040D01*
Y526668D01*
X145960D01*
Y524128D01*
X143420D01*
Y519048D01*
X145960D01*
X109460Y552325D02*
Y549785D01*
X114540D01*
Y552325D01*
X117080D01*
Y557405D01*
X114540D01*
Y559945D01*
X109460D01*
Y557405D01*
X106920D01*
Y552325D01*
X109460D01*
X145960Y504548D02*
Y502008D01*
X151040D01*
Y504548D01*
X153580D01*
Y509628D01*
X151040D01*
Y512168D01*
X145960D01*
Y509628D01*
X143420D01*
Y504548D01*
X145960D01*
X125960Y552325D02*
Y549785D01*
X131040D01*
Y552325D01*
X133580D01*
Y557405D01*
X131040D01*
Y559945D01*
X125960D01*
Y557405D01*
X123420D01*
Y552325D01*
X125960D01*
X91960D02*
Y549785D01*
X97040D01*
Y552325D01*
X99580D01*
Y557405D01*
X97040D01*
Y559945D01*
X91960D01*
Y557405D01*
X89420D01*
Y552325D01*
X91960D01*
X74460Y618563D02*
Y616023D01*
X79540D01*
Y618563D01*
X82080D01*
Y623643D01*
X79540D01*
Y626183D01*
X74460D01*
Y623643D01*
X71920D01*
Y618563D01*
X74460D01*
X196360Y666063D02*
Y663523D01*
X201440D01*
Y666063D01*
X203980D01*
Y671143D01*
X201440D01*
Y673683D01*
X196360D01*
Y671143D01*
X193820D01*
Y666063D01*
X196360D01*
Y654063D02*
Y651523D01*
X201440D01*
Y654063D01*
X203980D01*
Y659143D01*
X201440D01*
Y661683D01*
X196360D01*
Y659143D01*
X193820D01*
Y654063D01*
X196360D01*
X98960Y592563D02*
Y590023D01*
X104040D01*
Y592563D01*
X106580D01*
Y597643D01*
X104040D01*
Y600183D01*
X98960D01*
Y597643D01*
X96420D01*
Y592563D01*
X98960D01*
X165460D02*
Y590023D01*
X170540D01*
Y592563D01*
X173080D01*
Y597643D01*
X170540D01*
Y600183D01*
X165460D01*
Y597643D01*
X162920D01*
Y592563D01*
X165460D01*
X77960Y604563D02*
Y602023D01*
X83040D01*
Y604563D01*
X85580D01*
Y609643D01*
X83040D01*
Y612183D01*
X77960D01*
Y609643D01*
X75420D01*
Y604563D01*
X77960D01*
X193710Y607813D02*
Y605273D01*
X198790D01*
Y607813D01*
X201330D01*
Y612893D01*
X198790D01*
Y615433D01*
X193710D01*
Y612893D01*
X191170D01*
Y607813D01*
X193710D01*
X183210Y597313D02*
Y594773D01*
X188290D01*
Y597313D01*
X190830D01*
Y602393D01*
X188290D01*
Y604933D01*
X183210D01*
Y602393D01*
X180670D01*
Y597313D01*
X183210D01*
X120960Y592563D02*
Y590023D01*
X126040D01*
Y592563D01*
X128580D01*
Y597643D01*
X126040D01*
Y600183D01*
X120960D01*
Y597643D01*
X118420D01*
Y592563D01*
X120960D01*
X196360Y640563D02*
Y638023D01*
X201440D01*
Y640563D01*
X203980D01*
Y645643D01*
X201440D01*
Y648183D01*
X196360D01*
Y645643D01*
X193820D01*
Y640563D01*
X196360D01*
Y679063D02*
Y676523D01*
X201440D01*
Y679063D01*
X203980D01*
Y684143D01*
X201440D01*
Y686683D01*
X196360D01*
Y684143D01*
X193820D01*
Y679063D01*
X196360D01*
X147960Y592563D02*
Y590023D01*
X153040D01*
Y592563D01*
X155580D01*
Y597643D01*
X153040D01*
Y600183D01*
X147960D01*
Y597643D01*
X145420D01*
Y592563D01*
X147960D01*
X145960Y664063D02*
Y661523D01*
X151040D01*
Y664063D01*
X153580D01*
Y669143D01*
X151040D01*
Y671683D01*
X145960D01*
Y669143D01*
X143420D01*
Y664063D01*
X145960D01*
Y638563D02*
Y636023D01*
X151040D01*
Y638563D01*
X153580D01*
Y643643D01*
X151040D01*
Y646183D01*
X145960D01*
Y643643D01*
X143420D01*
Y638563D01*
X145960D01*
Y653063D02*
Y650523D01*
X151040D01*
Y653063D01*
X153580D01*
Y658143D01*
X151040D01*
Y660683D01*
X145960D01*
Y658143D01*
X143420D01*
Y653063D01*
X145960D01*
X125960Y686339D02*
Y683799D01*
X131040D01*
Y686339D01*
X133580D01*
Y691419D01*
X131040D01*
Y693959D01*
X125960D01*
Y691419D01*
X123420D01*
Y686339D01*
X125960D01*
X145960Y678563D02*
Y676023D01*
X151040D01*
Y678563D01*
X153580D01*
Y683643D01*
X151040D01*
Y686183D01*
X145960D01*
Y683643D01*
X143420D01*
Y678563D01*
X145960D01*
X109460Y686339D02*
Y683799D01*
X114540D01*
Y686339D01*
X117080D01*
Y691419D01*
X114540D01*
Y693959D01*
X109460D01*
Y691419D01*
X106920D01*
Y686339D01*
X109460D01*
X91960D02*
Y683799D01*
X97040D01*
Y686339D01*
X99580D01*
Y691419D01*
X97040D01*
Y693959D01*
X91960D01*
Y691419D01*
X89420D01*
Y686339D01*
X91960D01*
X397420Y1343820D02*
X399960Y1348900D01*
X397420Y1353980D01*
X402500Y1351440D01*
X407580Y1353980D01*
X405040Y1348900D01*
X407580Y1343820D01*
X402500Y1346360D01*
X397420Y1343820D01*
X446420Y579320D02*
X448960Y584400D01*
X446420Y589480D01*
X451500Y586940D01*
X456580Y589480D01*
X454040Y584400D01*
X456580Y579320D01*
X451500Y581860D01*
X446420Y579320D01*
X707210Y580051D02*
Y577511D01*
X712290D01*
Y580051D01*
X714830D01*
Y585131D01*
X712290D01*
Y587671D01*
X707210D01*
Y585131D01*
X704670D01*
Y580051D01*
X707210D01*
X704560Y521801D02*
Y519261D01*
X709640D01*
Y521801D01*
X712180D01*
Y526881D01*
X709640D01*
Y529421D01*
X704560D01*
Y526881D01*
X702020D01*
Y521801D01*
X704560D01*
Y547301D02*
Y544761D01*
X709640D01*
Y547301D01*
X712180D01*
Y552381D01*
X709640D01*
Y554921D01*
X704560D01*
Y552381D01*
X702020D01*
Y547301D01*
X704560D01*
Y508801D02*
Y506261D01*
X709640D01*
Y508801D01*
X712180D01*
Y513881D01*
X709640D01*
Y516421D01*
X704560D01*
Y513881D01*
X702020D01*
Y508801D01*
X704560D01*
X779960Y595301D02*
Y592761D01*
X785040D01*
Y595301D01*
X787580D01*
Y600381D01*
X785040D01*
Y602921D01*
X779960D01*
Y600381D01*
X777420D01*
Y595301D01*
X779960D01*
X801960D02*
Y592761D01*
X807040D01*
Y595301D01*
X809580D01*
Y600381D01*
X807040D01*
Y602921D01*
X801960D01*
Y600381D01*
X799420D01*
Y595301D01*
X801960D01*
X752960D02*
Y592761D01*
X758040D01*
Y595301D01*
X760580D01*
Y600381D01*
X758040D01*
Y602921D01*
X752960D01*
Y600381D01*
X750420D01*
Y595301D01*
X752960D01*
X704560Y533801D02*
Y531261D01*
X709640D01*
Y533801D01*
X712180D01*
Y538881D01*
X709640D01*
Y541421D01*
X704560D01*
Y538881D01*
X702020D01*
Y533801D01*
X704560D01*
X826460Y569301D02*
Y566761D01*
X831540D01*
Y569301D01*
X834080D01*
Y574381D01*
X831540D01*
Y576921D01*
X826460D01*
Y574381D01*
X823920D01*
Y569301D01*
X826460D01*
X822960Y583301D02*
Y580761D01*
X828040D01*
Y583301D01*
X830580D01*
Y588381D01*
X828040D01*
Y590921D01*
X822960D01*
Y588381D01*
X820420D01*
Y583301D01*
X822960D01*
X717710Y590551D02*
Y588011D01*
X722790D01*
Y590551D01*
X725330D01*
Y595631D01*
X722790D01*
Y598171D01*
X717710D01*
Y595631D01*
X715170D01*
Y590551D01*
X717710D01*
X735460Y595301D02*
Y592761D01*
X740540D01*
Y595301D01*
X743080D01*
Y600381D01*
X740540D01*
Y602921D01*
X735460D01*
Y600381D01*
X732920D01*
Y595301D01*
X735460D01*
X754960Y509301D02*
Y506761D01*
X760040D01*
Y509301D01*
X762580D01*
Y514381D01*
X760040D01*
Y516921D01*
X754960D01*
Y514381D01*
X752420D01*
Y509301D01*
X754960D01*
Y523801D02*
Y521261D01*
X760040D01*
Y523801D01*
X762580D01*
Y528881D01*
X760040D01*
Y531421D01*
X754960D01*
Y528881D01*
X752420D01*
Y523801D01*
X754960D01*
X774960Y501525D02*
Y498985D01*
X780040D01*
Y501525D01*
X782580D01*
Y506605D01*
X780040D01*
Y509145D01*
X774960D01*
Y506605D01*
X772420D01*
Y501525D01*
X774960D01*
X754960Y549301D02*
Y546761D01*
X760040D01*
Y549301D01*
X762580D01*
Y554381D01*
X760040D01*
Y556921D01*
X754960D01*
Y554381D01*
X752420D01*
Y549301D01*
X754960D01*
Y534801D02*
Y532261D01*
X760040D01*
Y534801D01*
X762580D01*
Y539881D01*
X760040D01*
Y542421D01*
X754960D01*
Y539881D01*
X752420D01*
Y534801D01*
X754960D01*
X791460Y501525D02*
Y498985D01*
X796540D01*
Y501525D01*
X799080D01*
Y506605D01*
X796540D01*
Y509145D01*
X791460D01*
Y506605D01*
X788920D01*
Y501525D01*
X791460D01*
X808960D02*
Y498985D01*
X814040D01*
Y501525D01*
X816580D01*
Y506605D01*
X814040D01*
Y509145D01*
X808960D01*
Y506605D01*
X806420D01*
Y501525D01*
X808960D01*
X183210Y865342D02*
Y862802D01*
X188290D01*
Y865342D01*
X190830D01*
Y870422D01*
X188290D01*
Y872962D01*
X183210D01*
Y870422D01*
X180670D01*
Y865342D01*
X183210D01*
X98960Y860592D02*
Y858052D01*
X104040D01*
Y860592D01*
X106580D01*
Y865672D01*
X104040D01*
Y868212D01*
X98960D01*
Y865672D01*
X96420D01*
Y860592D01*
X98960D01*
X77960Y872592D02*
Y870052D01*
X83040D01*
Y872592D01*
X85580D01*
Y877672D01*
X83040D01*
Y880212D01*
X77960D01*
Y877672D01*
X75420D01*
Y872592D01*
X77960D01*
X120960Y860592D02*
Y858052D01*
X126040D01*
Y860592D01*
X128580D01*
Y865672D01*
X126040D01*
Y868212D01*
X120960D01*
Y865672D01*
X118420D01*
Y860592D01*
X120960D01*
X74460Y886592D02*
Y884052D01*
X79540D01*
Y886592D01*
X82080D01*
Y891672D01*
X79540D01*
Y894212D01*
X74460D01*
Y891672D01*
X71920D01*
Y886592D01*
X74460D01*
X196360Y947092D02*
Y944552D01*
X201440D01*
Y947092D01*
X203980D01*
Y952172D01*
X201440D01*
Y954712D01*
X196360D01*
Y952172D01*
X193820D01*
Y947092D01*
X196360D01*
X193710Y875842D02*
Y873302D01*
X198790D01*
Y875842D01*
X201330D01*
Y880922D01*
X198790D01*
Y883462D01*
X193710D01*
Y880922D01*
X191170D01*
Y875842D01*
X193710D01*
X196360Y922092D02*
Y919552D01*
X201440D01*
Y922092D01*
X203980D01*
Y927172D01*
X201440D01*
Y929712D01*
X196360D01*
Y927172D01*
X193820D01*
Y922092D01*
X196360D01*
Y908592D02*
Y906052D01*
X201440D01*
Y908592D01*
X203980D01*
Y913672D01*
X201440D01*
Y916212D01*
X196360D01*
Y913672D01*
X193820D01*
Y908592D01*
X196360D01*
Y934092D02*
Y931552D01*
X201440D01*
Y934092D01*
X203980D01*
Y939172D01*
X201440D01*
Y941712D01*
X196360D01*
Y939172D01*
X193820D01*
Y934092D01*
X196360D01*
X165460Y860592D02*
Y858052D01*
X170540D01*
Y860592D01*
X173080D01*
Y865672D01*
X170540D01*
Y868212D01*
X165460D01*
Y865672D01*
X162920D01*
Y860592D01*
X165460D01*
X147960D02*
Y858052D01*
X153040D01*
Y860592D01*
X155580D01*
Y865672D01*
X153040D01*
Y868212D01*
X147960D01*
Y865672D01*
X145420D01*
Y860592D01*
X147960D01*
X145960Y906592D02*
Y904052D01*
X151040D01*
Y906592D01*
X153580D01*
Y911672D01*
X151040D01*
Y914212D01*
X145960D01*
Y911672D01*
X143420D01*
Y906592D01*
X145960D01*
X109460Y954369D02*
Y951829D01*
X114540D01*
Y954369D01*
X117080D01*
Y959449D01*
X114540D01*
Y961989D01*
X109460D01*
Y959449D01*
X106920D01*
Y954369D01*
X109460D01*
X125960D02*
Y951829D01*
X131040D01*
Y954369D01*
X133580D01*
Y959449D01*
X131040D01*
Y961989D01*
X125960D01*
Y959449D01*
X123420D01*
Y954369D01*
X125960D01*
X145960Y946592D02*
Y944052D01*
X151040D01*
Y946592D01*
X153580D01*
Y951672D01*
X151040D01*
Y954212D01*
X145960D01*
Y951672D01*
X143420D01*
Y946592D01*
X145960D01*
Y932092D02*
Y929552D01*
X151040D01*
Y932092D01*
X153580D01*
Y937172D01*
X151040D01*
Y939712D01*
X145960D01*
Y937172D01*
X143420D01*
Y932092D01*
X145960D01*
X91960Y954369D02*
Y951829D01*
X97040D01*
Y954369D01*
X99580D01*
Y959449D01*
X97040D01*
Y961989D01*
X91960D01*
Y959449D01*
X89420D01*
Y954369D01*
X91960D01*
X145960Y921092D02*
Y918552D01*
X151040D01*
Y921092D01*
X153580D01*
Y926172D01*
X151040D01*
Y928712D01*
X145960D01*
Y926172D01*
X143420D01*
Y921092D01*
X145960D01*
X391000Y1290107D02*
X393540Y1295187D01*
X391000Y1300267D01*
X396080Y1297727D01*
X401160Y1300267D01*
X398620Y1295187D01*
X401160Y1290107D01*
X396080Y1292647D01*
X391000Y1290107D01*
X448460Y1402860D02*
Y1400320D01*
X453540D01*
Y1402860D01*
X456080D01*
Y1407940D01*
X453540D01*
Y1410480D01*
X448460D01*
Y1407940D01*
X445920D01*
Y1402860D01*
X448460D01*
X562150Y1315320D02*
X564690Y1320400D01*
X562150Y1325480D01*
X567230Y1322940D01*
X572310Y1325480D01*
X569770Y1320400D01*
X572310Y1315320D01*
X567230Y1317860D01*
X562150Y1315320D01*
X531920Y1399820D02*
X534460D01*
X537000Y1402360D01*
X539540Y1399820D01*
X542080D01*
Y1402360D01*
X539540Y1404900D01*
X542080Y1407440D01*
Y1409980D01*
X539540D01*
X537000Y1407440D01*
X534460Y1409980D01*
X531920D01*
Y1407440D01*
X534460Y1404900D01*
X531920Y1402360D01*
Y1399820D01*
X299920Y1315820D02*
X302460D01*
X305000Y1318360D01*
X307540Y1315820D01*
X310080D01*
Y1318360D01*
X307540Y1320900D01*
X310080Y1323440D01*
Y1325980D01*
X307540D01*
X305000Y1323440D01*
X302460Y1325980D01*
X299920D01*
Y1323440D01*
X302460Y1320900D01*
X299920Y1318360D01*
Y1315820D01*
X397420Y1400320D02*
X399960D01*
X402500Y1402860D01*
X405040Y1400320D01*
X407580D01*
Y1402860D01*
X405040Y1405400D01*
X407580Y1407940D01*
Y1410480D01*
X405040D01*
X402500Y1407940D01*
X399960Y1410480D01*
X397420D01*
Y1407940D01*
X399960Y1405400D01*
X397420Y1402860D01*
Y1400320D01*
X502420D02*
X504960D01*
X507500Y1402860D01*
X510040Y1400320D01*
X512580D01*
Y1402860D01*
X510040Y1405400D01*
X512580Y1407940D01*
Y1410480D01*
X510040D01*
X507500Y1407940D01*
X504960Y1410480D01*
X502420D01*
Y1407940D01*
X504960Y1405400D01*
X502420Y1402860D01*
Y1400320D01*
X508420Y1312280D02*
X510960Y1317360D01*
X508420Y1322440D01*
X513500Y1319900D01*
X518580Y1322440D01*
X516040Y1317360D01*
X518580Y1312280D01*
X513500Y1314820D01*
X508420Y1312280D01*
X448199Y1311201D02*
X450739Y1316281D01*
X448199Y1321361D01*
X453279Y1318821D01*
X458359Y1321361D01*
X455819Y1316281D01*
X458359Y1311201D01*
X453279Y1313741D01*
X448199Y1311201D01*
X548420Y768320D02*
X550960D01*
X553500Y770860D01*
X556040Y768320D01*
X558580D01*
Y770860D01*
X556040Y773400D01*
X558580Y775940D01*
Y778480D01*
X556040D01*
X553500Y775940D01*
X550960Y778480D01*
X548420D01*
Y775940D01*
X550960Y773400D01*
X548420Y770860D01*
Y768320D01*
X315420Y889320D02*
X317960D01*
X320500Y891860D01*
X323040Y889320D01*
X325580D01*
Y891860D01*
X323040Y894400D01*
X325580Y896940D01*
Y899480D01*
X323040D01*
X320500Y896940D01*
X317960Y899480D01*
X315420D01*
Y896940D01*
X317960Y894400D01*
X315420Y891860D01*
Y889320D01*
X400420Y1178320D02*
X402960D01*
X405500Y1180860D01*
X408040Y1178320D01*
X410580D01*
Y1180860D01*
X408040Y1183400D01*
X410580Y1185940D01*
Y1188480D01*
X408040D01*
X405500Y1185940D01*
X402960Y1188480D01*
X400420D01*
Y1185940D01*
X402960Y1183400D01*
X400420Y1180860D01*
Y1178320D01*
X388420Y1138320D02*
X390960D01*
X393500Y1140860D01*
X396040Y1138320D01*
X398580D01*
Y1140860D01*
X396040Y1143400D01*
X398580Y1145940D01*
Y1148480D01*
X396040D01*
X393500Y1145940D01*
X390960Y1148480D01*
X388420D01*
Y1145940D01*
X390960Y1143400D01*
X388420Y1140860D01*
Y1138320D01*
X398420Y330320D02*
X400960D01*
X403500Y332860D01*
X406040Y330320D01*
X408580D01*
Y332860D01*
X406040Y335400D01*
X408580Y337940D01*
Y340480D01*
X406040D01*
X403500Y337940D01*
X400960Y340480D01*
X398420D01*
Y337940D01*
X400960Y335400D01*
X398420Y332860D01*
Y330320D01*
X304420Y1203820D02*
X306960D01*
X309500Y1206360D01*
X312040Y1203820D01*
X314580D01*
Y1206360D01*
X312040Y1208900D01*
X314580Y1211440D01*
Y1213980D01*
X312040D01*
X309500Y1211440D01*
X306960Y1213980D01*
X304420D01*
Y1211440D01*
X306960Y1208900D01*
X304420Y1206360D01*
Y1203820D01*
X588560Y1487610D02*
Y1485070D01*
X593640D01*
Y1487610D01*
X596180D01*
Y1492690D01*
X593640D01*
Y1495230D01*
X588560D01*
Y1492690D01*
X586020D01*
Y1487610D01*
X588560D01*
X389420Y944320D02*
X391960D01*
X394500Y946860D01*
X397040Y944320D01*
X399580D01*
Y946860D01*
X397040Y949400D01*
X399580Y951940D01*
Y954480D01*
X397040D01*
X394500Y951940D01*
X391960Y954480D01*
X389420D01*
Y951940D01*
X391960Y949400D01*
X389420Y946860D01*
Y944320D01*
X516420Y708320D02*
X518960D01*
X521500Y710860D01*
X524040Y708320D01*
X526580D01*
Y710860D01*
X524040Y713400D01*
X526580Y715940D01*
Y718480D01*
X524040D01*
X521500Y715940D01*
X518960Y718480D01*
X516420D01*
Y715940D01*
X518960Y713400D01*
X516420Y710860D01*
Y708320D01*
X403420Y58320D02*
X405960D01*
X408500Y60860D01*
X411040Y58320D01*
X413580D01*
Y60860D01*
X411040Y63400D01*
X413580Y65940D01*
Y68480D01*
X411040D01*
X408500Y65940D01*
X405960Y68480D01*
X403420D01*
Y65940D01*
X405960Y63400D01*
X403420Y60860D01*
Y58320D01*
X574420Y1203320D02*
X576960D01*
X579500Y1205860D01*
X582040Y1203320D01*
X584580D01*
Y1205860D01*
X582040Y1208400D01*
X584580Y1210940D01*
Y1213480D01*
X582040D01*
X579500Y1210940D01*
X576960Y1213480D01*
X574420D01*
Y1210940D01*
X576960Y1208400D01*
X574420Y1205860D01*
Y1203320D01*
X389420Y866320D02*
X391960D01*
X394500Y868860D01*
X397040Y866320D01*
X399580D01*
Y868860D01*
X397040Y871400D01*
X399580Y873940D01*
Y876480D01*
X397040D01*
X394500Y873940D01*
X391960Y876480D01*
X389420D01*
Y873940D01*
X391960Y871400D01*
X389420Y868860D01*
Y866320D01*
X401420Y1122320D02*
X403960D01*
X406500Y1124860D01*
X409040Y1122320D01*
X411580D01*
Y1124860D01*
X409040Y1127400D01*
X411580Y1129940D01*
Y1132480D01*
X409040D01*
X406500Y1129940D01*
X403960Y1132480D01*
X401420D01*
Y1129940D01*
X403960Y1127400D01*
X401420Y1124860D01*
Y1122320D01*
X574420Y621320D02*
X576960D01*
X579500Y623860D01*
X582040Y621320D01*
X584580D01*
Y623860D01*
X582040Y626400D01*
X584580Y628940D01*
Y631480D01*
X582040D01*
X579500Y628940D01*
X576960Y631480D01*
X574420D01*
Y628940D01*
X576960Y626400D01*
X574420Y623860D01*
Y621320D01*
X585420Y651320D02*
X587960D01*
X590500Y653860D01*
X593040Y651320D01*
X595580D01*
Y653860D01*
X593040Y656400D01*
X595580Y658940D01*
Y661480D01*
X593040D01*
X590500Y658940D01*
X587960Y661480D01*
X585420D01*
Y658940D01*
X587960Y656400D01*
X585420Y653860D01*
Y651320D01*
X314420Y490320D02*
X316960D01*
X319500Y492860D01*
X322040Y490320D01*
X324580D01*
Y492860D01*
X322040Y495400D01*
X324580Y497940D01*
Y500480D01*
X322040D01*
X319500Y497940D01*
X316960Y500480D01*
X314420D01*
Y497940D01*
X316960Y495400D01*
X314420Y492860D01*
Y490320D01*
Y951320D02*
X316960D01*
X319500Y953860D01*
X322040Y951320D01*
X324580D01*
Y953860D01*
X322040Y956400D01*
X324580Y958940D01*
Y961480D01*
X322040D01*
X319500Y958940D01*
X316960Y961480D01*
X314420D01*
Y958940D01*
X316960Y956400D01*
X314420Y953860D01*
Y951320D01*
X404420Y1078320D02*
X406960D01*
X409500Y1080860D01*
X412040Y1078320D01*
X414580D01*
Y1080860D01*
X412040Y1083400D01*
X414580Y1085940D01*
Y1088480D01*
X412040D01*
X409500Y1085940D01*
X406960Y1088480D01*
X404420D01*
Y1085940D01*
X406960Y1083400D01*
X404420Y1080860D01*
Y1078320D01*
X385420Y1117320D02*
X387960D01*
X390500Y1119860D01*
X393040Y1117320D01*
X395580D01*
Y1119860D01*
X393040Y1122400D01*
X395580Y1124940D01*
Y1127480D01*
X393040D01*
X390500Y1124940D01*
X387960Y1127480D01*
X385420D01*
Y1124940D01*
X387960Y1122400D01*
X385420Y1119860D01*
Y1117320D01*
X522420Y368320D02*
X524960D01*
X527500Y370860D01*
X530040Y368320D01*
X532580D01*
Y370860D01*
X530040Y373400D01*
X532580Y375940D01*
Y378480D01*
X530040D01*
X527500Y375940D01*
X524960Y378480D01*
X522420D01*
Y375940D01*
X524960Y373400D01*
X522420Y370860D01*
Y368320D01*
X383420Y1040320D02*
X385960D01*
X388500Y1042860D01*
X391040Y1040320D01*
X393580D01*
Y1042860D01*
X391040Y1045400D01*
X393580Y1047940D01*
Y1050480D01*
X391040D01*
X388500Y1047940D01*
X385960Y1050480D01*
X383420D01*
Y1047940D01*
X385960Y1045400D01*
X383420Y1042860D01*
Y1040320D01*
X376420Y327320D02*
X378960D01*
X381500Y329860D01*
X384040Y327320D01*
X386580D01*
Y329860D01*
X384040Y332400D01*
X386580Y334940D01*
Y337480D01*
X384040D01*
X381500Y334940D01*
X378960Y337480D01*
X376420D01*
Y334940D01*
X378960Y332400D01*
X376420Y329860D01*
Y327320D01*
X587420Y389320D02*
X589960D01*
X592500Y391860D01*
X595040Y389320D01*
X597580D01*
Y391860D01*
X595040Y394400D01*
X597580Y396940D01*
Y399480D01*
X595040D01*
X592500Y396940D01*
X589960Y399480D01*
X587420D01*
Y396940D01*
X589960Y394400D01*
X587420Y391860D01*
Y389320D01*
X577420Y1243320D02*
X579960D01*
X582500Y1245860D01*
X585040Y1243320D01*
X587580D01*
Y1245860D01*
X585040Y1248400D01*
X587580Y1250940D01*
Y1253480D01*
X585040D01*
X582500Y1250940D01*
X579960Y1253480D01*
X577420D01*
Y1250940D01*
X579960Y1248400D01*
X577420Y1245860D01*
Y1243320D01*
X385420Y1174320D02*
X387960D01*
X390500Y1176860D01*
X393040Y1174320D01*
X395580D01*
Y1176860D01*
X393040Y1179400D01*
X395580Y1181940D01*
Y1184480D01*
X393040D01*
X390500Y1181940D01*
X387960Y1184480D01*
X385420D01*
Y1181940D01*
X387960Y1179400D01*
X385420Y1176860D01*
Y1174320D01*
X515420Y1017320D02*
X517960D01*
X520500Y1019860D01*
X523040Y1017320D01*
X525580D01*
Y1019860D01*
X523040Y1022400D01*
X525580Y1024940D01*
Y1027480D01*
X523040D01*
X520500Y1024940D01*
X517960Y1027480D01*
X515420D01*
Y1024940D01*
X517960Y1022400D01*
X515420Y1019860D01*
Y1017320D01*
X314420Y1009320D02*
X316960D01*
X319500Y1011860D01*
X322040Y1009320D01*
X324580D01*
Y1011860D01*
X322040Y1014400D01*
X324580Y1016940D01*
Y1019480D01*
X322040D01*
X319500Y1016940D01*
X316960Y1019480D01*
X314420D01*
Y1016940D01*
X316960Y1014400D01*
X314420Y1011860D01*
Y1009320D01*
X315960Y1345860D02*
Y1343320D01*
X321040D01*
Y1345860D01*
X323580D01*
Y1350940D01*
X321040D01*
Y1353480D01*
X315960D01*
Y1350940D01*
X313420D01*
Y1345860D01*
X315960D01*
X385420Y980320D02*
X387960D01*
X390500Y982860D01*
X393040Y980320D01*
X395580D01*
Y982860D01*
X393040Y985400D01*
X395580Y987940D01*
Y990480D01*
X393040D01*
X390500Y987940D01*
X387960Y990480D01*
X385420D01*
Y987940D01*
X387960Y985400D01*
X385420Y982860D01*
Y980320D01*
X436960Y1505360D02*
Y1502820D01*
X442040D01*
Y1505360D01*
X444580D01*
Y1510440D01*
X442040D01*
Y1512980D01*
X436960D01*
Y1510440D01*
X434420D01*
Y1505360D01*
X436960D01*
X575420Y800320D02*
X577960D01*
X580500Y802860D01*
X583040Y800320D01*
X585580D01*
Y802860D01*
X583040Y805400D01*
X585580Y807940D01*
Y810480D01*
X583040D01*
X580500Y807940D01*
X577960Y810480D01*
X575420D01*
Y807940D01*
X577960Y805400D01*
X575420Y802860D01*
Y800320D01*
X528420Y820320D02*
X530960D01*
X533500Y822860D01*
X536040Y820320D01*
X538580D01*
Y822860D01*
X536040Y825400D01*
X538580Y827940D01*
Y830480D01*
X536040D01*
X533500Y827940D01*
X530960Y830480D01*
X528420D01*
Y827940D01*
X530960Y825400D01*
X528420Y822860D01*
Y820320D01*
X436420Y293320D02*
X438960D01*
X441500Y295860D01*
X444040Y293320D01*
X446580D01*
Y295860D01*
X444040Y298400D01*
X446580Y300940D01*
Y303480D01*
X444040D01*
X441500Y300940D01*
X438960Y303480D01*
X436420D01*
Y300940D01*
X438960Y298400D01*
X436420Y295860D01*
Y293320D01*
X465960Y1505360D02*
Y1502820D01*
X471040D01*
Y1505360D01*
X473580D01*
Y1510440D01*
X471040D01*
Y1512980D01*
X465960D01*
Y1510440D01*
X463420D01*
Y1505360D01*
X465960D01*
X386420Y715320D02*
X388960D01*
X391500Y717860D01*
X394040Y715320D01*
X396580D01*
Y717860D01*
X394040Y720400D01*
X396580Y722940D01*
Y725480D01*
X394040D01*
X391500Y722940D01*
X388960Y725480D01*
X386420D01*
Y722940D01*
X388960Y720400D01*
X386420Y717860D01*
Y715320D01*
X526420Y499320D02*
X528960D01*
X531500Y501860D01*
X534040Y499320D01*
X536580D01*
Y501860D01*
X534040Y504400D01*
X536580Y506940D01*
Y509480D01*
X534040D01*
X531500Y506940D01*
X528960Y509480D01*
X526420D01*
Y506940D01*
X528960Y504400D01*
X526420Y501860D01*
Y499320D01*
X527420Y472320D02*
X529960D01*
X532500Y474860D01*
X535040Y472320D01*
X537580D01*
Y474860D01*
X535040Y477400D01*
X537580Y479940D01*
Y482480D01*
X535040D01*
X532500Y479940D01*
X529960Y482480D01*
X527420D01*
Y479940D01*
X529960Y477400D01*
X527420Y474860D01*
Y472320D01*
X517420Y842320D02*
X519960D01*
X522500Y844860D01*
X525040Y842320D01*
X527580D01*
Y844860D01*
X525040Y847400D01*
X527580Y849940D01*
Y852480D01*
X525040D01*
X522500Y849940D01*
X519960Y852480D01*
X517420D01*
Y849940D01*
X519960Y847400D01*
X517420Y844860D01*
Y842320D01*
X577420Y91320D02*
X579960D01*
X582500Y93860D01*
X585040Y91320D01*
X587580D01*
Y93860D01*
X585040Y96400D01*
X587580Y98940D01*
Y101480D01*
X585040D01*
X582500Y98940D01*
X579960Y101480D01*
X577420D01*
Y98940D01*
X579960Y96400D01*
X577420Y93860D01*
Y91320D01*
X586420Y761320D02*
X588960D01*
X591500Y763860D01*
X594040Y761320D01*
X596580D01*
Y763860D01*
X594040Y766400D01*
X596580Y768940D01*
Y771480D01*
X594040D01*
X591500Y768940D01*
X588960Y771480D01*
X586420D01*
Y768940D01*
X588960Y766400D01*
X586420Y763860D01*
Y761320D01*
X548420Y849320D02*
X550960D01*
X553500Y851860D01*
X556040Y849320D01*
X558580D01*
Y851860D01*
X556040Y854400D01*
X558580Y856940D01*
Y859480D01*
X556040D01*
X553500Y856940D01*
X550960Y859480D01*
X548420D01*
Y856940D01*
X550960Y854400D01*
X548420Y851860D01*
Y849320D01*
Y444320D02*
X550960D01*
X553500Y446860D01*
X556040Y444320D01*
X558580D01*
Y446860D01*
X556040Y449400D01*
X558580Y451940D01*
Y454480D01*
X556040D01*
X553500Y451940D01*
X550960Y454480D01*
X548420D01*
Y451940D01*
X550960Y449400D01*
X548420Y446860D01*
Y444320D01*
X301420Y422320D02*
X303960D01*
X306500Y424860D01*
X309040Y422320D01*
X311580D01*
Y424860D01*
X309040Y427400D01*
X311580Y429940D01*
Y432480D01*
X309040D01*
X306500Y429940D01*
X303960Y432480D01*
X301420D01*
Y429940D01*
X303960Y427400D01*
X301420Y424860D01*
Y422320D01*
X379420Y423320D02*
X381960D01*
X384500Y425860D01*
X387040Y423320D01*
X389580D01*
Y425860D01*
X387040Y428400D01*
X389580Y430940D01*
Y433480D01*
X387040D01*
X384500Y430940D01*
X381960Y433480D01*
X379420D01*
Y430940D01*
X381960Y428400D01*
X379420Y425860D01*
Y423320D01*
X314420Y390320D02*
X316960D01*
X319500Y392860D01*
X322040Y390320D01*
X324580D01*
Y392860D01*
X322040Y395400D01*
X324580Y397940D01*
Y400480D01*
X322040D01*
X319500Y397940D01*
X316960Y400480D01*
X314420D01*
Y397940D01*
X316960Y395400D01*
X314420Y392860D01*
Y390320D01*
X502420Y1175320D02*
X504960D01*
X507500Y1177860D01*
X510040Y1175320D01*
X512580D01*
Y1177860D01*
X510040Y1180400D01*
X512580Y1182940D01*
Y1185480D01*
X510040D01*
X507500Y1182940D01*
X504960Y1185480D01*
X502420D01*
Y1182940D01*
X504960Y1180400D01*
X502420Y1177860D01*
Y1175320D01*
X586420Y289320D02*
X588960D01*
X591500Y291860D01*
X594040Y289320D01*
X596580D01*
Y291860D01*
X594040Y294400D01*
X596580Y296940D01*
Y299480D01*
X594040D01*
X591500Y296940D01*
X588960Y299480D01*
X586420D01*
Y296940D01*
X588960Y294400D01*
X586420Y291860D01*
Y289320D01*
X315420Y344320D02*
X317960D01*
X320500Y346860D01*
X323040Y344320D01*
X325580D01*
Y346860D01*
X323040Y349400D01*
X325580Y351940D01*
Y354480D01*
X323040D01*
X320500Y351940D01*
X317960Y354480D01*
X315420D01*
Y351940D01*
X317960Y349400D01*
X315420Y346860D01*
Y344320D01*
X319420Y69320D02*
X321960D01*
X324500Y71860D01*
X327040Y69320D01*
X329580D01*
Y71860D01*
X327040Y74400D01*
X329580Y76940D01*
Y79480D01*
X327040D01*
X324500Y76940D01*
X321960Y79480D01*
X319420D01*
Y76940D01*
X321960Y74400D01*
X319420Y71860D01*
Y69320D01*
X515420Y589320D02*
X517960D01*
X520500Y591860D01*
X523040Y589320D01*
X525580D01*
Y591860D01*
X523040Y594400D01*
X525580Y596940D01*
Y599480D01*
X523040D01*
X520500Y596940D01*
X517960Y599480D01*
X515420D01*
Y596940D01*
X517960Y594400D01*
X515420Y591860D01*
Y589320D01*
X546420Y675320D02*
X548960D01*
X551500Y677860D01*
X554040Y675320D01*
X556580D01*
Y677860D01*
X554040Y680400D01*
X556580Y682940D01*
Y685480D01*
X554040D01*
X551500Y682940D01*
X548960Y685480D01*
X546420D01*
Y682940D01*
X548960Y680400D01*
X546420Y677860D01*
Y675320D01*
X514420Y1093320D02*
X516960D01*
X519500Y1095860D01*
X522040Y1093320D01*
X524580D01*
Y1095860D01*
X522040Y1098400D01*
X524580Y1100940D01*
Y1103480D01*
X522040D01*
X519500Y1100940D01*
X516960Y1103480D01*
X514420D01*
Y1100940D01*
X516960Y1098400D01*
X514420Y1095860D01*
Y1093320D01*
X302420Y678320D02*
X304960D01*
X307500Y680860D01*
X310040Y678320D01*
X312580D01*
Y680860D01*
X310040Y683400D01*
X312580Y685940D01*
Y688480D01*
X310040D01*
X307500Y685940D01*
X304960Y688480D01*
X302420D01*
Y685940D01*
X304960Y683400D01*
X302420Y680860D01*
Y678320D01*
X499460Y1426860D02*
Y1424320D01*
X504540D01*
Y1426860D01*
X507080D01*
Y1431940D01*
X504540D01*
Y1434480D01*
X499460D01*
Y1431940D01*
X496920D01*
Y1426860D01*
X499460D01*
X574420Y564320D02*
X576960D01*
X579500Y566860D01*
X582040Y564320D01*
X584580D01*
Y566860D01*
X582040Y569400D01*
X584580Y571940D01*
Y574480D01*
X582040D01*
X579500Y571940D01*
X576960Y574480D01*
X574420D01*
Y571940D01*
X576960Y569400D01*
X574420Y566860D01*
Y564320D01*
X549420Y349320D02*
X551960D01*
X554500Y351860D01*
X557040Y349320D01*
X559580D01*
Y351860D01*
X557040Y354400D01*
X559580Y356940D01*
Y359480D01*
X557040D01*
X554500Y356940D01*
X551960Y359480D01*
X549420D01*
Y356940D01*
X551960Y354400D01*
X549420Y351860D01*
Y349320D01*
X414960Y1382860D02*
Y1380320D01*
X420040D01*
Y1382860D01*
X422580D01*
Y1387940D01*
X420040D01*
Y1390480D01*
X414960D01*
Y1387940D01*
X412420D01*
Y1382860D01*
X414960D01*
X530420Y753320D02*
X532960D01*
X535500Y755860D01*
X538040Y753320D01*
X540580D01*
Y755860D01*
X538040Y758400D01*
X540580Y760940D01*
Y763480D01*
X538040D01*
X535500Y760940D01*
X532960Y763480D01*
X530420D01*
Y760940D01*
X532960Y758400D01*
X530420Y755860D01*
Y753320D01*
X313420Y1124320D02*
X315960D01*
X318500Y1126860D01*
X321040Y1124320D01*
X323580D01*
Y1126860D01*
X321040Y1129400D01*
X323580Y1131940D01*
Y1134480D01*
X321040D01*
X318500Y1131940D01*
X315960Y1134480D01*
X313420D01*
Y1131940D01*
X315960Y1129400D01*
X313420Y1126860D01*
Y1124320D01*
X495420Y58320D02*
X497960D01*
X500500Y60860D01*
X503040Y58320D01*
X505580D01*
Y60860D01*
X503040Y63400D01*
X505580Y65940D01*
Y68480D01*
X503040D01*
X500500Y65940D01*
X497960Y68480D01*
X495420D01*
Y65940D01*
X497960Y63400D01*
X495420Y60860D01*
Y58320D01*
X491420Y1213320D02*
X493960D01*
X496500Y1215860D01*
X499040Y1213320D01*
X501580D01*
Y1215860D01*
X499040Y1218400D01*
X501580Y1220940D01*
Y1223480D01*
X499040D01*
X496500Y1220940D01*
X493960Y1223480D01*
X491420D01*
Y1220940D01*
X493960Y1218400D01*
X491420Y1215860D01*
Y1213320D01*
X313420Y832320D02*
X315960D01*
X318500Y834860D01*
X321040Y832320D01*
X323580D01*
Y834860D01*
X321040Y837400D01*
X323580Y839940D01*
Y842480D01*
X321040D01*
X318500Y839940D01*
X315960Y842480D01*
X313420D01*
Y839940D01*
X315960Y837400D01*
X313420Y834860D01*
Y832320D01*
X527420Y967320D02*
X529960D01*
X532500Y969860D01*
X535040Y967320D01*
X537580D01*
Y969860D01*
X535040Y972400D01*
X537580Y974940D01*
Y977480D01*
X535040D01*
X532500Y974940D01*
X529960Y977480D01*
X527420D01*
Y974940D01*
X529960Y972400D01*
X527420Y969860D01*
Y967320D01*
X387420Y774320D02*
X389960D01*
X392500Y776860D01*
X395040Y774320D01*
X397580D01*
Y776860D01*
X395040Y779400D01*
X397580Y781940D01*
Y784480D01*
X395040D01*
X392500Y781940D01*
X389960Y784480D01*
X387420D01*
Y781940D01*
X389960Y779400D01*
X387420Y776860D01*
Y774320D01*
X587420Y702320D02*
X589960D01*
X592500Y704860D01*
X595040Y702320D01*
X597580D01*
Y704860D01*
X595040Y707400D01*
X597580Y709940D01*
Y712480D01*
X595040D01*
X592500Y709940D01*
X589960Y712480D01*
X587420D01*
Y709940D01*
X589960Y707400D01*
X587420Y704860D01*
Y702320D01*
X575420Y371320D02*
X577960D01*
X580500Y373860D01*
X583040Y371320D01*
X585580D01*
Y373860D01*
X583040Y376400D01*
X585580Y378940D01*
Y381480D01*
X583040D01*
X580500Y378940D01*
X577960Y381480D01*
X575420D01*
Y378940D01*
X577960Y376400D01*
X575420Y373860D01*
Y371320D01*
X571560Y1398610D02*
Y1396070D01*
X576640D01*
Y1398610D01*
X579180D01*
Y1403690D01*
X576640D01*
Y1406230D01*
X571560D01*
Y1403690D01*
X569020D01*
Y1398610D01*
X571560D01*
X514420Y952320D02*
X516960D01*
X519500Y954860D01*
X522040Y952320D01*
X524580D01*
Y954860D01*
X522040Y957400D01*
X524580Y959940D01*
Y962480D01*
X522040D01*
X519500Y959940D01*
X516960Y962480D01*
X514420D01*
Y959940D01*
X516960Y957400D01*
X514420Y954860D01*
Y952320D01*
X405420Y850320D02*
X407960D01*
X410500Y852860D01*
X413040Y850320D01*
X415580D01*
Y852860D01*
X413040Y855400D01*
X415580Y857940D01*
Y860480D01*
X413040D01*
X410500Y857940D01*
X407960Y860480D01*
X405420D01*
Y857940D01*
X407960Y855400D01*
X405420Y852860D01*
Y850320D01*
X303420Y510320D02*
X305960D01*
X308500Y512860D01*
X311040Y510320D01*
X313580D01*
Y512860D01*
X311040Y515400D01*
X313580Y517940D01*
Y520480D01*
X311040D01*
X308500Y517940D01*
X305960Y520480D01*
X303420D01*
Y517940D01*
X305960Y515400D01*
X303420Y512860D01*
Y510320D01*
X402420Y1044320D02*
X404960D01*
X407500Y1046860D01*
X410040Y1044320D01*
X412580D01*
Y1046860D01*
X410040Y1049400D01*
X412580Y1051940D01*
Y1054480D01*
X410040D01*
X407500Y1051940D01*
X404960Y1054480D01*
X402420D01*
Y1051940D01*
X404960Y1049400D01*
X402420Y1046860D01*
Y1044320D01*
X520420Y539320D02*
X522960D01*
X525500Y541860D01*
X528040Y539320D01*
X530580D01*
Y541860D01*
X528040Y544400D01*
X530580Y546940D01*
Y549480D01*
X528040D01*
X525500Y546940D01*
X522960Y549480D01*
X520420D01*
Y546940D01*
X522960Y544400D01*
X520420Y541860D01*
Y539320D01*
X549420Y811320D02*
X551960D01*
X554500Y813860D01*
X557040Y811320D01*
X559580D01*
Y813860D01*
X557040Y816400D01*
X559580Y818940D01*
Y821480D01*
X557040D01*
X554500Y818940D01*
X551960Y821480D01*
X549420D01*
Y818940D01*
X551960Y816400D01*
X549420Y813860D01*
Y811320D01*
X367420Y61320D02*
X369960D01*
X372500Y63860D01*
X375040Y61320D01*
X377580D01*
Y63860D01*
X375040Y66400D01*
X377580Y68940D01*
Y71480D01*
X375040D01*
X372500Y68940D01*
X369960Y71480D01*
X367420D01*
Y68940D01*
X369960Y66400D01*
X367420Y63860D01*
Y61320D01*
X305420Y471320D02*
X307960D01*
X310500Y473860D01*
X313040Y471320D01*
X315580D01*
Y473860D01*
X313040Y476400D01*
X315580Y478940D01*
Y481480D01*
X313040D01*
X310500Y478940D01*
X307960Y481480D01*
X305420D01*
Y478940D01*
X307960Y476400D01*
X305420Y473860D01*
Y471320D01*
X450420Y61320D02*
X452960D01*
X455500Y63860D01*
X458040Y61320D01*
X460580D01*
Y63860D01*
X458040Y66400D01*
X460580Y68940D01*
Y71480D01*
X458040D01*
X455500Y68940D01*
X452960Y71480D01*
X450420D01*
Y68940D01*
X452960Y66400D01*
X450420Y63860D01*
Y61320D01*
X405420Y871320D02*
X407960D01*
X410500Y873860D01*
X413040Y871320D01*
X415580D01*
Y873860D01*
X413040Y876400D01*
X415580Y878940D01*
Y881480D01*
X413040D01*
X410500Y878940D01*
X407960Y881480D01*
X405420D01*
Y878940D01*
X407960Y876400D01*
X405420Y873860D01*
Y871320D01*
X302420Y372320D02*
X304960D01*
X307500Y374860D01*
X310040Y372320D01*
X312580D01*
Y374860D01*
X310040Y377400D01*
X312580Y379940D01*
Y382480D01*
X310040D01*
X307500Y379940D01*
X304960Y382480D01*
X302420D01*
Y379940D01*
X304960Y377400D01*
X302420Y374860D01*
Y372320D01*
X558420Y66320D02*
X560960D01*
X563500Y68860D01*
X566040Y66320D01*
X568580D01*
Y68860D01*
X566040Y71400D01*
X568580Y73940D01*
Y76480D01*
X566040D01*
X563500Y73940D01*
X560960Y76480D01*
X558420D01*
Y73940D01*
X560960Y71400D01*
X558420Y68860D01*
Y66320D01*
X518420Y775320D02*
X520960D01*
X523500Y777860D01*
X526040Y775320D01*
X528580D01*
Y777860D01*
X526040Y780400D01*
X528580Y782940D01*
Y785480D01*
X526040D01*
X523500Y782940D01*
X520960Y785480D01*
X518420D01*
Y782940D01*
X520960Y780400D01*
X518420Y777860D01*
Y775320D01*
X502420Y1213320D02*
X504960D01*
X507500Y1215860D01*
X510040Y1213320D01*
X512580D01*
Y1215860D01*
X510040Y1218400D01*
X512580Y1220940D01*
Y1223480D01*
X510040D01*
X507500Y1220940D01*
X504960Y1223480D01*
X502420D01*
Y1220940D01*
X504960Y1218400D01*
X502420Y1215860D01*
Y1213320D01*
X576420Y509320D02*
X578960D01*
X581500Y511860D01*
X584040Y509320D01*
X586580D01*
Y511860D01*
X584040Y514400D01*
X586580Y516940D01*
Y519480D01*
X584040D01*
X581500Y516940D01*
X578960Y519480D01*
X576420D01*
Y516940D01*
X578960Y514400D01*
X576420Y511860D01*
Y509320D01*
X429960Y1418860D02*
Y1416320D01*
X435040D01*
Y1418860D01*
X437580D01*
Y1423940D01*
X435040D01*
Y1426480D01*
X429960D01*
Y1423940D01*
X427420D01*
Y1418860D01*
X429960D01*
X587420Y1176320D02*
X589960D01*
X592500Y1178860D01*
X595040Y1176320D01*
X597580D01*
Y1178860D01*
X595040Y1181400D01*
X597580Y1183940D01*
Y1186480D01*
X595040D01*
X592500Y1183940D01*
X589960Y1186480D01*
X587420D01*
Y1183940D01*
X589960Y1181400D01*
X587420Y1178860D01*
Y1176320D01*
X573420Y1097320D02*
X575960D01*
X578500Y1099860D01*
X581040Y1097320D01*
X583580D01*
Y1099860D01*
X581040Y1102400D01*
X583580Y1104940D01*
Y1107480D01*
X581040D01*
X578500Y1104940D01*
X575960Y1107480D01*
X573420D01*
Y1104940D01*
X575960Y1102400D01*
X573420Y1099860D01*
Y1097320D01*
X575420Y973320D02*
X577960D01*
X580500Y975860D01*
X583040Y973320D01*
X585580D01*
Y975860D01*
X583040Y978400D01*
X585580Y980940D01*
Y983480D01*
X583040D01*
X580500Y980940D01*
X577960Y983480D01*
X575420D01*
Y980940D01*
X577960Y978400D01*
X575420Y975860D01*
Y973320D01*
X303420Y1039320D02*
X305960D01*
X308500Y1041860D01*
X311040Y1039320D01*
X313580D01*
Y1041860D01*
X311040Y1044400D01*
X313580Y1046940D01*
Y1049480D01*
X311040D01*
X308500Y1046940D01*
X305960Y1049480D01*
X303420D01*
Y1046940D01*
X305960Y1044400D01*
X303420Y1041860D01*
Y1039320D01*
X314420Y1177320D02*
X316960D01*
X319500Y1179860D01*
X322040Y1177320D01*
X324580D01*
Y1179860D01*
X322040Y1182400D01*
X324580Y1184940D01*
Y1187480D01*
X322040D01*
X319500Y1184940D01*
X316960Y1187480D01*
X314420D01*
Y1184940D01*
X316960Y1182400D01*
X314420Y1179860D01*
Y1177320D01*
X586420Y595320D02*
X588960D01*
X591500Y597860D01*
X594040Y595320D01*
X596580D01*
Y597860D01*
X594040Y600400D01*
X596580Y602940D01*
Y605480D01*
X594040D01*
X591500Y602940D01*
X588960Y605480D01*
X586420D01*
Y602940D01*
X588960Y600400D01*
X586420Y597860D01*
Y595320D01*
X519420Y334320D02*
X521960D01*
X524500Y336860D01*
X527040Y334320D01*
X529580D01*
Y336860D01*
X527040Y339400D01*
X529580Y341940D01*
Y344480D01*
X527040D01*
X524500Y341940D01*
X521960Y344480D01*
X519420D01*
Y341940D01*
X521960Y339400D01*
X519420Y336860D01*
Y334320D01*
Y874320D02*
X521960D01*
X524500Y876860D01*
X527040Y874320D01*
X529580D01*
Y876860D01*
X527040Y879400D01*
X529580Y881940D01*
Y884480D01*
X527040D01*
X524500Y881940D01*
X521960Y884480D01*
X519420D01*
Y881940D01*
X521960Y879400D01*
X519420Y876860D01*
Y874320D01*
X575420Y677320D02*
X577960D01*
X580500Y679860D01*
X583040Y677320D01*
X585580D01*
Y679860D01*
X583040Y682400D01*
X585580Y684940D01*
Y687480D01*
X583040D01*
X580500Y684940D01*
X577960Y687480D01*
X575420D01*
Y684940D01*
X577960Y682400D01*
X575420Y679860D01*
Y677320D01*
X574420Y859320D02*
X576960D01*
X579500Y861860D01*
X582040Y859320D01*
X584580D01*
Y861860D01*
X582040Y864400D01*
X584580Y866940D01*
Y869480D01*
X582040D01*
X579500Y866940D01*
X576960Y869480D01*
X574420D01*
Y866940D01*
X576960Y864400D01*
X574420Y861860D01*
Y859320D01*
X305920Y1097820D02*
X308460D01*
X311000Y1100360D01*
X313540Y1097820D01*
X316080D01*
Y1100360D01*
X313540Y1102900D01*
X316080Y1105440D01*
Y1107980D01*
X313540D01*
X311000Y1105440D01*
X308460Y1107980D01*
X305920D01*
Y1105440D01*
X308460Y1102900D01*
X305920Y1100360D01*
Y1097820D01*
X388420Y739320D02*
X390960D01*
X393500Y741860D01*
X396040Y739320D01*
X398580D01*
Y741860D01*
X396040Y744400D01*
X398580Y746940D01*
Y749480D01*
X396040D01*
X393500Y746940D01*
X390960Y749480D01*
X388420D01*
Y746940D01*
X390960Y744400D01*
X388420Y741860D01*
Y739320D01*
X586920Y948920D02*
X589460D01*
X592000Y951460D01*
X594540Y948920D01*
X597080D01*
Y951460D01*
X594540Y954000D01*
X597080Y956540D01*
Y959080D01*
X594540D01*
X592000Y956540D01*
X589460Y959080D01*
X586920D01*
Y956540D01*
X589460Y954000D01*
X586920Y951460D01*
Y948920D01*
X385420Y1078320D02*
X387960D01*
X390500Y1080860D01*
X393040Y1078320D01*
X395580D01*
Y1080860D01*
X393040Y1083400D01*
X395580Y1085940D01*
Y1088480D01*
X393040D01*
X390500Y1085940D01*
X387960Y1088480D01*
X385420D01*
Y1085940D01*
X387960Y1083400D01*
X385420Y1080860D01*
Y1078320D01*
X586420Y445320D02*
X588960D01*
X591500Y447860D01*
X594040Y445320D01*
X596580D01*
Y447860D01*
X594040Y450400D01*
X596580Y452940D01*
Y455480D01*
X594040D01*
X591500Y452940D01*
X588960Y455480D01*
X586420D01*
Y452940D01*
X588960Y450400D01*
X586420Y447860D01*
Y445320D01*
X315420Y535320D02*
X317960D01*
X320500Y537860D01*
X323040Y535320D01*
X325580D01*
Y537860D01*
X323040Y540400D01*
X325580Y542940D01*
Y545480D01*
X323040D01*
X320500Y542940D01*
X317960Y545480D01*
X315420D01*
Y542940D01*
X317960Y540400D01*
X315420Y537860D01*
Y535320D01*
X385420Y581320D02*
X387960D01*
X390500Y583860D01*
X393040Y581320D01*
X395580D01*
Y583860D01*
X393040Y586400D01*
X395580Y588940D01*
Y591480D01*
X393040D01*
X390500Y588940D01*
X387960Y591480D01*
X385420D01*
Y588940D01*
X387960Y586400D01*
X385420Y583860D01*
Y581320D01*
X402420Y910320D02*
X404960D01*
X407500Y912860D01*
X410040Y910320D01*
X412580D01*
Y912860D01*
X410040Y915400D01*
X412580Y917940D01*
Y920480D01*
X410040D01*
X407500Y917940D01*
X404960Y920480D01*
X402420D01*
Y917940D01*
X404960Y915400D01*
X402420Y912860D01*
Y910320D01*
X403420Y410320D02*
X405960D01*
X408500Y412860D01*
X411040Y410320D01*
X413580D01*
Y412860D01*
X411040Y415400D01*
X413580Y417940D01*
Y420480D01*
X411040D01*
X408500Y417940D01*
X405960Y420480D01*
X403420D01*
Y417940D01*
X405960Y415400D01*
X403420Y412860D01*
Y410320D01*
X528420Y690320D02*
X530960D01*
X533500Y692860D01*
X536040Y690320D01*
X538580D01*
Y692860D01*
X536040Y695400D01*
X538580Y697940D01*
Y700480D01*
X536040D01*
X533500Y697940D01*
X530960Y700480D01*
X528420D01*
Y697940D01*
X530960Y695400D01*
X528420Y692860D01*
Y690320D01*
X578420Y316320D02*
X580960D01*
X583500Y318860D01*
X586040Y316320D01*
X588580D01*
Y318860D01*
X586040Y321400D01*
X588580Y323940D01*
Y326480D01*
X586040D01*
X583500Y323940D01*
X580960Y326480D01*
X578420D01*
Y323940D01*
X580960Y321400D01*
X578420Y318860D01*
Y316320D01*
X406420Y942320D02*
X408960D01*
X411500Y944860D01*
X414040Y942320D01*
X416580D01*
Y944860D01*
X414040Y947400D01*
X416580Y949940D01*
Y952480D01*
X414040D01*
X411500Y949940D01*
X408960Y952480D01*
X406420D01*
Y949940D01*
X408960Y947400D01*
X406420Y944860D01*
Y942320D01*
X312420Y652320D02*
X314960D01*
X317500Y654860D01*
X320040Y652320D01*
X322580D01*
Y654860D01*
X320040Y657400D01*
X322580Y659940D01*
Y662480D01*
X320040D01*
X317500Y659940D01*
X314960Y662480D01*
X312420D01*
Y659940D01*
X314960Y657400D01*
X312420Y654860D01*
Y652320D01*
X509420Y448320D02*
X511960D01*
X514500Y450860D01*
X517040Y448320D01*
X519580D01*
Y450860D01*
X517040Y453400D01*
X519580Y455940D01*
Y458480D01*
X517040D01*
X514500Y455940D01*
X511960Y458480D01*
X509420D01*
Y455940D01*
X511960Y453400D01*
X509420Y450860D01*
Y448320D01*
X313420Y596320D02*
X315960D01*
X318500Y598860D01*
X321040Y596320D01*
X323580D01*
Y598860D01*
X321040Y601400D01*
X323580Y603940D01*
Y606480D01*
X321040D01*
X318500Y603940D01*
X315960Y606480D01*
X313420D01*
Y603940D01*
X315960Y601400D01*
X313420Y598860D01*
Y596320D01*
X386420Y905320D02*
X388960D01*
X391500Y907860D01*
X394040Y905320D01*
X396580D01*
Y907860D01*
X394040Y910400D01*
X396580Y912940D01*
Y915480D01*
X394040D01*
X391500Y912940D01*
X388960Y915480D01*
X386420D01*
Y912940D01*
X388960Y910400D01*
X386420Y907860D01*
Y905320D01*
X491920Y602320D02*
X494460D01*
X497000Y604860D01*
X499540Y602320D01*
X502080D01*
Y604860D01*
X499540Y607400D01*
X502080Y609940D01*
Y612480D01*
X499540D01*
X497000Y609940D01*
X494460Y612480D01*
X491920D01*
Y609940D01*
X494460Y607400D01*
X491920Y604860D01*
Y602320D01*
X404420Y542320D02*
X406960D01*
X409500Y544860D01*
X412040Y542320D01*
X414580D01*
Y544860D01*
X412040Y547400D01*
X414580Y549940D01*
Y552480D01*
X412040D01*
X409500Y549940D01*
X406960Y552480D01*
X404420D01*
Y549940D01*
X406960Y547400D01*
X404420Y544860D01*
Y542320D01*
X314420Y703320D02*
X316960D01*
X319500Y705860D01*
X322040Y703320D01*
X324580D01*
Y705860D01*
X322040Y708400D01*
X324580Y710940D01*
Y713480D01*
X322040D01*
X319500Y710940D01*
X316960Y713480D01*
X314420D01*
Y710940D01*
X316960Y708400D01*
X314420Y705860D01*
Y703320D01*
X575420Y916320D02*
X577960D01*
X580500Y918860D01*
X583040Y916320D01*
X585580D01*
Y918860D01*
X583040Y921400D01*
X585580Y923940D01*
Y926480D01*
X583040D01*
X580500Y923940D01*
X577960Y926480D01*
X575420D01*
Y923940D01*
X577960Y921400D01*
X575420Y918860D01*
Y916320D01*
X403420Y983320D02*
X405960D01*
X408500Y985860D01*
X411040Y983320D01*
X413580D01*
Y985860D01*
X411040Y988400D01*
X413580Y990940D01*
Y993480D01*
X411040D01*
X408500Y990940D01*
X405960Y993480D01*
X403420D01*
Y990940D01*
X405960Y988400D01*
X403420Y985860D01*
Y983320D01*
X587420Y489320D02*
X589960D01*
X592500Y491860D01*
X595040Y489320D01*
X597580D01*
Y491860D01*
X595040Y494400D01*
X597580Y496940D01*
Y499480D01*
X595040D01*
X592500Y496940D01*
X589960Y499480D01*
X587420D01*
Y496940D01*
X589960Y494400D01*
X587420Y491860D01*
Y489320D01*
X528420Y425320D02*
X530960D01*
X533500Y427860D01*
X536040Y425320D01*
X538580D01*
Y427860D01*
X536040Y430400D01*
X538580Y432940D01*
Y435480D01*
X536040D01*
X533500Y432940D01*
X530960Y435480D01*
X528420D01*
Y432940D01*
X530960Y430400D01*
X528420Y427860D01*
Y425320D01*
X513420Y408320D02*
X515960D01*
X518500Y410860D01*
X521040Y408320D01*
X523580D01*
Y410860D01*
X521040Y413400D01*
X523580Y415940D01*
Y418480D01*
X521040D01*
X518500Y415940D01*
X515960Y418480D01*
X513420D01*
Y415940D01*
X515960Y413400D01*
X513420Y410860D01*
Y408320D01*
X526420Y559320D02*
X528960D01*
X531500Y561860D01*
X534040Y559320D01*
X536580D01*
Y561860D01*
X534040Y564400D01*
X536580Y566940D01*
Y569480D01*
X534040D01*
X531500Y566940D01*
X528960Y569480D01*
X526420D01*
Y566940D01*
X528960Y564400D01*
X526420Y561860D01*
Y559320D01*
X516420Y737320D02*
X518960D01*
X521500Y739860D01*
X524040Y737320D01*
X526580D01*
Y739860D01*
X524040Y742400D01*
X526580Y744940D01*
Y747480D01*
X524040D01*
X521500Y744940D01*
X518960Y747480D01*
X516420D01*
Y744940D01*
X518960Y742400D01*
X516420Y739860D01*
Y737320D01*
X401420Y676320D02*
X403960D01*
X406500Y678860D01*
X409040Y676320D01*
X411580D01*
Y678860D01*
X409040Y681400D01*
X411580Y683940D01*
Y686480D01*
X409040D01*
X406500Y683940D01*
X403960Y686480D01*
X401420D01*
Y683940D01*
X403960Y681400D01*
X401420Y678860D01*
Y676320D01*
X403420Y1138320D02*
X405960D01*
X408500Y1140860D01*
X411040Y1138320D01*
X413580D01*
Y1140860D01*
X411040Y1143400D01*
X413580Y1145940D01*
Y1148480D01*
X411040D01*
X408500Y1145940D01*
X405960Y1148480D01*
X403420D01*
Y1145940D01*
X405960Y1143400D01*
X403420Y1140860D01*
Y1138320D01*
X514420Y1105320D02*
X516960D01*
X519500Y1107860D01*
X522040Y1105320D01*
X524580D01*
Y1107860D01*
X522040Y1110400D01*
X524580Y1112940D01*
Y1115480D01*
X522040D01*
X519500Y1112940D01*
X516960Y1115480D01*
X514420D01*
Y1112940D01*
X516960Y1110400D01*
X514420Y1107860D01*
Y1105320D01*
X401420Y601320D02*
X403960D01*
X406500Y603860D01*
X409040Y601320D01*
X411580D01*
Y603860D01*
X409040Y606400D01*
X411580Y608940D01*
Y611480D01*
X409040D01*
X406500Y608940D01*
X403960Y611480D01*
X401420D01*
Y608940D01*
X403960Y606400D01*
X401420Y603860D01*
Y601320D01*
X302420Y801320D02*
X304960D01*
X307500Y803860D01*
X310040Y801320D01*
X312580D01*
Y803860D01*
X310040Y806400D01*
X312580Y808940D01*
Y811480D01*
X310040D01*
X307500Y808940D01*
X304960Y811480D01*
X302420D01*
Y808940D01*
X304960Y806400D01*
X302420Y803860D01*
Y801320D01*
X517420Y671320D02*
X519960D01*
X522500Y673860D01*
X525040Y671320D01*
X527580D01*
Y673860D01*
X525040Y676400D01*
X527580Y678940D01*
Y681480D01*
X525040D01*
X522500Y678940D01*
X519960Y681480D01*
X517420D01*
Y678940D01*
X519960Y676400D01*
X517420Y673860D01*
Y671320D01*
X548420Y738320D02*
X550960D01*
X553500Y740860D01*
X556040Y738320D01*
X558580D01*
Y740860D01*
X556040Y743400D01*
X558580Y745940D01*
Y748480D01*
X556040D01*
X553500Y745940D01*
X550960Y748480D01*
X548420D01*
Y745940D01*
X550960Y743400D01*
X548420Y740860D01*
Y738320D01*
X547420Y543320D02*
X549960D01*
X552500Y545860D01*
X555040Y543320D01*
X557580D01*
Y545860D01*
X555040Y548400D01*
X557580Y550940D01*
Y553480D01*
X555040D01*
X552500Y550940D01*
X549960Y553480D01*
X547420D01*
Y550940D01*
X549960Y548400D01*
X547420Y545860D01*
Y543320D01*
X586420Y1123320D02*
X588960D01*
X591500Y1125860D01*
X594040Y1123320D01*
X596580D01*
Y1125860D01*
X594040Y1128400D01*
X596580Y1130940D01*
Y1133480D01*
X594040D01*
X591500Y1130940D01*
X588960Y1133480D01*
X586420D01*
Y1130940D01*
X588960Y1128400D01*
X586420Y1125860D01*
Y1123320D01*
X547420Y573320D02*
X549960D01*
X552500Y575860D01*
X555040Y573320D01*
X557580D01*
Y575860D01*
X555040Y578400D01*
X557580Y580940D01*
Y583480D01*
X555040D01*
X552500Y580940D01*
X549960Y583480D01*
X547420D01*
Y580940D01*
X549960Y578400D01*
X547420Y575860D01*
Y573320D01*
X549420Y406320D02*
X551960D01*
X554500Y408860D01*
X557040Y406320D01*
X559580D01*
Y408860D01*
X557040Y411400D01*
X559580Y413940D01*
Y416480D01*
X557040D01*
X554500Y413940D01*
X551960Y416480D01*
X549420D01*
Y413940D01*
X551960Y411400D01*
X549420Y408860D01*
Y406320D01*
X576420Y1038320D02*
X578960D01*
X581500Y1040860D01*
X584040Y1038320D01*
X586580D01*
Y1040860D01*
X584040Y1043400D01*
X586580Y1045940D01*
Y1048480D01*
X584040D01*
X581500Y1045940D01*
X578960Y1048480D01*
X576420D01*
Y1045940D01*
X578960Y1043400D01*
X576420Y1040860D01*
Y1038320D01*
X477310Y1413360D02*
Y1410820D01*
X482390D01*
Y1413360D01*
X484930D01*
Y1418440D01*
X482390D01*
Y1420980D01*
X477310D01*
Y1418440D01*
X474770D01*
Y1413360D01*
X477310D01*
X387420Y677320D02*
X389960D01*
X392500Y679860D01*
X395040Y677320D01*
X397580D01*
Y679860D01*
X395040Y682400D01*
X397580Y684940D01*
Y687480D01*
X395040D01*
X392500Y684940D01*
X389960Y687480D01*
X387420D01*
Y684940D01*
X389960Y682400D01*
X387420Y679860D01*
Y677320D01*
X305420Y317320D02*
X307960D01*
X310500Y319860D01*
X313040Y317320D01*
X315580D01*
Y319860D01*
X313040Y322400D01*
X315580Y324940D01*
Y327480D01*
X313040D01*
X310500Y324940D01*
X307960Y327480D01*
X305420D01*
Y324940D01*
X307960Y322400D01*
X305420Y319860D01*
Y317320D01*
X384420Y505320D02*
X386960D01*
X389500Y507860D01*
X392040Y505320D01*
X394580D01*
Y507860D01*
X392040Y510400D01*
X394580Y512940D01*
Y515480D01*
X392040D01*
X389500Y512940D01*
X386960Y515480D01*
X384420D01*
Y512940D01*
X386960Y510400D01*
X384420Y507860D01*
Y505320D01*
X547420Y609320D02*
X549960D01*
X552500Y611860D01*
X555040Y609320D01*
X557580D01*
Y611860D01*
X555040Y614400D01*
X557580Y616940D01*
Y619480D01*
X555040D01*
X552500Y616940D01*
X549960Y619480D01*
X547420D01*
Y616940D01*
X549960Y614400D01*
X547420Y611860D01*
Y609320D01*
X588420Y343320D02*
X590960D01*
X593500Y345860D01*
X596040Y343320D01*
X598580D01*
Y345860D01*
X596040Y348400D01*
X598580Y350940D01*
Y353480D01*
X596040D01*
X593500Y350940D01*
X590960Y353480D01*
X588420D01*
Y350940D01*
X590960Y348400D01*
X588420Y345860D01*
Y343320D01*
X301420Y860320D02*
X303960D01*
X306500Y862860D01*
X309040Y860320D01*
X311580D01*
Y862860D01*
X309040Y865400D01*
X311580Y867940D01*
Y870480D01*
X309040D01*
X306500Y867940D01*
X303960Y870480D01*
X301420D01*
Y867940D01*
X303960Y865400D01*
X301420Y862860D01*
Y860320D01*
X548420Y299320D02*
X550960D01*
X553500Y301860D01*
X556040Y299320D01*
X558580D01*
Y301860D01*
X556040Y304400D01*
X558580Y306940D01*
Y309480D01*
X556040D01*
X553500Y306940D01*
X550960Y309480D01*
X548420D01*
Y306940D01*
X550960Y304400D01*
X548420Y301860D01*
Y299320D01*
X404420Y727320D02*
X406960D01*
X409500Y729860D01*
X412040Y727320D01*
X414580D01*
Y729860D01*
X412040Y732400D01*
X414580Y734940D01*
Y737480D01*
X412040D01*
X409500Y734940D01*
X406960Y737480D01*
X404420D01*
Y734940D01*
X406960Y732400D01*
X404420Y729860D01*
Y727320D01*
X588420Y888320D02*
X590960D01*
X593500Y890860D01*
X596040Y888320D01*
X598580D01*
Y890860D01*
X596040Y893400D01*
X598580Y895940D01*
Y898480D01*
X596040D01*
X593500Y895940D01*
X590960Y898480D01*
X588420D01*
Y895940D01*
X590960Y893400D01*
X588420Y890860D01*
Y888320D01*
X337420Y81320D02*
X339960D01*
X342500Y83860D01*
X345040Y81320D01*
X347580D01*
Y83860D01*
X345040Y86400D01*
X347580Y88940D01*
Y91480D01*
X345040D01*
X342500Y88940D01*
X339960Y91480D01*
X337420D01*
Y88940D01*
X339960Y86400D01*
X337420Y83860D01*
Y81320D01*
X301420Y565320D02*
X303960D01*
X306500Y567860D01*
X309040Y565320D01*
X311580D01*
Y567860D01*
X309040Y570400D01*
X311580Y572940D01*
Y575480D01*
X309040D01*
X306500Y572940D01*
X303960Y575480D01*
X301420D01*
Y572940D01*
X303960Y570400D01*
X301420Y567860D01*
Y565320D01*
X313420Y1226320D02*
X315960D01*
X318500Y1228860D01*
X321040Y1226320D01*
X323580D01*
Y1228860D01*
X321040Y1231400D01*
X323580Y1233940D01*
Y1236480D01*
X321040D01*
X318500Y1233940D01*
X315960Y1236480D01*
X313420D01*
Y1233940D01*
X315960Y1231400D01*
X313420Y1228860D01*
Y1226320D01*
X586420Y1225320D02*
X588960D01*
X591500Y1227860D01*
X594040Y1225320D01*
X596580D01*
Y1227860D01*
X594040Y1230400D01*
X596580Y1232940D01*
Y1235480D01*
X594040D01*
X591500Y1232940D01*
X588960Y1235480D01*
X586420D01*
Y1232940D01*
X588960Y1230400D01*
X586420Y1227860D01*
Y1225320D01*
X578420Y470320D02*
X580960D01*
X583500Y472860D01*
X586040Y470320D01*
X588580D01*
Y472860D01*
X586040Y475400D01*
X588580Y477940D01*
Y480480D01*
X586040D01*
X583500Y477940D01*
X580960Y480480D01*
X578420D01*
Y477940D01*
X580960Y475400D01*
X578420Y472860D01*
Y470320D01*
X302420Y974320D02*
X304960D01*
X307500Y976860D01*
X310040Y974320D01*
X312580D01*
Y976860D01*
X310040Y979400D01*
X312580Y981940D01*
Y984480D01*
X310040D01*
X307500Y981940D01*
X304960Y984480D01*
X302420D01*
Y981940D01*
X304960Y979400D01*
X302420Y976860D01*
Y974320D01*
X301420Y622320D02*
X303960D01*
X306500Y624860D01*
X309040Y622320D01*
X311580D01*
Y624860D01*
X309040Y627400D01*
X311580Y629940D01*
Y632480D01*
X309040D01*
X306500Y629940D01*
X303960Y632480D01*
X301420D01*
Y629940D01*
X303960Y627400D01*
X301420Y624860D01*
Y622320D01*
X303420Y728320D02*
X305960D01*
X308500Y730860D01*
X311040Y728320D01*
X313580D01*
Y730860D01*
X311040Y733400D01*
X313580Y735940D01*
Y738480D01*
X311040D01*
X308500Y735940D01*
X305960Y738480D01*
X303420D01*
Y735940D01*
X305960Y733400D01*
X303420Y730860D01*
Y728320D01*
X547420Y638320D02*
X549960D01*
X552500Y640860D01*
X555040Y638320D01*
X557580D01*
Y640860D01*
X555040Y643400D01*
X557580Y645940D01*
Y648480D01*
X555040D01*
X552500Y645940D01*
X549960Y648480D01*
X547420D01*
Y645940D01*
X549960Y643400D01*
X547420Y640860D01*
Y638320D01*
X404420Y774320D02*
X406960D01*
X409500Y776860D01*
X412040Y774320D01*
X414580D01*
Y776860D01*
X412040Y779400D01*
X414580Y781940D01*
Y784480D01*
X412040D01*
X409500Y781940D01*
X406960Y784480D01*
X404420D01*
Y781940D01*
X406960Y779400D01*
X404420Y776860D01*
Y774320D01*
X574420Y421320D02*
X576960D01*
X579500Y423860D01*
X582040Y421320D01*
X584580D01*
Y423860D01*
X582040Y426400D01*
X584580Y428940D01*
Y431480D01*
X582040D01*
X579500Y428940D01*
X576960Y431480D01*
X574420D01*
Y428940D01*
X576960Y426400D01*
X574420Y423860D01*
Y421320D01*
X513960Y1501860D02*
Y1499320D01*
X519040D01*
Y1501860D01*
X521580D01*
Y1506940D01*
X519040D01*
Y1509480D01*
X513960D01*
Y1506940D01*
X511420D01*
Y1501860D01*
X513960D01*
X385420Y1002320D02*
X387960D01*
X390500Y1004860D01*
X393040Y1002320D01*
X395580D01*
Y1004860D01*
X393040Y1007400D01*
X395580Y1009940D01*
Y1012480D01*
X393040D01*
X390500Y1009940D01*
X387960Y1012480D01*
X385420D01*
Y1009940D01*
X387960Y1007400D01*
X385420Y1004860D01*
Y1002320D01*
X575420Y1149320D02*
X577960D01*
X580500Y1151860D01*
X583040Y1149320D01*
X585580D01*
Y1151860D01*
X583040Y1154400D01*
X585580Y1156940D01*
Y1159480D01*
X583040D01*
X580500Y1156940D01*
X577960Y1159480D01*
X575420D01*
Y1156940D01*
X577960Y1154400D01*
X575420Y1151860D01*
Y1149320D01*
X518420Y640320D02*
X520960D01*
X523500Y642860D01*
X526040Y640320D01*
X528580D01*
Y642860D01*
X526040Y645400D01*
X528580Y647940D01*
Y650480D01*
X526040D01*
X523500Y647940D01*
X520960Y650480D01*
X518420D01*
Y647940D01*
X520960Y645400D01*
X518420Y642860D01*
Y640320D01*
X546420Y709320D02*
X548960D01*
X551500Y711860D01*
X554040Y709320D01*
X556580D01*
Y711860D01*
X554040Y714400D01*
X556580Y716940D01*
Y719480D01*
X554040D01*
X551500Y716940D01*
X548960Y719480D01*
X546420D01*
Y716940D01*
X548960Y714400D01*
X546420Y711860D01*
Y709320D01*
X586420Y1065320D02*
X588960D01*
X591500Y1067860D01*
X594040Y1065320D01*
X596580D01*
Y1067860D01*
X594040Y1070400D01*
X596580Y1072940D01*
Y1075480D01*
X594040D01*
X591500Y1072940D01*
X588960Y1075480D01*
X586420D01*
Y1072940D01*
X588960Y1070400D01*
X586420Y1067860D01*
Y1065320D01*
X313420Y446320D02*
X315960D01*
X318500Y448860D01*
X321040Y446320D01*
X323580D01*
Y448860D01*
X321040Y451400D01*
X323580Y453940D01*
Y456480D01*
X321040D01*
X318500Y453940D01*
X315960Y456480D01*
X313420D01*
Y453940D01*
X315960Y451400D01*
X313420Y448860D01*
Y446320D01*
X387420Y848320D02*
X389960D01*
X392500Y850860D01*
X395040Y848320D01*
X397580D01*
Y850860D01*
X395040Y853400D01*
X397580Y855940D01*
Y858480D01*
X395040D01*
X392500Y855940D01*
X389960Y858480D01*
X387420D01*
Y855940D01*
X389960Y853400D01*
X387420Y850860D01*
Y848320D01*
X516420Y802320D02*
X518960D01*
X521500Y804860D01*
X524040Y802320D01*
X526580D01*
Y804860D01*
X524040Y807400D01*
X526580Y809940D01*
Y812480D01*
X524040D01*
X521500Y809940D01*
X518960Y812480D01*
X516420D01*
Y809940D01*
X518960Y807400D01*
X516420Y804860D01*
Y802320D01*
X548420Y493320D02*
X550960D01*
X553500Y495860D01*
X556040Y493320D01*
X558580D01*
Y495860D01*
X556040Y498400D01*
X558580Y500940D01*
Y503480D01*
X556040D01*
X553500Y500940D01*
X550960Y503480D01*
X548420D01*
Y500940D01*
X550960Y498400D01*
X548420Y495860D01*
Y493320D01*
X406420Y1004320D02*
X408960D01*
X411500Y1006860D01*
X414040Y1004320D01*
X416580D01*
Y1006860D01*
X414040Y1009400D01*
X416580Y1011940D01*
Y1014480D01*
X414040D01*
X411500Y1011940D01*
X408960Y1014480D01*
X406420D01*
Y1011940D01*
X408960Y1009400D01*
X406420Y1006860D01*
Y1004320D01*
X521420Y1026320D02*
X523960D01*
X526500Y1028860D01*
X529040Y1026320D01*
X531580D01*
Y1028860D01*
X529040Y1031400D01*
X531580Y1033940D01*
Y1036480D01*
X529040D01*
X526500Y1033940D01*
X523960Y1036480D01*
X521420D01*
Y1033940D01*
X523960Y1031400D01*
X521420Y1028860D01*
Y1026320D01*
X405420Y812320D02*
X407960D01*
X410500Y814860D01*
X413040Y812320D01*
X415580D01*
Y814860D01*
X413040Y817400D01*
X415580Y819940D01*
Y822480D01*
X413040D01*
X410500Y819940D01*
X407960Y822480D01*
X405420D01*
Y819940D01*
X407960Y817400D01*
X405420Y814860D01*
Y812320D01*
X576420Y727320D02*
X578960D01*
X581500Y729860D01*
X584040Y727320D01*
X586580D01*
Y729860D01*
X584040Y732400D01*
X586580Y734940D01*
Y737480D01*
X584040D01*
X581500Y734940D01*
X578960Y737480D01*
X576420D01*
Y734940D01*
X578960Y732400D01*
X576420Y729860D01*
Y727320D01*
X530420Y611320D02*
X532960D01*
X535500Y613860D01*
X538040Y611320D01*
X540580D01*
Y613860D01*
X538040Y616400D01*
X540580Y618940D01*
Y621480D01*
X538040D01*
X535500Y618940D01*
X532960Y621480D01*
X530420D01*
Y618940D01*
X532960Y616400D01*
X530420Y613860D01*
Y611320D01*
X586420Y831320D02*
X588960D01*
X591500Y833860D01*
X594040Y831320D01*
X596580D01*
Y833860D01*
X594040Y836400D01*
X596580Y838940D01*
Y841480D01*
X594040D01*
X591500Y838940D01*
X588960Y841480D01*
X586420D01*
Y838940D01*
X588960Y836400D01*
X586420Y833860D01*
Y831320D01*
X491420Y1175320D02*
X493960D01*
X496500Y1177860D01*
X499040Y1175320D01*
X501580D01*
Y1177860D01*
X499040Y1180400D01*
X501580Y1182940D01*
Y1185480D01*
X499040D01*
X496500Y1182940D01*
X493960Y1185480D01*
X491420D01*
Y1182940D01*
X493960Y1180400D01*
X491420Y1177860D01*
Y1175320D01*
X302420Y1150320D02*
X304960D01*
X307500Y1152860D01*
X310040Y1150320D01*
X312580D01*
Y1152860D01*
X310040Y1155400D01*
X312580Y1157940D01*
Y1160480D01*
X310040D01*
X307500Y1157940D01*
X304960Y1160480D01*
X302420D01*
Y1157940D01*
X304960Y1155400D01*
X302420Y1152860D01*
Y1150320D01*
X588420Y534320D02*
X590960D01*
X593500Y536860D01*
X596040Y534320D01*
X598580D01*
Y536860D01*
X596040Y539400D01*
X598580Y541940D01*
Y544480D01*
X596040D01*
X593500Y541940D01*
X590960Y544480D01*
X588420D01*
Y541940D01*
X590960Y539400D01*
X588420Y536860D01*
Y534320D01*
X313420Y1066320D02*
X315960D01*
X318500Y1068860D01*
X321040Y1066320D01*
X323580D01*
Y1068860D01*
X321040Y1071400D01*
X323580Y1073940D01*
Y1076480D01*
X321040D01*
X318500Y1073940D01*
X315960Y1076480D01*
X313420D01*
Y1073940D01*
X315960Y1071400D01*
X313420Y1068860D01*
Y1066320D01*
X404420Y468320D02*
X406960D01*
X409500Y470860D01*
X412040Y468320D01*
X414580D01*
Y470860D01*
X412040Y473400D01*
X414580Y475940D01*
Y478480D01*
X412040D01*
X409500Y475940D01*
X406960Y478480D01*
X404420D01*
Y475940D01*
X406960Y473400D01*
X404420Y470860D01*
Y468320D01*
X391420Y809320D02*
X393960D01*
X396500Y811860D01*
X399040Y809320D01*
X401580D01*
Y811860D01*
X399040Y814400D01*
X401580Y816940D01*
Y819480D01*
X399040D01*
X396500Y816940D01*
X393960Y819480D01*
X391420D01*
Y816940D01*
X393960Y814400D01*
X391420Y811860D01*
Y809320D01*
X304420Y1244320D02*
X306960D01*
X309500Y1246860D01*
X312040Y1244320D01*
X314580D01*
Y1246860D01*
X312040Y1249400D01*
X314580Y1251940D01*
Y1254480D01*
X312040D01*
X309500Y1251940D01*
X306960Y1254480D01*
X304420D01*
Y1251940D01*
X306960Y1249400D01*
X304420Y1246860D01*
Y1244320D01*
X524420Y301320D02*
X526960D01*
X529500Y303860D01*
X532040Y301320D01*
X534580D01*
Y303860D01*
X532040Y306400D01*
X534580Y308940D01*
Y311480D01*
X532040D01*
X529500Y308940D01*
X526960Y311480D01*
X524420D01*
Y308940D01*
X526960Y306400D01*
X524420Y303860D01*
Y301320D01*
X302420Y917320D02*
X304960D01*
X307500Y919860D01*
X310040Y917320D01*
X312580D01*
Y919860D01*
X310040Y922400D01*
X312580Y924940D01*
Y927480D01*
X310040D01*
X307500Y924940D01*
X304960Y927480D01*
X302420D01*
Y924940D01*
X304960Y922400D01*
X302420Y919860D01*
Y917320D01*
X313420Y290320D02*
X315960D01*
X318500Y292860D01*
X321040Y290320D01*
X323580D01*
Y292860D01*
X321040Y295400D01*
X323580Y297940D01*
Y300480D01*
X321040D01*
X318500Y297940D01*
X315960Y300480D01*
X313420D01*
Y297940D01*
X315960Y295400D01*
X313420Y292860D01*
Y290320D01*
Y762320D02*
X315960D01*
X318500Y764860D01*
X321040Y762320D01*
X323580D01*
Y764860D01*
X321040Y767400D01*
X323580Y769940D01*
Y772480D01*
X321040D01*
X318500Y769940D01*
X315960Y772480D01*
X313420D01*
Y769940D01*
X315960Y767400D01*
X313420Y764860D01*
Y762320D01*
X587420Y1008320D02*
X589960D01*
X592500Y1010860D01*
X595040Y1008320D01*
X597580D01*
Y1010860D01*
X595040Y1013400D01*
X597580Y1015940D01*
Y1018480D01*
X595040D01*
X592500Y1015940D01*
X589960Y1018480D01*
X587420D01*
Y1015940D01*
X589960Y1013400D01*
X587420Y1010860D01*
Y1008320D01*
X707210Y1116110D02*
Y1113570D01*
X712290D01*
Y1116110D01*
X714830D01*
Y1121190D01*
X712290D01*
Y1123730D01*
X707210D01*
Y1121190D01*
X704670D01*
Y1116110D01*
X707210D01*
X704560Y1044860D02*
Y1042320D01*
X709640D01*
Y1044860D01*
X712180D01*
Y1049940D01*
X709640D01*
Y1052480D01*
X704560D01*
Y1049940D01*
X702020D01*
Y1044860D01*
X704560D01*
X735460Y1131360D02*
Y1128820D01*
X740540D01*
Y1131360D01*
X743080D01*
Y1136440D01*
X740540D01*
Y1138980D01*
X735460D01*
Y1136440D01*
X732920D01*
Y1131360D01*
X735460D01*
X704560Y1069860D02*
Y1067320D01*
X709640D01*
Y1069860D01*
X712180D01*
Y1074940D01*
X709640D01*
Y1077480D01*
X704560D01*
Y1074940D01*
X702020D01*
Y1069860D01*
X704560D01*
X717710Y1126610D02*
Y1124070D01*
X722790D01*
Y1126610D01*
X725330D01*
Y1131690D01*
X722790D01*
Y1134230D01*
X717710D01*
Y1131690D01*
X715170D01*
Y1126610D01*
X717710D01*
X752960Y1131360D02*
Y1128820D01*
X758040D01*
Y1131360D01*
X760580D01*
Y1136440D01*
X758040D01*
Y1138980D01*
X752960D01*
Y1136440D01*
X750420D01*
Y1131360D01*
X752960D01*
X801960D02*
Y1128820D01*
X807040D01*
Y1131360D01*
X809580D01*
Y1136440D01*
X807040D01*
Y1138980D01*
X801960D01*
Y1136440D01*
X799420D01*
Y1131360D01*
X801960D01*
X779960D02*
Y1128820D01*
X785040D01*
Y1131360D01*
X787580D01*
Y1136440D01*
X785040D01*
Y1138980D01*
X779960D01*
Y1136440D01*
X777420D01*
Y1131360D01*
X779960D01*
X826460Y1105360D02*
Y1102820D01*
X831540D01*
Y1105360D01*
X834080D01*
Y1110440D01*
X831540D01*
Y1112980D01*
X826460D01*
Y1110440D01*
X823920D01*
Y1105360D01*
X826460D01*
X704560Y1083360D02*
Y1080820D01*
X709640D01*
Y1083360D01*
X712180D01*
Y1088440D01*
X709640D01*
Y1090980D01*
X704560D01*
Y1088440D01*
X702020D01*
Y1083360D01*
X704560D01*
X822960Y1119360D02*
Y1116820D01*
X828040D01*
Y1119360D01*
X830580D01*
Y1124440D01*
X828040D01*
Y1126980D01*
X822960D01*
Y1124440D01*
X820420D01*
Y1119360D01*
X822960D01*
X704560Y1057860D02*
Y1055320D01*
X709640D01*
Y1057860D01*
X712180D01*
Y1062940D01*
X709640D01*
Y1065480D01*
X704560D01*
Y1062940D01*
X702020D01*
Y1057860D01*
X704560D01*
X754960Y1045360D02*
Y1042820D01*
X760040D01*
Y1045360D01*
X762580D01*
Y1050440D01*
X760040D01*
Y1052980D01*
X754960D01*
Y1050440D01*
X752420D01*
Y1045360D01*
X754960D01*
Y1085360D02*
Y1082820D01*
X760040D01*
Y1085360D01*
X762580D01*
Y1090440D01*
X760040D01*
Y1092980D01*
X754960D01*
Y1090440D01*
X752420D01*
Y1085360D01*
X754960D01*
Y1059860D02*
Y1057320D01*
X760040D01*
Y1059860D01*
X762580D01*
Y1064940D01*
X760040D01*
Y1067480D01*
X754960D01*
Y1064940D01*
X752420D01*
Y1059860D01*
X754960D01*
X774960Y1037583D02*
Y1035043D01*
X780040D01*
Y1037583D01*
X782580D01*
Y1042663D01*
X780040D01*
Y1045203D01*
X774960D01*
Y1042663D01*
X772420D01*
Y1037583D01*
X774960D01*
X754960Y1070860D02*
Y1068320D01*
X760040D01*
Y1070860D01*
X762580D01*
Y1075940D01*
X760040D01*
Y1078480D01*
X754960D01*
Y1075940D01*
X752420D01*
Y1070860D01*
X754960D01*
X791460Y1037583D02*
Y1035043D01*
X796540D01*
Y1037583D01*
X799080D01*
Y1042663D01*
X796540D01*
Y1045203D01*
X791460D01*
Y1042663D01*
X788920D01*
Y1037583D01*
X791460D01*
X808960D02*
Y1035043D01*
X814040D01*
Y1037583D01*
X816580D01*
Y1042663D01*
X814040D01*
Y1045203D01*
X808960D01*
Y1042663D01*
X806420D01*
Y1037583D01*
X808960D01*
X145960Y1214983D02*
Y1212443D01*
X151040D01*
Y1214983D01*
X153580D01*
Y1220063D01*
X151040D01*
Y1222603D01*
X145960D01*
Y1220063D01*
X143420D01*
Y1214983D01*
X145960D01*
Y1200483D02*
Y1197943D01*
X151040D01*
Y1200483D01*
X153580D01*
Y1205563D01*
X151040D01*
Y1208103D01*
X145960D01*
Y1205563D01*
X143420D01*
Y1200483D01*
X145960D01*
X109460Y1222760D02*
Y1220220D01*
X114540D01*
Y1222760D01*
X117080D01*
Y1227840D01*
X114540D01*
Y1230380D01*
X109460D01*
Y1227840D01*
X106920D01*
Y1222760D01*
X109460D01*
X125960D02*
Y1220220D01*
X131040D01*
Y1222760D01*
X133580D01*
Y1227840D01*
X131040D01*
Y1230380D01*
X125960D01*
Y1227840D01*
X123420D01*
Y1222760D01*
X125960D01*
X91960D02*
Y1220220D01*
X97040D01*
Y1222760D01*
X99580D01*
Y1227840D01*
X97040D01*
Y1230380D01*
X91960D01*
Y1227840D01*
X89420D01*
Y1222760D01*
X91960D01*
X145960Y1174983D02*
Y1172443D01*
X151040D01*
Y1174983D01*
X153580D01*
Y1180063D01*
X151040D01*
Y1182603D01*
X145960D01*
Y1180063D01*
X143420D01*
Y1174983D01*
X145960D01*
Y1189483D02*
Y1186943D01*
X151040D01*
Y1189483D01*
X153580D01*
Y1194563D01*
X151040D01*
Y1197103D01*
X145960D01*
Y1194563D01*
X143420D01*
Y1189483D01*
X145960D01*
X196360Y1176983D02*
Y1174443D01*
X201440D01*
Y1176983D01*
X203980D01*
Y1182063D01*
X201440D01*
Y1184603D01*
X196360D01*
Y1182063D01*
X193820D01*
Y1176983D01*
X196360D01*
X120960Y1128983D02*
Y1126443D01*
X126040D01*
Y1128983D01*
X128580D01*
Y1134063D01*
X126040D01*
Y1136603D01*
X120960D01*
Y1134063D01*
X118420D01*
Y1128983D01*
X120960D01*
X193710Y1144233D02*
Y1141693D01*
X198790D01*
Y1144233D01*
X201330D01*
Y1149313D01*
X198790D01*
Y1151853D01*
X193710D01*
Y1149313D01*
X191170D01*
Y1144233D01*
X193710D01*
X98960Y1128983D02*
Y1126443D01*
X104040D01*
Y1128983D01*
X106580D01*
Y1134063D01*
X104040D01*
Y1136603D01*
X98960D01*
Y1134063D01*
X96420D01*
Y1128983D01*
X98960D01*
X196360Y1215483D02*
Y1212943D01*
X201440D01*
Y1215483D01*
X203980D01*
Y1220563D01*
X201440D01*
Y1223103D01*
X196360D01*
Y1220563D01*
X193820D01*
Y1215483D01*
X196360D01*
X165460Y1128983D02*
Y1126443D01*
X170540D01*
Y1128983D01*
X173080D01*
Y1134063D01*
X170540D01*
Y1136603D01*
X165460D01*
Y1134063D01*
X162920D01*
Y1128983D01*
X165460D01*
X183210Y1133733D02*
Y1131193D01*
X188290D01*
Y1133733D01*
X190830D01*
Y1138813D01*
X188290D01*
Y1141353D01*
X183210D01*
Y1138813D01*
X180670D01*
Y1133733D01*
X183210D01*
X77960Y1140983D02*
Y1138443D01*
X83040D01*
Y1140983D01*
X85580D01*
Y1146063D01*
X83040D01*
Y1148603D01*
X77960D01*
Y1146063D01*
X75420D01*
Y1140983D01*
X77960D01*
X74460Y1154983D02*
Y1152443D01*
X79540D01*
Y1154983D01*
X82080D01*
Y1160063D01*
X79540D01*
Y1162603D01*
X74460D01*
Y1160063D01*
X71920D01*
Y1154983D01*
X74460D01*
X196360Y1202483D02*
Y1199943D01*
X201440D01*
Y1202483D01*
X203980D01*
Y1207563D01*
X201440D01*
Y1210103D01*
X196360D01*
Y1207563D01*
X193820D01*
Y1202483D01*
X196360D01*
Y1190483D02*
Y1187943D01*
X201440D01*
Y1190483D01*
X203980D01*
Y1195563D01*
X201440D01*
Y1198103D01*
X196360D01*
Y1195563D01*
X193820D01*
Y1190483D01*
X196360D01*
X147960Y1128983D02*
Y1126443D01*
X153040D01*
Y1128983D01*
X155580D01*
Y1134063D01*
X153040D01*
Y1136603D01*
X147960D01*
Y1134063D01*
X145420D01*
Y1128983D01*
X147960D01*
X74460Y350533D02*
Y347993D01*
X79540D01*
Y350533D01*
X82080D01*
Y355613D01*
X79540D01*
Y358153D01*
X74460D01*
Y355613D01*
X71920D01*
Y350533D01*
X74460D01*
X193710Y339783D02*
Y337243D01*
X198790D01*
Y339783D01*
X201330D01*
Y344863D01*
X198790D01*
Y347403D01*
X193710D01*
Y344863D01*
X191170D01*
Y339783D01*
X193710D01*
X196360Y411033D02*
Y408493D01*
X201440D01*
Y411033D01*
X203980D01*
Y416113D01*
X201440D01*
Y418653D01*
X196360D01*
Y416113D01*
X193820D01*
Y411033D01*
X196360D01*
Y372533D02*
Y369993D01*
X201440D01*
Y372533D01*
X203980D01*
Y377613D01*
X201440D01*
Y380153D01*
X196360D01*
Y377613D01*
X193820D01*
Y372533D01*
X196360D01*
X77960Y336533D02*
Y333993D01*
X83040D01*
Y336533D01*
X85580D01*
Y341613D01*
X83040D01*
Y344153D01*
X77960D01*
Y341613D01*
X75420D01*
Y336533D01*
X77960D01*
X165460Y324533D02*
Y321993D01*
X170540D01*
Y324533D01*
X173080D01*
Y329613D01*
X170540D01*
Y332153D01*
X165460D01*
Y329613D01*
X162920D01*
Y324533D01*
X165460D01*
X196360Y386033D02*
Y383493D01*
X201440D01*
Y386033D01*
X203980D01*
Y391113D01*
X201440D01*
Y393653D01*
X196360D01*
Y391113D01*
X193820D01*
Y386033D01*
X196360D01*
Y398033D02*
Y395493D01*
X201440D01*
Y398033D01*
X203980D01*
Y403113D01*
X201440D01*
Y405653D01*
X196360D01*
Y403113D01*
X193820D01*
Y398033D01*
X196360D01*
X183210Y329283D02*
Y326743D01*
X188290D01*
Y329283D01*
X190830D01*
Y334363D01*
X188290D01*
Y336903D01*
X183210D01*
Y334363D01*
X180670D01*
Y329283D01*
X183210D01*
X120960Y324533D02*
Y321993D01*
X126040D01*
Y324533D01*
X128580D01*
Y329613D01*
X126040D01*
Y332153D01*
X120960D01*
Y329613D01*
X118420D01*
Y324533D01*
X120960D01*
X147960D02*
Y321993D01*
X153040D01*
Y324533D01*
X155580D01*
Y329613D01*
X153040D01*
Y332153D01*
X147960D01*
Y329613D01*
X145420D01*
Y324533D01*
X147960D01*
X98960D02*
Y321993D01*
X104040D01*
Y324533D01*
X106580D01*
Y329613D01*
X104040D01*
Y332153D01*
X98960D01*
Y329613D01*
X96420D01*
Y324533D01*
X98960D01*
X145960Y410533D02*
Y407993D01*
X151040D01*
Y410533D01*
X153580D01*
Y415613D01*
X151040D01*
Y418153D01*
X145960D01*
Y415613D01*
X143420D01*
Y410533D01*
X145960D01*
Y385033D02*
Y382493D01*
X151040D01*
Y385033D01*
X153580D01*
Y390113D01*
X151040D01*
Y392653D01*
X145960D01*
Y390113D01*
X143420D01*
Y385033D01*
X145960D01*
X91960Y418310D02*
Y415770D01*
X97040D01*
Y418310D01*
X99580D01*
Y423390D01*
X97040D01*
Y425930D01*
X91960D01*
Y423390D01*
X89420D01*
Y418310D01*
X91960D01*
X125960D02*
Y415770D01*
X131040D01*
Y418310D01*
X133580D01*
Y423390D01*
X131040D01*
Y425930D01*
X125960D01*
Y423390D01*
X123420D01*
Y418310D01*
X125960D01*
X109460D02*
Y415770D01*
X114540D01*
Y418310D01*
X117080D01*
Y423390D01*
X114540D01*
Y425930D01*
X109460D01*
Y423390D01*
X106920D01*
Y418310D01*
X109460D01*
X145960Y396033D02*
Y393493D01*
X151040D01*
Y396033D01*
X153580D01*
Y401113D01*
X151040D01*
Y403653D01*
X145960D01*
Y401113D01*
X143420D01*
Y396033D01*
X145960D01*
Y370533D02*
Y367993D01*
X151040D01*
Y370533D01*
X153580D01*
Y375613D01*
X151040D01*
Y378153D01*
X145960D01*
Y375613D01*
X143420D01*
Y370533D01*
X145960D01*
Y772577D02*
Y770037D01*
X151040D01*
Y772577D01*
X153580D01*
Y777657D01*
X151040D01*
Y780197D01*
X145960D01*
Y777657D01*
X143420D01*
Y772577D01*
X145960D01*
X109460Y820354D02*
Y817814D01*
X114540D01*
Y820354D01*
X117080D01*
Y825434D01*
X114540D01*
Y827974D01*
X109460D01*
Y825434D01*
X106920D01*
Y820354D01*
X109460D01*
X91960D02*
Y817814D01*
X97040D01*
Y820354D01*
X99580D01*
Y825434D01*
X97040D01*
Y827974D01*
X91960D01*
Y825434D01*
X89420D01*
Y820354D01*
X91960D01*
X145960Y787077D02*
Y784537D01*
X151040D01*
Y787077D01*
X153580D01*
Y792157D01*
X151040D01*
Y794697D01*
X145960D01*
Y792157D01*
X143420D01*
Y787077D01*
X145960D01*
Y812577D02*
Y810037D01*
X151040D01*
Y812577D01*
X153580D01*
Y817657D01*
X151040D01*
Y820197D01*
X145960D01*
Y817657D01*
X143420D01*
Y812577D01*
X145960D01*
Y798077D02*
Y795537D01*
X151040D01*
Y798077D01*
X153580D01*
Y803157D01*
X151040D01*
Y805697D01*
X145960D01*
Y803157D01*
X143420D01*
Y798077D01*
X145960D01*
X125960Y820354D02*
Y817814D01*
X131040D01*
Y820354D01*
X133580D01*
Y825434D01*
X131040D01*
Y827974D01*
X125960D01*
Y825434D01*
X123420D01*
Y820354D01*
X125960D01*
X196360Y800077D02*
Y797537D01*
X201440D01*
Y800077D01*
X203980D01*
Y805157D01*
X201440D01*
Y807697D01*
X196360D01*
Y805157D01*
X193820D01*
Y800077D01*
X196360D01*
Y788077D02*
Y785537D01*
X201440D01*
Y788077D01*
X203980D01*
Y793157D01*
X201440D01*
Y795697D01*
X196360D01*
Y793157D01*
X193820D01*
Y788077D01*
X196360D01*
X98960Y726577D02*
Y724037D01*
X104040D01*
Y726577D01*
X106580D01*
Y731657D01*
X104040D01*
Y734197D01*
X98960D01*
Y731657D01*
X96420D01*
Y726577D01*
X98960D01*
X183210Y731327D02*
Y728787D01*
X188290D01*
Y731327D01*
X190830D01*
Y736407D01*
X188290D01*
Y738947D01*
X183210D01*
Y736407D01*
X180670D01*
Y731327D01*
X183210D01*
X165460Y726577D02*
Y724037D01*
X170540D01*
Y726577D01*
X173080D01*
Y731657D01*
X170540D01*
Y734197D01*
X165460D01*
Y731657D01*
X162920D01*
Y726577D01*
X165460D01*
X196360Y813077D02*
Y810537D01*
X201440D01*
Y813077D01*
X203980D01*
Y818157D01*
X201440D01*
Y820697D01*
X196360D01*
Y818157D01*
X193820D01*
Y813077D01*
X196360D01*
Y774577D02*
Y772037D01*
X201440D01*
Y774577D01*
X203980D01*
Y779657D01*
X201440D01*
Y782197D01*
X196360D01*
Y779657D01*
X193820D01*
Y774577D01*
X196360D01*
X147960Y726577D02*
Y724037D01*
X153040D01*
Y726577D01*
X155580D01*
Y731657D01*
X153040D01*
Y734197D01*
X147960D01*
Y731657D01*
X145420D01*
Y726577D01*
X147960D01*
X74460Y752577D02*
Y750037D01*
X79540D01*
Y752577D01*
X82080D01*
Y757657D01*
X79540D01*
Y760197D01*
X74460D01*
Y757657D01*
X71920D01*
Y752577D01*
X74460D01*
X193710Y741827D02*
Y739287D01*
X198790D01*
Y741827D01*
X201330D01*
Y746907D01*
X198790D01*
Y749447D01*
X193710D01*
Y746907D01*
X191170D01*
Y741827D01*
X193710D01*
X77960Y738577D02*
Y736037D01*
X83040D01*
Y738577D01*
X85580D01*
Y743657D01*
X83040D01*
Y746197D01*
X77960D01*
Y743657D01*
X75420D01*
Y738577D01*
X77960D01*
X120960Y726577D02*
Y724037D01*
X126040D01*
Y726577D01*
X128580D01*
Y731657D01*
X126040D01*
Y734197D01*
X120960D01*
Y731657D01*
X118420D01*
Y726577D01*
X120960D01*
X707210Y714066D02*
Y711526D01*
X712290D01*
Y714066D01*
X714830D01*
Y719146D01*
X712290D01*
Y721686D01*
X707210D01*
Y719146D01*
X704670D01*
Y714066D01*
X707210D01*
X801960Y729316D02*
Y726776D01*
X807040D01*
Y729316D01*
X809580D01*
Y734396D01*
X807040D01*
Y736936D01*
X801960D01*
Y734396D01*
X799420D01*
Y729316D01*
X801960D01*
X752960D02*
Y726776D01*
X758040D01*
Y729316D01*
X760580D01*
Y734396D01*
X758040D01*
Y736936D01*
X752960D01*
Y734396D01*
X750420D01*
Y729316D01*
X752960D01*
X779960D02*
Y726776D01*
X785040D01*
Y729316D01*
X787580D01*
Y734396D01*
X785040D01*
Y736936D01*
X779960D01*
Y734396D01*
X777420D01*
Y729316D01*
X779960D01*
X704560Y667816D02*
Y665276D01*
X709640D01*
Y667816D01*
X712180D01*
Y672896D01*
X709640D01*
Y675436D01*
X704560D01*
Y672896D01*
X702020D01*
Y667816D01*
X704560D01*
Y642816D02*
Y640276D01*
X709640D01*
Y642816D01*
X712180D01*
Y647896D01*
X709640D01*
Y650436D01*
X704560D01*
Y647896D01*
X702020D01*
Y642816D01*
X704560D01*
X826460Y703316D02*
Y700776D01*
X831540D01*
Y703316D01*
X834080D01*
Y708396D01*
X831540D01*
Y710936D01*
X826460D01*
Y708396D01*
X823920D01*
Y703316D01*
X826460D01*
X735460Y729316D02*
Y726776D01*
X740540D01*
Y729316D01*
X743080D01*
Y734396D01*
X740540D01*
Y736936D01*
X735460D01*
Y734396D01*
X732920D01*
Y729316D01*
X735460D01*
X704560Y681316D02*
Y678776D01*
X709640D01*
Y681316D01*
X712180D01*
Y686396D01*
X709640D01*
Y688936D01*
X704560D01*
Y686396D01*
X702020D01*
Y681316D01*
X704560D01*
X717710Y724566D02*
Y722026D01*
X722790D01*
Y724566D01*
X725330D01*
Y729646D01*
X722790D01*
Y732186D01*
X717710D01*
Y729646D01*
X715170D01*
Y724566D01*
X717710D01*
X822960Y717316D02*
Y714776D01*
X828040D01*
Y717316D01*
X830580D01*
Y722396D01*
X828040D01*
Y724936D01*
X822960D01*
Y722396D01*
X820420D01*
Y717316D01*
X822960D01*
X704560Y655816D02*
Y653276D01*
X709640D01*
Y655816D01*
X712180D01*
Y660896D01*
X709640D01*
Y663436D01*
X704560D01*
Y660896D01*
X702020D01*
Y655816D01*
X704560D01*
X791460Y635539D02*
Y632999D01*
X796540D01*
Y635539D01*
X799080D01*
Y640619D01*
X796540D01*
Y643159D01*
X791460D01*
Y640619D01*
X788920D01*
Y635539D01*
X791460D01*
X808960D02*
Y632999D01*
X814040D01*
Y635539D01*
X816580D01*
Y640619D01*
X814040D01*
Y643159D01*
X808960D01*
Y640619D01*
X806420D01*
Y635539D01*
X808960D01*
X754960Y683316D02*
Y680776D01*
X760040D01*
Y683316D01*
X762580D01*
Y688396D01*
X760040D01*
Y690936D01*
X754960D01*
Y688396D01*
X752420D01*
Y683316D01*
X754960D01*
Y657816D02*
Y655276D01*
X760040D01*
Y657816D01*
X762580D01*
Y662896D01*
X760040D01*
Y665436D01*
X754960D01*
Y662896D01*
X752420D01*
Y657816D01*
X754960D01*
Y668816D02*
Y666276D01*
X760040D01*
Y668816D01*
X762580D01*
Y673896D01*
X760040D01*
Y676436D01*
X754960D01*
Y673896D01*
X752420D01*
Y668816D01*
X754960D01*
Y643316D02*
Y640776D01*
X760040D01*
Y643316D01*
X762580D01*
Y648396D01*
X760040D01*
Y650936D01*
X754960D01*
Y648396D01*
X752420D01*
Y643316D01*
X754960D01*
X774960Y635539D02*
Y632999D01*
X780040D01*
Y635539D01*
X782580D01*
Y640619D01*
X780040D01*
Y643159D01*
X774960D01*
Y640619D01*
X772420D01*
Y635539D01*
X774960D01*
X482611Y1344761D02*
X485150Y1349841D01*
X482611Y1354921D01*
X487691Y1352381D01*
X492771Y1354921D01*
X490230Y1349841D01*
X492771Y1344761D01*
X487691Y1347301D01*
X482611Y1344761D01*
X428420Y448320D02*
X430960Y453400D01*
X428420Y458480D01*
X433500Y455940D01*
X438580Y458480D01*
X436040Y453400D01*
X438580Y448320D01*
X433500Y450860D01*
X428420Y448320D01*
X754960Y791831D02*
Y789291D01*
X760040D01*
Y791831D01*
X762580D01*
Y796911D01*
X760040D01*
Y799451D01*
X754960D01*
Y796911D01*
X752420D01*
Y791831D01*
X754960D01*
Y817331D02*
Y814791D01*
X760040D01*
Y817331D01*
X762580D01*
Y822411D01*
X760040D01*
Y824951D01*
X754960D01*
Y822411D01*
X752420D01*
Y817331D01*
X754960D01*
Y802831D02*
Y800291D01*
X760040D01*
Y802831D01*
X762580D01*
Y807911D01*
X760040D01*
Y810451D01*
X754960D01*
Y807911D01*
X752420D01*
Y802831D01*
X754960D01*
X791460Y769554D02*
Y767014D01*
X796540D01*
Y769554D01*
X799080D01*
Y774634D01*
X796540D01*
Y777174D01*
X791460D01*
Y774634D01*
X788920D01*
Y769554D01*
X791460D01*
X754960Y777331D02*
Y774791D01*
X760040D01*
Y777331D01*
X762580D01*
Y782411D01*
X760040D01*
Y784951D01*
X754960D01*
Y782411D01*
X752420D01*
Y777331D01*
X754960D01*
X774960Y769554D02*
Y767014D01*
X780040D01*
Y769554D01*
X782580D01*
Y774634D01*
X780040D01*
Y777174D01*
X774960D01*
Y774634D01*
X772420D01*
Y769554D01*
X774960D01*
X808960D02*
Y767014D01*
X814040D01*
Y769554D01*
X816580D01*
Y774634D01*
X814040D01*
Y777174D01*
X808960D01*
Y774634D01*
X806420D01*
Y769554D01*
X808960D01*
X717710Y858581D02*
Y856041D01*
X722790D01*
Y858581D01*
X725330D01*
Y863661D01*
X722790D01*
Y866201D01*
X717710D01*
Y863661D01*
X715170D01*
Y858581D01*
X717710D01*
X735460Y863331D02*
Y860791D01*
X740540D01*
Y863331D01*
X743080D01*
Y868411D01*
X740540D01*
Y870951D01*
X735460D01*
Y868411D01*
X732920D01*
Y863331D01*
X735460D01*
X707210Y848081D02*
Y845541D01*
X712290D01*
Y848081D01*
X714830D01*
Y853161D01*
X712290D01*
Y855701D01*
X707210D01*
Y853161D01*
X704670D01*
Y848081D01*
X707210D01*
X704560Y776831D02*
Y774291D01*
X709640D01*
Y776831D01*
X712180D01*
Y781911D01*
X709640D01*
Y784451D01*
X704560D01*
Y781911D01*
X702020D01*
Y776831D01*
X704560D01*
X779960Y863331D02*
Y860791D01*
X785040D01*
Y863331D01*
X787580D01*
Y868411D01*
X785040D01*
Y870951D01*
X779960D01*
Y868411D01*
X777420D01*
Y863331D01*
X779960D01*
X704560Y815331D02*
Y812791D01*
X709640D01*
Y815331D01*
X712180D01*
Y820411D01*
X709640D01*
Y822951D01*
X704560D01*
Y820411D01*
X702020D01*
Y815331D01*
X704560D01*
X801960Y863331D02*
Y860791D01*
X807040D01*
Y863331D01*
X809580D01*
Y868411D01*
X807040D01*
Y870951D01*
X801960D01*
Y868411D01*
X799420D01*
Y863331D01*
X801960D01*
X822960Y851331D02*
Y848791D01*
X828040D01*
Y851331D01*
X830580D01*
Y856411D01*
X828040D01*
Y858951D01*
X822960D01*
Y856411D01*
X820420D01*
Y851331D01*
X822960D01*
X704560Y789831D02*
Y787291D01*
X709640D01*
Y789831D01*
X712180D01*
Y794911D01*
X709640D01*
Y797451D01*
X704560D01*
Y794911D01*
X702020D01*
Y789831D01*
X704560D01*
X826460Y837331D02*
Y834791D01*
X831540D01*
Y837331D01*
X834080D01*
Y842411D01*
X831540D01*
Y844951D01*
X826460D01*
Y842411D01*
X823920D01*
Y837331D01*
X826460D01*
X704560Y801831D02*
Y799291D01*
X709640D01*
Y801831D01*
X712180D01*
Y806911D01*
X709640D01*
Y809451D01*
X704560D01*
Y806911D01*
X702020D01*
Y801831D01*
X704560D01*
X752960Y863331D02*
Y860791D01*
X758040D01*
Y863331D01*
X760580D01*
Y868411D01*
X758040D01*
Y870951D01*
X752960D01*
Y868411D01*
X750420D01*
Y863331D01*
X752960D01*
X598270Y1415570D02*
X600810D01*
X603350Y1418110D01*
X605890Y1415570D01*
X608430D01*
Y1418110D01*
X605890Y1420650D01*
X608430Y1423190D01*
Y1425730D01*
X605890D01*
X603350Y1423190D01*
X600810Y1425730D01*
X598270D01*
Y1423190D01*
X600810Y1420650D01*
X598270Y1418110D01*
Y1415570D01*
X632270Y1414570D02*
X634810D01*
X637350Y1417110D01*
X639890Y1414570D01*
X642430D01*
Y1417110D01*
X639890Y1419650D01*
X642430Y1422190D01*
Y1424730D01*
X639890D01*
X637350Y1422190D01*
X634810Y1424730D01*
X632270D01*
Y1422190D01*
X634810Y1419650D01*
X632270Y1417110D01*
Y1414570D01*
X563960Y392860D02*
Y390320D01*
X569040D01*
Y392860D01*
X571580D01*
Y397940D01*
X569040D01*
Y400480D01*
X563960D01*
Y397940D01*
X561420D01*
Y392860D01*
X563960D01*
Y1197360D02*
Y1194820D01*
X569040D01*
Y1197360D01*
X571580D01*
Y1202440D01*
X569040D01*
Y1204980D01*
X563960D01*
Y1202440D01*
X561420D01*
Y1197360D01*
X563960D01*
X327960Y1197410D02*
Y1194870D01*
X333040D01*
Y1197410D01*
X335580D01*
Y1202490D01*
X333040D01*
Y1205030D01*
X327960D01*
Y1202490D01*
X325420D01*
Y1197410D01*
X327960D01*
X563960Y526875D02*
Y524335D01*
X569040D01*
Y526875D01*
X571580D01*
Y531955D01*
X569040D01*
Y534495D01*
X563960D01*
Y531955D01*
X561420D01*
Y526875D01*
X563960D01*
X611270Y1452570D02*
X613810D01*
X616350Y1455110D01*
X618890Y1452570D01*
X621430D01*
Y1455110D01*
X618890Y1457650D01*
X621430Y1460190D01*
Y1462730D01*
X618890D01*
X616350Y1460190D01*
X613810Y1462730D01*
X611270D01*
Y1460190D01*
X613810Y1457650D01*
X611270Y1455110D01*
Y1452570D01*
X410310Y1460360D02*
Y1457820D01*
X415390D01*
Y1460360D01*
X417930D01*
Y1465440D01*
X415390D01*
Y1467980D01*
X410310D01*
Y1465440D01*
X407770D01*
Y1460360D01*
X410310D01*
X563960Y794904D02*
Y792364D01*
X569040D01*
Y794904D01*
X571580D01*
Y799984D01*
X569040D01*
Y802524D01*
X563960D01*
Y799984D01*
X561420D01*
Y794904D01*
X563960D01*
X327960Y1063033D02*
Y1060493D01*
X333040D01*
Y1063033D01*
X335580D01*
Y1068113D01*
X333040D01*
Y1070653D01*
X327960D01*
Y1068113D01*
X325420D01*
Y1063033D01*
X327960D01*
X366310Y1476110D02*
Y1473570D01*
X371390D01*
Y1476110D01*
X373930D01*
Y1481190D01*
X371390D01*
Y1483730D01*
X366310D01*
Y1481190D01*
X363770D01*
Y1476110D01*
X366310D01*
X386810Y1505110D02*
Y1502570D01*
X391890D01*
Y1505110D01*
X394430D01*
Y1510190D01*
X391890D01*
Y1512730D01*
X386810D01*
Y1510190D01*
X384270D01*
Y1505110D01*
X386810D01*
X563960Y1062933D02*
Y1060393D01*
X569040D01*
Y1062933D01*
X571580D01*
Y1068013D01*
X569040D01*
Y1070553D01*
X563960D01*
Y1068013D01*
X561420D01*
Y1062933D01*
X563960D01*
X327960Y526975D02*
Y524435D01*
X333040D01*
Y526975D01*
X335580D01*
Y532055D01*
X333040D01*
Y534595D01*
X327960D01*
Y532055D01*
X325420D01*
Y526975D01*
X327960D01*
Y409860D02*
Y407320D01*
X333040D01*
Y409860D01*
X335580D01*
Y414940D01*
X333040D01*
Y417480D01*
X327960D01*
Y414940D01*
X325420D01*
Y409860D01*
X327960D01*
Y929019D02*
Y926479D01*
X333040D01*
Y929019D01*
X335580D01*
Y934099D01*
X333040D01*
Y936639D01*
X327960D01*
Y934099D01*
X325420D01*
Y929019D01*
X327960D01*
X563960Y660889D02*
Y658349D01*
X569040D01*
Y660889D01*
X571580D01*
Y665969D01*
X569040D01*
Y668509D01*
X563960D01*
Y665969D01*
X561420D01*
Y660889D01*
X563960D01*
X633270Y1452570D02*
X635810D01*
X638350Y1455110D01*
X640890Y1452570D01*
X643430D01*
Y1455110D01*
X640890Y1457650D01*
X643430Y1460190D01*
Y1462730D01*
X640890D01*
X638350Y1460190D01*
X635810Y1462730D01*
X633270D01*
Y1460190D01*
X635810Y1457650D01*
X633270Y1455110D01*
Y1452570D01*
X327960Y660989D02*
Y658449D01*
X333040D01*
Y660989D01*
X335580D01*
Y666069D01*
X333040D01*
Y668609D01*
X327960D01*
Y666069D01*
X325420D01*
Y660989D01*
X327960D01*
X330960Y1505360D02*
Y1502820D01*
X336040D01*
Y1505360D01*
X338580D01*
Y1510440D01*
X336040D01*
Y1512980D01*
X330960D01*
Y1510440D01*
X328420D01*
Y1505360D01*
X330960D01*
X563960Y944860D02*
Y942320D01*
X569040D01*
Y944860D01*
X571580D01*
Y949940D01*
X569040D01*
Y952480D01*
X563960D01*
Y949940D01*
X561420D01*
Y944860D01*
X563960D01*
X615270Y1415570D02*
X617810D01*
X620350Y1418110D01*
X622890Y1415570D01*
X625430D01*
Y1418110D01*
X622890Y1420650D01*
X625430Y1423190D01*
Y1425730D01*
X622890D01*
X620350Y1423190D01*
X617810Y1425730D01*
X615270D01*
Y1423190D01*
X617810Y1420650D01*
X615270Y1418110D01*
Y1415570D01*
X327960Y795004D02*
Y792464D01*
X333040D01*
Y795004D01*
X335580D01*
Y800084D01*
X333040D01*
Y802624D01*
X327960D01*
Y800084D01*
X325420D01*
Y795004D01*
X327960D01*
X754960Y1219737D02*
Y1217197D01*
X760040D01*
Y1219737D01*
X762580D01*
Y1224817D01*
X760040D01*
Y1227357D01*
X754960D01*
Y1224817D01*
X752420D01*
Y1219737D01*
X754960D01*
Y1205237D02*
Y1202697D01*
X760040D01*
Y1205237D01*
X762580D01*
Y1210317D01*
X760040D01*
Y1212857D01*
X754960D01*
Y1210317D01*
X752420D01*
Y1205237D01*
X754960D01*
X791460Y1171960D02*
Y1169420D01*
X796540D01*
Y1171960D01*
X799080D01*
Y1177040D01*
X796540D01*
Y1179580D01*
X791460D01*
Y1177040D01*
X788920D01*
Y1171960D01*
X791460D01*
X774960D02*
Y1169420D01*
X780040D01*
Y1171960D01*
X782580D01*
Y1177040D01*
X780040D01*
Y1179580D01*
X774960D01*
Y1177040D01*
X772420D01*
Y1171960D01*
X774960D01*
X754960Y1194237D02*
Y1191697D01*
X760040D01*
Y1194237D01*
X762580D01*
Y1199317D01*
X760040D01*
Y1201857D01*
X754960D01*
Y1199317D01*
X752420D01*
Y1194237D01*
X754960D01*
X808960Y1171960D02*
Y1169420D01*
X814040D01*
Y1171960D01*
X816580D01*
Y1177040D01*
X814040D01*
Y1179580D01*
X808960D01*
Y1177040D01*
X806420D01*
Y1171960D01*
X808960D01*
X754960Y1179737D02*
Y1177197D01*
X760040D01*
Y1179737D01*
X762580D01*
Y1184817D01*
X760040D01*
Y1187357D01*
X754960D01*
Y1184817D01*
X752420D01*
Y1179737D01*
X754960D01*
X826460Y1239737D02*
Y1237197D01*
X831540D01*
Y1239737D01*
X834080D01*
Y1244817D01*
X831540D01*
Y1247357D01*
X826460D01*
Y1244817D01*
X823920D01*
Y1239737D01*
X826460D01*
X707210Y1250487D02*
Y1247947D01*
X712290D01*
Y1250487D01*
X714830D01*
Y1255567D01*
X712290D01*
Y1258107D01*
X707210D01*
Y1255567D01*
X704670D01*
Y1250487D01*
X707210D01*
X704560Y1217737D02*
Y1215197D01*
X709640D01*
Y1217737D01*
X712180D01*
Y1222817D01*
X709640D01*
Y1225357D01*
X704560D01*
Y1222817D01*
X702020D01*
Y1217737D01*
X704560D01*
X717710Y1260987D02*
Y1258447D01*
X722790D01*
Y1260987D01*
X725330D01*
Y1266067D01*
X722790D01*
Y1268607D01*
X717710D01*
Y1266067D01*
X715170D01*
Y1260987D01*
X717710D01*
X822960Y1253737D02*
Y1251197D01*
X828040D01*
Y1253737D01*
X830580D01*
Y1258817D01*
X828040D01*
Y1261357D01*
X822960D01*
Y1258817D01*
X820420D01*
Y1253737D01*
X822960D01*
X704560Y1204237D02*
Y1201697D01*
X709640D01*
Y1204237D01*
X712180D01*
Y1209317D01*
X709640D01*
Y1211857D01*
X704560D01*
Y1209317D01*
X702020D01*
Y1204237D01*
X704560D01*
X752960Y1265737D02*
Y1263197D01*
X758040D01*
Y1265737D01*
X760580D01*
Y1270817D01*
X758040D01*
Y1273357D01*
X752960D01*
Y1270817D01*
X750420D01*
Y1265737D01*
X752960D01*
X704560Y1192237D02*
Y1189697D01*
X709640D01*
Y1192237D01*
X712180D01*
Y1197317D01*
X709640D01*
Y1199857D01*
X704560D01*
Y1197317D01*
X702020D01*
Y1192237D01*
X704560D01*
X801960Y1265737D02*
Y1263197D01*
X807040D01*
Y1265737D01*
X809580D01*
Y1270817D01*
X807040D01*
Y1273357D01*
X801960D01*
Y1270817D01*
X799420D01*
Y1265737D01*
X801960D01*
X735460D02*
Y1263197D01*
X740540D01*
Y1265737D01*
X743080D01*
Y1270817D01*
X740540D01*
Y1273357D01*
X735460D01*
Y1270817D01*
X732920D01*
Y1265737D01*
X735460D01*
X704560Y1179237D02*
Y1176697D01*
X709640D01*
Y1179237D01*
X712180D01*
Y1184317D01*
X709640D01*
Y1186857D01*
X704560D01*
Y1184317D01*
X702020D01*
Y1179237D01*
X704560D01*
X779960Y1265737D02*
Y1263197D01*
X785040D01*
Y1265737D01*
X787580D01*
Y1270817D01*
X785040D01*
Y1273357D01*
X779960D01*
Y1270817D01*
X777420D01*
Y1265737D01*
X779960D01*
X475920Y1346820D02*
X478460Y1351900D01*
X475920Y1356980D01*
X481000Y1354440D01*
X486080Y1356980D01*
X483540Y1351900D01*
X486080Y1346820D01*
X481000Y1349360D01*
X475920Y1346820D01*
X466420Y497820D02*
X468960Y502900D01*
X466420Y507980D01*
X471500Y505440D01*
X476580Y507980D01*
X474040Y502900D01*
X476580Y497820D01*
X471500Y500360D01*
X466420Y497820D01*
D39*
X420180Y1487400D02*
G03*
X420180Y1487400I-5080J0D01*
G01*
X496180Y93900D02*
G03*
X496180Y93900I-5080J0D01*
G01*
X470780D02*
G03*
X470780Y93900I-5080J0D01*
G01*
X445380D02*
G03*
X445380Y93900I-5080J0D01*
G01*
X419980D02*
G03*
X419980Y93900I-5080J0D01*
G01*
X496380Y1487400D02*
G03*
X496380Y1487400I-5080J0D01*
G01*
X470980D02*
G03*
X470980Y1487400I-5080J0D01*
G01*
X445580D02*
G03*
X445580Y1487400I-5080J0D01*
G01*
M02*
