G04*
G04 #@! TF.GenerationSoftware,Altium Limited,Altium Designer,26.5.1 (12)*
G04*
G04 Layer_Physical_Order=1*
G04 Layer_Color=255*
G04 Board_Origin=0|0*
%FSLAX44Y44*%
%MOMM*%
G71*
G04*
G04 #@! TF.SameCoordinates,F9DE173E-AD32-4170-81DE-BFE943D2D91D*
G04*
G04*
G04 #@! TF.FilePolarity,Positive*
G04*
G01*
G75*
%ADD10C,0.2540*%
G04:AMPARAMS|DCode=11|XSize=0.8mm|YSize=0.95mm|CornerRadius=0.1mm|HoleSize=0mm|Usage=FLASHONLY|Rotation=90.000|XOffset=0mm|YOffset=0mm|HoleType=Round|Shape=RoundedRectangle|*
%AMROUNDEDRECTD11*
21,1,0.8000,0.7500,0,0,90.0*
21,1,0.6000,0.9500,0,0,90.0*
1,1,0.2000,0.3750,0.3000*
1,1,0.2000,0.3750,-0.3000*
1,1,0.2000,-0.3750,-0.3000*
1,1,0.2000,-0.3750,0.3000*
%
%ADD11ROUNDEDRECTD11*%
G04:AMPARAMS|DCode=12|XSize=0.9mm|YSize=0.95mm|CornerRadius=0.1125mm|HoleSize=0mm|Usage=FLASHONLY|Rotation=180.000|XOffset=0mm|YOffset=0mm|HoleType=Round|Shape=RoundedRectangle|*
%AMROUNDEDRECTD12*
21,1,0.9000,0.7250,0,0,180.0*
21,1,0.6750,0.9500,0,0,180.0*
1,1,0.2250,-0.3375,0.3625*
1,1,0.2250,0.3375,0.3625*
1,1,0.2250,0.3375,-0.3625*
1,1,0.2250,-0.3375,-0.3625*
%
%ADD12ROUNDEDRECTD12*%
G04:AMPARAMS|DCode=13|XSize=2.4mm|YSize=2.4mm|CornerRadius=0.12mm|HoleSize=0mm|Usage=FLASHONLY|Rotation=270.000|XOffset=0mm|YOffset=0mm|HoleType=Round|Shape=RoundedRectangle|*
%AMROUNDEDRECTD13*
21,1,2.4000,2.1600,0,0,270.0*
21,1,2.1600,2.4000,0,0,270.0*
1,1,0.2400,-1.0800,-1.0800*
1,1,0.2400,-1.0800,1.0800*
1,1,0.2400,1.0800,1.0800*
1,1,0.2400,1.0800,-1.0800*
%
%ADD13ROUNDEDRECTD13*%
%ADD14C,2.4000*%
%ADD15C,2.0000*%
%ADD16R,1.7000X1.7000*%
G04:AMPARAMS|DCode=17|XSize=2.4mm|YSize=2.4mm|CornerRadius=0.12mm|HoleSize=0mm|Usage=FLASHONLY|Rotation=180.000|XOffset=0mm|YOffset=0mm|HoleType=Round|Shape=RoundedRectangle|*
%AMROUNDEDRECTD17*
21,1,2.4000,2.1600,0,0,180.0*
21,1,2.1600,2.4000,0,0,180.0*
1,1,0.2400,-1.0800,1.0800*
1,1,0.2400,1.0800,1.0800*
1,1,0.2400,1.0800,-1.0800*
1,1,0.2400,-1.0800,-1.0800*
%
%ADD17ROUNDEDRECTD17*%
%ADD18C,3.0000*%
G04:AMPARAMS|DCode=19|XSize=2.1mm|YSize=3.6mm|CornerRadius=0.126mm|HoleSize=0mm|Usage=FLASHONLY|Rotation=90.000|XOffset=0mm|YOffset=0mm|HoleType=Round|Shape=RoundedRectangle|*
%AMROUNDEDRECTD19*
21,1,2.1000,3.3480,0,0,90.0*
21,1,1.8480,3.6000,0,0,90.0*
1,1,0.2520,1.6740,0.9240*
1,1,0.2520,1.6740,-0.9240*
1,1,0.2520,-1.6740,-0.9240*
1,1,0.2520,-1.6740,0.9240*
%
%ADD19ROUNDEDRECTD19*%
G04:AMPARAMS|DCode=20|XSize=2.1mm|YSize=3.6mm|CornerRadius=1.05mm|HoleSize=0mm|Usage=FLASHONLY|Rotation=90.000|XOffset=0mm|YOffset=0mm|HoleType=Round|Shape=RoundedRectangle|*
%AMROUNDEDRECTD20*
21,1,2.1000,1.5000,0,0,90.0*
21,1,0.0000,3.6000,0,0,90.0*
1,1,2.1000,0.7500,0.0000*
1,1,2.1000,0.7500,0.0000*
1,1,2.1000,-0.7500,0.0000*
1,1,2.1000,-0.7500,0.0000*
%
%ADD20ROUNDEDRECTD20*%
%ADD21C,1.7000*%
%ADD22C,0.3000*%
%ADD23C,0.8000*%
%ADD24C,1.0000*%
%ADD25C,2.5000*%
%ADD26C,3.0000*%
%ADD27C,0.2000*%
%ADD28C,0.6000*%
%ADD29C,0.5000*%
%ADD30C,0.6000*%
%ADD31C,0.7000*%
G36*
X427450Y1512035D02*
Y1500397D01*
X426140Y1498440D01*
X424950Y1498440D01*
X416370D01*
Y1487400D01*
Y1476360D01*
X424950D01*
X426140Y1476360D01*
X427450Y1474403D01*
Y1431400D01*
X423450Y1427400D01*
X400700D01*
X396700Y1431400D01*
Y1453400D01*
X392700Y1457400D01*
X343848D01*
X343210Y1458393D01*
X342761Y1459900D01*
X343323Y1460741D01*
X343613Y1462200D01*
Y1471730D01*
X329000D01*
Y1473000D01*
X327730D01*
Y1487613D01*
X318200D01*
X316741Y1487323D01*
X315984Y1486817D01*
X314253Y1487380D01*
X313483Y1487924D01*
X313452Y1510741D01*
X315475Y1513066D01*
X427069D01*
X427450Y1512035D01*
D02*
G37*
G36*
X647100Y1458750D02*
Y1419750D01*
X643100Y1415750D01*
X597455D01*
X593469Y1420089D01*
X593456Y1421510D01*
X595215Y1423287D01*
X602920D01*
Y1437900D01*
Y1452513D01*
X593390D01*
X593158Y1452702D01*
X593100Y1458750D01*
X597100Y1462750D01*
X643100D01*
X647100Y1458750D01*
D02*
G37*
G36*
X601500Y1464789D02*
X597100D01*
X596320Y1464634D01*
X595658Y1464192D01*
X591658Y1460192D01*
X591653Y1460184D01*
X591644Y1460178D01*
X591431Y1459852D01*
X591216Y1459530D01*
X591214Y1459521D01*
X591209Y1459512D01*
X591137Y1459131D01*
X591061Y1458750D01*
X591063Y1458740D01*
X591061Y1458730D01*
X591119Y1452682D01*
X591138Y1452588D01*
X591129Y1452492D01*
X591219Y1452201D01*
X591281Y1451903D01*
X591082Y1451007D01*
X590375Y1449949D01*
X590127Y1448700D01*
Y1427100D01*
X590375Y1425851D01*
X591082Y1424793D01*
X591864Y1423214D01*
X591564Y1422273D01*
X591492Y1421891D01*
X591417Y1421501D01*
X591418Y1421496D01*
X591417Y1421491D01*
X591430Y1420070D01*
X591501Y1419731D01*
X591554Y1419389D01*
X591582Y1419344D01*
X591593Y1419291D01*
X591788Y1419005D01*
X591968Y1418710D01*
X592346Y1418297D01*
X580174Y1406126D01*
X578848Y1404141D01*
X578382Y1401800D01*
Y1386974D01*
X575843Y1385921D01*
X575549Y1386215D01*
X573895Y1386900D01*
X572105D01*
X570451Y1386215D01*
X569185Y1384949D01*
X566307Y1384639D01*
X543523Y1407423D01*
X542366Y1408197D01*
X541000Y1408469D01*
X540503D01*
X539832Y1409139D01*
X537995Y1409900D01*
X536006D01*
X534168Y1409139D01*
X532761Y1407732D01*
X532000Y1405894D01*
Y1403905D01*
X532761Y1402068D01*
X534168Y1400661D01*
X536006Y1399900D01*
X537995D01*
X539832Y1400661D01*
X540012Y1400841D01*
X563431Y1377422D01*
Y1348776D01*
X560891Y1347724D01*
X557500Y1351115D01*
Y1351795D01*
X556815Y1353449D01*
X555549Y1354715D01*
X553895Y1355400D01*
X552105D01*
X550451Y1354715D01*
X549185Y1353449D01*
X546895Y1352400D01*
X545105D01*
X543815Y1354449D01*
X542549Y1355715D01*
X540895Y1356400D01*
X539105D01*
X537451Y1355715D01*
X536185Y1354449D01*
X535500Y1352795D01*
X534514Y1352136D01*
X533942Y1352373D01*
X532151D01*
X531677Y1352177D01*
X531500Y1352295D01*
X530815Y1353949D01*
X529549Y1355215D01*
X527895Y1355900D01*
X526105D01*
X524451Y1355215D01*
X523185Y1353949D01*
X523171Y1353914D01*
X521913Y1352488D01*
X519083Y1352392D01*
X517579Y1353810D01*
X517315Y1354449D01*
X516049Y1355715D01*
X514395Y1356400D01*
X512605D01*
X510839Y1358418D01*
Y1401667D01*
X511739Y1402568D01*
X512500Y1404405D01*
Y1406395D01*
X511739Y1408232D01*
X510332Y1409639D01*
X508495Y1410400D01*
X506506D01*
X504668Y1409639D01*
X503261Y1408232D01*
X502500Y1406395D01*
Y1404405D01*
X503261Y1402568D01*
X502464Y1400100D01*
X502165Y1399900D01*
X500375D01*
X498721Y1399215D01*
X497455Y1397949D01*
X496770Y1396295D01*
Y1394505D01*
X497455Y1392851D01*
X497936Y1392370D01*
Y1385630D01*
X498190Y1384354D01*
X498913Y1383273D01*
X499166Y1383019D01*
Y1356482D01*
X498365Y1355870D01*
X496626Y1355135D01*
X495476Y1355611D01*
X493686D01*
X492032Y1354926D01*
X490766Y1353660D01*
X488586Y1354341D01*
X486795D01*
X485143Y1353657D01*
X484815Y1354449D01*
X483549Y1355715D01*
X481895Y1356400D01*
X480105D01*
X478451Y1355715D01*
X477185Y1354449D01*
X475395Y1352900D01*
X473605D01*
X471829Y1354914D01*
X471815Y1354949D01*
X470549Y1356215D01*
X468895Y1356900D01*
X467105D01*
X465564Y1357930D01*
Y1379100D01*
X465815Y1379351D01*
X466500Y1381005D01*
Y1382795D01*
X465815Y1384449D01*
X464549Y1385715D01*
X462895Y1386400D01*
X461105D01*
X459451Y1385715D01*
X458185Y1384449D01*
X457500Y1382795D01*
Y1381005D01*
X458185Y1379351D01*
X458896Y1378640D01*
Y1322148D01*
X456593Y1320040D01*
X455853Y1320094D01*
X455756Y1320126D01*
X454319Y1320721D01*
Y1386627D01*
X455344Y1386831D01*
X456378Y1387522D01*
X457069Y1388556D01*
X457311Y1389775D01*
Y1397025D01*
X457069Y1398244D01*
X456378Y1399278D01*
X456265Y1399353D01*
X455691Y1402148D01*
X455743Y1402479D01*
X456500Y1404306D01*
Y1406494D01*
X455663Y1408515D01*
X454448Y1409730D01*
Y1478550D01*
X454060Y1480501D01*
X452955Y1482155D01*
X450597Y1484513D01*
X451000Y1486018D01*
Y1488782D01*
X450284Y1491453D01*
X448902Y1493847D01*
X446947Y1495802D01*
X444553Y1497184D01*
X441882Y1497900D01*
X439118D01*
X436447Y1497184D01*
X434053Y1495802D01*
X432098Y1493847D01*
X430716Y1491453D01*
X430000Y1488782D01*
Y1486018D01*
X430716Y1483347D01*
X432098Y1480953D01*
X434053Y1478998D01*
X436447Y1477616D01*
X439118Y1476900D01*
X441882D01*
X441906Y1476906D01*
X444252Y1475009D01*
Y1407050D01*
X444640Y1405099D01*
X445745Y1403445D01*
X445935Y1403255D01*
X446219Y1402571D01*
X446201Y1401836D01*
X445499Y1399530D01*
X445122Y1399278D01*
X444431Y1398244D01*
X444189Y1397025D01*
Y1389775D01*
X444431Y1388556D01*
X445122Y1387522D01*
X446156Y1386831D01*
X447182Y1386627D01*
Y1351932D01*
X447168Y1351893D01*
X444641Y1350260D01*
X443970Y1350563D01*
X443645Y1351348D01*
X442379Y1352613D01*
X440725Y1353298D01*
X438935D01*
X437281Y1352613D01*
X435750Y1351534D01*
X434219Y1352613D01*
X432565Y1353298D01*
X430775D01*
X429121Y1352613D01*
X427609Y1351525D01*
X426097Y1352613D01*
X424443Y1353298D01*
X422653D01*
X421673Y1352893D01*
X419315Y1351949D01*
X418049Y1353215D01*
X416395Y1353900D01*
X414605D01*
X412815Y1355449D01*
X411549Y1356715D01*
X409895Y1357400D01*
X408105D01*
X406451Y1356715D01*
X405185Y1355449D01*
X405171Y1355414D01*
X403892Y1353964D01*
X401108D01*
X399829Y1355414D01*
X399815Y1355449D01*
X398549Y1356715D01*
X396895Y1357400D01*
X395105D01*
X394859Y1357298D01*
X392319Y1358901D01*
Y1378627D01*
X393344Y1378831D01*
X394378Y1379522D01*
X395069Y1380556D01*
X395311Y1381775D01*
Y1389025D01*
X395069Y1390244D01*
X394378Y1391278D01*
X393725Y1391714D01*
X393274Y1393559D01*
X393228Y1394581D01*
X399767Y1401120D01*
X401505Y1400400D01*
X403495D01*
X405332Y1401161D01*
X406739Y1402568D01*
X407500Y1404405D01*
Y1406395D01*
X406739Y1408232D01*
X405332Y1409639D01*
X403495Y1410400D01*
X401505D01*
X399668Y1409639D01*
X398997Y1408968D01*
X397634Y1408697D01*
X396477Y1407923D01*
X386227Y1397673D01*
X385453Y1396516D01*
X385181Y1395150D01*
Y1392173D01*
X384156Y1391969D01*
X383122Y1391278D01*
X382431Y1390244D01*
X382189Y1389025D01*
Y1383136D01*
X370022Y1370969D01*
X308500D01*
X307134Y1370697D01*
X305977Y1369923D01*
X303141Y1367088D01*
X300601Y1368028D01*
X300601Y1464605D01*
X302878Y1466882D01*
X314937D01*
Y1462200D01*
X315186Y1460951D01*
X315893Y1459893D01*
X316951Y1459186D01*
X318200Y1458937D01*
X339800D01*
X340858Y1459148D01*
X341255Y1457812D01*
X341389Y1457558D01*
X341494Y1457291D01*
X342132Y1456298D01*
X342284Y1456140D01*
X342406Y1455958D01*
X342558Y1455856D01*
X342685Y1455725D01*
X342886Y1455638D01*
X343068Y1455516D01*
X343247Y1455480D01*
X343414Y1455407D01*
X343633Y1455403D01*
X343848Y1455361D01*
X391855D01*
X394661Y1452555D01*
Y1431400D01*
X394816Y1430620D01*
X395258Y1429958D01*
X395258Y1429958D01*
X399258Y1425958D01*
X399920Y1425516D01*
X400700Y1425361D01*
X423450D01*
X424230Y1425516D01*
X424892Y1425958D01*
X428892Y1429958D01*
X428892Y1429958D01*
X429334Y1430620D01*
X429489Y1431400D01*
Y1474403D01*
X429450Y1474600D01*
X429450Y1474802D01*
X429373Y1474987D01*
X429334Y1475183D01*
X429222Y1475351D01*
X429145Y1475537D01*
X427835Y1477494D01*
X427693Y1477635D01*
X427582Y1477802D01*
X427414Y1477914D01*
X427272Y1478056D01*
X427087Y1478133D01*
X426920Y1478244D01*
X426723Y1478283D01*
X426536Y1478360D01*
X425600Y1480595D01*
Y1494205D01*
X426536Y1496440D01*
X426723Y1496517D01*
X426920Y1496556D01*
X427087Y1496667D01*
X427272Y1496744D01*
X427414Y1496886D01*
X427582Y1496998D01*
X427693Y1497164D01*
X427835Y1497306D01*
X429145Y1499263D01*
X429222Y1499449D01*
X429334Y1499617D01*
X429373Y1499813D01*
X429450Y1499998D01*
X429450Y1500200D01*
X429489Y1500397D01*
Y1512035D01*
X431637Y1512998D01*
X431883Y1513066D01*
X601500D01*
Y1464789D01*
D02*
G37*
G36*
X496320Y1227798D02*
X499056Y1226218D01*
X502108Y1225400D01*
X505268D01*
X508320Y1226218D01*
X511056Y1227798D01*
X511346Y1228087D01*
X513886Y1227035D01*
Y1210265D01*
X511346Y1209213D01*
X511056Y1209502D01*
X508320Y1211082D01*
X505268Y1211900D01*
X502108D01*
X499056Y1211082D01*
X496320Y1209502D01*
X495514Y1208697D01*
X492974Y1209749D01*
Y1227551D01*
X495514Y1228603D01*
X496320Y1227798D01*
D02*
G37*
G36*
Y1190298D02*
X499056Y1188718D01*
X502108Y1187900D01*
X505268D01*
X508320Y1188718D01*
X511056Y1190298D01*
X511346Y1190587D01*
X513886Y1189535D01*
Y1172765D01*
X511346Y1171713D01*
X511056Y1172002D01*
X508320Y1173582D01*
X505268Y1174400D01*
X502108D01*
X499056Y1173582D01*
X496320Y1172002D01*
X495514Y1171197D01*
X492974Y1172249D01*
Y1190051D01*
X495514Y1191103D01*
X496320Y1190298D01*
D02*
G37*
G36*
X601500Y1406830D02*
Y57900D01*
X600534Y56934D01*
X301584D01*
X300611Y57911D01*
X300602Y1271678D01*
X302949Y1272650D01*
X324383Y1251216D01*
Y1199950D01*
Y1065573D01*
Y931559D01*
Y797544D01*
Y663529D01*
Y529515D01*
Y412400D01*
Y264000D01*
X324500Y263409D01*
Y262906D01*
X324692Y262441D01*
X324848Y261659D01*
X325291Y260996D01*
X325337Y260884D01*
X325423Y260799D01*
X326174Y259674D01*
X328159Y258348D01*
X330500Y257882D01*
X332841Y258348D01*
X334826Y259674D01*
X336152Y261659D01*
X336618Y264000D01*
Y412400D01*
Y529515D01*
Y663529D01*
Y797544D01*
Y931559D01*
Y1065573D01*
Y1199950D01*
Y1253750D01*
X336152Y1256091D01*
X334826Y1258076D01*
X300602Y1292300D01*
X300602Y1314770D01*
X300807Y1315017D01*
X303142Y1316258D01*
X304006Y1315900D01*
X305995D01*
X307832Y1316661D01*
X309239Y1318068D01*
X310000Y1319905D01*
Y1321895D01*
X309239Y1323732D01*
X308569Y1324402D01*
Y1362422D01*
X309978Y1363831D01*
X318301D01*
X320000Y1361295D01*
Y1359505D01*
X320685Y1357851D01*
X321951Y1356585D01*
X323605Y1355900D01*
X324285D01*
X326936Y1353249D01*
Y1331930D01*
X325395Y1330900D01*
X323605D01*
X321951Y1330215D01*
X320685Y1328949D01*
X320000Y1327295D01*
Y1325505D01*
X320685Y1323851D01*
X321166Y1323370D01*
Y1277400D01*
X321420Y1276124D01*
X322142Y1275042D01*
X341666Y1255519D01*
Y109430D01*
X341185Y108949D01*
X340500Y107295D01*
Y105505D01*
X341185Y103851D01*
X342451Y102585D01*
X344105Y101900D01*
X345895D01*
X347549Y102585D01*
X348815Y103851D01*
X349500Y105505D01*
Y107295D01*
X348815Y108949D01*
X348334Y109430D01*
Y137384D01*
X350105Y139400D01*
X351895D01*
X353549Y140085D01*
X354815Y141351D01*
X355500Y143005D01*
Y144795D01*
X354815Y146449D01*
X353549Y147715D01*
X352874Y147994D01*
Y224429D01*
X355414Y226104D01*
X355906Y225900D01*
X358094D01*
X360116Y226737D01*
X361663Y228284D01*
X362500Y230306D01*
Y232494D01*
X361663Y234515D01*
X360116Y236063D01*
X358094Y236900D01*
X357834D01*
Y257032D01*
X360181Y258004D01*
X362500Y255685D01*
Y253806D01*
X363337Y251784D01*
X364884Y250237D01*
X366906Y249400D01*
X369094D01*
X371115Y250237D01*
X372663Y251784D01*
X373500Y253806D01*
Y255994D01*
X372663Y258015D01*
X371115Y259563D01*
X369094Y260400D01*
X367215D01*
X362496Y265119D01*
X362753Y267604D01*
X364946Y268486D01*
X365195Y268237D01*
X367216Y267400D01*
X369404D01*
X371426Y268237D01*
X372973Y269785D01*
X373810Y271806D01*
Y273994D01*
X372973Y276015D01*
X371426Y277563D01*
X369404Y278400D01*
X369201D01*
X366914Y280687D01*
Y310966D01*
X369454Y312018D01*
X369734Y311737D01*
X371756Y310900D01*
X373944D01*
X375965Y311737D01*
X377513Y313284D01*
X378350Y315306D01*
Y317494D01*
X377513Y319515D01*
X375965Y321063D01*
X373944Y321900D01*
X372065D01*
X371454Y322511D01*
Y349966D01*
X373994Y351018D01*
X374274Y350737D01*
X376296Y349900D01*
X378484D01*
X380505Y350737D01*
X382053Y352285D01*
X382890Y354306D01*
Y356494D01*
X382053Y358516D01*
X380505Y360063D01*
X378484Y360900D01*
X376605D01*
X375994Y361511D01*
Y396966D01*
X378534Y398018D01*
X378815Y397737D01*
X380836Y396900D01*
X383024D01*
X385046Y397737D01*
X386593Y399285D01*
X387430Y401306D01*
Y403494D01*
X386593Y405516D01*
X385046Y407063D01*
X383024Y407900D01*
X381145D01*
X380534Y408511D01*
Y447269D01*
X381970Y447902D01*
X383074Y448048D01*
X384384Y446737D01*
X386406Y445900D01*
X388594D01*
X390616Y446737D01*
X392163Y448284D01*
X393000Y450306D01*
Y452494D01*
X392163Y454515D01*
X390616Y456063D01*
X388594Y456900D01*
X386715D01*
X385074Y458541D01*
Y1220880D01*
X387461Y1222085D01*
X389115Y1221400D01*
X390905D01*
X392559Y1222085D01*
X393825Y1223351D01*
X394426Y1224802D01*
X394638Y1225070D01*
X396968Y1226268D01*
X400020Y1225450D01*
X403180D01*
X406232Y1226268D01*
X408968Y1227848D01*
X411202Y1230082D01*
X412126Y1231682D01*
X414666Y1231001D01*
Y1206399D01*
X412126Y1205719D01*
X411202Y1207318D01*
X408968Y1209552D01*
X406232Y1211132D01*
X403180Y1211950D01*
X400020D01*
X396968Y1211132D01*
X394232Y1209552D01*
X391998Y1207318D01*
X390418Y1204582D01*
X389600Y1201530D01*
Y1198370D01*
X390418Y1195318D01*
X391998Y1192582D01*
X394232Y1190348D01*
X396968Y1188768D01*
X400020Y1187950D01*
X403180D01*
X406232Y1188768D01*
X408968Y1190348D01*
X411202Y1192582D01*
X412126Y1194182D01*
X414666Y1193501D01*
Y1168899D01*
X412126Y1168219D01*
X411202Y1169818D01*
X408968Y1172052D01*
X406232Y1173632D01*
X403180Y1174450D01*
X400020D01*
X396968Y1173632D01*
X394232Y1172052D01*
X391998Y1169818D01*
X390418Y1167082D01*
X389600Y1164030D01*
Y1160870D01*
X390418Y1157818D01*
X391998Y1155082D01*
X394232Y1152848D01*
X396968Y1151268D01*
X400020Y1150450D01*
X403180D01*
X406232Y1151268D01*
X408968Y1152848D01*
X411202Y1155082D01*
X412126Y1156682D01*
X414666Y1156001D01*
Y1109522D01*
X412126Y1108842D01*
X411202Y1110442D01*
X408968Y1112676D01*
X406232Y1114256D01*
X403180Y1115073D01*
X400020D01*
X396968Y1114256D01*
X394232Y1112676D01*
X391998Y1110442D01*
X390418Y1107705D01*
X389600Y1104653D01*
Y1101494D01*
X390418Y1098441D01*
X391998Y1095705D01*
X394232Y1093471D01*
X396968Y1091891D01*
X400020Y1091073D01*
X403180D01*
X406232Y1091891D01*
X408968Y1093471D01*
X411202Y1095705D01*
X412126Y1097305D01*
X414666Y1096624D01*
Y1072022D01*
X412126Y1071342D01*
X411202Y1072942D01*
X408968Y1075176D01*
X406232Y1076756D01*
X403180Y1077573D01*
X400020D01*
X396968Y1076756D01*
X394232Y1075176D01*
X391998Y1072942D01*
X390418Y1070205D01*
X389600Y1067153D01*
Y1063994D01*
X390418Y1060941D01*
X391998Y1058205D01*
X394232Y1055971D01*
X396968Y1054391D01*
X400020Y1053573D01*
X403180D01*
X406232Y1054391D01*
X408968Y1055971D01*
X411202Y1058205D01*
X412126Y1059805D01*
X414666Y1059124D01*
Y1034522D01*
X412126Y1033842D01*
X411202Y1035442D01*
X408968Y1037676D01*
X406232Y1039256D01*
X403180Y1040073D01*
X400020D01*
X396968Y1039256D01*
X394232Y1037676D01*
X391998Y1035442D01*
X390418Y1032705D01*
X389600Y1029653D01*
Y1026494D01*
X390418Y1023441D01*
X391998Y1020705D01*
X394232Y1018471D01*
X396968Y1016891D01*
X400020Y1016073D01*
X403180D01*
X406232Y1016891D01*
X408968Y1018471D01*
X411202Y1020705D01*
X412126Y1022305D01*
X414666Y1021624D01*
Y975508D01*
X412126Y974827D01*
X411202Y976427D01*
X408968Y978661D01*
X406232Y980241D01*
X403180Y981059D01*
X400020D01*
X396968Y980241D01*
X394232Y978661D01*
X391998Y976427D01*
X390418Y973690D01*
X389600Y970639D01*
Y967479D01*
X390418Y964427D01*
X391998Y961691D01*
X394232Y959456D01*
X396968Y957876D01*
X400020Y957059D01*
X403180D01*
X406232Y957876D01*
X408968Y959456D01*
X411202Y961691D01*
X412126Y963290D01*
X414666Y962609D01*
Y938008D01*
X412126Y937327D01*
X411202Y938927D01*
X408968Y941161D01*
X406232Y942741D01*
X403180Y943559D01*
X400020D01*
X396968Y942741D01*
X394232Y941161D01*
X391998Y938927D01*
X390418Y936190D01*
X389600Y933139D01*
Y929979D01*
X390418Y926927D01*
X391998Y924191D01*
X394232Y921956D01*
X396968Y920376D01*
X400020Y919559D01*
X403180D01*
X406232Y920376D01*
X408968Y921956D01*
X411202Y924191D01*
X412126Y925790D01*
X414666Y925109D01*
Y900508D01*
X412126Y899827D01*
X411202Y901427D01*
X408968Y903661D01*
X406232Y905241D01*
X403180Y906059D01*
X400020D01*
X396968Y905241D01*
X394232Y903661D01*
X391998Y901427D01*
X390418Y898690D01*
X389600Y895639D01*
Y892479D01*
X390418Y889427D01*
X391998Y886691D01*
X394232Y884456D01*
X396968Y882876D01*
X400020Y882059D01*
X403180D01*
X406232Y882876D01*
X408968Y884456D01*
X411202Y886691D01*
X412126Y888290D01*
X414666Y887609D01*
Y841493D01*
X412126Y840813D01*
X411202Y842412D01*
X408968Y844646D01*
X406232Y846226D01*
X403180Y847044D01*
X400020D01*
X396968Y846226D01*
X394232Y844646D01*
X391998Y842412D01*
X390418Y839676D01*
X389600Y836624D01*
Y833464D01*
X390418Y830412D01*
X391998Y827676D01*
X394232Y825442D01*
X396968Y823862D01*
X400020Y823044D01*
X403180D01*
X406232Y823862D01*
X408968Y825442D01*
X411202Y827676D01*
X412126Y829276D01*
X414666Y828595D01*
Y803993D01*
X412126Y803313D01*
X411202Y804912D01*
X408968Y807146D01*
X406232Y808726D01*
X403180Y809544D01*
X400020D01*
X396968Y808726D01*
X394232Y807146D01*
X391998Y804912D01*
X390418Y802176D01*
X389600Y799124D01*
Y795964D01*
X390418Y792912D01*
X391998Y790176D01*
X394232Y787942D01*
X396968Y786362D01*
X400020Y785544D01*
X403180D01*
X406232Y786362D01*
X408968Y787942D01*
X411202Y790176D01*
X412126Y791776D01*
X414666Y791095D01*
Y766493D01*
X412126Y765813D01*
X411202Y767412D01*
X408968Y769646D01*
X406232Y771226D01*
X403180Y772044D01*
X400020D01*
X396968Y771226D01*
X394232Y769646D01*
X391998Y767412D01*
X390418Y764676D01*
X389600Y761624D01*
Y758464D01*
X390418Y755412D01*
X391998Y752676D01*
X394232Y750442D01*
X396968Y748862D01*
X400020Y748044D01*
X403180D01*
X406232Y748862D01*
X408968Y750442D01*
X411202Y752676D01*
X412126Y754276D01*
X414666Y753595D01*
Y707478D01*
X412126Y706798D01*
X411202Y708398D01*
X408968Y710632D01*
X406232Y712212D01*
X403180Y713029D01*
X400020D01*
X396968Y712212D01*
X394232Y710632D01*
X391998Y708398D01*
X390418Y705661D01*
X389600Y702609D01*
Y699449D01*
X390418Y696397D01*
X391998Y693661D01*
X394232Y691427D01*
X396968Y689847D01*
X400020Y689029D01*
X403180D01*
X406232Y689847D01*
X408968Y691427D01*
X411202Y693661D01*
X412126Y695261D01*
X414666Y694580D01*
Y669978D01*
X412126Y669298D01*
X411202Y670898D01*
X408968Y673132D01*
X406232Y674712D01*
X403180Y675529D01*
X400020D01*
X396968Y674712D01*
X394232Y673132D01*
X391998Y670898D01*
X390418Y668161D01*
X389600Y665109D01*
Y661949D01*
X390418Y658897D01*
X391998Y656161D01*
X394232Y653927D01*
X396968Y652347D01*
X400020Y651529D01*
X403180D01*
X406232Y652347D01*
X408968Y653927D01*
X411202Y656161D01*
X412126Y657761D01*
X414666Y657080D01*
Y632478D01*
X412126Y631798D01*
X411202Y633397D01*
X408968Y635632D01*
X406232Y637212D01*
X403180Y638029D01*
X400020D01*
X396968Y637212D01*
X394232Y635632D01*
X391998Y633397D01*
X390418Y630661D01*
X389600Y627609D01*
Y624450D01*
X390418Y621398D01*
X391998Y618661D01*
X394232Y616427D01*
X396968Y614847D01*
X400020Y614029D01*
X403180D01*
X406232Y614847D01*
X408968Y616427D01*
X411202Y618661D01*
X412126Y620261D01*
X414666Y619580D01*
Y573464D01*
X412126Y572783D01*
X411202Y574383D01*
X408968Y576617D01*
X406232Y578197D01*
X403180Y579015D01*
X400020D01*
X396968Y578197D01*
X394232Y576617D01*
X391998Y574383D01*
X390418Y571646D01*
X389600Y568595D01*
Y565435D01*
X390418Y562383D01*
X391998Y559646D01*
X394232Y557412D01*
X396968Y555832D01*
X400020Y555015D01*
X403180D01*
X406232Y555832D01*
X408968Y557412D01*
X411202Y559646D01*
X412126Y561246D01*
X414666Y560565D01*
Y538400D01*
X414920Y537124D01*
X415643Y536043D01*
X418893Y532793D01*
X419974Y532070D01*
X421250Y531816D01*
X432758D01*
X432924Y530979D01*
X433587Y529987D01*
X434580Y529324D01*
X435750Y529091D01*
X443250D01*
X444421Y529324D01*
X445413Y529987D01*
X446076Y530979D01*
X446309Y532150D01*
Y538150D01*
X446076Y539320D01*
X445413Y540313D01*
X444421Y540976D01*
X443250Y541209D01*
X435750D01*
X434580Y540976D01*
X433587Y540313D01*
X432924Y539320D01*
X432758Y538484D01*
X422631D01*
X421334Y539781D01*
Y555241D01*
X423681Y556213D01*
X431267Y548627D01*
X432424Y547853D01*
X432764Y547785D01*
X432924Y546979D01*
X433587Y545987D01*
X434580Y545324D01*
X435750Y545091D01*
X443250D01*
X444421Y545324D01*
X445413Y545987D01*
X446076Y546979D01*
X446309Y548150D01*
Y554150D01*
X446076Y555321D01*
X445413Y556313D01*
X444421Y556976D01*
X443250Y557209D01*
X435750D01*
X434580Y556976D01*
X433639Y556348D01*
X426374Y563613D01*
Y598492D01*
X428721Y599464D01*
X429893Y598293D01*
X430974Y597570D01*
X432250Y597316D01*
X432758D01*
X432924Y596479D01*
X433587Y595487D01*
X434580Y594824D01*
X435750Y594591D01*
X443250D01*
X444421Y594824D01*
X445413Y595487D01*
X446076Y596479D01*
X446309Y597650D01*
Y603650D01*
X446076Y604821D01*
X445413Y605813D01*
X444421Y606476D01*
X443250Y606709D01*
X435750D01*
X434580Y606476D01*
X433587Y605813D01*
X431041Y606574D01*
X430914Y606701D01*
Y609767D01*
X432250Y612091D01*
X439750D01*
X440921Y612324D01*
X441913Y612987D01*
X442576Y613979D01*
X442696Y614581D01*
X445750D01*
X447116Y614853D01*
X448273Y615627D01*
X456023Y623377D01*
X456797Y624534D01*
X457069Y625900D01*
Y632105D01*
X457315Y632351D01*
X458000Y634005D01*
Y635795D01*
X457315Y637449D01*
X456049Y638715D01*
X454395Y639400D01*
X452605D01*
X450951Y638715D01*
X449685Y637449D01*
X449000Y635795D01*
Y634005D01*
X449685Y632351D01*
X449931Y632105D01*
Y627378D01*
X445117Y622564D01*
X444397Y622495D01*
X442209Y622870D01*
X441913Y623313D01*
X440921Y623976D01*
X439750Y624209D01*
X432250D01*
X430990Y626400D01*
X432250Y628591D01*
X439750D01*
X440921Y628824D01*
X441913Y629487D01*
X442576Y630480D01*
X442809Y631650D01*
Y637650D01*
X442576Y638820D01*
X441913Y639813D01*
X440921Y640476D01*
X439750Y640709D01*
X437275D01*
X436565Y642128D01*
X438038Y644591D01*
X444250D01*
X445420Y644824D01*
X446413Y645487D01*
X447293Y646418D01*
X449105Y645900D01*
X450895D01*
X452549Y646585D01*
X453815Y647851D01*
X454500Y649505D01*
Y651295D01*
X453815Y652949D01*
X452549Y654215D01*
X450895Y654900D01*
X449105D01*
X447076Y654820D01*
X446413Y655813D01*
X445420Y656476D01*
X444250Y656709D01*
X436750D01*
X435532Y658900D01*
X436750Y661091D01*
X444250D01*
X445420Y661324D01*
X446413Y661987D01*
X447076Y662979D01*
X447309Y664150D01*
Y670150D01*
X447076Y671320D01*
X446413Y672313D01*
X445420Y672976D01*
X444250Y673209D01*
X439994D01*
Y676251D01*
X441250Y678591D01*
X448750D01*
X449921Y678824D01*
X450913Y679487D01*
X451576Y680480D01*
X451696Y681081D01*
X452750D01*
X454116Y681353D01*
X455273Y682127D01*
X459523Y686377D01*
X460297Y687534D01*
X460569Y688900D01*
Y699605D01*
X460815Y699851D01*
X461500Y701505D01*
Y703295D01*
X460815Y704949D01*
X459549Y706215D01*
X457895Y706900D01*
X456105D01*
X454451Y706215D01*
X454061Y705825D01*
X453519Y705715D01*
X451226Y706021D01*
X451040Y706123D01*
X450913Y706313D01*
X449921Y706976D01*
X448750Y707209D01*
X444534D01*
Y709866D01*
X446250Y712091D01*
X453750D01*
X454921Y712324D01*
X455913Y712987D01*
X456387Y713697D01*
X457105Y713400D01*
X458895D01*
X460549Y714085D01*
X461815Y715351D01*
X462500Y717005D01*
Y718795D01*
X461815Y720449D01*
X460549Y721715D01*
X458895Y722400D01*
X457105D01*
X456723Y722242D01*
X456576Y722321D01*
X455913Y723313D01*
X454921Y723976D01*
X453750Y724209D01*
X446250D01*
X444560Y726400D01*
X446250Y728591D01*
X453750D01*
X454921Y728824D01*
X455913Y729487D01*
X456576Y730480D01*
X456809Y731650D01*
Y737650D01*
X456576Y738820D01*
X455913Y739813D01*
X454921Y740476D01*
X453750Y740709D01*
X450448D01*
X449724Y742269D01*
X451277Y744591D01*
X457750D01*
X458921Y744824D01*
X459913Y745487D01*
X460576Y746479D01*
X460714Y747174D01*
X461616Y747353D01*
X462773Y748127D01*
X470023Y755377D01*
X470146Y755560D01*
X472686Y754790D01*
Y564071D01*
X472686Y561982D01*
X472686Y561982D01*
X472709Y561864D01*
X472694Y561745D01*
X472836Y561230D01*
X472940Y560706D01*
X472940Y560706D01*
X472940Y560706D01*
X473006Y560606D01*
X473038Y560491D01*
X473126Y560377D01*
Y559661D01*
X473126Y559661D01*
Y541491D01*
X457344Y525709D01*
X452250D01*
X451079Y525476D01*
X450087Y524813D01*
X449424Y523820D01*
X449191Y522650D01*
Y516650D01*
X449424Y515480D01*
X450087Y514487D01*
X451079Y513824D01*
X452250Y513591D01*
X459750D01*
X460921Y513824D01*
X461913Y514487D01*
X462576Y515480D01*
X462809Y516650D01*
Y521744D01*
X475319Y534254D01*
X477666Y533282D01*
Y506410D01*
X476003Y505730D01*
X475126Y505638D01*
X474049Y506715D01*
X472395Y507400D01*
X470605D01*
X468960Y506719D01*
X462696D01*
X462576Y507321D01*
X461913Y508313D01*
X460921Y508976D01*
X459750Y509209D01*
X452250D01*
X451079Y508976D01*
X450087Y508313D01*
X449424Y507321D01*
X449191Y506150D01*
Y500150D01*
X449424Y498979D01*
X450087Y497987D01*
X451079Y497324D01*
X452250Y497091D01*
X459750D01*
X460921Y497324D01*
X461913Y497987D01*
X462576Y498979D01*
X462696Y499581D01*
X468455D01*
X468951Y499085D01*
X470605Y498400D01*
X472395D01*
X474049Y499085D01*
X475126Y500162D01*
X476003Y500070D01*
X477666Y499389D01*
Y496031D01*
X457344Y475709D01*
X452250D01*
X451079Y475476D01*
X450087Y474813D01*
X449424Y473820D01*
X449191Y472650D01*
Y466650D01*
X449424Y465480D01*
X450087Y464487D01*
X451079Y463824D01*
X452250Y463591D01*
X459750D01*
X460921Y463824D01*
X461913Y464487D01*
X462576Y465480D01*
X462809Y466650D01*
Y471744D01*
X479859Y488794D01*
X482206Y487822D01*
Y151921D01*
X480285Y150000D01*
X479005D01*
X477168Y149239D01*
X475761Y147832D01*
X475000Y145995D01*
Y144005D01*
X475761Y142168D01*
X477168Y140761D01*
X479005Y140000D01*
X480995D01*
X482832Y140761D01*
X484239Y142168D01*
X484695Y143269D01*
X485072Y143396D01*
X487347Y143525D01*
X487723Y142963D01*
X501000Y129685D01*
Y129005D01*
X501685Y127351D01*
X502951Y126085D01*
X504605Y125400D01*
X506395D01*
X508049Y126085D01*
X509315Y127351D01*
X510000Y129005D01*
Y130795D01*
X509315Y132449D01*
X508049Y133715D01*
X506395Y134400D01*
X505715D01*
X493414Y146701D01*
Y212523D01*
X495954Y213575D01*
X496732Y212798D01*
X499468Y211218D01*
X502520Y210400D01*
X505680D01*
X508732Y211218D01*
X511468Y212798D01*
X513702Y215032D01*
X515282Y217768D01*
X516100Y220820D01*
Y223980D01*
X515282Y227032D01*
X513702Y229768D01*
X511468Y232002D01*
X508732Y233582D01*
X505680Y234400D01*
X502520D01*
X499468Y233582D01*
X496732Y232002D01*
X495954Y231225D01*
X493414Y232277D01*
Y250023D01*
X495954Y251075D01*
X496732Y250298D01*
X499468Y248718D01*
X502520Y247900D01*
X505680D01*
X508732Y248718D01*
X511468Y250298D01*
X513702Y252532D01*
X515282Y255268D01*
X516100Y258320D01*
Y261480D01*
X515282Y264532D01*
X513702Y267268D01*
X511468Y269502D01*
X508732Y271082D01*
X505680Y271900D01*
X502520D01*
X499468Y271082D01*
X496732Y269502D01*
X495954Y268725D01*
X493414Y269777D01*
Y287523D01*
X495954Y288575D01*
X496732Y287798D01*
X499468Y286218D01*
X502520Y285400D01*
X505680D01*
X508732Y286218D01*
X511468Y287798D01*
X513702Y290032D01*
X515282Y292768D01*
X516100Y295820D01*
Y298980D01*
X515282Y302032D01*
X513702Y304768D01*
X511468Y307002D01*
X508732Y308582D01*
X505680Y309400D01*
X502520D01*
X499468Y308582D01*
X496732Y307002D01*
X495954Y306225D01*
X493414Y307277D01*
Y348023D01*
X495954Y349075D01*
X496732Y348298D01*
X499468Y346718D01*
X502520Y345900D01*
X505680D01*
X508732Y346718D01*
X511468Y348298D01*
X513702Y350532D01*
X515282Y353268D01*
X516100Y356320D01*
Y359480D01*
X515282Y362532D01*
X513702Y365268D01*
X511468Y367502D01*
X508732Y369082D01*
X505680Y369900D01*
X502520D01*
X499468Y369082D01*
X496732Y367502D01*
X495954Y366725D01*
X493414Y367777D01*
Y385523D01*
X495954Y386575D01*
X496732Y385798D01*
X499468Y384218D01*
X502520Y383400D01*
X505680D01*
X508732Y384218D01*
X511468Y385798D01*
X513702Y388032D01*
X515282Y390768D01*
X516100Y393820D01*
Y396980D01*
X515282Y400032D01*
X513702Y402768D01*
X511468Y405002D01*
X508732Y406582D01*
X505680Y407400D01*
X502520D01*
X499468Y406582D01*
X496732Y405002D01*
X495954Y404225D01*
X493414Y405277D01*
Y423023D01*
X495954Y424075D01*
X496732Y423298D01*
X499468Y421718D01*
X502520Y420900D01*
X505680D01*
X508732Y421718D01*
X511468Y423298D01*
X513702Y425532D01*
X515282Y428268D01*
X516100Y431320D01*
Y434480D01*
X515282Y437532D01*
X513702Y440268D01*
X511468Y442502D01*
X508732Y444082D01*
X505680Y444900D01*
X502520D01*
X499468Y444082D01*
X496732Y442502D01*
X495954Y441725D01*
X493414Y442777D01*
Y482038D01*
X495954Y483090D01*
X496732Y482312D01*
X499468Y480732D01*
X502520Y479915D01*
X505680D01*
X508732Y480732D01*
X511468Y482312D01*
X513702Y484547D01*
X515282Y487283D01*
X516100Y490335D01*
Y493494D01*
X515282Y496547D01*
X513702Y499283D01*
X511468Y501517D01*
X508732Y503097D01*
X505680Y503915D01*
X502520D01*
X499468Y503097D01*
X496732Y501517D01*
X495954Y500739D01*
X493414Y501791D01*
Y519538D01*
X495954Y520590D01*
X496732Y519812D01*
X499468Y518232D01*
X502520Y517415D01*
X505680D01*
X508732Y518232D01*
X511468Y519812D01*
X513702Y522047D01*
X515282Y524783D01*
X516100Y527835D01*
Y530994D01*
X515282Y534047D01*
X513702Y536783D01*
X511468Y539017D01*
X508732Y540597D01*
X505680Y541415D01*
X502520D01*
X499468Y540597D01*
X496732Y539017D01*
X495954Y538239D01*
X493414Y539291D01*
Y557038D01*
X495954Y558090D01*
X496732Y557312D01*
X499468Y555732D01*
X502520Y554915D01*
X505680D01*
X508732Y555732D01*
X511468Y557312D01*
X513702Y559547D01*
X515282Y562283D01*
X516100Y565335D01*
Y568494D01*
X515282Y571547D01*
X513702Y574283D01*
X511468Y576517D01*
X508732Y578097D01*
X505680Y578915D01*
X502520D01*
X499468Y578097D01*
X496732Y576517D01*
X495514Y575299D01*
X492974Y576351D01*
Y616493D01*
X495514Y617545D01*
X496732Y616327D01*
X499468Y614747D01*
X502520Y613929D01*
X505680D01*
X508732Y614747D01*
X511468Y616327D01*
X513702Y618561D01*
X515282Y621297D01*
X516100Y624350D01*
Y627509D01*
X515282Y630561D01*
X513702Y633298D01*
X511468Y635532D01*
X508732Y637112D01*
X505680Y637929D01*
X502520D01*
X499468Y637112D01*
X496732Y635532D01*
X495514Y634314D01*
X492974Y635366D01*
Y653993D01*
X495514Y655045D01*
X496732Y653827D01*
X499468Y652247D01*
X502520Y651429D01*
X505680D01*
X508732Y652247D01*
X511468Y653827D01*
X513702Y656061D01*
X515282Y658798D01*
X516100Y661850D01*
Y665009D01*
X515282Y668061D01*
X513702Y670798D01*
X511468Y673032D01*
X508732Y674612D01*
X505680Y675429D01*
X502520D01*
X499468Y674612D01*
X496732Y673032D01*
X495514Y671814D01*
X492974Y672866D01*
Y691493D01*
X495514Y692545D01*
X496732Y691327D01*
X499468Y689747D01*
X502520Y688929D01*
X505680D01*
X508732Y689747D01*
X511468Y691327D01*
X513702Y693561D01*
X515282Y696298D01*
X516100Y699350D01*
Y702509D01*
X515282Y705561D01*
X513702Y708298D01*
X511468Y710532D01*
X508732Y712112D01*
X505680Y712929D01*
X502520D01*
X499468Y712112D01*
X496732Y710532D01*
X495514Y709314D01*
X492974Y710366D01*
Y750507D01*
X495514Y751559D01*
X496732Y750342D01*
X499468Y748762D01*
X502520Y747944D01*
X505680D01*
X508732Y748762D01*
X511468Y750342D01*
X513702Y752576D01*
X515282Y755312D01*
X516100Y758364D01*
Y761524D01*
X515282Y764576D01*
X513702Y767312D01*
X511468Y769546D01*
X508732Y771126D01*
X505680Y771944D01*
X502520D01*
X499468Y771126D01*
X496732Y769546D01*
X495514Y768329D01*
X492974Y769381D01*
Y788007D01*
X495514Y789059D01*
X496732Y787842D01*
X499468Y786262D01*
X502520Y785444D01*
X505680D01*
X508732Y786262D01*
X511468Y787842D01*
X513702Y790076D01*
X515282Y792812D01*
X516100Y795864D01*
Y799024D01*
X515282Y802076D01*
X513702Y804812D01*
X511468Y807046D01*
X508732Y808626D01*
X505680Y809444D01*
X502520D01*
X499468Y808626D01*
X496732Y807046D01*
X495514Y805829D01*
X492974Y806881D01*
Y825507D01*
X495514Y826559D01*
X496732Y825342D01*
X499468Y823762D01*
X502520Y822944D01*
X505680D01*
X508732Y823762D01*
X511468Y825342D01*
X513702Y827576D01*
X515282Y830312D01*
X516100Y833364D01*
Y836524D01*
X515282Y839576D01*
X513702Y842312D01*
X511468Y844546D01*
X508732Y846126D01*
X505680Y846944D01*
X502520D01*
X499468Y846126D01*
X496732Y844546D01*
X495514Y843329D01*
X492974Y844381D01*
Y884522D01*
X495514Y885574D01*
X496732Y884356D01*
X499468Y882776D01*
X502520Y881959D01*
X505680D01*
X508732Y882776D01*
X511468Y884356D01*
X513702Y886590D01*
X515282Y889327D01*
X516100Y892379D01*
Y895538D01*
X515282Y898590D01*
X513702Y901327D01*
X511468Y903561D01*
X508732Y905141D01*
X505680Y905959D01*
X502520D01*
X499468Y905141D01*
X496732Y903561D01*
X495514Y902343D01*
X492974Y903395D01*
Y922022D01*
X495514Y923074D01*
X496732Y921856D01*
X499468Y920276D01*
X502520Y919459D01*
X505680D01*
X508732Y920276D01*
X511468Y921856D01*
X513702Y924090D01*
X515282Y926827D01*
X516100Y929879D01*
Y933038D01*
X515282Y936090D01*
X513702Y938827D01*
X511468Y941061D01*
X508732Y942641D01*
X505680Y943459D01*
X502520D01*
X499468Y942641D01*
X496732Y941061D01*
X495514Y939843D01*
X492974Y940895D01*
Y959522D01*
X495514Y960574D01*
X496732Y959356D01*
X499468Y957776D01*
X502520Y956959D01*
X505680D01*
X508732Y957776D01*
X511468Y959356D01*
X513702Y961590D01*
X515282Y964327D01*
X516100Y967379D01*
Y970538D01*
X515282Y973590D01*
X513702Y976327D01*
X511468Y978561D01*
X508732Y980141D01*
X505680Y980959D01*
X502520D01*
X499468Y980141D01*
X496732Y978561D01*
X495514Y977343D01*
X492974Y978395D01*
Y1018537D01*
X495514Y1019589D01*
X496732Y1018371D01*
X499468Y1016791D01*
X502520Y1015973D01*
X505680D01*
X508732Y1016791D01*
X511468Y1018371D01*
X513702Y1020605D01*
X515282Y1023342D01*
X516100Y1026394D01*
Y1029553D01*
X515282Y1032605D01*
X513702Y1035341D01*
X511468Y1037576D01*
X508732Y1039156D01*
X505680Y1039973D01*
X502520D01*
X499468Y1039156D01*
X496732Y1037576D01*
X495514Y1036358D01*
X492974Y1037410D01*
Y1056037D01*
X495514Y1057089D01*
X496732Y1055871D01*
X499468Y1054291D01*
X502520Y1053473D01*
X505680D01*
X508732Y1054291D01*
X511468Y1055871D01*
X513702Y1058105D01*
X515282Y1060842D01*
X516100Y1063894D01*
Y1067053D01*
X515282Y1070105D01*
X513702Y1072841D01*
X511468Y1075076D01*
X508732Y1076656D01*
X505680Y1077473D01*
X502520D01*
X499468Y1076656D01*
X496732Y1075076D01*
X495514Y1073858D01*
X492974Y1074910D01*
Y1093537D01*
X495514Y1094589D01*
X496732Y1093371D01*
X499468Y1091791D01*
X502520Y1090973D01*
X505680D01*
X508732Y1091791D01*
X511468Y1093371D01*
X513702Y1095605D01*
X515282Y1098342D01*
X516100Y1101394D01*
Y1104553D01*
X515282Y1107605D01*
X513702Y1110341D01*
X511468Y1112576D01*
X508732Y1114156D01*
X505680Y1114973D01*
X502520D01*
X499468Y1114156D01*
X496732Y1112576D01*
X495514Y1111358D01*
X492974Y1112410D01*
Y1152551D01*
X495514Y1153603D01*
X496320Y1152798D01*
X499056Y1151218D01*
X502108Y1150400D01*
X505268D01*
X508320Y1151218D01*
X509721Y1152027D01*
X512444Y1150751D01*
X512561Y1149835D01*
X512175Y1149449D01*
X511490Y1147795D01*
Y1146005D01*
X512175Y1144351D01*
X513441Y1143085D01*
X515095Y1142400D01*
X516885D01*
X518426Y1141370D01*
Y1124399D01*
X517981Y1124215D01*
X516715Y1122949D01*
X516030Y1121295D01*
Y1119505D01*
X516715Y1117851D01*
X517981Y1116585D01*
X519635Y1115900D01*
X521425D01*
X522966Y1114870D01*
Y1079899D01*
X522521Y1079715D01*
X521255Y1078449D01*
X520570Y1076795D01*
Y1075005D01*
X521255Y1073351D01*
X522521Y1072085D01*
X524175Y1071400D01*
X525965D01*
X527506Y1070370D01*
Y1057899D01*
X527061Y1057715D01*
X525795Y1056449D01*
X525110Y1054795D01*
Y1053005D01*
X525795Y1051351D01*
X527061Y1050085D01*
X528715Y1049400D01*
X530505D01*
X532046Y1048370D01*
Y1009899D01*
X531601Y1009715D01*
X530335Y1008449D01*
X529650Y1006795D01*
Y1005005D01*
X530335Y1003351D01*
X531601Y1002085D01*
X533255Y1001400D01*
X535045D01*
X536586Y1000370D01*
Y994701D01*
X536333Y994447D01*
X536191Y994236D01*
X536141Y994215D01*
X534875Y992949D01*
X534190Y991295D01*
Y989505D01*
X534875Y987851D01*
X536141Y986585D01*
X537795Y985900D01*
X539585D01*
X541126Y984870D01*
Y935741D01*
X537785Y932400D01*
X537105D01*
X535451Y931715D01*
X534185Y930449D01*
X533500Y928795D01*
Y927005D01*
X534185Y925351D01*
X535451Y924085D01*
X537105Y923400D01*
X538895D01*
X540549Y924085D01*
X541815Y925351D01*
X542207Y926298D01*
X543126Y926846D01*
X545636Y925420D01*
X545666Y925363D01*
Y909781D01*
X545285Y909400D01*
X544605D01*
X542951Y908715D01*
X541685Y907449D01*
X541000Y905795D01*
Y904005D01*
X541685Y902351D01*
X542951Y901085D01*
X544605Y900400D01*
X546395D01*
X548049Y901085D01*
X548126Y901162D01*
X550666Y900110D01*
Y892781D01*
X542142Y884258D01*
X541420Y883176D01*
X541166Y881900D01*
X541166Y140430D01*
X540685Y139949D01*
X540000Y138295D01*
Y136505D01*
X540685Y134851D01*
X541951Y133585D01*
X543605Y132900D01*
X545395D01*
X547049Y133585D01*
X548315Y134851D01*
X549000Y136505D01*
Y138295D01*
X548315Y139949D01*
X547834Y140430D01*
X547834Y880519D01*
X556357Y889042D01*
X557080Y890124D01*
X557334Y891400D01*
Y1272900D01*
X557395D01*
X559049Y1273585D01*
X560315Y1274851D01*
X561000Y1276505D01*
Y1278295D01*
X560315Y1279949D01*
X559049Y1281215D01*
X558858Y1284043D01*
X562357Y1287543D01*
X563080Y1288624D01*
X563334Y1289900D01*
Y1314603D01*
X563346Y1314620D01*
X565874Y1316091D01*
X566335Y1315900D01*
X568125D01*
X569666Y1314870D01*
Y1309430D01*
X568685Y1308449D01*
X568000Y1306795D01*
Y1305005D01*
X568685Y1303351D01*
X569951Y1302085D01*
X571605Y1301400D01*
X573395D01*
X575049Y1302085D01*
X575843Y1302879D01*
X578059Y1302295D01*
X578382Y1302100D01*
Y1275934D01*
X562174Y1259726D01*
X560848Y1257741D01*
X560382Y1255400D01*
Y1199900D01*
Y1065473D01*
Y947400D01*
Y797444D01*
Y663429D01*
Y529415D01*
Y259459D01*
X560848Y257118D01*
X562174Y255133D01*
X562633Y254674D01*
X564618Y253348D01*
X566959Y252882D01*
X569300Y253348D01*
X571285Y254674D01*
X572611Y256659D01*
X573076Y259000D01*
X572617Y261307D01*
Y529415D01*
Y663429D01*
Y797444D01*
Y947400D01*
Y1065473D01*
Y1199900D01*
Y1252866D01*
X588826Y1269074D01*
X590152Y1271059D01*
X590618Y1273400D01*
Y1399266D01*
X599153Y1407802D01*
X601500Y1406830D01*
D02*
G37*
%LPC*%
G36*
X413830Y1498440D02*
X404060D01*
Y1488670D01*
X413830D01*
Y1498440D01*
D02*
G37*
G36*
Y1486130D02*
X404060D01*
Y1476360D01*
X413830D01*
Y1486130D01*
D02*
G37*
G36*
X339800Y1487613D02*
X330270D01*
Y1474270D01*
X343613D01*
Y1483800D01*
X343323Y1485259D01*
X342496Y1486496D01*
X341259Y1487323D01*
X339800Y1487613D01*
D02*
G37*
G36*
X614990Y1452513D02*
X605460D01*
Y1439170D01*
X618803D01*
Y1448700D01*
X618513Y1450159D01*
X617686Y1451396D01*
X616449Y1452223D01*
X614990Y1452513D01*
D02*
G37*
G36*
X618803Y1436630D02*
X605460D01*
Y1423287D01*
X614990D01*
X616449Y1423577D01*
X617686Y1424404D01*
X618513Y1425641D01*
X618803Y1427100D01*
Y1436630D01*
D02*
G37*
G36*
X467353Y1498440D02*
X467170D01*
Y1488670D01*
X476940D01*
Y1488853D01*
X476188Y1491661D01*
X474734Y1494179D01*
X472679Y1496234D01*
X470161Y1497688D01*
X467353Y1498440D01*
D02*
G37*
G36*
X464630D02*
X464447D01*
X461639Y1497688D01*
X459121Y1496234D01*
X457066Y1494179D01*
X455612Y1491661D01*
X454860Y1488853D01*
Y1488670D01*
X464630D01*
Y1498440D01*
D02*
G37*
G36*
X492682Y1497900D02*
X489918D01*
X487247Y1497184D01*
X484853Y1495802D01*
X482898Y1493847D01*
X481516Y1491453D01*
X480800Y1488782D01*
Y1486018D01*
X481516Y1483347D01*
X482898Y1480953D01*
X484853Y1478998D01*
X487247Y1477616D01*
X489918Y1476900D01*
X492682D01*
X495353Y1477616D01*
X497747Y1478998D01*
X499702Y1480953D01*
X501084Y1483347D01*
X501800Y1486018D01*
Y1488782D01*
X501084Y1491453D01*
X499702Y1493847D01*
X497747Y1495802D01*
X495353Y1497184D01*
X492682Y1497900D01*
D02*
G37*
G36*
X476940Y1486130D02*
X467170D01*
Y1476360D01*
X467353D01*
X470161Y1477112D01*
X472679Y1478566D01*
X474734Y1480621D01*
X476188Y1483139D01*
X476940Y1485947D01*
Y1486130D01*
D02*
G37*
G36*
X464630D02*
X454860D01*
Y1485947D01*
X455612Y1483139D01*
X457066Y1480621D01*
X459121Y1478566D01*
X461639Y1477112D01*
X464447Y1476360D01*
X464630D01*
Y1486130D01*
D02*
G37*
G36*
X556104Y1452440D02*
X555460D01*
Y1439170D01*
X568730D01*
Y1439814D01*
X567739Y1443512D01*
X565825Y1446828D01*
X563117Y1449535D01*
X559802Y1451449D01*
X556104Y1452440D01*
D02*
G37*
G36*
X552920D02*
X552275D01*
X548577Y1451449D01*
X545262Y1449535D01*
X542555Y1446828D01*
X540640Y1443512D01*
X539650Y1439814D01*
Y1439170D01*
X552920D01*
Y1452440D01*
D02*
G37*
G36*
X568730Y1436630D02*
X555460D01*
Y1423360D01*
X556104D01*
X559802Y1424351D01*
X563117Y1426265D01*
X565825Y1428972D01*
X567739Y1432288D01*
X568730Y1435986D01*
Y1436630D01*
D02*
G37*
G36*
X552920D02*
X539650D01*
Y1435986D01*
X540640Y1432288D01*
X542555Y1428972D01*
X545262Y1426265D01*
X548577Y1424351D01*
X552275Y1423360D01*
X552920D01*
Y1436630D01*
D02*
G37*
G36*
X330843Y1437000D02*
X327157D01*
X323596Y1436046D01*
X320404Y1434203D01*
X317797Y1431596D01*
X315954Y1428404D01*
X315000Y1424843D01*
Y1421157D01*
X315954Y1417596D01*
X317797Y1414404D01*
X320404Y1411797D01*
X323596Y1409954D01*
X324039Y1409835D01*
X324697Y1407382D01*
X322775Y1405460D01*
X320850D01*
X319023Y1405220D01*
X317320Y1404514D01*
X315858Y1403392D01*
X314736Y1401930D01*
X314030Y1400227D01*
X313790Y1398400D01*
X314030Y1396573D01*
X314736Y1394870D01*
X315858Y1393408D01*
X317320Y1392285D01*
X319023Y1391580D01*
X320850Y1391340D01*
X325700D01*
X327527Y1391580D01*
X329230Y1392285D01*
X329910Y1392807D01*
X329944D01*
X331965Y1393645D01*
X332975Y1394654D01*
X333984Y1393645D01*
X336006Y1392807D01*
X338194D01*
X340215Y1393645D01*
X341763Y1395192D01*
X342600Y1397213D01*
Y1399402D01*
X341763Y1401423D01*
X340215Y1402970D01*
X340215Y1402970D01*
X340426Y1403440D01*
X340564Y1403620D01*
X341270Y1405323D01*
X341510Y1407150D01*
X341270Y1408977D01*
X340564Y1410680D01*
X339442Y1412142D01*
X339350Y1413551D01*
X340203Y1414404D01*
X342046Y1417596D01*
X343000Y1421157D01*
Y1424843D01*
X342046Y1428404D01*
X340203Y1431596D01*
X337596Y1434203D01*
X334404Y1436046D01*
X330843Y1437000D01*
D02*
G37*
G36*
X443250Y590209D02*
X435750D01*
X434580Y589976D01*
X433587Y589313D01*
X432924Y588321D01*
X432691Y587150D01*
Y581150D01*
X432924Y579980D01*
X433587Y578987D01*
X434580Y578324D01*
X435750Y578091D01*
X443250D01*
X444421Y578324D01*
X445413Y578987D01*
X446076Y579980D01*
X446196Y580581D01*
X448960D01*
X450605Y579900D01*
X452395D01*
X454049Y580585D01*
X455315Y581851D01*
X456000Y583505D01*
Y585295D01*
X455315Y586949D01*
X454049Y588215D01*
X452395Y588900D01*
X450605D01*
X448951Y588215D01*
X448621Y587885D01*
X446105Y588177D01*
X446076Y588321D01*
X445413Y589313D01*
X444421Y589976D01*
X443250Y590209D01*
D02*
G37*
G36*
Y573709D02*
X435750D01*
X434580Y573476D01*
X433587Y572813D01*
X432924Y571820D01*
X432691Y570650D01*
Y564650D01*
X432924Y563479D01*
X433587Y562487D01*
X434580Y561824D01*
X435750Y561591D01*
X443250D01*
X444421Y561824D01*
X445413Y562487D01*
X446076Y563479D01*
X446196Y564081D01*
X453667D01*
X454105Y563900D01*
X455895D01*
X457549Y564585D01*
X458815Y565851D01*
X459500Y567505D01*
Y569295D01*
X458815Y570949D01*
X457549Y572215D01*
X455895Y572900D01*
X454105D01*
X452451Y572215D01*
X451455Y571219D01*
X446196D01*
X446076Y571820D01*
X445413Y572813D01*
X444421Y573476D01*
X443250Y573709D01*
D02*
G37*
G36*
Y524709D02*
X435750D01*
X434580Y524476D01*
X433587Y523813D01*
X432924Y522821D01*
X432777Y522742D01*
X432395Y522900D01*
X430605D01*
X428951Y522215D01*
X427685Y520949D01*
X427000Y519295D01*
Y517505D01*
X427685Y515851D01*
X428951Y514585D01*
X430605Y513900D01*
X432395D01*
X433113Y514197D01*
X433587Y513487D01*
X434580Y512824D01*
X435750Y512591D01*
X443250D01*
X444421Y512824D01*
X445413Y513487D01*
X446076Y514479D01*
X446309Y515650D01*
Y521650D01*
X446076Y522821D01*
X445413Y523813D01*
X444421Y524476D01*
X443250Y524709D01*
D02*
G37*
G36*
X403180Y541515D02*
X400020D01*
X396968Y540697D01*
X394232Y539117D01*
X391998Y536883D01*
X390418Y534146D01*
X389600Y531095D01*
Y527935D01*
X390418Y524883D01*
X391998Y522146D01*
X394232Y519912D01*
X396968Y518332D01*
X400020Y517515D01*
X403180D01*
X406232Y518332D01*
X408968Y519912D01*
X411202Y522146D01*
X412782Y524883D01*
X413600Y527935D01*
Y531095D01*
X412782Y534146D01*
X411202Y536883D01*
X408968Y539117D01*
X406232Y540697D01*
X403180Y541515D01*
D02*
G37*
G36*
Y504015D02*
X400020D01*
X396968Y503197D01*
X394232Y501617D01*
X391998Y499383D01*
X390418Y496646D01*
X389600Y493595D01*
Y490435D01*
X390418Y487383D01*
X391998Y484646D01*
X394232Y482412D01*
X396968Y480832D01*
X400020Y480015D01*
X403180D01*
X406232Y480832D01*
X408968Y482412D01*
X411202Y484646D01*
X412782Y487383D01*
X413600Y490435D01*
Y493595D01*
X412782Y496646D01*
X411202Y499383D01*
X408968Y501617D01*
X406232Y503197D01*
X403180Y504015D01*
D02*
G37*
G36*
X459750Y459209D02*
X452250D01*
X451079Y458976D01*
X450087Y458313D01*
X449424Y457321D01*
X449304Y456719D01*
X436545D01*
X436049Y457215D01*
X434395Y457900D01*
X432605D01*
X430951Y457215D01*
X429685Y455949D01*
X429000Y454295D01*
Y452505D01*
X429685Y450851D01*
X430951Y449585D01*
X432605Y448900D01*
X434395D01*
X436040Y449581D01*
X449304D01*
X449424Y448979D01*
X450087Y447987D01*
X451079Y447324D01*
X452250Y447091D01*
X459750D01*
X460921Y447324D01*
X461913Y447987D01*
X462576Y448979D01*
X462809Y450150D01*
Y456150D01*
X462576Y457321D01*
X461913Y458313D01*
X460921Y458976D01*
X459750Y459209D01*
D02*
G37*
G36*
X403180Y445000D02*
X400020D01*
X396968Y444182D01*
X394232Y442602D01*
X391998Y440368D01*
X390418Y437632D01*
X389600Y434580D01*
Y431420D01*
X390418Y428368D01*
X391998Y425632D01*
X394232Y423398D01*
X396968Y421818D01*
X400020Y421000D01*
X403180D01*
X406232Y421818D01*
X408968Y423398D01*
X411202Y425632D01*
X412782Y428368D01*
X413600Y431420D01*
Y434580D01*
X412782Y437632D01*
X411202Y440368D01*
X408968Y442602D01*
X406232Y444182D01*
X403180Y445000D01*
D02*
G37*
G36*
Y407500D02*
X400020D01*
X396968Y406682D01*
X394232Y405102D01*
X391998Y402868D01*
X390418Y400132D01*
X389600Y397080D01*
Y393920D01*
X390418Y390868D01*
X391998Y388132D01*
X394232Y385898D01*
X396968Y384318D01*
X400020Y383500D01*
X403180D01*
X406232Y384318D01*
X408968Y385898D01*
X411202Y388132D01*
X412782Y390868D01*
X413600Y393920D01*
Y397080D01*
X412782Y400132D01*
X411202Y402868D01*
X408968Y405102D01*
X406232Y406682D01*
X403180Y407500D01*
D02*
G37*
G36*
Y370000D02*
X400020D01*
X396968Y369182D01*
X394232Y367602D01*
X391998Y365368D01*
X390418Y362632D01*
X389600Y359580D01*
Y356420D01*
X390418Y353368D01*
X391998Y350632D01*
X394232Y348398D01*
X396968Y346818D01*
X400020Y346000D01*
X403180D01*
X406232Y346818D01*
X408968Y348398D01*
X411202Y350632D01*
X412782Y353368D01*
X413600Y356420D01*
Y359580D01*
X412782Y362632D01*
X411202Y365368D01*
X408968Y367602D01*
X406232Y369182D01*
X403180Y370000D01*
D02*
G37*
G36*
Y309500D02*
X400020D01*
X396968Y308682D01*
X394232Y307102D01*
X391998Y304868D01*
X390418Y302132D01*
X389600Y299080D01*
Y295920D01*
X390418Y292868D01*
X391998Y290132D01*
X394232Y287898D01*
X396968Y286318D01*
X398973Y285781D01*
X399149Y283104D01*
X398451Y282815D01*
X397185Y281549D01*
X396500Y279895D01*
Y278105D01*
X397185Y276451D01*
X398451Y275185D01*
X399488Y274756D01*
X400105Y274500D01*
X400020Y272000D01*
X399476Y271854D01*
X396968Y271182D01*
X394232Y269602D01*
X391998Y267368D01*
X390418Y264632D01*
X389600Y261580D01*
Y258420D01*
X390418Y255368D01*
X391998Y252632D01*
X394232Y250398D01*
X396968Y248818D01*
X400020Y248000D01*
X403180D01*
X406232Y248818D01*
X408968Y250398D01*
X411202Y252632D01*
X412782Y255368D01*
X413600Y258420D01*
Y261580D01*
X412782Y264632D01*
X411202Y267368D01*
X408968Y269602D01*
X406232Y271182D01*
X403180Y272000D01*
X401992D01*
X401895Y274500D01*
X402515Y274757D01*
X403549Y275185D01*
X404030Y275666D01*
X446000D01*
X447276Y275920D01*
X448358Y276642D01*
X455715Y284000D01*
X456995D01*
X458832Y284761D01*
X460239Y286168D01*
X461000Y288005D01*
Y289995D01*
X460239Y291832D01*
X458832Y293239D01*
X456995Y294000D01*
X455005D01*
X453168Y293239D01*
X451761Y291832D01*
X451000Y289995D01*
Y288715D01*
X444619Y282334D01*
X404030D01*
X403549Y282815D01*
X403189Y282964D01*
X403183Y284756D01*
X403498Y285585D01*
X406232Y286318D01*
X408968Y287898D01*
X411202Y290132D01*
X412782Y292868D01*
X413600Y295920D01*
Y299080D01*
X412782Y302132D01*
X411202Y304868D01*
X408968Y307102D01*
X406232Y308682D01*
X403180Y309500D01*
D02*
G37*
G36*
Y234500D02*
X400020D01*
X396968Y233682D01*
X394232Y232102D01*
X391998Y229868D01*
X390418Y227132D01*
X389600Y224080D01*
Y220920D01*
X390418Y217868D01*
X391998Y215132D01*
X394232Y212898D01*
X396968Y211318D01*
X400020Y210500D01*
X403180D01*
X406232Y211318D01*
X408968Y212898D01*
X411202Y215132D01*
X412782Y217868D01*
X413600Y220920D01*
Y224080D01*
X412782Y227132D01*
X411202Y229868D01*
X408968Y232102D01*
X406232Y233682D01*
X403180Y234500D01*
D02*
G37*
G36*
X492482Y104400D02*
X489718D01*
X487047Y103684D01*
X484653Y102302D01*
X482698Y100347D01*
X481316Y97953D01*
X480600Y95282D01*
Y92518D01*
X481316Y89847D01*
X482698Y87453D01*
X484653Y85498D01*
X487047Y84116D01*
X489718Y83400D01*
X492482D01*
X495153Y84116D01*
X497547Y85498D01*
X499502Y87453D01*
X500884Y89847D01*
X501600Y92518D01*
Y95282D01*
X500884Y97953D01*
X499502Y100347D01*
X497547Y102302D01*
X495153Y103684D01*
X492482Y104400D01*
D02*
G37*
G36*
X467082D02*
X464318D01*
X461647Y103684D01*
X459253Y102302D01*
X457298Y100347D01*
X455916Y97953D01*
X455200Y95282D01*
Y92518D01*
X455916Y89847D01*
X457298Y87453D01*
X459253Y85498D01*
X461647Y84116D01*
X464318Y83400D01*
X467082D01*
X469753Y84116D01*
X472147Y85498D01*
X474102Y87453D01*
X475484Y89847D01*
X476200Y92518D01*
Y95282D01*
X475484Y97953D01*
X474102Y100347D01*
X472147Y102302D01*
X469753Y103684D01*
X467082Y104400D01*
D02*
G37*
G36*
X441682D02*
X438918D01*
X436247Y103684D01*
X433853Y102302D01*
X431898Y100347D01*
X430516Y97953D01*
X429800Y95282D01*
Y92518D01*
X430516Y89847D01*
X431898Y87453D01*
X433853Y85498D01*
X436247Y84116D01*
X438918Y83400D01*
X441682D01*
X444353Y84116D01*
X446747Y85498D01*
X448702Y87453D01*
X450084Y89847D01*
X450800Y92518D01*
Y95282D01*
X450084Y97953D01*
X448702Y100347D01*
X446747Y102302D01*
X444353Y103684D01*
X441682Y104400D01*
D02*
G37*
G36*
X425400D02*
X404400D01*
Y83400D01*
X425400D01*
Y104400D01*
D02*
G37*
%LPD*%
D10*
X446000Y279000D02*
X456000Y289000D01*
X401000Y279000D02*
X446000D01*
X490080Y145320D02*
X505500Y129900D01*
X490080Y145320D02*
X490080Y563422D01*
X480000Y145000D02*
X485540Y150540D01*
X495500Y1272800D02*
Y1348452D01*
X495051Y1348901D02*
X495500Y1348452D01*
X495051Y1348901D02*
Y1350640D01*
X494581Y1351111D02*
X495051Y1350640D01*
X349540Y145360D02*
X349540Y1260520D01*
Y145360D02*
X351000Y143900D01*
X359040Y263860D02*
X359040Y1270860D01*
X338330Y1271730D02*
X349540Y1260520D01*
X354500Y233900D02*
X354500Y1266261D01*
Y233900D02*
X357000Y231400D01*
X359040Y263860D02*
X368000Y254900D01*
X363580Y277630D02*
X368310Y272900D01*
X485100Y565743D02*
Y1262400D01*
X495500Y1272800D01*
X485100Y565743D02*
X485540Y565303D01*
Y150540D02*
Y565303D01*
X336040Y1284721D02*
X354500Y1266261D01*
X507250Y1305400D02*
X507500Y1305650D01*
X330270Y1281130D02*
X333500Y1277900D01*
X507500Y1305650D02*
Y1328400D01*
X324500Y1360400D02*
X330270Y1354630D01*
X502500Y1333400D02*
X507500Y1328400D01*
X501270Y1385630D02*
Y1395400D01*
X330270Y1281130D02*
Y1354630D01*
X501270Y1385630D02*
X502500Y1384400D01*
Y1333400D02*
Y1384400D01*
X368120Y321130D02*
Y1274621D01*
X350000Y1292741D02*
Y1348900D01*
Y1292741D02*
X368120Y1274621D01*
Y321130D02*
X372850Y316400D01*
X363580Y277630D02*
X363580Y1272740D01*
X343033Y1293287D02*
X363580Y1272740D01*
X343033Y1293287D02*
Y1351413D01*
X362500Y1293082D02*
X377200Y1278382D01*
X362500Y1293082D02*
Y1349900D01*
X377200Y407130D02*
Y1278382D01*
Y407130D02*
X381930Y402400D01*
X383080Y1299320D02*
Y1332670D01*
X385080Y1334670D01*
X397820Y1259170D02*
Y1266510D01*
X392050Y1253400D02*
X397820Y1259170D01*
X392050Y1251400D02*
Y1253400D01*
X397820Y1266510D02*
Y1271290D01*
Y1284580D01*
X383080Y1299320D02*
X397820Y1284580D01*
X381740Y457160D02*
X387500Y451400D01*
X381740Y457160D02*
Y1280263D01*
X369000Y1293003D02*
X381740Y1280263D01*
X369000Y1293003D02*
Y1353400D01*
X355770Y1351290D02*
Y1352900D01*
Y1293392D02*
X372660Y1276502D01*
X355770Y1293392D02*
Y1346510D01*
X372660Y360130D02*
X377390Y355400D01*
X355770Y1346510D02*
Y1351290D01*
X372660Y360130D02*
Y1276502D01*
X515990Y1146900D02*
X517220Y1148130D01*
X507500Y1263620D02*
X517220Y1253900D01*
X507500Y1263620D02*
Y1280900D01*
X517220Y1148130D02*
Y1253900D01*
X554000Y1274900D02*
X556500Y1277400D01*
X554000Y891400D02*
Y1274900D01*
X544500Y137400D02*
X544500Y881900D01*
X554000Y891400D01*
X528500Y1277900D02*
Y1287400D01*
X533000Y1291900D01*
X533500D01*
X424000Y1328900D02*
X426330D01*
X345000Y106400D02*
Y1256900D01*
X422000Y1315400D02*
Y1326900D01*
X480650Y1316400D02*
Y1328900D01*
X539500Y1315900D02*
Y1328900D01*
X324500Y1277400D02*
Y1326400D01*
X422000Y1326900D02*
X424000Y1328900D01*
X324500Y1277400D02*
X345000Y1256900D01*
X501480Y1303010D02*
X501500Y1302990D01*
Y1307810D02*
Y1322670D01*
X489640Y567623D02*
Y1256400D01*
X490080Y563422D02*
Y567183D01*
X489640Y567623D02*
X490080Y567183D01*
X490080Y563422D02*
X490080Y563422D01*
X501500Y1268260D02*
Y1302990D01*
X501480Y1303010D02*
Y1307790D01*
X501500Y1307810D01*
X489640Y1256400D02*
X501500Y1268260D01*
Y1322670D02*
X501730Y1322900D01*
X572500Y1305900D02*
X573000Y1306400D01*
X462230Y1317360D02*
Y1381670D01*
X462000Y1381900D02*
X462230Y1381670D01*
X573000Y1306400D02*
Y1382400D01*
X549000Y1278900D02*
X560000Y1289900D01*
X553000Y1350900D02*
X560000Y1343900D01*
X545500Y904900D02*
X549000Y908400D01*
Y1278900D01*
X560000Y1289900D02*
Y1343900D01*
X546000Y1347900D02*
X555000Y1338900D01*
X544460Y1280780D02*
X555000Y1291320D01*
X538000Y927900D02*
X544460Y934360D01*
X555000Y1291320D02*
Y1338900D01*
X544460Y934360D02*
Y1280780D01*
X539920Y1282661D02*
X550460Y1293201D01*
Y1334360D01*
X538690Y990400D02*
Y992090D01*
X539920Y1344900D02*
Y1351820D01*
X538690Y992090D02*
X539920Y993320D01*
Y1282661D01*
Y1344900D02*
X550460Y1334360D01*
X539920Y1351820D02*
X540000Y1351900D01*
X533046Y1343900D02*
X545920Y1331026D01*
X535380Y1008280D02*
Y1284542D01*
X545920Y1295082D01*
X533046Y1343900D02*
Y1347873D01*
X545920Y1295082D02*
Y1331026D01*
X534150Y1005900D02*
Y1007050D01*
X535380Y1008280D01*
X522580Y1274320D02*
Y1291980D01*
X527000Y1342900D02*
X531500Y1338400D01*
Y1300900D02*
Y1338400D01*
X522580Y1291980D02*
X531500Y1300900D01*
X522580Y1274320D02*
X530840Y1266060D01*
X529610Y1053900D02*
X530840Y1055130D01*
Y1266060D01*
X527000Y1342900D02*
Y1351400D01*
X520500Y1340360D02*
X526960Y1333900D01*
X518040Y1270860D02*
X526300Y1262600D01*
X518040Y1270860D02*
Y1294480D01*
X526300Y1077130D02*
Y1262600D01*
X526960Y1303400D02*
Y1333900D01*
X518040Y1294480D02*
X526960Y1303400D01*
X520500Y1340360D02*
Y1347400D01*
X525070Y1075900D02*
X526300Y1077130D01*
X513500Y1266900D02*
Y1296400D01*
X521760Y1121630D02*
Y1258640D01*
X513500Y1340900D02*
Y1351900D01*
Y1340900D02*
X522420Y1331980D01*
X520530Y1120400D02*
X521760Y1121630D01*
X522420Y1305320D02*
Y1331980D01*
X513500Y1266900D02*
X521760Y1258640D01*
X513500Y1296400D02*
X522420Y1305320D01*
X378540Y1296860D02*
Y1339440D01*
X392050Y1268900D02*
Y1283350D01*
X378540Y1339440D02*
X382000Y1342900D01*
X378540Y1296860D02*
X392050Y1283350D01*
X336500Y1293400D02*
Y1348900D01*
Y1293400D02*
X359040Y1270860D01*
X386280Y1229630D02*
X390010Y1225900D01*
X386280Y1229630D02*
Y1282143D01*
X374000Y1348400D02*
X376000Y1350400D01*
X374000Y1294423D02*
X386280Y1282143D01*
X374000Y1294423D02*
Y1348400D01*
X459360Y1281760D02*
X468000Y1290400D01*
X459360Y841790D02*
Y1281760D01*
Y841790D02*
X463500Y837650D01*
X468000Y1290400D02*
Y1352400D01*
X436660Y670990D02*
X440500Y667150D01*
X415500Y1310900D02*
Y1349400D01*
Y1310900D02*
X436660Y1289740D01*
Y670990D02*
Y1289740D01*
X450280Y770870D02*
X454000Y767150D01*
X442500Y1318900D02*
Y1346129D01*
X439830Y1348799D02*
X442500Y1346129D01*
X450280Y770870D02*
Y1311120D01*
X442500Y1318900D02*
X450280Y1311120D01*
X445540Y1306660D02*
Y1307860D01*
X437000Y1316400D02*
Y1342400D01*
X447750Y734650D02*
X450000D01*
X431670Y1347730D02*
Y1348799D01*
X437000Y1316400D02*
X445540Y1307860D01*
X431670Y1347730D02*
X437000Y1342400D01*
X445740Y736660D02*
X447750Y734650D01*
X454820Y805080D02*
Y1288220D01*
Y805080D02*
X458500Y801400D01*
Y800650D02*
Y801400D01*
X454820Y1288220D02*
X461500Y1294900D01*
X432100Y1308800D02*
Y1338800D01*
X441200Y704950D02*
Y1299700D01*
X432100Y1308800D02*
X441200Y1299700D01*
X423548Y1347352D02*
Y1348799D01*
Y1347352D02*
X432100Y1338800D01*
X441200Y704950D02*
X445000Y701150D01*
X404500Y1290690D02*
X407710D01*
X418000Y1280400D01*
X421250Y535150D02*
X439400D01*
X418000Y538400D02*
Y1280400D01*
Y538400D02*
X421250Y535150D01*
X466000Y871150D02*
X468000Y869150D01*
X472540Y1346440D02*
X474500Y1348400D01*
X472540Y1288519D02*
Y1346440D01*
X466000Y1281980D02*
X472540Y1288519D01*
X466000Y871150D02*
Y1281980D01*
X432120Y638530D02*
Y1287621D01*
X409000Y1310741D02*
X432120Y1287621D01*
Y638530D02*
X436000Y634650D01*
X409000Y1310741D02*
Y1352900D01*
X423040Y561900D02*
Y1283860D01*
X397500Y1309400D02*
X423040Y1283860D01*
X396000Y1343400D02*
Y1352900D01*
Y1343400D02*
X397500Y1341900D01*
Y1309400D02*
Y1341900D01*
X427580Y605320D02*
X432250Y600650D01*
X441000D01*
X402500Y1310820D02*
X427580Y1285741D01*
X402500Y1310820D02*
Y1348900D01*
X427580Y605320D02*
Y1285741D01*
X451000Y1318560D02*
X453279Y1316281D01*
X480560Y563862D02*
X481000Y563422D01*
X480560Y563862D02*
Y1266400D01*
X481000Y561541D02*
Y561541D01*
X487691Y1349841D02*
X490960Y1346572D01*
Y1276800D02*
Y1346572D01*
X481000Y561541D02*
Y563422D01*
X456000Y469650D02*
X481000Y494650D01*
Y561541D01*
X480560Y1266400D02*
X490960Y1276800D01*
X476460Y559661D02*
X476460Y561542D01*
X476020Y561982D02*
X476020Y561982D01*
X486420Y1281300D02*
Y1342480D01*
X481000Y1347900D02*
Y1351900D01*
X476460Y540110D02*
Y559661D01*
X476020Y561982D02*
X476460Y561542D01*
X476020Y561982D02*
Y561982D01*
X476020Y561982D02*
X476020Y564071D01*
X456000Y519650D02*
X476460Y540110D01*
X476020Y564071D02*
Y1270900D01*
X481000Y1347900D02*
X486420Y1342480D01*
X476460Y559661D02*
X476460Y559661D01*
X476020Y1270900D02*
X486420Y1281300D01*
D11*
X463500Y837650D02*
D03*
Y821150D02*
D03*
X440500Y667150D02*
D03*
Y650650D02*
D03*
X454000Y767150D02*
D03*
Y750650D02*
D03*
X450000Y734650D02*
D03*
Y718150D02*
D03*
X458500Y800650D02*
D03*
Y784150D02*
D03*
X445000Y701150D02*
D03*
Y684650D02*
D03*
X439500Y535150D02*
D03*
Y518650D02*
D03*
X468000Y869150D02*
D03*
Y852650D02*
D03*
X436000Y634650D02*
D03*
Y618150D02*
D03*
X439500Y551150D02*
D03*
Y567650D02*
D03*
Y600650D02*
D03*
Y584150D02*
D03*
X456000Y469650D02*
D03*
Y453150D02*
D03*
Y519650D02*
D03*
Y503150D02*
D03*
D12*
X388750Y1385400D02*
D03*
X404250D02*
D03*
X450750Y1393400D02*
D03*
X466250D02*
D03*
D13*
X329000Y1473000D02*
D03*
D14*
Y1423000D02*
D03*
X554190Y1437900D02*
D03*
D15*
X504100Y259900D02*
D03*
Y395400D02*
D03*
Y529415D02*
D03*
Y663429D02*
D03*
Y797444D02*
D03*
Y931459D02*
D03*
Y1065473D02*
D03*
X503688Y1199900D02*
D03*
X401600Y260000D02*
D03*
Y395500D02*
D03*
Y529515D02*
D03*
Y663529D02*
D03*
Y797544D02*
D03*
Y931559D02*
D03*
Y1065573D02*
D03*
Y1199950D02*
D03*
X198600Y222500D02*
D03*
Y297500D02*
D03*
X248600Y222500D02*
D03*
Y297500D02*
D03*
X148200Y222500D02*
D03*
Y297500D02*
D03*
X401600D02*
D03*
Y222500D02*
D03*
X707100Y297400D02*
D03*
Y222400D02*
D03*
X657100Y297400D02*
D03*
Y222400D02*
D03*
X757500Y297400D02*
D03*
Y222400D02*
D03*
X504100D02*
D03*
Y297400D02*
D03*
Y432900D02*
D03*
Y357900D02*
D03*
X757500D02*
D03*
Y432900D02*
D03*
X657100Y357900D02*
D03*
Y432900D02*
D03*
X707100Y357900D02*
D03*
Y432900D02*
D03*
X401600Y894059D02*
D03*
Y969059D02*
D03*
X148200D02*
D03*
Y894059D02*
D03*
X248600Y969059D02*
D03*
Y894059D02*
D03*
X198600Y969059D02*
D03*
Y894059D02*
D03*
X401600Y492015D02*
D03*
Y567015D02*
D03*
X148200D02*
D03*
Y492015D02*
D03*
X248600Y567015D02*
D03*
Y492015D02*
D03*
X198600Y567015D02*
D03*
Y492015D02*
D03*
X401600Y1028073D02*
D03*
Y1103073D02*
D03*
X148200D02*
D03*
Y1028073D02*
D03*
X248600Y1103073D02*
D03*
Y1028073D02*
D03*
X198600Y1103073D02*
D03*
Y1028073D02*
D03*
X401600Y358000D02*
D03*
Y433000D02*
D03*
X148200D02*
D03*
Y358000D02*
D03*
X248600Y433000D02*
D03*
Y358000D02*
D03*
X198600Y433000D02*
D03*
Y358000D02*
D03*
X504100Y700929D02*
D03*
Y625929D02*
D03*
X757500D02*
D03*
Y700929D02*
D03*
X657100Y625929D02*
D03*
Y700929D02*
D03*
X707100Y625929D02*
D03*
Y700929D02*
D03*
X504100Y968959D02*
D03*
Y893959D02*
D03*
X757500D02*
D03*
Y968959D02*
D03*
X657100Y893959D02*
D03*
Y968959D02*
D03*
X707100Y893959D02*
D03*
Y968959D02*
D03*
X504100Y566915D02*
D03*
Y491915D02*
D03*
X757500D02*
D03*
Y566915D02*
D03*
X657100Y491915D02*
D03*
Y566915D02*
D03*
X707100Y491915D02*
D03*
Y566915D02*
D03*
X504100Y1102973D02*
D03*
Y1027973D02*
D03*
X757500D02*
D03*
Y1102973D02*
D03*
X657100Y1027973D02*
D03*
Y1102973D02*
D03*
X707100Y1027973D02*
D03*
Y1102973D02*
D03*
X401600Y626029D02*
D03*
Y701029D02*
D03*
X148200D02*
D03*
Y626029D02*
D03*
X248600Y701029D02*
D03*
Y626029D02*
D03*
X198600Y701029D02*
D03*
Y626029D02*
D03*
X401600Y1162450D02*
D03*
Y1237450D02*
D03*
X148200D02*
D03*
Y1162450D02*
D03*
X248600Y1237450D02*
D03*
Y1162450D02*
D03*
X198600Y1237450D02*
D03*
Y1162450D02*
D03*
X401600Y760044D02*
D03*
Y835044D02*
D03*
X148200D02*
D03*
Y760044D02*
D03*
X248600Y835044D02*
D03*
Y760044D02*
D03*
X198600Y835044D02*
D03*
Y760044D02*
D03*
X504100Y834944D02*
D03*
Y759944D02*
D03*
X757500D02*
D03*
Y834944D02*
D03*
X657100Y759944D02*
D03*
Y834944D02*
D03*
X707100Y759944D02*
D03*
Y834944D02*
D03*
X503688Y1237400D02*
D03*
Y1162400D02*
D03*
X757088D02*
D03*
Y1237400D02*
D03*
X656688Y1162400D02*
D03*
Y1237400D02*
D03*
X706688Y1162400D02*
D03*
Y1237400D02*
D03*
D16*
X415100Y1487400D02*
D03*
X414900Y93900D02*
D03*
D17*
X604190Y1437900D02*
D03*
D18*
X233000Y1297900D02*
D03*
X673000Y147900D02*
D03*
X233000D02*
D03*
X673000Y1297900D02*
D03*
D19*
X829000Y234550D02*
D03*
X77000Y285350D02*
D03*
X829000Y370050D02*
D03*
Y772094D02*
D03*
X77000Y1225300D02*
D03*
X829000Y1174500D02*
D03*
Y906109D02*
D03*
X77000Y822894D02*
D03*
Y1090923D02*
D03*
Y554865D02*
D03*
Y688879D02*
D03*
X829000Y504065D02*
D03*
X77000Y956909D02*
D03*
X829000Y1040123D02*
D03*
X77000Y420850D02*
D03*
X829000Y638079D02*
D03*
D20*
Y285350D02*
D03*
X77000Y234550D02*
D03*
X829000Y420850D02*
D03*
Y822894D02*
D03*
X77000Y1174500D02*
D03*
X829000Y1225300D02*
D03*
Y956909D02*
D03*
X77000Y772094D02*
D03*
Y1040123D02*
D03*
Y504065D02*
D03*
Y638079D02*
D03*
X829000Y554865D02*
D03*
X77000Y906109D02*
D03*
X829000Y1090923D02*
D03*
X77000Y370050D02*
D03*
X829000Y688879D02*
D03*
D21*
X491100Y93900D02*
D03*
X465700D02*
D03*
X440300D02*
D03*
X491300Y1487400D02*
D03*
X465900D02*
D03*
X440500D02*
D03*
D22*
X469867Y829017D02*
X470250Y829400D01*
X469867Y826767D02*
Y829017D01*
X464250Y821150D02*
X469867Y826767D01*
X463500Y821150D02*
X464250D01*
X388750Y1384650D02*
Y1385400D01*
Y1341650D02*
Y1384650D01*
X449750Y650650D02*
X450000Y650400D01*
X440500Y650650D02*
X449750D01*
X454000Y750650D02*
X460250D01*
X467500Y757900D01*
Y766150D01*
X470250Y768900D01*
X450000Y718150D02*
X457750D01*
X458000Y717900D01*
Y776400D02*
X458500Y776900D01*
Y784150D01*
X452750Y684650D02*
X457000Y688900D01*
Y702400D01*
X445000Y684650D02*
X452750D01*
X431750Y518650D02*
X439500D01*
X431500Y518400D02*
X431750Y518650D01*
X468000Y847900D02*
Y852650D01*
X467500Y847400D02*
X468000Y847900D01*
X436000Y618150D02*
X445750D01*
X453500Y625900D01*
Y634900D01*
X423040Y561900D02*
X433790Y551150D01*
X439500D01*
Y567650D02*
X454250D01*
X455000Y568400D01*
X451250Y584150D02*
X451500Y584400D01*
X439500Y584150D02*
X451250D01*
X513500Y1317360D02*
Y1334154D01*
X507270Y1405170D02*
X507500Y1405400D01*
X305000Y1320900D02*
Y1363900D01*
X541000Y1404900D02*
X567000Y1378900D01*
X507270Y1340384D02*
Y1405170D01*
X537000Y1404900D02*
X541000D01*
X450750Y1318810D02*
Y1393400D01*
X305000Y1363900D02*
X308500Y1367400D01*
X388750Y1395150D02*
X399000Y1405400D01*
X450750Y1318810D02*
X453279Y1316281D01*
X450750Y1393400D02*
X451000Y1393650D01*
X388750Y1341650D02*
X391500Y1338900D01*
X567000Y1320630D02*
Y1378900D01*
X391500Y1299767D02*
Y1338900D01*
X451000Y1393650D02*
Y1405400D01*
X371500Y1367400D02*
X388750Y1384650D01*
X567000Y1320630D02*
X567230Y1320400D01*
X391500Y1299767D02*
X396080Y1295187D01*
X308500Y1367400D02*
X371500D01*
X399000Y1405400D02*
X402500D01*
X507270Y1340384D02*
X513500Y1334154D01*
X388750Y1385400D02*
Y1395150D01*
X433500Y453400D02*
X433750Y453150D01*
X456000D01*
Y503150D02*
X471250D01*
X471500Y502900D01*
D23*
X566500Y259459D02*
X566959Y259000D01*
X566500Y259459D02*
Y529415D01*
X330500Y264000D02*
Y412400D01*
X566500Y1199900D02*
Y1255400D01*
Y1065473D02*
Y1199900D01*
Y947400D02*
Y1065473D01*
Y797444D02*
Y947400D01*
Y663429D02*
Y797444D01*
Y529415D02*
Y663429D01*
X330500Y1199950D02*
Y1253750D01*
Y1065573D02*
Y1199950D01*
Y931559D02*
Y1065573D01*
Y797544D02*
Y931559D01*
Y663529D02*
Y797544D01*
Y529515D02*
Y663529D01*
Y412400D02*
Y529515D01*
X298700Y1473000D02*
X329000D01*
X277350Y1451650D02*
X298700Y1473000D01*
X584500Y1273400D02*
Y1401800D01*
X277350Y1306900D02*
X330500Y1253750D01*
X566500Y1255400D02*
X584500Y1273400D01*
X277350Y1306900D02*
Y1451650D01*
X584500Y1401800D02*
X603350Y1420650D01*
D24*
X320850Y1398400D02*
X325700D01*
X334450Y1407150D01*
D25*
X757500Y222400D02*
X769650Y234550D01*
X757500Y222400D02*
Y242327D01*
Y256827D01*
Y267827D01*
Y282327D01*
X707100Y310427D02*
X709750Y313077D01*
X720250Y323577D01*
X725000Y328327D01*
X738000D02*
X755500D01*
X725000D02*
X738000D01*
X757500Y282327D02*
Y297400D01*
X825500Y316327D02*
X829000Y312827D01*
X813500Y328327D02*
X825500Y316327D01*
X755500Y328327D02*
X782500D01*
X804500D01*
X813500D01*
X148500Y237573D02*
Y252073D01*
X150500Y191573D02*
X168000D01*
X181000D01*
X185750Y196323D01*
X196250Y206823D01*
X198900Y209473D01*
X77000Y207073D02*
X80500Y203573D01*
X92500Y191573D01*
X101500D01*
X123500D01*
X150500D01*
X136350Y285350D02*
X148500Y297500D01*
Y263073D02*
Y277573D01*
Y297500D01*
Y222500D02*
Y237573D01*
Y252073D02*
Y263073D01*
X757500Y392327D02*
Y403327D01*
Y357900D02*
Y377827D01*
Y392327D01*
Y357900D02*
X769650Y370050D01*
X757500Y403327D02*
Y417827D01*
Y432900D01*
X813500Y463827D02*
X825500Y451827D01*
X804500Y463827D02*
X813500D01*
X707100Y445927D02*
X709750Y448577D01*
X738000Y463827D02*
X755500D01*
X782500D02*
X804500D01*
X755500D02*
X782500D01*
X709750Y448577D02*
X720250Y459077D01*
X725000Y463827D01*
X738000D01*
X825500Y451827D02*
X829000Y448327D01*
X123500Y997147D02*
X150500D01*
X168000D02*
X181000D01*
X92500D02*
X101500D01*
X196250Y1012397D02*
X198900Y1015047D01*
X77000Y1012647D02*
X80500Y1009147D01*
X150500Y997147D02*
X168000D01*
X181000D02*
X185750Y1001897D01*
X80500Y1009147D02*
X92500Y997147D01*
X185750Y1001897D02*
X196250Y1012397D01*
X101500Y997147D02*
X123500D01*
X148500Y1028073D02*
Y1043147D01*
X136350Y1090923D02*
X148500Y1103073D01*
Y1068647D02*
Y1083147D01*
Y1103073D01*
Y1057647D02*
Y1068647D01*
Y1043147D02*
Y1057647D01*
X757500Y939385D02*
Y953885D01*
Y928385D02*
Y939385D01*
Y913885D02*
Y928385D01*
Y893959D02*
X769650Y906109D01*
X757500Y893959D02*
Y913885D01*
Y953885D02*
Y968959D01*
X782500Y999885D02*
X804500D01*
X738000D02*
X755500D01*
X720250Y995135D02*
X725000Y999885D01*
X709750Y984635D02*
X720250Y995135D01*
X755500Y999885D02*
X782500D01*
X804500D02*
X813500D01*
X707100Y981985D02*
X709750Y984635D01*
X825500Y987885D02*
X829000Y984385D01*
X813500Y999885D02*
X825500Y987885D01*
X725000Y999885D02*
X738000D01*
X168000Y461088D02*
X181000D01*
X185750Y465838D02*
X196250Y476338D01*
X181000Y461088D02*
X185750Y465838D01*
X77000Y476588D02*
X80500Y473088D01*
X92500Y461088D02*
X101500D01*
X196250Y476338D02*
X198900Y478988D01*
X80500Y473088D02*
X92500Y461088D01*
X101500D02*
X123500D01*
X150500D02*
X168000D01*
X123500D02*
X150500D01*
X148500Y507088D02*
Y521588D01*
Y532588D01*
Y492015D02*
Y507088D01*
Y547088D02*
Y567015D01*
Y532588D02*
Y547088D01*
X136350Y554865D02*
X148500Y567015D01*
X80500Y607103D02*
X92500Y595103D01*
X77000Y610603D02*
X80500Y607103D01*
X123500Y595103D02*
X150500D01*
X101500D02*
X123500D01*
X196250Y610353D02*
X198900Y613003D01*
X181000Y595103D02*
X185750Y599853D01*
X196250Y610353D01*
X92500Y595103D02*
X101500D01*
X150500D02*
X168000D01*
X181000D01*
X148500Y641103D02*
Y655603D01*
Y681103D02*
Y701029D01*
Y666603D02*
Y681103D01*
X136350Y688879D02*
X148500Y701029D01*
Y655603D02*
Y666603D01*
Y626029D02*
Y641103D01*
X813500Y597841D02*
X825500Y585841D01*
X738000Y597841D02*
X755500D01*
X782500D02*
X804500D01*
X725000D02*
X738000D01*
X707100Y579941D02*
X709750Y582591D01*
X720250Y593091D02*
X725000Y597841D01*
X825500Y585841D02*
X829000Y582341D01*
X755500Y597841D02*
X782500D01*
X804500D02*
X813500D01*
X709750Y582591D02*
X720250Y593091D01*
X757500Y491915D02*
Y511841D01*
Y491915D02*
X769650Y504065D01*
X757500Y537341D02*
Y551841D01*
Y511841D02*
Y526341D01*
Y551841D02*
Y566915D01*
Y526341D02*
Y537341D01*
X181000Y863132D02*
X185750Y867882D01*
X77000Y878632D02*
X80500Y875132D01*
X150500Y863132D02*
X168000D01*
X92500D02*
X101500D01*
X168000D02*
X181000D01*
X123500D02*
X150500D01*
X185750Y867882D02*
X196250Y878382D01*
X101500Y863132D02*
X123500D01*
X196250Y878382D02*
X198900Y881032D01*
X80500Y875132D02*
X92500Y863132D01*
X148500Y934632D02*
Y949132D01*
X136350Y956909D02*
X148500Y969059D01*
Y923632D02*
Y934632D01*
Y909132D02*
Y923632D01*
Y894059D02*
Y909132D01*
Y949132D02*
Y969059D01*
X709750Y1118650D02*
X720250Y1129150D01*
X813500Y1133900D02*
X825500Y1121900D01*
X804500Y1133900D02*
X813500D01*
X782500D02*
X804500D01*
X825500Y1121900D02*
X829000Y1118400D01*
X755500Y1133900D02*
X782500D01*
X720250Y1129150D02*
X725000Y1133900D01*
X738000D02*
X755500D01*
X707100Y1116000D02*
X709750Y1118650D01*
X725000Y1133900D02*
X738000D01*
X757500Y1027973D02*
X769650Y1040123D01*
X757500Y1047900D02*
Y1062400D01*
Y1087900D02*
Y1102973D01*
Y1062400D02*
Y1073400D01*
Y1087900D01*
Y1027973D02*
Y1047900D01*
X136350Y1225300D02*
X148500Y1237450D01*
Y1162450D02*
Y1177523D01*
Y1192023D01*
Y1203023D01*
Y1217523D01*
Y1237450D01*
X80500Y1143523D02*
X92500Y1131523D01*
X185750Y1136273D02*
X196250Y1146773D01*
X150500Y1131523D02*
X168000D01*
X181000D02*
X185750Y1136273D01*
X77000Y1147023D02*
X80500Y1143523D01*
X123500Y1131523D02*
X150500D01*
X168000D02*
X181000D01*
X92500D02*
X101500D01*
X196250Y1146773D02*
X198900Y1149423D01*
X101500Y1131523D02*
X123500D01*
X101500Y327073D02*
X123500D01*
X92500D02*
X101500D01*
X77000Y342573D02*
X80500Y339073D01*
X168000Y327073D02*
X181000D01*
X185750Y331823D02*
X196250Y342323D01*
X150500Y327073D02*
X168000D01*
X181000D02*
X185750Y331823D01*
X80500Y339073D02*
X92500Y327073D01*
X196250Y342323D02*
X198900Y344973D01*
X123500Y327073D02*
X150500D01*
X148500Y358000D02*
Y373073D01*
Y387573D02*
Y398573D01*
Y373073D02*
Y387573D01*
Y413073D02*
Y433000D01*
Y398573D02*
Y413073D01*
X136350Y420850D02*
X148500Y433000D01*
Y815117D02*
Y835044D01*
X136350Y822894D02*
X148500Y835044D01*
Y760044D02*
Y775117D01*
Y789617D01*
Y800617D01*
Y815117D01*
X80500Y741117D02*
X92500Y729117D01*
X196250Y744367D02*
X198900Y747017D01*
X168000Y729117D02*
X181000D01*
X92500D02*
X101500D01*
X185750Y733867D02*
X196250Y744367D01*
X77000Y744617D02*
X80500Y741117D01*
X150500Y729117D02*
X168000D01*
X123500D02*
X150500D01*
X181000D02*
X185750Y733867D01*
X101500Y729117D02*
X123500D01*
X738000Y731856D02*
X755500D01*
X709750Y716606D02*
X720250Y727106D01*
X725000Y731856D01*
X707100Y713956D02*
X709750Y716606D01*
X813500Y731856D02*
X825500Y719856D01*
X804500Y731856D02*
X813500D01*
X782500D02*
X804500D01*
X825500Y719856D02*
X829000Y716356D01*
X725000Y731856D02*
X738000D01*
X755500D02*
X782500D01*
X757500Y671356D02*
Y685856D01*
Y645856D02*
Y660356D01*
Y685856D02*
Y700929D01*
Y625929D02*
Y645856D01*
Y625929D02*
X769650Y638079D01*
X757500Y660356D02*
Y671356D01*
Y759944D02*
X769650Y772094D01*
X757500Y805371D02*
Y819871D01*
Y779871D02*
Y794371D01*
Y759944D02*
Y779871D01*
Y819871D02*
Y834944D01*
Y794371D02*
Y805371D01*
X825500Y853871D02*
X829000Y850371D01*
X720250Y861121D02*
X725000Y865871D01*
X804500D02*
X813500D01*
X755500D02*
X782500D01*
X738000D02*
X755500D01*
X782500D02*
X804500D01*
X709750Y850621D02*
X720250Y861121D01*
X707100Y847971D02*
X709750Y850621D01*
X725000Y865871D02*
X738000D01*
X813500D02*
X825500Y853871D01*
X757500Y1162350D02*
X769650Y1174500D01*
X757500Y1196777D02*
Y1207777D01*
Y1222277D01*
Y1182277D02*
Y1196777D01*
Y1162350D02*
Y1182277D01*
Y1222277D02*
Y1237350D01*
X707100Y1250377D02*
X709750Y1253027D01*
X720250Y1263527D01*
X804500Y1268277D02*
X813500D01*
X782500D02*
X804500D01*
X813500D02*
X825500Y1256277D01*
X720250Y1263527D02*
X725000Y1268277D01*
X755500D02*
X782500D01*
X825500Y1256277D02*
X829000Y1252777D01*
X725000Y1268277D02*
X738000D01*
X755500D01*
D26*
X769650Y234550D02*
X777500D01*
X794000D01*
X811500D02*
X829000D01*
X794000D02*
X811500D01*
X707100Y222400D02*
Y241827D01*
Y254827D01*
Y266827D01*
Y280327D01*
Y297400D01*
Y310427D01*
X829000Y285350D02*
Y302327D01*
Y312827D01*
X77000Y207073D02*
Y217573D01*
Y234550D01*
Y285350D02*
X94500D01*
X112000D01*
X128500D01*
X136350D01*
X198900Y278073D02*
Y297500D01*
Y253073D02*
Y265073D01*
Y278073D01*
Y239573D02*
Y253073D01*
Y222500D02*
Y239573D01*
Y209473D02*
Y222500D01*
X811500Y370050D02*
X829000D01*
X794000D02*
X811500D01*
X769650D02*
X777500D01*
X794000D01*
X829000Y437827D02*
Y448327D01*
X707100Y432900D02*
Y445927D01*
Y357900D02*
Y377327D01*
Y402327D02*
Y415827D01*
Y377327D02*
Y390327D01*
X829000Y420850D02*
Y437827D01*
X707100Y415827D02*
Y432900D01*
Y390327D02*
Y402327D01*
X198900Y1015047D02*
Y1028073D01*
Y1070647D02*
Y1083647D01*
Y1045147D02*
Y1058647D01*
X77000Y1023147D02*
Y1040123D01*
Y1012647D02*
Y1023147D01*
X198900Y1058647D02*
Y1070647D01*
Y1028073D02*
Y1045147D01*
Y1083647D02*
Y1103073D01*
X94500Y1090923D02*
X112000D01*
X128500D01*
X136350D01*
X77000D02*
X94500D01*
X794000Y906109D02*
X811500D01*
X829000D01*
X777500D02*
X794000D01*
X769650D02*
X777500D01*
X707100Y913385D02*
Y926385D01*
X829000Y973885D02*
Y984385D01*
X707100Y926385D02*
Y938385D01*
Y951885D01*
Y968959D02*
Y981985D01*
X829000Y956909D02*
Y973885D01*
X707100Y893959D02*
Y913385D01*
Y951885D02*
Y968959D01*
X198900Y547588D02*
Y567015D01*
Y509088D02*
Y522588D01*
Y534588D01*
Y492015D02*
Y509088D01*
X77000Y476588D02*
Y487088D01*
X198900Y534588D02*
Y547588D01*
X77000Y487088D02*
Y504065D01*
X198900Y478988D02*
Y492015D01*
X112000Y554865D02*
X128500D01*
X77000D02*
X94500D01*
X128500D02*
X136350D01*
X94500D02*
X112000D01*
X198900Y643103D02*
Y656603D01*
Y626029D02*
Y643103D01*
X77000Y621103D02*
Y638079D01*
X198900Y656603D02*
Y668603D01*
X77000Y610603D02*
Y621103D01*
X198900Y681603D02*
Y701029D01*
Y613003D02*
Y626029D01*
Y668603D02*
Y681603D01*
X94500Y688879D02*
X112000D01*
X128500D01*
X77000D02*
X94500D01*
X128500D02*
X136350D01*
X829000Y554865D02*
Y571841D01*
X707100Y536341D02*
Y549841D01*
Y511341D02*
Y524341D01*
Y536341D01*
Y566915D02*
Y579941D01*
X829000Y571841D02*
Y582341D01*
X707100Y491915D02*
Y511341D01*
Y549841D02*
Y566915D01*
X777500Y504065D02*
X794000D01*
X769650D02*
X777500D01*
X794000D02*
X811500D01*
X829000D01*
X198900Y911132D02*
Y924632D01*
Y949632D02*
Y969059D01*
Y924632D02*
Y936632D01*
X77000Y878632D02*
Y889132D01*
Y906109D01*
X198900Y881032D02*
Y894059D01*
Y936632D02*
Y949632D01*
Y894059D02*
Y911132D01*
X112000Y956909D02*
X128500D01*
X136350D01*
X94500D02*
X112000D01*
X77000D02*
X94500D01*
X829000Y1090923D02*
Y1107900D01*
X707100Y1027973D02*
Y1047400D01*
Y1072400D02*
Y1085900D01*
Y1102973D02*
Y1116000D01*
X829000Y1107900D02*
Y1118400D01*
X707100Y1060400D02*
Y1072400D01*
Y1085900D02*
Y1102973D01*
Y1047400D02*
Y1060400D01*
X777500Y1040123D02*
X794000D01*
X811500D02*
X829000D01*
X769650D02*
X777500D01*
X794000D02*
X811500D01*
X77000Y1225300D02*
X94500D01*
X128500D02*
X136350D01*
X94500D02*
X112000D01*
X128500D01*
X198900Y1193023D02*
Y1205023D01*
Y1218023D02*
Y1237450D01*
Y1149423D02*
Y1162450D01*
Y1205023D02*
Y1218023D01*
Y1162450D02*
Y1179523D01*
Y1193023D01*
X77000Y1157523D02*
Y1174500D01*
Y1147023D02*
Y1157523D01*
X198900Y358000D02*
Y375073D01*
Y388573D02*
Y400573D01*
Y344973D02*
Y358000D01*
X77000Y342573D02*
Y353073D01*
X198900Y400573D02*
Y413573D01*
X77000Y353073D02*
Y370050D01*
X198900Y413573D02*
Y433000D01*
Y375073D02*
Y388573D01*
X128500Y420850D02*
X136350D01*
X94500D02*
X112000D01*
X128500D01*
X77000D02*
X94500D01*
X77000Y822894D02*
X94500D01*
X112000D01*
X128500D01*
X136350D01*
X77000Y744617D02*
Y755117D01*
X198900Y802617D02*
Y815617D01*
Y747017D02*
Y760044D01*
Y815617D02*
Y835044D01*
X77000Y755117D02*
Y772094D01*
X198900Y777117D02*
Y790617D01*
Y802617D01*
Y760044D02*
Y777117D01*
X707100Y700929D02*
Y713956D01*
Y683856D02*
Y700929D01*
X829000Y688879D02*
Y705856D01*
X707100Y670356D02*
Y683856D01*
Y645356D02*
Y658356D01*
Y625929D02*
Y645356D01*
Y658356D02*
Y670356D01*
X829000Y705856D02*
Y716356D01*
X811500Y638079D02*
X829000D01*
X794000D02*
X811500D01*
X769650D02*
X777500D01*
X794000D01*
Y772094D02*
X811500D01*
X769650D02*
X777500D01*
X811500D02*
X829000D01*
X777500D02*
X794000D01*
X707100Y834944D02*
Y847971D01*
Y759944D02*
Y779371D01*
X829000Y822894D02*
Y839871D01*
X707100Y817871D02*
Y834944D01*
Y804371D02*
Y817871D01*
Y779371D02*
Y792371D01*
Y804371D01*
X829000Y839871D02*
Y850371D01*
X777500Y1174500D02*
X794000D01*
X811500D01*
X829000D01*
X769650D02*
X777500D01*
X707100Y1194777D02*
Y1206777D01*
Y1220277D02*
Y1237350D01*
X829000Y1242277D02*
Y1252777D01*
X707100Y1162350D02*
Y1181777D01*
Y1206777D02*
Y1220277D01*
Y1237350D02*
Y1250377D01*
X829000Y1225300D02*
Y1242277D01*
X707100Y1181777D02*
Y1194777D01*
D27*
X445540Y735660D02*
Y1306660D01*
D28*
X440500Y1487400D02*
X449350Y1478550D01*
Y1407050D02*
Y1478550D01*
Y1407050D02*
X451000Y1405400D01*
D29*
X470250Y829400D02*
D03*
X401000Y279000D02*
D03*
X505500Y129900D02*
D03*
X494581Y1351111D02*
D03*
X351000Y143900D02*
D03*
X544500Y137400D02*
D03*
X336040Y1284721D02*
D03*
X324500Y1360400D02*
D03*
X501270Y1395400D02*
D03*
X507250Y1305400D02*
D03*
X333500Y1277900D02*
D03*
X350000Y1348900D02*
D03*
X343033Y1351413D02*
D03*
X362500Y1349900D02*
D03*
X392050Y1251400D02*
D03*
X385080Y1334670D02*
D03*
X369000Y1353400D02*
D03*
X355770Y1352900D02*
D03*
X507500Y1280900D02*
D03*
X515990Y1146900D02*
D03*
X556500Y1277400D02*
D03*
X533500Y1291900D02*
D03*
X338330Y1271730D02*
D03*
X528500Y1277900D02*
D03*
X345000Y106400D02*
D03*
X480650Y1328900D02*
D03*
X539500D02*
D03*
X480650Y1316400D02*
D03*
X426330Y1328900D02*
D03*
X422000Y1315400D02*
D03*
X539500Y1315900D02*
D03*
X324500Y1326400D02*
D03*
X501730Y1322900D02*
D03*
X573000Y1382400D02*
D03*
X462000Y1381900D02*
D03*
X572500Y1305900D02*
D03*
X462230Y1317360D02*
D03*
X553000Y1350900D02*
D03*
X545500Y904900D02*
D03*
X546000Y1347900D02*
D03*
X538000Y927900D02*
D03*
X540000Y1351900D02*
D03*
X538690Y990400D02*
D03*
X533046Y1347873D02*
D03*
X534150Y1005900D02*
D03*
X527000Y1351400D02*
D03*
X529610Y1053900D02*
D03*
X520500Y1347400D02*
D03*
X525070Y1075900D02*
D03*
X513500Y1351900D02*
D03*
X520530Y1120400D02*
D03*
X392050Y1268900D02*
D03*
X382000Y1342900D02*
D03*
X336500Y1348900D02*
D03*
X376000Y1350400D02*
D03*
X390010Y1225900D02*
D03*
X468000Y1352400D02*
D03*
X415500Y1349400D02*
D03*
X450000Y650400D02*
D03*
X439830Y1348799D02*
D03*
X470250Y768900D02*
D03*
X431670Y1348799D02*
D03*
X458000Y717900D02*
D03*
X461500Y1294900D02*
D03*
X458000Y776400D02*
D03*
X423548Y1348799D02*
D03*
X457000Y702400D02*
D03*
X404500Y1290690D02*
D03*
X431500Y518400D02*
D03*
X474500Y1348400D02*
D03*
X467500Y847400D02*
D03*
X409000Y1352900D02*
D03*
X453500Y634900D02*
D03*
X396000Y1352900D02*
D03*
X455000Y568400D02*
D03*
X402500Y1348900D02*
D03*
X451500Y584400D02*
D03*
X396080Y1295187D02*
D03*
X567230Y1320400D02*
D03*
X513500Y1317360D02*
D03*
X453279Y1316281D02*
D03*
X487691Y1349841D02*
D03*
X433500Y453400D02*
D03*
X481000Y1351900D02*
D03*
X471500Y502900D02*
D03*
D30*
X476500Y280775D02*
D03*
X497000Y282000D02*
D03*
X456000Y265000D02*
D03*
X419000Y269000D02*
D03*
X530000Y270000D02*
D03*
X456000Y289000D02*
D03*
X480000Y145000D02*
D03*
X367500Y192400D02*
D03*
X378500Y164400D02*
D03*
X383500Y304400D02*
D03*
X425500Y306400D02*
D03*
X307500Y292400D02*
D03*
X311500Y230400D02*
D03*
X315500Y191400D02*
D03*
X317500Y260400D02*
D03*
X322500Y140400D02*
D03*
X334500Y173400D02*
D03*
X473000Y305000D02*
D03*
X523500Y236400D02*
D03*
X526500Y184400D02*
D03*
X529500Y151400D02*
D03*
X554500Y290400D02*
D03*
X556500Y237400D02*
D03*
X557500Y178400D02*
D03*
X566500Y137400D02*
D03*
X580500Y291400D02*
D03*
X584500Y229400D02*
D03*
X588500Y190400D02*
D03*
X590500Y259400D02*
D03*
X537000Y1404900D02*
D03*
X305000Y1320900D02*
D03*
X402500Y1405400D02*
D03*
X507500D02*
D03*
X553500Y773400D02*
D03*
X320500Y894400D02*
D03*
X405500Y1183400D02*
D03*
X393500Y1143400D02*
D03*
X403500Y335400D02*
D03*
X309500Y1208900D02*
D03*
X394500Y949400D02*
D03*
X521500Y713400D02*
D03*
X408500Y63400D02*
D03*
X579500Y1208400D02*
D03*
X394500Y871400D02*
D03*
X406500Y1127400D02*
D03*
X579500Y626400D02*
D03*
X590500Y656400D02*
D03*
X319500Y495400D02*
D03*
Y956400D02*
D03*
X409500Y1083400D02*
D03*
X390500Y1122400D02*
D03*
X527500Y373400D02*
D03*
X388500Y1045400D02*
D03*
X381500Y332400D02*
D03*
X592500Y394400D02*
D03*
X582500Y1248400D02*
D03*
X390500Y1179400D02*
D03*
X520500Y1022400D02*
D03*
X319500Y1014400D02*
D03*
X390500Y985400D02*
D03*
X580500Y805400D02*
D03*
X533500Y825400D02*
D03*
X441500Y298400D02*
D03*
X391500Y720400D02*
D03*
X531500Y504400D02*
D03*
X532500Y477400D02*
D03*
X522500Y847400D02*
D03*
X582500Y96400D02*
D03*
X591500Y766400D02*
D03*
X553500Y854400D02*
D03*
Y449400D02*
D03*
X306500Y427400D02*
D03*
X384500Y428400D02*
D03*
X319500Y395400D02*
D03*
X507500Y1180400D02*
D03*
X591500Y294400D02*
D03*
X320500Y349400D02*
D03*
X324500Y74400D02*
D03*
X520500Y594400D02*
D03*
X551500Y680400D02*
D03*
X519500Y1098400D02*
D03*
X307500Y683400D02*
D03*
X579500Y569400D02*
D03*
X554500Y354400D02*
D03*
X535500Y758400D02*
D03*
X318500Y1129400D02*
D03*
X500500Y63400D02*
D03*
X496500Y1218400D02*
D03*
X318500Y837400D02*
D03*
X532500Y972400D02*
D03*
X392500Y779400D02*
D03*
X592500Y707400D02*
D03*
X580500Y376400D02*
D03*
X519500Y957400D02*
D03*
X410500Y855400D02*
D03*
X308500Y515400D02*
D03*
X407500Y1049400D02*
D03*
X525500Y544400D02*
D03*
X554500Y816400D02*
D03*
X372500Y66400D02*
D03*
X310500Y476400D02*
D03*
X455500Y66400D02*
D03*
X410500Y876400D02*
D03*
X307500Y377400D02*
D03*
X563500Y71400D02*
D03*
X523500Y780400D02*
D03*
X507500Y1218400D02*
D03*
X581500Y514400D02*
D03*
X592500Y1181400D02*
D03*
X578500Y1102400D02*
D03*
X580500Y978400D02*
D03*
X308500Y1044400D02*
D03*
X319500Y1182400D02*
D03*
X591500Y600400D02*
D03*
X524500Y339400D02*
D03*
Y879400D02*
D03*
X580500Y682400D02*
D03*
X579500Y864400D02*
D03*
X311000Y1102900D02*
D03*
X393500Y744400D02*
D03*
X592000Y954000D02*
D03*
X390500Y1083400D02*
D03*
X591500Y450400D02*
D03*
X320500Y540400D02*
D03*
X390500Y586400D02*
D03*
X407500Y915400D02*
D03*
X408500Y415400D02*
D03*
X533500Y695400D02*
D03*
X583500Y321400D02*
D03*
X411500Y947400D02*
D03*
X317500Y657400D02*
D03*
X514500Y453400D02*
D03*
X318500Y601400D02*
D03*
X391500Y910400D02*
D03*
X497000Y607400D02*
D03*
X409500Y547400D02*
D03*
X319500Y708400D02*
D03*
X580500Y921400D02*
D03*
X408500Y988400D02*
D03*
X592500Y494400D02*
D03*
X533500Y430400D02*
D03*
X518500Y413400D02*
D03*
X531500Y564400D02*
D03*
X521500Y742400D02*
D03*
X406500Y681400D02*
D03*
X408500Y1143400D02*
D03*
X519500Y1110400D02*
D03*
X406500Y606400D02*
D03*
X307500Y806400D02*
D03*
X522500Y676400D02*
D03*
X553500Y743400D02*
D03*
X552500Y548400D02*
D03*
X591500Y1128400D02*
D03*
X552500Y578400D02*
D03*
X554500Y411400D02*
D03*
X581500Y1043400D02*
D03*
X392500Y682400D02*
D03*
X310500Y322400D02*
D03*
X389500Y510400D02*
D03*
X552500Y614400D02*
D03*
X593500Y348400D02*
D03*
X306500Y865400D02*
D03*
X553500Y304400D02*
D03*
X409500Y732400D02*
D03*
X593500Y893400D02*
D03*
X342500Y86400D02*
D03*
X306500Y570400D02*
D03*
X318500Y1231400D02*
D03*
X591500Y1230400D02*
D03*
X583500Y475400D02*
D03*
X307500Y979400D02*
D03*
X306500Y627400D02*
D03*
X308500Y733400D02*
D03*
X552500Y643400D02*
D03*
X409500Y779400D02*
D03*
X579500Y426400D02*
D03*
X390500Y1007400D02*
D03*
X580500Y1154400D02*
D03*
X523500Y645400D02*
D03*
X551500Y714400D02*
D03*
X591500Y1070400D02*
D03*
X318500Y451400D02*
D03*
X392500Y853400D02*
D03*
X521500Y807400D02*
D03*
X553500Y498400D02*
D03*
X411500Y1009400D02*
D03*
X526500Y1031400D02*
D03*
X410500Y817400D02*
D03*
X581500Y732400D02*
D03*
X535500Y616400D02*
D03*
X591500Y836400D02*
D03*
X496500Y1180400D02*
D03*
X307500Y1155400D02*
D03*
X593500Y539400D02*
D03*
X318500Y1071400D02*
D03*
X409500Y473400D02*
D03*
X396500Y814400D02*
D03*
X309500Y1249400D02*
D03*
X529500Y306400D02*
D03*
X307500Y922400D02*
D03*
X318500Y295400D02*
D03*
Y767400D02*
D03*
X592500Y1013400D02*
D03*
D31*
X567000Y259000D02*
D03*
X330000Y264000D02*
D03*
X328850Y1398307D02*
D03*
X320850Y1398400D02*
D03*
X337100Y1398307D02*
D03*
X618275Y1437900D02*
D03*
X599350Y1457650D02*
D03*
X757500Y256827D02*
D03*
X777500Y234550D02*
D03*
X782500Y328327D02*
D03*
X794000Y234550D02*
D03*
X804500Y328327D02*
D03*
X811500Y234550D02*
D03*
X825500Y316327D02*
D03*
X829000Y302327D02*
D03*
X757500Y282327D02*
D03*
X707100Y241827D02*
D03*
Y280327D02*
D03*
Y266827D02*
D03*
Y254827D02*
D03*
X709750Y313077D02*
D03*
X720250Y323577D02*
D03*
X738000Y328327D02*
D03*
X755500D02*
D03*
X757500Y267827D02*
D03*
Y242327D02*
D03*
X368000Y254900D02*
D03*
X368310Y272900D02*
D03*
X77000Y217573D02*
D03*
X80500Y203573D02*
D03*
X94500Y285350D02*
D03*
X112000D02*
D03*
X128500D02*
D03*
X148500Y252073D02*
D03*
Y237573D02*
D03*
X196250Y206823D02*
D03*
X198900Y239573D02*
D03*
Y253073D02*
D03*
Y265073D02*
D03*
Y278073D02*
D03*
X357000Y231400D02*
D03*
X148500Y263073D02*
D03*
Y277573D02*
D03*
X185750Y196323D02*
D03*
X372850Y316400D02*
D03*
X381930Y402400D02*
D03*
X387500Y451400D02*
D03*
X377390Y355400D02*
D03*
X794000Y370050D02*
D03*
X757500Y417827D02*
D03*
Y403327D02*
D03*
X777500Y370050D02*
D03*
X811500D02*
D03*
X757500Y392327D02*
D03*
Y377827D02*
D03*
X829000Y437827D02*
D03*
X804500Y463827D02*
D03*
X738000D02*
D03*
X707100Y390327D02*
D03*
X825500Y451827D02*
D03*
X707100Y415827D02*
D03*
X782500Y463827D02*
D03*
X720250Y459077D02*
D03*
X709750Y448577D02*
D03*
X707100Y402327D02*
D03*
Y377327D02*
D03*
X755500Y463827D02*
D03*
X101500Y997147D02*
D03*
X196250Y1012397D02*
D03*
X123500Y997147D02*
D03*
X198900Y1045147D02*
D03*
Y1058647D02*
D03*
X185750Y1001897D02*
D03*
X150500Y997147D02*
D03*
X80500Y1009147D02*
D03*
X198900Y1070647D02*
D03*
X168000Y997147D02*
D03*
X77000Y1023147D02*
D03*
X198900Y1083647D02*
D03*
X112000Y1090923D02*
D03*
X148500Y1083147D02*
D03*
X94500Y1090923D02*
D03*
X148500Y1068647D02*
D03*
Y1057647D02*
D03*
X128500Y1090923D02*
D03*
X148500Y1043147D02*
D03*
X794000Y906109D02*
D03*
X757500Y928385D02*
D03*
X777500Y906109D02*
D03*
X757500Y913885D02*
D03*
Y939385D02*
D03*
Y953885D02*
D03*
X811500Y906109D02*
D03*
X720250Y995135D02*
D03*
X755500Y999885D02*
D03*
X707100Y938385D02*
D03*
Y913385D02*
D03*
Y951885D02*
D03*
Y926385D02*
D03*
X804500Y999885D02*
D03*
X825500Y987885D02*
D03*
X709750Y984635D02*
D03*
X738000Y999885D02*
D03*
X782500D02*
D03*
X829000Y973885D02*
D03*
X77000Y487088D02*
D03*
X101500Y461088D02*
D03*
X196250Y476338D02*
D03*
X198900Y547588D02*
D03*
X150500Y461088D02*
D03*
X80500Y473088D02*
D03*
X198900Y534588D02*
D03*
X185750Y465838D02*
D03*
X168000Y461088D02*
D03*
X123500D02*
D03*
X198900Y509088D02*
D03*
Y522588D02*
D03*
X148500Y547088D02*
D03*
Y532588D02*
D03*
Y521588D02*
D03*
X112000Y554865D02*
D03*
X148500Y507088D02*
D03*
X128500Y554865D02*
D03*
X94500D02*
D03*
X77000Y621103D02*
D03*
X198900Y668603D02*
D03*
Y656603D02*
D03*
X101500Y595103D02*
D03*
X168000D02*
D03*
X80500Y607103D02*
D03*
X196250Y610353D02*
D03*
X185750Y599853D02*
D03*
X123500Y595103D02*
D03*
X198900Y643103D02*
D03*
Y681603D02*
D03*
X150500Y595103D02*
D03*
X148500Y666603D02*
D03*
Y641103D02*
D03*
Y655603D02*
D03*
X128500Y688879D02*
D03*
X148500Y681103D02*
D03*
X112000Y688879D02*
D03*
X94500D02*
D03*
X709750Y582591D02*
D03*
X707100Y524341D02*
D03*
Y549841D02*
D03*
Y511341D02*
D03*
X782500Y597841D02*
D03*
X804500D02*
D03*
X755500D02*
D03*
X707100Y536341D02*
D03*
X829000Y571841D02*
D03*
X825500Y585841D02*
D03*
X720250Y593091D02*
D03*
X738000Y597841D02*
D03*
X757500Y511841D02*
D03*
Y526341D02*
D03*
X777500Y504065D02*
D03*
X757500Y551841D02*
D03*
Y537341D02*
D03*
X794000Y504065D02*
D03*
X811500D02*
D03*
X185750Y867882D02*
D03*
X101500Y863132D02*
D03*
X80500Y875132D02*
D03*
X123500Y863132D02*
D03*
X77000Y889132D02*
D03*
X198900Y949632D02*
D03*
X196250Y878382D02*
D03*
X198900Y924632D02*
D03*
Y911132D02*
D03*
Y936632D02*
D03*
X168000Y863132D02*
D03*
X150500D02*
D03*
X148500Y909132D02*
D03*
X112000Y956909D02*
D03*
X128500D02*
D03*
X148500Y949132D02*
D03*
Y934632D02*
D03*
X94500Y956909D02*
D03*
X148500Y923632D02*
D03*
X451000Y1405400D02*
D03*
X591100Y1490150D02*
D03*
X318500Y1348400D02*
D03*
X439500Y1507900D02*
D03*
X468500D02*
D03*
X502000Y1429400D02*
D03*
X417500Y1385400D02*
D03*
X574100Y1401150D02*
D03*
X432500Y1421400D02*
D03*
X479850Y1415900D02*
D03*
X516500Y1504400D02*
D03*
X709750Y1118650D02*
D03*
X707100Y1047400D02*
D03*
X738000Y1133900D02*
D03*
X707100Y1072400D02*
D03*
X720250Y1129150D02*
D03*
X755500Y1133900D02*
D03*
X804500D02*
D03*
X782500D02*
D03*
X829000Y1107900D02*
D03*
X707100Y1085900D02*
D03*
X825500Y1121900D02*
D03*
X707100Y1060400D02*
D03*
X757500Y1047900D02*
D03*
Y1087900D02*
D03*
Y1062400D02*
D03*
X777500Y1040123D02*
D03*
X757500Y1073400D02*
D03*
X794000Y1040123D02*
D03*
X811500D02*
D03*
X148500Y1217523D02*
D03*
Y1203023D02*
D03*
X112000Y1225300D02*
D03*
X128500D02*
D03*
X94500D02*
D03*
X148500Y1177523D02*
D03*
Y1192023D02*
D03*
X198900Y1179523D02*
D03*
X123500Y1131523D02*
D03*
X196250Y1146773D02*
D03*
X101500Y1131523D02*
D03*
X198900Y1218023D02*
D03*
X168000Y1131523D02*
D03*
X185750Y1136273D02*
D03*
X80500Y1143523D02*
D03*
X77000Y1157523D02*
D03*
X198900Y1205023D02*
D03*
Y1193023D02*
D03*
X150500Y1131523D02*
D03*
X77000Y353073D02*
D03*
X196250Y342323D02*
D03*
X198900Y413573D02*
D03*
Y375073D02*
D03*
X80500Y339073D02*
D03*
X168000Y327073D02*
D03*
X198900Y388573D02*
D03*
Y400573D02*
D03*
X185750Y331823D02*
D03*
X123500Y327073D02*
D03*
X150500D02*
D03*
X101500D02*
D03*
X148500Y413073D02*
D03*
Y387573D02*
D03*
X94500Y420850D02*
D03*
X128500D02*
D03*
X112000D02*
D03*
X148500Y398573D02*
D03*
Y373073D02*
D03*
Y775117D02*
D03*
X112000Y822894D02*
D03*
X94500D02*
D03*
X148500Y789617D02*
D03*
Y815117D02*
D03*
Y800617D02*
D03*
X128500Y822894D02*
D03*
X198900Y802617D02*
D03*
Y790617D02*
D03*
X101500Y729117D02*
D03*
X185750Y733867D02*
D03*
X168000Y729117D02*
D03*
X198900Y815617D02*
D03*
Y777117D02*
D03*
X150500Y729117D02*
D03*
X77000Y755117D02*
D03*
X196250Y744367D02*
D03*
X80500Y741117D02*
D03*
X123500Y729117D02*
D03*
X709750Y716606D02*
D03*
X804500Y731856D02*
D03*
X755500D02*
D03*
X782500D02*
D03*
X707100Y670356D02*
D03*
Y645356D02*
D03*
X829000Y705856D02*
D03*
X738000Y731856D02*
D03*
X707100Y683856D02*
D03*
X720250Y727106D02*
D03*
X825500Y719856D02*
D03*
X707100Y658356D02*
D03*
X794000Y638079D02*
D03*
X811500D02*
D03*
X757500Y685856D02*
D03*
Y660356D02*
D03*
Y671356D02*
D03*
Y645856D02*
D03*
X777500Y638079D02*
D03*
X757500Y794371D02*
D03*
Y819871D02*
D03*
Y805371D02*
D03*
X794000Y772094D02*
D03*
X757500Y779871D02*
D03*
X777500Y772094D02*
D03*
X811500D02*
D03*
X720250Y861121D02*
D03*
X738000Y865871D02*
D03*
X709750Y850621D02*
D03*
X707100Y779371D02*
D03*
X782500Y865871D02*
D03*
X707100Y817871D02*
D03*
X804500Y865871D02*
D03*
X825500Y853871D02*
D03*
X707100Y792371D02*
D03*
X829000Y839871D02*
D03*
X707100Y804371D02*
D03*
X755500Y865871D02*
D03*
X603350Y1420650D02*
D03*
X637350Y1419650D02*
D03*
X566500Y395400D02*
D03*
Y1199900D02*
D03*
X330500Y1199950D02*
D03*
X566500Y529415D02*
D03*
X616350Y1457650D02*
D03*
X412850Y1462900D02*
D03*
X566500Y797444D02*
D03*
X330500Y1065573D02*
D03*
X368850Y1478650D02*
D03*
X389350Y1507650D02*
D03*
X566500Y1065473D02*
D03*
X330500Y529515D02*
D03*
Y412400D02*
D03*
Y931559D02*
D03*
X566500Y663429D02*
D03*
X638350Y1457650D02*
D03*
X330500Y663529D02*
D03*
X333500Y1507900D02*
D03*
X566500Y947400D02*
D03*
X620350Y1420650D02*
D03*
X330500Y797544D02*
D03*
X757500Y1222277D02*
D03*
Y1207777D02*
D03*
X794000Y1174500D02*
D03*
X777500D02*
D03*
X757500Y1196777D02*
D03*
X811500Y1174500D02*
D03*
X757500Y1182277D02*
D03*
X829000Y1242277D02*
D03*
X709750Y1253027D02*
D03*
X707100Y1220277D02*
D03*
X720250Y1263527D02*
D03*
X825500Y1256277D02*
D03*
X707100Y1206777D02*
D03*
X755500Y1268277D02*
D03*
X707100Y1194777D02*
D03*
X804500Y1268277D02*
D03*
X738000D02*
D03*
X707100Y1181777D02*
D03*
X782500Y1268277D02*
D03*
M02*
