G04 #@! TF.GenerationSoftware,KiCad,Pcbnew,8.0.2*
G04 #@! TF.CreationDate,2024-09-20T16:52:05+03:00*
G04 #@! TF.ProjectId,OE0113-WiFi_QR_Mifare_Reader,4f453031-3133-42d5-9769-46695f51525f,rev?*
G04 #@! TF.SameCoordinates,Original*
G04 #@! TF.FileFunction,Legend,Bot*
G04 #@! TF.FilePolarity,Positive*
%FSLAX46Y46*%
G04 Gerber Fmt 4.6, Leading zero omitted, Abs format (unit mm)*
G04 Created by KiCad (PCBNEW 8.0.2) date 2024-09-20 16:52:05*
%MOMM*%
%LPD*%
G01*
G04 APERTURE LIST*
G04 Aperture macros list*
%AMRoundRect*
0 Rectangle with rounded corners*
0 $1 Rounding radius*
0 $2 $3 $4 $5 $6 $7 $8 $9 X,Y pos of 4 corners*
0 Add a 4 corners polygon primitive as box body*
4,1,4,$2,$3,$4,$5,$6,$7,$8,$9,$2,$3,0*
0 Add four circle primitives for the rounded corners*
1,1,$1+$1,$2,$3*
1,1,$1+$1,$4,$5*
1,1,$1+$1,$6,$7*
1,1,$1+$1,$8,$9*
0 Add four rect primitives between the rounded corners*
20,1,$1+$1,$2,$3,$4,$5,0*
20,1,$1+$1,$4,$5,$6,$7,0*
20,1,$1+$1,$6,$7,$8,$9,0*
20,1,$1+$1,$8,$9,$2,$3,0*%
G04 Aperture macros list end*
%ADD10C,0.150000*%
%ADD11C,0.120000*%
%ADD12C,0.152400*%
%ADD13C,0.200000*%
%ADD14C,0.203200*%
%ADD15C,0.127000*%
%ADD16C,0.300000*%
%ADD17RoundRect,0.101600X0.800000X-0.800000X0.800000X0.800000X-0.800000X0.800000X-0.800000X-0.800000X0*%
%ADD18C,2.082800*%
%ADD19RoundRect,0.200000X-0.275000X0.200000X-0.275000X-0.200000X0.275000X-0.200000X0.275000X0.200000X0*%
%ADD20RoundRect,0.200000X0.200000X0.275000X-0.200000X0.275000X-0.200000X-0.275000X0.200000X-0.275000X0*%
%ADD21RoundRect,0.200000X-0.200000X-0.275000X0.200000X-0.275000X0.200000X0.275000X-0.200000X0.275000X0*%
%ADD22R,2.350000X0.850000*%
%ADD23RoundRect,0.225000X0.225000X0.250000X-0.225000X0.250000X-0.225000X-0.250000X0.225000X-0.250000X0*%
%ADD24RoundRect,0.150000X-0.587500X-0.150000X0.587500X-0.150000X0.587500X0.150000X-0.587500X0.150000X0*%
%ADD25R,1.903000X2.790000*%
%ADD26RoundRect,0.250000X0.250000X0.475000X-0.250000X0.475000X-0.250000X-0.475000X0.250000X-0.475000X0*%
%ADD27RoundRect,0.225000X-0.225000X-0.250000X0.225000X-0.250000X0.225000X0.250000X-0.225000X0.250000X0*%
%ADD28RoundRect,0.225000X0.250000X-0.225000X0.250000X0.225000X-0.250000X0.225000X-0.250000X-0.225000X0*%
%ADD29RoundRect,0.250000X0.900000X-1.000000X0.900000X1.000000X-0.900000X1.000000X-0.900000X-1.000000X0*%
%ADD30RoundRect,0.250000X-1.050000X-0.550000X1.050000X-0.550000X1.050000X0.550000X-1.050000X0.550000X0*%
%ADD31RoundRect,0.250000X-0.250000X-0.475000X0.250000X-0.475000X0.250000X0.475000X-0.250000X0.475000X0*%
%ADD32RoundRect,0.200000X0.275000X-0.200000X0.275000X0.200000X-0.275000X0.200000X-0.275000X-0.200000X0*%
%ADD33RoundRect,0.101600X-0.145000X-0.402400X0.145000X-0.402400X0.145000X0.402400X-0.145000X0.402400X0*%
%ADD34RoundRect,0.101600X0.402400X-0.145000X0.402400X0.145000X-0.402400X0.145000X-0.402400X-0.145000X0*%
%ADD35RoundRect,0.101600X-1.775000X1.775000X-1.775000X-1.775000X1.775000X-1.775000X1.775000X1.775000X0*%
%ADD36RoundRect,0.062500X0.337500X0.062500X-0.337500X0.062500X-0.337500X-0.062500X0.337500X-0.062500X0*%
%ADD37RoundRect,0.062500X0.062500X0.337500X-0.062500X0.337500X-0.062500X-0.337500X0.062500X-0.337500X0*%
%ADD38R,3.500000X3.500000*%
%ADD39RoundRect,0.150000X-0.150000X0.587500X-0.150000X-0.587500X0.150000X-0.587500X0.150000X0.587500X0*%
%ADD40RoundRect,0.250000X-0.475000X0.250000X-0.475000X-0.250000X0.475000X-0.250000X0.475000X0.250000X0*%
%ADD41RoundRect,0.250000X0.650000X-1.000000X0.650000X1.000000X-0.650000X1.000000X-0.650000X-1.000000X0*%
%ADD42RoundRect,0.225000X0.225000X0.375000X-0.225000X0.375000X-0.225000X-0.375000X0.225000X-0.375000X0*%
%ADD43RoundRect,0.218750X-0.256250X0.218750X-0.256250X-0.218750X0.256250X-0.218750X0.256250X0.218750X0*%
%ADD44RoundRect,0.225000X-0.250000X0.225000X-0.250000X-0.225000X0.250000X-0.225000X0.250000X0.225000X0*%
%ADD45RoundRect,0.218750X-0.218750X-0.381250X0.218750X-0.381250X0.218750X0.381250X-0.218750X0.381250X0*%
%ADD46R,1.400000X1.400000*%
%ADD47C,1.400000*%
%ADD48RoundRect,0.101600X-0.600000X0.700000X-0.600000X-0.700000X0.600000X-0.700000X0.600000X0.700000X0*%
%ADD49RoundRect,0.101600X0.600000X-0.700000X0.600000X0.700000X-0.600000X0.700000X-0.600000X-0.700000X0*%
%ADD50RoundRect,0.099250X0.297750X-0.627750X0.297750X0.627750X-0.297750X0.627750X-0.297750X-0.627750X0*%
%ADD51RoundRect,0.250000X1.300000X-0.350000X1.300000X0.350000X-1.300000X0.350000X-1.300000X-0.350000X0*%
%ADD52RoundRect,0.250001X1.399999X-0.899999X1.399999X0.899999X-1.399999X0.899999X-1.399999X-0.899999X0*%
%ADD53RoundRect,0.101600X0.550000X-0.635000X0.550000X0.635000X-0.550000X0.635000X-0.550000X-0.635000X0*%
%ADD54RoundRect,0.102000X-0.600000X1.000000X-0.600000X-1.000000X0.600000X-1.000000X0.600000X1.000000X0*%
%ADD55RoundRect,0.102000X-1.000000X0.600000X-1.000000X-0.600000X1.000000X-0.600000X1.000000X0.600000X0*%
%ADD56R,0.850000X2.350000*%
%ADD57RoundRect,0.218750X0.218750X0.256250X-0.218750X0.256250X-0.218750X-0.256250X0.218750X-0.256250X0*%
G04 #@! TA.AperFunction,Profile*
%ADD58C,0.050000*%
G04 #@! TD*
G04 #@! TA.AperFunction,Profile*
%ADD59C,0.100000*%
G04 #@! TD*
G04 APERTURE END LIST*
D10*
X56844173Y-99168771D02*
X56729887Y-99168771D01*
X56729887Y-99168771D02*
X56672744Y-99197342D01*
X56672744Y-99197342D02*
X56615601Y-99254485D01*
X56615601Y-99254485D02*
X56587030Y-99368771D01*
X56587030Y-99368771D02*
X56587030Y-99568771D01*
X56587030Y-99568771D02*
X56615601Y-99683057D01*
X56615601Y-99683057D02*
X56672744Y-99740200D01*
X56672744Y-99740200D02*
X56729887Y-99768771D01*
X56729887Y-99768771D02*
X56844173Y-99768771D01*
X56844173Y-99768771D02*
X56901316Y-99740200D01*
X56901316Y-99740200D02*
X56958458Y-99683057D01*
X56958458Y-99683057D02*
X56987030Y-99568771D01*
X56987030Y-99568771D02*
X56987030Y-99368771D01*
X56987030Y-99368771D02*
X56958458Y-99254485D01*
X56958458Y-99254485D02*
X56901316Y-99197342D01*
X56901316Y-99197342D02*
X56844173Y-99168771D01*
X56329887Y-99454485D02*
X56129887Y-99454485D01*
X56044173Y-99768771D02*
X56329887Y-99768771D01*
X56329887Y-99768771D02*
X56329887Y-99168771D01*
X56329887Y-99168771D02*
X56044173Y-99168771D01*
X55672745Y-99168771D02*
X55615602Y-99168771D01*
X55615602Y-99168771D02*
X55558459Y-99197342D01*
X55558459Y-99197342D02*
X55529888Y-99225914D01*
X55529888Y-99225914D02*
X55501316Y-99283057D01*
X55501316Y-99283057D02*
X55472745Y-99397342D01*
X55472745Y-99397342D02*
X55472745Y-99540200D01*
X55472745Y-99540200D02*
X55501316Y-99654485D01*
X55501316Y-99654485D02*
X55529888Y-99711628D01*
X55529888Y-99711628D02*
X55558459Y-99740200D01*
X55558459Y-99740200D02*
X55615602Y-99768771D01*
X55615602Y-99768771D02*
X55672745Y-99768771D01*
X55672745Y-99768771D02*
X55729888Y-99740200D01*
X55729888Y-99740200D02*
X55758459Y-99711628D01*
X55758459Y-99711628D02*
X55787030Y-99654485D01*
X55787030Y-99654485D02*
X55815602Y-99540200D01*
X55815602Y-99540200D02*
X55815602Y-99397342D01*
X55815602Y-99397342D02*
X55787030Y-99283057D01*
X55787030Y-99283057D02*
X55758459Y-99225914D01*
X55758459Y-99225914D02*
X55729888Y-99197342D01*
X55729888Y-99197342D02*
X55672745Y-99168771D01*
X54901316Y-99768771D02*
X55244173Y-99768771D01*
X55072744Y-99768771D02*
X55072744Y-99168771D01*
X55072744Y-99168771D02*
X55129887Y-99254485D01*
X55129887Y-99254485D02*
X55187030Y-99311628D01*
X55187030Y-99311628D02*
X55244173Y-99340200D01*
X54329887Y-99768771D02*
X54672744Y-99768771D01*
X54501315Y-99768771D02*
X54501315Y-99168771D01*
X54501315Y-99168771D02*
X54558458Y-99254485D01*
X54558458Y-99254485D02*
X54615601Y-99311628D01*
X54615601Y-99311628D02*
X54672744Y-99340200D01*
X54129886Y-99168771D02*
X53758458Y-99168771D01*
X53758458Y-99168771D02*
X53958458Y-99397342D01*
X53958458Y-99397342D02*
X53872743Y-99397342D01*
X53872743Y-99397342D02*
X53815601Y-99425914D01*
X53815601Y-99425914D02*
X53787029Y-99454485D01*
X53787029Y-99454485D02*
X53758458Y-99511628D01*
X53758458Y-99511628D02*
X53758458Y-99654485D01*
X53758458Y-99654485D02*
X53787029Y-99711628D01*
X53787029Y-99711628D02*
X53815601Y-99740200D01*
X53815601Y-99740200D02*
X53872743Y-99768771D01*
X53872743Y-99768771D02*
X54044172Y-99768771D01*
X54044172Y-99768771D02*
X54101315Y-99740200D01*
X54101315Y-99740200D02*
X54129886Y-99711628D01*
X53501314Y-99540200D02*
X53044172Y-99540200D01*
X52815600Y-99168771D02*
X52672743Y-99768771D01*
X52672743Y-99768771D02*
X52558457Y-99340200D01*
X52558457Y-99340200D02*
X52444172Y-99768771D01*
X52444172Y-99768771D02*
X52301315Y-99168771D01*
X52072743Y-99768771D02*
X52072743Y-99368771D01*
X52072743Y-99168771D02*
X52101315Y-99197342D01*
X52101315Y-99197342D02*
X52072743Y-99225914D01*
X52072743Y-99225914D02*
X52044172Y-99197342D01*
X52044172Y-99197342D02*
X52072743Y-99168771D01*
X52072743Y-99168771D02*
X52072743Y-99225914D01*
X51872744Y-99368771D02*
X51644172Y-99368771D01*
X51787029Y-99768771D02*
X51787029Y-99254485D01*
X51787029Y-99254485D02*
X51758458Y-99197342D01*
X51758458Y-99197342D02*
X51701315Y-99168771D01*
X51701315Y-99168771D02*
X51644172Y-99168771D01*
X51444172Y-99768771D02*
X51444172Y-99368771D01*
X51444172Y-99168771D02*
X51472744Y-99197342D01*
X51472744Y-99197342D02*
X51444172Y-99225914D01*
X51444172Y-99225914D02*
X51415601Y-99197342D01*
X51415601Y-99197342D02*
X51444172Y-99168771D01*
X51444172Y-99168771D02*
X51444172Y-99225914D01*
X51301316Y-99825914D02*
X50844173Y-99825914D01*
X50301315Y-99825914D02*
X50358458Y-99797342D01*
X50358458Y-99797342D02*
X50415601Y-99740200D01*
X50415601Y-99740200D02*
X50501315Y-99654485D01*
X50501315Y-99654485D02*
X50558458Y-99625914D01*
X50558458Y-99625914D02*
X50615601Y-99625914D01*
X50587030Y-99768771D02*
X50644173Y-99740200D01*
X50644173Y-99740200D02*
X50701315Y-99683057D01*
X50701315Y-99683057D02*
X50729887Y-99568771D01*
X50729887Y-99568771D02*
X50729887Y-99368771D01*
X50729887Y-99368771D02*
X50701315Y-99254485D01*
X50701315Y-99254485D02*
X50644173Y-99197342D01*
X50644173Y-99197342D02*
X50587030Y-99168771D01*
X50587030Y-99168771D02*
X50472744Y-99168771D01*
X50472744Y-99168771D02*
X50415601Y-99197342D01*
X50415601Y-99197342D02*
X50358458Y-99254485D01*
X50358458Y-99254485D02*
X50329887Y-99368771D01*
X50329887Y-99368771D02*
X50329887Y-99568771D01*
X50329887Y-99568771D02*
X50358458Y-99683057D01*
X50358458Y-99683057D02*
X50415601Y-99740200D01*
X50415601Y-99740200D02*
X50472744Y-99768771D01*
X50472744Y-99768771D02*
X50587030Y-99768771D01*
X49729887Y-99768771D02*
X49929887Y-99483057D01*
X50072744Y-99768771D02*
X50072744Y-99168771D01*
X50072744Y-99168771D02*
X49844173Y-99168771D01*
X49844173Y-99168771D02*
X49787030Y-99197342D01*
X49787030Y-99197342D02*
X49758459Y-99225914D01*
X49758459Y-99225914D02*
X49729887Y-99283057D01*
X49729887Y-99283057D02*
X49729887Y-99368771D01*
X49729887Y-99368771D02*
X49758459Y-99425914D01*
X49758459Y-99425914D02*
X49787030Y-99454485D01*
X49787030Y-99454485D02*
X49844173Y-99483057D01*
X49844173Y-99483057D02*
X50072744Y-99483057D01*
X49615602Y-99825914D02*
X49158459Y-99825914D01*
X49015601Y-99768771D02*
X49015601Y-99168771D01*
X49015601Y-99168771D02*
X48815601Y-99597342D01*
X48815601Y-99597342D02*
X48615601Y-99168771D01*
X48615601Y-99168771D02*
X48615601Y-99768771D01*
X48329887Y-99768771D02*
X48329887Y-99368771D01*
X48329887Y-99168771D02*
X48358459Y-99197342D01*
X48358459Y-99197342D02*
X48329887Y-99225914D01*
X48329887Y-99225914D02*
X48301316Y-99197342D01*
X48301316Y-99197342D02*
X48329887Y-99168771D01*
X48329887Y-99168771D02*
X48329887Y-99225914D01*
X48129888Y-99368771D02*
X47901316Y-99368771D01*
X48044173Y-99768771D02*
X48044173Y-99254485D01*
X48044173Y-99254485D02*
X48015602Y-99197342D01*
X48015602Y-99197342D02*
X47958459Y-99168771D01*
X47958459Y-99168771D02*
X47901316Y-99168771D01*
X47444174Y-99768771D02*
X47444174Y-99454485D01*
X47444174Y-99454485D02*
X47472745Y-99397342D01*
X47472745Y-99397342D02*
X47529888Y-99368771D01*
X47529888Y-99368771D02*
X47644174Y-99368771D01*
X47644174Y-99368771D02*
X47701316Y-99397342D01*
X47444174Y-99740200D02*
X47501316Y-99768771D01*
X47501316Y-99768771D02*
X47644174Y-99768771D01*
X47644174Y-99768771D02*
X47701316Y-99740200D01*
X47701316Y-99740200D02*
X47729888Y-99683057D01*
X47729888Y-99683057D02*
X47729888Y-99625914D01*
X47729888Y-99625914D02*
X47701316Y-99568771D01*
X47701316Y-99568771D02*
X47644174Y-99540200D01*
X47644174Y-99540200D02*
X47501316Y-99540200D01*
X47501316Y-99540200D02*
X47444174Y-99511628D01*
X47158459Y-99768771D02*
X47158459Y-99368771D01*
X47158459Y-99483057D02*
X47129888Y-99425914D01*
X47129888Y-99425914D02*
X47101317Y-99397342D01*
X47101317Y-99397342D02*
X47044174Y-99368771D01*
X47044174Y-99368771D02*
X46987031Y-99368771D01*
X46558459Y-99740200D02*
X46615602Y-99768771D01*
X46615602Y-99768771D02*
X46729888Y-99768771D01*
X46729888Y-99768771D02*
X46787030Y-99740200D01*
X46787030Y-99740200D02*
X46815602Y-99683057D01*
X46815602Y-99683057D02*
X46815602Y-99454485D01*
X46815602Y-99454485D02*
X46787030Y-99397342D01*
X46787030Y-99397342D02*
X46729888Y-99368771D01*
X46729888Y-99368771D02*
X46615602Y-99368771D01*
X46615602Y-99368771D02*
X46558459Y-99397342D01*
X46558459Y-99397342D02*
X46529888Y-99454485D01*
X46529888Y-99454485D02*
X46529888Y-99511628D01*
X46529888Y-99511628D02*
X46815602Y-99568771D01*
X46415602Y-99825914D02*
X45958459Y-99825914D01*
X45472744Y-99768771D02*
X45672744Y-99483057D01*
X45815601Y-99768771D02*
X45815601Y-99168771D01*
X45815601Y-99168771D02*
X45587030Y-99168771D01*
X45587030Y-99168771D02*
X45529887Y-99197342D01*
X45529887Y-99197342D02*
X45501316Y-99225914D01*
X45501316Y-99225914D02*
X45472744Y-99283057D01*
X45472744Y-99283057D02*
X45472744Y-99368771D01*
X45472744Y-99368771D02*
X45501316Y-99425914D01*
X45501316Y-99425914D02*
X45529887Y-99454485D01*
X45529887Y-99454485D02*
X45587030Y-99483057D01*
X45587030Y-99483057D02*
X45815601Y-99483057D01*
X44987030Y-99740200D02*
X45044173Y-99768771D01*
X45044173Y-99768771D02*
X45158459Y-99768771D01*
X45158459Y-99768771D02*
X45215601Y-99740200D01*
X45215601Y-99740200D02*
X45244173Y-99683057D01*
X45244173Y-99683057D02*
X45244173Y-99454485D01*
X45244173Y-99454485D02*
X45215601Y-99397342D01*
X45215601Y-99397342D02*
X45158459Y-99368771D01*
X45158459Y-99368771D02*
X45044173Y-99368771D01*
X45044173Y-99368771D02*
X44987030Y-99397342D01*
X44987030Y-99397342D02*
X44958459Y-99454485D01*
X44958459Y-99454485D02*
X44958459Y-99511628D01*
X44958459Y-99511628D02*
X45244173Y-99568771D01*
X44444173Y-99768771D02*
X44444173Y-99454485D01*
X44444173Y-99454485D02*
X44472744Y-99397342D01*
X44472744Y-99397342D02*
X44529887Y-99368771D01*
X44529887Y-99368771D02*
X44644173Y-99368771D01*
X44644173Y-99368771D02*
X44701315Y-99397342D01*
X44444173Y-99740200D02*
X44501315Y-99768771D01*
X44501315Y-99768771D02*
X44644173Y-99768771D01*
X44644173Y-99768771D02*
X44701315Y-99740200D01*
X44701315Y-99740200D02*
X44729887Y-99683057D01*
X44729887Y-99683057D02*
X44729887Y-99625914D01*
X44729887Y-99625914D02*
X44701315Y-99568771D01*
X44701315Y-99568771D02*
X44644173Y-99540200D01*
X44644173Y-99540200D02*
X44501315Y-99540200D01*
X44501315Y-99540200D02*
X44444173Y-99511628D01*
X43901316Y-99768771D02*
X43901316Y-99168771D01*
X43901316Y-99740200D02*
X43958458Y-99768771D01*
X43958458Y-99768771D02*
X44072744Y-99768771D01*
X44072744Y-99768771D02*
X44129887Y-99740200D01*
X44129887Y-99740200D02*
X44158458Y-99711628D01*
X44158458Y-99711628D02*
X44187030Y-99654485D01*
X44187030Y-99654485D02*
X44187030Y-99483057D01*
X44187030Y-99483057D02*
X44158458Y-99425914D01*
X44158458Y-99425914D02*
X44129887Y-99397342D01*
X44129887Y-99397342D02*
X44072744Y-99368771D01*
X44072744Y-99368771D02*
X43958458Y-99368771D01*
X43958458Y-99368771D02*
X43901316Y-99397342D01*
X43387030Y-99740200D02*
X43444173Y-99768771D01*
X43444173Y-99768771D02*
X43558459Y-99768771D01*
X43558459Y-99768771D02*
X43615601Y-99740200D01*
X43615601Y-99740200D02*
X43644173Y-99683057D01*
X43644173Y-99683057D02*
X43644173Y-99454485D01*
X43644173Y-99454485D02*
X43615601Y-99397342D01*
X43615601Y-99397342D02*
X43558459Y-99368771D01*
X43558459Y-99368771D02*
X43444173Y-99368771D01*
X43444173Y-99368771D02*
X43387030Y-99397342D01*
X43387030Y-99397342D02*
X43358459Y-99454485D01*
X43358459Y-99454485D02*
X43358459Y-99511628D01*
X43358459Y-99511628D02*
X43644173Y-99568771D01*
X43101315Y-99768771D02*
X43101315Y-99368771D01*
X43101315Y-99483057D02*
X43072744Y-99425914D01*
X43072744Y-99425914D02*
X43044173Y-99397342D01*
X43044173Y-99397342D02*
X42987030Y-99368771D01*
X42987030Y-99368771D02*
X42929887Y-99368771D01*
X42872744Y-99825914D02*
X42415601Y-99825914D01*
X42358458Y-99168771D02*
X42158458Y-99768771D01*
X42158458Y-99768771D02*
X41958458Y-99168771D01*
X41644172Y-99168771D02*
X41587029Y-99168771D01*
X41587029Y-99168771D02*
X41529886Y-99197342D01*
X41529886Y-99197342D02*
X41501315Y-99225914D01*
X41501315Y-99225914D02*
X41472743Y-99283057D01*
X41472743Y-99283057D02*
X41444172Y-99397342D01*
X41444172Y-99397342D02*
X41444172Y-99540200D01*
X41444172Y-99540200D02*
X41472743Y-99654485D01*
X41472743Y-99654485D02*
X41501315Y-99711628D01*
X41501315Y-99711628D02*
X41529886Y-99740200D01*
X41529886Y-99740200D02*
X41587029Y-99768771D01*
X41587029Y-99768771D02*
X41644172Y-99768771D01*
X41644172Y-99768771D02*
X41701315Y-99740200D01*
X41701315Y-99740200D02*
X41729886Y-99711628D01*
X41729886Y-99711628D02*
X41758457Y-99654485D01*
X41758457Y-99654485D02*
X41787029Y-99540200D01*
X41787029Y-99540200D02*
X41787029Y-99397342D01*
X41787029Y-99397342D02*
X41758457Y-99283057D01*
X41758457Y-99283057D02*
X41729886Y-99225914D01*
X41729886Y-99225914D02*
X41701315Y-99197342D01*
X41701315Y-99197342D02*
X41644172Y-99168771D01*
X40872743Y-99768771D02*
X41215600Y-99768771D01*
X41044171Y-99768771D02*
X41044171Y-99168771D01*
X41044171Y-99168771D02*
X41101314Y-99254485D01*
X41101314Y-99254485D02*
X41158457Y-99311628D01*
X41158457Y-99311628D02*
X41215600Y-99340200D01*
X42889411Y-62317438D02*
X42984649Y-62269819D01*
X42984649Y-62269819D02*
X43127506Y-62269819D01*
X43127506Y-62269819D02*
X43270363Y-62317438D01*
X43270363Y-62317438D02*
X43365601Y-62412676D01*
X43365601Y-62412676D02*
X43413220Y-62507914D01*
X43413220Y-62507914D02*
X43460839Y-62698390D01*
X43460839Y-62698390D02*
X43460839Y-62841247D01*
X43460839Y-62841247D02*
X43413220Y-63031723D01*
X43413220Y-63031723D02*
X43365601Y-63126961D01*
X43365601Y-63126961D02*
X43270363Y-63222200D01*
X43270363Y-63222200D02*
X43127506Y-63269819D01*
X43127506Y-63269819D02*
X43032268Y-63269819D01*
X43032268Y-63269819D02*
X42889411Y-63222200D01*
X42889411Y-63222200D02*
X42841792Y-63174580D01*
X42841792Y-63174580D02*
X42841792Y-62841247D01*
X42841792Y-62841247D02*
X43032268Y-62841247D01*
X42413220Y-63269819D02*
X42413220Y-62269819D01*
X42413220Y-62269819D02*
X41841792Y-63269819D01*
X41841792Y-63269819D02*
X41841792Y-62269819D01*
X41365601Y-63269819D02*
X41365601Y-62269819D01*
X41365601Y-62269819D02*
X41127506Y-62269819D01*
X41127506Y-62269819D02*
X40984649Y-62317438D01*
X40984649Y-62317438D02*
X40889411Y-62412676D01*
X40889411Y-62412676D02*
X40841792Y-62507914D01*
X40841792Y-62507914D02*
X40794173Y-62698390D01*
X40794173Y-62698390D02*
X40794173Y-62841247D01*
X40794173Y-62841247D02*
X40841792Y-63031723D01*
X40841792Y-63031723D02*
X40889411Y-63126961D01*
X40889411Y-63126961D02*
X40984649Y-63222200D01*
X40984649Y-63222200D02*
X41127506Y-63269819D01*
X41127506Y-63269819D02*
X41365601Y-63269819D01*
X41569819Y-103608207D02*
X41093628Y-103274874D01*
X41569819Y-103036779D02*
X40569819Y-103036779D01*
X40569819Y-103036779D02*
X40569819Y-103417731D01*
X40569819Y-103417731D02*
X40617438Y-103512969D01*
X40617438Y-103512969D02*
X40665057Y-103560588D01*
X40665057Y-103560588D02*
X40760295Y-103608207D01*
X40760295Y-103608207D02*
X40903152Y-103608207D01*
X40903152Y-103608207D02*
X40998390Y-103560588D01*
X40998390Y-103560588D02*
X41046009Y-103512969D01*
X41046009Y-103512969D02*
X41093628Y-103417731D01*
X41093628Y-103417731D02*
X41093628Y-103036779D01*
X40569819Y-103941541D02*
X41569819Y-104608207D01*
X40569819Y-104608207D02*
X41569819Y-103941541D01*
X41522200Y-104941541D02*
X41569819Y-105084398D01*
X41569819Y-105084398D02*
X41569819Y-105322493D01*
X41569819Y-105322493D02*
X41522200Y-105417731D01*
X41522200Y-105417731D02*
X41474580Y-105465350D01*
X41474580Y-105465350D02*
X41379342Y-105512969D01*
X41379342Y-105512969D02*
X41284104Y-105512969D01*
X41284104Y-105512969D02*
X41188866Y-105465350D01*
X41188866Y-105465350D02*
X41141247Y-105417731D01*
X41141247Y-105417731D02*
X41093628Y-105322493D01*
X41093628Y-105322493D02*
X41046009Y-105132017D01*
X41046009Y-105132017D02*
X40998390Y-105036779D01*
X40998390Y-105036779D02*
X40950771Y-104989160D01*
X40950771Y-104989160D02*
X40855533Y-104941541D01*
X40855533Y-104941541D02*
X40760295Y-104941541D01*
X40760295Y-104941541D02*
X40665057Y-104989160D01*
X40665057Y-104989160D02*
X40617438Y-105036779D01*
X40617438Y-105036779D02*
X40569819Y-105132017D01*
X40569819Y-105132017D02*
X40569819Y-105370112D01*
X40569819Y-105370112D02*
X40617438Y-105512969D01*
X42689411Y-57269819D02*
X43260839Y-57269819D01*
X42975125Y-57269819D02*
X42975125Y-56269819D01*
X42975125Y-56269819D02*
X43070363Y-56412676D01*
X43070363Y-56412676D02*
X43165601Y-56507914D01*
X43165601Y-56507914D02*
X43260839Y-56555533D01*
X42308458Y-56365057D02*
X42260839Y-56317438D01*
X42260839Y-56317438D02*
X42165601Y-56269819D01*
X42165601Y-56269819D02*
X41927506Y-56269819D01*
X41927506Y-56269819D02*
X41832268Y-56317438D01*
X41832268Y-56317438D02*
X41784649Y-56365057D01*
X41784649Y-56365057D02*
X41737030Y-56460295D01*
X41737030Y-56460295D02*
X41737030Y-56555533D01*
X41737030Y-56555533D02*
X41784649Y-56698390D01*
X41784649Y-56698390D02*
X42356077Y-57269819D01*
X42356077Y-57269819D02*
X41737030Y-57269819D01*
X41451315Y-56269819D02*
X41117982Y-57269819D01*
X41117982Y-57269819D02*
X40784649Y-56269819D01*
X42789411Y-64317438D02*
X42884649Y-64269819D01*
X42884649Y-64269819D02*
X43027506Y-64269819D01*
X43027506Y-64269819D02*
X43170363Y-64317438D01*
X43170363Y-64317438D02*
X43265601Y-64412676D01*
X43265601Y-64412676D02*
X43313220Y-64507914D01*
X43313220Y-64507914D02*
X43360839Y-64698390D01*
X43360839Y-64698390D02*
X43360839Y-64841247D01*
X43360839Y-64841247D02*
X43313220Y-65031723D01*
X43313220Y-65031723D02*
X43265601Y-65126961D01*
X43265601Y-65126961D02*
X43170363Y-65222200D01*
X43170363Y-65222200D02*
X43027506Y-65269819D01*
X43027506Y-65269819D02*
X42932268Y-65269819D01*
X42932268Y-65269819D02*
X42789411Y-65222200D01*
X42789411Y-65222200D02*
X42741792Y-65174580D01*
X42741792Y-65174580D02*
X42741792Y-64841247D01*
X42741792Y-64841247D02*
X42932268Y-64841247D01*
X42313220Y-65269819D02*
X42313220Y-64269819D01*
X42313220Y-64269819D02*
X41741792Y-65269819D01*
X41741792Y-65269819D02*
X41741792Y-64269819D01*
X41265601Y-65269819D02*
X41265601Y-64269819D01*
X41265601Y-64269819D02*
X41027506Y-64269819D01*
X41027506Y-64269819D02*
X40884649Y-64317438D01*
X40884649Y-64317438D02*
X40789411Y-64412676D01*
X40789411Y-64412676D02*
X40741792Y-64507914D01*
X40741792Y-64507914D02*
X40694173Y-64698390D01*
X40694173Y-64698390D02*
X40694173Y-64841247D01*
X40694173Y-64841247D02*
X40741792Y-65031723D01*
X40741792Y-65031723D02*
X40789411Y-65126961D01*
X40789411Y-65126961D02*
X40884649Y-65222200D01*
X40884649Y-65222200D02*
X41027506Y-65269819D01*
X41027506Y-65269819D02*
X41265601Y-65269819D01*
X43341792Y-61024819D02*
X43675125Y-60548628D01*
X43913220Y-61024819D02*
X43913220Y-60024819D01*
X43913220Y-60024819D02*
X43532268Y-60024819D01*
X43532268Y-60024819D02*
X43437030Y-60072438D01*
X43437030Y-60072438D02*
X43389411Y-60120057D01*
X43389411Y-60120057D02*
X43341792Y-60215295D01*
X43341792Y-60215295D02*
X43341792Y-60358152D01*
X43341792Y-60358152D02*
X43389411Y-60453390D01*
X43389411Y-60453390D02*
X43437030Y-60501009D01*
X43437030Y-60501009D02*
X43532268Y-60548628D01*
X43532268Y-60548628D02*
X43913220Y-60548628D01*
X42722744Y-60024819D02*
X42532268Y-60024819D01*
X42532268Y-60024819D02*
X42437030Y-60072438D01*
X42437030Y-60072438D02*
X42341792Y-60167676D01*
X42341792Y-60167676D02*
X42294173Y-60358152D01*
X42294173Y-60358152D02*
X42294173Y-60691485D01*
X42294173Y-60691485D02*
X42341792Y-60881961D01*
X42341792Y-60881961D02*
X42437030Y-60977200D01*
X42437030Y-60977200D02*
X42532268Y-61024819D01*
X42532268Y-61024819D02*
X42722744Y-61024819D01*
X42722744Y-61024819D02*
X42817982Y-60977200D01*
X42817982Y-60977200D02*
X42913220Y-60881961D01*
X42913220Y-60881961D02*
X42960839Y-60691485D01*
X42960839Y-60691485D02*
X42960839Y-60358152D01*
X42960839Y-60358152D02*
X42913220Y-60167676D01*
X42913220Y-60167676D02*
X42817982Y-60072438D01*
X42817982Y-60072438D02*
X42722744Y-60024819D01*
X41389411Y-61024819D02*
X41865601Y-61024819D01*
X41865601Y-61024819D02*
X41865601Y-60024819D01*
X41056077Y-60501009D02*
X40722744Y-60501009D01*
X40579887Y-61024819D02*
X41056077Y-61024819D01*
X41056077Y-61024819D02*
X41056077Y-60024819D01*
X41056077Y-60024819D02*
X40579887Y-60024819D01*
X50917438Y-103460588D02*
X50869819Y-103365350D01*
X50869819Y-103365350D02*
X50869819Y-103222493D01*
X50869819Y-103222493D02*
X50917438Y-103079636D01*
X50917438Y-103079636D02*
X51012676Y-102984398D01*
X51012676Y-102984398D02*
X51107914Y-102936779D01*
X51107914Y-102936779D02*
X51298390Y-102889160D01*
X51298390Y-102889160D02*
X51441247Y-102889160D01*
X51441247Y-102889160D02*
X51631723Y-102936779D01*
X51631723Y-102936779D02*
X51726961Y-102984398D01*
X51726961Y-102984398D02*
X51822200Y-103079636D01*
X51822200Y-103079636D02*
X51869819Y-103222493D01*
X51869819Y-103222493D02*
X51869819Y-103317731D01*
X51869819Y-103317731D02*
X51822200Y-103460588D01*
X51822200Y-103460588D02*
X51774580Y-103508207D01*
X51774580Y-103508207D02*
X51441247Y-103508207D01*
X51441247Y-103508207D02*
X51441247Y-103317731D01*
X51869819Y-103936779D02*
X50869819Y-103936779D01*
X50869819Y-103936779D02*
X51869819Y-104508207D01*
X51869819Y-104508207D02*
X50869819Y-104508207D01*
X51869819Y-104984398D02*
X50869819Y-104984398D01*
X50869819Y-104984398D02*
X50869819Y-105222493D01*
X50869819Y-105222493D02*
X50917438Y-105365350D01*
X50917438Y-105365350D02*
X51012676Y-105460588D01*
X51012676Y-105460588D02*
X51107914Y-105508207D01*
X51107914Y-105508207D02*
X51298390Y-105555826D01*
X51298390Y-105555826D02*
X51441247Y-105555826D01*
X51441247Y-105555826D02*
X51631723Y-105508207D01*
X51631723Y-105508207D02*
X51726961Y-105460588D01*
X51726961Y-105460588D02*
X51822200Y-105365350D01*
X51822200Y-105365350D02*
X51869819Y-105222493D01*
X51869819Y-105222493D02*
X51869819Y-104984398D01*
X42689411Y-67319819D02*
X43260839Y-67319819D01*
X42975125Y-67319819D02*
X42975125Y-66319819D01*
X42975125Y-66319819D02*
X43070363Y-66462676D01*
X43070363Y-66462676D02*
X43165601Y-66557914D01*
X43165601Y-66557914D02*
X43260839Y-66605533D01*
X42308458Y-66415057D02*
X42260839Y-66367438D01*
X42260839Y-66367438D02*
X42165601Y-66319819D01*
X42165601Y-66319819D02*
X41927506Y-66319819D01*
X41927506Y-66319819D02*
X41832268Y-66367438D01*
X41832268Y-66367438D02*
X41784649Y-66415057D01*
X41784649Y-66415057D02*
X41737030Y-66510295D01*
X41737030Y-66510295D02*
X41737030Y-66605533D01*
X41737030Y-66605533D02*
X41784649Y-66748390D01*
X41784649Y-66748390D02*
X42356077Y-67319819D01*
X42356077Y-67319819D02*
X41737030Y-67319819D01*
X41451315Y-66319819D02*
X41117982Y-67319819D01*
X41117982Y-67319819D02*
X40784649Y-66319819D01*
X42889411Y-58267438D02*
X42984649Y-58219819D01*
X42984649Y-58219819D02*
X43127506Y-58219819D01*
X43127506Y-58219819D02*
X43270363Y-58267438D01*
X43270363Y-58267438D02*
X43365601Y-58362676D01*
X43365601Y-58362676D02*
X43413220Y-58457914D01*
X43413220Y-58457914D02*
X43460839Y-58648390D01*
X43460839Y-58648390D02*
X43460839Y-58791247D01*
X43460839Y-58791247D02*
X43413220Y-58981723D01*
X43413220Y-58981723D02*
X43365601Y-59076961D01*
X43365601Y-59076961D02*
X43270363Y-59172200D01*
X43270363Y-59172200D02*
X43127506Y-59219819D01*
X43127506Y-59219819D02*
X43032268Y-59219819D01*
X43032268Y-59219819D02*
X42889411Y-59172200D01*
X42889411Y-59172200D02*
X42841792Y-59124580D01*
X42841792Y-59124580D02*
X42841792Y-58791247D01*
X42841792Y-58791247D02*
X43032268Y-58791247D01*
X42413220Y-59219819D02*
X42413220Y-58219819D01*
X42413220Y-58219819D02*
X41841792Y-59219819D01*
X41841792Y-59219819D02*
X41841792Y-58219819D01*
X41365601Y-59219819D02*
X41365601Y-58219819D01*
X41365601Y-58219819D02*
X41127506Y-58219819D01*
X41127506Y-58219819D02*
X40984649Y-58267438D01*
X40984649Y-58267438D02*
X40889411Y-58362676D01*
X40889411Y-58362676D02*
X40841792Y-58457914D01*
X40841792Y-58457914D02*
X40794173Y-58648390D01*
X40794173Y-58648390D02*
X40794173Y-58791247D01*
X40794173Y-58791247D02*
X40841792Y-58981723D01*
X40841792Y-58981723D02*
X40889411Y-59076961D01*
X40889411Y-59076961D02*
X40984649Y-59172200D01*
X40984649Y-59172200D02*
X41127506Y-59219819D01*
X41127506Y-59219819D02*
X41365601Y-59219819D01*
X59963220Y-51374557D02*
X60025125Y-51343604D01*
X60025125Y-51343604D02*
X60087030Y-51281700D01*
X60087030Y-51281700D02*
X60179887Y-51188842D01*
X60179887Y-51188842D02*
X60241792Y-51157890D01*
X60241792Y-51157890D02*
X60303696Y-51157890D01*
X60272744Y-51312652D02*
X60334649Y-51281700D01*
X60334649Y-51281700D02*
X60396554Y-51219795D01*
X60396554Y-51219795D02*
X60427506Y-51095985D01*
X60427506Y-51095985D02*
X60427506Y-50879319D01*
X60427506Y-50879319D02*
X60396554Y-50755509D01*
X60396554Y-50755509D02*
X60334649Y-50693604D01*
X60334649Y-50693604D02*
X60272744Y-50662652D01*
X60272744Y-50662652D02*
X60148935Y-50662652D01*
X60148935Y-50662652D02*
X60087030Y-50693604D01*
X60087030Y-50693604D02*
X60025125Y-50755509D01*
X60025125Y-50755509D02*
X59994173Y-50879319D01*
X59994173Y-50879319D02*
X59994173Y-51095985D01*
X59994173Y-51095985D02*
X60025125Y-51219795D01*
X60025125Y-51219795D02*
X60087030Y-51281700D01*
X60087030Y-51281700D02*
X60148935Y-51312652D01*
X60148935Y-51312652D02*
X60272744Y-51312652D01*
X59344173Y-51312652D02*
X59560840Y-51003128D01*
X59715602Y-51312652D02*
X59715602Y-50662652D01*
X59715602Y-50662652D02*
X59467983Y-50662652D01*
X59467983Y-50662652D02*
X59406078Y-50693604D01*
X59406078Y-50693604D02*
X59375125Y-50724557D01*
X59375125Y-50724557D02*
X59344173Y-50786461D01*
X59344173Y-50786461D02*
X59344173Y-50879319D01*
X59344173Y-50879319D02*
X59375125Y-50941223D01*
X59375125Y-50941223D02*
X59406078Y-50972176D01*
X59406078Y-50972176D02*
X59467983Y-51003128D01*
X59467983Y-51003128D02*
X59715602Y-51003128D01*
X59220364Y-51374557D02*
X58725125Y-51374557D01*
X58198935Y-51312652D02*
X58415602Y-51003128D01*
X58570364Y-51312652D02*
X58570364Y-50662652D01*
X58570364Y-50662652D02*
X58322745Y-50662652D01*
X58322745Y-50662652D02*
X58260840Y-50693604D01*
X58260840Y-50693604D02*
X58229887Y-50724557D01*
X58229887Y-50724557D02*
X58198935Y-50786461D01*
X58198935Y-50786461D02*
X58198935Y-50879319D01*
X58198935Y-50879319D02*
X58229887Y-50941223D01*
X58229887Y-50941223D02*
X58260840Y-50972176D01*
X58260840Y-50972176D02*
X58322745Y-51003128D01*
X58322745Y-51003128D02*
X58570364Y-51003128D01*
X57982268Y-50662652D02*
X57548935Y-51312652D01*
X57548935Y-50662652D02*
X57982268Y-51312652D01*
X43169819Y-102993922D02*
X43169819Y-103565350D01*
X44169819Y-103279636D02*
X43169819Y-103279636D01*
X43169819Y-103803446D02*
X44169819Y-104470112D01*
X43169819Y-104470112D02*
X44169819Y-103803446D01*
X44169819Y-104851065D02*
X43169819Y-104851065D01*
X43169819Y-104851065D02*
X43169819Y-105089160D01*
X43169819Y-105089160D02*
X43217438Y-105232017D01*
X43217438Y-105232017D02*
X43312676Y-105327255D01*
X43312676Y-105327255D02*
X43407914Y-105374874D01*
X43407914Y-105374874D02*
X43598390Y-105422493D01*
X43598390Y-105422493D02*
X43741247Y-105422493D01*
X43741247Y-105422493D02*
X43931723Y-105374874D01*
X43931723Y-105374874D02*
X44026961Y-105327255D01*
X44026961Y-105327255D02*
X44122200Y-105232017D01*
X44122200Y-105232017D02*
X44169819Y-105089160D01*
X44169819Y-105089160D02*
X44169819Y-104851065D01*
X33763220Y-81224557D02*
X33825125Y-81193604D01*
X33825125Y-81193604D02*
X33887030Y-81131700D01*
X33887030Y-81131700D02*
X33979887Y-81038842D01*
X33979887Y-81038842D02*
X34041792Y-81007890D01*
X34041792Y-81007890D02*
X34103696Y-81007890D01*
X34072744Y-81162652D02*
X34134649Y-81131700D01*
X34134649Y-81131700D02*
X34196554Y-81069795D01*
X34196554Y-81069795D02*
X34227506Y-80945985D01*
X34227506Y-80945985D02*
X34227506Y-80729319D01*
X34227506Y-80729319D02*
X34196554Y-80605509D01*
X34196554Y-80605509D02*
X34134649Y-80543604D01*
X34134649Y-80543604D02*
X34072744Y-80512652D01*
X34072744Y-80512652D02*
X33948935Y-80512652D01*
X33948935Y-80512652D02*
X33887030Y-80543604D01*
X33887030Y-80543604D02*
X33825125Y-80605509D01*
X33825125Y-80605509D02*
X33794173Y-80729319D01*
X33794173Y-80729319D02*
X33794173Y-80945985D01*
X33794173Y-80945985D02*
X33825125Y-81069795D01*
X33825125Y-81069795D02*
X33887030Y-81131700D01*
X33887030Y-81131700D02*
X33948935Y-81162652D01*
X33948935Y-81162652D02*
X34072744Y-81162652D01*
X33144173Y-81162652D02*
X33360840Y-80853128D01*
X33515602Y-81162652D02*
X33515602Y-80512652D01*
X33515602Y-80512652D02*
X33267983Y-80512652D01*
X33267983Y-80512652D02*
X33206078Y-80543604D01*
X33206078Y-80543604D02*
X33175125Y-80574557D01*
X33175125Y-80574557D02*
X33144173Y-80636461D01*
X33144173Y-80636461D02*
X33144173Y-80729319D01*
X33144173Y-80729319D02*
X33175125Y-80791223D01*
X33175125Y-80791223D02*
X33206078Y-80822176D01*
X33206078Y-80822176D02*
X33267983Y-80853128D01*
X33267983Y-80853128D02*
X33515602Y-80853128D01*
X33020364Y-81224557D02*
X32525125Y-81224557D01*
X32463221Y-80512652D02*
X32091792Y-80512652D01*
X32277506Y-81162652D02*
X32277506Y-80512652D01*
X31937030Y-80512652D02*
X31503697Y-81162652D01*
X31503697Y-80512652D02*
X31937030Y-81162652D01*
X64225125Y-51262652D02*
X64441792Y-50953128D01*
X64596554Y-51262652D02*
X64596554Y-50612652D01*
X64596554Y-50612652D02*
X64348935Y-50612652D01*
X64348935Y-50612652D02*
X64287030Y-50643604D01*
X64287030Y-50643604D02*
X64256077Y-50674557D01*
X64256077Y-50674557D02*
X64225125Y-50736461D01*
X64225125Y-50736461D02*
X64225125Y-50829319D01*
X64225125Y-50829319D02*
X64256077Y-50891223D01*
X64256077Y-50891223D02*
X64287030Y-50922176D01*
X64287030Y-50922176D02*
X64348935Y-50953128D01*
X64348935Y-50953128D02*
X64596554Y-50953128D01*
X64008458Y-50612652D02*
X63575125Y-51262652D01*
X63575125Y-50612652D02*
X64008458Y-51262652D01*
X63327506Y-51262652D02*
X63327506Y-50612652D01*
X63327506Y-50612652D02*
X63172744Y-50612652D01*
X63172744Y-50612652D02*
X63079887Y-50643604D01*
X63079887Y-50643604D02*
X63017982Y-50705509D01*
X63017982Y-50705509D02*
X62987029Y-50767414D01*
X62987029Y-50767414D02*
X62956077Y-50891223D01*
X62956077Y-50891223D02*
X62956077Y-50984080D01*
X62956077Y-50984080D02*
X62987029Y-51107890D01*
X62987029Y-51107890D02*
X63017982Y-51169795D01*
X63017982Y-51169795D02*
X63079887Y-51231700D01*
X63079887Y-51231700D02*
X63172744Y-51262652D01*
X63172744Y-51262652D02*
X63327506Y-51262652D01*
X49269819Y-103608207D02*
X48793628Y-103274874D01*
X49269819Y-103036779D02*
X48269819Y-103036779D01*
X48269819Y-103036779D02*
X48269819Y-103417731D01*
X48269819Y-103417731D02*
X48317438Y-103512969D01*
X48317438Y-103512969D02*
X48365057Y-103560588D01*
X48365057Y-103560588D02*
X48460295Y-103608207D01*
X48460295Y-103608207D02*
X48603152Y-103608207D01*
X48603152Y-103608207D02*
X48698390Y-103560588D01*
X48698390Y-103560588D02*
X48746009Y-103512969D01*
X48746009Y-103512969D02*
X48793628Y-103417731D01*
X48793628Y-103417731D02*
X48793628Y-103036779D01*
X49222200Y-103989160D02*
X49269819Y-104132017D01*
X49269819Y-104132017D02*
X49269819Y-104370112D01*
X49269819Y-104370112D02*
X49222200Y-104465350D01*
X49222200Y-104465350D02*
X49174580Y-104512969D01*
X49174580Y-104512969D02*
X49079342Y-104560588D01*
X49079342Y-104560588D02*
X48984104Y-104560588D01*
X48984104Y-104560588D02*
X48888866Y-104512969D01*
X48888866Y-104512969D02*
X48841247Y-104465350D01*
X48841247Y-104465350D02*
X48793628Y-104370112D01*
X48793628Y-104370112D02*
X48746009Y-104179636D01*
X48746009Y-104179636D02*
X48698390Y-104084398D01*
X48698390Y-104084398D02*
X48650771Y-104036779D01*
X48650771Y-104036779D02*
X48555533Y-103989160D01*
X48555533Y-103989160D02*
X48460295Y-103989160D01*
X48460295Y-103989160D02*
X48365057Y-104036779D01*
X48365057Y-104036779D02*
X48317438Y-104084398D01*
X48317438Y-104084398D02*
X48269819Y-104179636D01*
X48269819Y-104179636D02*
X48269819Y-104417731D01*
X48269819Y-104417731D02*
X48317438Y-104560588D01*
X48269819Y-104846303D02*
X48269819Y-105417731D01*
X49269819Y-105132017D02*
X48269819Y-105132017D01*
X53769819Y-102941541D02*
X53769819Y-103560588D01*
X53769819Y-103560588D02*
X54150771Y-103227255D01*
X54150771Y-103227255D02*
X54150771Y-103370112D01*
X54150771Y-103370112D02*
X54198390Y-103465350D01*
X54198390Y-103465350D02*
X54246009Y-103512969D01*
X54246009Y-103512969D02*
X54341247Y-103560588D01*
X54341247Y-103560588D02*
X54579342Y-103560588D01*
X54579342Y-103560588D02*
X54674580Y-103512969D01*
X54674580Y-103512969D02*
X54722200Y-103465350D01*
X54722200Y-103465350D02*
X54769819Y-103370112D01*
X54769819Y-103370112D02*
X54769819Y-103084398D01*
X54769819Y-103084398D02*
X54722200Y-102989160D01*
X54722200Y-102989160D02*
X54674580Y-102941541D01*
X53769819Y-103846303D02*
X54769819Y-104179636D01*
X54769819Y-104179636D02*
X53769819Y-104512969D01*
X53769819Y-104751065D02*
X53769819Y-105370112D01*
X53769819Y-105370112D02*
X54150771Y-105036779D01*
X54150771Y-105036779D02*
X54150771Y-105179636D01*
X54150771Y-105179636D02*
X54198390Y-105274874D01*
X54198390Y-105274874D02*
X54246009Y-105322493D01*
X54246009Y-105322493D02*
X54341247Y-105370112D01*
X54341247Y-105370112D02*
X54579342Y-105370112D01*
X54579342Y-105370112D02*
X54674580Y-105322493D01*
X54674580Y-105322493D02*
X54722200Y-105274874D01*
X54722200Y-105274874D02*
X54769819Y-105179636D01*
X54769819Y-105179636D02*
X54769819Y-104893922D01*
X54769819Y-104893922D02*
X54722200Y-104798684D01*
X54722200Y-104798684D02*
X54674580Y-104751065D01*
X34439411Y-88412652D02*
X34067982Y-88412652D01*
X34253696Y-89062652D02*
X34253696Y-88412652D01*
X33913220Y-88412652D02*
X33479887Y-89062652D01*
X33479887Y-88412652D02*
X33913220Y-89062652D01*
X33232268Y-89062652D02*
X33232268Y-88412652D01*
X33232268Y-88412652D02*
X33077506Y-88412652D01*
X33077506Y-88412652D02*
X32984649Y-88443604D01*
X32984649Y-88443604D02*
X32922744Y-88505509D01*
X32922744Y-88505509D02*
X32891791Y-88567414D01*
X32891791Y-88567414D02*
X32860839Y-88691223D01*
X32860839Y-88691223D02*
X32860839Y-88784080D01*
X32860839Y-88784080D02*
X32891791Y-88907890D01*
X32891791Y-88907890D02*
X32922744Y-88969795D01*
X32922744Y-88969795D02*
X32984649Y-89031700D01*
X32984649Y-89031700D02*
X33077506Y-89062652D01*
X33077506Y-89062652D02*
X33232268Y-89062652D01*
X45939866Y-103432017D02*
X45906533Y-103365350D01*
X45906533Y-103365350D02*
X45906533Y-103265350D01*
X45906533Y-103265350D02*
X45939866Y-103165350D01*
X45939866Y-103165350D02*
X46006533Y-103098684D01*
X46006533Y-103098684D02*
X46073200Y-103065350D01*
X46073200Y-103065350D02*
X46206533Y-103032017D01*
X46206533Y-103032017D02*
X46306533Y-103032017D01*
X46306533Y-103032017D02*
X46439866Y-103065350D01*
X46439866Y-103065350D02*
X46506533Y-103098684D01*
X46506533Y-103098684D02*
X46573200Y-103165350D01*
X46573200Y-103165350D02*
X46606533Y-103265350D01*
X46606533Y-103265350D02*
X46606533Y-103332017D01*
X46606533Y-103332017D02*
X46573200Y-103432017D01*
X46573200Y-103432017D02*
X46539866Y-103465350D01*
X46539866Y-103465350D02*
X46306533Y-103465350D01*
X46306533Y-103465350D02*
X46306533Y-103332017D01*
X46606533Y-103765350D02*
X45906533Y-103765350D01*
X45906533Y-103765350D02*
X45906533Y-104032017D01*
X45906533Y-104032017D02*
X45939866Y-104098684D01*
X45939866Y-104098684D02*
X45973200Y-104132017D01*
X45973200Y-104132017D02*
X46039866Y-104165350D01*
X46039866Y-104165350D02*
X46139866Y-104165350D01*
X46139866Y-104165350D02*
X46206533Y-104132017D01*
X46206533Y-104132017D02*
X46239866Y-104098684D01*
X46239866Y-104098684D02*
X46273200Y-104032017D01*
X46273200Y-104032017D02*
X46273200Y-103765350D01*
X46606533Y-104465350D02*
X45906533Y-104465350D01*
X45906533Y-104932017D02*
X45906533Y-105065350D01*
X45906533Y-105065350D02*
X45939866Y-105132017D01*
X45939866Y-105132017D02*
X46006533Y-105198683D01*
X46006533Y-105198683D02*
X46139866Y-105232017D01*
X46139866Y-105232017D02*
X46373200Y-105232017D01*
X46373200Y-105232017D02*
X46506533Y-105198683D01*
X46506533Y-105198683D02*
X46573200Y-105132017D01*
X46573200Y-105132017D02*
X46606533Y-105065350D01*
X46606533Y-105065350D02*
X46606533Y-104932017D01*
X46606533Y-104932017D02*
X46573200Y-104865350D01*
X46573200Y-104865350D02*
X46506533Y-104798683D01*
X46506533Y-104798683D02*
X46373200Y-104765350D01*
X46373200Y-104765350D02*
X46139866Y-104765350D01*
X46139866Y-104765350D02*
X46006533Y-104798683D01*
X46006533Y-104798683D02*
X45939866Y-104865350D01*
X45939866Y-104865350D02*
X45906533Y-104932017D01*
X45906533Y-105665350D02*
X45906533Y-105732016D01*
X45906533Y-105732016D02*
X45939866Y-105798683D01*
X45939866Y-105798683D02*
X45973200Y-105832016D01*
X45973200Y-105832016D02*
X46039866Y-105865350D01*
X46039866Y-105865350D02*
X46173200Y-105898683D01*
X46173200Y-105898683D02*
X46339866Y-105898683D01*
X46339866Y-105898683D02*
X46473200Y-105865350D01*
X46473200Y-105865350D02*
X46539866Y-105832016D01*
X46539866Y-105832016D02*
X46573200Y-105798683D01*
X46573200Y-105798683D02*
X46606533Y-105732016D01*
X46606533Y-105732016D02*
X46606533Y-105665350D01*
X46606533Y-105665350D02*
X46573200Y-105598683D01*
X46573200Y-105598683D02*
X46539866Y-105565350D01*
X46539866Y-105565350D02*
X46473200Y-105532016D01*
X46473200Y-105532016D02*
X46339866Y-105498683D01*
X46339866Y-105498683D02*
X46173200Y-105498683D01*
X46173200Y-105498683D02*
X46039866Y-105532016D01*
X46039866Y-105532016D02*
X45973200Y-105565350D01*
X45973200Y-105565350D02*
X45939866Y-105598683D01*
X45939866Y-105598683D02*
X45906533Y-105665350D01*
X32917857Y-21942902D02*
X33134524Y-21633378D01*
X33289286Y-21942902D02*
X33289286Y-21292902D01*
X33289286Y-21292902D02*
X33041667Y-21292902D01*
X33041667Y-21292902D02*
X32979762Y-21323854D01*
X32979762Y-21323854D02*
X32948809Y-21354807D01*
X32948809Y-21354807D02*
X32917857Y-21416711D01*
X32917857Y-21416711D02*
X32917857Y-21509569D01*
X32917857Y-21509569D02*
X32948809Y-21571473D01*
X32948809Y-21571473D02*
X32979762Y-21602426D01*
X32979762Y-21602426D02*
X33041667Y-21633378D01*
X33041667Y-21633378D02*
X33289286Y-21633378D01*
X32670238Y-21354807D02*
X32639286Y-21323854D01*
X32639286Y-21323854D02*
X32577381Y-21292902D01*
X32577381Y-21292902D02*
X32422619Y-21292902D01*
X32422619Y-21292902D02*
X32360714Y-21323854D01*
X32360714Y-21323854D02*
X32329762Y-21354807D01*
X32329762Y-21354807D02*
X32298809Y-21416711D01*
X32298809Y-21416711D02*
X32298809Y-21478616D01*
X32298809Y-21478616D02*
X32329762Y-21571473D01*
X32329762Y-21571473D02*
X32701190Y-21942902D01*
X32701190Y-21942902D02*
X32298809Y-21942902D01*
X32082142Y-21292902D02*
X31679761Y-21292902D01*
X31679761Y-21292902D02*
X31896428Y-21540521D01*
X31896428Y-21540521D02*
X31803571Y-21540521D01*
X31803571Y-21540521D02*
X31741666Y-21571473D01*
X31741666Y-21571473D02*
X31710714Y-21602426D01*
X31710714Y-21602426D02*
X31679761Y-21664330D01*
X31679761Y-21664330D02*
X31679761Y-21819092D01*
X31679761Y-21819092D02*
X31710714Y-21880997D01*
X31710714Y-21880997D02*
X31741666Y-21911950D01*
X31741666Y-21911950D02*
X31803571Y-21942902D01*
X31803571Y-21942902D02*
X31989285Y-21942902D01*
X31989285Y-21942902D02*
X32051190Y-21911950D01*
X32051190Y-21911950D02*
X32082142Y-21880997D01*
X63108333Y-41992902D02*
X63325000Y-41683378D01*
X63479762Y-41992902D02*
X63479762Y-41342902D01*
X63479762Y-41342902D02*
X63232143Y-41342902D01*
X63232143Y-41342902D02*
X63170238Y-41373854D01*
X63170238Y-41373854D02*
X63139285Y-41404807D01*
X63139285Y-41404807D02*
X63108333Y-41466711D01*
X63108333Y-41466711D02*
X63108333Y-41559569D01*
X63108333Y-41559569D02*
X63139285Y-41621473D01*
X63139285Y-41621473D02*
X63170238Y-41652426D01*
X63170238Y-41652426D02*
X63232143Y-41683378D01*
X63232143Y-41683378D02*
X63479762Y-41683378D01*
X62891666Y-41342902D02*
X62458333Y-41342902D01*
X62458333Y-41342902D02*
X62736904Y-41992902D01*
X58092902Y-42432142D02*
X57783378Y-42215475D01*
X58092902Y-42060713D02*
X57442902Y-42060713D01*
X57442902Y-42060713D02*
X57442902Y-42308332D01*
X57442902Y-42308332D02*
X57473854Y-42370237D01*
X57473854Y-42370237D02*
X57504807Y-42401190D01*
X57504807Y-42401190D02*
X57566711Y-42432142D01*
X57566711Y-42432142D02*
X57659569Y-42432142D01*
X57659569Y-42432142D02*
X57721473Y-42401190D01*
X57721473Y-42401190D02*
X57752426Y-42370237D01*
X57752426Y-42370237D02*
X57783378Y-42308332D01*
X57783378Y-42308332D02*
X57783378Y-42060713D01*
X57504807Y-42679761D02*
X57473854Y-42710713D01*
X57473854Y-42710713D02*
X57442902Y-42772618D01*
X57442902Y-42772618D02*
X57442902Y-42927380D01*
X57442902Y-42927380D02*
X57473854Y-42989285D01*
X57473854Y-42989285D02*
X57504807Y-43020237D01*
X57504807Y-43020237D02*
X57566711Y-43051190D01*
X57566711Y-43051190D02*
X57628616Y-43051190D01*
X57628616Y-43051190D02*
X57721473Y-43020237D01*
X57721473Y-43020237D02*
X58092902Y-42648809D01*
X58092902Y-42648809D02*
X58092902Y-43051190D01*
X57442902Y-43453571D02*
X57442902Y-43515476D01*
X57442902Y-43515476D02*
X57473854Y-43577380D01*
X57473854Y-43577380D02*
X57504807Y-43608333D01*
X57504807Y-43608333D02*
X57566711Y-43639285D01*
X57566711Y-43639285D02*
X57690521Y-43670238D01*
X57690521Y-43670238D02*
X57845283Y-43670238D01*
X57845283Y-43670238D02*
X57969092Y-43639285D01*
X57969092Y-43639285D02*
X58030997Y-43608333D01*
X58030997Y-43608333D02*
X58061950Y-43577380D01*
X58061950Y-43577380D02*
X58092902Y-43515476D01*
X58092902Y-43515476D02*
X58092902Y-43453571D01*
X58092902Y-43453571D02*
X58061950Y-43391666D01*
X58061950Y-43391666D02*
X58030997Y-43360714D01*
X58030997Y-43360714D02*
X57969092Y-43329761D01*
X57969092Y-43329761D02*
X57845283Y-43298809D01*
X57845283Y-43298809D02*
X57690521Y-43298809D01*
X57690521Y-43298809D02*
X57566711Y-43329761D01*
X57566711Y-43329761D02*
X57504807Y-43360714D01*
X57504807Y-43360714D02*
X57473854Y-43391666D01*
X57473854Y-43391666D02*
X57442902Y-43453571D01*
X62917857Y-73992902D02*
X63134524Y-73683378D01*
X63289286Y-73992902D02*
X63289286Y-73342902D01*
X63289286Y-73342902D02*
X63041667Y-73342902D01*
X63041667Y-73342902D02*
X62979762Y-73373854D01*
X62979762Y-73373854D02*
X62948809Y-73404807D01*
X62948809Y-73404807D02*
X62917857Y-73466711D01*
X62917857Y-73466711D02*
X62917857Y-73559569D01*
X62917857Y-73559569D02*
X62948809Y-73621473D01*
X62948809Y-73621473D02*
X62979762Y-73652426D01*
X62979762Y-73652426D02*
X63041667Y-73683378D01*
X63041667Y-73683378D02*
X63289286Y-73683378D01*
X62670238Y-73404807D02*
X62639286Y-73373854D01*
X62639286Y-73373854D02*
X62577381Y-73342902D01*
X62577381Y-73342902D02*
X62422619Y-73342902D01*
X62422619Y-73342902D02*
X62360714Y-73373854D01*
X62360714Y-73373854D02*
X62329762Y-73404807D01*
X62329762Y-73404807D02*
X62298809Y-73466711D01*
X62298809Y-73466711D02*
X62298809Y-73528616D01*
X62298809Y-73528616D02*
X62329762Y-73621473D01*
X62329762Y-73621473D02*
X62701190Y-73992902D01*
X62701190Y-73992902D02*
X62298809Y-73992902D01*
X62082142Y-73342902D02*
X61648809Y-73342902D01*
X61648809Y-73342902D02*
X61927380Y-73992902D01*
X36741666Y-87092902D02*
X36741666Y-87557188D01*
X36741666Y-87557188D02*
X36772619Y-87650045D01*
X36772619Y-87650045D02*
X36834523Y-87711950D01*
X36834523Y-87711950D02*
X36927381Y-87742902D01*
X36927381Y-87742902D02*
X36989285Y-87742902D01*
X36432143Y-87742902D02*
X36432143Y-87092902D01*
X36432143Y-87092902D02*
X36184524Y-87092902D01*
X36184524Y-87092902D02*
X36122619Y-87123854D01*
X36122619Y-87123854D02*
X36091666Y-87154807D01*
X36091666Y-87154807D02*
X36060714Y-87216711D01*
X36060714Y-87216711D02*
X36060714Y-87309569D01*
X36060714Y-87309569D02*
X36091666Y-87371473D01*
X36091666Y-87371473D02*
X36122619Y-87402426D01*
X36122619Y-87402426D02*
X36184524Y-87433378D01*
X36184524Y-87433378D02*
X36432143Y-87433378D01*
X35441666Y-87742902D02*
X35813095Y-87742902D01*
X35627381Y-87742902D02*
X35627381Y-87092902D01*
X35627381Y-87092902D02*
X35689285Y-87185759D01*
X35689285Y-87185759D02*
X35751190Y-87247664D01*
X35751190Y-87247664D02*
X35813095Y-87278616D01*
X63480997Y-31482142D02*
X63511950Y-31451190D01*
X63511950Y-31451190D02*
X63542902Y-31358332D01*
X63542902Y-31358332D02*
X63542902Y-31296428D01*
X63542902Y-31296428D02*
X63511950Y-31203571D01*
X63511950Y-31203571D02*
X63450045Y-31141666D01*
X63450045Y-31141666D02*
X63388140Y-31110713D01*
X63388140Y-31110713D02*
X63264330Y-31079761D01*
X63264330Y-31079761D02*
X63171473Y-31079761D01*
X63171473Y-31079761D02*
X63047664Y-31110713D01*
X63047664Y-31110713D02*
X62985759Y-31141666D01*
X62985759Y-31141666D02*
X62923854Y-31203571D01*
X62923854Y-31203571D02*
X62892902Y-31296428D01*
X62892902Y-31296428D02*
X62892902Y-31358332D01*
X62892902Y-31358332D02*
X62923854Y-31451190D01*
X62923854Y-31451190D02*
X62954807Y-31482142D01*
X63542902Y-32101190D02*
X63542902Y-31729761D01*
X63542902Y-31915475D02*
X62892902Y-31915475D01*
X62892902Y-31915475D02*
X62985759Y-31853571D01*
X62985759Y-31853571D02*
X63047664Y-31791666D01*
X63047664Y-31791666D02*
X63078616Y-31729761D01*
X63109569Y-32658333D02*
X63542902Y-32658333D01*
X62861950Y-32503571D02*
X63326235Y-32348809D01*
X63326235Y-32348809D02*
X63326235Y-32751190D01*
X43192902Y-53182142D02*
X42883378Y-52965475D01*
X43192902Y-52810713D02*
X42542902Y-52810713D01*
X42542902Y-52810713D02*
X42542902Y-53058332D01*
X42542902Y-53058332D02*
X42573854Y-53120237D01*
X42573854Y-53120237D02*
X42604807Y-53151190D01*
X42604807Y-53151190D02*
X42666711Y-53182142D01*
X42666711Y-53182142D02*
X42759569Y-53182142D01*
X42759569Y-53182142D02*
X42821473Y-53151190D01*
X42821473Y-53151190D02*
X42852426Y-53120237D01*
X42852426Y-53120237D02*
X42883378Y-53058332D01*
X42883378Y-53058332D02*
X42883378Y-52810713D01*
X43192902Y-53801190D02*
X43192902Y-53429761D01*
X43192902Y-53615475D02*
X42542902Y-53615475D01*
X42542902Y-53615475D02*
X42635759Y-53553571D01*
X42635759Y-53553571D02*
X42697664Y-53491666D01*
X42697664Y-53491666D02*
X42728616Y-53429761D01*
X42821473Y-54172619D02*
X42790521Y-54110714D01*
X42790521Y-54110714D02*
X42759569Y-54079761D01*
X42759569Y-54079761D02*
X42697664Y-54048809D01*
X42697664Y-54048809D02*
X42666711Y-54048809D01*
X42666711Y-54048809D02*
X42604807Y-54079761D01*
X42604807Y-54079761D02*
X42573854Y-54110714D01*
X42573854Y-54110714D02*
X42542902Y-54172619D01*
X42542902Y-54172619D02*
X42542902Y-54296428D01*
X42542902Y-54296428D02*
X42573854Y-54358333D01*
X42573854Y-54358333D02*
X42604807Y-54389285D01*
X42604807Y-54389285D02*
X42666711Y-54420238D01*
X42666711Y-54420238D02*
X42697664Y-54420238D01*
X42697664Y-54420238D02*
X42759569Y-54389285D01*
X42759569Y-54389285D02*
X42790521Y-54358333D01*
X42790521Y-54358333D02*
X42821473Y-54296428D01*
X42821473Y-54296428D02*
X42821473Y-54172619D01*
X42821473Y-54172619D02*
X42852426Y-54110714D01*
X42852426Y-54110714D02*
X42883378Y-54079761D01*
X42883378Y-54079761D02*
X42945283Y-54048809D01*
X42945283Y-54048809D02*
X43069092Y-54048809D01*
X43069092Y-54048809D02*
X43130997Y-54079761D01*
X43130997Y-54079761D02*
X43161950Y-54110714D01*
X43161950Y-54110714D02*
X43192902Y-54172619D01*
X43192902Y-54172619D02*
X43192902Y-54296428D01*
X43192902Y-54296428D02*
X43161950Y-54358333D01*
X43161950Y-54358333D02*
X43130997Y-54389285D01*
X43130997Y-54389285D02*
X43069092Y-54420238D01*
X43069092Y-54420238D02*
X42945283Y-54420238D01*
X42945283Y-54420238D02*
X42883378Y-54389285D01*
X42883378Y-54389285D02*
X42852426Y-54358333D01*
X42852426Y-54358333D02*
X42821473Y-54296428D01*
X64111904Y-49354807D02*
X64173809Y-49323854D01*
X64173809Y-49323854D02*
X64235714Y-49261950D01*
X64235714Y-49261950D02*
X64328571Y-49169092D01*
X64328571Y-49169092D02*
X64390476Y-49138140D01*
X64390476Y-49138140D02*
X64452380Y-49138140D01*
X64421428Y-49292902D02*
X64483333Y-49261950D01*
X64483333Y-49261950D02*
X64545238Y-49200045D01*
X64545238Y-49200045D02*
X64576190Y-49076235D01*
X64576190Y-49076235D02*
X64576190Y-48859569D01*
X64576190Y-48859569D02*
X64545238Y-48735759D01*
X64545238Y-48735759D02*
X64483333Y-48673854D01*
X64483333Y-48673854D02*
X64421428Y-48642902D01*
X64421428Y-48642902D02*
X64297619Y-48642902D01*
X64297619Y-48642902D02*
X64235714Y-48673854D01*
X64235714Y-48673854D02*
X64173809Y-48735759D01*
X64173809Y-48735759D02*
X64142857Y-48859569D01*
X64142857Y-48859569D02*
X64142857Y-49076235D01*
X64142857Y-49076235D02*
X64173809Y-49200045D01*
X64173809Y-49200045D02*
X64235714Y-49261950D01*
X64235714Y-49261950D02*
X64297619Y-49292902D01*
X64297619Y-49292902D02*
X64421428Y-49292902D01*
X63523809Y-49292902D02*
X63895238Y-49292902D01*
X63709524Y-49292902D02*
X63709524Y-48642902D01*
X63709524Y-48642902D02*
X63771428Y-48735759D01*
X63771428Y-48735759D02*
X63833333Y-48797664D01*
X63833333Y-48797664D02*
X63895238Y-48828616D01*
X55917857Y-81192902D02*
X56134524Y-80883378D01*
X56289286Y-81192902D02*
X56289286Y-80542902D01*
X56289286Y-80542902D02*
X56041667Y-80542902D01*
X56041667Y-80542902D02*
X55979762Y-80573854D01*
X55979762Y-80573854D02*
X55948809Y-80604807D01*
X55948809Y-80604807D02*
X55917857Y-80666711D01*
X55917857Y-80666711D02*
X55917857Y-80759569D01*
X55917857Y-80759569D02*
X55948809Y-80821473D01*
X55948809Y-80821473D02*
X55979762Y-80852426D01*
X55979762Y-80852426D02*
X56041667Y-80883378D01*
X56041667Y-80883378D02*
X56289286Y-80883378D01*
X55670238Y-80604807D02*
X55639286Y-80573854D01*
X55639286Y-80573854D02*
X55577381Y-80542902D01*
X55577381Y-80542902D02*
X55422619Y-80542902D01*
X55422619Y-80542902D02*
X55360714Y-80573854D01*
X55360714Y-80573854D02*
X55329762Y-80604807D01*
X55329762Y-80604807D02*
X55298809Y-80666711D01*
X55298809Y-80666711D02*
X55298809Y-80728616D01*
X55298809Y-80728616D02*
X55329762Y-80821473D01*
X55329762Y-80821473D02*
X55701190Y-81192902D01*
X55701190Y-81192902D02*
X55298809Y-81192902D01*
X54741666Y-80542902D02*
X54865476Y-80542902D01*
X54865476Y-80542902D02*
X54927380Y-80573854D01*
X54927380Y-80573854D02*
X54958333Y-80604807D01*
X54958333Y-80604807D02*
X55020238Y-80697664D01*
X55020238Y-80697664D02*
X55051190Y-80821473D01*
X55051190Y-80821473D02*
X55051190Y-81069092D01*
X55051190Y-81069092D02*
X55020238Y-81130997D01*
X55020238Y-81130997D02*
X54989285Y-81161950D01*
X54989285Y-81161950D02*
X54927380Y-81192902D01*
X54927380Y-81192902D02*
X54803571Y-81192902D01*
X54803571Y-81192902D02*
X54741666Y-81161950D01*
X54741666Y-81161950D02*
X54710714Y-81130997D01*
X54710714Y-81130997D02*
X54679761Y-81069092D01*
X54679761Y-81069092D02*
X54679761Y-80914330D01*
X54679761Y-80914330D02*
X54710714Y-80852426D01*
X54710714Y-80852426D02*
X54741666Y-80821473D01*
X54741666Y-80821473D02*
X54803571Y-80790521D01*
X54803571Y-80790521D02*
X54927380Y-80790521D01*
X54927380Y-80790521D02*
X54989285Y-80821473D01*
X54989285Y-80821473D02*
X55020238Y-80852426D01*
X55020238Y-80852426D02*
X55051190Y-80914330D01*
X47067857Y-56092902D02*
X47284524Y-55783378D01*
X47439286Y-56092902D02*
X47439286Y-55442902D01*
X47439286Y-55442902D02*
X47191667Y-55442902D01*
X47191667Y-55442902D02*
X47129762Y-55473854D01*
X47129762Y-55473854D02*
X47098809Y-55504807D01*
X47098809Y-55504807D02*
X47067857Y-55566711D01*
X47067857Y-55566711D02*
X47067857Y-55659569D01*
X47067857Y-55659569D02*
X47098809Y-55721473D01*
X47098809Y-55721473D02*
X47129762Y-55752426D01*
X47129762Y-55752426D02*
X47191667Y-55783378D01*
X47191667Y-55783378D02*
X47439286Y-55783378D01*
X46448809Y-56092902D02*
X46820238Y-56092902D01*
X46634524Y-56092902D02*
X46634524Y-55442902D01*
X46634524Y-55442902D02*
X46696428Y-55535759D01*
X46696428Y-55535759D02*
X46758333Y-55597664D01*
X46758333Y-55597664D02*
X46820238Y-55628616D01*
X46139285Y-56092902D02*
X46015476Y-56092902D01*
X46015476Y-56092902D02*
X45953571Y-56061950D01*
X45953571Y-56061950D02*
X45922619Y-56030997D01*
X45922619Y-56030997D02*
X45860714Y-55938140D01*
X45860714Y-55938140D02*
X45829761Y-55814330D01*
X45829761Y-55814330D02*
X45829761Y-55566711D01*
X45829761Y-55566711D02*
X45860714Y-55504807D01*
X45860714Y-55504807D02*
X45891666Y-55473854D01*
X45891666Y-55473854D02*
X45953571Y-55442902D01*
X45953571Y-55442902D02*
X46077380Y-55442902D01*
X46077380Y-55442902D02*
X46139285Y-55473854D01*
X46139285Y-55473854D02*
X46170238Y-55504807D01*
X46170238Y-55504807D02*
X46201190Y-55566711D01*
X46201190Y-55566711D02*
X46201190Y-55721473D01*
X46201190Y-55721473D02*
X46170238Y-55783378D01*
X46170238Y-55783378D02*
X46139285Y-55814330D01*
X46139285Y-55814330D02*
X46077380Y-55845283D01*
X46077380Y-55845283D02*
X45953571Y-55845283D01*
X45953571Y-55845283D02*
X45891666Y-55814330D01*
X45891666Y-55814330D02*
X45860714Y-55783378D01*
X45860714Y-55783378D02*
X45829761Y-55721473D01*
X59508333Y-71732902D02*
X59817857Y-71732902D01*
X59817857Y-71732902D02*
X59817857Y-71082902D01*
X59353571Y-71082902D02*
X58951190Y-71082902D01*
X58951190Y-71082902D02*
X59167857Y-71330521D01*
X59167857Y-71330521D02*
X59075000Y-71330521D01*
X59075000Y-71330521D02*
X59013095Y-71361473D01*
X59013095Y-71361473D02*
X58982143Y-71392426D01*
X58982143Y-71392426D02*
X58951190Y-71454330D01*
X58951190Y-71454330D02*
X58951190Y-71609092D01*
X58951190Y-71609092D02*
X58982143Y-71670997D01*
X58982143Y-71670997D02*
X59013095Y-71701950D01*
X59013095Y-71701950D02*
X59075000Y-71732902D01*
X59075000Y-71732902D02*
X59260714Y-71732902D01*
X59260714Y-71732902D02*
X59322619Y-71701950D01*
X59322619Y-71701950D02*
X59353571Y-71670997D01*
X63480997Y-29632142D02*
X63511950Y-29601190D01*
X63511950Y-29601190D02*
X63542902Y-29508332D01*
X63542902Y-29508332D02*
X63542902Y-29446428D01*
X63542902Y-29446428D02*
X63511950Y-29353571D01*
X63511950Y-29353571D02*
X63450045Y-29291666D01*
X63450045Y-29291666D02*
X63388140Y-29260713D01*
X63388140Y-29260713D02*
X63264330Y-29229761D01*
X63264330Y-29229761D02*
X63171473Y-29229761D01*
X63171473Y-29229761D02*
X63047664Y-29260713D01*
X63047664Y-29260713D02*
X62985759Y-29291666D01*
X62985759Y-29291666D02*
X62923854Y-29353571D01*
X62923854Y-29353571D02*
X62892902Y-29446428D01*
X62892902Y-29446428D02*
X62892902Y-29508332D01*
X62892902Y-29508332D02*
X62923854Y-29601190D01*
X62923854Y-29601190D02*
X62954807Y-29632142D01*
X63542902Y-30251190D02*
X63542902Y-29879761D01*
X63542902Y-30065475D02*
X62892902Y-30065475D01*
X62892902Y-30065475D02*
X62985759Y-30003571D01*
X62985759Y-30003571D02*
X63047664Y-29941666D01*
X63047664Y-29941666D02*
X63078616Y-29879761D01*
X62954807Y-30498809D02*
X62923854Y-30529761D01*
X62923854Y-30529761D02*
X62892902Y-30591666D01*
X62892902Y-30591666D02*
X62892902Y-30746428D01*
X62892902Y-30746428D02*
X62923854Y-30808333D01*
X62923854Y-30808333D02*
X62954807Y-30839285D01*
X62954807Y-30839285D02*
X63016711Y-30870238D01*
X63016711Y-30870238D02*
X63078616Y-30870238D01*
X63078616Y-30870238D02*
X63171473Y-30839285D01*
X63171473Y-30839285D02*
X63542902Y-30467857D01*
X63542902Y-30467857D02*
X63542902Y-30870238D01*
X51130997Y-61682142D02*
X51161950Y-61651190D01*
X51161950Y-61651190D02*
X51192902Y-61558332D01*
X51192902Y-61558332D02*
X51192902Y-61496428D01*
X51192902Y-61496428D02*
X51161950Y-61403571D01*
X51161950Y-61403571D02*
X51100045Y-61341666D01*
X51100045Y-61341666D02*
X51038140Y-61310713D01*
X51038140Y-61310713D02*
X50914330Y-61279761D01*
X50914330Y-61279761D02*
X50821473Y-61279761D01*
X50821473Y-61279761D02*
X50697664Y-61310713D01*
X50697664Y-61310713D02*
X50635759Y-61341666D01*
X50635759Y-61341666D02*
X50573854Y-61403571D01*
X50573854Y-61403571D02*
X50542902Y-61496428D01*
X50542902Y-61496428D02*
X50542902Y-61558332D01*
X50542902Y-61558332D02*
X50573854Y-61651190D01*
X50573854Y-61651190D02*
X50604807Y-61682142D01*
X51192902Y-62301190D02*
X51192902Y-61929761D01*
X51192902Y-62115475D02*
X50542902Y-62115475D01*
X50542902Y-62115475D02*
X50635759Y-62053571D01*
X50635759Y-62053571D02*
X50697664Y-61991666D01*
X50697664Y-61991666D02*
X50728616Y-61929761D01*
X51192902Y-62610714D02*
X51192902Y-62734523D01*
X51192902Y-62734523D02*
X51161950Y-62796428D01*
X51161950Y-62796428D02*
X51130997Y-62827380D01*
X51130997Y-62827380D02*
X51038140Y-62889285D01*
X51038140Y-62889285D02*
X50914330Y-62920238D01*
X50914330Y-62920238D02*
X50666711Y-62920238D01*
X50666711Y-62920238D02*
X50604807Y-62889285D01*
X50604807Y-62889285D02*
X50573854Y-62858333D01*
X50573854Y-62858333D02*
X50542902Y-62796428D01*
X50542902Y-62796428D02*
X50542902Y-62672619D01*
X50542902Y-62672619D02*
X50573854Y-62610714D01*
X50573854Y-62610714D02*
X50604807Y-62579761D01*
X50604807Y-62579761D02*
X50666711Y-62548809D01*
X50666711Y-62548809D02*
X50821473Y-62548809D01*
X50821473Y-62548809D02*
X50883378Y-62579761D01*
X50883378Y-62579761D02*
X50914330Y-62610714D01*
X50914330Y-62610714D02*
X50945283Y-62672619D01*
X50945283Y-62672619D02*
X50945283Y-62796428D01*
X50945283Y-62796428D02*
X50914330Y-62858333D01*
X50914330Y-62858333D02*
X50883378Y-62889285D01*
X50883378Y-62889285D02*
X50821473Y-62920238D01*
X63580997Y-21241666D02*
X63611950Y-21210714D01*
X63611950Y-21210714D02*
X63642902Y-21117856D01*
X63642902Y-21117856D02*
X63642902Y-21055952D01*
X63642902Y-21055952D02*
X63611950Y-20963095D01*
X63611950Y-20963095D02*
X63550045Y-20901190D01*
X63550045Y-20901190D02*
X63488140Y-20870237D01*
X63488140Y-20870237D02*
X63364330Y-20839285D01*
X63364330Y-20839285D02*
X63271473Y-20839285D01*
X63271473Y-20839285D02*
X63147664Y-20870237D01*
X63147664Y-20870237D02*
X63085759Y-20901190D01*
X63085759Y-20901190D02*
X63023854Y-20963095D01*
X63023854Y-20963095D02*
X62992902Y-21055952D01*
X62992902Y-21055952D02*
X62992902Y-21117856D01*
X62992902Y-21117856D02*
X63023854Y-21210714D01*
X63023854Y-21210714D02*
X63054807Y-21241666D01*
X63642902Y-21551190D02*
X63642902Y-21674999D01*
X63642902Y-21674999D02*
X63611950Y-21736904D01*
X63611950Y-21736904D02*
X63580997Y-21767856D01*
X63580997Y-21767856D02*
X63488140Y-21829761D01*
X63488140Y-21829761D02*
X63364330Y-21860714D01*
X63364330Y-21860714D02*
X63116711Y-21860714D01*
X63116711Y-21860714D02*
X63054807Y-21829761D01*
X63054807Y-21829761D02*
X63023854Y-21798809D01*
X63023854Y-21798809D02*
X62992902Y-21736904D01*
X62992902Y-21736904D02*
X62992902Y-21613095D01*
X62992902Y-21613095D02*
X63023854Y-21551190D01*
X63023854Y-21551190D02*
X63054807Y-21520237D01*
X63054807Y-21520237D02*
X63116711Y-21489285D01*
X63116711Y-21489285D02*
X63271473Y-21489285D01*
X63271473Y-21489285D02*
X63333378Y-21520237D01*
X63333378Y-21520237D02*
X63364330Y-21551190D01*
X63364330Y-21551190D02*
X63395283Y-21613095D01*
X63395283Y-21613095D02*
X63395283Y-21736904D01*
X63395283Y-21736904D02*
X63364330Y-21798809D01*
X63364330Y-21798809D02*
X63333378Y-21829761D01*
X63333378Y-21829761D02*
X63271473Y-21860714D01*
X40317857Y-22830997D02*
X40348809Y-22861950D01*
X40348809Y-22861950D02*
X40441667Y-22892902D01*
X40441667Y-22892902D02*
X40503571Y-22892902D01*
X40503571Y-22892902D02*
X40596428Y-22861950D01*
X40596428Y-22861950D02*
X40658333Y-22800045D01*
X40658333Y-22800045D02*
X40689286Y-22738140D01*
X40689286Y-22738140D02*
X40720238Y-22614330D01*
X40720238Y-22614330D02*
X40720238Y-22521473D01*
X40720238Y-22521473D02*
X40689286Y-22397664D01*
X40689286Y-22397664D02*
X40658333Y-22335759D01*
X40658333Y-22335759D02*
X40596428Y-22273854D01*
X40596428Y-22273854D02*
X40503571Y-22242902D01*
X40503571Y-22242902D02*
X40441667Y-22242902D01*
X40441667Y-22242902D02*
X40348809Y-22273854D01*
X40348809Y-22273854D02*
X40317857Y-22304807D01*
X40070238Y-22304807D02*
X40039286Y-22273854D01*
X40039286Y-22273854D02*
X39977381Y-22242902D01*
X39977381Y-22242902D02*
X39822619Y-22242902D01*
X39822619Y-22242902D02*
X39760714Y-22273854D01*
X39760714Y-22273854D02*
X39729762Y-22304807D01*
X39729762Y-22304807D02*
X39698809Y-22366711D01*
X39698809Y-22366711D02*
X39698809Y-22428616D01*
X39698809Y-22428616D02*
X39729762Y-22521473D01*
X39729762Y-22521473D02*
X40101190Y-22892902D01*
X40101190Y-22892902D02*
X39698809Y-22892902D01*
X39141666Y-22242902D02*
X39265476Y-22242902D01*
X39265476Y-22242902D02*
X39327380Y-22273854D01*
X39327380Y-22273854D02*
X39358333Y-22304807D01*
X39358333Y-22304807D02*
X39420238Y-22397664D01*
X39420238Y-22397664D02*
X39451190Y-22521473D01*
X39451190Y-22521473D02*
X39451190Y-22769092D01*
X39451190Y-22769092D02*
X39420238Y-22830997D01*
X39420238Y-22830997D02*
X39389285Y-22861950D01*
X39389285Y-22861950D02*
X39327380Y-22892902D01*
X39327380Y-22892902D02*
X39203571Y-22892902D01*
X39203571Y-22892902D02*
X39141666Y-22861950D01*
X39141666Y-22861950D02*
X39110714Y-22830997D01*
X39110714Y-22830997D02*
X39079761Y-22769092D01*
X39079761Y-22769092D02*
X39079761Y-22614330D01*
X39079761Y-22614330D02*
X39110714Y-22552426D01*
X39110714Y-22552426D02*
X39141666Y-22521473D01*
X39141666Y-22521473D02*
X39203571Y-22490521D01*
X39203571Y-22490521D02*
X39327380Y-22490521D01*
X39327380Y-22490521D02*
X39389285Y-22521473D01*
X39389285Y-22521473D02*
X39420238Y-22552426D01*
X39420238Y-22552426D02*
X39451190Y-22614330D01*
X57658333Y-20780997D02*
X57689285Y-20811950D01*
X57689285Y-20811950D02*
X57782143Y-20842902D01*
X57782143Y-20842902D02*
X57844047Y-20842902D01*
X57844047Y-20842902D02*
X57936904Y-20811950D01*
X57936904Y-20811950D02*
X57998809Y-20750045D01*
X57998809Y-20750045D02*
X58029762Y-20688140D01*
X58029762Y-20688140D02*
X58060714Y-20564330D01*
X58060714Y-20564330D02*
X58060714Y-20471473D01*
X58060714Y-20471473D02*
X58029762Y-20347664D01*
X58029762Y-20347664D02*
X57998809Y-20285759D01*
X57998809Y-20285759D02*
X57936904Y-20223854D01*
X57936904Y-20223854D02*
X57844047Y-20192902D01*
X57844047Y-20192902D02*
X57782143Y-20192902D01*
X57782143Y-20192902D02*
X57689285Y-20223854D01*
X57689285Y-20223854D02*
X57658333Y-20254807D01*
X57410714Y-20254807D02*
X57379762Y-20223854D01*
X57379762Y-20223854D02*
X57317857Y-20192902D01*
X57317857Y-20192902D02*
X57163095Y-20192902D01*
X57163095Y-20192902D02*
X57101190Y-20223854D01*
X57101190Y-20223854D02*
X57070238Y-20254807D01*
X57070238Y-20254807D02*
X57039285Y-20316711D01*
X57039285Y-20316711D02*
X57039285Y-20378616D01*
X57039285Y-20378616D02*
X57070238Y-20471473D01*
X57070238Y-20471473D02*
X57441666Y-20842902D01*
X57441666Y-20842902D02*
X57039285Y-20842902D01*
X61142857Y-80562902D02*
X61359524Y-80253378D01*
X61514286Y-80562902D02*
X61514286Y-79912902D01*
X61514286Y-79912902D02*
X61266667Y-79912902D01*
X61266667Y-79912902D02*
X61204762Y-79943854D01*
X61204762Y-79943854D02*
X61173809Y-79974807D01*
X61173809Y-79974807D02*
X61142857Y-80036711D01*
X61142857Y-80036711D02*
X61142857Y-80129569D01*
X61142857Y-80129569D02*
X61173809Y-80191473D01*
X61173809Y-80191473D02*
X61204762Y-80222426D01*
X61204762Y-80222426D02*
X61266667Y-80253378D01*
X61266667Y-80253378D02*
X61514286Y-80253378D01*
X60523809Y-80562902D02*
X60895238Y-80562902D01*
X60709524Y-80562902D02*
X60709524Y-79912902D01*
X60709524Y-79912902D02*
X60771428Y-80005759D01*
X60771428Y-80005759D02*
X60833333Y-80067664D01*
X60833333Y-80067664D02*
X60895238Y-80098616D01*
X60276190Y-79974807D02*
X60245238Y-79943854D01*
X60245238Y-79943854D02*
X60183333Y-79912902D01*
X60183333Y-79912902D02*
X60028571Y-79912902D01*
X60028571Y-79912902D02*
X59966666Y-79943854D01*
X59966666Y-79943854D02*
X59935714Y-79974807D01*
X59935714Y-79974807D02*
X59904761Y-80036711D01*
X59904761Y-80036711D02*
X59904761Y-80098616D01*
X59904761Y-80098616D02*
X59935714Y-80191473D01*
X59935714Y-80191473D02*
X60307142Y-80562902D01*
X60307142Y-80562902D02*
X59904761Y-80562902D01*
X58092902Y-44332142D02*
X57783378Y-44115475D01*
X58092902Y-43960713D02*
X57442902Y-43960713D01*
X57442902Y-43960713D02*
X57442902Y-44208332D01*
X57442902Y-44208332D02*
X57473854Y-44270237D01*
X57473854Y-44270237D02*
X57504807Y-44301190D01*
X57504807Y-44301190D02*
X57566711Y-44332142D01*
X57566711Y-44332142D02*
X57659569Y-44332142D01*
X57659569Y-44332142D02*
X57721473Y-44301190D01*
X57721473Y-44301190D02*
X57752426Y-44270237D01*
X57752426Y-44270237D02*
X57783378Y-44208332D01*
X57783378Y-44208332D02*
X57783378Y-43960713D01*
X58092902Y-44951190D02*
X58092902Y-44579761D01*
X58092902Y-44765475D02*
X57442902Y-44765475D01*
X57442902Y-44765475D02*
X57535759Y-44703571D01*
X57535759Y-44703571D02*
X57597664Y-44641666D01*
X57597664Y-44641666D02*
X57628616Y-44579761D01*
X57442902Y-45508333D02*
X57442902Y-45384523D01*
X57442902Y-45384523D02*
X57473854Y-45322619D01*
X57473854Y-45322619D02*
X57504807Y-45291666D01*
X57504807Y-45291666D02*
X57597664Y-45229761D01*
X57597664Y-45229761D02*
X57721473Y-45198809D01*
X57721473Y-45198809D02*
X57969092Y-45198809D01*
X57969092Y-45198809D02*
X58030997Y-45229761D01*
X58030997Y-45229761D02*
X58061950Y-45260714D01*
X58061950Y-45260714D02*
X58092902Y-45322619D01*
X58092902Y-45322619D02*
X58092902Y-45446428D01*
X58092902Y-45446428D02*
X58061950Y-45508333D01*
X58061950Y-45508333D02*
X58030997Y-45539285D01*
X58030997Y-45539285D02*
X57969092Y-45570238D01*
X57969092Y-45570238D02*
X57814330Y-45570238D01*
X57814330Y-45570238D02*
X57752426Y-45539285D01*
X57752426Y-45539285D02*
X57721473Y-45508333D01*
X57721473Y-45508333D02*
X57690521Y-45446428D01*
X57690521Y-45446428D02*
X57690521Y-45322619D01*
X57690521Y-45322619D02*
X57721473Y-45260714D01*
X57721473Y-45260714D02*
X57752426Y-45229761D01*
X57752426Y-45229761D02*
X57814330Y-45198809D01*
X49229762Y-57642902D02*
X49229762Y-56992902D01*
X49229762Y-56992902D02*
X49075000Y-56992902D01*
X49075000Y-56992902D02*
X48982143Y-57023854D01*
X48982143Y-57023854D02*
X48920238Y-57085759D01*
X48920238Y-57085759D02*
X48889285Y-57147664D01*
X48889285Y-57147664D02*
X48858333Y-57271473D01*
X48858333Y-57271473D02*
X48858333Y-57364330D01*
X48858333Y-57364330D02*
X48889285Y-57488140D01*
X48889285Y-57488140D02*
X48920238Y-57550045D01*
X48920238Y-57550045D02*
X48982143Y-57611950D01*
X48982143Y-57611950D02*
X49075000Y-57642902D01*
X49075000Y-57642902D02*
X49229762Y-57642902D01*
X48270238Y-56992902D02*
X48579762Y-56992902D01*
X48579762Y-56992902D02*
X48610714Y-57302426D01*
X48610714Y-57302426D02*
X48579762Y-57271473D01*
X48579762Y-57271473D02*
X48517857Y-57240521D01*
X48517857Y-57240521D02*
X48363095Y-57240521D01*
X48363095Y-57240521D02*
X48301190Y-57271473D01*
X48301190Y-57271473D02*
X48270238Y-57302426D01*
X48270238Y-57302426D02*
X48239285Y-57364330D01*
X48239285Y-57364330D02*
X48239285Y-57519092D01*
X48239285Y-57519092D02*
X48270238Y-57580997D01*
X48270238Y-57580997D02*
X48301190Y-57611950D01*
X48301190Y-57611950D02*
X48363095Y-57642902D01*
X48363095Y-57642902D02*
X48517857Y-57642902D01*
X48517857Y-57642902D02*
X48579762Y-57611950D01*
X48579762Y-57611950D02*
X48610714Y-57580997D01*
X58042902Y-40232142D02*
X57733378Y-40015475D01*
X58042902Y-39860713D02*
X57392902Y-39860713D01*
X57392902Y-39860713D02*
X57392902Y-40108332D01*
X57392902Y-40108332D02*
X57423854Y-40170237D01*
X57423854Y-40170237D02*
X57454807Y-40201190D01*
X57454807Y-40201190D02*
X57516711Y-40232142D01*
X57516711Y-40232142D02*
X57609569Y-40232142D01*
X57609569Y-40232142D02*
X57671473Y-40201190D01*
X57671473Y-40201190D02*
X57702426Y-40170237D01*
X57702426Y-40170237D02*
X57733378Y-40108332D01*
X57733378Y-40108332D02*
X57733378Y-39860713D01*
X57454807Y-40479761D02*
X57423854Y-40510713D01*
X57423854Y-40510713D02*
X57392902Y-40572618D01*
X57392902Y-40572618D02*
X57392902Y-40727380D01*
X57392902Y-40727380D02*
X57423854Y-40789285D01*
X57423854Y-40789285D02*
X57454807Y-40820237D01*
X57454807Y-40820237D02*
X57516711Y-40851190D01*
X57516711Y-40851190D02*
X57578616Y-40851190D01*
X57578616Y-40851190D02*
X57671473Y-40820237D01*
X57671473Y-40820237D02*
X58042902Y-40448809D01*
X58042902Y-40448809D02*
X58042902Y-40851190D01*
X58042902Y-41470238D02*
X58042902Y-41098809D01*
X58042902Y-41284523D02*
X57392902Y-41284523D01*
X57392902Y-41284523D02*
X57485759Y-41222619D01*
X57485759Y-41222619D02*
X57547664Y-41160714D01*
X57547664Y-41160714D02*
X57578616Y-41098809D01*
X49562902Y-53491666D02*
X49253378Y-53274999D01*
X49562902Y-53120237D02*
X48912902Y-53120237D01*
X48912902Y-53120237D02*
X48912902Y-53367856D01*
X48912902Y-53367856D02*
X48943854Y-53429761D01*
X48943854Y-53429761D02*
X48974807Y-53460714D01*
X48974807Y-53460714D02*
X49036711Y-53491666D01*
X49036711Y-53491666D02*
X49129569Y-53491666D01*
X49129569Y-53491666D02*
X49191473Y-53460714D01*
X49191473Y-53460714D02*
X49222426Y-53429761D01*
X49222426Y-53429761D02*
X49253378Y-53367856D01*
X49253378Y-53367856D02*
X49253378Y-53120237D01*
X48912902Y-54048809D02*
X48912902Y-53924999D01*
X48912902Y-53924999D02*
X48943854Y-53863095D01*
X48943854Y-53863095D02*
X48974807Y-53832142D01*
X48974807Y-53832142D02*
X49067664Y-53770237D01*
X49067664Y-53770237D02*
X49191473Y-53739285D01*
X49191473Y-53739285D02*
X49439092Y-53739285D01*
X49439092Y-53739285D02*
X49500997Y-53770237D01*
X49500997Y-53770237D02*
X49531950Y-53801190D01*
X49531950Y-53801190D02*
X49562902Y-53863095D01*
X49562902Y-53863095D02*
X49562902Y-53986904D01*
X49562902Y-53986904D02*
X49531950Y-54048809D01*
X49531950Y-54048809D02*
X49500997Y-54079761D01*
X49500997Y-54079761D02*
X49439092Y-54110714D01*
X49439092Y-54110714D02*
X49284330Y-54110714D01*
X49284330Y-54110714D02*
X49222426Y-54079761D01*
X49222426Y-54079761D02*
X49191473Y-54048809D01*
X49191473Y-54048809D02*
X49160521Y-53986904D01*
X49160521Y-53986904D02*
X49160521Y-53863095D01*
X49160521Y-53863095D02*
X49191473Y-53801190D01*
X49191473Y-53801190D02*
X49222426Y-53770237D01*
X49222426Y-53770237D02*
X49284330Y-53739285D01*
X63530997Y-22682142D02*
X63561950Y-22651190D01*
X63561950Y-22651190D02*
X63592902Y-22558332D01*
X63592902Y-22558332D02*
X63592902Y-22496428D01*
X63592902Y-22496428D02*
X63561950Y-22403571D01*
X63561950Y-22403571D02*
X63500045Y-22341666D01*
X63500045Y-22341666D02*
X63438140Y-22310713D01*
X63438140Y-22310713D02*
X63314330Y-22279761D01*
X63314330Y-22279761D02*
X63221473Y-22279761D01*
X63221473Y-22279761D02*
X63097664Y-22310713D01*
X63097664Y-22310713D02*
X63035759Y-22341666D01*
X63035759Y-22341666D02*
X62973854Y-22403571D01*
X62973854Y-22403571D02*
X62942902Y-22496428D01*
X62942902Y-22496428D02*
X62942902Y-22558332D01*
X62942902Y-22558332D02*
X62973854Y-22651190D01*
X62973854Y-22651190D02*
X63004807Y-22682142D01*
X63592902Y-23301190D02*
X63592902Y-22929761D01*
X63592902Y-23115475D02*
X62942902Y-23115475D01*
X62942902Y-23115475D02*
X63035759Y-23053571D01*
X63035759Y-23053571D02*
X63097664Y-22991666D01*
X63097664Y-22991666D02*
X63128616Y-22929761D01*
X62942902Y-23703571D02*
X62942902Y-23765476D01*
X62942902Y-23765476D02*
X62973854Y-23827380D01*
X62973854Y-23827380D02*
X63004807Y-23858333D01*
X63004807Y-23858333D02*
X63066711Y-23889285D01*
X63066711Y-23889285D02*
X63190521Y-23920238D01*
X63190521Y-23920238D02*
X63345283Y-23920238D01*
X63345283Y-23920238D02*
X63469092Y-23889285D01*
X63469092Y-23889285D02*
X63530997Y-23858333D01*
X63530997Y-23858333D02*
X63561950Y-23827380D01*
X63561950Y-23827380D02*
X63592902Y-23765476D01*
X63592902Y-23765476D02*
X63592902Y-23703571D01*
X63592902Y-23703571D02*
X63561950Y-23641666D01*
X63561950Y-23641666D02*
X63530997Y-23610714D01*
X63530997Y-23610714D02*
X63469092Y-23579761D01*
X63469092Y-23579761D02*
X63345283Y-23548809D01*
X63345283Y-23548809D02*
X63190521Y-23548809D01*
X63190521Y-23548809D02*
X63066711Y-23579761D01*
X63066711Y-23579761D02*
X63004807Y-23610714D01*
X63004807Y-23610714D02*
X62973854Y-23641666D01*
X62973854Y-23641666D02*
X62942902Y-23703571D01*
X63517857Y-35480997D02*
X63548809Y-35511950D01*
X63548809Y-35511950D02*
X63641667Y-35542902D01*
X63641667Y-35542902D02*
X63703571Y-35542902D01*
X63703571Y-35542902D02*
X63796428Y-35511950D01*
X63796428Y-35511950D02*
X63858333Y-35450045D01*
X63858333Y-35450045D02*
X63889286Y-35388140D01*
X63889286Y-35388140D02*
X63920238Y-35264330D01*
X63920238Y-35264330D02*
X63920238Y-35171473D01*
X63920238Y-35171473D02*
X63889286Y-35047664D01*
X63889286Y-35047664D02*
X63858333Y-34985759D01*
X63858333Y-34985759D02*
X63796428Y-34923854D01*
X63796428Y-34923854D02*
X63703571Y-34892902D01*
X63703571Y-34892902D02*
X63641667Y-34892902D01*
X63641667Y-34892902D02*
X63548809Y-34923854D01*
X63548809Y-34923854D02*
X63517857Y-34954807D01*
X62898809Y-35542902D02*
X63270238Y-35542902D01*
X63084524Y-35542902D02*
X63084524Y-34892902D01*
X63084524Y-34892902D02*
X63146428Y-34985759D01*
X63146428Y-34985759D02*
X63208333Y-35047664D01*
X63208333Y-35047664D02*
X63270238Y-35078616D01*
X62310714Y-34892902D02*
X62620238Y-34892902D01*
X62620238Y-34892902D02*
X62651190Y-35202426D01*
X62651190Y-35202426D02*
X62620238Y-35171473D01*
X62620238Y-35171473D02*
X62558333Y-35140521D01*
X62558333Y-35140521D02*
X62403571Y-35140521D01*
X62403571Y-35140521D02*
X62341666Y-35171473D01*
X62341666Y-35171473D02*
X62310714Y-35202426D01*
X62310714Y-35202426D02*
X62279761Y-35264330D01*
X62279761Y-35264330D02*
X62279761Y-35419092D01*
X62279761Y-35419092D02*
X62310714Y-35480997D01*
X62310714Y-35480997D02*
X62341666Y-35511950D01*
X62341666Y-35511950D02*
X62403571Y-35542902D01*
X62403571Y-35542902D02*
X62558333Y-35542902D01*
X62558333Y-35542902D02*
X62620238Y-35511950D01*
X62620238Y-35511950D02*
X62651190Y-35480997D01*
X63480997Y-27832142D02*
X63511950Y-27801190D01*
X63511950Y-27801190D02*
X63542902Y-27708332D01*
X63542902Y-27708332D02*
X63542902Y-27646428D01*
X63542902Y-27646428D02*
X63511950Y-27553571D01*
X63511950Y-27553571D02*
X63450045Y-27491666D01*
X63450045Y-27491666D02*
X63388140Y-27460713D01*
X63388140Y-27460713D02*
X63264330Y-27429761D01*
X63264330Y-27429761D02*
X63171473Y-27429761D01*
X63171473Y-27429761D02*
X63047664Y-27460713D01*
X63047664Y-27460713D02*
X62985759Y-27491666D01*
X62985759Y-27491666D02*
X62923854Y-27553571D01*
X62923854Y-27553571D02*
X62892902Y-27646428D01*
X62892902Y-27646428D02*
X62892902Y-27708332D01*
X62892902Y-27708332D02*
X62923854Y-27801190D01*
X62923854Y-27801190D02*
X62954807Y-27832142D01*
X63542902Y-28451190D02*
X63542902Y-28079761D01*
X63542902Y-28265475D02*
X62892902Y-28265475D01*
X62892902Y-28265475D02*
X62985759Y-28203571D01*
X62985759Y-28203571D02*
X63047664Y-28141666D01*
X63047664Y-28141666D02*
X63078616Y-28079761D01*
X62892902Y-28667857D02*
X62892902Y-29070238D01*
X62892902Y-29070238D02*
X63140521Y-28853571D01*
X63140521Y-28853571D02*
X63140521Y-28946428D01*
X63140521Y-28946428D02*
X63171473Y-29008333D01*
X63171473Y-29008333D02*
X63202426Y-29039285D01*
X63202426Y-29039285D02*
X63264330Y-29070238D01*
X63264330Y-29070238D02*
X63419092Y-29070238D01*
X63419092Y-29070238D02*
X63480997Y-29039285D01*
X63480997Y-29039285D02*
X63511950Y-29008333D01*
X63511950Y-29008333D02*
X63542902Y-28946428D01*
X63542902Y-28946428D02*
X63542902Y-28760714D01*
X63542902Y-28760714D02*
X63511950Y-28698809D01*
X63511950Y-28698809D02*
X63480997Y-28667857D01*
X59380997Y-31682142D02*
X59411950Y-31651190D01*
X59411950Y-31651190D02*
X59442902Y-31558332D01*
X59442902Y-31558332D02*
X59442902Y-31496428D01*
X59442902Y-31496428D02*
X59411950Y-31403571D01*
X59411950Y-31403571D02*
X59350045Y-31341666D01*
X59350045Y-31341666D02*
X59288140Y-31310713D01*
X59288140Y-31310713D02*
X59164330Y-31279761D01*
X59164330Y-31279761D02*
X59071473Y-31279761D01*
X59071473Y-31279761D02*
X58947664Y-31310713D01*
X58947664Y-31310713D02*
X58885759Y-31341666D01*
X58885759Y-31341666D02*
X58823854Y-31403571D01*
X58823854Y-31403571D02*
X58792902Y-31496428D01*
X58792902Y-31496428D02*
X58792902Y-31558332D01*
X58792902Y-31558332D02*
X58823854Y-31651190D01*
X58823854Y-31651190D02*
X58854807Y-31682142D01*
X59442902Y-32301190D02*
X59442902Y-31929761D01*
X59442902Y-32115475D02*
X58792902Y-32115475D01*
X58792902Y-32115475D02*
X58885759Y-32053571D01*
X58885759Y-32053571D02*
X58947664Y-31991666D01*
X58947664Y-31991666D02*
X58978616Y-31929761D01*
X59442902Y-32920238D02*
X59442902Y-32548809D01*
X59442902Y-32734523D02*
X58792902Y-32734523D01*
X58792902Y-32734523D02*
X58885759Y-32672619D01*
X58885759Y-32672619D02*
X58947664Y-32610714D01*
X58947664Y-32610714D02*
X58978616Y-32548809D01*
X64067857Y-64330997D02*
X64098809Y-64361950D01*
X64098809Y-64361950D02*
X64191667Y-64392902D01*
X64191667Y-64392902D02*
X64253571Y-64392902D01*
X64253571Y-64392902D02*
X64346428Y-64361950D01*
X64346428Y-64361950D02*
X64408333Y-64300045D01*
X64408333Y-64300045D02*
X64439286Y-64238140D01*
X64439286Y-64238140D02*
X64470238Y-64114330D01*
X64470238Y-64114330D02*
X64470238Y-64021473D01*
X64470238Y-64021473D02*
X64439286Y-63897664D01*
X64439286Y-63897664D02*
X64408333Y-63835759D01*
X64408333Y-63835759D02*
X64346428Y-63773854D01*
X64346428Y-63773854D02*
X64253571Y-63742902D01*
X64253571Y-63742902D02*
X64191667Y-63742902D01*
X64191667Y-63742902D02*
X64098809Y-63773854D01*
X64098809Y-63773854D02*
X64067857Y-63804807D01*
X63820238Y-63804807D02*
X63789286Y-63773854D01*
X63789286Y-63773854D02*
X63727381Y-63742902D01*
X63727381Y-63742902D02*
X63572619Y-63742902D01*
X63572619Y-63742902D02*
X63510714Y-63773854D01*
X63510714Y-63773854D02*
X63479762Y-63804807D01*
X63479762Y-63804807D02*
X63448809Y-63866711D01*
X63448809Y-63866711D02*
X63448809Y-63928616D01*
X63448809Y-63928616D02*
X63479762Y-64021473D01*
X63479762Y-64021473D02*
X63851190Y-64392902D01*
X63851190Y-64392902D02*
X63448809Y-64392902D01*
X63232142Y-63742902D02*
X62829761Y-63742902D01*
X62829761Y-63742902D02*
X63046428Y-63990521D01*
X63046428Y-63990521D02*
X62953571Y-63990521D01*
X62953571Y-63990521D02*
X62891666Y-64021473D01*
X62891666Y-64021473D02*
X62860714Y-64052426D01*
X62860714Y-64052426D02*
X62829761Y-64114330D01*
X62829761Y-64114330D02*
X62829761Y-64269092D01*
X62829761Y-64269092D02*
X62860714Y-64330997D01*
X62860714Y-64330997D02*
X62891666Y-64361950D01*
X62891666Y-64361950D02*
X62953571Y-64392902D01*
X62953571Y-64392902D02*
X63139285Y-64392902D01*
X63139285Y-64392902D02*
X63201190Y-64361950D01*
X63201190Y-64361950D02*
X63232142Y-64330997D01*
X60742902Y-57132142D02*
X60433378Y-56915475D01*
X60742902Y-56760713D02*
X60092902Y-56760713D01*
X60092902Y-56760713D02*
X60092902Y-57008332D01*
X60092902Y-57008332D02*
X60123854Y-57070237D01*
X60123854Y-57070237D02*
X60154807Y-57101190D01*
X60154807Y-57101190D02*
X60216711Y-57132142D01*
X60216711Y-57132142D02*
X60309569Y-57132142D01*
X60309569Y-57132142D02*
X60371473Y-57101190D01*
X60371473Y-57101190D02*
X60402426Y-57070237D01*
X60402426Y-57070237D02*
X60433378Y-57008332D01*
X60433378Y-57008332D02*
X60433378Y-56760713D01*
X60742902Y-57751190D02*
X60742902Y-57379761D01*
X60742902Y-57565475D02*
X60092902Y-57565475D01*
X60092902Y-57565475D02*
X60185759Y-57503571D01*
X60185759Y-57503571D02*
X60247664Y-57441666D01*
X60247664Y-57441666D02*
X60278616Y-57379761D01*
X60309569Y-58308333D02*
X60742902Y-58308333D01*
X60061950Y-58153571D02*
X60526235Y-57998809D01*
X60526235Y-57998809D02*
X60526235Y-58401190D01*
X34595238Y-25392902D02*
X34595238Y-25919092D01*
X34595238Y-25919092D02*
X34564285Y-25980997D01*
X34564285Y-25980997D02*
X34533333Y-26011950D01*
X34533333Y-26011950D02*
X34471428Y-26042902D01*
X34471428Y-26042902D02*
X34347619Y-26042902D01*
X34347619Y-26042902D02*
X34285714Y-26011950D01*
X34285714Y-26011950D02*
X34254761Y-25980997D01*
X34254761Y-25980997D02*
X34223809Y-25919092D01*
X34223809Y-25919092D02*
X34223809Y-25392902D01*
X33604762Y-25392902D02*
X33914286Y-25392902D01*
X33914286Y-25392902D02*
X33945238Y-25702426D01*
X33945238Y-25702426D02*
X33914286Y-25671473D01*
X33914286Y-25671473D02*
X33852381Y-25640521D01*
X33852381Y-25640521D02*
X33697619Y-25640521D01*
X33697619Y-25640521D02*
X33635714Y-25671473D01*
X33635714Y-25671473D02*
X33604762Y-25702426D01*
X33604762Y-25702426D02*
X33573809Y-25764330D01*
X33573809Y-25764330D02*
X33573809Y-25919092D01*
X33573809Y-25919092D02*
X33604762Y-25980997D01*
X33604762Y-25980997D02*
X33635714Y-26011950D01*
X33635714Y-26011950D02*
X33697619Y-26042902D01*
X33697619Y-26042902D02*
X33852381Y-26042902D01*
X33852381Y-26042902D02*
X33914286Y-26011950D01*
X33914286Y-26011950D02*
X33945238Y-25980997D01*
X47662902Y-53491666D02*
X47353378Y-53274999D01*
X47662902Y-53120237D02*
X47012902Y-53120237D01*
X47012902Y-53120237D02*
X47012902Y-53367856D01*
X47012902Y-53367856D02*
X47043854Y-53429761D01*
X47043854Y-53429761D02*
X47074807Y-53460714D01*
X47074807Y-53460714D02*
X47136711Y-53491666D01*
X47136711Y-53491666D02*
X47229569Y-53491666D01*
X47229569Y-53491666D02*
X47291473Y-53460714D01*
X47291473Y-53460714D02*
X47322426Y-53429761D01*
X47322426Y-53429761D02*
X47353378Y-53367856D01*
X47353378Y-53367856D02*
X47353378Y-53120237D01*
X47012902Y-54079761D02*
X47012902Y-53770237D01*
X47012902Y-53770237D02*
X47322426Y-53739285D01*
X47322426Y-53739285D02*
X47291473Y-53770237D01*
X47291473Y-53770237D02*
X47260521Y-53832142D01*
X47260521Y-53832142D02*
X47260521Y-53986904D01*
X47260521Y-53986904D02*
X47291473Y-54048809D01*
X47291473Y-54048809D02*
X47322426Y-54079761D01*
X47322426Y-54079761D02*
X47384330Y-54110714D01*
X47384330Y-54110714D02*
X47539092Y-54110714D01*
X47539092Y-54110714D02*
X47600997Y-54079761D01*
X47600997Y-54079761D02*
X47631950Y-54048809D01*
X47631950Y-54048809D02*
X47662902Y-53986904D01*
X47662902Y-53986904D02*
X47662902Y-53832142D01*
X47662902Y-53832142D02*
X47631950Y-53770237D01*
X47631950Y-53770237D02*
X47600997Y-53739285D01*
X63617857Y-56680997D02*
X63648809Y-56711950D01*
X63648809Y-56711950D02*
X63741667Y-56742902D01*
X63741667Y-56742902D02*
X63803571Y-56742902D01*
X63803571Y-56742902D02*
X63896428Y-56711950D01*
X63896428Y-56711950D02*
X63958333Y-56650045D01*
X63958333Y-56650045D02*
X63989286Y-56588140D01*
X63989286Y-56588140D02*
X64020238Y-56464330D01*
X64020238Y-56464330D02*
X64020238Y-56371473D01*
X64020238Y-56371473D02*
X63989286Y-56247664D01*
X63989286Y-56247664D02*
X63958333Y-56185759D01*
X63958333Y-56185759D02*
X63896428Y-56123854D01*
X63896428Y-56123854D02*
X63803571Y-56092902D01*
X63803571Y-56092902D02*
X63741667Y-56092902D01*
X63741667Y-56092902D02*
X63648809Y-56123854D01*
X63648809Y-56123854D02*
X63617857Y-56154807D01*
X63370238Y-56154807D02*
X63339286Y-56123854D01*
X63339286Y-56123854D02*
X63277381Y-56092902D01*
X63277381Y-56092902D02*
X63122619Y-56092902D01*
X63122619Y-56092902D02*
X63060714Y-56123854D01*
X63060714Y-56123854D02*
X63029762Y-56154807D01*
X63029762Y-56154807D02*
X62998809Y-56216711D01*
X62998809Y-56216711D02*
X62998809Y-56278616D01*
X62998809Y-56278616D02*
X63029762Y-56371473D01*
X63029762Y-56371473D02*
X63401190Y-56742902D01*
X63401190Y-56742902D02*
X62998809Y-56742902D01*
X62441666Y-56309569D02*
X62441666Y-56742902D01*
X62596428Y-56061950D02*
X62751190Y-56526235D01*
X62751190Y-56526235D02*
X62348809Y-56526235D01*
X43217857Y-32280997D02*
X43248809Y-32311950D01*
X43248809Y-32311950D02*
X43341667Y-32342902D01*
X43341667Y-32342902D02*
X43403571Y-32342902D01*
X43403571Y-32342902D02*
X43496428Y-32311950D01*
X43496428Y-32311950D02*
X43558333Y-32250045D01*
X43558333Y-32250045D02*
X43589286Y-32188140D01*
X43589286Y-32188140D02*
X43620238Y-32064330D01*
X43620238Y-32064330D02*
X43620238Y-31971473D01*
X43620238Y-31971473D02*
X43589286Y-31847664D01*
X43589286Y-31847664D02*
X43558333Y-31785759D01*
X43558333Y-31785759D02*
X43496428Y-31723854D01*
X43496428Y-31723854D02*
X43403571Y-31692902D01*
X43403571Y-31692902D02*
X43341667Y-31692902D01*
X43341667Y-31692902D02*
X43248809Y-31723854D01*
X43248809Y-31723854D02*
X43217857Y-31754807D01*
X42598809Y-32342902D02*
X42970238Y-32342902D01*
X42784524Y-32342902D02*
X42784524Y-31692902D01*
X42784524Y-31692902D02*
X42846428Y-31785759D01*
X42846428Y-31785759D02*
X42908333Y-31847664D01*
X42908333Y-31847664D02*
X42970238Y-31878616D01*
X42041666Y-31692902D02*
X42165476Y-31692902D01*
X42165476Y-31692902D02*
X42227380Y-31723854D01*
X42227380Y-31723854D02*
X42258333Y-31754807D01*
X42258333Y-31754807D02*
X42320238Y-31847664D01*
X42320238Y-31847664D02*
X42351190Y-31971473D01*
X42351190Y-31971473D02*
X42351190Y-32219092D01*
X42351190Y-32219092D02*
X42320238Y-32280997D01*
X42320238Y-32280997D02*
X42289285Y-32311950D01*
X42289285Y-32311950D02*
X42227380Y-32342902D01*
X42227380Y-32342902D02*
X42103571Y-32342902D01*
X42103571Y-32342902D02*
X42041666Y-32311950D01*
X42041666Y-32311950D02*
X42010714Y-32280997D01*
X42010714Y-32280997D02*
X41979761Y-32219092D01*
X41979761Y-32219092D02*
X41979761Y-32064330D01*
X41979761Y-32064330D02*
X42010714Y-32002426D01*
X42010714Y-32002426D02*
X42041666Y-31971473D01*
X42041666Y-31971473D02*
X42103571Y-31940521D01*
X42103571Y-31940521D02*
X42227380Y-31940521D01*
X42227380Y-31940521D02*
X42289285Y-31971473D01*
X42289285Y-31971473D02*
X42320238Y-32002426D01*
X42320238Y-32002426D02*
X42351190Y-32064330D01*
X43817857Y-22080997D02*
X43848809Y-22111950D01*
X43848809Y-22111950D02*
X43941667Y-22142902D01*
X43941667Y-22142902D02*
X44003571Y-22142902D01*
X44003571Y-22142902D02*
X44096428Y-22111950D01*
X44096428Y-22111950D02*
X44158333Y-22050045D01*
X44158333Y-22050045D02*
X44189286Y-21988140D01*
X44189286Y-21988140D02*
X44220238Y-21864330D01*
X44220238Y-21864330D02*
X44220238Y-21771473D01*
X44220238Y-21771473D02*
X44189286Y-21647664D01*
X44189286Y-21647664D02*
X44158333Y-21585759D01*
X44158333Y-21585759D02*
X44096428Y-21523854D01*
X44096428Y-21523854D02*
X44003571Y-21492902D01*
X44003571Y-21492902D02*
X43941667Y-21492902D01*
X43941667Y-21492902D02*
X43848809Y-21523854D01*
X43848809Y-21523854D02*
X43817857Y-21554807D01*
X43570238Y-21554807D02*
X43539286Y-21523854D01*
X43539286Y-21523854D02*
X43477381Y-21492902D01*
X43477381Y-21492902D02*
X43322619Y-21492902D01*
X43322619Y-21492902D02*
X43260714Y-21523854D01*
X43260714Y-21523854D02*
X43229762Y-21554807D01*
X43229762Y-21554807D02*
X43198809Y-21616711D01*
X43198809Y-21616711D02*
X43198809Y-21678616D01*
X43198809Y-21678616D02*
X43229762Y-21771473D01*
X43229762Y-21771473D02*
X43601190Y-22142902D01*
X43601190Y-22142902D02*
X43198809Y-22142902D01*
X42610714Y-21492902D02*
X42920238Y-21492902D01*
X42920238Y-21492902D02*
X42951190Y-21802426D01*
X42951190Y-21802426D02*
X42920238Y-21771473D01*
X42920238Y-21771473D02*
X42858333Y-21740521D01*
X42858333Y-21740521D02*
X42703571Y-21740521D01*
X42703571Y-21740521D02*
X42641666Y-21771473D01*
X42641666Y-21771473D02*
X42610714Y-21802426D01*
X42610714Y-21802426D02*
X42579761Y-21864330D01*
X42579761Y-21864330D02*
X42579761Y-22019092D01*
X42579761Y-22019092D02*
X42610714Y-22080997D01*
X42610714Y-22080997D02*
X42641666Y-22111950D01*
X42641666Y-22111950D02*
X42703571Y-22142902D01*
X42703571Y-22142902D02*
X42858333Y-22142902D01*
X42858333Y-22142902D02*
X42920238Y-22111950D01*
X42920238Y-22111950D02*
X42951190Y-22080997D01*
X52495238Y-20442902D02*
X52495238Y-20969092D01*
X52495238Y-20969092D02*
X52464285Y-21030997D01*
X52464285Y-21030997D02*
X52433333Y-21061950D01*
X52433333Y-21061950D02*
X52371428Y-21092902D01*
X52371428Y-21092902D02*
X52247619Y-21092902D01*
X52247619Y-21092902D02*
X52185714Y-21061950D01*
X52185714Y-21061950D02*
X52154761Y-21030997D01*
X52154761Y-21030997D02*
X52123809Y-20969092D01*
X52123809Y-20969092D02*
X52123809Y-20442902D01*
X51473809Y-21092902D02*
X51845238Y-21092902D01*
X51659524Y-21092902D02*
X51659524Y-20442902D01*
X51659524Y-20442902D02*
X51721428Y-20535759D01*
X51721428Y-20535759D02*
X51783333Y-20597664D01*
X51783333Y-20597664D02*
X51845238Y-20628616D01*
X47083333Y-20700997D02*
X47114285Y-20731950D01*
X47114285Y-20731950D02*
X47207143Y-20762902D01*
X47207143Y-20762902D02*
X47269047Y-20762902D01*
X47269047Y-20762902D02*
X47361904Y-20731950D01*
X47361904Y-20731950D02*
X47423809Y-20670045D01*
X47423809Y-20670045D02*
X47454762Y-20608140D01*
X47454762Y-20608140D02*
X47485714Y-20484330D01*
X47485714Y-20484330D02*
X47485714Y-20391473D01*
X47485714Y-20391473D02*
X47454762Y-20267664D01*
X47454762Y-20267664D02*
X47423809Y-20205759D01*
X47423809Y-20205759D02*
X47361904Y-20143854D01*
X47361904Y-20143854D02*
X47269047Y-20112902D01*
X47269047Y-20112902D02*
X47207143Y-20112902D01*
X47207143Y-20112902D02*
X47114285Y-20143854D01*
X47114285Y-20143854D02*
X47083333Y-20174807D01*
X46526190Y-20329569D02*
X46526190Y-20762902D01*
X46680952Y-20081950D02*
X46835714Y-20546235D01*
X46835714Y-20546235D02*
X46433333Y-20546235D01*
X44808333Y-27530997D02*
X44839285Y-27561950D01*
X44839285Y-27561950D02*
X44932143Y-27592902D01*
X44932143Y-27592902D02*
X44994047Y-27592902D01*
X44994047Y-27592902D02*
X45086904Y-27561950D01*
X45086904Y-27561950D02*
X45148809Y-27500045D01*
X45148809Y-27500045D02*
X45179762Y-27438140D01*
X45179762Y-27438140D02*
X45210714Y-27314330D01*
X45210714Y-27314330D02*
X45210714Y-27221473D01*
X45210714Y-27221473D02*
X45179762Y-27097664D01*
X45179762Y-27097664D02*
X45148809Y-27035759D01*
X45148809Y-27035759D02*
X45086904Y-26973854D01*
X45086904Y-26973854D02*
X44994047Y-26942902D01*
X44994047Y-26942902D02*
X44932143Y-26942902D01*
X44932143Y-26942902D02*
X44839285Y-26973854D01*
X44839285Y-26973854D02*
X44808333Y-27004807D01*
X44220238Y-26942902D02*
X44529762Y-26942902D01*
X44529762Y-26942902D02*
X44560714Y-27252426D01*
X44560714Y-27252426D02*
X44529762Y-27221473D01*
X44529762Y-27221473D02*
X44467857Y-27190521D01*
X44467857Y-27190521D02*
X44313095Y-27190521D01*
X44313095Y-27190521D02*
X44251190Y-27221473D01*
X44251190Y-27221473D02*
X44220238Y-27252426D01*
X44220238Y-27252426D02*
X44189285Y-27314330D01*
X44189285Y-27314330D02*
X44189285Y-27469092D01*
X44189285Y-27469092D02*
X44220238Y-27530997D01*
X44220238Y-27530997D02*
X44251190Y-27561950D01*
X44251190Y-27561950D02*
X44313095Y-27592902D01*
X44313095Y-27592902D02*
X44467857Y-27592902D01*
X44467857Y-27592902D02*
X44529762Y-27561950D01*
X44529762Y-27561950D02*
X44560714Y-27530997D01*
X57692902Y-53532142D02*
X57383378Y-53315475D01*
X57692902Y-53160713D02*
X57042902Y-53160713D01*
X57042902Y-53160713D02*
X57042902Y-53408332D01*
X57042902Y-53408332D02*
X57073854Y-53470237D01*
X57073854Y-53470237D02*
X57104807Y-53501190D01*
X57104807Y-53501190D02*
X57166711Y-53532142D01*
X57166711Y-53532142D02*
X57259569Y-53532142D01*
X57259569Y-53532142D02*
X57321473Y-53501190D01*
X57321473Y-53501190D02*
X57352426Y-53470237D01*
X57352426Y-53470237D02*
X57383378Y-53408332D01*
X57383378Y-53408332D02*
X57383378Y-53160713D01*
X57692902Y-54151190D02*
X57692902Y-53779761D01*
X57692902Y-53965475D02*
X57042902Y-53965475D01*
X57042902Y-53965475D02*
X57135759Y-53903571D01*
X57135759Y-53903571D02*
X57197664Y-53841666D01*
X57197664Y-53841666D02*
X57228616Y-53779761D01*
X57042902Y-54367857D02*
X57042902Y-54770238D01*
X57042902Y-54770238D02*
X57290521Y-54553571D01*
X57290521Y-54553571D02*
X57290521Y-54646428D01*
X57290521Y-54646428D02*
X57321473Y-54708333D01*
X57321473Y-54708333D02*
X57352426Y-54739285D01*
X57352426Y-54739285D02*
X57414330Y-54770238D01*
X57414330Y-54770238D02*
X57569092Y-54770238D01*
X57569092Y-54770238D02*
X57630997Y-54739285D01*
X57630997Y-54739285D02*
X57661950Y-54708333D01*
X57661950Y-54708333D02*
X57692902Y-54646428D01*
X57692902Y-54646428D02*
X57692902Y-54460714D01*
X57692902Y-54460714D02*
X57661950Y-54398809D01*
X57661950Y-54398809D02*
X57630997Y-54367857D01*
X60854807Y-78200595D02*
X60823854Y-78138690D01*
X60823854Y-78138690D02*
X60761950Y-78076785D01*
X60761950Y-78076785D02*
X60669092Y-77983928D01*
X60669092Y-77983928D02*
X60638140Y-77922023D01*
X60638140Y-77922023D02*
X60638140Y-77860119D01*
X60792902Y-77891071D02*
X60761950Y-77829166D01*
X60761950Y-77829166D02*
X60700045Y-77767261D01*
X60700045Y-77767261D02*
X60576235Y-77736309D01*
X60576235Y-77736309D02*
X60359569Y-77736309D01*
X60359569Y-77736309D02*
X60235759Y-77767261D01*
X60235759Y-77767261D02*
X60173854Y-77829166D01*
X60173854Y-77829166D02*
X60142902Y-77891071D01*
X60142902Y-77891071D02*
X60142902Y-78014880D01*
X60142902Y-78014880D02*
X60173854Y-78076785D01*
X60173854Y-78076785D02*
X60235759Y-78138690D01*
X60235759Y-78138690D02*
X60359569Y-78169642D01*
X60359569Y-78169642D02*
X60576235Y-78169642D01*
X60576235Y-78169642D02*
X60700045Y-78138690D01*
X60700045Y-78138690D02*
X60761950Y-78076785D01*
X60761950Y-78076785D02*
X60792902Y-78014880D01*
X60792902Y-78014880D02*
X60792902Y-77891071D01*
X60204807Y-78417261D02*
X60173854Y-78448213D01*
X60173854Y-78448213D02*
X60142902Y-78510118D01*
X60142902Y-78510118D02*
X60142902Y-78664880D01*
X60142902Y-78664880D02*
X60173854Y-78726785D01*
X60173854Y-78726785D02*
X60204807Y-78757737D01*
X60204807Y-78757737D02*
X60266711Y-78788690D01*
X60266711Y-78788690D02*
X60328616Y-78788690D01*
X60328616Y-78788690D02*
X60421473Y-78757737D01*
X60421473Y-78757737D02*
X60792902Y-78386309D01*
X60792902Y-78386309D02*
X60792902Y-78788690D01*
X62117857Y-33430997D02*
X62148809Y-33461950D01*
X62148809Y-33461950D02*
X62241667Y-33492902D01*
X62241667Y-33492902D02*
X62303571Y-33492902D01*
X62303571Y-33492902D02*
X62396428Y-33461950D01*
X62396428Y-33461950D02*
X62458333Y-33400045D01*
X62458333Y-33400045D02*
X62489286Y-33338140D01*
X62489286Y-33338140D02*
X62520238Y-33214330D01*
X62520238Y-33214330D02*
X62520238Y-33121473D01*
X62520238Y-33121473D02*
X62489286Y-32997664D01*
X62489286Y-32997664D02*
X62458333Y-32935759D01*
X62458333Y-32935759D02*
X62396428Y-32873854D01*
X62396428Y-32873854D02*
X62303571Y-32842902D01*
X62303571Y-32842902D02*
X62241667Y-32842902D01*
X62241667Y-32842902D02*
X62148809Y-32873854D01*
X62148809Y-32873854D02*
X62117857Y-32904807D01*
X61498809Y-33492902D02*
X61870238Y-33492902D01*
X61684524Y-33492902D02*
X61684524Y-32842902D01*
X61684524Y-32842902D02*
X61746428Y-32935759D01*
X61746428Y-32935759D02*
X61808333Y-32997664D01*
X61808333Y-32997664D02*
X61870238Y-33028616D01*
X61282142Y-32842902D02*
X60848809Y-32842902D01*
X60848809Y-32842902D02*
X61127380Y-33492902D01*
X60567857Y-64230997D02*
X60598809Y-64261950D01*
X60598809Y-64261950D02*
X60691667Y-64292902D01*
X60691667Y-64292902D02*
X60753571Y-64292902D01*
X60753571Y-64292902D02*
X60846428Y-64261950D01*
X60846428Y-64261950D02*
X60908333Y-64200045D01*
X60908333Y-64200045D02*
X60939286Y-64138140D01*
X60939286Y-64138140D02*
X60970238Y-64014330D01*
X60970238Y-64014330D02*
X60970238Y-63921473D01*
X60970238Y-63921473D02*
X60939286Y-63797664D01*
X60939286Y-63797664D02*
X60908333Y-63735759D01*
X60908333Y-63735759D02*
X60846428Y-63673854D01*
X60846428Y-63673854D02*
X60753571Y-63642902D01*
X60753571Y-63642902D02*
X60691667Y-63642902D01*
X60691667Y-63642902D02*
X60598809Y-63673854D01*
X60598809Y-63673854D02*
X60567857Y-63704807D01*
X60320238Y-63704807D02*
X60289286Y-63673854D01*
X60289286Y-63673854D02*
X60227381Y-63642902D01*
X60227381Y-63642902D02*
X60072619Y-63642902D01*
X60072619Y-63642902D02*
X60010714Y-63673854D01*
X60010714Y-63673854D02*
X59979762Y-63704807D01*
X59979762Y-63704807D02*
X59948809Y-63766711D01*
X59948809Y-63766711D02*
X59948809Y-63828616D01*
X59948809Y-63828616D02*
X59979762Y-63921473D01*
X59979762Y-63921473D02*
X60351190Y-64292902D01*
X60351190Y-64292902D02*
X59948809Y-64292902D01*
X59329761Y-64292902D02*
X59701190Y-64292902D01*
X59515476Y-64292902D02*
X59515476Y-63642902D01*
X59515476Y-63642902D02*
X59577380Y-63735759D01*
X59577380Y-63735759D02*
X59639285Y-63797664D01*
X59639285Y-63797664D02*
X59701190Y-63828616D01*
X59680997Y-23291666D02*
X59711950Y-23260714D01*
X59711950Y-23260714D02*
X59742902Y-23167856D01*
X59742902Y-23167856D02*
X59742902Y-23105952D01*
X59742902Y-23105952D02*
X59711950Y-23013095D01*
X59711950Y-23013095D02*
X59650045Y-22951190D01*
X59650045Y-22951190D02*
X59588140Y-22920237D01*
X59588140Y-22920237D02*
X59464330Y-22889285D01*
X59464330Y-22889285D02*
X59371473Y-22889285D01*
X59371473Y-22889285D02*
X59247664Y-22920237D01*
X59247664Y-22920237D02*
X59185759Y-22951190D01*
X59185759Y-22951190D02*
X59123854Y-23013095D01*
X59123854Y-23013095D02*
X59092902Y-23105952D01*
X59092902Y-23105952D02*
X59092902Y-23167856D01*
X59092902Y-23167856D02*
X59123854Y-23260714D01*
X59123854Y-23260714D02*
X59154807Y-23291666D01*
X59092902Y-23848809D02*
X59092902Y-23724999D01*
X59092902Y-23724999D02*
X59123854Y-23663095D01*
X59123854Y-23663095D02*
X59154807Y-23632142D01*
X59154807Y-23632142D02*
X59247664Y-23570237D01*
X59247664Y-23570237D02*
X59371473Y-23539285D01*
X59371473Y-23539285D02*
X59619092Y-23539285D01*
X59619092Y-23539285D02*
X59680997Y-23570237D01*
X59680997Y-23570237D02*
X59711950Y-23601190D01*
X59711950Y-23601190D02*
X59742902Y-23663095D01*
X59742902Y-23663095D02*
X59742902Y-23786904D01*
X59742902Y-23786904D02*
X59711950Y-23848809D01*
X59711950Y-23848809D02*
X59680997Y-23879761D01*
X59680997Y-23879761D02*
X59619092Y-23910714D01*
X59619092Y-23910714D02*
X59464330Y-23910714D01*
X59464330Y-23910714D02*
X59402426Y-23879761D01*
X59402426Y-23879761D02*
X59371473Y-23848809D01*
X59371473Y-23848809D02*
X59340521Y-23786904D01*
X59340521Y-23786904D02*
X59340521Y-23663095D01*
X59340521Y-23663095D02*
X59371473Y-23601190D01*
X59371473Y-23601190D02*
X59402426Y-23570237D01*
X59402426Y-23570237D02*
X59464330Y-23539285D01*
X56817857Y-51892902D02*
X57034524Y-51583378D01*
X57189286Y-51892902D02*
X57189286Y-51242902D01*
X57189286Y-51242902D02*
X56941667Y-51242902D01*
X56941667Y-51242902D02*
X56879762Y-51273854D01*
X56879762Y-51273854D02*
X56848809Y-51304807D01*
X56848809Y-51304807D02*
X56817857Y-51366711D01*
X56817857Y-51366711D02*
X56817857Y-51459569D01*
X56817857Y-51459569D02*
X56848809Y-51521473D01*
X56848809Y-51521473D02*
X56879762Y-51552426D01*
X56879762Y-51552426D02*
X56941667Y-51583378D01*
X56941667Y-51583378D02*
X57189286Y-51583378D01*
X56570238Y-51304807D02*
X56539286Y-51273854D01*
X56539286Y-51273854D02*
X56477381Y-51242902D01*
X56477381Y-51242902D02*
X56322619Y-51242902D01*
X56322619Y-51242902D02*
X56260714Y-51273854D01*
X56260714Y-51273854D02*
X56229762Y-51304807D01*
X56229762Y-51304807D02*
X56198809Y-51366711D01*
X56198809Y-51366711D02*
X56198809Y-51428616D01*
X56198809Y-51428616D02*
X56229762Y-51521473D01*
X56229762Y-51521473D02*
X56601190Y-51892902D01*
X56601190Y-51892902D02*
X56198809Y-51892902D01*
X55827380Y-51521473D02*
X55889285Y-51490521D01*
X55889285Y-51490521D02*
X55920238Y-51459569D01*
X55920238Y-51459569D02*
X55951190Y-51397664D01*
X55951190Y-51397664D02*
X55951190Y-51366711D01*
X55951190Y-51366711D02*
X55920238Y-51304807D01*
X55920238Y-51304807D02*
X55889285Y-51273854D01*
X55889285Y-51273854D02*
X55827380Y-51242902D01*
X55827380Y-51242902D02*
X55703571Y-51242902D01*
X55703571Y-51242902D02*
X55641666Y-51273854D01*
X55641666Y-51273854D02*
X55610714Y-51304807D01*
X55610714Y-51304807D02*
X55579761Y-51366711D01*
X55579761Y-51366711D02*
X55579761Y-51397664D01*
X55579761Y-51397664D02*
X55610714Y-51459569D01*
X55610714Y-51459569D02*
X55641666Y-51490521D01*
X55641666Y-51490521D02*
X55703571Y-51521473D01*
X55703571Y-51521473D02*
X55827380Y-51521473D01*
X55827380Y-51521473D02*
X55889285Y-51552426D01*
X55889285Y-51552426D02*
X55920238Y-51583378D01*
X55920238Y-51583378D02*
X55951190Y-51645283D01*
X55951190Y-51645283D02*
X55951190Y-51769092D01*
X55951190Y-51769092D02*
X55920238Y-51830997D01*
X55920238Y-51830997D02*
X55889285Y-51861950D01*
X55889285Y-51861950D02*
X55827380Y-51892902D01*
X55827380Y-51892902D02*
X55703571Y-51892902D01*
X55703571Y-51892902D02*
X55641666Y-51861950D01*
X55641666Y-51861950D02*
X55610714Y-51830997D01*
X55610714Y-51830997D02*
X55579761Y-51769092D01*
X55579761Y-51769092D02*
X55579761Y-51645283D01*
X55579761Y-51645283D02*
X55610714Y-51583378D01*
X55610714Y-51583378D02*
X55641666Y-51552426D01*
X55641666Y-51552426D02*
X55703571Y-51521473D01*
X63580997Y-24641666D02*
X63611950Y-24610714D01*
X63611950Y-24610714D02*
X63642902Y-24517856D01*
X63642902Y-24517856D02*
X63642902Y-24455952D01*
X63642902Y-24455952D02*
X63611950Y-24363095D01*
X63611950Y-24363095D02*
X63550045Y-24301190D01*
X63550045Y-24301190D02*
X63488140Y-24270237D01*
X63488140Y-24270237D02*
X63364330Y-24239285D01*
X63364330Y-24239285D02*
X63271473Y-24239285D01*
X63271473Y-24239285D02*
X63147664Y-24270237D01*
X63147664Y-24270237D02*
X63085759Y-24301190D01*
X63085759Y-24301190D02*
X63023854Y-24363095D01*
X63023854Y-24363095D02*
X62992902Y-24455952D01*
X62992902Y-24455952D02*
X62992902Y-24517856D01*
X62992902Y-24517856D02*
X63023854Y-24610714D01*
X63023854Y-24610714D02*
X63054807Y-24641666D01*
X62992902Y-24858333D02*
X62992902Y-25291666D01*
X62992902Y-25291666D02*
X63642902Y-25013095D01*
X64529762Y-86992902D02*
X64529762Y-86342902D01*
X64529762Y-86342902D02*
X64375000Y-86342902D01*
X64375000Y-86342902D02*
X64282143Y-86373854D01*
X64282143Y-86373854D02*
X64220238Y-86435759D01*
X64220238Y-86435759D02*
X64189285Y-86497664D01*
X64189285Y-86497664D02*
X64158333Y-86621473D01*
X64158333Y-86621473D02*
X64158333Y-86714330D01*
X64158333Y-86714330D02*
X64189285Y-86838140D01*
X64189285Y-86838140D02*
X64220238Y-86900045D01*
X64220238Y-86900045D02*
X64282143Y-86961950D01*
X64282143Y-86961950D02*
X64375000Y-86992902D01*
X64375000Y-86992902D02*
X64529762Y-86992902D01*
X63910714Y-86404807D02*
X63879762Y-86373854D01*
X63879762Y-86373854D02*
X63817857Y-86342902D01*
X63817857Y-86342902D02*
X63663095Y-86342902D01*
X63663095Y-86342902D02*
X63601190Y-86373854D01*
X63601190Y-86373854D02*
X63570238Y-86404807D01*
X63570238Y-86404807D02*
X63539285Y-86466711D01*
X63539285Y-86466711D02*
X63539285Y-86528616D01*
X63539285Y-86528616D02*
X63570238Y-86621473D01*
X63570238Y-86621473D02*
X63941666Y-86992902D01*
X63941666Y-86992902D02*
X63539285Y-86992902D01*
X45508333Y-32392902D02*
X45725000Y-32083378D01*
X45879762Y-32392902D02*
X45879762Y-31742902D01*
X45879762Y-31742902D02*
X45632143Y-31742902D01*
X45632143Y-31742902D02*
X45570238Y-31773854D01*
X45570238Y-31773854D02*
X45539285Y-31804807D01*
X45539285Y-31804807D02*
X45508333Y-31866711D01*
X45508333Y-31866711D02*
X45508333Y-31959569D01*
X45508333Y-31959569D02*
X45539285Y-32021473D01*
X45539285Y-32021473D02*
X45570238Y-32052426D01*
X45570238Y-32052426D02*
X45632143Y-32083378D01*
X45632143Y-32083378D02*
X45879762Y-32083378D01*
X44951190Y-31959569D02*
X44951190Y-32392902D01*
X45105952Y-31711950D02*
X45260714Y-32176235D01*
X45260714Y-32176235D02*
X44858333Y-32176235D01*
X49779762Y-66392902D02*
X49779762Y-65742902D01*
X49779762Y-65742902D02*
X49625000Y-65742902D01*
X49625000Y-65742902D02*
X49532143Y-65773854D01*
X49532143Y-65773854D02*
X49470238Y-65835759D01*
X49470238Y-65835759D02*
X49439285Y-65897664D01*
X49439285Y-65897664D02*
X49408333Y-66021473D01*
X49408333Y-66021473D02*
X49408333Y-66114330D01*
X49408333Y-66114330D02*
X49439285Y-66238140D01*
X49439285Y-66238140D02*
X49470238Y-66300045D01*
X49470238Y-66300045D02*
X49532143Y-66361950D01*
X49532143Y-66361950D02*
X49625000Y-66392902D01*
X49625000Y-66392902D02*
X49779762Y-66392902D01*
X48851190Y-65742902D02*
X48975000Y-65742902D01*
X48975000Y-65742902D02*
X49036904Y-65773854D01*
X49036904Y-65773854D02*
X49067857Y-65804807D01*
X49067857Y-65804807D02*
X49129762Y-65897664D01*
X49129762Y-65897664D02*
X49160714Y-66021473D01*
X49160714Y-66021473D02*
X49160714Y-66269092D01*
X49160714Y-66269092D02*
X49129762Y-66330997D01*
X49129762Y-66330997D02*
X49098809Y-66361950D01*
X49098809Y-66361950D02*
X49036904Y-66392902D01*
X49036904Y-66392902D02*
X48913095Y-66392902D01*
X48913095Y-66392902D02*
X48851190Y-66361950D01*
X48851190Y-66361950D02*
X48820238Y-66330997D01*
X48820238Y-66330997D02*
X48789285Y-66269092D01*
X48789285Y-66269092D02*
X48789285Y-66114330D01*
X48789285Y-66114330D02*
X48820238Y-66052426D01*
X48820238Y-66052426D02*
X48851190Y-66021473D01*
X48851190Y-66021473D02*
X48913095Y-65990521D01*
X48913095Y-65990521D02*
X49036904Y-65990521D01*
X49036904Y-65990521D02*
X49098809Y-66021473D01*
X49098809Y-66021473D02*
X49129762Y-66052426D01*
X49129762Y-66052426D02*
X49160714Y-66114330D01*
X58229762Y-83292902D02*
X58229762Y-82642902D01*
X58229762Y-82642902D02*
X58075000Y-82642902D01*
X58075000Y-82642902D02*
X57982143Y-82673854D01*
X57982143Y-82673854D02*
X57920238Y-82735759D01*
X57920238Y-82735759D02*
X57889285Y-82797664D01*
X57889285Y-82797664D02*
X57858333Y-82921473D01*
X57858333Y-82921473D02*
X57858333Y-83014330D01*
X57858333Y-83014330D02*
X57889285Y-83138140D01*
X57889285Y-83138140D02*
X57920238Y-83200045D01*
X57920238Y-83200045D02*
X57982143Y-83261950D01*
X57982143Y-83261950D02*
X58075000Y-83292902D01*
X58075000Y-83292902D02*
X58229762Y-83292902D01*
X57641666Y-82642902D02*
X57239285Y-82642902D01*
X57239285Y-82642902D02*
X57455952Y-82890521D01*
X57455952Y-82890521D02*
X57363095Y-82890521D01*
X57363095Y-82890521D02*
X57301190Y-82921473D01*
X57301190Y-82921473D02*
X57270238Y-82952426D01*
X57270238Y-82952426D02*
X57239285Y-83014330D01*
X57239285Y-83014330D02*
X57239285Y-83169092D01*
X57239285Y-83169092D02*
X57270238Y-83230997D01*
X57270238Y-83230997D02*
X57301190Y-83261950D01*
X57301190Y-83261950D02*
X57363095Y-83292902D01*
X57363095Y-83292902D02*
X57548809Y-83292902D01*
X57548809Y-83292902D02*
X57610714Y-83261950D01*
X57610714Y-83261950D02*
X57641666Y-83230997D01*
X59792902Y-24941666D02*
X59483378Y-24724999D01*
X59792902Y-24570237D02*
X59142902Y-24570237D01*
X59142902Y-24570237D02*
X59142902Y-24817856D01*
X59142902Y-24817856D02*
X59173854Y-24879761D01*
X59173854Y-24879761D02*
X59204807Y-24910714D01*
X59204807Y-24910714D02*
X59266711Y-24941666D01*
X59266711Y-24941666D02*
X59359569Y-24941666D01*
X59359569Y-24941666D02*
X59421473Y-24910714D01*
X59421473Y-24910714D02*
X59452426Y-24879761D01*
X59452426Y-24879761D02*
X59483378Y-24817856D01*
X59483378Y-24817856D02*
X59483378Y-24570237D01*
X59142902Y-25158333D02*
X59142902Y-25560714D01*
X59142902Y-25560714D02*
X59390521Y-25344047D01*
X59390521Y-25344047D02*
X59390521Y-25436904D01*
X59390521Y-25436904D02*
X59421473Y-25498809D01*
X59421473Y-25498809D02*
X59452426Y-25529761D01*
X59452426Y-25529761D02*
X59514330Y-25560714D01*
X59514330Y-25560714D02*
X59669092Y-25560714D01*
X59669092Y-25560714D02*
X59730997Y-25529761D01*
X59730997Y-25529761D02*
X59761950Y-25498809D01*
X59761950Y-25498809D02*
X59792902Y-25436904D01*
X59792902Y-25436904D02*
X59792902Y-25251190D01*
X59792902Y-25251190D02*
X59761950Y-25189285D01*
X59761950Y-25189285D02*
X59730997Y-25158333D01*
X32917857Y-32742902D02*
X33134524Y-32433378D01*
X33289286Y-32742902D02*
X33289286Y-32092902D01*
X33289286Y-32092902D02*
X33041667Y-32092902D01*
X33041667Y-32092902D02*
X32979762Y-32123854D01*
X32979762Y-32123854D02*
X32948809Y-32154807D01*
X32948809Y-32154807D02*
X32917857Y-32216711D01*
X32917857Y-32216711D02*
X32917857Y-32309569D01*
X32917857Y-32309569D02*
X32948809Y-32371473D01*
X32948809Y-32371473D02*
X32979762Y-32402426D01*
X32979762Y-32402426D02*
X33041667Y-32433378D01*
X33041667Y-32433378D02*
X33289286Y-32433378D01*
X32670238Y-32154807D02*
X32639286Y-32123854D01*
X32639286Y-32123854D02*
X32577381Y-32092902D01*
X32577381Y-32092902D02*
X32422619Y-32092902D01*
X32422619Y-32092902D02*
X32360714Y-32123854D01*
X32360714Y-32123854D02*
X32329762Y-32154807D01*
X32329762Y-32154807D02*
X32298809Y-32216711D01*
X32298809Y-32216711D02*
X32298809Y-32278616D01*
X32298809Y-32278616D02*
X32329762Y-32371473D01*
X32329762Y-32371473D02*
X32701190Y-32742902D01*
X32701190Y-32742902D02*
X32298809Y-32742902D01*
X32051190Y-32154807D02*
X32020238Y-32123854D01*
X32020238Y-32123854D02*
X31958333Y-32092902D01*
X31958333Y-32092902D02*
X31803571Y-32092902D01*
X31803571Y-32092902D02*
X31741666Y-32123854D01*
X31741666Y-32123854D02*
X31710714Y-32154807D01*
X31710714Y-32154807D02*
X31679761Y-32216711D01*
X31679761Y-32216711D02*
X31679761Y-32278616D01*
X31679761Y-32278616D02*
X31710714Y-32371473D01*
X31710714Y-32371473D02*
X32082142Y-32742902D01*
X32082142Y-32742902D02*
X31679761Y-32742902D01*
X59742902Y-26341666D02*
X59433378Y-26124999D01*
X59742902Y-25970237D02*
X59092902Y-25970237D01*
X59092902Y-25970237D02*
X59092902Y-26217856D01*
X59092902Y-26217856D02*
X59123854Y-26279761D01*
X59123854Y-26279761D02*
X59154807Y-26310714D01*
X59154807Y-26310714D02*
X59216711Y-26341666D01*
X59216711Y-26341666D02*
X59309569Y-26341666D01*
X59309569Y-26341666D02*
X59371473Y-26310714D01*
X59371473Y-26310714D02*
X59402426Y-26279761D01*
X59402426Y-26279761D02*
X59433378Y-26217856D01*
X59433378Y-26217856D02*
X59433378Y-25970237D01*
X59154807Y-26589285D02*
X59123854Y-26620237D01*
X59123854Y-26620237D02*
X59092902Y-26682142D01*
X59092902Y-26682142D02*
X59092902Y-26836904D01*
X59092902Y-26836904D02*
X59123854Y-26898809D01*
X59123854Y-26898809D02*
X59154807Y-26929761D01*
X59154807Y-26929761D02*
X59216711Y-26960714D01*
X59216711Y-26960714D02*
X59278616Y-26960714D01*
X59278616Y-26960714D02*
X59371473Y-26929761D01*
X59371473Y-26929761D02*
X59742902Y-26558333D01*
X59742902Y-26558333D02*
X59742902Y-26960714D01*
X64067857Y-65480997D02*
X64098809Y-65511950D01*
X64098809Y-65511950D02*
X64191667Y-65542902D01*
X64191667Y-65542902D02*
X64253571Y-65542902D01*
X64253571Y-65542902D02*
X64346428Y-65511950D01*
X64346428Y-65511950D02*
X64408333Y-65450045D01*
X64408333Y-65450045D02*
X64439286Y-65388140D01*
X64439286Y-65388140D02*
X64470238Y-65264330D01*
X64470238Y-65264330D02*
X64470238Y-65171473D01*
X64470238Y-65171473D02*
X64439286Y-65047664D01*
X64439286Y-65047664D02*
X64408333Y-64985759D01*
X64408333Y-64985759D02*
X64346428Y-64923854D01*
X64346428Y-64923854D02*
X64253571Y-64892902D01*
X64253571Y-64892902D02*
X64191667Y-64892902D01*
X64191667Y-64892902D02*
X64098809Y-64923854D01*
X64098809Y-64923854D02*
X64067857Y-64954807D01*
X63820238Y-64954807D02*
X63789286Y-64923854D01*
X63789286Y-64923854D02*
X63727381Y-64892902D01*
X63727381Y-64892902D02*
X63572619Y-64892902D01*
X63572619Y-64892902D02*
X63510714Y-64923854D01*
X63510714Y-64923854D02*
X63479762Y-64954807D01*
X63479762Y-64954807D02*
X63448809Y-65016711D01*
X63448809Y-65016711D02*
X63448809Y-65078616D01*
X63448809Y-65078616D02*
X63479762Y-65171473D01*
X63479762Y-65171473D02*
X63851190Y-65542902D01*
X63851190Y-65542902D02*
X63448809Y-65542902D01*
X63201190Y-64954807D02*
X63170238Y-64923854D01*
X63170238Y-64923854D02*
X63108333Y-64892902D01*
X63108333Y-64892902D02*
X62953571Y-64892902D01*
X62953571Y-64892902D02*
X62891666Y-64923854D01*
X62891666Y-64923854D02*
X62860714Y-64954807D01*
X62860714Y-64954807D02*
X62829761Y-65016711D01*
X62829761Y-65016711D02*
X62829761Y-65078616D01*
X62829761Y-65078616D02*
X62860714Y-65171473D01*
X62860714Y-65171473D02*
X63232142Y-65542902D01*
X63232142Y-65542902D02*
X62829761Y-65542902D01*
X63530997Y-26341666D02*
X63561950Y-26310714D01*
X63561950Y-26310714D02*
X63592902Y-26217856D01*
X63592902Y-26217856D02*
X63592902Y-26155952D01*
X63592902Y-26155952D02*
X63561950Y-26063095D01*
X63561950Y-26063095D02*
X63500045Y-26001190D01*
X63500045Y-26001190D02*
X63438140Y-25970237D01*
X63438140Y-25970237D02*
X63314330Y-25939285D01*
X63314330Y-25939285D02*
X63221473Y-25939285D01*
X63221473Y-25939285D02*
X63097664Y-25970237D01*
X63097664Y-25970237D02*
X63035759Y-26001190D01*
X63035759Y-26001190D02*
X62973854Y-26063095D01*
X62973854Y-26063095D02*
X62942902Y-26155952D01*
X62942902Y-26155952D02*
X62942902Y-26217856D01*
X62942902Y-26217856D02*
X62973854Y-26310714D01*
X62973854Y-26310714D02*
X63004807Y-26341666D01*
X63221473Y-26713095D02*
X63190521Y-26651190D01*
X63190521Y-26651190D02*
X63159569Y-26620237D01*
X63159569Y-26620237D02*
X63097664Y-26589285D01*
X63097664Y-26589285D02*
X63066711Y-26589285D01*
X63066711Y-26589285D02*
X63004807Y-26620237D01*
X63004807Y-26620237D02*
X62973854Y-26651190D01*
X62973854Y-26651190D02*
X62942902Y-26713095D01*
X62942902Y-26713095D02*
X62942902Y-26836904D01*
X62942902Y-26836904D02*
X62973854Y-26898809D01*
X62973854Y-26898809D02*
X63004807Y-26929761D01*
X63004807Y-26929761D02*
X63066711Y-26960714D01*
X63066711Y-26960714D02*
X63097664Y-26960714D01*
X63097664Y-26960714D02*
X63159569Y-26929761D01*
X63159569Y-26929761D02*
X63190521Y-26898809D01*
X63190521Y-26898809D02*
X63221473Y-26836904D01*
X63221473Y-26836904D02*
X63221473Y-26713095D01*
X63221473Y-26713095D02*
X63252426Y-26651190D01*
X63252426Y-26651190D02*
X63283378Y-26620237D01*
X63283378Y-26620237D02*
X63345283Y-26589285D01*
X63345283Y-26589285D02*
X63469092Y-26589285D01*
X63469092Y-26589285D02*
X63530997Y-26620237D01*
X63530997Y-26620237D02*
X63561950Y-26651190D01*
X63561950Y-26651190D02*
X63592902Y-26713095D01*
X63592902Y-26713095D02*
X63592902Y-26836904D01*
X63592902Y-26836904D02*
X63561950Y-26898809D01*
X63561950Y-26898809D02*
X63530997Y-26929761D01*
X63530997Y-26929761D02*
X63469092Y-26960714D01*
X63469092Y-26960714D02*
X63345283Y-26960714D01*
X63345283Y-26960714D02*
X63283378Y-26929761D01*
X63283378Y-26929761D02*
X63252426Y-26898809D01*
X63252426Y-26898809D02*
X63221473Y-26836904D01*
X49058333Y-32630997D02*
X49089285Y-32661950D01*
X49089285Y-32661950D02*
X49182143Y-32692902D01*
X49182143Y-32692902D02*
X49244047Y-32692902D01*
X49244047Y-32692902D02*
X49336904Y-32661950D01*
X49336904Y-32661950D02*
X49398809Y-32600045D01*
X49398809Y-32600045D02*
X49429762Y-32538140D01*
X49429762Y-32538140D02*
X49460714Y-32414330D01*
X49460714Y-32414330D02*
X49460714Y-32321473D01*
X49460714Y-32321473D02*
X49429762Y-32197664D01*
X49429762Y-32197664D02*
X49398809Y-32135759D01*
X49398809Y-32135759D02*
X49336904Y-32073854D01*
X49336904Y-32073854D02*
X49244047Y-32042902D01*
X49244047Y-32042902D02*
X49182143Y-32042902D01*
X49182143Y-32042902D02*
X49089285Y-32073854D01*
X49089285Y-32073854D02*
X49058333Y-32104807D01*
X48439285Y-32692902D02*
X48810714Y-32692902D01*
X48625000Y-32692902D02*
X48625000Y-32042902D01*
X48625000Y-32042902D02*
X48686904Y-32135759D01*
X48686904Y-32135759D02*
X48748809Y-32197664D01*
X48748809Y-32197664D02*
X48810714Y-32228616D01*
X55142902Y-29891666D02*
X55142902Y-29582142D01*
X55142902Y-29582142D02*
X54492902Y-29582142D01*
X54554807Y-30077380D02*
X54523854Y-30108332D01*
X54523854Y-30108332D02*
X54492902Y-30170237D01*
X54492902Y-30170237D02*
X54492902Y-30324999D01*
X54492902Y-30324999D02*
X54523854Y-30386904D01*
X54523854Y-30386904D02*
X54554807Y-30417856D01*
X54554807Y-30417856D02*
X54616711Y-30448809D01*
X54616711Y-30448809D02*
X54678616Y-30448809D01*
X54678616Y-30448809D02*
X54771473Y-30417856D01*
X54771473Y-30417856D02*
X55142902Y-30046428D01*
X55142902Y-30046428D02*
X55142902Y-30448809D01*
X58592902Y-47641666D02*
X58283378Y-47424999D01*
X58592902Y-47270237D02*
X57942902Y-47270237D01*
X57942902Y-47270237D02*
X57942902Y-47517856D01*
X57942902Y-47517856D02*
X57973854Y-47579761D01*
X57973854Y-47579761D02*
X58004807Y-47610714D01*
X58004807Y-47610714D02*
X58066711Y-47641666D01*
X58066711Y-47641666D02*
X58159569Y-47641666D01*
X58159569Y-47641666D02*
X58221473Y-47610714D01*
X58221473Y-47610714D02*
X58252426Y-47579761D01*
X58252426Y-47579761D02*
X58283378Y-47517856D01*
X58283378Y-47517856D02*
X58283378Y-47270237D01*
X58592902Y-47951190D02*
X58592902Y-48074999D01*
X58592902Y-48074999D02*
X58561950Y-48136904D01*
X58561950Y-48136904D02*
X58530997Y-48167856D01*
X58530997Y-48167856D02*
X58438140Y-48229761D01*
X58438140Y-48229761D02*
X58314330Y-48260714D01*
X58314330Y-48260714D02*
X58066711Y-48260714D01*
X58066711Y-48260714D02*
X58004807Y-48229761D01*
X58004807Y-48229761D02*
X57973854Y-48198809D01*
X57973854Y-48198809D02*
X57942902Y-48136904D01*
X57942902Y-48136904D02*
X57942902Y-48013095D01*
X57942902Y-48013095D02*
X57973854Y-47951190D01*
X57973854Y-47951190D02*
X58004807Y-47920237D01*
X58004807Y-47920237D02*
X58066711Y-47889285D01*
X58066711Y-47889285D02*
X58221473Y-47889285D01*
X58221473Y-47889285D02*
X58283378Y-47920237D01*
X58283378Y-47920237D02*
X58314330Y-47951190D01*
X58314330Y-47951190D02*
X58345283Y-48013095D01*
X58345283Y-48013095D02*
X58345283Y-48136904D01*
X58345283Y-48136904D02*
X58314330Y-48198809D01*
X58314330Y-48198809D02*
X58283378Y-48229761D01*
X58283378Y-48229761D02*
X58221473Y-48260714D01*
X55092902Y-28391666D02*
X55092902Y-28082142D01*
X55092902Y-28082142D02*
X54442902Y-28082142D01*
X55092902Y-28948809D02*
X55092902Y-28577380D01*
X55092902Y-28763094D02*
X54442902Y-28763094D01*
X54442902Y-28763094D02*
X54535759Y-28701190D01*
X54535759Y-28701190D02*
X54597664Y-28639285D01*
X54597664Y-28639285D02*
X54628616Y-28577380D01*
X45079762Y-95792902D02*
X45079762Y-95142902D01*
X44708333Y-95792902D02*
X44986904Y-95421473D01*
X44708333Y-95142902D02*
X45079762Y-95514330D01*
X44460714Y-95204807D02*
X44429762Y-95173854D01*
X44429762Y-95173854D02*
X44367857Y-95142902D01*
X44367857Y-95142902D02*
X44213095Y-95142902D01*
X44213095Y-95142902D02*
X44151190Y-95173854D01*
X44151190Y-95173854D02*
X44120238Y-95204807D01*
X44120238Y-95204807D02*
X44089285Y-95266711D01*
X44089285Y-95266711D02*
X44089285Y-95328616D01*
X44089285Y-95328616D02*
X44120238Y-95421473D01*
X44120238Y-95421473D02*
X44491666Y-95792902D01*
X44491666Y-95792902D02*
X44089285Y-95792902D01*
X53017857Y-98292902D02*
X53234524Y-97983378D01*
X53389286Y-98292902D02*
X53389286Y-97642902D01*
X53389286Y-97642902D02*
X53141667Y-97642902D01*
X53141667Y-97642902D02*
X53079762Y-97673854D01*
X53079762Y-97673854D02*
X53048809Y-97704807D01*
X53048809Y-97704807D02*
X53017857Y-97766711D01*
X53017857Y-97766711D02*
X53017857Y-97859569D01*
X53017857Y-97859569D02*
X53048809Y-97921473D01*
X53048809Y-97921473D02*
X53079762Y-97952426D01*
X53079762Y-97952426D02*
X53141667Y-97983378D01*
X53141667Y-97983378D02*
X53389286Y-97983378D01*
X52398809Y-98292902D02*
X52770238Y-98292902D01*
X52584524Y-98292902D02*
X52584524Y-97642902D01*
X52584524Y-97642902D02*
X52646428Y-97735759D01*
X52646428Y-97735759D02*
X52708333Y-97797664D01*
X52708333Y-97797664D02*
X52770238Y-97828616D01*
X51779761Y-98292902D02*
X52151190Y-98292902D01*
X51965476Y-98292902D02*
X51965476Y-97642902D01*
X51965476Y-97642902D02*
X52027380Y-97735759D01*
X52027380Y-97735759D02*
X52089285Y-97797664D01*
X52089285Y-97797664D02*
X52151190Y-97828616D01*
X50608333Y-28992902D02*
X50825000Y-28683378D01*
X50979762Y-28992902D02*
X50979762Y-28342902D01*
X50979762Y-28342902D02*
X50732143Y-28342902D01*
X50732143Y-28342902D02*
X50670238Y-28373854D01*
X50670238Y-28373854D02*
X50639285Y-28404807D01*
X50639285Y-28404807D02*
X50608333Y-28466711D01*
X50608333Y-28466711D02*
X50608333Y-28559569D01*
X50608333Y-28559569D02*
X50639285Y-28621473D01*
X50639285Y-28621473D02*
X50670238Y-28652426D01*
X50670238Y-28652426D02*
X50732143Y-28683378D01*
X50732143Y-28683378D02*
X50979762Y-28683378D01*
X49989285Y-28992902D02*
X50360714Y-28992902D01*
X50175000Y-28992902D02*
X50175000Y-28342902D01*
X50175000Y-28342902D02*
X50236904Y-28435759D01*
X50236904Y-28435759D02*
X50298809Y-28497664D01*
X50298809Y-28497664D02*
X50360714Y-28528616D01*
X45059523Y-22283378D02*
X45059523Y-22592902D01*
X45276190Y-21942902D02*
X45059523Y-22283378D01*
X45059523Y-22283378D02*
X44842856Y-21942902D01*
X44285713Y-22592902D02*
X44657142Y-22592902D01*
X44471428Y-22592902D02*
X44471428Y-21942902D01*
X44471428Y-21942902D02*
X44533332Y-22035759D01*
X44533332Y-22035759D02*
X44595237Y-22097664D01*
X44595237Y-22097664D02*
X44657142Y-22128616D01*
X55995238Y-64042902D02*
X55995238Y-64569092D01*
X55995238Y-64569092D02*
X55964285Y-64630997D01*
X55964285Y-64630997D02*
X55933333Y-64661950D01*
X55933333Y-64661950D02*
X55871428Y-64692902D01*
X55871428Y-64692902D02*
X55747619Y-64692902D01*
X55747619Y-64692902D02*
X55685714Y-64661950D01*
X55685714Y-64661950D02*
X55654761Y-64630997D01*
X55654761Y-64630997D02*
X55623809Y-64569092D01*
X55623809Y-64569092D02*
X55623809Y-64042902D01*
X55345238Y-64104807D02*
X55314286Y-64073854D01*
X55314286Y-64073854D02*
X55252381Y-64042902D01*
X55252381Y-64042902D02*
X55097619Y-64042902D01*
X55097619Y-64042902D02*
X55035714Y-64073854D01*
X55035714Y-64073854D02*
X55004762Y-64104807D01*
X55004762Y-64104807D02*
X54973809Y-64166711D01*
X54973809Y-64166711D02*
X54973809Y-64228616D01*
X54973809Y-64228616D02*
X55004762Y-64321473D01*
X55004762Y-64321473D02*
X55376190Y-64692902D01*
X55376190Y-64692902D02*
X54973809Y-64692902D01*
X43317857Y-27842902D02*
X43534524Y-27533378D01*
X43689286Y-27842902D02*
X43689286Y-27192902D01*
X43689286Y-27192902D02*
X43441667Y-27192902D01*
X43441667Y-27192902D02*
X43379762Y-27223854D01*
X43379762Y-27223854D02*
X43348809Y-27254807D01*
X43348809Y-27254807D02*
X43317857Y-27316711D01*
X43317857Y-27316711D02*
X43317857Y-27409569D01*
X43317857Y-27409569D02*
X43348809Y-27471473D01*
X43348809Y-27471473D02*
X43379762Y-27502426D01*
X43379762Y-27502426D02*
X43441667Y-27533378D01*
X43441667Y-27533378D02*
X43689286Y-27533378D01*
X43070238Y-27254807D02*
X43039286Y-27223854D01*
X43039286Y-27223854D02*
X42977381Y-27192902D01*
X42977381Y-27192902D02*
X42822619Y-27192902D01*
X42822619Y-27192902D02*
X42760714Y-27223854D01*
X42760714Y-27223854D02*
X42729762Y-27254807D01*
X42729762Y-27254807D02*
X42698809Y-27316711D01*
X42698809Y-27316711D02*
X42698809Y-27378616D01*
X42698809Y-27378616D02*
X42729762Y-27471473D01*
X42729762Y-27471473D02*
X43101190Y-27842902D01*
X43101190Y-27842902D02*
X42698809Y-27842902D01*
X42110714Y-27192902D02*
X42420238Y-27192902D01*
X42420238Y-27192902D02*
X42451190Y-27502426D01*
X42451190Y-27502426D02*
X42420238Y-27471473D01*
X42420238Y-27471473D02*
X42358333Y-27440521D01*
X42358333Y-27440521D02*
X42203571Y-27440521D01*
X42203571Y-27440521D02*
X42141666Y-27471473D01*
X42141666Y-27471473D02*
X42110714Y-27502426D01*
X42110714Y-27502426D02*
X42079761Y-27564330D01*
X42079761Y-27564330D02*
X42079761Y-27719092D01*
X42079761Y-27719092D02*
X42110714Y-27780997D01*
X42110714Y-27780997D02*
X42141666Y-27811950D01*
X42141666Y-27811950D02*
X42203571Y-27842902D01*
X42203571Y-27842902D02*
X42358333Y-27842902D01*
X42358333Y-27842902D02*
X42420238Y-27811950D01*
X42420238Y-27811950D02*
X42451190Y-27780997D01*
X51130997Y-59482142D02*
X51161950Y-59451190D01*
X51161950Y-59451190D02*
X51192902Y-59358332D01*
X51192902Y-59358332D02*
X51192902Y-59296428D01*
X51192902Y-59296428D02*
X51161950Y-59203571D01*
X51161950Y-59203571D02*
X51100045Y-59141666D01*
X51100045Y-59141666D02*
X51038140Y-59110713D01*
X51038140Y-59110713D02*
X50914330Y-59079761D01*
X50914330Y-59079761D02*
X50821473Y-59079761D01*
X50821473Y-59079761D02*
X50697664Y-59110713D01*
X50697664Y-59110713D02*
X50635759Y-59141666D01*
X50635759Y-59141666D02*
X50573854Y-59203571D01*
X50573854Y-59203571D02*
X50542902Y-59296428D01*
X50542902Y-59296428D02*
X50542902Y-59358332D01*
X50542902Y-59358332D02*
X50573854Y-59451190D01*
X50573854Y-59451190D02*
X50604807Y-59482142D01*
X50604807Y-59729761D02*
X50573854Y-59760713D01*
X50573854Y-59760713D02*
X50542902Y-59822618D01*
X50542902Y-59822618D02*
X50542902Y-59977380D01*
X50542902Y-59977380D02*
X50573854Y-60039285D01*
X50573854Y-60039285D02*
X50604807Y-60070237D01*
X50604807Y-60070237D02*
X50666711Y-60101190D01*
X50666711Y-60101190D02*
X50728616Y-60101190D01*
X50728616Y-60101190D02*
X50821473Y-60070237D01*
X50821473Y-60070237D02*
X51192902Y-59698809D01*
X51192902Y-59698809D02*
X51192902Y-60101190D01*
X50542902Y-60503571D02*
X50542902Y-60565476D01*
X50542902Y-60565476D02*
X50573854Y-60627380D01*
X50573854Y-60627380D02*
X50604807Y-60658333D01*
X50604807Y-60658333D02*
X50666711Y-60689285D01*
X50666711Y-60689285D02*
X50790521Y-60720238D01*
X50790521Y-60720238D02*
X50945283Y-60720238D01*
X50945283Y-60720238D02*
X51069092Y-60689285D01*
X51069092Y-60689285D02*
X51130997Y-60658333D01*
X51130997Y-60658333D02*
X51161950Y-60627380D01*
X51161950Y-60627380D02*
X51192902Y-60565476D01*
X51192902Y-60565476D02*
X51192902Y-60503571D01*
X51192902Y-60503571D02*
X51161950Y-60441666D01*
X51161950Y-60441666D02*
X51130997Y-60410714D01*
X51130997Y-60410714D02*
X51069092Y-60379761D01*
X51069092Y-60379761D02*
X50945283Y-60348809D01*
X50945283Y-60348809D02*
X50790521Y-60348809D01*
X50790521Y-60348809D02*
X50666711Y-60379761D01*
X50666711Y-60379761D02*
X50604807Y-60410714D01*
X50604807Y-60410714D02*
X50573854Y-60441666D01*
X50573854Y-60441666D02*
X50542902Y-60503571D01*
X34917857Y-21992902D02*
X35134524Y-21683378D01*
X35289286Y-21992902D02*
X35289286Y-21342902D01*
X35289286Y-21342902D02*
X35041667Y-21342902D01*
X35041667Y-21342902D02*
X34979762Y-21373854D01*
X34979762Y-21373854D02*
X34948809Y-21404807D01*
X34948809Y-21404807D02*
X34917857Y-21466711D01*
X34917857Y-21466711D02*
X34917857Y-21559569D01*
X34917857Y-21559569D02*
X34948809Y-21621473D01*
X34948809Y-21621473D02*
X34979762Y-21652426D01*
X34979762Y-21652426D02*
X35041667Y-21683378D01*
X35041667Y-21683378D02*
X35289286Y-21683378D01*
X34670238Y-21404807D02*
X34639286Y-21373854D01*
X34639286Y-21373854D02*
X34577381Y-21342902D01*
X34577381Y-21342902D02*
X34422619Y-21342902D01*
X34422619Y-21342902D02*
X34360714Y-21373854D01*
X34360714Y-21373854D02*
X34329762Y-21404807D01*
X34329762Y-21404807D02*
X34298809Y-21466711D01*
X34298809Y-21466711D02*
X34298809Y-21528616D01*
X34298809Y-21528616D02*
X34329762Y-21621473D01*
X34329762Y-21621473D02*
X34701190Y-21992902D01*
X34701190Y-21992902D02*
X34298809Y-21992902D01*
X33741666Y-21559569D02*
X33741666Y-21992902D01*
X33896428Y-21311950D02*
X34051190Y-21776235D01*
X34051190Y-21776235D02*
X33648809Y-21776235D01*
X52508333Y-29030997D02*
X52539285Y-29061950D01*
X52539285Y-29061950D02*
X52632143Y-29092902D01*
X52632143Y-29092902D02*
X52694047Y-29092902D01*
X52694047Y-29092902D02*
X52786904Y-29061950D01*
X52786904Y-29061950D02*
X52848809Y-29000045D01*
X52848809Y-29000045D02*
X52879762Y-28938140D01*
X52879762Y-28938140D02*
X52910714Y-28814330D01*
X52910714Y-28814330D02*
X52910714Y-28721473D01*
X52910714Y-28721473D02*
X52879762Y-28597664D01*
X52879762Y-28597664D02*
X52848809Y-28535759D01*
X52848809Y-28535759D02*
X52786904Y-28473854D01*
X52786904Y-28473854D02*
X52694047Y-28442902D01*
X52694047Y-28442902D02*
X52632143Y-28442902D01*
X52632143Y-28442902D02*
X52539285Y-28473854D01*
X52539285Y-28473854D02*
X52508333Y-28504807D01*
X52291666Y-28442902D02*
X51889285Y-28442902D01*
X51889285Y-28442902D02*
X52105952Y-28690521D01*
X52105952Y-28690521D02*
X52013095Y-28690521D01*
X52013095Y-28690521D02*
X51951190Y-28721473D01*
X51951190Y-28721473D02*
X51920238Y-28752426D01*
X51920238Y-28752426D02*
X51889285Y-28814330D01*
X51889285Y-28814330D02*
X51889285Y-28969092D01*
X51889285Y-28969092D02*
X51920238Y-29030997D01*
X51920238Y-29030997D02*
X51951190Y-29061950D01*
X51951190Y-29061950D02*
X52013095Y-29092902D01*
X52013095Y-29092902D02*
X52198809Y-29092902D01*
X52198809Y-29092902D02*
X52260714Y-29061950D01*
X52260714Y-29061950D02*
X52291666Y-29030997D01*
X57367857Y-55792902D02*
X57584524Y-55483378D01*
X57739286Y-55792902D02*
X57739286Y-55142902D01*
X57739286Y-55142902D02*
X57491667Y-55142902D01*
X57491667Y-55142902D02*
X57429762Y-55173854D01*
X57429762Y-55173854D02*
X57398809Y-55204807D01*
X57398809Y-55204807D02*
X57367857Y-55266711D01*
X57367857Y-55266711D02*
X57367857Y-55359569D01*
X57367857Y-55359569D02*
X57398809Y-55421473D01*
X57398809Y-55421473D02*
X57429762Y-55452426D01*
X57429762Y-55452426D02*
X57491667Y-55483378D01*
X57491667Y-55483378D02*
X57739286Y-55483378D01*
X56748809Y-55792902D02*
X57120238Y-55792902D01*
X56934524Y-55792902D02*
X56934524Y-55142902D01*
X56934524Y-55142902D02*
X56996428Y-55235759D01*
X56996428Y-55235759D02*
X57058333Y-55297664D01*
X57058333Y-55297664D02*
X57120238Y-55328616D01*
X56532142Y-55142902D02*
X56098809Y-55142902D01*
X56098809Y-55142902D02*
X56377380Y-55792902D01*
X38216666Y-68492902D02*
X38216666Y-68957188D01*
X38216666Y-68957188D02*
X38247619Y-69050045D01*
X38247619Y-69050045D02*
X38309523Y-69111950D01*
X38309523Y-69111950D02*
X38402381Y-69142902D01*
X38402381Y-69142902D02*
X38464285Y-69142902D01*
X37566666Y-69142902D02*
X37938095Y-69142902D01*
X37752381Y-69142902D02*
X37752381Y-68492902D01*
X37752381Y-68492902D02*
X37814285Y-68585759D01*
X37814285Y-68585759D02*
X37876190Y-68647664D01*
X37876190Y-68647664D02*
X37938095Y-68678616D01*
X48142902Y-29141666D02*
X47833378Y-28924999D01*
X48142902Y-28770237D02*
X47492902Y-28770237D01*
X47492902Y-28770237D02*
X47492902Y-29017856D01*
X47492902Y-29017856D02*
X47523854Y-29079761D01*
X47523854Y-29079761D02*
X47554807Y-29110714D01*
X47554807Y-29110714D02*
X47616711Y-29141666D01*
X47616711Y-29141666D02*
X47709569Y-29141666D01*
X47709569Y-29141666D02*
X47771473Y-29110714D01*
X47771473Y-29110714D02*
X47802426Y-29079761D01*
X47802426Y-29079761D02*
X47833378Y-29017856D01*
X47833378Y-29017856D02*
X47833378Y-28770237D01*
X47771473Y-29513095D02*
X47740521Y-29451190D01*
X47740521Y-29451190D02*
X47709569Y-29420237D01*
X47709569Y-29420237D02*
X47647664Y-29389285D01*
X47647664Y-29389285D02*
X47616711Y-29389285D01*
X47616711Y-29389285D02*
X47554807Y-29420237D01*
X47554807Y-29420237D02*
X47523854Y-29451190D01*
X47523854Y-29451190D02*
X47492902Y-29513095D01*
X47492902Y-29513095D02*
X47492902Y-29636904D01*
X47492902Y-29636904D02*
X47523854Y-29698809D01*
X47523854Y-29698809D02*
X47554807Y-29729761D01*
X47554807Y-29729761D02*
X47616711Y-29760714D01*
X47616711Y-29760714D02*
X47647664Y-29760714D01*
X47647664Y-29760714D02*
X47709569Y-29729761D01*
X47709569Y-29729761D02*
X47740521Y-29698809D01*
X47740521Y-29698809D02*
X47771473Y-29636904D01*
X47771473Y-29636904D02*
X47771473Y-29513095D01*
X47771473Y-29513095D02*
X47802426Y-29451190D01*
X47802426Y-29451190D02*
X47833378Y-29420237D01*
X47833378Y-29420237D02*
X47895283Y-29389285D01*
X47895283Y-29389285D02*
X48019092Y-29389285D01*
X48019092Y-29389285D02*
X48080997Y-29420237D01*
X48080997Y-29420237D02*
X48111950Y-29451190D01*
X48111950Y-29451190D02*
X48142902Y-29513095D01*
X48142902Y-29513095D02*
X48142902Y-29636904D01*
X48142902Y-29636904D02*
X48111950Y-29698809D01*
X48111950Y-29698809D02*
X48080997Y-29729761D01*
X48080997Y-29729761D02*
X48019092Y-29760714D01*
X48019092Y-29760714D02*
X47895283Y-29760714D01*
X47895283Y-29760714D02*
X47833378Y-29729761D01*
X47833378Y-29729761D02*
X47802426Y-29698809D01*
X47802426Y-29698809D02*
X47771473Y-29636904D01*
X51080997Y-63732142D02*
X51111950Y-63701190D01*
X51111950Y-63701190D02*
X51142902Y-63608332D01*
X51142902Y-63608332D02*
X51142902Y-63546428D01*
X51142902Y-63546428D02*
X51111950Y-63453571D01*
X51111950Y-63453571D02*
X51050045Y-63391666D01*
X51050045Y-63391666D02*
X50988140Y-63360713D01*
X50988140Y-63360713D02*
X50864330Y-63329761D01*
X50864330Y-63329761D02*
X50771473Y-63329761D01*
X50771473Y-63329761D02*
X50647664Y-63360713D01*
X50647664Y-63360713D02*
X50585759Y-63391666D01*
X50585759Y-63391666D02*
X50523854Y-63453571D01*
X50523854Y-63453571D02*
X50492902Y-63546428D01*
X50492902Y-63546428D02*
X50492902Y-63608332D01*
X50492902Y-63608332D02*
X50523854Y-63701190D01*
X50523854Y-63701190D02*
X50554807Y-63732142D01*
X51142902Y-64351190D02*
X51142902Y-63979761D01*
X51142902Y-64165475D02*
X50492902Y-64165475D01*
X50492902Y-64165475D02*
X50585759Y-64103571D01*
X50585759Y-64103571D02*
X50647664Y-64041666D01*
X50647664Y-64041666D02*
X50678616Y-63979761D01*
X50771473Y-64722619D02*
X50740521Y-64660714D01*
X50740521Y-64660714D02*
X50709569Y-64629761D01*
X50709569Y-64629761D02*
X50647664Y-64598809D01*
X50647664Y-64598809D02*
X50616711Y-64598809D01*
X50616711Y-64598809D02*
X50554807Y-64629761D01*
X50554807Y-64629761D02*
X50523854Y-64660714D01*
X50523854Y-64660714D02*
X50492902Y-64722619D01*
X50492902Y-64722619D02*
X50492902Y-64846428D01*
X50492902Y-64846428D02*
X50523854Y-64908333D01*
X50523854Y-64908333D02*
X50554807Y-64939285D01*
X50554807Y-64939285D02*
X50616711Y-64970238D01*
X50616711Y-64970238D02*
X50647664Y-64970238D01*
X50647664Y-64970238D02*
X50709569Y-64939285D01*
X50709569Y-64939285D02*
X50740521Y-64908333D01*
X50740521Y-64908333D02*
X50771473Y-64846428D01*
X50771473Y-64846428D02*
X50771473Y-64722619D01*
X50771473Y-64722619D02*
X50802426Y-64660714D01*
X50802426Y-64660714D02*
X50833378Y-64629761D01*
X50833378Y-64629761D02*
X50895283Y-64598809D01*
X50895283Y-64598809D02*
X51019092Y-64598809D01*
X51019092Y-64598809D02*
X51080997Y-64629761D01*
X51080997Y-64629761D02*
X51111950Y-64660714D01*
X51111950Y-64660714D02*
X51142902Y-64722619D01*
X51142902Y-64722619D02*
X51142902Y-64846428D01*
X51142902Y-64846428D02*
X51111950Y-64908333D01*
X51111950Y-64908333D02*
X51080997Y-64939285D01*
X51080997Y-64939285D02*
X51019092Y-64970238D01*
X51019092Y-64970238D02*
X50895283Y-64970238D01*
X50895283Y-64970238D02*
X50833378Y-64939285D01*
X50833378Y-64939285D02*
X50802426Y-64908333D01*
X50802426Y-64908333D02*
X50771473Y-64846428D01*
X51362902Y-53182142D02*
X51053378Y-52965475D01*
X51362902Y-52810713D02*
X50712902Y-52810713D01*
X50712902Y-52810713D02*
X50712902Y-53058332D01*
X50712902Y-53058332D02*
X50743854Y-53120237D01*
X50743854Y-53120237D02*
X50774807Y-53151190D01*
X50774807Y-53151190D02*
X50836711Y-53182142D01*
X50836711Y-53182142D02*
X50929569Y-53182142D01*
X50929569Y-53182142D02*
X50991473Y-53151190D01*
X50991473Y-53151190D02*
X51022426Y-53120237D01*
X51022426Y-53120237D02*
X51053378Y-53058332D01*
X51053378Y-53058332D02*
X51053378Y-52810713D01*
X51362902Y-53801190D02*
X51362902Y-53429761D01*
X51362902Y-53615475D02*
X50712902Y-53615475D01*
X50712902Y-53615475D02*
X50805759Y-53553571D01*
X50805759Y-53553571D02*
X50867664Y-53491666D01*
X50867664Y-53491666D02*
X50898616Y-53429761D01*
X50712902Y-54203571D02*
X50712902Y-54265476D01*
X50712902Y-54265476D02*
X50743854Y-54327380D01*
X50743854Y-54327380D02*
X50774807Y-54358333D01*
X50774807Y-54358333D02*
X50836711Y-54389285D01*
X50836711Y-54389285D02*
X50960521Y-54420238D01*
X50960521Y-54420238D02*
X51115283Y-54420238D01*
X51115283Y-54420238D02*
X51239092Y-54389285D01*
X51239092Y-54389285D02*
X51300997Y-54358333D01*
X51300997Y-54358333D02*
X51331950Y-54327380D01*
X51331950Y-54327380D02*
X51362902Y-54265476D01*
X51362902Y-54265476D02*
X51362902Y-54203571D01*
X51362902Y-54203571D02*
X51331950Y-54141666D01*
X51331950Y-54141666D02*
X51300997Y-54110714D01*
X51300997Y-54110714D02*
X51239092Y-54079761D01*
X51239092Y-54079761D02*
X51115283Y-54048809D01*
X51115283Y-54048809D02*
X50960521Y-54048809D01*
X50960521Y-54048809D02*
X50836711Y-54079761D01*
X50836711Y-54079761D02*
X50774807Y-54110714D01*
X50774807Y-54110714D02*
X50743854Y-54141666D01*
X50743854Y-54141666D02*
X50712902Y-54203571D01*
X53845238Y-67742902D02*
X53845238Y-68269092D01*
X53845238Y-68269092D02*
X53814285Y-68330997D01*
X53814285Y-68330997D02*
X53783333Y-68361950D01*
X53783333Y-68361950D02*
X53721428Y-68392902D01*
X53721428Y-68392902D02*
X53597619Y-68392902D01*
X53597619Y-68392902D02*
X53535714Y-68361950D01*
X53535714Y-68361950D02*
X53504761Y-68330997D01*
X53504761Y-68330997D02*
X53473809Y-68269092D01*
X53473809Y-68269092D02*
X53473809Y-67742902D01*
X53226190Y-67742902D02*
X52823809Y-67742902D01*
X52823809Y-67742902D02*
X53040476Y-67990521D01*
X53040476Y-67990521D02*
X52947619Y-67990521D01*
X52947619Y-67990521D02*
X52885714Y-68021473D01*
X52885714Y-68021473D02*
X52854762Y-68052426D01*
X52854762Y-68052426D02*
X52823809Y-68114330D01*
X52823809Y-68114330D02*
X52823809Y-68269092D01*
X52823809Y-68269092D02*
X52854762Y-68330997D01*
X52854762Y-68330997D02*
X52885714Y-68361950D01*
X52885714Y-68361950D02*
X52947619Y-68392902D01*
X52947619Y-68392902D02*
X53133333Y-68392902D01*
X53133333Y-68392902D02*
X53195238Y-68361950D01*
X53195238Y-68361950D02*
X53226190Y-68330997D01*
X30054204Y-35568221D02*
X30580394Y-35568221D01*
X30580394Y-35568221D02*
X30642299Y-35599174D01*
X30642299Y-35599174D02*
X30673252Y-35630126D01*
X30673252Y-35630126D02*
X30704204Y-35692031D01*
X30704204Y-35692031D02*
X30704204Y-35815840D01*
X30704204Y-35815840D02*
X30673252Y-35877745D01*
X30673252Y-35877745D02*
X30642299Y-35908698D01*
X30642299Y-35908698D02*
X30580394Y-35939650D01*
X30580394Y-35939650D02*
X30054204Y-35939650D01*
X30270871Y-36527745D02*
X30704204Y-36527745D01*
X30023252Y-36372983D02*
X30487537Y-36218221D01*
X30487537Y-36218221D02*
X30487537Y-36620602D01*
X61791666Y-54342902D02*
X61791666Y-54807188D01*
X61791666Y-54807188D02*
X61822619Y-54900045D01*
X61822619Y-54900045D02*
X61884523Y-54961950D01*
X61884523Y-54961950D02*
X61977381Y-54992902D01*
X61977381Y-54992902D02*
X62039285Y-54992902D01*
X61482143Y-54992902D02*
X61482143Y-54342902D01*
X61482143Y-54342902D02*
X61234524Y-54342902D01*
X61234524Y-54342902D02*
X61172619Y-54373854D01*
X61172619Y-54373854D02*
X61141666Y-54404807D01*
X61141666Y-54404807D02*
X61110714Y-54466711D01*
X61110714Y-54466711D02*
X61110714Y-54559569D01*
X61110714Y-54559569D02*
X61141666Y-54621473D01*
X61141666Y-54621473D02*
X61172619Y-54652426D01*
X61172619Y-54652426D02*
X61234524Y-54683378D01*
X61234524Y-54683378D02*
X61482143Y-54683378D01*
X60863095Y-54404807D02*
X60832143Y-54373854D01*
X60832143Y-54373854D02*
X60770238Y-54342902D01*
X60770238Y-54342902D02*
X60615476Y-54342902D01*
X60615476Y-54342902D02*
X60553571Y-54373854D01*
X60553571Y-54373854D02*
X60522619Y-54404807D01*
X60522619Y-54404807D02*
X60491666Y-54466711D01*
X60491666Y-54466711D02*
X60491666Y-54528616D01*
X60491666Y-54528616D02*
X60522619Y-54621473D01*
X60522619Y-54621473D02*
X60894047Y-54992902D01*
X60894047Y-54992902D02*
X60491666Y-54992902D01*
X62029762Y-44292902D02*
X62029762Y-43642902D01*
X62029762Y-43642902D02*
X61875000Y-43642902D01*
X61875000Y-43642902D02*
X61782143Y-43673854D01*
X61782143Y-43673854D02*
X61720238Y-43735759D01*
X61720238Y-43735759D02*
X61689285Y-43797664D01*
X61689285Y-43797664D02*
X61658333Y-43921473D01*
X61658333Y-43921473D02*
X61658333Y-44014330D01*
X61658333Y-44014330D02*
X61689285Y-44138140D01*
X61689285Y-44138140D02*
X61720238Y-44200045D01*
X61720238Y-44200045D02*
X61782143Y-44261950D01*
X61782143Y-44261950D02*
X61875000Y-44292902D01*
X61875000Y-44292902D02*
X62029762Y-44292902D01*
X61039285Y-44292902D02*
X61410714Y-44292902D01*
X61225000Y-44292902D02*
X61225000Y-43642902D01*
X61225000Y-43642902D02*
X61286904Y-43735759D01*
X61286904Y-43735759D02*
X61348809Y-43797664D01*
X61348809Y-43797664D02*
X61410714Y-43828616D01*
X54342902Y-56782142D02*
X54033378Y-56565475D01*
X54342902Y-56410713D02*
X53692902Y-56410713D01*
X53692902Y-56410713D02*
X53692902Y-56658332D01*
X53692902Y-56658332D02*
X53723854Y-56720237D01*
X53723854Y-56720237D02*
X53754807Y-56751190D01*
X53754807Y-56751190D02*
X53816711Y-56782142D01*
X53816711Y-56782142D02*
X53909569Y-56782142D01*
X53909569Y-56782142D02*
X53971473Y-56751190D01*
X53971473Y-56751190D02*
X54002426Y-56720237D01*
X54002426Y-56720237D02*
X54033378Y-56658332D01*
X54033378Y-56658332D02*
X54033378Y-56410713D01*
X54342902Y-57401190D02*
X54342902Y-57029761D01*
X54342902Y-57215475D02*
X53692902Y-57215475D01*
X53692902Y-57215475D02*
X53785759Y-57153571D01*
X53785759Y-57153571D02*
X53847664Y-57091666D01*
X53847664Y-57091666D02*
X53878616Y-57029761D01*
X53692902Y-57989285D02*
X53692902Y-57679761D01*
X53692902Y-57679761D02*
X54002426Y-57648809D01*
X54002426Y-57648809D02*
X53971473Y-57679761D01*
X53971473Y-57679761D02*
X53940521Y-57741666D01*
X53940521Y-57741666D02*
X53940521Y-57896428D01*
X53940521Y-57896428D02*
X53971473Y-57958333D01*
X53971473Y-57958333D02*
X54002426Y-57989285D01*
X54002426Y-57989285D02*
X54064330Y-58020238D01*
X54064330Y-58020238D02*
X54219092Y-58020238D01*
X54219092Y-58020238D02*
X54280997Y-57989285D01*
X54280997Y-57989285D02*
X54311950Y-57958333D01*
X54311950Y-57958333D02*
X54342902Y-57896428D01*
X54342902Y-57896428D02*
X54342902Y-57741666D01*
X54342902Y-57741666D02*
X54311950Y-57679761D01*
X54311950Y-57679761D02*
X54280997Y-57648809D01*
D11*
X33777500Y-23637258D02*
X33777500Y-23162742D01*
X34822500Y-23637258D02*
X34822500Y-23162742D01*
X62862742Y-42477500D02*
X63337258Y-42477500D01*
X62862742Y-43522500D02*
X63337258Y-43522500D01*
X59937258Y-42377500D02*
X59462742Y-42377500D01*
X59937258Y-43422500D02*
X59462742Y-43422500D01*
X62837258Y-74577500D02*
X62362742Y-74577500D01*
X62837258Y-75622500D02*
X62362742Y-75622500D01*
X31710000Y-87285000D02*
X32940000Y-87285000D01*
X32940000Y-83285000D02*
X32940000Y-85915000D01*
X32940000Y-87285000D02*
X32940000Y-87660000D01*
X35060000Y-81540000D02*
X32940000Y-81540000D01*
X35060000Y-81540000D02*
X35060000Y-81915000D01*
X35060000Y-81540000D02*
X35060000Y-83915000D01*
X35060000Y-85285000D02*
X35060000Y-87660000D01*
X35060000Y-87660000D02*
X32940000Y-87660000D01*
X61059420Y-30990000D02*
X61340580Y-30990000D01*
X61059420Y-32010000D02*
X61340580Y-32010000D01*
X44177500Y-53837258D02*
X44177500Y-53362742D01*
X45222500Y-53837258D02*
X45222500Y-53362742D01*
X61850000Y-46240000D02*
X62500000Y-46240000D01*
X61850000Y-49360000D02*
X62500000Y-49360000D01*
X63150000Y-46240000D02*
X62500000Y-46240000D01*
X63150000Y-49360000D02*
X62500000Y-49360000D01*
X61577500Y-49640000D02*
X61097500Y-49640000D01*
X61337500Y-49310000D01*
X61577500Y-49640000D01*
G36*
X61577500Y-49640000D02*
G01*
X61097500Y-49640000D01*
X61337500Y-49310000D01*
X61577500Y-49640000D01*
G37*
X55537258Y-81777500D02*
X55062742Y-81777500D01*
X55537258Y-82822500D02*
X55062742Y-82822500D01*
X46377500Y-53837258D02*
X46377500Y-53362742D01*
X47422500Y-53837258D02*
X47422500Y-53362742D01*
X56760000Y-65260000D02*
X56760000Y-66205000D01*
X56760000Y-70540000D02*
X56760000Y-69595000D01*
X62040000Y-65260000D02*
X56760000Y-65260000D01*
X62040000Y-66205000D02*
X62040000Y-65260000D01*
X62040000Y-69595000D02*
X62040000Y-70540000D01*
X62040000Y-70540000D02*
X56760000Y-70540000D01*
X61059420Y-29390000D02*
X61340580Y-29390000D01*
X61059420Y-30410000D02*
X61340580Y-30410000D01*
X52738748Y-61385000D02*
X53261252Y-61385000D01*
X52738748Y-62855000D02*
X53261252Y-62855000D01*
X61340580Y-21090000D02*
X61059420Y-21090000D01*
X61340580Y-22110000D02*
X61059420Y-22110000D01*
X41190000Y-23659420D02*
X41190000Y-23940580D01*
X42210000Y-23659420D02*
X42210000Y-23940580D01*
X57740580Y-20990000D02*
X57459420Y-20990000D01*
X57740580Y-22010000D02*
X57459420Y-22010000D01*
X60487742Y-81177500D02*
X60962258Y-81177500D01*
X60487742Y-82222500D02*
X60962258Y-82222500D01*
X59937258Y-43877500D02*
X59462742Y-43877500D01*
X59937258Y-44922500D02*
X59462742Y-44922500D01*
X44250000Y-58250000D02*
X44250000Y-64060000D01*
X44250000Y-64060000D02*
X48550000Y-64060000D01*
X48550000Y-58250000D02*
X48550000Y-64060000D01*
X59937258Y-40777500D02*
X59462742Y-40777500D01*
X59937258Y-41822500D02*
X59462742Y-41822500D01*
X50177500Y-53837258D02*
X50177500Y-53362742D01*
X51222500Y-53837258D02*
X51222500Y-53362742D01*
X61340580Y-22690000D02*
X61059420Y-22690000D01*
X61340580Y-23710000D02*
X61059420Y-23710000D01*
X58650000Y-39410000D02*
X58650000Y-39910000D01*
X58900000Y-39660000D02*
X58400000Y-39660000D01*
X59140000Y-37040000D02*
X59140000Y-36904437D01*
X59140000Y-39160000D02*
X59140000Y-39295563D01*
X60204437Y-35840000D02*
X59140000Y-36904437D01*
X60204437Y-40360000D02*
X59140000Y-39295563D01*
X63660000Y-35840000D02*
X60204437Y-35840000D01*
X63660000Y-37040000D02*
X63660000Y-35840000D01*
X63660000Y-39160000D02*
X63660000Y-40360000D01*
X63660000Y-40360000D02*
X60204437Y-40360000D01*
X61340580Y-27790000D02*
X61059420Y-27790000D01*
X61340580Y-28810000D02*
X61059420Y-28810000D01*
X56959420Y-31390000D02*
X57240580Y-31390000D01*
X56959420Y-32410000D02*
X57240580Y-32410000D01*
X63461252Y-59665000D02*
X62938748Y-59665000D01*
X63461252Y-61135000D02*
X62938748Y-61135000D01*
X58577500Y-57262742D02*
X58577500Y-57737258D01*
X59622500Y-57262742D02*
X59622500Y-57737258D01*
D12*
X35333000Y-25205600D02*
X35333000Y-25637400D01*
X35333000Y-30107800D02*
X35333000Y-30539600D01*
X35333000Y-30539600D02*
X35764800Y-30539600D01*
X35764800Y-25205600D02*
X35333000Y-25205600D01*
X40235200Y-30539600D02*
X40667000Y-30539600D01*
X40667000Y-25205600D02*
X40235200Y-25205600D01*
X40667000Y-25637400D02*
X40667000Y-25205600D01*
X40667000Y-30539600D02*
X40667000Y-30107800D01*
D13*
X35700000Y-24672600D02*
G75*
G02*
X35500000Y-24672600I-100000J0D01*
G01*
X35500000Y-24672600D02*
G75*
G02*
X35700000Y-24672600I100000J0D01*
G01*
D11*
X48277500Y-53837258D02*
X48277500Y-53362742D01*
X49322500Y-53837258D02*
X49322500Y-53362742D01*
X63461252Y-57465000D02*
X62938748Y-57465000D01*
X63461252Y-58935000D02*
X62938748Y-58935000D01*
X43040580Y-30390000D02*
X42759420Y-30390000D01*
X43040580Y-31410000D02*
X42759420Y-31410000D01*
X42890000Y-23659420D02*
X42890000Y-23940580D01*
X43910000Y-23659420D02*
X43910000Y-23940580D01*
X49390000Y-21990000D02*
X49865000Y-21990000D01*
X49390000Y-22465000D02*
X49390000Y-21990000D01*
X49390000Y-26735000D02*
X49390000Y-27210000D01*
X49390000Y-27210000D02*
X49865000Y-27210000D01*
X54310000Y-21990000D02*
X54135000Y-21990000D01*
X54610000Y-22230000D02*
X54610000Y-22465000D01*
X54610000Y-26735000D02*
X54610000Y-27210000D01*
X54610000Y-27210000D02*
X54135000Y-27210000D01*
X54610000Y-21990000D02*
X54370000Y-21660000D01*
X54850000Y-21660000D01*
X54610000Y-21990000D01*
G36*
X54610000Y-21990000D02*
G01*
X54370000Y-21660000D01*
X54850000Y-21660000D01*
X54610000Y-21990000D01*
G37*
X46834420Y-21390000D02*
X47115580Y-21390000D01*
X46834420Y-22410000D02*
X47115580Y-22410000D01*
X46709420Y-27090000D02*
X46990580Y-27090000D01*
X46709420Y-28110000D02*
X46990580Y-28110000D01*
X55637258Y-53877500D02*
X55162742Y-53877500D01*
X55637258Y-54922500D02*
X55162742Y-54922500D01*
X61340000Y-77612500D02*
X61340000Y-78262500D01*
X61340000Y-78912500D02*
X61340000Y-78262500D01*
X64460000Y-77612500D02*
X64460000Y-78262500D01*
X64460000Y-78912500D02*
X64460000Y-78262500D01*
X61390000Y-77100000D02*
X61060000Y-77340000D01*
X61060000Y-76860000D01*
X61390000Y-77100000D01*
G36*
X61390000Y-77100000D02*
G01*
X61060000Y-77340000D01*
X61060000Y-76860000D01*
X61390000Y-77100000D01*
G37*
X60840580Y-33890000D02*
X60559420Y-33890000D01*
X60840580Y-34910000D02*
X60559420Y-34910000D01*
X59365000Y-62061252D02*
X59365000Y-61538748D01*
X60835000Y-62061252D02*
X60835000Y-61538748D01*
X57459420Y-22890000D02*
X57740580Y-22890000D01*
X57459420Y-23910000D02*
X57740580Y-23910000D01*
X55637258Y-52277500D02*
X55162742Y-52277500D01*
X55637258Y-53322500D02*
X55162742Y-53322500D01*
X61340580Y-24290000D02*
X61059420Y-24290000D01*
X61340580Y-25310000D02*
X61059420Y-25310000D01*
X59850000Y-84500000D02*
X59850000Y-90010000D01*
X59850000Y-90010000D02*
X63150000Y-90010000D01*
X63150000Y-84500000D02*
X63150000Y-90010000D01*
X46237258Y-30377500D02*
X45762742Y-30377500D01*
X46237258Y-31422500D02*
X45762742Y-31422500D01*
X44250000Y-64700000D02*
X48260000Y-64700000D01*
X44250000Y-66700000D02*
X48260000Y-66700000D01*
X48260000Y-66700000D02*
X48260000Y-64700000D01*
X57465000Y-79415000D02*
X57465000Y-81700000D01*
X58935000Y-79415000D02*
X57465000Y-79415000D01*
X58935000Y-81700000D02*
X58935000Y-79415000D01*
X57362742Y-24477500D02*
X57837258Y-24477500D01*
X57362742Y-25522500D02*
X57837258Y-25522500D01*
X32377500Y-30262742D02*
X32377500Y-30737258D01*
X33422500Y-30262742D02*
X33422500Y-30737258D01*
X57837258Y-25977500D02*
X57362742Y-25977500D01*
X57837258Y-27022500D02*
X57362742Y-27022500D01*
X63461252Y-61865000D02*
X62938748Y-61865000D01*
X63461252Y-63335000D02*
X62938748Y-63335000D01*
X61059420Y-26090000D02*
X61340580Y-26090000D01*
X61059420Y-27110000D02*
X61340580Y-27110000D01*
X48390000Y-30840580D02*
X48390000Y-30559420D01*
X49410000Y-30840580D02*
X49410000Y-30559420D01*
X57562122Y-29440000D02*
X56762878Y-29440000D01*
X57562122Y-30560000D02*
X56762878Y-30560000D01*
X58977500Y-47662742D02*
X58977500Y-48137258D01*
X60022500Y-47662742D02*
X60022500Y-48137258D01*
X57562122Y-27640000D02*
X56762878Y-27640000D01*
X57562122Y-28760000D02*
X56762878Y-28760000D01*
X37374500Y-84000000D02*
X37374500Y-94380000D01*
X37374500Y-94380000D02*
X57964500Y-94380000D01*
X55554500Y-88830000D02*
X55554500Y-89530000D01*
X55554500Y-89530000D02*
X56754500Y-89530000D01*
X56124500Y-87730000D02*
X56124500Y-88830000D01*
X56124500Y-90630000D02*
X56124500Y-89530000D01*
X56354500Y-88830000D02*
X55954500Y-89530000D01*
X56754500Y-88830000D02*
X55554500Y-88830000D01*
X56754500Y-89530000D02*
X56754500Y-88830000D01*
X56904500Y-87700000D02*
X56904500Y-90700000D01*
X56924500Y-90700000D02*
X57964500Y-90700000D01*
X57964500Y-84000000D02*
X37374500Y-84000000D01*
X57964500Y-87700000D02*
X56904500Y-87700000D01*
X57964500Y-94380000D02*
X57964500Y-84000000D01*
X58114500Y-93330000D02*
X58114500Y-94540000D01*
X58114500Y-94540000D02*
X56814500Y-94540000D01*
X53037258Y-95977500D02*
X52562742Y-95977500D01*
X53037258Y-97022500D02*
X52562742Y-97022500D01*
X49977500Y-30462742D02*
X49977500Y-30937258D01*
X51022500Y-30462742D02*
X51022500Y-30937258D01*
D14*
X45273000Y-25200000D02*
X45273000Y-24400000D01*
X46500000Y-23073000D02*
X46800000Y-23073000D01*
X46800000Y-26527000D02*
X46500000Y-26527000D01*
X48027000Y-24400000D02*
X48027000Y-25200000D01*
D15*
X55435000Y-61000000D02*
X55435000Y-62600000D01*
X58565000Y-61000000D02*
X58565000Y-62600000D01*
D13*
X58300000Y-64200000D02*
G75*
G02*
X58100000Y-64200000I-100000J0D01*
G01*
X58100000Y-64200000D02*
G75*
G02*
X58300000Y-64200000I100000J0D01*
G01*
D11*
X42662742Y-28277500D02*
X43137258Y-28277500D01*
X42662742Y-29322500D02*
X43137258Y-29322500D01*
X52738748Y-59265000D02*
X53261252Y-59265000D01*
X52738748Y-60735000D02*
X53261252Y-60735000D01*
X32077500Y-23162742D02*
X32077500Y-23637258D01*
X33122500Y-23162742D02*
X33122500Y-23637258D01*
X51790000Y-30840580D02*
X51790000Y-30559420D01*
X52810000Y-30840580D02*
X52810000Y-30559420D01*
X56377500Y-57162742D02*
X56377500Y-57637258D01*
X57422500Y-57162742D02*
X57422500Y-57637258D01*
X30840000Y-53550000D02*
X30840000Y-70050000D01*
X36960000Y-53440000D02*
X34960000Y-53440000D01*
X36960000Y-55940000D02*
X36960000Y-53440000D01*
X36960000Y-67660000D02*
X36960000Y-70160000D01*
X36960000Y-70160000D02*
X34960000Y-70160000D01*
X40200000Y-67660000D02*
X36960000Y-67660000D01*
X45762742Y-28777500D02*
X46237258Y-28777500D01*
X45762742Y-29822500D02*
X46237258Y-29822500D01*
X52738748Y-63485000D02*
X53261252Y-63485000D01*
X52738748Y-64955000D02*
X53261252Y-64955000D01*
X51977500Y-53837258D02*
X51977500Y-53362742D01*
X53022500Y-53837258D02*
X53022500Y-53362742D01*
D10*
X34677000Y-73670000D02*
X34677000Y-77320000D01*
X40647000Y-72290000D02*
X37337000Y-72290000D01*
X40647000Y-78720000D02*
X37297000Y-78720000D01*
D15*
X46097000Y-69500000D02*
X46597000Y-69500000D01*
X46097000Y-70000000D02*
X46097000Y-69500000D01*
X46097000Y-75000000D02*
X46097000Y-74000000D01*
X47097000Y-75000000D02*
X46097000Y-75000000D01*
X50597000Y-69500000D02*
X51597000Y-69500000D01*
X51597000Y-70500000D02*
X51597000Y-69500000D01*
X51597000Y-74000000D02*
X51597000Y-75000000D01*
X51597000Y-75000000D02*
X50597000Y-75000000D01*
D10*
X54767000Y-72260000D02*
X58117000Y-72260000D01*
X54767000Y-78690000D02*
X58077000Y-78690000D01*
X60737000Y-77310000D02*
X60737000Y-73660000D01*
X34677000Y-73670001D02*
G75*
G02*
X37327000Y-72290001I2634760J-1825119D01*
G01*
X37297000Y-78710000D02*
G75*
G02*
X34677001Y-77319998I21230J3204220D01*
G01*
X58117000Y-72270000D02*
G75*
G02*
X60737000Y-73660001I-21282J-3204322D01*
G01*
X60736999Y-77310000D02*
G75*
G02*
X58087000Y-78689999I-2634762J1825124D01*
G01*
X38447000Y-75500000D02*
G75*
G02*
X36147000Y-75500000I-1150000J0D01*
G01*
X36147000Y-75500000D02*
G75*
G02*
X38447000Y-75500000I1150000J0D01*
G01*
D16*
X47189000Y-69500000D02*
G75*
G02*
X46989000Y-69500000I-100000J0D01*
G01*
X46989000Y-69500000D02*
G75*
G02*
X47189000Y-69500000I100000J0D01*
G01*
D10*
X55447000Y-75500000D02*
G75*
G02*
X39947000Y-75500000I-7750000J0D01*
G01*
X39947000Y-75500000D02*
G75*
G02*
X55447000Y-75500000I7750000J0D01*
G01*
X59247000Y-75500000D02*
G75*
G02*
X56947000Y-75500000I-1150000J0D01*
G01*
X56947000Y-75500000D02*
G75*
G02*
X59247000Y-75500000I1150000J0D01*
G01*
D13*
X31700000Y-50600000D02*
X31700000Y-33600000D01*
X39700000Y-33600000D02*
X31700000Y-33600000D01*
X39700000Y-50600000D02*
X31700000Y-50600000D01*
X55700000Y-50600000D02*
X56700000Y-50600000D01*
X56700000Y-33600000D02*
X55700000Y-33600000D01*
X56700000Y-36100000D02*
X56700000Y-33600000D01*
X56700000Y-48100000D02*
X56700000Y-50600000D01*
D11*
X58140000Y-51640000D02*
X58140000Y-53760000D01*
X58140000Y-51640000D02*
X58515000Y-51640000D01*
X58140000Y-51640000D02*
X60515000Y-51640000D01*
X59885000Y-53760000D02*
X62515000Y-53760000D01*
X61885000Y-51640000D02*
X64260000Y-51640000D01*
X63885000Y-53760000D02*
X64260000Y-53760000D01*
X63885000Y-54990000D02*
X63885000Y-53760000D01*
X64260000Y-51640000D02*
X64260000Y-53760000D01*
X62200000Y-45635000D02*
X64485000Y-45635000D01*
X64485000Y-44165000D02*
X62200000Y-44165000D01*
X64485000Y-45635000D02*
X64485000Y-44165000D01*
X54777500Y-57637258D02*
X54777500Y-57162742D01*
X55822500Y-57637258D02*
X55822500Y-57162742D01*
%LPC*%
D17*
X44217000Y-20200000D03*
X30100000Y-33000000D03*
X30100000Y-30600000D03*
X30100000Y-23400000D03*
X30100000Y-35600000D03*
D18*
X41100000Y-101600000D03*
X43640000Y-101600000D03*
X46180000Y-101600000D03*
X48720000Y-101600000D03*
X51260000Y-101600000D03*
X53800000Y-101600000D03*
D17*
X37017000Y-20200000D03*
X64700000Y-28200000D03*
X64700000Y-23400000D03*
X32217000Y-20200000D03*
X34617000Y-20200000D03*
X41817000Y-20200000D03*
X64700000Y-25800000D03*
X30100000Y-28200000D03*
X39417000Y-20200000D03*
X30100000Y-25800000D03*
D19*
X34300000Y-22575000D03*
X34300000Y-24225000D03*
D20*
X63925000Y-43000000D03*
X62275000Y-43000000D03*
D21*
X58875000Y-42900000D03*
X60525000Y-42900000D03*
X61775000Y-75100000D03*
X63425000Y-75100000D03*
D22*
X32825000Y-86600000D03*
X35175000Y-84600000D03*
X32825000Y-82600000D03*
D23*
X61975000Y-31500000D03*
X60425000Y-31500000D03*
D19*
X44700000Y-52775000D03*
X44700000Y-54425000D03*
D24*
X61562500Y-48750000D03*
X61562500Y-46850000D03*
X63437500Y-47800000D03*
D21*
X54475000Y-82300000D03*
X56125000Y-82300000D03*
D19*
X46900000Y-52775000D03*
X46900000Y-54425000D03*
D25*
X56973500Y-67900000D03*
X61826500Y-67900000D03*
D23*
X61975000Y-29900000D03*
X60425000Y-29900000D03*
D26*
X53950000Y-62120000D03*
X52050000Y-62120000D03*
D27*
X60425000Y-21600000D03*
X61975000Y-21600000D03*
D28*
X41700000Y-24575000D03*
X41700000Y-23025000D03*
D27*
X56825000Y-21500000D03*
X58375000Y-21500000D03*
D20*
X61550000Y-81700000D03*
X59900000Y-81700000D03*
D21*
X58875000Y-44400000D03*
X60525000Y-44400000D03*
D29*
X46400000Y-62550000D03*
X46400000Y-58250000D03*
D21*
X58875000Y-41300000D03*
X60525000Y-41300000D03*
D19*
X50700000Y-52775000D03*
X50700000Y-54425000D03*
D27*
X60425000Y-23200000D03*
X61975000Y-23200000D03*
D30*
X59600000Y-38100000D03*
X63200000Y-38100000D03*
D27*
X60425000Y-28300000D03*
X61975000Y-28300000D03*
D23*
X57875000Y-31900000D03*
X56325000Y-31900000D03*
D31*
X62250000Y-60400000D03*
X64150000Y-60400000D03*
D32*
X59100000Y-58325000D03*
X59100000Y-56675000D03*
D33*
X36250000Y-25420200D03*
X36750000Y-25420200D03*
X37250000Y-25420200D03*
X37750000Y-25420200D03*
X38250000Y-25420200D03*
X38750000Y-25420200D03*
X39250000Y-25420200D03*
X39750000Y-25420200D03*
D34*
X40452400Y-26122600D03*
X40452400Y-26622600D03*
X40452400Y-27122600D03*
X40452400Y-27622600D03*
X40452400Y-28122600D03*
X40452400Y-28622600D03*
X40452400Y-29122600D03*
X40452400Y-29622600D03*
D33*
X39750000Y-30325000D03*
X39250000Y-30325000D03*
X38750000Y-30325000D03*
X38250000Y-30325000D03*
X37750000Y-30325000D03*
X37250000Y-30325000D03*
X36750000Y-30325000D03*
X36250000Y-30325000D03*
D34*
X35547600Y-29622600D03*
X35547600Y-29122600D03*
X35547600Y-28622600D03*
X35547600Y-28122600D03*
X35547600Y-27622600D03*
X35547600Y-27122600D03*
X35547600Y-26622600D03*
X35547600Y-26122600D03*
D35*
X38000000Y-27872600D03*
D19*
X48800000Y-52775000D03*
X48800000Y-54425000D03*
D31*
X62250000Y-58200000D03*
X64150000Y-58200000D03*
D27*
X42125000Y-30900000D03*
X43675000Y-30900000D03*
D28*
X43400000Y-24575000D03*
X43400000Y-23025000D03*
D36*
X54450000Y-22850000D03*
X54450000Y-23350000D03*
X54450000Y-23850000D03*
X54450000Y-24350000D03*
X54450000Y-24850000D03*
X54450000Y-25350000D03*
X54450000Y-25850000D03*
X54450000Y-26350000D03*
D37*
X53750000Y-27050000D03*
X53250000Y-27050000D03*
X52750000Y-27050000D03*
X52250000Y-27050000D03*
X51750000Y-27050000D03*
X51250000Y-27050000D03*
X50750000Y-27050000D03*
X50250000Y-27050000D03*
D36*
X49550000Y-26350000D03*
X49550000Y-25850000D03*
X49550000Y-25350000D03*
X49550000Y-24850000D03*
X49550000Y-24350000D03*
X49550000Y-23850000D03*
X49550000Y-23350000D03*
X49550000Y-22850000D03*
D37*
X50250000Y-22150000D03*
X50750000Y-22150000D03*
X51250000Y-22150000D03*
X51750000Y-22150000D03*
X52250000Y-22150000D03*
X52750000Y-22150000D03*
X53250000Y-22150000D03*
X53750000Y-22150000D03*
D38*
X52000000Y-24600000D03*
D23*
X47750000Y-21900000D03*
X46200000Y-21900000D03*
X47625000Y-27600000D03*
X46075000Y-27600000D03*
D21*
X54575000Y-54400000D03*
X56225000Y-54400000D03*
D39*
X61950000Y-77325000D03*
X63850000Y-77325000D03*
X62900000Y-79200000D03*
D27*
X59925000Y-34400000D03*
X61475000Y-34400000D03*
D40*
X60100000Y-60850000D03*
X60100000Y-62750000D03*
D23*
X58375000Y-23400000D03*
X56825000Y-23400000D03*
D21*
X54575000Y-52800000D03*
X56225000Y-52800000D03*
D27*
X60425000Y-24800000D03*
X61975000Y-24800000D03*
D41*
X61500000Y-88500000D03*
X61500000Y-84500000D03*
D21*
X45175000Y-30900000D03*
X46825000Y-30900000D03*
D42*
X47550000Y-65700000D03*
X44250000Y-65700000D03*
D43*
X58200000Y-80112500D03*
X58200000Y-81687500D03*
D20*
X58425000Y-25000000D03*
X56775000Y-25000000D03*
D32*
X32900000Y-31325000D03*
X32900000Y-29675000D03*
D21*
X56775000Y-26500000D03*
X58425000Y-26500000D03*
D31*
X62250000Y-62600000D03*
X64150000Y-62600000D03*
D23*
X61975000Y-26600000D03*
X60425000Y-26600000D03*
D44*
X48900000Y-29925000D03*
X48900000Y-31475000D03*
D45*
X56100000Y-30000000D03*
X58225000Y-30000000D03*
D32*
X59500000Y-48725000D03*
X59500000Y-47075000D03*
D45*
X56100000Y-28200000D03*
X58225000Y-28200000D03*
D46*
X56564500Y-93000000D03*
D47*
X48944500Y-93000000D03*
X43864500Y-93000000D03*
X38784500Y-93000000D03*
X38784500Y-85380000D03*
X43864500Y-85380000D03*
X48944500Y-85380000D03*
X56564500Y-85380000D03*
D21*
X51975000Y-96500000D03*
X53625000Y-96500000D03*
D32*
X50500000Y-31525000D03*
X50500000Y-29875000D03*
D48*
X45800000Y-25900000D03*
D49*
X47500000Y-23700000D03*
X45800000Y-23700000D03*
D48*
X47500000Y-25900000D03*
D50*
X57950000Y-63055000D03*
X57000000Y-63055000D03*
X56050000Y-63055000D03*
X56050000Y-60545000D03*
X57000000Y-60545000D03*
X57950000Y-60545000D03*
D20*
X43725000Y-28800000D03*
X42075000Y-28800000D03*
D26*
X53950000Y-60000000D03*
X52050000Y-60000000D03*
D32*
X32600000Y-24225000D03*
X32600000Y-22575000D03*
D44*
X52300000Y-29925000D03*
X52300000Y-31475000D03*
D32*
X56900000Y-58225000D03*
X56900000Y-56575000D03*
D51*
X38650000Y-66800000D03*
X38650000Y-64800000D03*
X38650000Y-62800000D03*
X38650000Y-60800000D03*
X38650000Y-58800000D03*
X38650000Y-56800000D03*
D52*
X33050000Y-71320000D03*
X33050000Y-52280000D03*
D20*
X46825000Y-29300000D03*
X45175000Y-29300000D03*
D26*
X53950000Y-64220000D03*
X52050000Y-64220000D03*
D19*
X52500000Y-52775000D03*
X52500000Y-54425000D03*
D53*
X39397000Y-78820000D03*
X37597000Y-78820000D03*
X56057000Y-72160000D03*
X57857000Y-72160000D03*
D54*
X40720000Y-34100000D03*
X42720000Y-34100000D03*
X44720000Y-34100000D03*
X46720000Y-34100000D03*
X48720000Y-34100000D03*
X50720000Y-34100000D03*
X52720000Y-34100000D03*
X54720000Y-34100000D03*
D55*
X56200000Y-37100000D03*
X56200000Y-39100000D03*
X56200000Y-41100000D03*
X56200000Y-43100000D03*
X56200000Y-45100000D03*
X56200000Y-47100000D03*
D54*
X54720000Y-50100000D03*
X52720000Y-50100000D03*
X50720000Y-50100000D03*
X48720000Y-50100000D03*
X46720000Y-50100000D03*
X44720000Y-50100000D03*
X42720000Y-50100000D03*
X40720000Y-50100000D03*
D56*
X63200000Y-53875000D03*
X61200000Y-51525000D03*
X59200000Y-53875000D03*
D57*
X63787500Y-44900000D03*
X62212500Y-44900000D03*
D19*
X55300000Y-56575000D03*
X55300000Y-58225000D03*
%LPD*%
D58*
X32000000Y-91000000D02*
X35500000Y-91000000D01*
X55502694Y-75500000D02*
G75*
G02*
X39691306Y-75500000I-7905694J0D01*
G01*
X39691306Y-75500000D02*
G75*
G02*
X55502694Y-75500000I7905694J0D01*
G01*
X64900000Y-20000000D02*
X64900000Y-89000000D01*
X39200000Y-106000000D02*
X59400000Y-106000000D01*
X35500000Y-95700000D02*
X39200000Y-95700000D01*
X39200000Y-95700000D02*
X39200000Y-106000000D01*
X30000000Y-20000000D02*
X64900000Y-20000000D01*
X62900000Y-91000000D02*
X59400000Y-91000000D01*
X64900000Y-89000000D02*
X62900000Y-91000000D01*
D59*
X30000000Y-89000000D02*
X32000000Y-91000000D01*
D58*
X35500000Y-91000000D02*
X35500000Y-95700000D01*
X30000000Y-20000000D02*
X30000000Y-89000000D01*
X59400000Y-106000000D02*
X59400000Y-91000000D01*
M02*
