G04 #@! TF.GenerationSoftware,KiCad,Pcbnew,8.0.2*
G04 #@! TF.CreationDate,2024-09-20T16:52:05+03:00*
G04 #@! TF.ProjectId,OE0113-WiFi_QR_Mifare_Reader,4f453031-3133-42d5-9769-46695f51525f,rev?*
G04 #@! TF.SameCoordinates,Original*
G04 #@! TF.FileFunction,Soldermask,Top*
G04 #@! TF.FilePolarity,Negative*
%FSLAX46Y46*%
G04 Gerber Fmt 4.6, Leading zero omitted, Abs format (unit mm)*
G04 Created by KiCad (PCBNEW 8.0.2) date 2024-09-20 16:52:05*
%MOMM*%
%LPD*%
G01*
G04 APERTURE LIST*
G04 Aperture macros list*
%AMRoundRect*
0 Rectangle with rounded corners*
0 $1 Rounding radius*
0 $2 $3 $4 $5 $6 $7 $8 $9 X,Y pos of 4 corners*
0 Add a 4 corners polygon primitive as box body*
4,1,4,$2,$3,$4,$5,$6,$7,$8,$9,$2,$3,0*
0 Add four circle primitives for the rounded corners*
1,1,$1+$1,$2,$3*
1,1,$1+$1,$4,$5*
1,1,$1+$1,$6,$7*
1,1,$1+$1,$8,$9*
0 Add four rect primitives between the rounded corners*
20,1,$1+$1,$2,$3,$4,$5,0*
20,1,$1+$1,$4,$5,$6,$7,0*
20,1,$1+$1,$6,$7,$8,$9,0*
20,1,$1+$1,$8,$9,$2,$3,0*%
G04 Aperture macros list end*
%ADD10RoundRect,0.101600X0.800000X-0.800000X0.800000X0.800000X-0.800000X0.800000X-0.800000X-0.800000X0*%
%ADD11C,2.082800*%
G04 #@! TA.AperFunction,Profile*
%ADD12C,0.050000*%
G04 #@! TD*
G04 #@! TA.AperFunction,Profile*
%ADD13C,0.100000*%
G04 #@! TD*
G04 APERTURE END LIST*
D10*
X44217000Y-20200000D03*
X30100000Y-33000000D03*
X30100000Y-30600000D03*
X30100000Y-23400000D03*
X30100000Y-35600000D03*
D11*
X41100000Y-101600000D03*
X43640000Y-101600000D03*
X46180000Y-101600000D03*
X48720000Y-101600000D03*
X51260000Y-101600000D03*
X53800000Y-101600000D03*
D10*
X37017000Y-20200000D03*
X64700000Y-28200000D03*
X64700000Y-23400000D03*
X32217000Y-20200000D03*
X34617000Y-20200000D03*
X41817000Y-20200000D03*
X64700000Y-25800000D03*
X30100000Y-28200000D03*
X39417000Y-20200000D03*
X30100000Y-25800000D03*
D12*
X32000000Y-91000000D02*
X35500000Y-91000000D01*
X55502694Y-75500000D02*
G75*
G02*
X39691306Y-75500000I-7905694J0D01*
G01*
X39691306Y-75500000D02*
G75*
G02*
X55502694Y-75500000I7905694J0D01*
G01*
X64900000Y-20000000D02*
X64900000Y-89000000D01*
X39200000Y-106000000D02*
X59400000Y-106000000D01*
X35500000Y-95700000D02*
X39200000Y-95700000D01*
X39200000Y-95700000D02*
X39200000Y-106000000D01*
X30000000Y-20000000D02*
X64900000Y-20000000D01*
X62900000Y-91000000D02*
X59400000Y-91000000D01*
X64900000Y-89000000D02*
X62900000Y-91000000D01*
D13*
X30000000Y-89000000D02*
X32000000Y-91000000D01*
D12*
X35500000Y-91000000D02*
X35500000Y-95700000D01*
X30000000Y-20000000D02*
X30000000Y-89000000D01*
X59400000Y-106000000D02*
X59400000Y-91000000D01*
M02*
