G04 #@! TF.GenerationSoftware,KiCad,Pcbnew,8.0.2*
G04 #@! TF.CreationDate,2024-09-20T16:52:05+03:00*
G04 #@! TF.ProjectId,OE0113-WiFi_QR_Mifare_Reader,4f453031-3133-42d5-9769-46695f51525f,rev?*
G04 #@! TF.SameCoordinates,Original*
G04 #@! TF.FileFunction,Copper,L1,Top*
G04 #@! TF.FilePolarity,Positive*
%FSLAX46Y46*%
G04 Gerber Fmt 4.6, Leading zero omitted, Abs format (unit mm)*
G04 Created by KiCad (PCBNEW 8.0.2) date 2024-09-20 16:52:05*
%MOMM*%
%LPD*%
G01*
G04 APERTURE LIST*
G04 #@! TA.AperFunction,ComponentPad*
%ADD10R,1.600000X1.600000*%
G04 #@! TD*
G04 #@! TA.AperFunction,ComponentPad*
%ADD11C,1.879600*%
G04 #@! TD*
G04 #@! TA.AperFunction,HeatsinkPad*
%ADD12C,0.600000*%
G04 #@! TD*
G04 #@! TA.AperFunction,HeatsinkPad*
%ADD13R,3.500000X3.500000*%
G04 #@! TD*
G04 #@! TA.AperFunction,ComponentPad*
%ADD14R,1.400000X1.400000*%
G04 #@! TD*
G04 #@! TA.AperFunction,ComponentPad*
%ADD15C,1.400000*%
G04 #@! TD*
G04 #@! TA.AperFunction,ViaPad*
%ADD16C,0.600000*%
G04 #@! TD*
G04 #@! TA.AperFunction,ViaPad*
%ADD17C,0.850000*%
G04 #@! TD*
G04 #@! TA.AperFunction,Conductor*
%ADD18C,0.254000*%
G04 #@! TD*
G04 #@! TA.AperFunction,Conductor*
%ADD19C,0.600000*%
G04 #@! TD*
G04 #@! TA.AperFunction,Conductor*
%ADD20C,0.400000*%
G04 #@! TD*
G04 #@! TA.AperFunction,Conductor*
%ADD21C,0.450000*%
G04 #@! TD*
G04 #@! TA.AperFunction,Conductor*
%ADD22C,0.300000*%
G04 #@! TD*
G04 #@! TA.AperFunction,Conductor*
%ADD23C,0.500000*%
G04 #@! TD*
G04 #@! TA.AperFunction,Conductor*
%ADD24C,0.800000*%
G04 #@! TD*
G04 #@! TA.AperFunction,Profile*
%ADD25C,0.050000*%
G04 #@! TD*
G04 #@! TA.AperFunction,Profile*
%ADD26C,0.100000*%
G04 #@! TD*
G04 APERTURE END LIST*
D10*
X44217000Y-20200000D03*
X30100000Y-33000000D03*
X30100000Y-30600000D03*
X30100000Y-23400000D03*
X30100000Y-35600000D03*
D11*
X41100000Y-101600000D03*
X43640000Y-101600000D03*
X46180000Y-101600000D03*
X48720000Y-101600000D03*
X51260000Y-101600000D03*
X53800000Y-101600000D03*
D10*
X37017000Y-20200000D03*
X64700000Y-28200000D03*
X64700000Y-23400000D03*
X32217000Y-20200000D03*
X34617000Y-20200000D03*
X41817000Y-20200000D03*
X64700000Y-25800000D03*
X30100000Y-28200000D03*
X39417000Y-20200000D03*
X30100000Y-25800000D03*
D12*
X53450000Y-26050000D03*
X53450000Y-24600000D03*
X53450000Y-23150000D03*
X52000000Y-26050000D03*
X52000000Y-24600000D03*
D13*
X52000000Y-24600000D03*
D12*
X52000000Y-23150000D03*
X50550000Y-26050000D03*
X50550000Y-24600000D03*
X50550000Y-23150000D03*
D14*
X56564500Y-93000000D03*
D15*
X48944500Y-93000000D03*
X43864500Y-93000000D03*
X38784500Y-93000000D03*
X38784500Y-85380000D03*
X43864500Y-85380000D03*
X48944500Y-85380000D03*
X56564500Y-85380000D03*
D16*
X55700000Y-24700000D03*
X48700000Y-28900000D03*
X62250000Y-57100000D03*
X52400000Y-28200000D03*
X41100000Y-24575000D03*
X51200000Y-32300000D03*
X55600000Y-21500000D03*
X47000000Y-91100000D03*
X34100000Y-30500000D03*
X60500000Y-45300000D03*
X43400000Y-25700000D03*
X59600000Y-33300000D03*
X51000000Y-28100000D03*
X60525000Y-40200000D03*
X61900000Y-70000000D03*
X33800000Y-28400000D03*
X53800000Y-29900000D03*
X55900000Y-26600000D03*
X36500000Y-50100000D03*
X57000000Y-69600000D03*
X57400000Y-65500000D03*
X57000000Y-64600000D03*
X56400000Y-65500000D03*
X63000000Y-46100000D03*
X62973000Y-73900000D03*
X49600000Y-28700000D03*
X58400000Y-25700000D03*
X41400000Y-48327000D03*
X39000000Y-88600000D03*
X50720000Y-51900000D03*
X53700000Y-54273000D03*
X46200000Y-32200000D03*
X46800000Y-20900000D03*
X50700000Y-37100000D03*
X53400000Y-20500000D03*
X52800000Y-21200000D03*
X52720000Y-36300000D03*
X49300000Y-21900000D03*
X56200000Y-35800000D03*
X57800000Y-54300000D03*
X39900000Y-69800000D03*
X38500000Y-50000000D03*
X38000000Y-77300000D03*
X37900000Y-82500000D03*
X54600000Y-45100000D03*
X40100000Y-44900000D03*
X39600000Y-45900000D03*
X44600000Y-46800000D03*
X38750000Y-46400000D03*
X46700000Y-47700000D03*
X38000000Y-40900000D03*
X54700000Y-40900000D03*
X44200000Y-98000000D03*
X58800000Y-63400000D03*
X55100000Y-31800000D03*
X32400000Y-79800000D03*
X47100000Y-98300000D03*
X56700000Y-96200000D03*
X54200000Y-20800000D03*
X31000000Y-21700000D03*
X45800000Y-20600000D03*
X33900000Y-43400000D03*
X37300000Y-45000000D03*
X59700000Y-78900000D03*
X36100000Y-40200000D03*
X34600000Y-29700000D03*
X64300000Y-40200000D03*
X58000000Y-56500000D03*
X60300000Y-72000000D03*
X35300000Y-31700000D03*
X53200000Y-103500000D03*
X64200000Y-35600000D03*
X62900000Y-82400000D03*
X50200000Y-61400000D03*
X44800000Y-28000000D03*
X47600000Y-103900000D03*
X42200000Y-52000000D03*
X57800000Y-49800000D03*
X57200000Y-51200000D03*
X36400000Y-32800000D03*
X57900000Y-64400000D03*
X38700000Y-28400000D03*
X56400000Y-87800000D03*
X59000000Y-87300000D03*
X36100000Y-36100000D03*
X45500000Y-90400000D03*
X34200000Y-77000000D03*
X62700000Y-81400000D03*
X37200000Y-27000000D03*
X33300000Y-38000000D03*
D17*
X59400000Y-21500000D03*
D16*
X50200000Y-62400000D03*
X35300000Y-56700000D03*
X35500000Y-24700000D03*
X57300000Y-33300000D03*
X58200000Y-61800000D03*
X42700000Y-95600000D03*
X50600000Y-46300000D03*
X35300000Y-54700000D03*
X32200000Y-63500000D03*
X33000000Y-67100000D03*
X53800000Y-31700000D03*
X31700000Y-25500000D03*
X59100000Y-84100000D03*
X58700000Y-83200000D03*
X50200000Y-60200000D03*
X54500000Y-22200000D03*
X41300000Y-53500000D03*
X60900000Y-71400000D03*
X39500000Y-95100000D03*
X35300000Y-59400000D03*
X40100000Y-99600000D03*
X37200000Y-28400000D03*
X34900000Y-64200000D03*
X32700000Y-55800000D03*
X63100000Y-34600000D03*
X55600000Y-98400000D03*
X41000000Y-21800000D03*
X40900000Y-88400000D03*
X64200000Y-33800000D03*
X34500000Y-47900000D03*
X53900000Y-47200000D03*
X50200000Y-59000000D03*
X50200000Y-63400000D03*
X33800000Y-32800000D03*
X59200000Y-31000000D03*
X45400000Y-96700000D03*
X38700000Y-27000000D03*
X40400000Y-103400000D03*
X32600000Y-58600000D03*
X42600000Y-26200000D03*
X32300000Y-75300000D03*
X48800000Y-28000000D03*
X37600000Y-38900000D03*
X54500000Y-39000000D03*
X59100000Y-59300000D03*
X54900000Y-60000000D03*
X40500000Y-31200000D03*
X40500000Y-36000000D03*
X54600000Y-43100000D03*
X40500000Y-42600000D03*
X36300000Y-23000000D03*
X37000000Y-24050000D03*
X32700000Y-28300000D03*
X64100000Y-53900000D03*
X39100000Y-83600000D03*
X39100000Y-51600000D03*
X60800000Y-50000000D03*
X42700000Y-48400000D03*
D18*
X55700000Y-24700000D02*
X58700000Y-24700000D01*
X58700000Y-24700000D02*
X59000000Y-25000000D01*
X60000000Y-26000000D02*
X60000000Y-26700000D01*
X59000000Y-25000000D02*
X59150000Y-25150000D01*
X55183998Y-30900000D02*
X57883998Y-28200000D01*
X50000000Y-30900000D02*
X55183998Y-30900000D01*
X58500000Y-28200000D02*
X59150000Y-27550000D01*
X59150000Y-25150000D02*
X60000000Y-26000000D01*
X48700000Y-29600000D02*
X50000000Y-30900000D01*
X48700000Y-28900000D02*
X48700000Y-29600000D01*
X57883998Y-28200000D02*
X58500000Y-28200000D01*
X59150000Y-27550000D02*
X59150000Y-25150000D01*
D19*
X57600000Y-21500000D02*
X55600000Y-21500000D01*
D20*
X59600000Y-33300000D02*
X58850000Y-34050000D01*
D21*
X56700000Y-81400000D02*
X56700000Y-76800000D01*
D22*
X33800000Y-28300000D02*
X33800000Y-28400000D01*
D20*
X52950000Y-34050000D02*
X51200000Y-32300000D01*
D18*
X51100000Y-28200000D02*
X53300000Y-28200000D01*
D19*
X62300000Y-47100000D02*
X62300000Y-57050000D01*
D21*
X47000000Y-91100000D02*
X56700000Y-81400000D01*
D19*
X62300000Y-57050000D02*
X62250000Y-57100000D01*
X59600000Y-33300000D02*
X61300000Y-31600000D01*
D22*
X43400000Y-34900000D02*
X46700000Y-38200000D01*
D19*
X61300000Y-25200000D02*
X57600000Y-21500000D01*
D22*
X37500000Y-24600000D02*
X33800000Y-28300000D01*
X58525000Y-38200000D02*
X60525000Y-40200000D01*
D21*
X61900000Y-71600000D02*
X61900000Y-70000000D01*
D22*
X41075000Y-24600000D02*
X37500000Y-24600000D01*
D18*
X54600000Y-23800000D02*
X55600000Y-22800000D01*
X55600000Y-22800000D02*
X55600000Y-21500000D01*
D22*
X46700000Y-38200000D02*
X58525000Y-38200000D01*
D21*
X56700000Y-76800000D02*
X61900000Y-71600000D01*
D22*
X41100000Y-24575000D02*
X41075000Y-24600000D01*
D18*
X53300000Y-28200000D02*
X54600000Y-26900000D01*
X54600000Y-26900000D02*
X54600000Y-23800000D01*
X51000000Y-28100000D02*
X51100000Y-28200000D01*
D22*
X34100000Y-30500000D02*
X33800000Y-30200000D01*
X33800000Y-30200000D02*
X33800000Y-28400000D01*
D20*
X58850000Y-34050000D02*
X52950000Y-34050000D01*
D19*
X60500000Y-45300000D02*
X62300000Y-47100000D01*
X61300000Y-31600000D02*
X61300000Y-25200000D01*
D22*
X43400000Y-25700000D02*
X43400000Y-34900000D01*
X55900000Y-26600000D02*
X55900000Y-27800000D01*
X55900000Y-27800000D02*
X53800000Y-29900000D01*
X48720000Y-97920000D02*
X48720000Y-101600000D01*
X45700000Y-92500000D02*
X45700000Y-94900000D01*
X38100000Y-90300000D02*
X43500000Y-90300000D01*
X45700000Y-94900000D02*
X48720000Y-97920000D01*
X43500000Y-90300000D02*
X45700000Y-92500000D01*
X36500000Y-50100000D02*
X36500000Y-88700000D01*
X36500000Y-88700000D02*
X38100000Y-90300000D01*
D18*
X62973000Y-46127000D02*
X63000000Y-46100000D01*
X62973000Y-73900000D02*
X62973000Y-46127000D01*
X55800000Y-25700000D02*
X58400000Y-25700000D01*
X55100000Y-27200000D02*
X55100000Y-26400000D01*
X55100000Y-26400000D02*
X55800000Y-25700000D01*
X49800000Y-28900000D02*
X53400000Y-28900000D01*
X49600000Y-28700000D02*
X49800000Y-28900000D01*
X53400000Y-28900000D02*
X55100000Y-27200000D01*
X37200000Y-86800000D02*
X39000000Y-88600000D01*
X41400000Y-48327000D02*
X38873000Y-48327000D01*
X37200000Y-50000000D02*
X37200000Y-86800000D01*
X38873000Y-48327000D02*
X37200000Y-50000000D01*
X53700000Y-54273000D02*
X53227000Y-53800000D01*
X52620000Y-53800000D02*
X50720000Y-51900000D01*
X53227000Y-53800000D02*
X52620000Y-53800000D01*
X46200000Y-21500000D02*
X46800000Y-20900000D01*
X46200000Y-32200000D02*
X46200000Y-21500000D01*
X53400000Y-20500000D02*
X48500000Y-20500000D01*
X48500000Y-20500000D02*
X47000000Y-22000000D01*
X48900000Y-37100000D02*
X50700000Y-37100000D01*
X47000000Y-22000000D02*
X47000000Y-35200000D01*
X47000000Y-35200000D02*
X48900000Y-37100000D01*
X47600000Y-34300000D02*
X47600000Y-22300000D01*
X52620000Y-36400000D02*
X49700000Y-36400000D01*
X49700000Y-36400000D02*
X47600000Y-34300000D01*
X47600000Y-22300000D02*
X48900000Y-21000000D01*
X52720000Y-36300000D02*
X52620000Y-36400000D01*
X48900000Y-21000000D02*
X52600000Y-21000000D01*
X52600000Y-21000000D02*
X52800000Y-21200000D01*
X48054000Y-23146000D02*
X48054000Y-33854000D01*
X49846000Y-35646000D02*
X56046000Y-35646000D01*
X56046000Y-35646000D02*
X56200000Y-35800000D01*
X48054000Y-33854000D02*
X49846000Y-35646000D01*
X49300000Y-21900000D02*
X48054000Y-23146000D01*
X39900000Y-55700000D02*
X40200000Y-55400000D01*
X56700000Y-55400000D02*
X57800000Y-54300000D01*
X39900000Y-69800000D02*
X39900000Y-55700000D01*
X40200000Y-55400000D02*
X56700000Y-55400000D01*
X37900000Y-82500000D02*
X38000000Y-82400000D01*
X38500000Y-50000000D02*
X38000000Y-50500000D01*
X38000000Y-50500000D02*
X38000000Y-76700000D01*
X38000000Y-77300000D02*
X38000000Y-76700000D01*
X38000000Y-82400000D02*
X38000000Y-76700000D01*
X40100000Y-44900000D02*
X40300000Y-45100000D01*
X40300000Y-45100000D02*
X43700000Y-45100000D01*
X43700000Y-45100000D02*
X54600000Y-45100000D01*
X40500000Y-46800000D02*
X44600000Y-46800000D01*
X39600000Y-45900000D02*
X40500000Y-46800000D01*
X39850000Y-47500000D02*
X46500000Y-47500000D01*
X46500000Y-47500000D02*
X46700000Y-47700000D01*
X38750000Y-46400000D02*
X39850000Y-47500000D01*
X38000000Y-40900000D02*
X54700000Y-40900000D01*
D23*
X64700000Y-25800000D02*
X64600000Y-25800000D01*
X64600000Y-25800000D02*
X60300000Y-21500000D01*
X55900000Y-31000000D02*
X55100000Y-31800000D01*
X59200000Y-31000000D02*
X55900000Y-31000000D01*
X60300000Y-21500000D02*
X59400000Y-21500000D01*
D18*
X54500000Y-39000000D02*
X37700000Y-39000000D01*
X37700000Y-39000000D02*
X37600000Y-38900000D01*
D21*
X55600000Y-59300000D02*
X54900000Y-60000000D01*
X59100000Y-59300000D02*
X55600000Y-59300000D01*
D18*
X40500000Y-42600000D02*
X41000000Y-43100000D01*
X41000000Y-43100000D02*
X42900000Y-43100000D01*
X42900000Y-43100000D02*
X54600000Y-43100000D01*
X40500000Y-31200000D02*
X40500000Y-36000000D01*
D22*
X30500000Y-23000000D02*
X30100000Y-23400000D01*
X36300000Y-23000000D02*
X30500000Y-23000000D01*
D24*
X30100000Y-23400000D02*
X30000000Y-23400000D01*
D22*
X32300000Y-23800000D02*
X30300000Y-25800000D01*
X36750000Y-23800000D02*
X32300000Y-23800000D01*
D24*
X30100000Y-25800000D02*
X30200000Y-25800000D01*
D22*
X30300000Y-25800000D02*
X30200000Y-25800000D01*
X37000000Y-24050000D02*
X36750000Y-23800000D01*
X32700000Y-28300000D02*
X32100000Y-28900000D01*
X30400000Y-35600000D02*
X30200000Y-35600000D01*
X32100000Y-33900000D02*
X30400000Y-35600000D01*
D24*
X30100000Y-35600000D02*
X30200000Y-35600000D01*
D22*
X32100000Y-28900000D02*
X32100000Y-33900000D01*
D18*
X55168000Y-104532000D02*
X45900000Y-104532000D01*
X61500000Y-88100000D02*
X59410500Y-88100000D01*
X45900000Y-104532000D02*
X45068000Y-104532000D01*
X56300000Y-103400000D02*
X55168000Y-104532000D01*
X58455250Y-101244750D02*
X56300000Y-103400000D01*
X44032000Y-104532000D02*
X41100000Y-101600000D01*
X63700000Y-85900000D02*
X61500000Y-88100000D01*
X59410500Y-88100000D02*
X58455250Y-89055250D01*
X45900000Y-104532000D02*
X44032000Y-104532000D01*
X63700000Y-54300000D02*
X63700000Y-85900000D01*
X64100000Y-53900000D02*
X63700000Y-54300000D01*
X58455250Y-89055250D02*
X58455250Y-101244750D01*
X39100000Y-83600000D02*
X39100000Y-51600000D01*
X59200000Y-48400000D02*
X42700000Y-48400000D01*
X60800000Y-50000000D02*
X59200000Y-48400000D01*
G04 #@! TA.AperFunction,Conductor*
G36*
X31175691Y-20018907D02*
G01*
X31211655Y-20068407D01*
X31216500Y-20099000D01*
X31216500Y-21019746D01*
X31216501Y-21019758D01*
X31228132Y-21078227D01*
X31228134Y-21078233D01*
X31272445Y-21144548D01*
X31272448Y-21144552D01*
X31338769Y-21188867D01*
X31383231Y-21197711D01*
X31397241Y-21200498D01*
X31397246Y-21200498D01*
X31397252Y-21200500D01*
X31397253Y-21200500D01*
X33036747Y-21200500D01*
X33036748Y-21200500D01*
X33095231Y-21188867D01*
X33161552Y-21144552D01*
X33205867Y-21078231D01*
X33217500Y-21019748D01*
X33217500Y-20099000D01*
X33236407Y-20040809D01*
X33285907Y-20004845D01*
X33316500Y-20000000D01*
X33517500Y-20000000D01*
X33575691Y-20018907D01*
X33611655Y-20068407D01*
X33616500Y-20099000D01*
X33616500Y-21019746D01*
X33616501Y-21019758D01*
X33628132Y-21078227D01*
X33628134Y-21078233D01*
X33672445Y-21144548D01*
X33672448Y-21144552D01*
X33738769Y-21188867D01*
X33783231Y-21197711D01*
X33797241Y-21200498D01*
X33797246Y-21200498D01*
X33797252Y-21200500D01*
X33797253Y-21200500D01*
X35436747Y-21200500D01*
X35436748Y-21200500D01*
X35495231Y-21188867D01*
X35561552Y-21144552D01*
X35605867Y-21078231D01*
X35617500Y-21019748D01*
X35617500Y-20099000D01*
X35636407Y-20040809D01*
X35685907Y-20004845D01*
X35716500Y-20000000D01*
X35917500Y-20000000D01*
X35975691Y-20018907D01*
X36011655Y-20068407D01*
X36016500Y-20099000D01*
X36016500Y-21019746D01*
X36016501Y-21019758D01*
X36028132Y-21078227D01*
X36028134Y-21078233D01*
X36072445Y-21144548D01*
X36072448Y-21144552D01*
X36138769Y-21188867D01*
X36183231Y-21197711D01*
X36197241Y-21200498D01*
X36197246Y-21200498D01*
X36197252Y-21200500D01*
X36197253Y-21200500D01*
X37836747Y-21200500D01*
X37836748Y-21200500D01*
X37895231Y-21188867D01*
X37961552Y-21144552D01*
X38005867Y-21078231D01*
X38017500Y-21019748D01*
X38017500Y-20099000D01*
X38036407Y-20040809D01*
X38085907Y-20004845D01*
X38116500Y-20000000D01*
X38317500Y-20000000D01*
X38375691Y-20018907D01*
X38411655Y-20068407D01*
X38416500Y-20099000D01*
X38416500Y-21019746D01*
X38416501Y-21019758D01*
X38428132Y-21078227D01*
X38428134Y-21078233D01*
X38472445Y-21144548D01*
X38472448Y-21144552D01*
X38538769Y-21188867D01*
X38583231Y-21197711D01*
X38597241Y-21200498D01*
X38597246Y-21200498D01*
X38597252Y-21200500D01*
X38597253Y-21200500D01*
X40236747Y-21200500D01*
X40236748Y-21200500D01*
X40295231Y-21188867D01*
X40361552Y-21144552D01*
X40405867Y-21078231D01*
X40417500Y-21019748D01*
X40417500Y-20099000D01*
X40436407Y-20040809D01*
X40485907Y-20004845D01*
X40516500Y-20000000D01*
X40717500Y-20000000D01*
X40775691Y-20018907D01*
X40811655Y-20068407D01*
X40816500Y-20099000D01*
X40816500Y-21019746D01*
X40816501Y-21019758D01*
X40828132Y-21078227D01*
X40828134Y-21078233D01*
X40872445Y-21144548D01*
X40872448Y-21144552D01*
X40938769Y-21188867D01*
X40983231Y-21197711D01*
X40997241Y-21200498D01*
X40997246Y-21200498D01*
X40997252Y-21200500D01*
X40997253Y-21200500D01*
X42636747Y-21200500D01*
X42636748Y-21200500D01*
X42695231Y-21188867D01*
X42761552Y-21144552D01*
X42805867Y-21078231D01*
X42817500Y-21019748D01*
X42817500Y-20099000D01*
X42836407Y-20040809D01*
X42885907Y-20004845D01*
X42916500Y-20000000D01*
X43117500Y-20000000D01*
X43175691Y-20018907D01*
X43211655Y-20068407D01*
X43216500Y-20099000D01*
X43216500Y-21019746D01*
X43216501Y-21019758D01*
X43228132Y-21078227D01*
X43228134Y-21078233D01*
X43272445Y-21144548D01*
X43272448Y-21144552D01*
X43338769Y-21188867D01*
X43383231Y-21197711D01*
X43397241Y-21200498D01*
X43397246Y-21200498D01*
X43397252Y-21200500D01*
X43397253Y-21200500D01*
X45036747Y-21200500D01*
X45036748Y-21200500D01*
X45095231Y-21188867D01*
X45161552Y-21144552D01*
X45205867Y-21078231D01*
X45217500Y-21019748D01*
X45217500Y-20099000D01*
X45236407Y-20040809D01*
X45285907Y-20004845D01*
X45316500Y-20000000D01*
X48348685Y-20000000D01*
X48406876Y-20018907D01*
X48442840Y-20068407D01*
X48442840Y-20129593D01*
X48406876Y-20179093D01*
X48379506Y-20192146D01*
X48379585Y-20192336D01*
X48375976Y-20193830D01*
X48374309Y-20194626D01*
X48373593Y-20194817D01*
X48373592Y-20194817D01*
X48298907Y-20237937D01*
X47460358Y-21076485D01*
X47405842Y-21104262D01*
X47345410Y-21094691D01*
X47302145Y-21051426D01*
X47292363Y-20992391D01*
X47295369Y-20971488D01*
X47301574Y-20928325D01*
X47305647Y-20900001D01*
X47305647Y-20899997D01*
X47285165Y-20757543D01*
X47225377Y-20626628D01*
X47225377Y-20626627D01*
X47131128Y-20517857D01*
X47131127Y-20517856D01*
X47131126Y-20517855D01*
X47010057Y-20440049D01*
X47010054Y-20440047D01*
X47010053Y-20440047D01*
X47010050Y-20440046D01*
X46871964Y-20399500D01*
X46871961Y-20399500D01*
X46728039Y-20399500D01*
X46728035Y-20399500D01*
X46589949Y-20440046D01*
X46589942Y-20440049D01*
X46468873Y-20517855D01*
X46374622Y-20626628D01*
X46314834Y-20757543D01*
X46294353Y-20899997D01*
X46294353Y-20901484D01*
X46293969Y-20902664D01*
X46293345Y-20907008D01*
X46292593Y-20906899D01*
X46275446Y-20959675D01*
X46265362Y-20971481D01*
X45998910Y-21237935D01*
X45998909Y-21237934D01*
X45937937Y-21298907D01*
X45894817Y-21373592D01*
X45894817Y-21373593D01*
X45872500Y-21456881D01*
X45872500Y-31776744D01*
X45853593Y-31834935D01*
X45848320Y-31841574D01*
X45774623Y-31926626D01*
X45714834Y-32057543D01*
X45694353Y-32199997D01*
X45694353Y-32200002D01*
X45714834Y-32342456D01*
X45760504Y-32442457D01*
X45774623Y-32473373D01*
X45861271Y-32573371D01*
X45868873Y-32582144D01*
X45970453Y-32647425D01*
X45989947Y-32659953D01*
X46096403Y-32691211D01*
X46128035Y-32700499D01*
X46128036Y-32700499D01*
X46128039Y-32700500D01*
X46128041Y-32700500D01*
X46271959Y-32700500D01*
X46271961Y-32700500D01*
X46410053Y-32659953D01*
X46519978Y-32589308D01*
X46579152Y-32573754D01*
X46636168Y-32595953D01*
X46669247Y-32647425D01*
X46672500Y-32672593D01*
X46672500Y-35243118D01*
X46694817Y-35326406D01*
X46694817Y-35326407D01*
X46694819Y-35326410D01*
X46737935Y-35401090D01*
X48698910Y-37362065D01*
X48773590Y-37405181D01*
X48773592Y-37405181D01*
X48773593Y-37405182D01*
X48815237Y-37416340D01*
X48856881Y-37427499D01*
X48856883Y-37427500D01*
X48856884Y-37427500D01*
X48943116Y-37427500D01*
X50276312Y-37427500D01*
X50334503Y-37446407D01*
X50351133Y-37461670D01*
X50368872Y-37482143D01*
X50489947Y-37559953D01*
X50596403Y-37591211D01*
X50628035Y-37600499D01*
X50628036Y-37600499D01*
X50628039Y-37600500D01*
X50628041Y-37600500D01*
X50771959Y-37600500D01*
X50771961Y-37600500D01*
X50910053Y-37559953D01*
X51031128Y-37482143D01*
X51125377Y-37373373D01*
X51185165Y-37242457D01*
X51205647Y-37100000D01*
X51185165Y-36957543D01*
X51144100Y-36867626D01*
X51137126Y-36806841D01*
X51167212Y-36753563D01*
X51222868Y-36728145D01*
X51234154Y-36727500D01*
X52430380Y-36727500D01*
X52483903Y-36743216D01*
X52509942Y-36759950D01*
X52509947Y-36759953D01*
X52616403Y-36791211D01*
X52648035Y-36800499D01*
X52648036Y-36800499D01*
X52648039Y-36800500D01*
X52648041Y-36800500D01*
X52791959Y-36800500D01*
X52791961Y-36800500D01*
X52930053Y-36759953D01*
X53051128Y-36682143D01*
X53145377Y-36573373D01*
X53205165Y-36442457D01*
X53225575Y-36300500D01*
X53225647Y-36300002D01*
X53225647Y-36299997D01*
X53205165Y-36157544D01*
X53185109Y-36113627D01*
X53178134Y-36052841D01*
X53208220Y-35999563D01*
X53263876Y-35974145D01*
X53275162Y-35973500D01*
X55665389Y-35973500D01*
X55723580Y-35992407D01*
X55755442Y-36031374D01*
X55774621Y-36073370D01*
X55774622Y-36073371D01*
X55774623Y-36073373D01*
X55834484Y-36142457D01*
X55868873Y-36182144D01*
X55989942Y-36259950D01*
X55989947Y-36259953D01*
X56096403Y-36291211D01*
X56128035Y-36300499D01*
X56128036Y-36300499D01*
X56128039Y-36300500D01*
X56128041Y-36300500D01*
X56271959Y-36300500D01*
X56271961Y-36300500D01*
X56410053Y-36259953D01*
X56531128Y-36182143D01*
X56625377Y-36073373D01*
X56685165Y-35942457D01*
X56705647Y-35800000D01*
X56685165Y-35657543D01*
X56625377Y-35526627D01*
X56531128Y-35417857D01*
X56531127Y-35417856D01*
X56531126Y-35417855D01*
X56410057Y-35340049D01*
X56410054Y-35340047D01*
X56410053Y-35340047D01*
X56410050Y-35340046D01*
X56271964Y-35299500D01*
X56271961Y-35299500D01*
X56128039Y-35299500D01*
X56128035Y-35299500D01*
X56076987Y-35314490D01*
X56049096Y-35318500D01*
X50022663Y-35318500D01*
X49964472Y-35299593D01*
X49952659Y-35289504D01*
X48410496Y-33747341D01*
X48382719Y-33692824D01*
X48381500Y-33677337D01*
X48381500Y-29983662D01*
X48400407Y-29925471D01*
X48449907Y-29889507D01*
X48511093Y-29889507D01*
X48550501Y-29913656D01*
X49798910Y-31162065D01*
X49873590Y-31205181D01*
X49873592Y-31205181D01*
X49873593Y-31205182D01*
X49915237Y-31216340D01*
X49956881Y-31227499D01*
X49956883Y-31227500D01*
X54701000Y-31227500D01*
X54759191Y-31246407D01*
X54795155Y-31295907D01*
X54800000Y-31326500D01*
X54800000Y-32800000D01*
X59153178Y-32800000D01*
X59211369Y-32818907D01*
X59247333Y-32868407D01*
X59247333Y-32929593D01*
X59223183Y-32969002D01*
X59199499Y-32992686D01*
X59195172Y-33000180D01*
X59184266Y-33015496D01*
X59174622Y-33026627D01*
X59174621Y-33026628D01*
X59156591Y-33066107D01*
X59152277Y-33074475D01*
X59133608Y-33106813D01*
X59133607Y-33106813D01*
X59129507Y-33122117D01*
X59123938Y-33137608D01*
X59114835Y-33157543D01*
X59109675Y-33193426D01*
X59107310Y-33204955D01*
X59106365Y-33208482D01*
X59080742Y-33252863D01*
X58713104Y-33620503D01*
X58658587Y-33648281D01*
X58643100Y-33649500D01*
X53156900Y-33649500D01*
X53098709Y-33630593D01*
X53086896Y-33620504D01*
X51718744Y-32252351D01*
X51690967Y-32197834D01*
X51690779Y-32196594D01*
X51685165Y-32157543D01*
X51668827Y-32121769D01*
X51625378Y-32026629D01*
X51625377Y-32026628D01*
X51625377Y-32026627D01*
X51531128Y-31917857D01*
X51531127Y-31917856D01*
X51531126Y-31917855D01*
X51410057Y-31840049D01*
X51410054Y-31840047D01*
X51410053Y-31840047D01*
X51410050Y-31840046D01*
X51271964Y-31799500D01*
X51271961Y-31799500D01*
X51128039Y-31799500D01*
X51128035Y-31799500D01*
X50989949Y-31840046D01*
X50989942Y-31840049D01*
X50868873Y-31917855D01*
X50774622Y-32026628D01*
X50714834Y-32157543D01*
X50694353Y-32299997D01*
X50694353Y-32300002D01*
X50714834Y-32442456D01*
X50728953Y-32473371D01*
X50774623Y-32573373D01*
X50860597Y-32672593D01*
X50868873Y-32682144D01*
X50897436Y-32700500D01*
X50989947Y-32759953D01*
X51112383Y-32795903D01*
X51154496Y-32820889D01*
X52629518Y-34295910D01*
X52629520Y-34295913D01*
X52704087Y-34370480D01*
X52704092Y-34370483D01*
X52795409Y-34423205D01*
X52795413Y-34423207D01*
X52897270Y-34450500D01*
X52897272Y-34450501D01*
X52897273Y-34450501D01*
X53008790Y-34450501D01*
X53008806Y-34450500D01*
X58902725Y-34450500D01*
X58902727Y-34450500D01*
X59004588Y-34423207D01*
X59004590Y-34423205D01*
X59004592Y-34423205D01*
X59095908Y-34370483D01*
X59095908Y-34370482D01*
X59095913Y-34370480D01*
X59645506Y-33820886D01*
X59687613Y-33795903D01*
X59734190Y-33782227D01*
X59736393Y-33781608D01*
X59793186Y-33766392D01*
X59793192Y-33766388D01*
X59799188Y-33763906D01*
X59799424Y-33764476D01*
X59809792Y-33760029D01*
X59810053Y-33759953D01*
X59858605Y-33728749D01*
X59862580Y-33726326D01*
X59907314Y-33700500D01*
X59908326Y-33699487D01*
X59924808Y-33686203D01*
X59931128Y-33682143D01*
X59964236Y-33643932D01*
X59969025Y-33638787D01*
X60778817Y-32828995D01*
X60833334Y-32801219D01*
X60848821Y-32800000D01*
X64801000Y-32800000D01*
X64859191Y-32818907D01*
X64895155Y-32868407D01*
X64900000Y-32899000D01*
X64900000Y-88958992D01*
X64881093Y-89017183D01*
X64871004Y-89028996D01*
X62928996Y-90971004D01*
X62874479Y-90998781D01*
X62858992Y-91000000D01*
X59400000Y-91000000D01*
X59400000Y-91000001D01*
X59400000Y-105901000D01*
X59381093Y-105959191D01*
X59331593Y-105995155D01*
X59301000Y-106000000D01*
X39299000Y-106000000D01*
X39240809Y-105981093D01*
X39204845Y-105931593D01*
X39200000Y-105901000D01*
X39200000Y-101600000D01*
X39954815Y-101600000D01*
X39974314Y-101810427D01*
X40032147Y-102013689D01*
X40126344Y-102202862D01*
X40253698Y-102371506D01*
X40409872Y-102513877D01*
X40589547Y-102625128D01*
X40786605Y-102701468D01*
X40994336Y-102740300D01*
X41205664Y-102740300D01*
X41413395Y-102701468D01*
X41587438Y-102634043D01*
X41648524Y-102630654D01*
X41693200Y-102656355D01*
X43769935Y-104733090D01*
X43769934Y-104733090D01*
X43830907Y-104794062D01*
X43830910Y-104794065D01*
X43905590Y-104837181D01*
X43905592Y-104837181D01*
X43905593Y-104837182D01*
X43947237Y-104848340D01*
X43988881Y-104859499D01*
X43988883Y-104859500D01*
X43988884Y-104859500D01*
X55211117Y-104859500D01*
X55211117Y-104859499D01*
X55294406Y-104837182D01*
X55294407Y-104837182D01*
X55294407Y-104837181D01*
X55294410Y-104837181D01*
X55369090Y-104794065D01*
X56562065Y-103601090D01*
X58717315Y-101445840D01*
X58760431Y-101371160D01*
X58782750Y-101287866D01*
X58782750Y-101201634D01*
X58782750Y-89231913D01*
X58801657Y-89173722D01*
X58811746Y-89161909D01*
X59517159Y-88456496D01*
X59571676Y-88428719D01*
X59587163Y-88427500D01*
X61543117Y-88427500D01*
X61543117Y-88427499D01*
X61626406Y-88405182D01*
X61626407Y-88405182D01*
X61626407Y-88405181D01*
X61626410Y-88405181D01*
X61701090Y-88362065D01*
X63962065Y-86101090D01*
X64005181Y-86026410D01*
X64027500Y-85943116D01*
X64027500Y-85856884D01*
X64027500Y-54499500D01*
X64046407Y-54441309D01*
X64095907Y-54405345D01*
X64126500Y-54400500D01*
X64171959Y-54400500D01*
X64171961Y-54400500D01*
X64310053Y-54359953D01*
X64431128Y-54282143D01*
X64525377Y-54173373D01*
X64585165Y-54042457D01*
X64603080Y-53917855D01*
X64605647Y-53900002D01*
X64605647Y-53899997D01*
X64585165Y-53757543D01*
X64583361Y-53753593D01*
X64525377Y-53626627D01*
X64431128Y-53517857D01*
X64431127Y-53517856D01*
X64431126Y-53517855D01*
X64310057Y-53440049D01*
X64310054Y-53440047D01*
X64310053Y-53440047D01*
X64310050Y-53440046D01*
X64171964Y-53399500D01*
X64171961Y-53399500D01*
X64028039Y-53399500D01*
X64028035Y-53399500D01*
X63889949Y-53440046D01*
X63889942Y-53440049D01*
X63768873Y-53517855D01*
X63674622Y-53626628D01*
X63614834Y-53757543D01*
X63594353Y-53899997D01*
X63594353Y-53901484D01*
X63593969Y-53902664D01*
X63593345Y-53907008D01*
X63592593Y-53906899D01*
X63575446Y-53959675D01*
X63565360Y-53971483D01*
X63539508Y-53997337D01*
X63469504Y-54067341D01*
X63414987Y-54095118D01*
X63354555Y-54085547D01*
X63311290Y-54042282D01*
X63300500Y-53997337D01*
X63300500Y-46553893D01*
X63319407Y-46495702D01*
X63326741Y-46487711D01*
X63326491Y-46487494D01*
X63331128Y-46482143D01*
X63425377Y-46373373D01*
X63485165Y-46242457D01*
X63505647Y-46100000D01*
X63493836Y-46017855D01*
X63485165Y-45957543D01*
X63459563Y-45901484D01*
X63425377Y-45826627D01*
X63331128Y-45717857D01*
X63331127Y-45717856D01*
X63331126Y-45717855D01*
X63210057Y-45640049D01*
X63210054Y-45640047D01*
X63210053Y-45640047D01*
X63205721Y-45638775D01*
X63071964Y-45599500D01*
X63071961Y-45599500D01*
X62928039Y-45599500D01*
X62928035Y-45599500D01*
X62789949Y-45640046D01*
X62789942Y-45640049D01*
X62668873Y-45717855D01*
X62574622Y-45826628D01*
X62514834Y-45957543D01*
X62494353Y-46099997D01*
X62494353Y-46100002D01*
X62514834Y-46242456D01*
X62532959Y-46282143D01*
X62574623Y-46373373D01*
X62614511Y-46419407D01*
X62621319Y-46427263D01*
X62645137Y-46483622D01*
X62645500Y-46492094D01*
X62645500Y-46498678D01*
X62626593Y-46556869D01*
X62577093Y-46592833D01*
X62515907Y-46592833D01*
X62476496Y-46568682D01*
X60869044Y-44961230D01*
X60864229Y-44956057D01*
X60831129Y-44917858D01*
X60831127Y-44917856D01*
X60824807Y-44913794D01*
X60808338Y-44900523D01*
X60807318Y-44899503D01*
X60807309Y-44899496D01*
X60762613Y-44873691D01*
X60758589Y-44871239D01*
X60758587Y-44871238D01*
X60752084Y-44867058D01*
X60710054Y-44840047D01*
X60709770Y-44839964D01*
X60699408Y-44835528D01*
X60699176Y-44836089D01*
X60693187Y-44833608D01*
X60636421Y-44818398D01*
X60634153Y-44817761D01*
X60571964Y-44799500D01*
X60571961Y-44799500D01*
X60428039Y-44799500D01*
X60428035Y-44799500D01*
X60365845Y-44817761D01*
X60363579Y-44818397D01*
X60306815Y-44833607D01*
X60300818Y-44836091D01*
X60300589Y-44835539D01*
X60290245Y-44839958D01*
X60289954Y-44840043D01*
X60289944Y-44840048D01*
X60241410Y-44871238D01*
X60237391Y-44873688D01*
X60192684Y-44899500D01*
X60192682Y-44899502D01*
X60191658Y-44900527D01*
X60175200Y-44913789D01*
X60168872Y-44917856D01*
X60168871Y-44917857D01*
X60135768Y-44956059D01*
X60130956Y-44961227D01*
X60099500Y-44992685D01*
X60099499Y-44992686D01*
X60095172Y-45000180D01*
X60084266Y-45015496D01*
X60074622Y-45026627D01*
X60074621Y-45026628D01*
X60056591Y-45066107D01*
X60052277Y-45074475D01*
X60033608Y-45106813D01*
X60033607Y-45106813D01*
X60029507Y-45122117D01*
X60023938Y-45137608D01*
X60014835Y-45157543D01*
X60009674Y-45193430D01*
X60007310Y-45204953D01*
X59999500Y-45234104D01*
X59999500Y-45257122D01*
X59998492Y-45271211D01*
X59994353Y-45299998D01*
X59994353Y-45300001D01*
X59998492Y-45328786D01*
X59999500Y-45342876D01*
X59999500Y-45365893D01*
X60007310Y-45395042D01*
X60009675Y-45406572D01*
X60014835Y-45442457D01*
X60023937Y-45462388D01*
X60029506Y-45477881D01*
X60033608Y-45493186D01*
X60052277Y-45525523D01*
X60056592Y-45533893D01*
X60074622Y-45573373D01*
X60084259Y-45584494D01*
X60095172Y-45599820D01*
X60099497Y-45607310D01*
X60099498Y-45607311D01*
X60099500Y-45607314D01*
X60118812Y-45626626D01*
X60130961Y-45638775D01*
X60135764Y-45643934D01*
X60168872Y-45682143D01*
X60168873Y-45682144D01*
X60175183Y-45686199D01*
X60191666Y-45699480D01*
X61770504Y-47278318D01*
X61798281Y-47332835D01*
X61799500Y-47348322D01*
X61799500Y-56852760D01*
X61786238Y-56902258D01*
X61783607Y-56906813D01*
X61779507Y-56922117D01*
X61773938Y-56937608D01*
X61764835Y-56957543D01*
X61759674Y-56993430D01*
X61757310Y-57004953D01*
X61749500Y-57034104D01*
X61749500Y-57057122D01*
X61748492Y-57071211D01*
X61744353Y-57099998D01*
X61744353Y-57100001D01*
X61748492Y-57128786D01*
X61749500Y-57142876D01*
X61749500Y-57165893D01*
X61757310Y-57195042D01*
X61759675Y-57206572D01*
X61764835Y-57242457D01*
X61773937Y-57262388D01*
X61779506Y-57277881D01*
X61783608Y-57293186D01*
X61802277Y-57325523D01*
X61806592Y-57333893D01*
X61824622Y-57373373D01*
X61834259Y-57384494D01*
X61845172Y-57399820D01*
X61849497Y-57407310D01*
X61849498Y-57407311D01*
X61849500Y-57407314D01*
X61880961Y-57438775D01*
X61885764Y-57443934D01*
X61918872Y-57482143D01*
X61925186Y-57486201D01*
X61941662Y-57499476D01*
X61942686Y-57500500D01*
X61982071Y-57523239D01*
X61987392Y-57526311D01*
X61991414Y-57528763D01*
X62039947Y-57559953D01*
X62040046Y-57559982D01*
X62040215Y-57560032D01*
X62050584Y-57564474D01*
X62050819Y-57563909D01*
X62056809Y-57566389D01*
X62056814Y-57566392D01*
X62113579Y-57581601D01*
X62115813Y-57582228D01*
X62126814Y-57585458D01*
X62178033Y-57600499D01*
X62178038Y-57600499D01*
X62178039Y-57600500D01*
X62178040Y-57600500D01*
X62321958Y-57600500D01*
X62321961Y-57600500D01*
X62384190Y-57582227D01*
X62386393Y-57581608D01*
X62443186Y-57566392D01*
X62443192Y-57566388D01*
X62449188Y-57563906D01*
X62449424Y-57564476D01*
X62459792Y-57560029D01*
X62460053Y-57559953D01*
X62492976Y-57538793D01*
X62552151Y-57523239D01*
X62609168Y-57545438D01*
X62642247Y-57596910D01*
X62645500Y-57622078D01*
X62645500Y-73476744D01*
X62626593Y-73534935D01*
X62621320Y-73541574D01*
X62547623Y-73626626D01*
X62487834Y-73757543D01*
X62467353Y-73899997D01*
X62467353Y-73900002D01*
X62487834Y-74042456D01*
X62547622Y-74173371D01*
X62547623Y-74173373D01*
X62641872Y-74282143D01*
X62641873Y-74282144D01*
X62762942Y-74359950D01*
X62762947Y-74359953D01*
X62869403Y-74391211D01*
X62901035Y-74400499D01*
X62901036Y-74400499D01*
X62901039Y-74400500D01*
X62901041Y-74400500D01*
X63044959Y-74400500D01*
X63044961Y-74400500D01*
X63183053Y-74359953D01*
X63219976Y-74336223D01*
X63279151Y-74320668D01*
X63336167Y-74342866D01*
X63369247Y-74394338D01*
X63372500Y-74419507D01*
X63372500Y-85723337D01*
X63353593Y-85781528D01*
X63343504Y-85793341D01*
X61393341Y-87743504D01*
X61338824Y-87771281D01*
X61323337Y-87772500D01*
X59367381Y-87772500D01*
X59284093Y-87794817D01*
X59284092Y-87794817D01*
X59209410Y-87837935D01*
X58254160Y-88793185D01*
X58254159Y-88793184D01*
X58193187Y-88854157D01*
X58150067Y-88928842D01*
X58150067Y-88928843D01*
X58127750Y-89012131D01*
X58127750Y-101068087D01*
X58108843Y-101126278D01*
X58098754Y-101138091D01*
X55061341Y-104175504D01*
X55006824Y-104203281D01*
X54991337Y-104204500D01*
X44208663Y-104204500D01*
X44150472Y-104185593D01*
X44138659Y-104175504D01*
X42154725Y-102191570D01*
X42126948Y-102137053D01*
X42136108Y-102077440D01*
X42167853Y-102013689D01*
X42225686Y-101810427D01*
X42245185Y-101600000D01*
X42494815Y-101600000D01*
X42514314Y-101810427D01*
X42572147Y-102013689D01*
X42666344Y-102202862D01*
X42793698Y-102371506D01*
X42949872Y-102513877D01*
X43129547Y-102625128D01*
X43326605Y-102701468D01*
X43534336Y-102740300D01*
X43745664Y-102740300D01*
X43953395Y-102701468D01*
X44150453Y-102625128D01*
X44330128Y-102513877D01*
X44486302Y-102371506D01*
X44613656Y-102202862D01*
X44707853Y-102013689D01*
X44765686Y-101810427D01*
X44785185Y-101600000D01*
X45034815Y-101600000D01*
X45054314Y-101810427D01*
X45112147Y-102013689D01*
X45206344Y-102202862D01*
X45333698Y-102371506D01*
X45489872Y-102513877D01*
X45669547Y-102625128D01*
X45866605Y-102701468D01*
X46074336Y-102740300D01*
X46285664Y-102740300D01*
X46493395Y-102701468D01*
X46690453Y-102625128D01*
X46870128Y-102513877D01*
X47026302Y-102371506D01*
X47153656Y-102202862D01*
X47247853Y-102013689D01*
X47305686Y-101810427D01*
X47325185Y-101600000D01*
X47305686Y-101389573D01*
X47247853Y-101186311D01*
X47153656Y-100997138D01*
X47026302Y-100828494D01*
X46870128Y-100686123D01*
X46780290Y-100630497D01*
X46690458Y-100574875D01*
X46690453Y-100574872D01*
X46505651Y-100503280D01*
X46493395Y-100498532D01*
X46493394Y-100498531D01*
X46493392Y-100498531D01*
X46285664Y-100459700D01*
X46074336Y-100459700D01*
X45866607Y-100498531D01*
X45669546Y-100574872D01*
X45669541Y-100574875D01*
X45489876Y-100686120D01*
X45489874Y-100686121D01*
X45489872Y-100686123D01*
X45460802Y-100712624D01*
X45333699Y-100828493D01*
X45206345Y-100997136D01*
X45206340Y-100997145D01*
X45136098Y-101138210D01*
X45112147Y-101186311D01*
X45054314Y-101389573D01*
X45034815Y-101600000D01*
X44785185Y-101600000D01*
X44765686Y-101389573D01*
X44707853Y-101186311D01*
X44613656Y-100997138D01*
X44486302Y-100828494D01*
X44330128Y-100686123D01*
X44240290Y-100630497D01*
X44150458Y-100574875D01*
X44150453Y-100574872D01*
X43965651Y-100503280D01*
X43953395Y-100498532D01*
X43953394Y-100498531D01*
X43953392Y-100498531D01*
X43745664Y-100459700D01*
X43534336Y-100459700D01*
X43326607Y-100498531D01*
X43129546Y-100574872D01*
X43129541Y-100574875D01*
X42949876Y-100686120D01*
X42949874Y-100686121D01*
X42949872Y-100686123D01*
X42920802Y-100712624D01*
X42793699Y-100828493D01*
X42666345Y-100997136D01*
X42666340Y-100997145D01*
X42596098Y-101138210D01*
X42572147Y-101186311D01*
X42514314Y-101389573D01*
X42494815Y-101600000D01*
X42245185Y-101600000D01*
X42225686Y-101389573D01*
X42167853Y-101186311D01*
X42073656Y-100997138D01*
X41946302Y-100828494D01*
X41790128Y-100686123D01*
X41700290Y-100630497D01*
X41610458Y-100574875D01*
X41610453Y-100574872D01*
X41425651Y-100503280D01*
X41413395Y-100498532D01*
X41413394Y-100498531D01*
X41413392Y-100498531D01*
X41205664Y-100459700D01*
X40994336Y-100459700D01*
X40786607Y-100498531D01*
X40589546Y-100574872D01*
X40589541Y-100574875D01*
X40409876Y-100686120D01*
X40409874Y-100686121D01*
X40409872Y-100686123D01*
X40380802Y-100712624D01*
X40253699Y-100828493D01*
X40126345Y-100997136D01*
X40126340Y-100997145D01*
X40056098Y-101138210D01*
X40032147Y-101186311D01*
X39974314Y-101389573D01*
X39954815Y-101600000D01*
X39200000Y-101600000D01*
X39200000Y-95700001D01*
X39200000Y-95700000D01*
X39199999Y-95700000D01*
X35599000Y-95700000D01*
X35540809Y-95681093D01*
X35504845Y-95631593D01*
X35500000Y-95601000D01*
X35500000Y-93000000D01*
X37879040Y-93000000D01*
X37898827Y-93188261D01*
X37957319Y-93368279D01*
X37957325Y-93368293D01*
X38032515Y-93498525D01*
X38051967Y-93532216D01*
X38178629Y-93672888D01*
X38331770Y-93784151D01*
X38504697Y-93861144D01*
X38689854Y-93900500D01*
X38689857Y-93900500D01*
X38879143Y-93900500D01*
X38879146Y-93900500D01*
X39064303Y-93861144D01*
X39237230Y-93784151D01*
X39390371Y-93672888D01*
X39517033Y-93532216D01*
X39611679Y-93368284D01*
X39670174Y-93188256D01*
X39689960Y-93000000D01*
X42959040Y-93000000D01*
X42978827Y-93188261D01*
X43037319Y-93368279D01*
X43037325Y-93368293D01*
X43112515Y-93498525D01*
X43131967Y-93532216D01*
X43258629Y-93672888D01*
X43411770Y-93784151D01*
X43584697Y-93861144D01*
X43769854Y-93900500D01*
X43769857Y-93900500D01*
X43959143Y-93900500D01*
X43959146Y-93900500D01*
X44144303Y-93861144D01*
X44317230Y-93784151D01*
X44470371Y-93672888D01*
X44597033Y-93532216D01*
X44691679Y-93368284D01*
X44750174Y-93188256D01*
X44769960Y-93000000D01*
X44750174Y-92811744D01*
X44691679Y-92631716D01*
X44691676Y-92631711D01*
X44691674Y-92631706D01*
X44643051Y-92547490D01*
X44597033Y-92467784D01*
X44542749Y-92407496D01*
X44470375Y-92327116D01*
X44470370Y-92327111D01*
X44317231Y-92215850D01*
X44317232Y-92215850D01*
X44317230Y-92215849D01*
X44317225Y-92215847D01*
X44317222Y-92215845D01*
X44144305Y-92138857D01*
X44144303Y-92138856D01*
X44144300Y-92138855D01*
X44144299Y-92138855D01*
X44109080Y-92131369D01*
X43959146Y-92099500D01*
X43769854Y-92099500D01*
X43651789Y-92124595D01*
X43584700Y-92138855D01*
X43584694Y-92138857D01*
X43411777Y-92215845D01*
X43411768Y-92215850D01*
X43258629Y-92327111D01*
X43258624Y-92327116D01*
X43131969Y-92467781D01*
X43131965Y-92467787D01*
X43037325Y-92631706D01*
X43037319Y-92631720D01*
X42978827Y-92811738D01*
X42959040Y-93000000D01*
X39689960Y-93000000D01*
X39670174Y-92811744D01*
X39611679Y-92631716D01*
X39611676Y-92631711D01*
X39611674Y-92631706D01*
X39563051Y-92547490D01*
X39517033Y-92467784D01*
X39462749Y-92407496D01*
X39390375Y-92327116D01*
X39390370Y-92327111D01*
X39237231Y-92215850D01*
X39237232Y-92215850D01*
X39237230Y-92215849D01*
X39237225Y-92215847D01*
X39237222Y-92215845D01*
X39064305Y-92138857D01*
X39064303Y-92138856D01*
X39064300Y-92138855D01*
X39064299Y-92138855D01*
X39029080Y-92131369D01*
X38879146Y-92099500D01*
X38689854Y-92099500D01*
X38571789Y-92124595D01*
X38504700Y-92138855D01*
X38504694Y-92138857D01*
X38331777Y-92215845D01*
X38331768Y-92215850D01*
X38178629Y-92327111D01*
X38178624Y-92327116D01*
X38051969Y-92467781D01*
X38051965Y-92467787D01*
X37957325Y-92631706D01*
X37957319Y-92631720D01*
X37898827Y-92811738D01*
X37879040Y-93000000D01*
X35500000Y-93000000D01*
X35500000Y-91000001D01*
X35500000Y-91000000D01*
X35499999Y-91000000D01*
X32041008Y-91000000D01*
X31982817Y-90981093D01*
X31971004Y-90971004D01*
X30028996Y-89028996D01*
X30001219Y-88974479D01*
X30000000Y-88958992D01*
X30000000Y-50099997D01*
X35994353Y-50099997D01*
X35994353Y-50100002D01*
X36014834Y-50242456D01*
X36068591Y-50360166D01*
X36074623Y-50373373D01*
X36125320Y-50431880D01*
X36149137Y-50488238D01*
X36149500Y-50496710D01*
X36149500Y-88746146D01*
X36162104Y-88793182D01*
X36162105Y-88793186D01*
X36173383Y-88835282D01*
X36173384Y-88835284D01*
X36173385Y-88835287D01*
X36173386Y-88835288D01*
X36219530Y-88915212D01*
X37884788Y-90580470D01*
X37964712Y-90626614D01*
X38053856Y-90650500D01*
X38053857Y-90650500D01*
X38146144Y-90650500D01*
X43313810Y-90650500D01*
X43372001Y-90669407D01*
X43383814Y-90679496D01*
X45320504Y-92616186D01*
X45348281Y-92670703D01*
X45349500Y-92686190D01*
X45349500Y-94946144D01*
X45373386Y-95035288D01*
X45419530Y-95115212D01*
X48340505Y-98036187D01*
X48368281Y-98090702D01*
X48369500Y-98106189D01*
X48369500Y-100445089D01*
X48350593Y-100503280D01*
X48306263Y-100537404D01*
X48209544Y-100574873D01*
X48209538Y-100574876D01*
X48029876Y-100686120D01*
X48029874Y-100686121D01*
X48029872Y-100686123D01*
X48000802Y-100712624D01*
X47873699Y-100828493D01*
X47746345Y-100997136D01*
X47746340Y-100997145D01*
X47676098Y-101138210D01*
X47652147Y-101186311D01*
X47594314Y-101389573D01*
X47574815Y-101600000D01*
X47594314Y-101810427D01*
X47652147Y-102013689D01*
X47746344Y-102202862D01*
X47873698Y-102371506D01*
X48029872Y-102513877D01*
X48209547Y-102625128D01*
X48406605Y-102701468D01*
X48614336Y-102740300D01*
X48825664Y-102740300D01*
X49033395Y-102701468D01*
X49230453Y-102625128D01*
X49410128Y-102513877D01*
X49566302Y-102371506D01*
X49693656Y-102202862D01*
X49736822Y-102116172D01*
X49779683Y-102072512D01*
X49840024Y-102062382D01*
X49894795Y-102089654D01*
X49916104Y-102120534D01*
X49989395Y-102287622D01*
X50119900Y-102487375D01*
X50119903Y-102487378D01*
X50281505Y-102662923D01*
X50281504Y-102662923D01*
X50469801Y-102809481D01*
X50469804Y-102809483D01*
X50679653Y-102923048D01*
X50905336Y-103000525D01*
X51010000Y-103017989D01*
X51010000Y-102042251D01*
X51063919Y-102073381D01*
X51193120Y-102108000D01*
X51326880Y-102108000D01*
X51456081Y-102073381D01*
X51510000Y-102042251D01*
X51510000Y-103017989D01*
X51614663Y-103000525D01*
X51840346Y-102923048D01*
X52050195Y-102809483D01*
X52050198Y-102809481D01*
X52238495Y-102662923D01*
X52400096Y-102487378D01*
X52400099Y-102487375D01*
X52530605Y-102287620D01*
X52603895Y-102120535D01*
X52644585Y-102074840D01*
X52704362Y-102061789D01*
X52760394Y-102086366D01*
X52783178Y-102116174D01*
X52785350Y-102120535D01*
X52826344Y-102202862D01*
X52953698Y-102371506D01*
X53109872Y-102513877D01*
X53289547Y-102625128D01*
X53486605Y-102701468D01*
X53694336Y-102740300D01*
X53905664Y-102740300D01*
X54113395Y-102701468D01*
X54310453Y-102625128D01*
X54490128Y-102513877D01*
X54646302Y-102371506D01*
X54773656Y-102202862D01*
X54867853Y-102013689D01*
X54925686Y-101810427D01*
X54945185Y-101600000D01*
X54925686Y-101389573D01*
X54867853Y-101186311D01*
X54773656Y-100997138D01*
X54646302Y-100828494D01*
X54490128Y-100686123D01*
X54400290Y-100630497D01*
X54310458Y-100574875D01*
X54310453Y-100574872D01*
X54125651Y-100503280D01*
X54113395Y-100498532D01*
X54113394Y-100498531D01*
X54113392Y-100498531D01*
X53905664Y-100459700D01*
X53694336Y-100459700D01*
X53486607Y-100498531D01*
X53289546Y-100574872D01*
X53289541Y-100574875D01*
X53109876Y-100686120D01*
X53109874Y-100686121D01*
X53109872Y-100686123D01*
X53080802Y-100712624D01*
X52953699Y-100828493D01*
X52826345Y-100997136D01*
X52826342Y-100997141D01*
X52783178Y-101083826D01*
X52740314Y-101127488D01*
X52679973Y-101137617D01*
X52625203Y-101110344D01*
X52603895Y-101079464D01*
X52530605Y-100912379D01*
X52400099Y-100712624D01*
X52400096Y-100712621D01*
X52238494Y-100537076D01*
X52238495Y-100537076D01*
X52050198Y-100390518D01*
X52050195Y-100390516D01*
X51840346Y-100276951D01*
X51614657Y-100199473D01*
X51510000Y-100182008D01*
X51510000Y-101157748D01*
X51456081Y-101126619D01*
X51326880Y-101092000D01*
X51193120Y-101092000D01*
X51063919Y-101126619D01*
X51010000Y-101157748D01*
X51010000Y-100182008D01*
X50905342Y-100199473D01*
X50679653Y-100276951D01*
X50469804Y-100390516D01*
X50469801Y-100390518D01*
X50281504Y-100537076D01*
X50119903Y-100712621D01*
X50119900Y-100712624D01*
X49989395Y-100912377D01*
X49916104Y-101079465D01*
X49875414Y-101125159D01*
X49815636Y-101138210D01*
X49759605Y-101113632D01*
X49736821Y-101083825D01*
X49693659Y-100997145D01*
X49693657Y-100997141D01*
X49693656Y-100997138D01*
X49566302Y-100828494D01*
X49410128Y-100686123D01*
X49393704Y-100675953D01*
X49230461Y-100574876D01*
X49230455Y-100574873D01*
X49230453Y-100574872D01*
X49133737Y-100537404D01*
X49086306Y-100498752D01*
X49070500Y-100445089D01*
X49070500Y-97873857D01*
X49070500Y-97873856D01*
X49046614Y-97784712D01*
X49000470Y-97704788D01*
X46079496Y-94783814D01*
X46051719Y-94729297D01*
X46050500Y-94713810D01*
X46050500Y-93000000D01*
X48039040Y-93000000D01*
X48058827Y-93188261D01*
X48117319Y-93368279D01*
X48117325Y-93368293D01*
X48192515Y-93498525D01*
X48211967Y-93532216D01*
X48338629Y-93672888D01*
X48491770Y-93784151D01*
X48664697Y-93861144D01*
X48849854Y-93900500D01*
X48849857Y-93900500D01*
X49039143Y-93900500D01*
X49039146Y-93900500D01*
X49224303Y-93861144D01*
X49397230Y-93784151D01*
X49550371Y-93672888D01*
X49677033Y-93532216D01*
X49771679Y-93368284D01*
X49830174Y-93188256D01*
X49849960Y-93000000D01*
X49830174Y-92811744D01*
X49771679Y-92631716D01*
X49771676Y-92631711D01*
X49771674Y-92631706D01*
X49723051Y-92547490D01*
X49677033Y-92467784D01*
X49622749Y-92407496D01*
X49550375Y-92327116D01*
X49550370Y-92327111D01*
X49485875Y-92280253D01*
X55664000Y-92280253D01*
X55664000Y-93719746D01*
X55664001Y-93719758D01*
X55675632Y-93778227D01*
X55675634Y-93778233D01*
X55719945Y-93844548D01*
X55719948Y-93844552D01*
X55786269Y-93888867D01*
X55830731Y-93897711D01*
X55844741Y-93900498D01*
X55844746Y-93900498D01*
X55844752Y-93900500D01*
X55844753Y-93900500D01*
X57284247Y-93900500D01*
X57284248Y-93900500D01*
X57342731Y-93888867D01*
X57409052Y-93844552D01*
X57453367Y-93778231D01*
X57465000Y-93719748D01*
X57465000Y-92280252D01*
X57453367Y-92221769D01*
X57409052Y-92155448D01*
X57409048Y-92155445D01*
X57342733Y-92111134D01*
X57342731Y-92111133D01*
X57342728Y-92111132D01*
X57342727Y-92111132D01*
X57284258Y-92099501D01*
X57284248Y-92099500D01*
X55844752Y-92099500D01*
X55844751Y-92099500D01*
X55844741Y-92099501D01*
X55786272Y-92111132D01*
X55786266Y-92111134D01*
X55719951Y-92155445D01*
X55719945Y-92155451D01*
X55675634Y-92221766D01*
X55675632Y-92221772D01*
X55664001Y-92280241D01*
X55664000Y-92280253D01*
X49485875Y-92280253D01*
X49397231Y-92215850D01*
X49397232Y-92215850D01*
X49397230Y-92215849D01*
X49397225Y-92215847D01*
X49397222Y-92215845D01*
X49224305Y-92138857D01*
X49224303Y-92138856D01*
X49224300Y-92138855D01*
X49224299Y-92138855D01*
X49189080Y-92131369D01*
X49039146Y-92099500D01*
X48849854Y-92099500D01*
X48731789Y-92124595D01*
X48664700Y-92138855D01*
X48664694Y-92138857D01*
X48491777Y-92215845D01*
X48491768Y-92215850D01*
X48338629Y-92327111D01*
X48338624Y-92327116D01*
X48211969Y-92467781D01*
X48211965Y-92467787D01*
X48117325Y-92631706D01*
X48117319Y-92631720D01*
X48058827Y-92811738D01*
X48039040Y-93000000D01*
X46050500Y-93000000D01*
X46050500Y-92453857D01*
X46050500Y-92453856D01*
X46026614Y-92364712D01*
X45980470Y-92284788D01*
X44795679Y-91099997D01*
X46494353Y-91099997D01*
X46494353Y-91100002D01*
X46514834Y-91242456D01*
X46514836Y-91242460D01*
X46574623Y-91373373D01*
X46668872Y-91482143D01*
X46668873Y-91482144D01*
X46789942Y-91559950D01*
X46789947Y-91559953D01*
X46896403Y-91591211D01*
X46928035Y-91600499D01*
X46928036Y-91600499D01*
X46928039Y-91600500D01*
X46928041Y-91600500D01*
X47071959Y-91600500D01*
X47071961Y-91600500D01*
X47210053Y-91559953D01*
X47331128Y-91482143D01*
X47425377Y-91373373D01*
X47485165Y-91242457D01*
X47485166Y-91242449D01*
X47487160Y-91235662D01*
X47489068Y-91236222D01*
X47511802Y-91189960D01*
X47512744Y-91189002D01*
X53321747Y-85380000D01*
X55659040Y-85380000D01*
X55678827Y-85568261D01*
X55737319Y-85748279D01*
X55737325Y-85748293D01*
X55800021Y-85856884D01*
X55831967Y-85912216D01*
X55958629Y-86052888D01*
X56111770Y-86164151D01*
X56284697Y-86241144D01*
X56469854Y-86280500D01*
X56469857Y-86280500D01*
X56659143Y-86280500D01*
X56659146Y-86280500D01*
X56844303Y-86241144D01*
X57017230Y-86164151D01*
X57170371Y-86052888D01*
X57297033Y-85912216D01*
X57391679Y-85748284D01*
X57450174Y-85568256D01*
X57469960Y-85380000D01*
X57450174Y-85191744D01*
X57391679Y-85011716D01*
X57391676Y-85011711D01*
X57391674Y-85011706D01*
X57343051Y-84927490D01*
X57297033Y-84847784D01*
X57170371Y-84707112D01*
X57017230Y-84595849D01*
X57017225Y-84595847D01*
X57017222Y-84595845D01*
X56844305Y-84518857D01*
X56844303Y-84518856D01*
X56844300Y-84518855D01*
X56844299Y-84518855D01*
X56809080Y-84511369D01*
X56659146Y-84479500D01*
X56469854Y-84479500D01*
X56351789Y-84504595D01*
X56284700Y-84518855D01*
X56284694Y-84518857D01*
X56111777Y-84595845D01*
X56111768Y-84595850D01*
X55958629Y-84707111D01*
X55958624Y-84707116D01*
X55831969Y-84847781D01*
X55831965Y-84847787D01*
X55737325Y-85011706D01*
X55737319Y-85011720D01*
X55678827Y-85191738D01*
X55659040Y-85380000D01*
X53321747Y-85380000D01*
X57040485Y-81661263D01*
X57096503Y-81564237D01*
X57125500Y-81456018D01*
X57125500Y-81343981D01*
X57125500Y-77017255D01*
X57144407Y-76959064D01*
X57154490Y-76947257D01*
X62240485Y-71861263D01*
X62296503Y-71764237D01*
X62325500Y-71656018D01*
X62325500Y-71543981D01*
X62325500Y-70294639D01*
X62334447Y-70253512D01*
X62367040Y-70182144D01*
X62385165Y-70142457D01*
X62405647Y-70000000D01*
X62401834Y-69973482D01*
X62385165Y-69857543D01*
X62381098Y-69848638D01*
X62325377Y-69726627D01*
X62231128Y-69617857D01*
X62231127Y-69617856D01*
X62231126Y-69617855D01*
X62110057Y-69540049D01*
X62110054Y-69540047D01*
X62110053Y-69540047D01*
X62110050Y-69540046D01*
X61971964Y-69499500D01*
X61971961Y-69499500D01*
X61828039Y-69499500D01*
X61828035Y-69499500D01*
X61689949Y-69540046D01*
X61689942Y-69540049D01*
X61568873Y-69617855D01*
X61474622Y-69726628D01*
X61414834Y-69857543D01*
X61394353Y-69999997D01*
X61394353Y-70000002D01*
X61414834Y-70142456D01*
X61465553Y-70253512D01*
X61474500Y-70294639D01*
X61474500Y-71382744D01*
X61455593Y-71440935D01*
X61445504Y-71452748D01*
X56438737Y-76459515D01*
X56438736Y-76459514D01*
X56359514Y-76538737D01*
X56303498Y-76635758D01*
X56274500Y-76743983D01*
X56274500Y-81182743D01*
X56255593Y-81240934D01*
X56245504Y-81252747D01*
X46904444Y-90593806D01*
X46862333Y-90618791D01*
X46789949Y-90640045D01*
X46789947Y-90640046D01*
X46668873Y-90717855D01*
X46574622Y-90826628D01*
X46514834Y-90957543D01*
X46494353Y-91099997D01*
X44795679Y-91099997D01*
X43715212Y-90019530D01*
X43635288Y-89973386D01*
X43546144Y-89949500D01*
X43546142Y-89949500D01*
X38286190Y-89949500D01*
X38227999Y-89930593D01*
X38216186Y-89920504D01*
X36879496Y-88583814D01*
X36851719Y-88529297D01*
X36850500Y-88513810D01*
X36850500Y-87152662D01*
X36869407Y-87094471D01*
X36918907Y-87058507D01*
X36980093Y-87058507D01*
X37019501Y-87082656D01*
X38465358Y-88528513D01*
X38493134Y-88583028D01*
X38494353Y-88598515D01*
X38494353Y-88600002D01*
X38514834Y-88742456D01*
X38574622Y-88873371D01*
X38574623Y-88873373D01*
X38622685Y-88928840D01*
X38668873Y-88982144D01*
X38789942Y-89059950D01*
X38789947Y-89059953D01*
X38896403Y-89091211D01*
X38928035Y-89100499D01*
X38928036Y-89100499D01*
X38928039Y-89100500D01*
X38928041Y-89100500D01*
X39071959Y-89100500D01*
X39071961Y-89100500D01*
X39210053Y-89059953D01*
X39331128Y-88982143D01*
X39425377Y-88873373D01*
X39485165Y-88742457D01*
X39505647Y-88600000D01*
X39505433Y-88598515D01*
X39485165Y-88457543D01*
X39441561Y-88362065D01*
X39425377Y-88326627D01*
X39331128Y-88217857D01*
X39331127Y-88217856D01*
X39331126Y-88217855D01*
X39210057Y-88140049D01*
X39210054Y-88140047D01*
X39210053Y-88140047D01*
X39210050Y-88140046D01*
X39071964Y-88099500D01*
X39071961Y-88099500D01*
X39003663Y-88099500D01*
X38945472Y-88080593D01*
X38933659Y-88070504D01*
X37556496Y-86693341D01*
X37528719Y-86638824D01*
X37527500Y-86623337D01*
X37527500Y-85380000D01*
X37879040Y-85380000D01*
X37898827Y-85568261D01*
X37957319Y-85748279D01*
X37957325Y-85748293D01*
X38020021Y-85856884D01*
X38051967Y-85912216D01*
X38178629Y-86052888D01*
X38331770Y-86164151D01*
X38504697Y-86241144D01*
X38689854Y-86280500D01*
X38689857Y-86280500D01*
X38879143Y-86280500D01*
X38879146Y-86280500D01*
X39064303Y-86241144D01*
X39237230Y-86164151D01*
X39390371Y-86052888D01*
X39517033Y-85912216D01*
X39611679Y-85748284D01*
X39670174Y-85568256D01*
X39689960Y-85380000D01*
X42959040Y-85380000D01*
X42978827Y-85568261D01*
X43037319Y-85748279D01*
X43037325Y-85748293D01*
X43100021Y-85856884D01*
X43131967Y-85912216D01*
X43258629Y-86052888D01*
X43411770Y-86164151D01*
X43584697Y-86241144D01*
X43769854Y-86280500D01*
X43769857Y-86280500D01*
X43959143Y-86280500D01*
X43959146Y-86280500D01*
X44144303Y-86241144D01*
X44317230Y-86164151D01*
X44470371Y-86052888D01*
X44597033Y-85912216D01*
X44691679Y-85748284D01*
X44750174Y-85568256D01*
X44769960Y-85380000D01*
X48039040Y-85380000D01*
X48058827Y-85568261D01*
X48117319Y-85748279D01*
X48117325Y-85748293D01*
X48180021Y-85856884D01*
X48211967Y-85912216D01*
X48338629Y-86052888D01*
X48491770Y-86164151D01*
X48664697Y-86241144D01*
X48849854Y-86280500D01*
X48849857Y-86280500D01*
X49039143Y-86280500D01*
X49039146Y-86280500D01*
X49224303Y-86241144D01*
X49397230Y-86164151D01*
X49550371Y-86052888D01*
X49677033Y-85912216D01*
X49771679Y-85748284D01*
X49830174Y-85568256D01*
X49849960Y-85380000D01*
X49830174Y-85191744D01*
X49771679Y-85011716D01*
X49771676Y-85011711D01*
X49771674Y-85011706D01*
X49723051Y-84927490D01*
X49677033Y-84847784D01*
X49550371Y-84707112D01*
X49397230Y-84595849D01*
X49397225Y-84595847D01*
X49397222Y-84595845D01*
X49224305Y-84518857D01*
X49224303Y-84518856D01*
X49224300Y-84518855D01*
X49224299Y-84518855D01*
X49189080Y-84511369D01*
X49039146Y-84479500D01*
X48849854Y-84479500D01*
X48731789Y-84504595D01*
X48664700Y-84518855D01*
X48664694Y-84518857D01*
X48491777Y-84595845D01*
X48491768Y-84595850D01*
X48338629Y-84707111D01*
X48338624Y-84707116D01*
X48211969Y-84847781D01*
X48211965Y-84847787D01*
X48117325Y-85011706D01*
X48117319Y-85011720D01*
X48058827Y-85191738D01*
X48039040Y-85380000D01*
X44769960Y-85380000D01*
X44750174Y-85191744D01*
X44691679Y-85011716D01*
X44691676Y-85011711D01*
X44691674Y-85011706D01*
X44643051Y-84927490D01*
X44597033Y-84847784D01*
X44470371Y-84707112D01*
X44317230Y-84595849D01*
X44317225Y-84595847D01*
X44317222Y-84595845D01*
X44144305Y-84518857D01*
X44144303Y-84518856D01*
X44144300Y-84518855D01*
X44144299Y-84518855D01*
X44109080Y-84511369D01*
X43959146Y-84479500D01*
X43769854Y-84479500D01*
X43651789Y-84504595D01*
X43584700Y-84518855D01*
X43584694Y-84518857D01*
X43411777Y-84595845D01*
X43411768Y-84595850D01*
X43258629Y-84707111D01*
X43258624Y-84707116D01*
X43131969Y-84847781D01*
X43131965Y-84847787D01*
X43037325Y-85011706D01*
X43037319Y-85011720D01*
X42978827Y-85191738D01*
X42959040Y-85380000D01*
X39689960Y-85380000D01*
X39670174Y-85191744D01*
X39611679Y-85011716D01*
X39611676Y-85011711D01*
X39611674Y-85011706D01*
X39563051Y-84927490D01*
X39517033Y-84847784D01*
X39390371Y-84707112D01*
X39237230Y-84595849D01*
X39237225Y-84595847D01*
X39237222Y-84595845D01*
X39064305Y-84518857D01*
X39064303Y-84518856D01*
X39064300Y-84518855D01*
X39064299Y-84518855D01*
X39029080Y-84511369D01*
X38879146Y-84479500D01*
X38689854Y-84479500D01*
X38571789Y-84504595D01*
X38504700Y-84518855D01*
X38504694Y-84518857D01*
X38331777Y-84595845D01*
X38331768Y-84595850D01*
X38178629Y-84707111D01*
X38178624Y-84707116D01*
X38051969Y-84847781D01*
X38051965Y-84847787D01*
X37957325Y-85011706D01*
X37957319Y-85011720D01*
X37898827Y-85191738D01*
X37879040Y-85380000D01*
X37527500Y-85380000D01*
X37527500Y-83036859D01*
X37546407Y-82978668D01*
X37595907Y-82942704D01*
X37657093Y-82942704D01*
X37680021Y-82953574D01*
X37689947Y-82959953D01*
X37796403Y-82991211D01*
X37828035Y-83000499D01*
X37828036Y-83000499D01*
X37828039Y-83000500D01*
X37828041Y-83000500D01*
X37971959Y-83000500D01*
X37971961Y-83000500D01*
X38110053Y-82959953D01*
X38231128Y-82882143D01*
X38325377Y-82773373D01*
X38385165Y-82642457D01*
X38391992Y-82594971D01*
X38405647Y-82500002D01*
X38405647Y-82499997D01*
X38385166Y-82357547D01*
X38385164Y-82357539D01*
X38336447Y-82250865D01*
X38327500Y-82209739D01*
X38327500Y-77723254D01*
X38346407Y-77665063D01*
X38351681Y-77658423D01*
X38425377Y-77573373D01*
X38485165Y-77442457D01*
X38505647Y-77300000D01*
X38485165Y-77157543D01*
X38425377Y-77026627D01*
X38381724Y-76976248D01*
X38351680Y-76941574D01*
X38327863Y-76885215D01*
X38327500Y-76876744D01*
X38327500Y-51599997D01*
X38594353Y-51599997D01*
X38594353Y-51600002D01*
X38614834Y-51742456D01*
X38674623Y-51873373D01*
X38748319Y-51958423D01*
X38772137Y-52014782D01*
X38772500Y-52023254D01*
X38772500Y-83176744D01*
X38753593Y-83234935D01*
X38748320Y-83241574D01*
X38674623Y-83326626D01*
X38614834Y-83457543D01*
X38594353Y-83599997D01*
X38594353Y-83600002D01*
X38614834Y-83742456D01*
X38674622Y-83873371D01*
X38674623Y-83873373D01*
X38768872Y-83982143D01*
X38768873Y-83982144D01*
X38889942Y-84059950D01*
X38889947Y-84059953D01*
X38996403Y-84091211D01*
X39028035Y-84100499D01*
X39028036Y-84100499D01*
X39028039Y-84100500D01*
X39028041Y-84100500D01*
X39171959Y-84100500D01*
X39171961Y-84100500D01*
X39310053Y-84059953D01*
X39431128Y-83982143D01*
X39525377Y-83873373D01*
X39585165Y-83742457D01*
X39605647Y-83600000D01*
X39585165Y-83457543D01*
X39525377Y-83326627D01*
X39518336Y-83318502D01*
X39451680Y-83241574D01*
X39427863Y-83185215D01*
X39427500Y-83176744D01*
X39427500Y-75217738D01*
X39693824Y-75217738D01*
X39693824Y-75782261D01*
X39734097Y-76345357D01*
X39814433Y-76904102D01*
X39814436Y-76904119D01*
X39814437Y-76904126D01*
X39814438Y-76904129D01*
X39934436Y-77455753D01*
X39934437Y-77455757D01*
X40093483Y-77997419D01*
X40290768Y-78526358D01*
X40290769Y-78526362D01*
X40525273Y-79039850D01*
X40795828Y-79535335D01*
X40795829Y-79535337D01*
X41101025Y-80010230D01*
X41101030Y-80010238D01*
X41439343Y-80462169D01*
X41439351Y-80462179D01*
X41809004Y-80888780D01*
X41809013Y-80888790D01*
X41809021Y-80888799D01*
X42208201Y-81287979D01*
X42208207Y-81287984D01*
X42208219Y-81287995D01*
X42634820Y-81657648D01*
X42634830Y-81657656D01*
X42634835Y-81657660D01*
X42634840Y-81657664D01*
X42639644Y-81661260D01*
X43086761Y-81995969D01*
X43086769Y-81995974D01*
X43561662Y-82301170D01*
X43561664Y-82301171D01*
X44057149Y-82571726D01*
X44570637Y-82806230D01*
X44570641Y-82806231D01*
X44570644Y-82806232D01*
X44570657Y-82806238D01*
X44963715Y-82952840D01*
X45099580Y-83003516D01*
X45099584Y-83003517D01*
X45099589Y-83003519D01*
X45641247Y-83162564D01*
X46192871Y-83282562D01*
X46192888Y-83282564D01*
X46192897Y-83282566D01*
X46751642Y-83362902D01*
X46751644Y-83362902D01*
X46751650Y-83362903D01*
X47314737Y-83403176D01*
X47879262Y-83403176D01*
X47879263Y-83403176D01*
X48442350Y-83362903D01*
X48694660Y-83326626D01*
X49001102Y-83282566D01*
X49001105Y-83282565D01*
X49001129Y-83282562D01*
X49552753Y-83162564D01*
X50094411Y-83003519D01*
X50623343Y-82806238D01*
X50623358Y-82806230D01*
X50623362Y-82806230D01*
X50981974Y-82642456D01*
X51136853Y-82571725D01*
X51632325Y-82301177D01*
X51632330Y-82301173D01*
X51632335Y-82301171D01*
X51632337Y-82301170D01*
X51895939Y-82131762D01*
X52107234Y-81995972D01*
X52559160Y-81657664D01*
X52559172Y-81657653D01*
X52559179Y-81657648D01*
X52791874Y-81456016D01*
X52985799Y-81287979D01*
X53384979Y-80888799D01*
X53754664Y-80462160D01*
X54092972Y-80010234D01*
X54228762Y-79798939D01*
X54398170Y-79535337D01*
X54398171Y-79535335D01*
X54398173Y-79535330D01*
X54398177Y-79535325D01*
X54668725Y-79039853D01*
X54751602Y-78858376D01*
X54903230Y-78526362D01*
X54903231Y-78526358D01*
X54903238Y-78526343D01*
X55100519Y-77997411D01*
X55259564Y-77455753D01*
X55379562Y-76904129D01*
X55382282Y-76885215D01*
X55459902Y-76345357D01*
X55459903Y-76345350D01*
X55500176Y-75782263D01*
X55502694Y-75500000D01*
X55500176Y-75217737D01*
X55459903Y-74654650D01*
X55426094Y-74419507D01*
X55379566Y-74095897D01*
X55379563Y-74095880D01*
X55379562Y-74095871D01*
X55259564Y-73544247D01*
X55100519Y-73002589D01*
X54903238Y-72473657D01*
X54903231Y-72473641D01*
X54903230Y-72473637D01*
X54668726Y-71960149D01*
X54398171Y-71464664D01*
X54398170Y-71464662D01*
X54092974Y-70989769D01*
X54092969Y-70989761D01*
X53882785Y-70708989D01*
X53754664Y-70537840D01*
X53754660Y-70537835D01*
X53754656Y-70537830D01*
X53754648Y-70537820D01*
X53384995Y-70111219D01*
X53384984Y-70111207D01*
X53384979Y-70111201D01*
X52985799Y-69712021D01*
X52985790Y-69712013D01*
X52985780Y-69712004D01*
X52559179Y-69342351D01*
X52559169Y-69342343D01*
X52107238Y-69004030D01*
X52107230Y-69004025D01*
X51632337Y-68698829D01*
X51632335Y-68698828D01*
X51136850Y-68428273D01*
X50623362Y-68193769D01*
X50623358Y-68193768D01*
X50623347Y-68193764D01*
X50623343Y-68193762D01*
X50469032Y-68136207D01*
X50094419Y-67996483D01*
X49552757Y-67837437D01*
X49552754Y-67837436D01*
X49552753Y-67837436D01*
X49001129Y-67717438D01*
X49001126Y-67717437D01*
X49001119Y-67717436D01*
X49001102Y-67717433D01*
X48442357Y-67637097D01*
X47949648Y-67601858D01*
X47879263Y-67596824D01*
X47879262Y-67596824D01*
X47314738Y-67596824D01*
X47314737Y-67596824D01*
X47252171Y-67601298D01*
X46751642Y-67637097D01*
X46192897Y-67717433D01*
X46192880Y-67717436D01*
X45641242Y-67837437D01*
X45099580Y-67996483D01*
X44570641Y-68193768D01*
X44570637Y-68193769D01*
X44057149Y-68428273D01*
X43561664Y-68698828D01*
X43561662Y-68698829D01*
X43086769Y-69004025D01*
X43086761Y-69004030D01*
X42634830Y-69342343D01*
X42634820Y-69342351D01*
X42208219Y-69712004D01*
X42208207Y-69712015D01*
X41809015Y-70111207D01*
X41809004Y-70111219D01*
X41439351Y-70537820D01*
X41439343Y-70537830D01*
X41101030Y-70989761D01*
X41101025Y-70989769D01*
X40795829Y-71464662D01*
X40795828Y-71464664D01*
X40525273Y-71960149D01*
X40290769Y-72473637D01*
X40290768Y-72473641D01*
X40093483Y-73002580D01*
X39934437Y-73544242D01*
X39814436Y-74095880D01*
X39814433Y-74095897D01*
X39734097Y-74654642D01*
X39693824Y-75217738D01*
X39427500Y-75217738D01*
X39427500Y-70272593D01*
X39446407Y-70214402D01*
X39495907Y-70178438D01*
X39557093Y-70178438D01*
X39580018Y-70189306D01*
X39689947Y-70259953D01*
X39796403Y-70291211D01*
X39828035Y-70300499D01*
X39828036Y-70300499D01*
X39828039Y-70300500D01*
X39828041Y-70300500D01*
X39971959Y-70300500D01*
X39971961Y-70300500D01*
X40110053Y-70259953D01*
X40231128Y-70182143D01*
X40325377Y-70073373D01*
X40385165Y-69942457D01*
X40397374Y-69857543D01*
X40405647Y-69800002D01*
X40405647Y-69799997D01*
X40385165Y-69657543D01*
X40361873Y-69606542D01*
X40325377Y-69526627D01*
X40301872Y-69499500D01*
X40251680Y-69441574D01*
X40227863Y-69385215D01*
X40227500Y-69376744D01*
X40227500Y-65951362D01*
X54694500Y-65951362D01*
X54694500Y-69848656D01*
X54695677Y-69870594D01*
X54695678Y-69870603D01*
X54698511Y-69896961D01*
X54698512Y-69896966D01*
X54722469Y-69973479D01*
X54722471Y-69973482D01*
X54755956Y-70034805D01*
X54784829Y-70073373D01*
X54791010Y-70081630D01*
X55418376Y-70708996D01*
X55434722Y-70723679D01*
X55434738Y-70723693D01*
X55455380Y-70740327D01*
X55526425Y-70777490D01*
X55526426Y-70777490D01*
X55526428Y-70777491D01*
X55526561Y-70777530D01*
X55593464Y-70797175D01*
X55651362Y-70805500D01*
X55651363Y-70805500D01*
X57948620Y-70805500D01*
X57948638Y-70805500D01*
X57970607Y-70804322D01*
X57996965Y-70801488D01*
X58073482Y-70777529D01*
X58134805Y-70744044D01*
X58181629Y-70708991D01*
X59108991Y-69781629D01*
X59123693Y-69765262D01*
X59140327Y-69744620D01*
X59177490Y-69673575D01*
X59197175Y-69606536D01*
X59205500Y-69548638D01*
X59205500Y-66151362D01*
X59204322Y-66129393D01*
X59201488Y-66103035D01*
X59177529Y-66026518D01*
X59144044Y-65965195D01*
X59108991Y-65918371D01*
X57956741Y-64766121D01*
X57916290Y-64734697D01*
X57916287Y-64734695D01*
X57916283Y-64734692D01*
X57863546Y-64703403D01*
X57863541Y-64703400D01*
X57834677Y-64690837D01*
X57816580Y-64682960D01*
X57804912Y-64679533D01*
X57789848Y-64675110D01*
X57764220Y-64663405D01*
X57716804Y-64632933D01*
X57695508Y-64614481D01*
X57658597Y-64571884D01*
X57643363Y-64548179D01*
X57614342Y-64484633D01*
X57605460Y-64447036D01*
X57604977Y-64433490D01*
X57603715Y-64415841D01*
X57603150Y-64410585D01*
X57603150Y-64389407D01*
X57603713Y-64384169D01*
X57604976Y-64366511D01*
X57605500Y-64351851D01*
X57605500Y-62351380D01*
X57605499Y-62351343D01*
X57605465Y-62350720D01*
X57604322Y-62329393D01*
X57601488Y-62303035D01*
X57577529Y-62226518D01*
X57544044Y-62165195D01*
X57508991Y-62118371D01*
X57481629Y-62091009D01*
X57481623Y-62091003D01*
X57465277Y-62076320D01*
X57465270Y-62076314D01*
X57465262Y-62076307D01*
X57444620Y-62059673D01*
X57444619Y-62059672D01*
X57373576Y-62022510D01*
X57373571Y-62022508D01*
X57306542Y-62002826D01*
X57306533Y-62002824D01*
X57260322Y-61996180D01*
X57248638Y-61994500D01*
X56751362Y-61994500D01*
X56751343Y-61994500D01*
X56729405Y-61995677D01*
X56729398Y-61995677D01*
X56729393Y-61995678D01*
X56720894Y-61996591D01*
X56703038Y-61998511D01*
X56703033Y-61998512D01*
X56626520Y-62022469D01*
X56565193Y-62055957D01*
X56518369Y-62091010D01*
X56491003Y-62118376D01*
X56476320Y-62134722D01*
X56476301Y-62134745D01*
X56459672Y-62155380D01*
X56422510Y-62226423D01*
X56422508Y-62226428D01*
X56402826Y-62293457D01*
X56402824Y-62293466D01*
X56394500Y-62351362D01*
X56394500Y-64073872D01*
X56375593Y-64132063D01*
X56365504Y-64143876D01*
X54791003Y-65718376D01*
X54776320Y-65734722D01*
X54776301Y-65734745D01*
X54759672Y-65755380D01*
X54722510Y-65826423D01*
X54722508Y-65826428D01*
X54702826Y-65893457D01*
X54702824Y-65893466D01*
X54694500Y-65951362D01*
X40227500Y-65951362D01*
X40227500Y-59999997D01*
X54394353Y-59999997D01*
X54394353Y-60000002D01*
X54414834Y-60142456D01*
X54414836Y-60142460D01*
X54474623Y-60273373D01*
X54568872Y-60382143D01*
X54568873Y-60382144D01*
X54689942Y-60459950D01*
X54689947Y-60459953D01*
X54796403Y-60491211D01*
X54828035Y-60500499D01*
X54828036Y-60500499D01*
X54828039Y-60500500D01*
X54828041Y-60500500D01*
X54971959Y-60500500D01*
X54971961Y-60500500D01*
X55110053Y-60459953D01*
X55231128Y-60382143D01*
X55325377Y-60273373D01*
X55385165Y-60142457D01*
X55385166Y-60142449D01*
X55387160Y-60135662D01*
X55389064Y-60136221D01*
X55411815Y-60089946D01*
X55412810Y-60088937D01*
X55747252Y-59754496D01*
X55801768Y-59726719D01*
X55817255Y-59725500D01*
X58807268Y-59725500D01*
X58860791Y-59741216D01*
X58889942Y-59759950D01*
X58889947Y-59759953D01*
X58996403Y-59791211D01*
X59028035Y-59800499D01*
X59028036Y-59800499D01*
X59028039Y-59800500D01*
X59028041Y-59800500D01*
X59171959Y-59800500D01*
X59171961Y-59800500D01*
X59310053Y-59759953D01*
X59431128Y-59682143D01*
X59525377Y-59573373D01*
X59585165Y-59442457D01*
X59605647Y-59300000D01*
X59585165Y-59157543D01*
X59525377Y-59026627D01*
X59431128Y-58917857D01*
X59431127Y-58917856D01*
X59431126Y-58917855D01*
X59310057Y-58840049D01*
X59310054Y-58840047D01*
X59310053Y-58840047D01*
X59310050Y-58840046D01*
X59171964Y-58799500D01*
X59171961Y-58799500D01*
X59028039Y-58799500D01*
X59028035Y-58799500D01*
X58889949Y-58840046D01*
X58889942Y-58840049D01*
X58860791Y-58858784D01*
X58807268Y-58874500D01*
X55656018Y-58874500D01*
X55543981Y-58874500D01*
X55485086Y-58890281D01*
X55485085Y-58890280D01*
X55435763Y-58903496D01*
X55435759Y-58903498D01*
X55338735Y-58959515D01*
X55338728Y-58959523D01*
X54804443Y-59493806D01*
X54762333Y-59518791D01*
X54689949Y-59540045D01*
X54689947Y-59540046D01*
X54568873Y-59617855D01*
X54474622Y-59726628D01*
X54414834Y-59857543D01*
X54394353Y-59999997D01*
X40227500Y-59999997D01*
X40227500Y-55876663D01*
X40246407Y-55818472D01*
X40256496Y-55806659D01*
X40306659Y-55756496D01*
X40361176Y-55728719D01*
X40376663Y-55727500D01*
X56743117Y-55727500D01*
X56743117Y-55727499D01*
X56826406Y-55705182D01*
X56826407Y-55705182D01*
X56826407Y-55705181D01*
X56826410Y-55705181D01*
X56901090Y-55662065D01*
X57733659Y-54829496D01*
X57788176Y-54801719D01*
X57803663Y-54800500D01*
X57871959Y-54800500D01*
X57871961Y-54800500D01*
X58010053Y-54759953D01*
X58131128Y-54682143D01*
X58225377Y-54573373D01*
X58285165Y-54442457D01*
X58300306Y-54337150D01*
X58305647Y-54300002D01*
X58305647Y-54299997D01*
X58285165Y-54157543D01*
X58252285Y-54085547D01*
X58225377Y-54026627D01*
X58131128Y-53917857D01*
X58131127Y-53917856D01*
X58131126Y-53917855D01*
X58010057Y-53840049D01*
X58010054Y-53840047D01*
X58010053Y-53840047D01*
X58010050Y-53840046D01*
X57871964Y-53799500D01*
X57871961Y-53799500D01*
X57728039Y-53799500D01*
X57728035Y-53799500D01*
X57589949Y-53840046D01*
X57589942Y-53840049D01*
X57468873Y-53917855D01*
X57374622Y-54026628D01*
X57314834Y-54157543D01*
X57294353Y-54299997D01*
X57294353Y-54301483D01*
X57293969Y-54302662D01*
X57293345Y-54307008D01*
X57292592Y-54306899D01*
X57275446Y-54359674D01*
X57265357Y-54371487D01*
X56593341Y-55043504D01*
X56538824Y-55071281D01*
X56523337Y-55072500D01*
X40156881Y-55072500D01*
X40073593Y-55094817D01*
X40073592Y-55094817D01*
X39998907Y-55137937D01*
X39637937Y-55498907D01*
X39637935Y-55498909D01*
X39637935Y-55498910D01*
X39612235Y-55543423D01*
X39566767Y-55584363D01*
X39505917Y-55590759D01*
X39452929Y-55560166D01*
X39428042Y-55504271D01*
X39427500Y-55493922D01*
X39427500Y-52023254D01*
X39446407Y-51965063D01*
X39451681Y-51958423D01*
X39487599Y-51916971D01*
X39502307Y-51899997D01*
X50214353Y-51899997D01*
X50214353Y-51900002D01*
X50234834Y-52042456D01*
X50294622Y-52173371D01*
X50294623Y-52173373D01*
X50388872Y-52282143D01*
X50388873Y-52282144D01*
X50509942Y-52359950D01*
X50509947Y-52359953D01*
X50616403Y-52391211D01*
X50648035Y-52400499D01*
X50648036Y-52400499D01*
X50648039Y-52400500D01*
X50716337Y-52400500D01*
X50774528Y-52419407D01*
X50786341Y-52429496D01*
X52357935Y-54001090D01*
X52357934Y-54001090D01*
X52394780Y-54037935D01*
X52418910Y-54062065D01*
X52493590Y-54105181D01*
X52493592Y-54105181D01*
X52493593Y-54105182D01*
X52535237Y-54116340D01*
X52576881Y-54127499D01*
X52576883Y-54127500D01*
X52576884Y-54127500D01*
X53050337Y-54127500D01*
X53108528Y-54146407D01*
X53120341Y-54156496D01*
X53165357Y-54201512D01*
X53193134Y-54256029D01*
X53194353Y-54271516D01*
X53194353Y-54273002D01*
X53214834Y-54415456D01*
X53274622Y-54546371D01*
X53274623Y-54546373D01*
X53368872Y-54655143D01*
X53368873Y-54655144D01*
X53410886Y-54682144D01*
X53489947Y-54732953D01*
X53581902Y-54759953D01*
X53628035Y-54773499D01*
X53628036Y-54773499D01*
X53628039Y-54773500D01*
X53628041Y-54773500D01*
X53771959Y-54773500D01*
X53771961Y-54773500D01*
X53910053Y-54732953D01*
X54031128Y-54655143D01*
X54125377Y-54546373D01*
X54185165Y-54415457D01*
X54196424Y-54337150D01*
X54205647Y-54273002D01*
X54205647Y-54272997D01*
X54185165Y-54130543D01*
X54173582Y-54105181D01*
X54125377Y-53999627D01*
X54031128Y-53890857D01*
X54031127Y-53890856D01*
X54031126Y-53890855D01*
X53910057Y-53813049D01*
X53910054Y-53813047D01*
X53910053Y-53813047D01*
X53910050Y-53813046D01*
X53771964Y-53772500D01*
X53771961Y-53772500D01*
X53703663Y-53772500D01*
X53645472Y-53753593D01*
X53633660Y-53743504D01*
X53428092Y-53537937D01*
X53428090Y-53537935D01*
X53353410Y-53494819D01*
X53353408Y-53494818D01*
X53353406Y-53494817D01*
X53270118Y-53472500D01*
X53270116Y-53472500D01*
X52796663Y-53472500D01*
X52738472Y-53453593D01*
X52726659Y-53443504D01*
X51254643Y-51971488D01*
X51226866Y-51916971D01*
X51225647Y-51901484D01*
X51225647Y-51899997D01*
X51205165Y-51757543D01*
X51145377Y-51626628D01*
X51145377Y-51626627D01*
X51051128Y-51517857D01*
X51051127Y-51517856D01*
X51051126Y-51517855D01*
X50930057Y-51440049D01*
X50930054Y-51440047D01*
X50930053Y-51440047D01*
X50930050Y-51440046D01*
X50791964Y-51399500D01*
X50791961Y-51399500D01*
X50648039Y-51399500D01*
X50648035Y-51399500D01*
X50509949Y-51440046D01*
X50509942Y-51440049D01*
X50388873Y-51517855D01*
X50294622Y-51626628D01*
X50234834Y-51757543D01*
X50214353Y-51899997D01*
X39502307Y-51899997D01*
X39525377Y-51873373D01*
X39585165Y-51742457D01*
X39605647Y-51600000D01*
X39593836Y-51517855D01*
X39585165Y-51457543D01*
X39525377Y-51326628D01*
X39525377Y-51326627D01*
X39431128Y-51217857D01*
X39431127Y-51217856D01*
X39431126Y-51217855D01*
X39310057Y-51140049D01*
X39310054Y-51140047D01*
X39310053Y-51140047D01*
X39310050Y-51140046D01*
X39171964Y-51099500D01*
X39171961Y-51099500D01*
X39028039Y-51099500D01*
X39028035Y-51099500D01*
X38889949Y-51140046D01*
X38889942Y-51140049D01*
X38768873Y-51217855D01*
X38674622Y-51326628D01*
X38614834Y-51457543D01*
X38594353Y-51599997D01*
X38327500Y-51599997D01*
X38327500Y-50676663D01*
X38346407Y-50618472D01*
X38356496Y-50606659D01*
X38433659Y-50529496D01*
X38488176Y-50501719D01*
X38503663Y-50500500D01*
X38571959Y-50500500D01*
X38571961Y-50500500D01*
X38710053Y-50459953D01*
X38831128Y-50382143D01*
X38925377Y-50273373D01*
X38985165Y-50142457D01*
X39005647Y-50000000D01*
X39005646Y-49999995D01*
X38985165Y-49857543D01*
X38933001Y-49743322D01*
X38925377Y-49726627D01*
X38831128Y-49617857D01*
X38831127Y-49617856D01*
X38831126Y-49617855D01*
X38710057Y-49540049D01*
X38710054Y-49540047D01*
X38710053Y-49540047D01*
X38710050Y-49540046D01*
X38571964Y-49499500D01*
X38571961Y-49499500D01*
X38428039Y-49499500D01*
X38428037Y-49499500D01*
X38428032Y-49499501D01*
X38425918Y-49500122D01*
X38424080Y-49500069D01*
X38421030Y-49500508D01*
X38420954Y-49499979D01*
X38364757Y-49498372D01*
X38316306Y-49461007D01*
X38299072Y-49402299D01*
X38319636Y-49344673D01*
X38328019Y-49335135D01*
X38979659Y-48683496D01*
X39034176Y-48655719D01*
X39049663Y-48654500D01*
X40976312Y-48654500D01*
X41034503Y-48673407D01*
X41051133Y-48688670D01*
X41068872Y-48709143D01*
X41189947Y-48786953D01*
X41296403Y-48818211D01*
X41328035Y-48827499D01*
X41328036Y-48827499D01*
X41328039Y-48827500D01*
X41328041Y-48827500D01*
X41471959Y-48827500D01*
X41471961Y-48827500D01*
X41610053Y-48786953D01*
X41731128Y-48709143D01*
X41825377Y-48600373D01*
X41885165Y-48469457D01*
X41905647Y-48327000D01*
X41885165Y-48184543D01*
X41825377Y-48053627D01*
X41810966Y-48036996D01*
X41771398Y-47991331D01*
X41747580Y-47934972D01*
X41761439Y-47875376D01*
X41807680Y-47835309D01*
X41846217Y-47827500D01*
X42327910Y-47827500D01*
X42386101Y-47846407D01*
X42422065Y-47895907D01*
X42422065Y-47957093D01*
X42386101Y-48006593D01*
X42381434Y-48009784D01*
X42368872Y-48017857D01*
X42274622Y-48126628D01*
X42214834Y-48257543D01*
X42194353Y-48399997D01*
X42194353Y-48400002D01*
X42214834Y-48542456D01*
X42274622Y-48673371D01*
X42274623Y-48673373D01*
X42337907Y-48746407D01*
X42368873Y-48782144D01*
X42439447Y-48827499D01*
X42489947Y-48859953D01*
X42596403Y-48891211D01*
X42628035Y-48900499D01*
X42628036Y-48900499D01*
X42628039Y-48900500D01*
X42628041Y-48900500D01*
X42771959Y-48900500D01*
X42771961Y-48900500D01*
X42910053Y-48859953D01*
X43031128Y-48782143D01*
X43048868Y-48761670D01*
X43101264Y-48730073D01*
X43123688Y-48727500D01*
X59023337Y-48727500D01*
X59081528Y-48746407D01*
X59093341Y-48756496D01*
X60265357Y-49928512D01*
X60293134Y-49983029D01*
X60294353Y-49998516D01*
X60294353Y-50000002D01*
X60314834Y-50142456D01*
X60360504Y-50242457D01*
X60374623Y-50273373D01*
X60449829Y-50360166D01*
X60468873Y-50382144D01*
X60589687Y-50459786D01*
X60589947Y-50459953D01*
X60686278Y-50488238D01*
X60728035Y-50500499D01*
X60728036Y-50500499D01*
X60728039Y-50500500D01*
X60728041Y-50500500D01*
X60871959Y-50500500D01*
X60871961Y-50500500D01*
X61010053Y-50459953D01*
X61131128Y-50382143D01*
X61225377Y-50273373D01*
X61285165Y-50142457D01*
X61305647Y-50000000D01*
X61305646Y-49999995D01*
X61285165Y-49857543D01*
X61233001Y-49743322D01*
X61225377Y-49726627D01*
X61131128Y-49617857D01*
X61131127Y-49617856D01*
X61131126Y-49617855D01*
X61010057Y-49540049D01*
X61010054Y-49540047D01*
X61010053Y-49540047D01*
X61010050Y-49540046D01*
X60871964Y-49499500D01*
X60871961Y-49499500D01*
X60803663Y-49499500D01*
X60745472Y-49480593D01*
X60733659Y-49470504D01*
X60090654Y-48827499D01*
X59401090Y-48137935D01*
X59326410Y-48094819D01*
X59326409Y-48094818D01*
X59326406Y-48094817D01*
X59243118Y-48072500D01*
X59243116Y-48072500D01*
X47234154Y-48072500D01*
X47175963Y-48053593D01*
X47139999Y-48004093D01*
X47139999Y-47942907D01*
X47144101Y-47932373D01*
X47160755Y-47895907D01*
X47185165Y-47842457D01*
X47191992Y-47794971D01*
X47205647Y-47700002D01*
X47205647Y-47699997D01*
X47185165Y-47557543D01*
X47125377Y-47426628D01*
X47125377Y-47426627D01*
X47031128Y-47317857D01*
X47031127Y-47317856D01*
X47031126Y-47317855D01*
X46910057Y-47240049D01*
X46910054Y-47240047D01*
X46910053Y-47240047D01*
X46910050Y-47240046D01*
X46771964Y-47199500D01*
X46771961Y-47199500D01*
X46656913Y-47199500D01*
X46631289Y-47196127D01*
X46626412Y-47194820D01*
X46626410Y-47194819D01*
X46543116Y-47172500D01*
X46543114Y-47172500D01*
X45134154Y-47172500D01*
X45075963Y-47153593D01*
X45039999Y-47104093D01*
X45039999Y-47042907D01*
X45044101Y-47032373D01*
X45085165Y-46942456D01*
X45105647Y-46800002D01*
X45105647Y-46799997D01*
X45085165Y-46657543D01*
X45025377Y-46526627D01*
X44931128Y-46417857D01*
X44931127Y-46417856D01*
X44931126Y-46417855D01*
X44810057Y-46340049D01*
X44810054Y-46340047D01*
X44810053Y-46340047D01*
X44810050Y-46340046D01*
X44671964Y-46299500D01*
X44671961Y-46299500D01*
X44528039Y-46299500D01*
X44528035Y-46299500D01*
X44389949Y-46340046D01*
X44389942Y-46340049D01*
X44268872Y-46417856D01*
X44268871Y-46417857D01*
X44251132Y-46438330D01*
X44198736Y-46469927D01*
X44176312Y-46472500D01*
X40676663Y-46472500D01*
X40618472Y-46453593D01*
X40606659Y-46443504D01*
X40134643Y-45971488D01*
X40106866Y-45916971D01*
X40105647Y-45901484D01*
X40105647Y-45899997D01*
X40085165Y-45757543D01*
X40058648Y-45699480D01*
X40025377Y-45626627D01*
X39971398Y-45564331D01*
X39947580Y-45507972D01*
X39961439Y-45448376D01*
X40007680Y-45408309D01*
X40046217Y-45400500D01*
X40143087Y-45400500D01*
X40168711Y-45403873D01*
X40173587Y-45405179D01*
X40173590Y-45405181D01*
X40256884Y-45427500D01*
X43656884Y-45427500D01*
X54176312Y-45427500D01*
X54234503Y-45446407D01*
X54251133Y-45461670D01*
X54268872Y-45482143D01*
X54389947Y-45559953D01*
X54473527Y-45584494D01*
X54528035Y-45600499D01*
X54528036Y-45600499D01*
X54528039Y-45600500D01*
X54528041Y-45600500D01*
X54671959Y-45600500D01*
X54671961Y-45600500D01*
X54810053Y-45559953D01*
X54931128Y-45482143D01*
X55025377Y-45373373D01*
X55085165Y-45242457D01*
X55102467Y-45122117D01*
X55105647Y-45100002D01*
X55105647Y-45099997D01*
X55085165Y-44957543D01*
X55059126Y-44900527D01*
X55025377Y-44826627D01*
X54931128Y-44717857D01*
X54931127Y-44717856D01*
X54931126Y-44717855D01*
X54810057Y-44640049D01*
X54810054Y-44640047D01*
X54810053Y-44640047D01*
X54810050Y-44640046D01*
X54671964Y-44599500D01*
X54671961Y-44599500D01*
X54528039Y-44599500D01*
X54528035Y-44599500D01*
X54389949Y-44640046D01*
X54389942Y-44640049D01*
X54268872Y-44717856D01*
X54268871Y-44717857D01*
X54251132Y-44738330D01*
X54198736Y-44769927D01*
X54176312Y-44772500D01*
X40655619Y-44772500D01*
X40597428Y-44753593D01*
X40565566Y-44714627D01*
X40549669Y-44679819D01*
X40525377Y-44626627D01*
X40431128Y-44517857D01*
X40431127Y-44517856D01*
X40431126Y-44517855D01*
X40310057Y-44440049D01*
X40310054Y-44440047D01*
X40310053Y-44440047D01*
X40310050Y-44440046D01*
X40171964Y-44399500D01*
X40171961Y-44399500D01*
X40028039Y-44399500D01*
X40028035Y-44399500D01*
X39889949Y-44440046D01*
X39889942Y-44440049D01*
X39768873Y-44517855D01*
X39674622Y-44626628D01*
X39614834Y-44757543D01*
X39594353Y-44899997D01*
X39594353Y-44900002D01*
X39614834Y-45042456D01*
X39674623Y-45173373D01*
X39728602Y-45235669D01*
X39752420Y-45292028D01*
X39738561Y-45351624D01*
X39692320Y-45391691D01*
X39653783Y-45399500D01*
X39528035Y-45399500D01*
X39389949Y-45440046D01*
X39389942Y-45440049D01*
X39268873Y-45517855D01*
X39174622Y-45626628D01*
X39114834Y-45757543D01*
X39099495Y-45864230D01*
X39072499Y-45919138D01*
X39018385Y-45947691D01*
X38967132Y-45941069D01*
X38966847Y-45942042D01*
X38960706Y-45940238D01*
X38960382Y-45940197D01*
X38960055Y-45940047D01*
X38821964Y-45899500D01*
X38821961Y-45899500D01*
X38678039Y-45899500D01*
X38678035Y-45899500D01*
X38539949Y-45940046D01*
X38539942Y-45940049D01*
X38418873Y-46017855D01*
X38324622Y-46126628D01*
X38264834Y-46257543D01*
X38244353Y-46399997D01*
X38244353Y-46400002D01*
X38264834Y-46542456D01*
X38324622Y-46673371D01*
X38324623Y-46673373D01*
X38380350Y-46737686D01*
X38418873Y-46782144D01*
X38446653Y-46799997D01*
X38539947Y-46859953D01*
X38646403Y-46891211D01*
X38678035Y-46900499D01*
X38678036Y-46900499D01*
X38678039Y-46900500D01*
X38746337Y-46900500D01*
X38804528Y-46919407D01*
X38816341Y-46929496D01*
X39648910Y-47762065D01*
X39723590Y-47805181D01*
X39723592Y-47805182D01*
X39729585Y-47807664D01*
X39728981Y-47809119D01*
X39773758Y-47838199D01*
X39795683Y-47895321D01*
X39779846Y-47954421D01*
X39732296Y-47992925D01*
X39696819Y-47999500D01*
X38829881Y-47999500D01*
X38746593Y-48021817D01*
X38746592Y-48021817D01*
X38671910Y-48064935D01*
X36998910Y-49737935D01*
X36998903Y-49737941D01*
X36993521Y-49743322D01*
X36939002Y-49771095D01*
X36878571Y-49761517D01*
X36848707Y-49738144D01*
X36831128Y-49717857D01*
X36798182Y-49696684D01*
X36710057Y-49640049D01*
X36710054Y-49640047D01*
X36710053Y-49640047D01*
X36710050Y-49640046D01*
X36571964Y-49599500D01*
X36571961Y-49599500D01*
X36428039Y-49599500D01*
X36428035Y-49599500D01*
X36289949Y-49640046D01*
X36289942Y-49640049D01*
X36168873Y-49717855D01*
X36074622Y-49826628D01*
X36014834Y-49957543D01*
X35994353Y-50099997D01*
X30000000Y-50099997D01*
X30000000Y-42599997D01*
X39994353Y-42599997D01*
X39994353Y-42600002D01*
X40014834Y-42742456D01*
X40053275Y-42826628D01*
X40074623Y-42873373D01*
X40147556Y-42957543D01*
X40168873Y-42982144D01*
X40289942Y-43059950D01*
X40289947Y-43059953D01*
X40396403Y-43091211D01*
X40428035Y-43100499D01*
X40428036Y-43100499D01*
X40428039Y-43100500D01*
X40496337Y-43100500D01*
X40554528Y-43119407D01*
X40566341Y-43129496D01*
X40737935Y-43301090D01*
X40737934Y-43301090D01*
X40798907Y-43362062D01*
X40798910Y-43362065D01*
X40873590Y-43405181D01*
X40873592Y-43405181D01*
X40873593Y-43405182D01*
X40915237Y-43416340D01*
X40956881Y-43427499D01*
X40956883Y-43427500D01*
X40956884Y-43427500D01*
X42856884Y-43427500D01*
X54176312Y-43427500D01*
X54234503Y-43446407D01*
X54251133Y-43461670D01*
X54268872Y-43482143D01*
X54389947Y-43559953D01*
X54496403Y-43591211D01*
X54528035Y-43600499D01*
X54528036Y-43600499D01*
X54528039Y-43600500D01*
X54528041Y-43600500D01*
X54671959Y-43600500D01*
X54671961Y-43600500D01*
X54810053Y-43559953D01*
X54931128Y-43482143D01*
X55025377Y-43373373D01*
X55085165Y-43242457D01*
X55105575Y-43100500D01*
X55105647Y-43100002D01*
X55105647Y-43099997D01*
X55085165Y-42957543D01*
X55046725Y-42873373D01*
X55025377Y-42826627D01*
X54931128Y-42717857D01*
X54931127Y-42717856D01*
X54931126Y-42717855D01*
X54810057Y-42640049D01*
X54810054Y-42640047D01*
X54810053Y-42640047D01*
X54800187Y-42637150D01*
X54671964Y-42599500D01*
X54671961Y-42599500D01*
X54528039Y-42599500D01*
X54528035Y-42599500D01*
X54389949Y-42640046D01*
X54389942Y-42640049D01*
X54268872Y-42717856D01*
X54268871Y-42717857D01*
X54251132Y-42738330D01*
X54198736Y-42769927D01*
X54176312Y-42772500D01*
X41176663Y-42772500D01*
X41118472Y-42753593D01*
X41106659Y-42743504D01*
X41034643Y-42671488D01*
X41006866Y-42616971D01*
X41005647Y-42601484D01*
X41005647Y-42599997D01*
X40985165Y-42457543D01*
X40925377Y-42326628D01*
X40925377Y-42326627D01*
X40831128Y-42217857D01*
X40831127Y-42217856D01*
X40831126Y-42217855D01*
X40710057Y-42140049D01*
X40710054Y-42140047D01*
X40710053Y-42140047D01*
X40710050Y-42140046D01*
X40571964Y-42099500D01*
X40571961Y-42099500D01*
X40428039Y-42099500D01*
X40428035Y-42099500D01*
X40289949Y-42140046D01*
X40289942Y-42140049D01*
X40168873Y-42217855D01*
X40074622Y-42326628D01*
X40014834Y-42457543D01*
X39994353Y-42599997D01*
X30000000Y-42599997D01*
X30000000Y-40899997D01*
X37494353Y-40899997D01*
X37494353Y-40900002D01*
X37514834Y-41042456D01*
X37574622Y-41173371D01*
X37574623Y-41173373D01*
X37637907Y-41246407D01*
X37668873Y-41282144D01*
X37789942Y-41359950D01*
X37789947Y-41359953D01*
X37896403Y-41391211D01*
X37928035Y-41400499D01*
X37928036Y-41400499D01*
X37928039Y-41400500D01*
X37928041Y-41400500D01*
X38071959Y-41400500D01*
X38071961Y-41400500D01*
X38210053Y-41359953D01*
X38331128Y-41282143D01*
X38348868Y-41261670D01*
X38401264Y-41230073D01*
X38423688Y-41227500D01*
X54276312Y-41227500D01*
X54334503Y-41246407D01*
X54351133Y-41261670D01*
X54368872Y-41282143D01*
X54489947Y-41359953D01*
X54596403Y-41391211D01*
X54628035Y-41400499D01*
X54628036Y-41400499D01*
X54628039Y-41400500D01*
X54628041Y-41400500D01*
X54771959Y-41400500D01*
X54771961Y-41400500D01*
X54910053Y-41359953D01*
X55031128Y-41282143D01*
X55125377Y-41173373D01*
X55185165Y-41042457D01*
X55205647Y-40900000D01*
X55185165Y-40757543D01*
X55125377Y-40626627D01*
X55031128Y-40517857D01*
X55031127Y-40517856D01*
X55031126Y-40517855D01*
X54910057Y-40440049D01*
X54910054Y-40440047D01*
X54910053Y-40440047D01*
X54910050Y-40440046D01*
X54771964Y-40399500D01*
X54771961Y-40399500D01*
X54628039Y-40399500D01*
X54628035Y-40399500D01*
X54489949Y-40440046D01*
X54489942Y-40440049D01*
X54368872Y-40517856D01*
X54368871Y-40517857D01*
X54351132Y-40538330D01*
X54298736Y-40569927D01*
X54276312Y-40572500D01*
X38423688Y-40572500D01*
X38365497Y-40553593D01*
X38348868Y-40538330D01*
X38331128Y-40517857D01*
X38331127Y-40517856D01*
X38210057Y-40440049D01*
X38210054Y-40440047D01*
X38210053Y-40440047D01*
X38210050Y-40440046D01*
X38071964Y-40399500D01*
X38071961Y-40399500D01*
X37928039Y-40399500D01*
X37928035Y-40399500D01*
X37789949Y-40440046D01*
X37789942Y-40440049D01*
X37668873Y-40517855D01*
X37574622Y-40626628D01*
X37514834Y-40757543D01*
X37494353Y-40899997D01*
X30000000Y-40899997D01*
X30000000Y-38899997D01*
X37094353Y-38899997D01*
X37094353Y-38900002D01*
X37114834Y-39042456D01*
X37160504Y-39142457D01*
X37174623Y-39173373D01*
X37261271Y-39273371D01*
X37268873Y-39282144D01*
X37368869Y-39346407D01*
X37389947Y-39359953D01*
X37496403Y-39391211D01*
X37528035Y-39400499D01*
X37528036Y-39400499D01*
X37528039Y-39400500D01*
X37528041Y-39400500D01*
X37671959Y-39400500D01*
X37671961Y-39400500D01*
X37810053Y-39359953D01*
X37831131Y-39346407D01*
X37836097Y-39343216D01*
X37889620Y-39327500D01*
X54076312Y-39327500D01*
X54134503Y-39346407D01*
X54151132Y-39361670D01*
X54168871Y-39382142D01*
X54168872Y-39382143D01*
X54197434Y-39400499D01*
X54289947Y-39459953D01*
X54396403Y-39491211D01*
X54428035Y-39500499D01*
X54428036Y-39500499D01*
X54428039Y-39500500D01*
X54428041Y-39500500D01*
X54571959Y-39500500D01*
X54571961Y-39500500D01*
X54710053Y-39459953D01*
X54831128Y-39382143D01*
X54925377Y-39273373D01*
X54985165Y-39142457D01*
X55005647Y-39000000D01*
X54985165Y-38857543D01*
X54925377Y-38726627D01*
X54914721Y-38714329D01*
X54890905Y-38657971D01*
X54904764Y-38598376D01*
X54951005Y-38558308D01*
X54989542Y-38550500D01*
X58338810Y-38550500D01*
X58397001Y-38569407D01*
X58408814Y-38579496D01*
X59994380Y-40165062D01*
X60022157Y-40219579D01*
X60022368Y-40220977D01*
X60039834Y-40342456D01*
X60065886Y-40399500D01*
X60099623Y-40473373D01*
X60193872Y-40582143D01*
X60193873Y-40582144D01*
X60263092Y-40626628D01*
X60314947Y-40659953D01*
X60421403Y-40691211D01*
X60453035Y-40700499D01*
X60453036Y-40700499D01*
X60453039Y-40700500D01*
X60453041Y-40700500D01*
X60596959Y-40700500D01*
X60596961Y-40700500D01*
X60735053Y-40659953D01*
X60856128Y-40582143D01*
X60950377Y-40473373D01*
X61010165Y-40342457D01*
X61030647Y-40200000D01*
X61029394Y-40191287D01*
X61010165Y-40057543D01*
X60950377Y-39926628D01*
X60950377Y-39926627D01*
X60856128Y-39817857D01*
X60856127Y-39817856D01*
X60856126Y-39817855D01*
X60735057Y-39740049D01*
X60735054Y-39740047D01*
X60735053Y-39740047D01*
X60735050Y-39740046D01*
X60596964Y-39699500D01*
X60596961Y-39699500D01*
X60561190Y-39699500D01*
X60502999Y-39680593D01*
X60491186Y-39670504D01*
X59678225Y-38857543D01*
X58740212Y-37919530D01*
X58660288Y-37873386D01*
X58571144Y-37849500D01*
X58571142Y-37849500D01*
X46886190Y-37849500D01*
X46827999Y-37830593D01*
X46816186Y-37820504D01*
X43779496Y-34783814D01*
X43751719Y-34729297D01*
X43750500Y-34713810D01*
X43750500Y-26096710D01*
X43769407Y-26038519D01*
X43774666Y-26031896D01*
X43825377Y-25973373D01*
X43885165Y-25842457D01*
X43905647Y-25700000D01*
X43903762Y-25686892D01*
X43885165Y-25557543D01*
X43830541Y-25437935D01*
X43825377Y-25426627D01*
X43731128Y-25317857D01*
X43731127Y-25317856D01*
X43731126Y-25317855D01*
X43610057Y-25240049D01*
X43610054Y-25240047D01*
X43610053Y-25240047D01*
X43610050Y-25240046D01*
X43471964Y-25199500D01*
X43471961Y-25199500D01*
X43328039Y-25199500D01*
X43328035Y-25199500D01*
X43189949Y-25240046D01*
X43189942Y-25240049D01*
X43068873Y-25317855D01*
X42974622Y-25426628D01*
X42914834Y-25557543D01*
X42894353Y-25699997D01*
X42894353Y-25700002D01*
X42914834Y-25842456D01*
X42970814Y-25965032D01*
X42974623Y-25973373D01*
X43025320Y-26031880D01*
X43049137Y-26088238D01*
X43049500Y-26096710D01*
X43049500Y-34946146D01*
X43057097Y-34974497D01*
X43057097Y-34974498D01*
X43057098Y-34974498D01*
X43057098Y-34974499D01*
X43073386Y-35035288D01*
X43119530Y-35115212D01*
X46484788Y-38480470D01*
X46497422Y-38487764D01*
X46538362Y-38533234D01*
X46544757Y-38594084D01*
X46514164Y-38647072D01*
X46458268Y-38671958D01*
X46447921Y-38672500D01*
X38108916Y-38672500D01*
X38050725Y-38653593D01*
X38030176Y-38631836D01*
X38030013Y-38631978D01*
X38026702Y-38628157D01*
X38025633Y-38627025D01*
X38025379Y-38626630D01*
X38025377Y-38626628D01*
X38025377Y-38626627D01*
X37931128Y-38517857D01*
X37931127Y-38517856D01*
X37931126Y-38517855D01*
X37810057Y-38440049D01*
X37810054Y-38440047D01*
X37810053Y-38440047D01*
X37810050Y-38440046D01*
X37671964Y-38399500D01*
X37671961Y-38399500D01*
X37528039Y-38399500D01*
X37528035Y-38399500D01*
X37389949Y-38440046D01*
X37389942Y-38440049D01*
X37268873Y-38517855D01*
X37174622Y-38626628D01*
X37114834Y-38757543D01*
X37094353Y-38899997D01*
X30000000Y-38899997D01*
X30000000Y-36699500D01*
X30018907Y-36641309D01*
X30068407Y-36605345D01*
X30099000Y-36600500D01*
X30919747Y-36600500D01*
X30919748Y-36600500D01*
X30978231Y-36588867D01*
X31044552Y-36544552D01*
X31088867Y-36478231D01*
X31100500Y-36419748D01*
X31100500Y-35436189D01*
X31119407Y-35377998D01*
X31129490Y-35366191D01*
X32380470Y-34115212D01*
X32426614Y-34035288D01*
X32427524Y-34031889D01*
X32436801Y-33997272D01*
X32441814Y-33978557D01*
X32450500Y-33946144D01*
X32450500Y-31199997D01*
X39994353Y-31199997D01*
X39994353Y-31200002D01*
X40014834Y-31342456D01*
X40074623Y-31473373D01*
X40136299Y-31544552D01*
X40148319Y-31558423D01*
X40172137Y-31614782D01*
X40172500Y-31623254D01*
X40172500Y-35576744D01*
X40153593Y-35634935D01*
X40148320Y-35641574D01*
X40074623Y-35726626D01*
X40014834Y-35857543D01*
X39994353Y-35999997D01*
X39994353Y-36000002D01*
X40014834Y-36142456D01*
X40068493Y-36259950D01*
X40074623Y-36273373D01*
X40168872Y-36382143D01*
X40168873Y-36382144D01*
X40289942Y-36459950D01*
X40289947Y-36459953D01*
X40396403Y-36491211D01*
X40428035Y-36500499D01*
X40428036Y-36500499D01*
X40428039Y-36500500D01*
X40428041Y-36500500D01*
X40571959Y-36500500D01*
X40571961Y-36500500D01*
X40710053Y-36459953D01*
X40831128Y-36382143D01*
X40925377Y-36273373D01*
X40985165Y-36142457D01*
X41005647Y-36000000D01*
X41005584Y-35999563D01*
X40985165Y-35857543D01*
X40925377Y-35726627D01*
X40918336Y-35718502D01*
X40851680Y-35641574D01*
X40827863Y-35585215D01*
X40827500Y-35576744D01*
X40827500Y-31623254D01*
X40846407Y-31565063D01*
X40851681Y-31558423D01*
X40925377Y-31473373D01*
X40985165Y-31342457D01*
X41005647Y-31200000D01*
X40985165Y-31057543D01*
X40925377Y-30926627D01*
X40831128Y-30817857D01*
X40831127Y-30817856D01*
X40831126Y-30817855D01*
X40710057Y-30740049D01*
X40710054Y-30740047D01*
X40710053Y-30740047D01*
X40710050Y-30740046D01*
X40571964Y-30699500D01*
X40571961Y-30699500D01*
X40428039Y-30699500D01*
X40428035Y-30699500D01*
X40289949Y-30740046D01*
X40289942Y-30740049D01*
X40168873Y-30817855D01*
X40074622Y-30926628D01*
X40014834Y-31057543D01*
X39994353Y-31199997D01*
X32450500Y-31199997D01*
X32450500Y-29086190D01*
X32469407Y-29027999D01*
X32479496Y-29016186D01*
X32666186Y-28829496D01*
X32720703Y-28801719D01*
X32736190Y-28800500D01*
X32771959Y-28800500D01*
X32771961Y-28800500D01*
X32910053Y-28759953D01*
X33031128Y-28682143D01*
X33125377Y-28573373D01*
X33137112Y-28547676D01*
X33178482Y-28502600D01*
X33238449Y-28490448D01*
X33294105Y-28515865D01*
X33317218Y-28547676D01*
X33322825Y-28559953D01*
X33374623Y-28673373D01*
X33425320Y-28731880D01*
X33449137Y-28788238D01*
X33449500Y-28796710D01*
X33449500Y-30246144D01*
X33466535Y-30309719D01*
X33473386Y-30335288D01*
X33519530Y-30415212D01*
X33569381Y-30465063D01*
X33597157Y-30519578D01*
X33597368Y-30520976D01*
X33614834Y-30642456D01*
X33640886Y-30699500D01*
X33674623Y-30773373D01*
X33768872Y-30882143D01*
X33768873Y-30882144D01*
X33838092Y-30926628D01*
X33889947Y-30959953D01*
X33996403Y-30991211D01*
X34028035Y-31000499D01*
X34028036Y-31000499D01*
X34028039Y-31000500D01*
X34028041Y-31000500D01*
X34171959Y-31000500D01*
X34171961Y-31000500D01*
X34310053Y-30959953D01*
X34431128Y-30882143D01*
X34525377Y-30773373D01*
X34585165Y-30642457D01*
X34605647Y-30500000D01*
X34604394Y-30491287D01*
X34585165Y-30357543D01*
X34550731Y-30282144D01*
X34525377Y-30226627D01*
X34431128Y-30117857D01*
X34431127Y-30117856D01*
X34431126Y-30117855D01*
X34310057Y-30040049D01*
X34310054Y-30040048D01*
X34310053Y-30040047D01*
X34277560Y-30030506D01*
X34221608Y-30014077D01*
X34171101Y-29979541D01*
X34150540Y-29921913D01*
X34150500Y-29919087D01*
X34150500Y-28796710D01*
X34169407Y-28738519D01*
X34174666Y-28731896D01*
X34225377Y-28673373D01*
X34285165Y-28542457D01*
X34296370Y-28464525D01*
X34305647Y-28400002D01*
X34305647Y-28399999D01*
X34304364Y-28391083D01*
X34298876Y-28352908D01*
X34309309Y-28292621D01*
X34326861Y-28268819D01*
X37616186Y-24979496D01*
X37670703Y-24951719D01*
X37686190Y-24950500D01*
X40729466Y-24950500D01*
X40782989Y-24966216D01*
X40889942Y-25034950D01*
X40889947Y-25034953D01*
X40996403Y-25066211D01*
X41028035Y-25075499D01*
X41028036Y-25075499D01*
X41028039Y-25075500D01*
X41028041Y-25075500D01*
X41171959Y-25075500D01*
X41171961Y-25075500D01*
X41310053Y-25034953D01*
X41431128Y-24957143D01*
X41525377Y-24848373D01*
X41585165Y-24717457D01*
X41602053Y-24599999D01*
X41605647Y-24575002D01*
X41605647Y-24574997D01*
X41585165Y-24432543D01*
X41567396Y-24393634D01*
X41525377Y-24301627D01*
X41431128Y-24192857D01*
X41431127Y-24192856D01*
X41431126Y-24192855D01*
X41310057Y-24115049D01*
X41310054Y-24115047D01*
X41310053Y-24115047D01*
X41310050Y-24115046D01*
X41171964Y-24074500D01*
X41171961Y-24074500D01*
X41028039Y-24074500D01*
X41028035Y-24074500D01*
X40889949Y-24115046D01*
X40889942Y-24115049D01*
X40768872Y-24192856D01*
X40768871Y-24192857D01*
X40749399Y-24215330D01*
X40697003Y-24246927D01*
X40674579Y-24249500D01*
X37591216Y-24249500D01*
X37533025Y-24230593D01*
X37497061Y-24181093D01*
X37493224Y-24136411D01*
X37505647Y-24050003D01*
X37505647Y-24049997D01*
X37485165Y-23907543D01*
X37425377Y-23776628D01*
X37425377Y-23776627D01*
X37331128Y-23667857D01*
X37331127Y-23667856D01*
X37331126Y-23667855D01*
X37210057Y-23590049D01*
X37210054Y-23590047D01*
X37210053Y-23590047D01*
X37210050Y-23590046D01*
X37071964Y-23549500D01*
X37071961Y-23549500D01*
X37036189Y-23549500D01*
X36977998Y-23530593D01*
X36966191Y-23520509D01*
X36965212Y-23519530D01*
X36885288Y-23473386D01*
X36881981Y-23472500D01*
X36796144Y-23449500D01*
X36796142Y-23449500D01*
X36789542Y-23449500D01*
X36731351Y-23430593D01*
X36695387Y-23381093D01*
X36695387Y-23319907D01*
X36714720Y-23285670D01*
X36725377Y-23273373D01*
X36785165Y-23142457D01*
X36802364Y-23022836D01*
X36805647Y-23000002D01*
X36805647Y-22999997D01*
X36785165Y-22857543D01*
X36725377Y-22726628D01*
X36725377Y-22726627D01*
X36631128Y-22617857D01*
X36631127Y-22617856D01*
X36631126Y-22617855D01*
X36510057Y-22540049D01*
X36510054Y-22540047D01*
X36510053Y-22540047D01*
X36510050Y-22540046D01*
X36371964Y-22499500D01*
X36371961Y-22499500D01*
X36228039Y-22499500D01*
X36228035Y-22499500D01*
X36089949Y-22540046D01*
X36089942Y-22540049D01*
X35968871Y-22617856D01*
X35963520Y-22622494D01*
X35962031Y-22620776D01*
X35918659Y-22646928D01*
X35896241Y-22649500D01*
X31195522Y-22649500D01*
X31137331Y-22630593D01*
X31101367Y-22581093D01*
X31098425Y-22569816D01*
X31092503Y-22540047D01*
X31088867Y-22521769D01*
X31044552Y-22455448D01*
X31044548Y-22455445D01*
X30978233Y-22411134D01*
X30978231Y-22411133D01*
X30978228Y-22411132D01*
X30978227Y-22411132D01*
X30919758Y-22399501D01*
X30919748Y-22399500D01*
X30099000Y-22399500D01*
X30040809Y-22380593D01*
X30004845Y-22331093D01*
X30000000Y-22300500D01*
X30000000Y-20099000D01*
X30018907Y-20040809D01*
X30068407Y-20004845D01*
X30099000Y-20000000D01*
X31117500Y-20000000D01*
X31175691Y-20018907D01*
G37*
G04 #@! TD.AperFunction*
G04 #@! TA.AperFunction,Conductor*
G36*
X36490242Y-24169407D02*
G01*
X36522103Y-24208371D01*
X36574623Y-24323373D01*
X36668872Y-24432143D01*
X36668873Y-24432144D01*
X36778138Y-24502364D01*
X36789947Y-24509953D01*
X36865170Y-24532040D01*
X36915677Y-24566576D01*
X36936239Y-24624203D01*
X36919001Y-24682910D01*
X36907283Y-24697034D01*
X33713031Y-27891285D01*
X33670919Y-27916271D01*
X33635651Y-27926627D01*
X33589947Y-27940047D01*
X33589945Y-27940047D01*
X33589942Y-27940049D01*
X33468873Y-28017855D01*
X33374622Y-28126627D01*
X33362887Y-28152324D01*
X33321513Y-28197401D01*
X33261546Y-28209550D01*
X33205891Y-28184132D01*
X33182781Y-28152322D01*
X33125378Y-28026629D01*
X33125377Y-28026628D01*
X33125377Y-28026627D01*
X33031128Y-27917857D01*
X33031127Y-27917856D01*
X33031126Y-27917855D01*
X32910057Y-27840049D01*
X32910054Y-27840047D01*
X32910053Y-27840047D01*
X32910050Y-27840046D01*
X32771964Y-27799500D01*
X32771961Y-27799500D01*
X32628039Y-27799500D01*
X32628035Y-27799500D01*
X32489949Y-27840046D01*
X32489942Y-27840049D01*
X32368873Y-27917855D01*
X32274622Y-28026628D01*
X32214834Y-28157543D01*
X32197368Y-28279022D01*
X32170372Y-28333930D01*
X32169380Y-28334936D01*
X31819529Y-28684788D01*
X31782730Y-28748527D01*
X31782730Y-28748528D01*
X31773387Y-28764709D01*
X31749500Y-28853857D01*
X31749500Y-33713810D01*
X31730593Y-33772001D01*
X31720504Y-33783814D01*
X30933814Y-34570504D01*
X30879297Y-34598281D01*
X30863810Y-34599500D01*
X30099000Y-34599500D01*
X30040809Y-34580593D01*
X30004845Y-34531093D01*
X30000000Y-34500500D01*
X30000000Y-34099500D01*
X30018907Y-34041309D01*
X30068407Y-34005345D01*
X30099000Y-34000500D01*
X30919747Y-34000500D01*
X30919748Y-34000500D01*
X30978231Y-33988867D01*
X31044552Y-33944552D01*
X31088867Y-33878231D01*
X31100500Y-33819748D01*
X31100500Y-32180252D01*
X31088867Y-32121769D01*
X31044552Y-32055448D01*
X31006183Y-32029810D01*
X30978233Y-32011134D01*
X30978231Y-32011133D01*
X30978228Y-32011132D01*
X30978227Y-32011132D01*
X30919758Y-31999501D01*
X30919748Y-31999500D01*
X30099000Y-31999500D01*
X30040809Y-31980593D01*
X30004845Y-31931093D01*
X30000000Y-31900500D01*
X30000000Y-31699500D01*
X30018907Y-31641309D01*
X30068407Y-31605345D01*
X30099000Y-31600500D01*
X30919747Y-31600500D01*
X30919748Y-31600500D01*
X30978231Y-31588867D01*
X31044552Y-31544552D01*
X31088867Y-31478231D01*
X31100500Y-31419748D01*
X31100500Y-29780252D01*
X31088867Y-29721769D01*
X31044552Y-29655448D01*
X31044548Y-29655445D01*
X30978233Y-29611134D01*
X30978231Y-29611133D01*
X30978228Y-29611132D01*
X30978227Y-29611132D01*
X30919758Y-29599501D01*
X30919748Y-29599500D01*
X30099000Y-29599500D01*
X30040809Y-29580593D01*
X30004845Y-29531093D01*
X30000000Y-29500500D01*
X30000000Y-29299500D01*
X30018907Y-29241309D01*
X30068407Y-29205345D01*
X30099000Y-29200500D01*
X30919747Y-29200500D01*
X30919748Y-29200500D01*
X30978231Y-29188867D01*
X31044552Y-29144552D01*
X31088867Y-29078231D01*
X31100500Y-29019748D01*
X31100500Y-27380252D01*
X31088867Y-27321769D01*
X31044552Y-27255448D01*
X31044548Y-27255445D01*
X30978233Y-27211134D01*
X30978231Y-27211133D01*
X30978228Y-27211132D01*
X30978227Y-27211132D01*
X30919758Y-27199501D01*
X30919748Y-27199500D01*
X30099000Y-27199500D01*
X30040809Y-27180593D01*
X30004845Y-27131093D01*
X30000000Y-27100500D01*
X30000000Y-26899500D01*
X30018907Y-26841309D01*
X30068407Y-26805345D01*
X30099000Y-26800500D01*
X30919747Y-26800500D01*
X30919748Y-26800500D01*
X30978231Y-26788867D01*
X31044552Y-26744552D01*
X31088867Y-26678231D01*
X31100500Y-26619748D01*
X31100500Y-25536190D01*
X31119407Y-25477999D01*
X31129496Y-25466186D01*
X32416186Y-24179496D01*
X32470703Y-24151719D01*
X32486190Y-24150500D01*
X36432051Y-24150500D01*
X36490242Y-24169407D01*
G37*
G04 #@! TD.AperFunction*
G04 #@! TA.AperFunction,Conductor*
G36*
X54759191Y-20018907D02*
G01*
X54795155Y-20068407D01*
X54800000Y-20099000D01*
X54800000Y-23095837D01*
X54781093Y-23154028D01*
X54771004Y-23165841D01*
X54340907Y-23595938D01*
X54314106Y-23609593D01*
X54316033Y-23626693D01*
X54304784Y-23656330D01*
X54294818Y-23673591D01*
X54294817Y-23673593D01*
X54272500Y-23756881D01*
X54272500Y-24138035D01*
X54253593Y-24196226D01*
X54204093Y-24232190D01*
X54167673Y-24235880D01*
X53803553Y-24600000D01*
X54168353Y-24964799D01*
X54222359Y-24975859D01*
X54263638Y-25021021D01*
X54272500Y-25061962D01*
X54272500Y-25588035D01*
X54253593Y-25646226D01*
X54204093Y-25682190D01*
X54167673Y-25685880D01*
X53803553Y-26050000D01*
X54168353Y-26414799D01*
X54222359Y-26425859D01*
X54263638Y-26471021D01*
X54272500Y-26511962D01*
X54272500Y-26723337D01*
X54253593Y-26781528D01*
X54243504Y-26793341D01*
X53193341Y-27843504D01*
X53138824Y-27871281D01*
X53123337Y-27872500D01*
X52823688Y-27872500D01*
X52765497Y-27853593D01*
X52748868Y-27838330D01*
X52731128Y-27817857D01*
X52731127Y-27817856D01*
X52610057Y-27740049D01*
X52610054Y-27740047D01*
X52610053Y-27740047D01*
X52610050Y-27740046D01*
X52471964Y-27699500D01*
X52471961Y-27699500D01*
X52328039Y-27699500D01*
X52328035Y-27699500D01*
X52189949Y-27740046D01*
X52189942Y-27740049D01*
X52068872Y-27817856D01*
X52068871Y-27817857D01*
X52051132Y-27838330D01*
X51998736Y-27869927D01*
X51976312Y-27872500D01*
X51508916Y-27872500D01*
X51450725Y-27853593D01*
X51430176Y-27831836D01*
X51430013Y-27831978D01*
X51426702Y-27828157D01*
X51425633Y-27827025D01*
X51425379Y-27826630D01*
X51425377Y-27826628D01*
X51425377Y-27826627D01*
X51331128Y-27717857D01*
X51331127Y-27717856D01*
X51331126Y-27717855D01*
X51210057Y-27640049D01*
X51210054Y-27640047D01*
X51210053Y-27640047D01*
X51210050Y-27640046D01*
X51071964Y-27599500D01*
X51071961Y-27599500D01*
X50928039Y-27599500D01*
X50928035Y-27599500D01*
X50789949Y-27640046D01*
X50789942Y-27640049D01*
X50668873Y-27717855D01*
X50574622Y-27826628D01*
X50514834Y-27957543D01*
X50494353Y-28099997D01*
X50494353Y-28100002D01*
X50514834Y-28242456D01*
X50574623Y-28373373D01*
X50605207Y-28408670D01*
X50629024Y-28465029D01*
X50615165Y-28524624D01*
X50568924Y-28564692D01*
X50530387Y-28572500D01*
X50155619Y-28572500D01*
X50097428Y-28553593D01*
X50065566Y-28514627D01*
X50042915Y-28465029D01*
X50025377Y-28426627D01*
X49931128Y-28317857D01*
X49931127Y-28317856D01*
X49931126Y-28317855D01*
X49810057Y-28240049D01*
X49810054Y-28240047D01*
X49810053Y-28240047D01*
X49810050Y-28240046D01*
X49671964Y-28199500D01*
X49671961Y-28199500D01*
X49528039Y-28199500D01*
X49528035Y-28199500D01*
X49389949Y-28240046D01*
X49389942Y-28240049D01*
X49268873Y-28317855D01*
X49174622Y-28426627D01*
X49157315Y-28464525D01*
X49115942Y-28509602D01*
X49055975Y-28521751D01*
X49013739Y-28506681D01*
X48910057Y-28440049D01*
X48910054Y-28440047D01*
X48910053Y-28440047D01*
X48891608Y-28434631D01*
X48771964Y-28399500D01*
X48771961Y-28399500D01*
X48628039Y-28399500D01*
X48628035Y-28399500D01*
X48508391Y-28434631D01*
X48447231Y-28432883D01*
X48398778Y-28395520D01*
X48381500Y-28339641D01*
X48381500Y-26766661D01*
X50186892Y-26766661D01*
X50200692Y-26775333D01*
X50200703Y-26775338D01*
X50370849Y-26834875D01*
X50370862Y-26834878D01*
X50549996Y-26855062D01*
X50550004Y-26855062D01*
X50729137Y-26834878D01*
X50729144Y-26834876D01*
X50899301Y-26775336D01*
X50913105Y-26766661D01*
X51636892Y-26766661D01*
X51650692Y-26775333D01*
X51650703Y-26775338D01*
X51820849Y-26834875D01*
X51820862Y-26834878D01*
X51999996Y-26855062D01*
X52000004Y-26855062D01*
X52179137Y-26834878D01*
X52179144Y-26834876D01*
X52349301Y-26775336D01*
X52363105Y-26766661D01*
X53086892Y-26766661D01*
X53100692Y-26775333D01*
X53100703Y-26775338D01*
X53270849Y-26834875D01*
X53270862Y-26834878D01*
X53449996Y-26855062D01*
X53450004Y-26855062D01*
X53629137Y-26834878D01*
X53629144Y-26834876D01*
X53799301Y-26775336D01*
X53813107Y-26766660D01*
X53450000Y-26403553D01*
X53086892Y-26766661D01*
X52363105Y-26766661D01*
X52363107Y-26766660D01*
X52000000Y-26403553D01*
X51636892Y-26766661D01*
X50913105Y-26766661D01*
X50913107Y-26766660D01*
X50550000Y-26403553D01*
X50186892Y-26766661D01*
X48381500Y-26766661D01*
X48381500Y-26049995D01*
X49744938Y-26049995D01*
X49744938Y-26050004D01*
X49765121Y-26229137D01*
X49765124Y-26229150D01*
X49824662Y-26399298D01*
X49824667Y-26399308D01*
X49833337Y-26413106D01*
X49833338Y-26413106D01*
X50196445Y-26050000D01*
X50166608Y-26020163D01*
X50400000Y-26020163D01*
X50400000Y-26079837D01*
X50422836Y-26134968D01*
X50465032Y-26177164D01*
X50520163Y-26200000D01*
X50579837Y-26200000D01*
X50634968Y-26177164D01*
X50677164Y-26134968D01*
X50700000Y-26079837D01*
X50700000Y-26050000D01*
X50903553Y-26050000D01*
X51266969Y-26413415D01*
X51283029Y-26413415D01*
X51646446Y-26049999D01*
X51616610Y-26020163D01*
X51850000Y-26020163D01*
X51850000Y-26079837D01*
X51872836Y-26134968D01*
X51915032Y-26177164D01*
X51970163Y-26200000D01*
X52029837Y-26200000D01*
X52084968Y-26177164D01*
X52127164Y-26134968D01*
X52150000Y-26079837D01*
X52150000Y-26050000D01*
X52353553Y-26050000D01*
X52716969Y-26413415D01*
X52733029Y-26413415D01*
X53096446Y-26049999D01*
X53066610Y-26020163D01*
X53300000Y-26020163D01*
X53300000Y-26079837D01*
X53322836Y-26134968D01*
X53365032Y-26177164D01*
X53420163Y-26200000D01*
X53479837Y-26200000D01*
X53534968Y-26177164D01*
X53577164Y-26134968D01*
X53600000Y-26079837D01*
X53600000Y-26020163D01*
X53577164Y-25965032D01*
X53534968Y-25922836D01*
X53479837Y-25900000D01*
X53420163Y-25900000D01*
X53365032Y-25922836D01*
X53322836Y-25965032D01*
X53300000Y-26020163D01*
X53066610Y-26020163D01*
X52733029Y-25686582D01*
X52716971Y-25686582D01*
X52353553Y-26050000D01*
X52150000Y-26050000D01*
X52150000Y-26020163D01*
X52127164Y-25965032D01*
X52084968Y-25922836D01*
X52029837Y-25900000D01*
X51970163Y-25900000D01*
X51915032Y-25922836D01*
X51872836Y-25965032D01*
X51850000Y-26020163D01*
X51616610Y-26020163D01*
X51283029Y-25686582D01*
X51266971Y-25686582D01*
X50903553Y-26050000D01*
X50700000Y-26050000D01*
X50700000Y-26020163D01*
X50677164Y-25965032D01*
X50634968Y-25922836D01*
X50579837Y-25900000D01*
X50520163Y-25900000D01*
X50465032Y-25922836D01*
X50422836Y-25965032D01*
X50400000Y-26020163D01*
X50166608Y-26020163D01*
X49833337Y-25686892D01*
X49824663Y-25700698D01*
X49765124Y-25870850D01*
X49765121Y-25870862D01*
X49744938Y-26049995D01*
X48381500Y-26049995D01*
X48381500Y-25316971D01*
X50186582Y-25316971D01*
X50186582Y-25333029D01*
X50549999Y-25696445D01*
X50913415Y-25333029D01*
X50913415Y-25316971D01*
X51636582Y-25316971D01*
X51636582Y-25333029D01*
X51999999Y-25696445D01*
X52363415Y-25333029D01*
X52363415Y-25316971D01*
X53086582Y-25316971D01*
X53086582Y-25333029D01*
X53449999Y-25696445D01*
X53813415Y-25333029D01*
X53813415Y-25316969D01*
X53450000Y-24953553D01*
X53086582Y-25316971D01*
X52363415Y-25316971D01*
X52363415Y-25316969D01*
X52000000Y-24953553D01*
X51636582Y-25316971D01*
X50913415Y-25316971D01*
X50913415Y-25316969D01*
X50550000Y-24953553D01*
X50186582Y-25316971D01*
X48381500Y-25316971D01*
X48381500Y-24599995D01*
X49744938Y-24599995D01*
X49744938Y-24600004D01*
X49765121Y-24779137D01*
X49765124Y-24779150D01*
X49824662Y-24949298D01*
X49824667Y-24949308D01*
X49833337Y-24963106D01*
X49833338Y-24963106D01*
X50196445Y-24600000D01*
X50166608Y-24570163D01*
X50400000Y-24570163D01*
X50400000Y-24629837D01*
X50422836Y-24684968D01*
X50465032Y-24727164D01*
X50520163Y-24750000D01*
X50579837Y-24750000D01*
X50634968Y-24727164D01*
X50677164Y-24684968D01*
X50700000Y-24629837D01*
X50700000Y-24600000D01*
X50903553Y-24600000D01*
X51266969Y-24963415D01*
X51283029Y-24963415D01*
X51646446Y-24599999D01*
X51616610Y-24570163D01*
X51850000Y-24570163D01*
X51850000Y-24629837D01*
X51872836Y-24684968D01*
X51915032Y-24727164D01*
X51970163Y-24750000D01*
X52029837Y-24750000D01*
X52084968Y-24727164D01*
X52127164Y-24684968D01*
X52150000Y-24629837D01*
X52150000Y-24600000D01*
X52353553Y-24600000D01*
X52716969Y-24963415D01*
X52733029Y-24963415D01*
X53096446Y-24599999D01*
X53066610Y-24570163D01*
X53300000Y-24570163D01*
X53300000Y-24629837D01*
X53322836Y-24684968D01*
X53365032Y-24727164D01*
X53420163Y-24750000D01*
X53479837Y-24750000D01*
X53534968Y-24727164D01*
X53577164Y-24684968D01*
X53600000Y-24629837D01*
X53600000Y-24570163D01*
X53577164Y-24515032D01*
X53534968Y-24472836D01*
X53479837Y-24450000D01*
X53420163Y-24450000D01*
X53365032Y-24472836D01*
X53322836Y-24515032D01*
X53300000Y-24570163D01*
X53066610Y-24570163D01*
X52733029Y-24236582D01*
X52716971Y-24236582D01*
X52353553Y-24600000D01*
X52150000Y-24600000D01*
X52150000Y-24570163D01*
X52127164Y-24515032D01*
X52084968Y-24472836D01*
X52029837Y-24450000D01*
X51970163Y-24450000D01*
X51915032Y-24472836D01*
X51872836Y-24515032D01*
X51850000Y-24570163D01*
X51616610Y-24570163D01*
X51283029Y-24236582D01*
X51266971Y-24236582D01*
X50903553Y-24600000D01*
X50700000Y-24600000D01*
X50700000Y-24570163D01*
X50677164Y-24515032D01*
X50634968Y-24472836D01*
X50579837Y-24450000D01*
X50520163Y-24450000D01*
X50465032Y-24472836D01*
X50422836Y-24515032D01*
X50400000Y-24570163D01*
X50166608Y-24570163D01*
X49833337Y-24236892D01*
X49824663Y-24250698D01*
X49765124Y-24420850D01*
X49765121Y-24420862D01*
X49744938Y-24599995D01*
X48381500Y-24599995D01*
X48381500Y-23866971D01*
X50186582Y-23866971D01*
X50186582Y-23883029D01*
X50549999Y-24246445D01*
X50913415Y-23883029D01*
X50913415Y-23866971D01*
X51636582Y-23866971D01*
X51636582Y-23883029D01*
X51999999Y-24246445D01*
X52363415Y-23883029D01*
X52363415Y-23866971D01*
X53086582Y-23866971D01*
X53086582Y-23883029D01*
X53449999Y-24246445D01*
X53813415Y-23883029D01*
X53813415Y-23866969D01*
X53450000Y-23503553D01*
X53086582Y-23866971D01*
X52363415Y-23866971D01*
X52363415Y-23866969D01*
X52000000Y-23503553D01*
X51636582Y-23866971D01*
X50913415Y-23866971D01*
X50913415Y-23866969D01*
X50550000Y-23503553D01*
X50186582Y-23866971D01*
X48381500Y-23866971D01*
X48381500Y-23322663D01*
X48400407Y-23264472D01*
X48410496Y-23252659D01*
X48513160Y-23149995D01*
X49744938Y-23149995D01*
X49744938Y-23150004D01*
X49765121Y-23329137D01*
X49765124Y-23329150D01*
X49824662Y-23499298D01*
X49824667Y-23499308D01*
X49833337Y-23513106D01*
X49833338Y-23513106D01*
X50196445Y-23150000D01*
X50166608Y-23120163D01*
X50400000Y-23120163D01*
X50400000Y-23179837D01*
X50422836Y-23234968D01*
X50465032Y-23277164D01*
X50520163Y-23300000D01*
X50579837Y-23300000D01*
X50634968Y-23277164D01*
X50677164Y-23234968D01*
X50700000Y-23179837D01*
X50700000Y-23150000D01*
X50903553Y-23150000D01*
X51266969Y-23513415D01*
X51283029Y-23513415D01*
X51646446Y-23149999D01*
X51616610Y-23120163D01*
X51850000Y-23120163D01*
X51850000Y-23179837D01*
X51872836Y-23234968D01*
X51915032Y-23277164D01*
X51970163Y-23300000D01*
X52029837Y-23300000D01*
X52084968Y-23277164D01*
X52127164Y-23234968D01*
X52150000Y-23179837D01*
X52150000Y-23150000D01*
X52353553Y-23150000D01*
X52716969Y-23513415D01*
X52733029Y-23513415D01*
X53096446Y-23149999D01*
X53066610Y-23120163D01*
X53300000Y-23120163D01*
X53300000Y-23179837D01*
X53322836Y-23234968D01*
X53365032Y-23277164D01*
X53420163Y-23300000D01*
X53479837Y-23300000D01*
X53534968Y-23277164D01*
X53577164Y-23234968D01*
X53600000Y-23179837D01*
X53600000Y-23150000D01*
X53803553Y-23150000D01*
X54166660Y-23513106D01*
X54173422Y-23512344D01*
X54173122Y-23510447D01*
X54177459Y-23493236D01*
X54234875Y-23329149D01*
X54234878Y-23329137D01*
X54255062Y-23150004D01*
X54255062Y-23149995D01*
X54234878Y-22970862D01*
X54234875Y-22970849D01*
X54175338Y-22800703D01*
X54175333Y-22800692D01*
X54166661Y-22786892D01*
X53803553Y-23150000D01*
X53600000Y-23150000D01*
X53600000Y-23120163D01*
X53577164Y-23065032D01*
X53534968Y-23022836D01*
X53479837Y-23000000D01*
X53420163Y-23000000D01*
X53365032Y-23022836D01*
X53322836Y-23065032D01*
X53300000Y-23120163D01*
X53066610Y-23120163D01*
X52733029Y-22786582D01*
X52716971Y-22786582D01*
X52353553Y-23150000D01*
X52150000Y-23150000D01*
X52150000Y-23120163D01*
X52127164Y-23065032D01*
X52084968Y-23022836D01*
X52029837Y-23000000D01*
X51970163Y-23000000D01*
X51915032Y-23022836D01*
X51872836Y-23065032D01*
X51850000Y-23120163D01*
X51616610Y-23120163D01*
X51283029Y-22786582D01*
X51266971Y-22786582D01*
X50903553Y-23150000D01*
X50700000Y-23150000D01*
X50700000Y-23120163D01*
X50677164Y-23065032D01*
X50634968Y-23022836D01*
X50579837Y-23000000D01*
X50520163Y-23000000D01*
X50465032Y-23022836D01*
X50422836Y-23065032D01*
X50400000Y-23120163D01*
X50166608Y-23120163D01*
X49833337Y-22786892D01*
X49824663Y-22800698D01*
X49765124Y-22970850D01*
X49765121Y-22970862D01*
X49744938Y-23149995D01*
X48513160Y-23149995D01*
X49229818Y-22433337D01*
X50186892Y-22433337D01*
X50550000Y-22796445D01*
X50913106Y-22433338D01*
X50913106Y-22433337D01*
X51636892Y-22433337D01*
X52000000Y-22796445D01*
X52363106Y-22433338D01*
X52363106Y-22433337D01*
X53086892Y-22433337D01*
X53450000Y-22796445D01*
X53813106Y-22433338D01*
X53813106Y-22433337D01*
X53799308Y-22424667D01*
X53799298Y-22424662D01*
X53629150Y-22365124D01*
X53629137Y-22365121D01*
X53450004Y-22344938D01*
X53449996Y-22344938D01*
X53270862Y-22365121D01*
X53270850Y-22365124D01*
X53100698Y-22424663D01*
X53086892Y-22433337D01*
X52363106Y-22433337D01*
X52349308Y-22424667D01*
X52349298Y-22424662D01*
X52179150Y-22365124D01*
X52179137Y-22365121D01*
X52000004Y-22344938D01*
X51999996Y-22344938D01*
X51820862Y-22365121D01*
X51820850Y-22365124D01*
X51650698Y-22424663D01*
X51636892Y-22433337D01*
X50913106Y-22433337D01*
X50899308Y-22424667D01*
X50899298Y-22424662D01*
X50729150Y-22365124D01*
X50729137Y-22365121D01*
X50550004Y-22344938D01*
X50549996Y-22344938D01*
X50370862Y-22365121D01*
X50370850Y-22365124D01*
X50200698Y-22424663D01*
X50186892Y-22433337D01*
X49229818Y-22433337D01*
X49233659Y-22429496D01*
X49288176Y-22401719D01*
X49303663Y-22400500D01*
X49371959Y-22400500D01*
X49371961Y-22400500D01*
X49510053Y-22359953D01*
X49631128Y-22282143D01*
X49725377Y-22173373D01*
X49785165Y-22042457D01*
X49797067Y-21959674D01*
X49805647Y-21900002D01*
X49805647Y-21899997D01*
X49785165Y-21757543D01*
X49759114Y-21700500D01*
X49725377Y-21626627D01*
X49631128Y-21517857D01*
X49618565Y-21509783D01*
X49579835Y-21462417D01*
X49576343Y-21401332D01*
X49609422Y-21349859D01*
X49666439Y-21327661D01*
X49672090Y-21327500D01*
X52244381Y-21327500D01*
X52302572Y-21346407D01*
X52334434Y-21385373D01*
X52370434Y-21464201D01*
X52374623Y-21473373D01*
X52453906Y-21564871D01*
X52468873Y-21582144D01*
X52589942Y-21659950D01*
X52589947Y-21659953D01*
X52696403Y-21691211D01*
X52728035Y-21700499D01*
X52728036Y-21700499D01*
X52728039Y-21700500D01*
X52728041Y-21700500D01*
X52871959Y-21700500D01*
X52871961Y-21700500D01*
X53010053Y-21659953D01*
X53131128Y-21582143D01*
X53225377Y-21473373D01*
X53285165Y-21342457D01*
X53305575Y-21200500D01*
X53305647Y-21200002D01*
X53305647Y-21199996D01*
X53293224Y-21113589D01*
X53303657Y-21053299D01*
X53347536Y-21010657D01*
X53391216Y-21000500D01*
X53471959Y-21000500D01*
X53471961Y-21000500D01*
X53610053Y-20959953D01*
X53731128Y-20882143D01*
X53825377Y-20773373D01*
X53885165Y-20642457D01*
X53905647Y-20500000D01*
X53897027Y-20440049D01*
X53885165Y-20357543D01*
X53825377Y-20226628D01*
X53825377Y-20226627D01*
X53770963Y-20163830D01*
X53747147Y-20107471D01*
X53761006Y-20047876D01*
X53807247Y-20007809D01*
X53845784Y-20000000D01*
X54701000Y-20000000D01*
X54759191Y-20018907D01*
G37*
G04 #@! TD.AperFunction*
G04 #@! TA.AperFunction,Conductor*
G36*
X57315677Y-62219685D02*
G01*
X57336319Y-62236319D01*
X57363681Y-62263681D01*
X57397166Y-62325004D01*
X57400000Y-62351362D01*
X57400000Y-64351854D01*
X57398738Y-64369500D01*
X57394353Y-64399999D01*
X57398738Y-64430498D01*
X57400000Y-64448145D01*
X57400000Y-64499999D01*
X57407412Y-64517894D01*
X57411856Y-64534090D01*
X57412337Y-64533949D01*
X57414835Y-64542457D01*
X57474623Y-64673373D01*
X57568872Y-64782143D01*
X57689947Y-64859953D01*
X57758685Y-64880136D01*
X57811431Y-64911431D01*
X58963681Y-66063681D01*
X58997166Y-66125004D01*
X59000000Y-66151362D01*
X59000000Y-69548638D01*
X58980315Y-69615677D01*
X58963681Y-69636319D01*
X58036319Y-70563681D01*
X57974996Y-70597166D01*
X57948638Y-70600000D01*
X55651362Y-70600000D01*
X55584323Y-70580315D01*
X55563681Y-70563681D01*
X54936319Y-69936319D01*
X54902834Y-69874996D01*
X54900000Y-69848638D01*
X54900000Y-65951362D01*
X54919685Y-65884323D01*
X54936319Y-65863681D01*
X56600000Y-64200000D01*
X56600000Y-62351362D01*
X56619685Y-62284323D01*
X56636319Y-62263681D01*
X56663681Y-62236319D01*
X56725004Y-62202834D01*
X56751362Y-62200000D01*
X57248638Y-62200000D01*
X57315677Y-62219685D01*
G37*
G04 #@! TD.AperFunction*
D25*
X32000000Y-91000000D02*
X35500000Y-91000000D01*
X55502694Y-75500000D02*
G75*
G02*
X39691306Y-75500000I-7905694J0D01*
G01*
X39691306Y-75500000D02*
G75*
G02*
X55502694Y-75500000I7905694J0D01*
G01*
X64900000Y-20000000D02*
X64900000Y-89000000D01*
X39200000Y-106000000D02*
X59400000Y-106000000D01*
X35500000Y-95700000D02*
X39200000Y-95700000D01*
X39200000Y-95700000D02*
X39200000Y-106000000D01*
X30000000Y-20000000D02*
X64900000Y-20000000D01*
X62900000Y-91000000D02*
X59400000Y-91000000D01*
X64900000Y-89000000D02*
X62900000Y-91000000D01*
D26*
X30000000Y-89000000D02*
X32000000Y-91000000D01*
D25*
X35500000Y-91000000D02*
X35500000Y-95700000D01*
X30000000Y-20000000D02*
X30000000Y-89000000D01*
X59400000Y-106000000D02*
X59400000Y-91000000D01*
M02*
