M48
; DRILL file {KiCad 8.0.2} date 2024-09-20T16:52:23+0300
; FORMAT={-:-/ absolute / metric / decimal}
; #@! TF.CreationDate,2024-09-20T16:52:23+03:00
; #@! TF.GenerationSoftware,Kicad,Pcbnew,8.0.2
; #@! TF.FileFunction,Plated,1,2,PTH
FMAT,2
METRIC
; #@! TA.AperFunction,Plated,PTH,ComponentDrill
T1C0.300
; #@! TA.AperFunction,Plated,PTH,ViaDrill
T2C0.350
; #@! TA.AperFunction,Plated,PTH,ViaDrill
T3C0.400
; #@! TA.AperFunction,Plated,PTH,ComponentDrill
T4C0.700
; #@! TA.AperFunction,Plated,PTH,ComponentDrill
T5C0.800
; #@! TA.AperFunction,Plated,PTH,ComponentDrill
T6C1.016
%
G90
G05
T1
X50.55Y-23.15
X50.55Y-24.6
X50.55Y-26.05
X52.0Y-23.15
X52.0Y-24.6
X52.0Y-26.05
X53.45Y-23.15
X53.45Y-24.6
X53.45Y-26.05
T2
X31.0Y-21.7
X31.7Y-25.5
X32.2Y-63.5
X32.3Y-75.3
X32.4Y-79.8
X32.6Y-58.6
X32.7Y-28.3
X32.7Y-55.8
X33.0Y-67.1
X33.3Y-38.0
X33.8Y-28.4
X33.8Y-32.8
X33.9Y-43.4
X34.1Y-30.5
X34.2Y-77.0
X34.5Y-47.9
X34.6Y-29.7
X34.9Y-64.2
X35.3Y-31.7
X35.3Y-54.7
X35.3Y-56.7
X35.3Y-59.4
X35.5Y-24.7
X36.1Y-36.1
X36.1Y-40.2
X36.3Y-23.0
X36.4Y-32.8
X36.5Y-50.1
X37.0Y-24.05
X37.2Y-27.0
X37.2Y-28.4
X37.3Y-45.0
X37.6Y-38.9
X37.9Y-82.5
X38.0Y-40.9
X38.0Y-77.3
X38.5Y-50.0
X38.7Y-27.0
X38.7Y-28.4
X38.75Y-46.4
X39.0Y-88.6
X39.1Y-51.6
X39.1Y-83.6
X39.5Y-95.1
X39.6Y-45.9
X39.9Y-69.8
X40.1Y-44.9
X40.1Y-99.6
X40.4Y-103.4
X40.5Y-31.2
X40.5Y-36.0
X40.5Y-42.6
X40.9Y-88.4
X41.0Y-21.8
X41.1Y-24.575
X41.3Y-53.5
X41.4Y-48.327
X42.2Y-52.0
X42.6Y-26.2
X42.7Y-48.4
X42.7Y-95.6
X43.4Y-25.7
X44.2Y-98.0
X44.6Y-46.8
X44.8Y-28.0
X45.4Y-96.7
X45.5Y-90.4
X45.8Y-20.6
X46.2Y-32.2
X46.7Y-47.7
X46.8Y-20.9
X47.0Y-91.1
X47.1Y-98.3
X47.6Y-103.9
X48.7Y-28.9
X48.8Y-28.0
X49.3Y-21.9
X49.6Y-28.7
X50.2Y-59.0
X50.2Y-60.2
X50.2Y-61.4
X50.2Y-62.4
X50.2Y-63.4
X50.6Y-46.3
X50.7Y-37.1
X50.72Y-51.9
X51.0Y-28.1
X51.2Y-32.3
X52.4Y-28.2
X52.72Y-36.3
X52.8Y-21.2
X53.2Y-103.5
X53.4Y-20.5
X53.7Y-54.273
X53.8Y-29.9
X53.8Y-31.7
X53.9Y-47.2
X54.2Y-20.8
X54.5Y-22.2
X54.5Y-39.0
X54.6Y-43.1
X54.6Y-45.1
X54.7Y-40.9
X54.9Y-60.0
X55.1Y-31.8
X55.6Y-21.5
X55.6Y-98.4
X55.7Y-24.7
X55.9Y-26.6
X56.2Y-35.8
X56.4Y-65.5
X56.4Y-87.8
X56.7Y-96.2
X57.0Y-64.6
X57.0Y-69.6
X57.2Y-51.2
X57.3Y-33.3
X57.4Y-65.5
X57.8Y-49.8
X57.8Y-54.3
X57.9Y-64.4
X58.0Y-56.5
X58.2Y-61.8
X58.4Y-25.7
X58.7Y-83.2
X58.8Y-63.4
X59.0Y-87.3
X59.1Y-59.3
X59.1Y-84.1
X59.2Y-31.0
X59.6Y-33.3
X59.7Y-78.9
X60.3Y-72.0
X60.5Y-45.3
X60.525Y-40.2
X60.8Y-50.0
X60.9Y-71.4
X61.9Y-70.0
X62.25Y-57.1
X62.7Y-81.4
X62.9Y-82.4
X62.973Y-73.9
X63.0Y-46.1
X63.1Y-34.6
X64.1Y-53.9
X64.2Y-33.8
X64.2Y-35.6
X64.3Y-40.2
T3
X59.4Y-21.5
T4
X38.785Y-85.38
X38.785Y-93.0
X43.864Y-85.38
X43.864Y-93.0
X48.944Y-85.38
X48.944Y-93.0
X56.564Y-85.38
X56.564Y-93.0
T5
X30.1Y-23.4
X30.1Y-25.8
X30.1Y-28.2
X30.1Y-30.6
X30.1Y-33.0
X30.1Y-35.6
X32.217Y-20.2
X34.617Y-20.2
X37.017Y-20.2
X39.417Y-20.2
X41.817Y-20.2
X44.217Y-20.2
X64.7Y-23.4
X64.7Y-25.8
X64.7Y-28.2
T6
X41.1Y-101.6
X43.64Y-101.6
X46.18Y-101.6
X48.72Y-101.6
X51.26Y-101.6
X53.8Y-101.6
M30
