G04*
G04 #@! TF.GenerationSoftware,Altium Limited,Altium Designer,26.5.1 (12)*
G04*
G04 Layer_Color=8388736*
G04 Board_Origin=0|0*
%FSLAX44Y44*%
%MOMM*%
G71*
G04*
G04 #@! TF.SameCoordinates,86134935-5161-41E9-9ADC-20EAF1A2777D*
G04*
G04*
G04 #@! TF.FilePolarity,Negative*
G04*
G01*
G75*
G04:AMPARAMS|DCode=11|XSize=0.8mm|YSize=0.95mm|CornerRadius=0.1mm|HoleSize=0mm|Usage=FLASHONLY|Rotation=180.000|XOffset=0mm|YOffset=0mm|HoleType=Round|Shape=RoundedRectangle|*
%AMROUNDEDRECTD11*
21,1,0.8000,0.7500,0,0,180.0*
21,1,0.6000,0.9500,0,0,180.0*
1,1,0.2000,-0.3000,0.3750*
1,1,0.2000,0.3000,0.3750*
1,1,0.2000,0.3000,-0.3750*
1,1,0.2000,-0.3000,-0.3750*
%
%ADD11ROUNDEDRECTD11*%
%ADD12R,1.7000X1.7000*%
%ADD13C,1.7000*%
%ADD14C,3.0000*%
%ADD15C,2.0000*%
G04:AMPARAMS|DCode=16|XSize=2.1mm|YSize=3.6mm|CornerRadius=1.05mm|HoleSize=0mm|Usage=FLASHONLY|Rotation=90.000|XOffset=0mm|YOffset=0mm|HoleType=Round|Shape=RoundedRectangle|*
%AMROUNDEDRECTD16*
21,1,2.1000,1.5000,0,0,90.0*
21,1,0.0000,3.6000,0,0,90.0*
1,1,2.1000,0.7500,0.0000*
1,1,2.1000,0.7500,0.0000*
1,1,2.1000,-0.7500,0.0000*
1,1,2.1000,-0.7500,0.0000*
%
%ADD16ROUNDEDRECTD16*%
G04:AMPARAMS|DCode=17|XSize=2.1mm|YSize=3.6mm|CornerRadius=0.126mm|HoleSize=0mm|Usage=FLASHONLY|Rotation=90.000|XOffset=0mm|YOffset=0mm|HoleType=Round|Shape=RoundedRectangle|*
%AMROUNDEDRECTD17*
21,1,2.1000,3.3480,0,0,90.0*
21,1,1.8480,3.6000,0,0,90.0*
1,1,0.2520,1.6740,0.9240*
1,1,0.2520,1.6740,-0.9240*
1,1,0.2520,-1.6740,-0.9240*
1,1,0.2520,-1.6740,0.9240*
%
%ADD17ROUNDEDRECTD17*%
%ADD18C,2.4000*%
G04:AMPARAMS|DCode=19|XSize=2.4mm|YSize=2.4mm|CornerRadius=0.12mm|HoleSize=0mm|Usage=FLASHONLY|Rotation=270.000|XOffset=0mm|YOffset=0mm|HoleType=Round|Shape=RoundedRectangle|*
%AMROUNDEDRECTD19*
21,1,2.4000,2.1600,0,0,270.0*
21,1,2.1600,2.4000,0,0,270.0*
1,1,0.2400,-1.0800,-1.0800*
1,1,0.2400,-1.0800,1.0800*
1,1,0.2400,1.0800,1.0800*
1,1,0.2400,1.0800,-1.0800*
%
%ADD19ROUNDEDRECTD19*%
D11*
X221030Y1287898D02*
D03*
X237530D02*
D03*
X366480D02*
D03*
X382980D02*
D03*
X534230Y1288898D02*
D03*
X517730D02*
D03*
X452980Y1314398D02*
D03*
X436480D02*
D03*
D12*
X411880Y3271398D02*
D03*
X411480Y1288598D02*
D03*
D13*
X437280Y3271398D02*
D03*
X462680D02*
D03*
X488080D02*
D03*
X487680Y1288598D02*
D03*
X462280D02*
D03*
X436880D02*
D03*
D14*
X229980Y1441398D02*
D03*
X699980Y1336398D02*
D03*
X199980Y3246398D02*
D03*
X699980Y3141398D02*
D03*
D15*
X392980Y3001361D02*
D03*
Y2963861D02*
D03*
Y3038861D02*
D03*
X139580D02*
D03*
Y2963861D02*
D03*
X239980Y3038861D02*
D03*
Y2963861D02*
D03*
X189980Y3038861D02*
D03*
Y2963861D02*
D03*
X507280Y2894125D02*
D03*
Y2931625D02*
D03*
Y2856625D02*
D03*
X760680D02*
D03*
Y2931625D02*
D03*
X660280Y2856625D02*
D03*
Y2931625D02*
D03*
X710280Y2856625D02*
D03*
Y2931625D02*
D03*
X507280Y1872316D02*
D03*
Y1909816D02*
D03*
Y1834816D02*
D03*
X760680D02*
D03*
Y1909816D02*
D03*
X660280Y1834816D02*
D03*
Y1909816D02*
D03*
X710280Y1834816D02*
D03*
Y1909816D02*
D03*
X392980Y2563252D02*
D03*
Y2525752D02*
D03*
Y2600752D02*
D03*
X139580D02*
D03*
Y2525752D02*
D03*
X239980Y2600752D02*
D03*
Y2525752D02*
D03*
X189980Y2600752D02*
D03*
Y2525752D02*
D03*
X392980Y2125143D02*
D03*
Y2087643D02*
D03*
Y2162643D02*
D03*
X139580D02*
D03*
Y2087643D02*
D03*
X239980Y2162643D02*
D03*
Y2087643D02*
D03*
X189980Y2162643D02*
D03*
Y2087643D02*
D03*
X392980Y2709289D02*
D03*
Y2671789D02*
D03*
Y2746789D02*
D03*
X139580D02*
D03*
Y2671789D02*
D03*
X239980Y2746789D02*
D03*
Y2671789D02*
D03*
X189980Y2746789D02*
D03*
Y2671789D02*
D03*
X392980Y1979107D02*
D03*
Y1941607D02*
D03*
Y2016607D02*
D03*
X139580D02*
D03*
Y1941607D02*
D03*
X239980Y2016607D02*
D03*
Y1941607D02*
D03*
X189980Y2016607D02*
D03*
Y1941607D02*
D03*
X392980Y1687034D02*
D03*
Y1649534D02*
D03*
Y1724534D02*
D03*
X139580D02*
D03*
Y1649534D02*
D03*
X239980Y1724534D02*
D03*
Y1649534D02*
D03*
X189980Y1724534D02*
D03*
Y1649534D02*
D03*
X507280Y1726343D02*
D03*
Y1763843D02*
D03*
Y1688843D02*
D03*
X760680D02*
D03*
Y1763843D02*
D03*
X660280Y1688843D02*
D03*
Y1763843D02*
D03*
X710280Y1688843D02*
D03*
Y1763843D02*
D03*
X507280Y2164261D02*
D03*
Y2201761D02*
D03*
Y2126761D02*
D03*
X760680D02*
D03*
Y2201761D02*
D03*
X660280Y2126761D02*
D03*
Y2201761D02*
D03*
X710280Y2126761D02*
D03*
Y2201761D02*
D03*
X392980Y3147398D02*
D03*
Y3109898D02*
D03*
Y3184898D02*
D03*
X139580D02*
D03*
Y3109898D02*
D03*
X239980Y3184898D02*
D03*
Y3109898D02*
D03*
X189980Y3184898D02*
D03*
Y3109898D02*
D03*
X392980Y1833071D02*
D03*
Y1795571D02*
D03*
Y1870571D02*
D03*
X139580D02*
D03*
Y1795571D02*
D03*
X239980Y1870571D02*
D03*
Y1795571D02*
D03*
X189980Y1870571D02*
D03*
Y1795571D02*
D03*
X507280Y2456207D02*
D03*
Y2493707D02*
D03*
Y2418707D02*
D03*
X760680D02*
D03*
Y2493707D02*
D03*
X660280Y2418707D02*
D03*
Y2493707D02*
D03*
X710280Y2418707D02*
D03*
Y2493707D02*
D03*
X507280Y2018289D02*
D03*
Y2055789D02*
D03*
Y1980789D02*
D03*
X760680D02*
D03*
Y2055789D02*
D03*
X660280Y1980789D02*
D03*
Y2055789D02*
D03*
X710280Y1980789D02*
D03*
Y2055789D02*
D03*
X507280Y2602180D02*
D03*
Y2639680D02*
D03*
Y2564680D02*
D03*
X760680D02*
D03*
Y2639680D02*
D03*
X660280Y2564680D02*
D03*
Y2639680D02*
D03*
X710280Y2564680D02*
D03*
Y2639680D02*
D03*
X392980Y2271180D02*
D03*
Y2233680D02*
D03*
Y2308680D02*
D03*
X139580D02*
D03*
Y2233680D02*
D03*
X239980Y2308680D02*
D03*
Y2233680D02*
D03*
X189980Y2308680D02*
D03*
Y2233680D02*
D03*
X507280Y1434398D02*
D03*
Y1471898D02*
D03*
Y1396898D02*
D03*
X760680D02*
D03*
Y1471898D02*
D03*
X660280Y1396898D02*
D03*
Y1471898D02*
D03*
X710280Y1396898D02*
D03*
Y1471898D02*
D03*
X392980Y2855325D02*
D03*
Y2817825D02*
D03*
Y2892825D02*
D03*
X139580D02*
D03*
Y2817825D02*
D03*
X239980Y2892825D02*
D03*
Y2817825D02*
D03*
X189980Y2892825D02*
D03*
Y2817825D02*
D03*
X392980Y1540998D02*
D03*
Y1503498D02*
D03*
Y1578498D02*
D03*
X139580D02*
D03*
Y1503498D02*
D03*
X239980Y1578498D02*
D03*
Y1503498D02*
D03*
X189980Y1578498D02*
D03*
Y1503498D02*
D03*
X392980Y2417216D02*
D03*
Y2379716D02*
D03*
Y2454716D02*
D03*
X139580D02*
D03*
Y2379716D02*
D03*
X239980Y2454716D02*
D03*
Y2379716D02*
D03*
X189980Y2454716D02*
D03*
Y2379716D02*
D03*
X507280Y1580370D02*
D03*
Y1617870D02*
D03*
Y1542870D02*
D03*
X760680D02*
D03*
Y1617870D02*
D03*
X660280Y1542870D02*
D03*
Y1617870D02*
D03*
X710280Y1542870D02*
D03*
Y1617870D02*
D03*
X507280Y2310234D02*
D03*
Y2347734D02*
D03*
Y2272734D02*
D03*
X760680D02*
D03*
Y2347734D02*
D03*
X660280Y2272734D02*
D03*
Y2347734D02*
D03*
X710280Y2272734D02*
D03*
Y2347734D02*
D03*
X507280Y2748152D02*
D03*
Y2785652D02*
D03*
Y2710652D02*
D03*
X760680D02*
D03*
Y2785652D02*
D03*
X660280Y2710652D02*
D03*
Y2785652D02*
D03*
X710280Y2710652D02*
D03*
Y2785652D02*
D03*
X507280Y3040098D02*
D03*
Y3077598D02*
D03*
Y3002598D02*
D03*
X760680D02*
D03*
Y3077598D02*
D03*
X660280Y3002598D02*
D03*
Y3077598D02*
D03*
X710280Y3002598D02*
D03*
Y3077598D02*
D03*
D16*
X832280Y1897716D02*
D03*
Y2335634D02*
D03*
X67780Y2829925D02*
D03*
X832280Y2773553D02*
D03*
Y3065498D02*
D03*
X67780Y1515598D02*
D03*
X832280Y2919525D02*
D03*
Y2481607D02*
D03*
X67780Y2391816D02*
D03*
X832280Y1751743D02*
D03*
X67780Y2683889D02*
D03*
X832280Y1459798D02*
D03*
Y1605771D02*
D03*
X67780Y1807670D02*
D03*
Y2099743D02*
D03*
Y2245780D02*
D03*
Y3121998D02*
D03*
X832280Y2043689D02*
D03*
X67780Y2537852D02*
D03*
X832280Y2627580D02*
D03*
X67780Y1953707D02*
D03*
X832280Y2189662D02*
D03*
X67780Y2975962D02*
D03*
Y1661634D02*
D03*
D17*
X832280Y1846916D02*
D03*
Y2284834D02*
D03*
X67780Y2880725D02*
D03*
X832280Y2722752D02*
D03*
Y3014698D02*
D03*
X67780Y1566398D02*
D03*
X832280Y2868725D02*
D03*
Y2430807D02*
D03*
X67780Y2442616D02*
D03*
X832280Y1700943D02*
D03*
X67780Y2734689D02*
D03*
X832280Y1408998D02*
D03*
Y1554971D02*
D03*
X67780Y1858470D02*
D03*
Y2150543D02*
D03*
Y2296580D02*
D03*
Y3172798D02*
D03*
X832280Y1992889D02*
D03*
X67780Y2588652D02*
D03*
X832280Y2576779D02*
D03*
X67780Y2004507D02*
D03*
X832280Y2138862D02*
D03*
X67780Y3026761D02*
D03*
Y1712434D02*
D03*
D18*
X597280Y3216137D02*
D03*
X799280D02*
D03*
D19*
X597280Y3266137D02*
D03*
X799280D02*
D03*
M02*
