G04*
G04 #@! TF.GenerationSoftware,Altium Limited,Altium Designer,26.5.1 (12)*
G04*
G04 Layer_Physical_Order=1*
G04 Layer_Color=255*
G04 Board_Origin=0|0*
%FSLAX44Y44*%
%MOMM*%
G71*
G04*
G04 #@! TF.SameCoordinates,75EFAC43-1628-424D-8E1A-596EA3B04155*
G04*
G04*
G04 #@! TF.FilePolarity,Positive*
G04*
G01*
G75*
%ADD10C,0.2540*%
G04:AMPARAMS|DCode=11|XSize=4mm|YSize=2.5mm|CornerRadius=0.125mm|HoleSize=0mm|Usage=FLASHONLY|Rotation=270.000|XOffset=0mm|YOffset=0mm|HoleType=Round|Shape=RoundedRectangle|*
%AMROUNDEDRECTD11*
21,1,4.0000,2.2500,0,0,270.0*
21,1,3.7500,2.5000,0,0,270.0*
1,1,0.2500,-1.1250,-1.8750*
1,1,0.2500,-1.1250,1.8750*
1,1,0.2500,1.1250,1.8750*
1,1,0.2500,1.1250,-1.8750*
%
%ADD11ROUNDEDRECTD11*%
G04:AMPARAMS|DCode=12|XSize=4mm|YSize=2.5mm|CornerRadius=0.125mm|HoleSize=0mm|Usage=FLASHONLY|Rotation=180.000|XOffset=0mm|YOffset=0mm|HoleType=Round|Shape=RoundedRectangle|*
%AMROUNDEDRECTD12*
21,1,4.0000,2.2500,0,0,180.0*
21,1,3.7500,2.5000,0,0,180.0*
1,1,0.2500,-1.8750,1.1250*
1,1,0.2500,1.8750,1.1250*
1,1,0.2500,1.8750,-1.1250*
1,1,0.2500,-1.8750,-1.1250*
%
%ADD12ROUNDEDRECTD12*%
%ADD13C,3.0000*%
G04:AMPARAMS|DCode=14|XSize=2.1mm|YSize=3.6mm|CornerRadius=0.126mm|HoleSize=0mm|Usage=FLASHONLY|Rotation=90.000|XOffset=0mm|YOffset=0mm|HoleType=Round|Shape=RoundedRectangle|*
%AMROUNDEDRECTD14*
21,1,2.1000,3.3480,0,0,90.0*
21,1,1.8480,3.6000,0,0,90.0*
1,1,0.2520,1.6740,0.9240*
1,1,0.2520,1.6740,-0.9240*
1,1,0.2520,-1.6740,-0.9240*
1,1,0.2520,-1.6740,0.9240*
%
%ADD14ROUNDEDRECTD14*%
G04:AMPARAMS|DCode=15|XSize=2.1mm|YSize=3.6mm|CornerRadius=1.05mm|HoleSize=0mm|Usage=FLASHONLY|Rotation=90.000|XOffset=0mm|YOffset=0mm|HoleType=Round|Shape=RoundedRectangle|*
%AMROUNDEDRECTD15*
21,1,2.1000,1.5000,0,0,90.0*
21,1,0.0000,3.6000,0,0,90.0*
1,1,2.1000,0.7500,0.0000*
1,1,2.1000,0.7500,0.0000*
1,1,2.1000,-0.7500,0.0000*
1,1,2.1000,-0.7500,0.0000*
%
%ADD15ROUNDEDRECTD15*%
%ADD16C,2.0000*%
%ADD17R,1.7000X1.7000*%
%ADD18C,1.7000*%
%ADD19C,0.3000*%
%ADD20C,3.0000*%
%ADD21C,1.0000*%
%ADD22C,0.8000*%
%ADD23C,0.6000*%
%ADD24C,0.8000*%
%ADD25C,1.0000*%
%ADD26C,0.5000*%
%ADD27C,0.7000*%
%ADD28C,0.6000*%
G36*
X965668Y1820547D02*
X969583Y1815980D01*
X970471Y1813578D01*
Y1801943D01*
X962583D01*
Y1788443D01*
Y1774943D01*
X970471D01*
Y1732943D01*
X966471Y1728943D01*
X943721D01*
X939721Y1732943D01*
Y1754943D01*
X935721Y1758943D01*
X860539D01*
X856540Y1763011D01*
X856471Y1813464D01*
X857434Y1816067D01*
X861313Y1820592D01*
X864251Y1821943D01*
X962631D01*
X965668Y1820547D01*
D02*
G37*
G36*
X1124662Y1837695D02*
X1124182Y1719594D01*
X1090857Y1686269D01*
X1089531Y1684285D01*
X1089065Y1681943D01*
Y1620801D01*
Y1494313D01*
X1088475Y1029343D01*
X1106683Y1029301D01*
Y881135D01*
X889183D01*
Y1028031D01*
X890953Y1029797D01*
X916894Y1029737D01*
X916942Y1106500D01*
X916952Y1106551D01*
X917183Y1107107D01*
Y1107710D01*
X917300Y1108301D01*
Y1276301D01*
Y1447801D01*
Y1617301D01*
Y1756904D01*
X934876D01*
X937682Y1754099D01*
Y1732943D01*
X937837Y1732163D01*
X938279Y1731501D01*
X938279Y1731501D01*
X942279Y1727501D01*
X942941Y1727059D01*
X943721Y1726904D01*
X966471D01*
X967251Y1727059D01*
X967913Y1727501D01*
X971913Y1731501D01*
X971913Y1731501D01*
X972355Y1732163D01*
X972510Y1732943D01*
Y1774943D01*
X972355Y1775724D01*
X971913Y1776385D01*
X970583Y1777943D01*
Y1798943D01*
X971913Y1800501D01*
X972355Y1801163D01*
X972510Y1801943D01*
Y1813578D01*
X972440Y1813931D01*
X972384Y1814286D01*
X971495Y1816687D01*
X971307Y1816994D01*
X971131Y1817307D01*
X967217Y1821874D01*
X967185Y1821898D01*
X967165Y1821932D01*
X966874Y1822143D01*
X966591Y1822365D01*
X966553Y1822376D01*
X966520Y1822399D01*
X963483Y1823796D01*
X963445Y1823805D01*
X963412Y1823827D01*
X963059Y1823898D01*
X962710Y1823981D01*
X962670Y1823975D01*
X962631Y1823983D01*
X864251D01*
X863766Y1824928D01*
X863205Y1826234D01*
X863183Y1826319D01*
Y1839467D01*
X1122898D01*
X1124662Y1837695D01*
D02*
G37*
G36*
X1186471Y1759943D02*
Y1720943D01*
X1182471Y1716943D01*
X1136826D01*
X1134642Y1719321D01*
X1135741Y1721821D01*
X1150183D01*
Y1739444D01*
Y1757066D01*
X1133933D01*
X1133132Y1757717D01*
X1133020Y1760492D01*
X1136471Y1763943D01*
X1182471D01*
X1186471Y1759943D01*
D02*
G37*
%LPC*%
G36*
X888721Y1813816D02*
X879971D01*
Y1791193D01*
X895094D01*
Y1807443D01*
X894608Y1809882D01*
X893227Y1811949D01*
X891160Y1813331D01*
X888721Y1813816D01*
D02*
G37*
G36*
X874971D02*
X866221D01*
X863782Y1813331D01*
X861715Y1811949D01*
X860334Y1809882D01*
X859849Y1807443D01*
Y1791193D01*
X874971D01*
Y1813816D01*
D02*
G37*
G36*
X957583Y1801943D02*
X946583D01*
Y1790943D01*
X957583D01*
Y1801943D01*
D02*
G37*
G36*
Y1785943D02*
X946583D01*
Y1774943D01*
X957583D01*
Y1785943D01*
D02*
G37*
G36*
X895094Y1786193D02*
X879971D01*
Y1763571D01*
X888721D01*
X891160Y1764056D01*
X893227Y1765437D01*
X894608Y1767505D01*
X895094Y1769943D01*
Y1786193D01*
D02*
G37*
G36*
X874971D02*
X859849D01*
Y1769943D01*
X860334Y1767505D01*
X861715Y1765437D01*
X863782Y1764056D01*
X866221Y1763571D01*
X874971D01*
Y1786193D01*
D02*
G37*
G36*
X1012397Y1799943D02*
X1009369D01*
X1006444Y1799160D01*
X1003822Y1797646D01*
X1003812Y1797636D01*
X1010883Y1790565D01*
X1017954Y1797636D01*
X1017944Y1797646D01*
X1015322Y1799160D01*
X1012397Y1799943D01*
D02*
G37*
G36*
X1001691Y1795514D02*
X1001681Y1795504D01*
X1000167Y1792882D01*
X999383Y1789957D01*
Y1786929D01*
X1000167Y1784005D01*
X1001681Y1781382D01*
X1001691Y1781372D01*
X1008762Y1788443D01*
X1001691Y1795514D01*
D02*
G37*
G36*
X1020075Y1795514D02*
X1013004Y1788443D01*
X1020075Y1781372D01*
X1020085Y1781382D01*
X1021599Y1784005D01*
X1022383Y1786929D01*
Y1789957D01*
X1021599Y1792882D01*
X1020085Y1795504D01*
X1020075Y1795514D01*
D02*
G37*
G36*
X1037665Y1798943D02*
X1034901D01*
X1032230Y1798228D01*
X1029836Y1796845D01*
X1027881Y1794890D01*
X1026498Y1792496D01*
X1025783Y1789826D01*
Y1787061D01*
X1026498Y1784391D01*
X1027881Y1781996D01*
X1029836Y1780041D01*
X1032230Y1778659D01*
X1034901Y1777943D01*
X1037665D01*
X1040336Y1778659D01*
X1042730Y1780041D01*
X1044685Y1781996D01*
X1046067Y1784391D01*
X1046783Y1787061D01*
Y1789826D01*
X1046067Y1792496D01*
X1044685Y1794890D01*
X1042730Y1796845D01*
X1040336Y1798228D01*
X1037665Y1798943D01*
D02*
G37*
G36*
X1010883Y1786322D02*
X1003812Y1779251D01*
X1003822Y1779241D01*
X1006444Y1777727D01*
X1009369Y1776943D01*
X1012397D01*
X1015322Y1777727D01*
X1017944Y1779241D01*
X1017954Y1779251D01*
X1010883Y1786322D01*
D02*
G37*
G36*
X1091433Y1755027D02*
X1074183D01*
Y1740943D01*
X1095766D01*
Y1750693D01*
X1095436Y1752352D01*
X1094497Y1753757D01*
X1093091Y1754697D01*
X1091433Y1755027D01*
D02*
G37*
G36*
X1071183D02*
X1053933D01*
X1052275Y1754697D01*
X1050869Y1753757D01*
X1049930Y1752352D01*
X1049600Y1750693D01*
Y1740943D01*
X1071183D01*
Y1755027D01*
D02*
G37*
G36*
X1095766Y1737944D02*
X1074183D01*
Y1723860D01*
X1091433D01*
X1093091Y1724190D01*
X1094497Y1725129D01*
X1095436Y1726535D01*
X1095766Y1728193D01*
Y1737944D01*
D02*
G37*
G36*
X1071183D02*
X1049600D01*
Y1728193D01*
X1049930Y1726535D01*
X1050869Y1725129D01*
X1052275Y1724190D01*
X1053933Y1723860D01*
X1071183D01*
Y1737944D01*
D02*
G37*
G36*
X986865Y1798943D02*
X984101D01*
X981430Y1798228D01*
X979036Y1796845D01*
X977081Y1794890D01*
X975698Y1792496D01*
X974983Y1789826D01*
Y1787061D01*
X975698Y1784391D01*
X977081Y1781996D01*
X978423Y1780654D01*
Y1755963D01*
X978811Y1754012D01*
X979916Y1752358D01*
X1064585Y1667689D01*
Y997913D01*
X1054071Y987399D01*
X1028917D01*
X1027766Y989899D01*
X1028538Y990801D01*
X1030328D01*
X1031982Y991486D01*
X1033558Y992544D01*
X1035134Y991486D01*
X1036788Y990801D01*
X1038578D01*
X1040232Y991486D01*
X1041498Y992752D01*
X1042183Y994406D01*
Y996196D01*
X1041498Y997850D01*
X1040232Y999116D01*
X1038578Y999801D01*
X1038537D01*
Y1016281D01*
X1038283Y1017557D01*
X1037561Y1018638D01*
X1029517Y1026682D01*
Y1066997D01*
X1032017Y1067326D01*
X1032289Y1066311D01*
X1033869Y1063575D01*
X1036103Y1061341D01*
X1038839Y1059761D01*
X1041891Y1058943D01*
X1045051D01*
X1048103Y1059761D01*
X1050839Y1061341D01*
X1053074Y1063575D01*
X1054653Y1066311D01*
X1055471Y1069363D01*
Y1072523D01*
X1054653Y1075575D01*
X1053074Y1078312D01*
X1050839Y1080546D01*
X1048103Y1082126D01*
X1045051Y1082943D01*
X1041891D01*
X1038839Y1082126D01*
X1036103Y1080546D01*
X1033869Y1078312D01*
X1032289Y1075575D01*
X1032017Y1074560D01*
X1029517Y1074890D01*
Y1104497D01*
X1032017Y1104826D01*
X1032289Y1103811D01*
X1033869Y1101075D01*
X1036103Y1098841D01*
X1038839Y1097261D01*
X1041891Y1096443D01*
X1045051D01*
X1048103Y1097261D01*
X1050839Y1098841D01*
X1053074Y1101075D01*
X1054653Y1103811D01*
X1055471Y1106863D01*
Y1110023D01*
X1054653Y1113075D01*
X1053074Y1115812D01*
X1050839Y1118046D01*
X1048103Y1119626D01*
X1045051Y1120443D01*
X1041891D01*
X1038839Y1119626D01*
X1036103Y1118046D01*
X1033869Y1115812D01*
X1032289Y1113075D01*
X1032017Y1112060D01*
X1029517Y1112390D01*
Y1141997D01*
X1032017Y1142326D01*
X1032289Y1141311D01*
X1033869Y1138575D01*
X1036103Y1136341D01*
X1038839Y1134761D01*
X1041891Y1133943D01*
X1045051D01*
X1048103Y1134761D01*
X1050839Y1136341D01*
X1053074Y1138575D01*
X1054653Y1141311D01*
X1055471Y1144363D01*
Y1147523D01*
X1054653Y1150575D01*
X1053074Y1153312D01*
X1050839Y1155546D01*
X1048103Y1157126D01*
X1045051Y1157943D01*
X1041891D01*
X1038839Y1157126D01*
X1036103Y1155546D01*
X1033869Y1153312D01*
X1032289Y1150575D01*
X1032017Y1149560D01*
X1029517Y1149890D01*
Y1234330D01*
X1032017Y1234660D01*
X1032289Y1233645D01*
X1033869Y1230909D01*
X1036103Y1228674D01*
X1038839Y1227094D01*
X1041891Y1226277D01*
X1045051D01*
X1048103Y1227094D01*
X1050839Y1228674D01*
X1053074Y1230909D01*
X1054653Y1233645D01*
X1055471Y1236697D01*
Y1239856D01*
X1054653Y1242908D01*
X1053074Y1245645D01*
X1050839Y1247879D01*
X1048103Y1249459D01*
X1045051Y1250277D01*
X1041891D01*
X1038839Y1249459D01*
X1036103Y1247879D01*
X1033869Y1245645D01*
X1032289Y1242908D01*
X1032017Y1241894D01*
X1029517Y1242223D01*
Y1271830D01*
X1032017Y1272160D01*
X1032289Y1271145D01*
X1033869Y1268409D01*
X1036103Y1266174D01*
X1038839Y1264594D01*
X1041891Y1263777D01*
X1045051D01*
X1048103Y1264594D01*
X1050839Y1266174D01*
X1053074Y1268409D01*
X1054653Y1271145D01*
X1055471Y1274197D01*
Y1277356D01*
X1054653Y1280408D01*
X1053074Y1283145D01*
X1050839Y1285379D01*
X1048103Y1286959D01*
X1045051Y1287777D01*
X1041891D01*
X1038839Y1286959D01*
X1036103Y1285379D01*
X1033869Y1283145D01*
X1032289Y1280408D01*
X1032017Y1279394D01*
X1029517Y1279723D01*
Y1309330D01*
X1032017Y1309659D01*
X1032289Y1308645D01*
X1033869Y1305909D01*
X1036103Y1303674D01*
X1038839Y1302095D01*
X1041891Y1301277D01*
X1045051D01*
X1048103Y1302095D01*
X1050839Y1303674D01*
X1053074Y1305909D01*
X1054653Y1308645D01*
X1055471Y1311697D01*
Y1314857D01*
X1054653Y1317908D01*
X1053074Y1320645D01*
X1050839Y1322879D01*
X1048103Y1324459D01*
X1045051Y1325277D01*
X1041891D01*
X1038839Y1324459D01*
X1036103Y1322879D01*
X1033869Y1320645D01*
X1032289Y1317908D01*
X1032017Y1316894D01*
X1029517Y1317223D01*
Y1401664D01*
X1032017Y1401993D01*
X1032289Y1400978D01*
X1033869Y1398242D01*
X1036103Y1396008D01*
X1038839Y1394428D01*
X1041891Y1393610D01*
X1045051D01*
X1048103Y1394428D01*
X1050839Y1396008D01*
X1053074Y1398242D01*
X1054653Y1400978D01*
X1055471Y1404030D01*
Y1407190D01*
X1054653Y1410242D01*
X1053074Y1412978D01*
X1050839Y1415212D01*
X1048103Y1416792D01*
X1045051Y1417610D01*
X1041891D01*
X1038839Y1416792D01*
X1036103Y1415212D01*
X1033869Y1412978D01*
X1032289Y1410242D01*
X1032017Y1409227D01*
X1029517Y1409556D01*
Y1439164D01*
X1032017Y1439493D01*
X1032289Y1438478D01*
X1033869Y1435742D01*
X1036103Y1433508D01*
X1038839Y1431928D01*
X1041891Y1431110D01*
X1045051D01*
X1048103Y1431928D01*
X1050839Y1433508D01*
X1053074Y1435742D01*
X1054653Y1438478D01*
X1055471Y1441530D01*
Y1444690D01*
X1054653Y1447742D01*
X1053074Y1450478D01*
X1050839Y1452712D01*
X1048103Y1454292D01*
X1045051Y1455110D01*
X1041891D01*
X1038839Y1454292D01*
X1036103Y1452712D01*
X1033869Y1450478D01*
X1032289Y1447742D01*
X1032017Y1446727D01*
X1029517Y1447056D01*
Y1476664D01*
X1032017Y1476993D01*
X1032289Y1475978D01*
X1033869Y1473242D01*
X1036103Y1471008D01*
X1038839Y1469428D01*
X1041891Y1468610D01*
X1045051D01*
X1048103Y1469428D01*
X1050839Y1471008D01*
X1053074Y1473242D01*
X1054653Y1475978D01*
X1055471Y1479030D01*
Y1482190D01*
X1054653Y1485242D01*
X1053074Y1487978D01*
X1050839Y1490212D01*
X1048103Y1491792D01*
X1045051Y1492610D01*
X1041891D01*
X1038839Y1491792D01*
X1036103Y1490212D01*
X1033869Y1487978D01*
X1032289Y1485242D01*
X1032017Y1484227D01*
X1029517Y1484556D01*
Y1568997D01*
X1032017Y1569326D01*
X1032289Y1568311D01*
X1033869Y1565575D01*
X1036103Y1563341D01*
X1038839Y1561761D01*
X1041891Y1560943D01*
X1045051D01*
X1048103Y1561761D01*
X1050839Y1563341D01*
X1053074Y1565575D01*
X1054653Y1568311D01*
X1055471Y1571364D01*
Y1574523D01*
X1054653Y1577575D01*
X1053074Y1580311D01*
X1050839Y1582546D01*
X1048103Y1584126D01*
X1045051Y1584943D01*
X1041891D01*
X1038839Y1584126D01*
X1036103Y1582546D01*
X1033869Y1580311D01*
X1032289Y1577575D01*
X1032017Y1576561D01*
X1029517Y1576890D01*
Y1606497D01*
X1032017Y1606826D01*
X1032289Y1605811D01*
X1033869Y1603075D01*
X1036103Y1600841D01*
X1038839Y1599261D01*
X1041891Y1598443D01*
X1045051D01*
X1048103Y1599261D01*
X1050839Y1600841D01*
X1053074Y1603075D01*
X1054653Y1605811D01*
X1055471Y1608864D01*
Y1612023D01*
X1054653Y1615075D01*
X1053074Y1617811D01*
X1050839Y1620046D01*
X1048103Y1621626D01*
X1045051Y1622443D01*
X1041891D01*
X1038839Y1621626D01*
X1036103Y1620046D01*
X1033869Y1617811D01*
X1032289Y1615075D01*
X1032017Y1614061D01*
X1029517Y1614390D01*
Y1643997D01*
X1032017Y1644326D01*
X1032289Y1643311D01*
X1033869Y1640575D01*
X1036103Y1638341D01*
X1038839Y1636761D01*
X1041891Y1635943D01*
X1045051D01*
X1048103Y1636761D01*
X1050839Y1638341D01*
X1053074Y1640575D01*
X1054653Y1643311D01*
X1055471Y1646364D01*
Y1649523D01*
X1054653Y1652575D01*
X1053074Y1655311D01*
X1050839Y1657546D01*
X1048103Y1659126D01*
X1045051Y1659943D01*
X1041891D01*
X1038839Y1659126D01*
X1036103Y1657546D01*
X1033869Y1655311D01*
X1032289Y1652575D01*
X1032017Y1651561D01*
X1029517Y1651890D01*
Y1672301D01*
X1029263Y1673577D01*
X1028540Y1674658D01*
X1017040Y1686158D01*
X1015959Y1686881D01*
X1014683Y1687135D01*
X950288D01*
Y1687395D01*
X949603Y1689049D01*
X948337Y1690315D01*
X946683Y1691000D01*
X944893D01*
X943239Y1690315D01*
X941973Y1689049D01*
X941288Y1687395D01*
Y1685605D01*
X941973Y1683951D01*
X942405Y1683519D01*
X942603Y1682525D01*
X943325Y1681443D01*
X944407Y1680721D01*
X945683Y1680467D01*
X1013302D01*
X1022849Y1670920D01*
Y1664066D01*
X1020539Y1663110D01*
X1012490Y1671158D01*
X1011409Y1671881D01*
X1010133Y1672135D01*
X948713D01*
X948232Y1672616D01*
X946578Y1673301D01*
X944788D01*
X943134Y1672616D01*
X941868Y1671350D01*
X941183Y1669696D01*
Y1667906D01*
X941868Y1666252D01*
X943134Y1664986D01*
X944788Y1664301D01*
X946578D01*
X948232Y1664986D01*
X948713Y1665467D01*
X1008752D01*
X1018299Y1655920D01*
Y1611566D01*
X1015989Y1610610D01*
X1012941Y1613658D01*
X1011859Y1614381D01*
X1010583Y1614635D01*
X984213D01*
X983732Y1615116D01*
X982078Y1615801D01*
X980288D01*
X978634Y1615116D01*
X977368Y1613850D01*
X976683Y1612196D01*
Y1610406D01*
X977368Y1608752D01*
X978634Y1607486D01*
X980288Y1606801D01*
X982078D01*
X983732Y1607486D01*
X984213Y1607967D01*
X1009202D01*
X1013749Y1603420D01*
Y1542716D01*
X1011439Y1541760D01*
X1009540Y1543658D01*
X1008459Y1544381D01*
X1007183Y1544635D01*
X952213D01*
X951732Y1545116D01*
X950078Y1545801D01*
X948288D01*
X946634Y1545116D01*
X945368Y1543850D01*
X944683Y1542196D01*
Y1540406D01*
X945368Y1538752D01*
X946634Y1537486D01*
X948288Y1536801D01*
X950078D01*
X951732Y1537486D01*
X952213Y1537967D01*
X1005802D01*
X1009199Y1534570D01*
Y1524266D01*
X1006889Y1523310D01*
X999540Y1530658D01*
X998459Y1531381D01*
X997183Y1531635D01*
X954183D01*
X952907Y1531381D01*
X951825Y1530658D01*
X945468Y1524301D01*
X944788D01*
X943134Y1523616D01*
X941868Y1522350D01*
X941183Y1520696D01*
Y1518906D01*
X941868Y1517252D01*
X943134Y1515986D01*
X944788Y1515301D01*
X946578D01*
X948232Y1515986D01*
X949498Y1517252D01*
X950183Y1518906D01*
Y1519586D01*
X955564Y1524967D01*
X995802D01*
X1004649Y1516120D01*
Y1487316D01*
X1002339Y1486360D01*
X982541Y1506158D01*
X981459Y1506881D01*
X980183Y1507135D01*
X949183D01*
X947907Y1506881D01*
X946825Y1506158D01*
X946468Y1505801D01*
X945788D01*
X944134Y1505116D01*
X942868Y1503850D01*
X942183Y1502196D01*
Y1500406D01*
X942868Y1498752D01*
X944134Y1497486D01*
X945788Y1496801D01*
X947578D01*
X949232Y1497486D01*
X950498Y1498752D01*
X951183Y1500406D01*
Y1500467D01*
X978802D01*
X1000099Y1479170D01*
Y1424366D01*
X997789Y1423410D01*
X978683Y1442516D01*
Y1443196D01*
X977998Y1444850D01*
X976732Y1446116D01*
X975078Y1446801D01*
X973288D01*
X971634Y1446116D01*
X970368Y1444850D01*
X969683Y1443196D01*
Y1441406D01*
X970368Y1439752D01*
X971634Y1438486D01*
X973288Y1437801D01*
X973968D01*
X995549Y1416220D01*
Y1383310D01*
X993049Y1382487D01*
X992459Y1382881D01*
X991183Y1383135D01*
X950213D01*
X949732Y1383616D01*
X948078Y1384301D01*
X946288D01*
X944634Y1383616D01*
X943368Y1382350D01*
X942683Y1380696D01*
Y1378906D01*
X943368Y1377252D01*
X944634Y1375986D01*
X946288Y1375301D01*
X948078D01*
X949732Y1375986D01*
X950213Y1376467D01*
X989802D01*
X990999Y1375270D01*
Y1359966D01*
X988689Y1359010D01*
X988040Y1359658D01*
X986959Y1360381D01*
X985683Y1360635D01*
X950213D01*
X949732Y1361116D01*
X948078Y1361801D01*
X946288D01*
X944634Y1361116D01*
X943368Y1359850D01*
X942683Y1358196D01*
Y1356406D01*
X943368Y1354752D01*
X944634Y1353486D01*
X946288Y1352801D01*
X948078D01*
X949732Y1353486D01*
X950213Y1353967D01*
X984302D01*
X986449Y1351820D01*
Y1334116D01*
X984139Y1333160D01*
X981141Y1336158D01*
X980059Y1336881D01*
X978783Y1337135D01*
X950213D01*
X949732Y1337616D01*
X948078Y1338301D01*
X946288D01*
X944634Y1337616D01*
X943368Y1336350D01*
X942683Y1334696D01*
Y1332906D01*
X943368Y1331252D01*
X944634Y1329986D01*
X946288Y1329301D01*
X948078D01*
X949732Y1329986D01*
X950213Y1330467D01*
X977402D01*
X981899Y1325970D01*
Y1276074D01*
X979436Y1274976D01*
X978183Y1275970D01*
Y1276196D01*
X977498Y1277850D01*
X976232Y1279116D01*
X974578Y1279801D01*
X972788D01*
X971134Y1279116D01*
X969868Y1277850D01*
X969183Y1276196D01*
Y1274406D01*
X969868Y1272752D01*
X971134Y1271486D01*
X972788Y1270801D01*
X973468D01*
X977349Y1266920D01*
Y1203116D01*
X975039Y1202160D01*
X971541Y1205658D01*
X970459Y1206381D01*
X969183Y1206635D01*
X950213D01*
X949732Y1207116D01*
X948078Y1207801D01*
X946288D01*
X944634Y1207116D01*
X943368Y1205850D01*
X942683Y1204196D01*
Y1202406D01*
X943368Y1200752D01*
X944634Y1199486D01*
X946288Y1198801D01*
X948078D01*
X949732Y1199486D01*
X950213Y1199967D01*
X967802D01*
X972799Y1194970D01*
Y1184666D01*
X970489Y1183710D01*
X967541Y1186658D01*
X966459Y1187381D01*
X965183Y1187635D01*
X950213D01*
X949732Y1188116D01*
X948078Y1188801D01*
X946288D01*
X944634Y1188116D01*
X943368Y1186850D01*
X942683Y1185196D01*
Y1183406D01*
X943368Y1181752D01*
X944634Y1180486D01*
X946288Y1179801D01*
X948078D01*
X949732Y1180486D01*
X950213Y1180967D01*
X963802D01*
X968249Y1176520D01*
Y1164716D01*
X965939Y1163760D01*
X960540Y1169158D01*
X959459Y1169881D01*
X958183Y1170135D01*
X950213D01*
X949732Y1170616D01*
X948078Y1171301D01*
X946288D01*
X944634Y1170616D01*
X943368Y1169350D01*
X942683Y1167696D01*
Y1165906D01*
X943368Y1164252D01*
X944634Y1162986D01*
X946288Y1162301D01*
X948078D01*
X949732Y1162986D01*
X950213Y1163467D01*
X956802D01*
X962597Y1157671D01*
X962421Y1156699D01*
X961051Y1156036D01*
X959706Y1155738D01*
X957303Y1157126D01*
X954251Y1157943D01*
X951091D01*
X948039Y1157126D01*
X945303Y1155546D01*
X943069Y1153312D01*
X941489Y1150575D01*
X940671Y1147523D01*
Y1144363D01*
X941489Y1141311D01*
X943069Y1138575D01*
X945303Y1136341D01*
X948039Y1134761D01*
X951091Y1133943D01*
X954251D01*
X957303Y1134761D01*
X960039Y1136341D01*
X961199Y1137501D01*
X963699Y1136465D01*
Y1117922D01*
X961199Y1116886D01*
X960039Y1118046D01*
X957303Y1119626D01*
X954251Y1120443D01*
X951091D01*
X948039Y1119626D01*
X945303Y1118046D01*
X943069Y1115812D01*
X942517Y1114856D01*
X940017Y1115526D01*
Y1122271D01*
X940498Y1122752D01*
X941183Y1124406D01*
Y1126196D01*
X940498Y1127850D01*
X939232Y1129116D01*
X937578Y1129801D01*
X935788D01*
X934134Y1129116D01*
X932868Y1127850D01*
X932183Y1126196D01*
Y1124406D01*
X932868Y1122752D01*
X933349Y1122271D01*
Y1015301D01*
Y1008804D01*
X932683Y1007196D01*
Y1005406D01*
X933368Y1003752D01*
X934634Y1002486D01*
X936288Y1001801D01*
X938078D01*
X939732Y1002486D01*
X940998Y1003752D01*
X941683Y1005406D01*
Y1007196D01*
X940998Y1008850D01*
X940017Y1009831D01*
Y1015301D01*
Y1027914D01*
D01*
Y1063861D01*
X942517Y1064531D01*
X943069Y1063575D01*
X945303Y1061341D01*
X948039Y1059761D01*
X951091Y1058943D01*
X954251D01*
X957303Y1059761D01*
X960039Y1061341D01*
X962641Y1060407D01*
X962822Y1059155D01*
X948325Y1044658D01*
X947603Y1043577D01*
X947349Y1042301D01*
Y1026331D01*
X946868Y1025850D01*
X946183Y1024196D01*
Y1022406D01*
X946868Y1020752D01*
X948134Y1019486D01*
X949788Y1018801D01*
X951578D01*
X953232Y1019486D01*
X954498Y1020752D01*
X955034Y1022045D01*
X955326Y1022465D01*
X957683Y1023448D01*
X958038Y1023301D01*
X959828D01*
X961482Y1023986D01*
X962748Y1025252D01*
X963433Y1026906D01*
Y1027293D01*
X963673Y1027453D01*
X965463D01*
X967117Y1028138D01*
X968383Y1029404D01*
X968472Y1029619D01*
X968805Y1030423D01*
X970308Y1029801D01*
X972098D01*
X972327Y1029610D01*
X973348Y1029607D01*
X973888Y1028303D01*
D01*
D01*
X975154Y1027038D01*
X976808Y1026352D01*
X977163D01*
X978974Y1024867D01*
X979183Y1024043D01*
Y1022906D01*
X979868Y1021252D01*
X981134Y1019986D01*
X982788Y1019301D01*
X983315D01*
X983849Y1018651D01*
Y988841D01*
X982868Y987860D01*
X982183Y986206D01*
Y984416D01*
X981176Y982909D01*
X975785D01*
X972788Y985906D01*
X971134Y987011D01*
X969183Y987399D01*
X919183D01*
X918690Y987301D01*
X918188D01*
X917725Y987109D01*
X917232Y987011D01*
X916815Y986732D01*
X916351Y986540D01*
X915996Y986185D01*
X915578Y985906D01*
X915299Y985488D01*
X914944Y985133D01*
X914752Y984669D01*
X914473Y984252D01*
X914375Y983759D01*
X914183Y983295D01*
Y982793D01*
X914085Y982301D01*
X914183Y981808D01*
Y981306D01*
X914375Y980842D01*
X914473Y980350D01*
X914752Y979932D01*
X914944Y979469D01*
X915299Y979113D01*
X915578Y978696D01*
X915996Y978417D01*
X916351Y978062D01*
X916815Y977870D01*
X917232Y977591D01*
X917725Y977493D01*
X918188Y977301D01*
X918690D01*
X919183Y977203D01*
X941600D01*
X941846Y974703D01*
X941317Y974598D01*
X940160Y973824D01*
X929660Y963324D01*
X928886Y962167D01*
X928614Y960801D01*
Y955596D01*
X928368Y955350D01*
X927683Y953696D01*
Y951906D01*
X928368Y950252D01*
X929634Y948986D01*
X931288Y948301D01*
X933078D01*
X934732Y948986D01*
X935998Y950252D01*
X936683Y951906D01*
Y953696D01*
X935998Y955350D01*
X935751Y955596D01*
Y959323D01*
X944161Y967732D01*
X962388D01*
X962634Y967486D01*
X964288Y966801D01*
X966078D01*
X967732Y967486D01*
X967978Y967732D01*
X971821D01*
X973683Y965696D01*
Y963906D01*
X974368Y962252D01*
X975634Y960986D01*
X977288Y960301D01*
X979078D01*
X980732Y960986D01*
X981478Y961732D01*
X1010656D01*
X1011683Y960196D01*
Y958406D01*
X1012368Y956752D01*
X1013634Y955486D01*
X1015288Y954801D01*
X1017078D01*
X1018732Y955486D01*
X1018978Y955732D01*
X1078888D01*
X1079134Y955486D01*
X1080788Y954801D01*
X1082578D01*
X1084232Y955486D01*
X1085498Y956752D01*
X1086183Y958406D01*
Y960196D01*
X1085888Y960909D01*
X1085498Y961850D01*
X1084232Y963116D01*
X1082578Y963801D01*
X1080788D01*
X1079134Y963116D01*
X1078888Y962869D01*
X1062710D01*
X1061683Y964406D01*
Y966196D01*
X1060998Y967850D01*
X1059732Y969116D01*
X1058078Y969801D01*
X1056288D01*
X1054634Y969116D01*
X1054388Y968869D01*
X1038728D01*
X1038482Y969116D01*
X1036828Y969801D01*
X1035038D01*
X1033384Y969116D01*
X1033138Y968869D01*
X1028210D01*
X1027183Y970406D01*
Y972196D01*
X1026498Y973850D01*
X1025645Y974703D01*
X1026100Y976652D01*
X1026411Y977203D01*
X1056183D01*
X1058134Y977591D01*
X1059788Y978696D01*
X1073288Y992196D01*
X1074393Y993850D01*
X1074781Y995801D01*
Y1027604D01*
D01*
Y1669801D01*
X1074393Y1671752D01*
X1073288Y1673406D01*
X988619Y1758074D01*
Y1778413D01*
X989536Y1778659D01*
X991930Y1780041D01*
X993885Y1781996D01*
X995267Y1784391D01*
X995983Y1787061D01*
Y1789826D01*
X995267Y1792496D01*
X993885Y1794890D01*
X991930Y1796845D01*
X989536Y1798228D01*
X986865Y1798943D01*
D02*
G37*
G36*
X954251Y1659943D02*
X951091D01*
X948039Y1659126D01*
X945303Y1657546D01*
X943069Y1655311D01*
X941489Y1652575D01*
X940671Y1649523D01*
Y1646364D01*
X941489Y1643311D01*
X943069Y1640575D01*
X945303Y1638341D01*
X948039Y1636761D01*
X951091Y1635943D01*
X954251D01*
X957303Y1636761D01*
X960039Y1638341D01*
X962273Y1640575D01*
X963853Y1643311D01*
X964671Y1646364D01*
Y1649523D01*
X963853Y1652575D01*
X962273Y1655311D01*
X960039Y1657546D01*
X957303Y1659126D01*
X954251Y1659943D01*
D02*
G37*
G36*
Y1622443D02*
X951091D01*
X948039Y1621626D01*
X945303Y1620046D01*
X943069Y1617811D01*
X941489Y1615075D01*
X940671Y1612023D01*
Y1608864D01*
X941489Y1605811D01*
X943069Y1603075D01*
X945303Y1600841D01*
X948039Y1599261D01*
X951091Y1598443D01*
X954251D01*
X957303Y1599261D01*
X960039Y1600841D01*
X962273Y1603075D01*
X963853Y1605811D01*
X964671Y1608864D01*
Y1612023D01*
X963853Y1615075D01*
X962273Y1617811D01*
X960039Y1620046D01*
X957303Y1621626D01*
X954251Y1622443D01*
D02*
G37*
G36*
Y1584943D02*
X951091D01*
X948039Y1584126D01*
X945303Y1582546D01*
X943069Y1580311D01*
X941489Y1577575D01*
X940671Y1574523D01*
Y1571364D01*
X941489Y1568311D01*
X943069Y1565575D01*
X945303Y1563341D01*
X948039Y1561761D01*
X951091Y1560943D01*
X954251D01*
X957303Y1561761D01*
X960039Y1563341D01*
X962273Y1565575D01*
X963853Y1568311D01*
X964671Y1571364D01*
Y1574523D01*
X963853Y1577575D01*
X962273Y1580311D01*
X960039Y1582546D01*
X957303Y1584126D01*
X954251Y1584943D01*
D02*
G37*
G36*
Y1492610D02*
X951091D01*
X948039Y1491792D01*
X945303Y1490212D01*
X943069Y1487978D01*
X941489Y1485242D01*
X940671Y1482190D01*
Y1479030D01*
X941489Y1475978D01*
X943069Y1473242D01*
X945303Y1471008D01*
X948039Y1469428D01*
X951091Y1468610D01*
X954251D01*
X957303Y1469428D01*
X960039Y1471008D01*
X962273Y1473242D01*
X963853Y1475978D01*
X964671Y1479030D01*
Y1482190D01*
X963853Y1485242D01*
X962273Y1487978D01*
X960039Y1490212D01*
X957303Y1491792D01*
X954251Y1492610D01*
D02*
G37*
G36*
Y1455110D02*
X951091D01*
X948039Y1454292D01*
X945303Y1452712D01*
X943069Y1450478D01*
X941489Y1447742D01*
X940671Y1444690D01*
Y1441530D01*
X941489Y1438478D01*
X943069Y1435742D01*
X945303Y1433508D01*
X948039Y1431928D01*
X951091Y1431110D01*
X954251D01*
X957303Y1431928D01*
X960039Y1433508D01*
X962273Y1435742D01*
X963853Y1438478D01*
X964671Y1441530D01*
Y1444690D01*
X963853Y1447742D01*
X962273Y1450478D01*
X960039Y1452712D01*
X957303Y1454292D01*
X954251Y1455110D01*
D02*
G37*
G36*
Y1417610D02*
X951091D01*
X948039Y1416792D01*
X945303Y1415212D01*
X943069Y1412978D01*
X941489Y1410242D01*
X940671Y1407190D01*
Y1404030D01*
X941489Y1400978D01*
X943069Y1398242D01*
X945303Y1396008D01*
X948039Y1394428D01*
X951091Y1393610D01*
X954251D01*
X957303Y1394428D01*
X960039Y1396008D01*
X962273Y1398242D01*
X963853Y1400978D01*
X964671Y1404030D01*
Y1407190D01*
X963853Y1410242D01*
X962273Y1412978D01*
X960039Y1415212D01*
X957303Y1416792D01*
X954251Y1417610D01*
D02*
G37*
G36*
Y1325277D02*
X951091D01*
X948039Y1324459D01*
X945303Y1322879D01*
X943069Y1320645D01*
X941489Y1317908D01*
X940671Y1314857D01*
Y1311697D01*
X941489Y1308645D01*
X943069Y1305909D01*
X945303Y1303674D01*
X948039Y1302095D01*
X951091Y1301277D01*
X954251D01*
X957303Y1302095D01*
X960039Y1303674D01*
X962273Y1305909D01*
X963853Y1308645D01*
X964671Y1311697D01*
Y1314857D01*
X963853Y1317908D01*
X962273Y1320645D01*
X960039Y1322879D01*
X957303Y1324459D01*
X954251Y1325277D01*
D02*
G37*
G36*
Y1287777D02*
X951091D01*
X948039Y1286959D01*
X945303Y1285379D01*
X943069Y1283145D01*
X941489Y1280408D01*
X940671Y1277356D01*
Y1274197D01*
X941489Y1271145D01*
X943069Y1268409D01*
X945303Y1266174D01*
X948039Y1264594D01*
X951091Y1263777D01*
X954251D01*
X957303Y1264594D01*
X960039Y1266174D01*
X962273Y1268409D01*
X963853Y1271145D01*
X964671Y1274197D01*
Y1277356D01*
X963853Y1280408D01*
X962273Y1283145D01*
X960039Y1285379D01*
X957303Y1286959D01*
X954251Y1287777D01*
D02*
G37*
G36*
Y1250277D02*
X951091D01*
X948039Y1249459D01*
X945303Y1247879D01*
X943069Y1245645D01*
X941489Y1242908D01*
X940671Y1239856D01*
Y1236697D01*
X941489Y1233645D01*
X943069Y1230909D01*
X945303Y1228674D01*
X948039Y1227094D01*
X951091Y1226277D01*
X954251D01*
X957303Y1227094D01*
X960039Y1228674D01*
X962273Y1230909D01*
X963853Y1233645D01*
X964671Y1236697D01*
Y1239856D01*
X963853Y1242908D01*
X962273Y1245645D01*
X960039Y1247879D01*
X957303Y1249459D01*
X954251Y1250277D01*
D02*
G37*
G36*
X1049578Y941301D02*
X1047788D01*
X1046134Y940616D01*
X1045653Y940135D01*
X961186D01*
X959578Y940801D01*
X957788D01*
X956134Y940116D01*
X954868Y938850D01*
X954183Y937196D01*
Y935406D01*
X953156Y933869D01*
X922161D01*
X920183Y935848D01*
Y936196D01*
X919498Y937850D01*
X918232Y939116D01*
X916578Y939801D01*
X914788D01*
X913134Y939116D01*
X911868Y937850D01*
X911183Y936196D01*
Y934406D01*
X911868Y932752D01*
X913134Y931486D01*
X914788Y930801D01*
X915136D01*
X918160Y927777D01*
X919317Y927004D01*
X919317D01*
X920683Y926732D01*
X949583D01*
Y907443D01*
X970583D01*
Y926164D01*
X970788Y926301D01*
X972578D01*
X974077Y926922D01*
X974643Y926908D01*
X976010Y926647D01*
X976562Y925483D01*
X976984Y924222D01*
X975698Y921996D01*
X974983Y919326D01*
Y916561D01*
X975698Y913891D01*
X977081Y911496D01*
X979036Y909541D01*
X981430Y908159D01*
X984101Y907443D01*
X986865D01*
X989536Y908159D01*
X991930Y909541D01*
X993885Y911496D01*
X995267Y913891D01*
X995983Y916561D01*
Y919326D01*
X995267Y921996D01*
X993885Y924390D01*
X993543Y924732D01*
X994579Y927232D01*
X1001787D01*
X1002823Y924732D01*
X1002481Y924390D01*
X1001098Y921996D01*
X1000383Y919326D01*
Y916561D01*
X1001098Y913891D01*
X1002481Y911496D01*
X1004436Y909541D01*
X1006830Y908159D01*
X1009501Y907443D01*
X1012265D01*
X1014936Y908159D01*
X1017330Y909541D01*
X1019285Y911496D01*
X1020667Y913891D01*
X1021383Y916561D01*
Y919326D01*
X1020667Y921996D01*
X1019285Y924390D01*
X1018943Y924732D01*
X1019979Y927232D01*
X1026388D01*
X1026634Y926986D01*
X1026851Y926896D01*
X1027369Y925636D01*
X1027650Y923991D01*
X1026498Y921996D01*
X1025783Y919326D01*
Y916561D01*
X1026498Y913891D01*
X1027881Y911496D01*
X1029836Y909541D01*
X1032230Y908159D01*
X1034901Y907443D01*
X1037665D01*
X1040336Y908159D01*
X1042730Y909541D01*
X1044685Y911496D01*
X1046067Y913891D01*
X1046783Y916561D01*
Y919326D01*
X1046067Y921996D01*
X1044685Y924390D01*
X1042730Y926345D01*
X1040336Y927728D01*
X1037665Y928443D01*
X1035783D01*
X1034371Y929426D01*
X1033683Y930705D01*
Y931696D01*
X1035655Y933467D01*
X1045653D01*
X1046134Y932986D01*
X1047788Y932301D01*
X1049578D01*
X1051232Y932986D01*
X1052498Y934252D01*
X1053183Y935906D01*
Y937696D01*
X1052498Y939350D01*
X1051232Y940616D01*
X1049578Y941301D01*
D02*
G37*
G36*
X1171433Y1757066D02*
X1155183D01*
Y1741944D01*
X1177805D01*
Y1750693D01*
X1177320Y1753132D01*
X1175939Y1755199D01*
X1173872Y1756581D01*
X1171433Y1757066D01*
D02*
G37*
G36*
X1177805Y1736944D02*
X1155183D01*
Y1721821D01*
X1171433D01*
X1173872Y1722306D01*
X1175939Y1723687D01*
X1177320Y1725755D01*
X1177805Y1728193D01*
Y1736944D01*
D02*
G37*
%LPD*%
D10*
X945683Y1683801D02*
X1014683D01*
X1026183Y1025301D02*
Y1672301D01*
Y1025301D02*
X1035203Y1016281D01*
Y997781D02*
Y1016281D01*
X1014683Y1683801D02*
X1026183Y1672301D01*
X1035203Y997781D02*
X1037683Y995301D01*
X958683Y936301D02*
X959183Y936801D01*
X1048683D01*
X985233Y1041951D02*
Y1327351D01*
Y1038382D02*
Y1041951D01*
X978783Y1333801D02*
X985233Y1327351D01*
X977703Y1030853D02*
X985233Y1038382D01*
X947183Y1333801D02*
X978783D01*
X947183Y1357301D02*
X985683D01*
X983683Y1023801D02*
X989783Y1029901D01*
X985683Y1357301D02*
X989783Y1353201D01*
Y1042935D02*
Y1353201D01*
Y1029901D02*
Y1042935D01*
X947183Y1203301D02*
X969183D01*
X964568Y1038246D02*
X976133Y1049811D01*
Y1196351D01*
X969183Y1203301D02*
X976133Y1196351D01*
X964568Y1031953D02*
Y1038246D01*
X973683Y1275301D02*
X980683Y1268301D01*
X971203Y1034301D02*
X980683Y1043781D01*
Y1052801D01*
Y1268301D01*
X950683Y1042301D02*
X967033Y1058651D01*
X947183Y1166801D02*
X958183D01*
X967033Y1058651D02*
Y1157951D01*
X950683Y1023301D02*
Y1042301D01*
X958183Y1166801D02*
X967033Y1157951D01*
X965183Y1184301D02*
X971583Y1177901D01*
X958185Y1041803D02*
X971583Y1055201D01*
X958185Y1028549D02*
Y1041803D01*
X971583Y1055201D02*
Y1177901D01*
X958185Y1028549D02*
X958933Y1027801D01*
X947183Y1184301D02*
X965183D01*
X947183Y1379801D02*
X991183D01*
X986683Y985311D02*
X987183Y985811D01*
Y1018651D01*
X994333Y1025801D02*
Y1376651D01*
X991183Y1379801D02*
X994333Y1376651D01*
X987183Y1018651D02*
X994333Y1025801D01*
X936683Y1006801D02*
Y1015301D01*
Y1006801D02*
X937183Y1006301D01*
X936683Y1015301D02*
Y1125301D01*
X1017083Y998605D02*
X1022899Y992788D01*
X1017083Y998605D02*
Y1604801D01*
X981183Y1611301D02*
X1010583D01*
X1017083Y1604801D01*
X1021633Y1003801D02*
X1029433Y996001D01*
X1021633Y1003801D02*
Y1657301D01*
X1010133Y1668801D02*
X1021633Y1657301D01*
X945683Y1668801D02*
X1010133D01*
X1029433Y995301D02*
Y996001D01*
X1007983Y991831D02*
Y1515801D01*
Y1514801D02*
Y1517501D01*
X997183Y1528301D02*
X1007983Y1517501D01*
Y1514801D02*
Y1515801D01*
X945683Y1519801D02*
X954183Y1528301D01*
X1007453Y991301D02*
X1007983Y991831D01*
X954183Y1528301D02*
X997183D01*
X1012533Y994704D02*
Y1535951D01*
Y994704D02*
X1016096Y991141D01*
X949183Y1541301D02*
X1007183D01*
X1012533Y1535951D01*
X1000683Y985311D02*
Y1016801D01*
X980183Y1503801D02*
X1003433Y1480551D01*
X949183Y1503801D02*
X980183D01*
X946683Y1501301D02*
X949183Y1503801D01*
X1003433Y1019551D02*
Y1480551D01*
X1000683Y1016801D02*
X1003433Y1019551D01*
X993183Y996854D02*
X994533Y995504D01*
X998883Y1022301D02*
Y1417601D01*
X994533Y988654D02*
Y995504D01*
X974183Y1442301D02*
X998883Y1417601D01*
X993183Y996854D02*
Y1016601D01*
X998883Y1022301D01*
D11*
X877471Y1788693D02*
D03*
Y1708693D02*
D03*
D12*
X1072683Y1739443D02*
D03*
X1152683D02*
D03*
D13*
X748183Y1710301D02*
D03*
X798183Y1010301D02*
D03*
X1248183D02*
D03*
Y1710301D02*
D03*
D14*
X1368071Y1585043D02*
D03*
Y1083043D02*
D03*
Y1417710D02*
D03*
X628071Y1635843D02*
D03*
Y1301177D02*
D03*
Y1133843D02*
D03*
X1368071Y1250377D02*
D03*
X628071Y1468510D02*
D03*
D15*
X1368071Y1635843D02*
D03*
Y1133843D02*
D03*
Y1468510D02*
D03*
X628071Y1585043D02*
D03*
Y1250377D02*
D03*
Y1083043D02*
D03*
X1368071Y1301177D02*
D03*
X628071Y1417710D02*
D03*
D16*
X1246471Y1313277D02*
D03*
Y1238277D02*
D03*
X1196471Y1313277D02*
D03*
Y1238277D02*
D03*
X1296871Y1313277D02*
D03*
Y1238277D02*
D03*
X1043471D02*
D03*
Y1313277D02*
D03*
Y1275777D02*
D03*
X952671D02*
D03*
Y1238277D02*
D03*
Y1313277D02*
D03*
X699271D02*
D03*
Y1238277D02*
D03*
X799671Y1313277D02*
D03*
Y1238277D02*
D03*
X749671Y1313277D02*
D03*
Y1238277D02*
D03*
X952671Y1108443D02*
D03*
Y1070943D02*
D03*
Y1145943D02*
D03*
X699271D02*
D03*
Y1070943D02*
D03*
X799671Y1145943D02*
D03*
Y1070943D02*
D03*
X749671Y1145943D02*
D03*
Y1070943D02*
D03*
X1043471Y1108443D02*
D03*
Y1145943D02*
D03*
Y1070943D02*
D03*
X1296871D02*
D03*
Y1145943D02*
D03*
X1196471Y1070943D02*
D03*
Y1145943D02*
D03*
X1246471Y1070943D02*
D03*
Y1145943D02*
D03*
X952671Y1610443D02*
D03*
Y1572943D02*
D03*
Y1647943D02*
D03*
X699271D02*
D03*
Y1572943D02*
D03*
X799671Y1647943D02*
D03*
Y1572943D02*
D03*
X749671Y1647943D02*
D03*
Y1572943D02*
D03*
X1043471Y1610443D02*
D03*
Y1647943D02*
D03*
Y1572943D02*
D03*
X1296871D02*
D03*
Y1647943D02*
D03*
X1196471Y1572943D02*
D03*
Y1647943D02*
D03*
X1246471Y1572943D02*
D03*
Y1647943D02*
D03*
X1043471Y1443110D02*
D03*
Y1480610D02*
D03*
Y1405610D02*
D03*
X1296871D02*
D03*
Y1480610D02*
D03*
X1196471Y1405610D02*
D03*
Y1480610D02*
D03*
X1246471Y1405610D02*
D03*
Y1480610D02*
D03*
X952671Y1443110D02*
D03*
Y1405610D02*
D03*
Y1480610D02*
D03*
X699271D02*
D03*
Y1405610D02*
D03*
X799671Y1480610D02*
D03*
Y1405610D02*
D03*
X749671Y1480610D02*
D03*
Y1405610D02*
D03*
D17*
X960083Y917943D02*
D03*
Y1788443D02*
D03*
D18*
X985483Y917943D02*
D03*
X1010883D02*
D03*
X1036283D02*
D03*
Y1788443D02*
D03*
X1010883D02*
D03*
X985483D02*
D03*
D19*
X1016183Y959301D02*
X1081683D01*
X915683Y935301D02*
X920683Y930301D01*
X971683Y930801D02*
X1029183D01*
X971183Y930301D02*
X971683Y930801D01*
X920683Y930301D02*
X971183D01*
X932183Y952801D02*
Y960801D01*
X942683Y971301D01*
X965183D01*
X1022683D01*
X1035933Y965301D02*
X1057183D01*
X978183Y964801D02*
X978683Y965301D01*
X1035933D01*
D20*
X628071Y1538307D02*
X639959Y1526419D01*
X628071Y1538307D02*
Y1585043D01*
X749671Y1572943D02*
Y1647943D01*
Y1542631D02*
Y1572943D01*
X639959Y1526419D02*
X733459D01*
X749671Y1542631D01*
X687171Y1635843D02*
X699271Y1647943D01*
Y1572943D02*
Y1647943D01*
X628071Y1635843D02*
X687171D01*
X639959Y1359086D02*
X733459D01*
X749671Y1375298D02*
Y1405610D01*
Y1480610D01*
X628071Y1370974D02*
X639959Y1359086D01*
X733459D02*
X749671Y1375298D01*
X628071Y1370974D02*
Y1417710D01*
X699271Y1405610D02*
Y1480610D01*
X687171Y1468510D02*
X699271Y1480610D01*
X628071Y1468510D02*
X687171D01*
X628071Y1203641D02*
Y1250377D01*
X639959Y1191752D02*
X733459D01*
X749671Y1207964D02*
Y1238277D01*
Y1313277D01*
X628071Y1203641D02*
X639959Y1191752D01*
X733459D02*
X749671Y1207964D01*
X687171Y1301177D02*
X699271Y1313277D01*
Y1238277D02*
Y1313277D01*
X628071Y1301177D02*
X687171D01*
Y1133843D02*
X699271Y1145943D01*
Y1070943D02*
Y1145943D01*
X628071Y1133843D02*
X687171D01*
X628071Y1036307D02*
X639959Y1024419D01*
X749671Y1062407D02*
Y1070943D01*
X639959Y1024419D02*
X712301D01*
X727183Y1039301D01*
X749671Y1070943D02*
Y1145943D01*
X628071Y1036307D02*
Y1083043D01*
X727183Y1039301D02*
Y1039919D01*
X749671Y1062407D01*
X1246083Y1176513D02*
X1262295Y1192725D01*
X1246083Y1071201D02*
Y1146201D01*
X1367683Y1134101D02*
Y1180837D01*
X1262295Y1192725D02*
X1355795D01*
X1246083Y1146201D02*
Y1176513D01*
X1355795Y1192725D02*
X1367683Y1180837D01*
X1296483Y1071201D02*
X1308583Y1083301D01*
X1367683D01*
X1296483Y1071201D02*
Y1146201D01*
X1296871Y1238277D02*
Y1313277D01*
X1308971Y1250377D02*
X1368071D01*
X1296871Y1238277D02*
X1308971Y1250377D01*
X1356183Y1359801D02*
X1368071Y1347913D01*
X1246471Y1343589D02*
X1262683Y1359801D01*
X1356183D01*
X1246471Y1313277D02*
Y1343589D01*
Y1238277D02*
Y1313277D01*
X1368071Y1301177D02*
Y1347913D01*
X1246583Y1479701D02*
Y1510013D01*
X1368183Y1467601D02*
Y1514337D01*
X1262795Y1526225D02*
X1356295D01*
X1246583Y1510013D02*
X1262795Y1526225D01*
X1356295D02*
X1368183Y1514337D01*
X1246583Y1404701D02*
Y1479701D01*
X1296983Y1404701D02*
Y1479701D01*
Y1404701D02*
X1309083Y1416801D01*
X1368183D01*
X1309083Y1585301D02*
X1368183D01*
X1296983Y1573201D02*
X1309083Y1585301D01*
X1296983Y1573201D02*
Y1648201D01*
X1282607Y1694725D02*
X1356295D01*
X1368183Y1682837D01*
X1246583Y1573201D02*
Y1658701D01*
X1282607Y1694725D01*
X1368183Y1636101D02*
Y1682837D01*
D21*
X799671Y1572943D02*
Y1647943D01*
Y1405610D02*
Y1480610D01*
Y1238277D02*
Y1313277D01*
Y1070943D02*
Y1145943D01*
X1196471Y1070943D02*
Y1145943D01*
Y1238277D02*
Y1313277D01*
Y1405610D02*
Y1480610D01*
Y1572943D02*
Y1647943D01*
D22*
X911183Y1617301D02*
Y1771801D01*
X1095183Y1107801D02*
Y1282801D01*
Y1681943D02*
X1152683Y1739443D01*
X1095183Y1454801D02*
Y1620801D01*
Y1282801D02*
Y1454801D01*
X911183Y1276301D02*
Y1447801D01*
X1095183Y1620801D02*
Y1681943D01*
X911183Y1108301D02*
Y1276301D01*
X899471Y1782943D02*
X900040D01*
X911183Y1447801D02*
Y1617301D01*
X900040Y1782943D02*
X911183Y1771801D01*
D23*
X1056183Y982301D02*
X1069683Y995801D01*
X1042683Y982301D02*
X1056183D01*
X991703Y977801D02*
X998683D01*
X973673Y977811D02*
X991693D01*
X998693D02*
X1018693D01*
X969183Y982301D02*
X973673Y977811D01*
X1023183Y982301D02*
X1042683D01*
X991693Y977811D02*
X991703Y977801D01*
X983521Y1755963D02*
Y1788943D01*
X1018693Y977811D02*
X1023183Y982301D01*
X998683Y977801D02*
X998693Y977811D01*
X919183Y982301D02*
X969183D01*
X1069683Y995801D02*
Y1669801D01*
X983521Y1755963D02*
X1069683Y1669801D01*
D24*
X902000Y1787000D02*
D03*
X864683Y1695801D02*
D03*
X911183Y1447801D02*
D03*
Y1276301D02*
D03*
X1095183Y1454801D02*
D03*
X1149471Y1746943D02*
D03*
X1095183Y1620801D02*
D03*
X1166471Y1746943D02*
D03*
X911183Y1108301D02*
D03*
X1095183Y1282801D02*
D03*
X911183Y1617301D02*
D03*
X1095183Y1107801D02*
D03*
X1175471Y1746943D02*
D03*
D25*
X1095000Y1770000D02*
D03*
Y1710000D02*
D03*
X1080000Y1680000D02*
D03*
Y1560000D02*
D03*
Y1500000D02*
D03*
Y1380000D02*
D03*
Y1320000D02*
D03*
Y1260000D02*
D03*
Y1200000D02*
D03*
Y1140000D02*
D03*
Y1080000D02*
D03*
Y1020000D02*
D03*
X1095000Y990000D02*
D03*
Y930000D02*
D03*
X1050000Y1799999D02*
D03*
X1065000Y1770000D02*
D03*
Y1710000D02*
D03*
X1035000Y1770000D02*
D03*
X1005000D02*
D03*
Y1710000D02*
D03*
X990000Y900000D02*
D03*
X975000Y1710000D02*
D03*
Y1290000D02*
D03*
X960000Y1260000D02*
D03*
X945000Y1710000D02*
D03*
X930000Y1680000D02*
D03*
X945000Y1590000D02*
D03*
X930000Y1560000D02*
D03*
Y1500000D02*
D03*
Y1380000D02*
D03*
Y1320000D02*
D03*
Y1260000D02*
D03*
Y1200000D02*
D03*
Y1140000D02*
D03*
X900000Y1020000D02*
D03*
Y960000D02*
D03*
Y900000D02*
D03*
D26*
X945788Y1686500D02*
D03*
X1037683Y995301D02*
D03*
X1016183Y959301D02*
D03*
X1081683D02*
D03*
X1048683Y936801D02*
D03*
X958683Y936301D02*
D03*
X1029183Y930801D02*
D03*
X915683Y935301D02*
D03*
X971683Y930801D02*
D03*
X1022683Y971301D02*
D03*
X965183D02*
D03*
X932183Y952801D02*
D03*
X978183Y964801D02*
D03*
X1057183Y965301D02*
D03*
X1035933D02*
D03*
X977703Y1030853D02*
D03*
X947183Y1333801D02*
D03*
X983683Y1023801D02*
D03*
X947183Y1357301D02*
D03*
Y1203301D02*
D03*
X964568Y1031953D02*
D03*
X971203Y1034301D02*
D03*
X973683Y1275301D02*
D03*
X947183Y1166801D02*
D03*
X950683Y1023301D02*
D03*
X958933Y1027801D02*
D03*
X947183Y1184301D02*
D03*
Y1379801D02*
D03*
X986683Y985311D02*
D03*
X937183Y1006301D02*
D03*
X936683Y1125301D02*
D03*
X981183Y1611301D02*
D03*
X1022899Y992788D02*
D03*
X1029433Y995301D02*
D03*
X945683Y1668801D02*
D03*
Y1519801D02*
D03*
X1007453Y991301D02*
D03*
X949183Y1541301D02*
D03*
X1016096Y991141D02*
D03*
X946683Y1501301D02*
D03*
X1000683Y985311D02*
D03*
X994533Y988654D02*
D03*
X974183Y1442301D02*
D03*
X998683Y977801D02*
D03*
X1042683Y982301D02*
D03*
X984933Y977301D02*
D03*
X976183Y992301D02*
D03*
D27*
X877683Y1695801D02*
D03*
D28*
X919183Y982301D02*
D03*
M02*
