G04*
G04 #@! TF.GenerationSoftware,Altium Limited,Altium Designer,26.5.1 (12)*
G04*
G04 Layer_Color=2752767*
G04 Board_Origin=0|0*
%FSLAX44Y44*%
%MOMM*%
G71*
G04*
G04 #@! TF.SameCoordinates,75EFAC43-1628-424D-8E1A-596EA3B04155*
G04*
G04*
G04 #@! TF.FilePolarity,Positive*
G04*
G01*
G75*
%ADD37C,0.1270*%
%ADD38C,0.1693*%
D37*
X748183Y1705221D02*
X743103Y1715381D01*
X753263D01*
X748183Y1705221D01*
X955003Y912863D02*
Y923023D01*
X965163D01*
Y912863D01*
X955003D01*
X980403D02*
Y923023D01*
X990563D01*
Y912863D01*
X980403D01*
X1005803D02*
Y923023D01*
X1015963D01*
Y912863D01*
X1005803D01*
X1031203D02*
Y923023D01*
X1041363D01*
Y912863D01*
X1031203D01*
Y1783363D02*
Y1793523D01*
X1041363D01*
Y1783363D01*
X1031203D01*
X1005803D02*
Y1793523D01*
X1015963D01*
Y1783363D01*
X1005803D01*
X980403D02*
Y1793523D01*
X990563D01*
Y1783363D01*
X980403D01*
X955003D02*
Y1793523D01*
X965163D01*
Y1783363D01*
X955003D01*
X798183Y1005221D02*
X793103Y1015381D01*
X803263D01*
X798183Y1005221D01*
X1248183D02*
X1243103Y1015381D01*
X1253263D01*
X1248183Y1005221D01*
Y1705221D02*
X1243103Y1715381D01*
X1253263D01*
X1248183Y1705221D01*
X896920Y1781920D02*
X899460Y1787000D01*
X896920Y1792080D01*
X902000Y1789540D01*
X907080Y1792080D01*
X904540Y1787000D01*
X907080Y1781920D01*
X902000Y1784460D01*
X896920Y1781920D01*
X1089920Y1764919D02*
X1092460D01*
X1095000Y1767460D01*
X1097540Y1764919D01*
X1100080D01*
Y1767460D01*
X1097540Y1770000D01*
X1100080Y1772540D01*
Y1775079D01*
X1097540D01*
X1095000Y1772540D01*
X1092460Y1775079D01*
X1089920D01*
Y1772540D01*
X1092460Y1770000D01*
X1089920Y1767460D01*
Y1764919D01*
Y1704919D02*
X1092460D01*
X1095000Y1707460D01*
X1097540Y1704919D01*
X1100080D01*
Y1707460D01*
X1097540Y1710000D01*
X1100080Y1712540D01*
Y1715079D01*
X1097540D01*
X1095000Y1712540D01*
X1092460Y1715079D01*
X1089920D01*
Y1712540D01*
X1092460Y1710000D01*
X1089920Y1707460D01*
Y1704919D01*
X1074920Y1674919D02*
X1077460D01*
X1080000Y1677460D01*
X1082540Y1674919D01*
X1085080D01*
Y1677460D01*
X1082540Y1680000D01*
X1085080Y1682540D01*
Y1685079D01*
X1082540D01*
X1080000Y1682540D01*
X1077460Y1685079D01*
X1074920D01*
Y1682540D01*
X1077460Y1680000D01*
X1074920Y1677460D01*
Y1674919D01*
Y1554919D02*
X1077460D01*
X1080000Y1557460D01*
X1082540Y1554919D01*
X1085080D01*
Y1557460D01*
X1082540Y1560000D01*
X1085080Y1562540D01*
Y1565079D01*
X1082540D01*
X1080000Y1562540D01*
X1077460Y1565079D01*
X1074920D01*
Y1562540D01*
X1077460Y1560000D01*
X1074920Y1557460D01*
Y1554919D01*
Y1494919D02*
X1077460D01*
X1080000Y1497460D01*
X1082540Y1494919D01*
X1085080D01*
Y1497460D01*
X1082540Y1500000D01*
X1085080Y1502540D01*
Y1505079D01*
X1082540D01*
X1080000Y1502540D01*
X1077460Y1505079D01*
X1074920D01*
Y1502540D01*
X1077460Y1500000D01*
X1074920Y1497460D01*
Y1494919D01*
Y1374920D02*
X1077460D01*
X1080000Y1377460D01*
X1082540Y1374920D01*
X1085080D01*
Y1377460D01*
X1082540Y1380000D01*
X1085080Y1382540D01*
Y1385080D01*
X1082540D01*
X1080000Y1382540D01*
X1077460Y1385080D01*
X1074920D01*
Y1382540D01*
X1077460Y1380000D01*
X1074920Y1377460D01*
Y1374920D01*
Y1314920D02*
X1077460D01*
X1080000Y1317460D01*
X1082540Y1314920D01*
X1085080D01*
Y1317460D01*
X1082540Y1320000D01*
X1085080Y1322540D01*
Y1325080D01*
X1082540D01*
X1080000Y1322540D01*
X1077460Y1325080D01*
X1074920D01*
Y1322540D01*
X1077460Y1320000D01*
X1074920Y1317460D01*
Y1314920D01*
Y1254920D02*
X1077460D01*
X1080000Y1257460D01*
X1082540Y1254920D01*
X1085080D01*
Y1257460D01*
X1082540Y1260000D01*
X1085080Y1262540D01*
Y1265080D01*
X1082540D01*
X1080000Y1262540D01*
X1077460Y1265080D01*
X1074920D01*
Y1262540D01*
X1077460Y1260000D01*
X1074920Y1257460D01*
Y1254920D01*
Y1194920D02*
X1077460D01*
X1080000Y1197460D01*
X1082540Y1194920D01*
X1085080D01*
Y1197460D01*
X1082540Y1200000D01*
X1085080Y1202540D01*
Y1205080D01*
X1082540D01*
X1080000Y1202540D01*
X1077460Y1205080D01*
X1074920D01*
Y1202540D01*
X1077460Y1200000D01*
X1074920Y1197460D01*
Y1194920D01*
Y1134920D02*
X1077460D01*
X1080000Y1137460D01*
X1082540Y1134920D01*
X1085080D01*
Y1137460D01*
X1082540Y1140000D01*
X1085080Y1142540D01*
Y1145080D01*
X1082540D01*
X1080000Y1142540D01*
X1077460Y1145080D01*
X1074920D01*
Y1142540D01*
X1077460Y1140000D01*
X1074920Y1137460D01*
Y1134920D01*
Y1074920D02*
X1077460D01*
X1080000Y1077460D01*
X1082540Y1074920D01*
X1085080D01*
Y1077460D01*
X1082540Y1080000D01*
X1085080Y1082540D01*
Y1085080D01*
X1082540D01*
X1080000Y1082540D01*
X1077460Y1085080D01*
X1074920D01*
Y1082540D01*
X1077460Y1080000D01*
X1074920Y1077460D01*
Y1074920D01*
Y1014920D02*
X1077460D01*
X1080000Y1017460D01*
X1082540Y1014920D01*
X1085080D01*
Y1017460D01*
X1082540Y1020000D01*
X1085080Y1022540D01*
Y1025080D01*
X1082540D01*
X1080000Y1022540D01*
X1077460Y1025080D01*
X1074920D01*
Y1022540D01*
X1077460Y1020000D01*
X1074920Y1017460D01*
Y1014920D01*
X1089920Y984920D02*
X1092460D01*
X1095000Y987460D01*
X1097540Y984920D01*
X1100080D01*
Y987460D01*
X1097540Y990000D01*
X1100080Y992540D01*
Y995080D01*
X1097540D01*
X1095000Y992540D01*
X1092460Y995080D01*
X1089920D01*
Y992540D01*
X1092460Y990000D01*
X1089920Y987460D01*
Y984920D01*
Y924920D02*
X1092460D01*
X1095000Y927460D01*
X1097540Y924920D01*
X1100080D01*
Y927460D01*
X1097540Y930000D01*
X1100080Y932540D01*
Y935080D01*
X1097540D01*
X1095000Y932540D01*
X1092460Y935080D01*
X1089920D01*
Y932540D01*
X1092460Y930000D01*
X1089920Y927460D01*
Y924920D01*
X1044920Y1794919D02*
X1047460D01*
X1050000Y1797459D01*
X1052540Y1794919D01*
X1055080D01*
Y1797459D01*
X1052540Y1799999D01*
X1055080Y1802539D01*
Y1805079D01*
X1052540D01*
X1050000Y1802539D01*
X1047460Y1805079D01*
X1044920D01*
Y1802539D01*
X1047460Y1799999D01*
X1044920Y1797459D01*
Y1794919D01*
X1059920Y1764919D02*
X1062460D01*
X1065000Y1767460D01*
X1067540Y1764919D01*
X1070080D01*
Y1767460D01*
X1067540Y1770000D01*
X1070080Y1772540D01*
Y1775079D01*
X1067540D01*
X1065000Y1772540D01*
X1062460Y1775079D01*
X1059920D01*
Y1772540D01*
X1062460Y1770000D01*
X1059920Y1767460D01*
Y1764919D01*
Y1704919D02*
X1062460D01*
X1065000Y1707460D01*
X1067540Y1704919D01*
X1070080D01*
Y1707460D01*
X1067540Y1710000D01*
X1070080Y1712540D01*
Y1715079D01*
X1067540D01*
X1065000Y1712540D01*
X1062460Y1715079D01*
X1059920D01*
Y1712540D01*
X1062460Y1710000D01*
X1059920Y1707460D01*
Y1704919D01*
X1029920Y1764919D02*
X1032460D01*
X1035000Y1767460D01*
X1037540Y1764919D01*
X1040080D01*
Y1767460D01*
X1037540Y1770000D01*
X1040080Y1772540D01*
Y1775079D01*
X1037540D01*
X1035000Y1772540D01*
X1032460Y1775079D01*
X1029920D01*
Y1772540D01*
X1032460Y1770000D01*
X1029920Y1767460D01*
Y1764919D01*
X999920D02*
X1002460D01*
X1005000Y1767460D01*
X1007540Y1764919D01*
X1010080D01*
Y1767460D01*
X1007540Y1770000D01*
X1010080Y1772540D01*
Y1775079D01*
X1007540D01*
X1005000Y1772540D01*
X1002460Y1775079D01*
X999920D01*
Y1772540D01*
X1002460Y1770000D01*
X999920Y1767460D01*
Y1764919D01*
Y1704919D02*
X1002460D01*
X1005000Y1707460D01*
X1007540Y1704919D01*
X1010080D01*
Y1707460D01*
X1007540Y1710000D01*
X1010080Y1712540D01*
Y1715079D01*
X1007540D01*
X1005000Y1712540D01*
X1002460Y1715079D01*
X999920D01*
Y1712540D01*
X1002460Y1710000D01*
X999920Y1707460D01*
Y1704919D01*
X984920Y894920D02*
X987460D01*
X990000Y897460D01*
X992540Y894920D01*
X995080D01*
Y897460D01*
X992540Y900000D01*
X995080Y902540D01*
Y905080D01*
X992540D01*
X990000Y902540D01*
X987460Y905080D01*
X984920D01*
Y902540D01*
X987460Y900000D01*
X984920Y897460D01*
Y894920D01*
X969920Y1704919D02*
X972460D01*
X975000Y1707460D01*
X977540Y1704919D01*
X980080D01*
Y1707460D01*
X977540Y1710000D01*
X980080Y1712540D01*
Y1715079D01*
X977540D01*
X975000Y1712540D01*
X972460Y1715079D01*
X969920D01*
Y1712540D01*
X972460Y1710000D01*
X969920Y1707460D01*
Y1704919D01*
Y1284920D02*
X972460D01*
X975000Y1287460D01*
X977540Y1284920D01*
X980080D01*
Y1287460D01*
X977540Y1290000D01*
X980080Y1292540D01*
Y1295080D01*
X977540D01*
X975000Y1292540D01*
X972460Y1295080D01*
X969920D01*
Y1292540D01*
X972460Y1290000D01*
X969920Y1287460D01*
Y1284920D01*
X954920Y1254920D02*
X957460D01*
X960000Y1257460D01*
X962540Y1254920D01*
X965080D01*
Y1257460D01*
X962540Y1260000D01*
X965080Y1262540D01*
Y1265080D01*
X962540D01*
X960000Y1262540D01*
X957460Y1265080D01*
X954920D01*
Y1262540D01*
X957460Y1260000D01*
X954920Y1257460D01*
Y1254920D01*
X939920Y1704919D02*
X942460D01*
X945000Y1707460D01*
X947540Y1704919D01*
X950080D01*
Y1707460D01*
X947540Y1710000D01*
X950080Y1712540D01*
Y1715079D01*
X947540D01*
X945000Y1712540D01*
X942460Y1715079D01*
X939920D01*
Y1712540D01*
X942460Y1710000D01*
X939920Y1707460D01*
Y1704919D01*
X924920Y1674919D02*
X927460D01*
X930000Y1677460D01*
X932540Y1674919D01*
X935080D01*
Y1677460D01*
X932540Y1680000D01*
X935080Y1682540D01*
Y1685079D01*
X932540D01*
X930000Y1682540D01*
X927460Y1685079D01*
X924920D01*
Y1682540D01*
X927460Y1680000D01*
X924920Y1677460D01*
Y1674919D01*
X939920Y1584919D02*
X942460D01*
X945000Y1587460D01*
X947540Y1584919D01*
X950080D01*
Y1587460D01*
X947540Y1590000D01*
X950080Y1592540D01*
Y1595079D01*
X947540D01*
X945000Y1592540D01*
X942460Y1595079D01*
X939920D01*
Y1592540D01*
X942460Y1590000D01*
X939920Y1587460D01*
Y1584919D01*
X924920Y1554919D02*
X927460D01*
X930000Y1557460D01*
X932540Y1554919D01*
X935080D01*
Y1557460D01*
X932540Y1560000D01*
X935080Y1562540D01*
Y1565079D01*
X932540D01*
X930000Y1562540D01*
X927460Y1565079D01*
X924920D01*
Y1562540D01*
X927460Y1560000D01*
X924920Y1557460D01*
Y1554919D01*
Y1494919D02*
X927460D01*
X930000Y1497460D01*
X932540Y1494919D01*
X935080D01*
Y1497460D01*
X932540Y1500000D01*
X935080Y1502540D01*
Y1505079D01*
X932540D01*
X930000Y1502540D01*
X927460Y1505079D01*
X924920D01*
Y1502540D01*
X927460Y1500000D01*
X924920Y1497460D01*
Y1494919D01*
Y1374920D02*
X927460D01*
X930000Y1377460D01*
X932540Y1374920D01*
X935080D01*
Y1377460D01*
X932540Y1380000D01*
X935080Y1382540D01*
Y1385080D01*
X932540D01*
X930000Y1382540D01*
X927460Y1385080D01*
X924920D01*
Y1382540D01*
X927460Y1380000D01*
X924920Y1377460D01*
Y1374920D01*
Y1314920D02*
X927460D01*
X930000Y1317460D01*
X932540Y1314920D01*
X935080D01*
Y1317460D01*
X932540Y1320000D01*
X935080Y1322540D01*
Y1325080D01*
X932540D01*
X930000Y1322540D01*
X927460Y1325080D01*
X924920D01*
Y1322540D01*
X927460Y1320000D01*
X924920Y1317460D01*
Y1314920D01*
Y1254920D02*
X927460D01*
X930000Y1257460D01*
X932540Y1254920D01*
X935080D01*
Y1257460D01*
X932540Y1260000D01*
X935080Y1262540D01*
Y1265080D01*
X932540D01*
X930000Y1262540D01*
X927460Y1265080D01*
X924920D01*
Y1262540D01*
X927460Y1260000D01*
X924920Y1257460D01*
Y1254920D01*
Y1194920D02*
X927460D01*
X930000Y1197460D01*
X932540Y1194920D01*
X935080D01*
Y1197460D01*
X932540Y1200000D01*
X935080Y1202540D01*
Y1205080D01*
X932540D01*
X930000Y1202540D01*
X927460Y1205080D01*
X924920D01*
Y1202540D01*
X927460Y1200000D01*
X924920Y1197460D01*
Y1194920D01*
Y1134920D02*
X927460D01*
X930000Y1137460D01*
X932540Y1134920D01*
X935080D01*
Y1137460D01*
X932540Y1140000D01*
X935080Y1142540D01*
Y1145080D01*
X932540D01*
X930000Y1142540D01*
X927460Y1145080D01*
X924920D01*
Y1142540D01*
X927460Y1140000D01*
X924920Y1137460D01*
Y1134920D01*
X894920Y1014920D02*
X897460D01*
X900000Y1017460D01*
X902540Y1014920D01*
X905080D01*
Y1017460D01*
X902540Y1020000D01*
X905080Y1022540D01*
Y1025080D01*
X902540D01*
X900000Y1022540D01*
X897460Y1025080D01*
X894920D01*
Y1022540D01*
X897460Y1020000D01*
X894920Y1017460D01*
Y1014920D01*
Y954920D02*
X897460D01*
X900000Y957460D01*
X902540Y954920D01*
X905080D01*
Y957460D01*
X902540Y960000D01*
X905080Y962540D01*
Y965080D01*
X902540D01*
X900000Y962540D01*
X897460Y965080D01*
X894920D01*
Y962540D01*
X897460Y960000D01*
X894920Y957460D01*
Y954920D01*
Y894920D02*
X897460D01*
X900000Y897460D01*
X902540Y894920D01*
X905080D01*
Y897460D01*
X902540Y900000D01*
X905080Y902540D01*
Y905080D01*
X902540D01*
X900000Y902540D01*
X897460Y905080D01*
X894920D01*
Y902540D01*
X897460Y900000D01*
X894920Y897460D01*
Y894920D01*
X943248Y1683960D02*
Y1681420D01*
X948328D01*
Y1683960D01*
X950868D01*
Y1689040D01*
X948328D01*
Y1691580D01*
X943248D01*
Y1689040D01*
X940708D01*
Y1683960D01*
X943248D01*
X1035143Y992761D02*
Y990221D01*
X1040223D01*
Y992761D01*
X1042763D01*
Y997841D01*
X1040223D01*
Y1000381D01*
X1035143D01*
Y997841D01*
X1032603D01*
Y992761D01*
X1035143D01*
X877683Y1690721D02*
X880223Y1693261D01*
X882763D01*
X880223Y1695801D01*
X882763Y1698341D01*
X880223D01*
X877683Y1700881D01*
X875143Y1698341D01*
X872603D01*
X875143Y1695801D01*
X872603Y1693261D01*
X875143D01*
X877683Y1690721D01*
X859603D02*
X862143Y1695801D01*
X859603Y1700881D01*
X864683Y1698341D01*
X869763Y1700881D01*
X867223Y1695801D01*
X869763Y1690721D01*
X864683Y1693261D01*
X859603Y1690721D01*
X1013643Y956761D02*
Y954221D01*
X1018723D01*
Y956761D01*
X1021263D01*
Y961841D01*
X1018723D01*
Y964381D01*
X1013643D01*
Y961841D01*
X1011103D01*
Y956761D01*
X1013643D01*
X1079143D02*
Y954221D01*
X1084223D01*
Y956761D01*
X1086763D01*
Y961841D01*
X1084223D01*
Y964381D01*
X1079143D01*
Y961841D01*
X1076603D01*
Y956761D01*
X1079143D01*
X1046143Y934261D02*
Y931721D01*
X1051223D01*
Y934261D01*
X1053763D01*
Y939341D01*
X1051223D01*
Y941881D01*
X1046143D01*
Y939341D01*
X1043603D01*
Y934261D01*
X1046143D01*
X956143Y933761D02*
Y931221D01*
X961223D01*
Y933761D01*
X963763D01*
Y938841D01*
X961223D01*
Y941381D01*
X956143D01*
Y938841D01*
X953603D01*
Y933761D01*
X956143D01*
X1026643Y928261D02*
Y925721D01*
X1031723D01*
Y928261D01*
X1034263D01*
Y933341D01*
X1031723D01*
Y935881D01*
X1026643D01*
Y933341D01*
X1024103D01*
Y928261D01*
X1026643D01*
X913143Y932761D02*
Y930221D01*
X918223D01*
Y932761D01*
X920763D01*
Y937841D01*
X918223D01*
Y940381D01*
X913143D01*
Y937841D01*
X910603D01*
Y932761D01*
X913143D01*
X969143Y928261D02*
Y925721D01*
X974223D01*
Y928261D01*
X976763D01*
Y933341D01*
X974223D01*
Y935881D01*
X969143D01*
Y933341D01*
X966603D01*
Y928261D01*
X969143D01*
X1020143Y968761D02*
Y966221D01*
X1025223D01*
Y968761D01*
X1027763D01*
Y973841D01*
X1025223D01*
Y976381D01*
X1020143D01*
Y973841D01*
X1017603D01*
Y968761D01*
X1020143D01*
X962643D02*
Y966221D01*
X967723D01*
Y968761D01*
X970263D01*
Y973841D01*
X967723D01*
Y976381D01*
X962643D01*
Y973841D01*
X960103D01*
Y968761D01*
X962643D01*
X929643Y950261D02*
Y947721D01*
X934723D01*
Y950261D01*
X937263D01*
Y955341D01*
X934723D01*
Y957881D01*
X929643D01*
Y955341D01*
X927103D01*
Y950261D01*
X929643D01*
X975643Y962261D02*
Y959721D01*
X980723D01*
Y962261D01*
X983263D01*
Y967341D01*
X980723D01*
Y969881D01*
X975643D01*
Y967341D01*
X973103D01*
Y962261D01*
X975643D01*
X1054643Y962761D02*
Y960221D01*
X1059723D01*
Y962761D01*
X1062263D01*
Y967841D01*
X1059723D01*
Y970381D01*
X1054643D01*
Y967841D01*
X1052103D01*
Y962761D01*
X1054643D01*
X1033393D02*
Y960221D01*
X1038473D01*
Y962761D01*
X1041013D01*
Y967841D01*
X1038473D01*
Y970381D01*
X1033393D01*
Y967841D01*
X1030853D01*
Y962761D01*
X1033393D01*
X975163Y1028313D02*
Y1025772D01*
X980243D01*
Y1028313D01*
X982783D01*
Y1033392D01*
X980243D01*
Y1035932D01*
X975163D01*
Y1033392D01*
X972623D01*
Y1028313D01*
X975163D01*
X944643Y1331261D02*
Y1328721D01*
X949723D01*
Y1331261D01*
X952263D01*
Y1336341D01*
X949723D01*
Y1338881D01*
X944643D01*
Y1336341D01*
X942103D01*
Y1331261D01*
X944643D01*
X981143Y1021261D02*
Y1018721D01*
X986223D01*
Y1021261D01*
X988763D01*
Y1026341D01*
X986223D01*
Y1028881D01*
X981143D01*
Y1026341D01*
X978603D01*
Y1021261D01*
X981143D01*
X944643Y1354761D02*
Y1352221D01*
X949723D01*
Y1354761D01*
X952263D01*
Y1359841D01*
X949723D01*
Y1362381D01*
X944643D01*
Y1359841D01*
X942103D01*
Y1354761D01*
X944643D01*
Y1200761D02*
Y1198221D01*
X949723D01*
Y1200761D01*
X952263D01*
Y1205841D01*
X949723D01*
Y1208381D01*
X944643D01*
Y1205841D01*
X942103D01*
Y1200761D01*
X944643D01*
X962028Y1029413D02*
Y1026873D01*
X967108D01*
Y1029413D01*
X969648D01*
Y1034493D01*
X967108D01*
Y1037033D01*
X962028D01*
Y1034493D01*
X959488D01*
Y1029413D01*
X962028D01*
X968663Y1031761D02*
Y1029221D01*
X973743D01*
Y1031761D01*
X976283D01*
Y1036841D01*
X973743D01*
Y1039381D01*
X968663D01*
Y1036841D01*
X966123D01*
Y1031761D01*
X968663D01*
X971143Y1272761D02*
Y1270221D01*
X976223D01*
Y1272761D01*
X978763D01*
Y1277841D01*
X976223D01*
Y1280381D01*
X971143D01*
Y1277841D01*
X968603D01*
Y1272761D01*
X971143D01*
X944643Y1164261D02*
Y1161721D01*
X949723D01*
Y1164261D01*
X952263D01*
Y1169341D01*
X949723D01*
Y1171881D01*
X944643D01*
Y1169341D01*
X942103D01*
Y1164261D01*
X944643D01*
X948143Y1020761D02*
Y1018221D01*
X953223D01*
Y1020761D01*
X955763D01*
Y1025841D01*
X953223D01*
Y1028381D01*
X948143D01*
Y1025841D01*
X945603D01*
Y1020761D01*
X948143D01*
X956393Y1025261D02*
Y1022721D01*
X961473D01*
Y1025261D01*
X964013D01*
Y1030341D01*
X961473D01*
Y1032881D01*
X956393D01*
Y1030341D01*
X953853D01*
Y1025261D01*
X956393D01*
X944643Y1181761D02*
Y1179221D01*
X949723D01*
Y1181761D01*
X952263D01*
Y1186841D01*
X949723D01*
Y1189381D01*
X944643D01*
Y1186841D01*
X942103D01*
Y1181761D01*
X944643D01*
Y1377261D02*
Y1374721D01*
X949723D01*
Y1377261D01*
X952263D01*
Y1382341D01*
X949723D01*
Y1384881D01*
X944643D01*
Y1382341D01*
X942103D01*
Y1377261D01*
X944643D01*
X984143Y982771D02*
Y980231D01*
X989223D01*
Y982771D01*
X991763D01*
Y987851D01*
X989223D01*
Y990391D01*
X984143D01*
Y987851D01*
X981603D01*
Y982771D01*
X984143D01*
X934643Y1003761D02*
Y1001221D01*
X939723D01*
Y1003761D01*
X942263D01*
Y1008841D01*
X939723D01*
Y1011381D01*
X934643D01*
Y1008841D01*
X932103D01*
Y1003761D01*
X934643D01*
X934143Y1122761D02*
Y1120221D01*
X939223D01*
Y1122761D01*
X941763D01*
Y1127841D01*
X939223D01*
Y1130381D01*
X934143D01*
Y1127841D01*
X931603D01*
Y1122761D01*
X934143D01*
X978643Y1608761D02*
Y1606221D01*
X983723D01*
Y1608761D01*
X986263D01*
Y1613841D01*
X983723D01*
Y1616381D01*
X978643D01*
Y1613841D01*
X976103D01*
Y1608761D01*
X978643D01*
X1020359Y990248D02*
Y987708D01*
X1025440D01*
Y990248D01*
X1027980D01*
Y995328D01*
X1025440D01*
Y997868D01*
X1020359D01*
Y995328D01*
X1017820D01*
Y990248D01*
X1020359D01*
X1026893Y992761D02*
Y990221D01*
X1031973D01*
Y992761D01*
X1034513D01*
Y997841D01*
X1031973D01*
Y1000381D01*
X1026893D01*
Y997841D01*
X1024353D01*
Y992761D01*
X1026893D01*
X943143Y1666261D02*
Y1663721D01*
X948223D01*
Y1666261D01*
X950763D01*
Y1671341D01*
X948223D01*
Y1673881D01*
X943143D01*
Y1671341D01*
X940603D01*
Y1666261D01*
X943143D01*
Y1517261D02*
Y1514721D01*
X948223D01*
Y1517261D01*
X950763D01*
Y1522341D01*
X948223D01*
Y1524881D01*
X943143D01*
Y1522341D01*
X940603D01*
Y1517261D01*
X943143D01*
X1004913Y988761D02*
Y986221D01*
X1009993D01*
Y988761D01*
X1012533D01*
Y993841D01*
X1009993D01*
Y996381D01*
X1004913D01*
Y993841D01*
X1002373D01*
Y988761D01*
X1004913D01*
X946643Y1538761D02*
Y1536221D01*
X951723D01*
Y1538761D01*
X954263D01*
Y1543841D01*
X951723D01*
Y1546381D01*
X946643D01*
Y1543841D01*
X944103D01*
Y1538761D01*
X946643D01*
X1013556Y988601D02*
Y986061D01*
X1018636D01*
Y988601D01*
X1021176D01*
Y993681D01*
X1018636D01*
Y996221D01*
X1013556D01*
Y993681D01*
X1011016D01*
Y988601D01*
X1013556D01*
X944143Y1498761D02*
Y1496221D01*
X949223D01*
Y1498761D01*
X951763D01*
Y1503841D01*
X949223D01*
Y1506381D01*
X944143D01*
Y1503841D01*
X941603D01*
Y1498761D01*
X944143D01*
X998143Y982771D02*
Y980231D01*
X1003223D01*
Y982771D01*
X1005763D01*
Y987851D01*
X1003223D01*
Y990391D01*
X998143D01*
Y987851D01*
X995603D01*
Y982771D01*
X998143D01*
X991993Y986114D02*
Y983574D01*
X997073D01*
Y986114D01*
X999613D01*
Y991194D01*
X997073D01*
Y993734D01*
X991993D01*
Y991194D01*
X989453D01*
Y986114D01*
X991993D01*
X971643Y1439761D02*
Y1437221D01*
X976723D01*
Y1439761D01*
X979263D01*
Y1444841D01*
X976723D01*
Y1447381D01*
X971643D01*
Y1444841D01*
X969103D01*
Y1439761D01*
X971643D01*
X906103Y1442721D02*
X908643Y1447801D01*
X906103Y1452881D01*
X911183Y1450341D01*
X916263Y1452881D01*
X913723Y1447801D01*
X916263Y1442721D01*
X911183Y1445261D01*
X906103Y1442721D01*
Y1271221D02*
X908643Y1276301D01*
X906103Y1281381D01*
X911183Y1278841D01*
X916263Y1281381D01*
X913723Y1276301D01*
X916263Y1271221D01*
X911183Y1273761D01*
X906103Y1271221D01*
X1090103Y1449721D02*
X1092643Y1454801D01*
X1090103Y1459881D01*
X1095183Y1457341D01*
X1100263Y1459881D01*
X1097723Y1454801D01*
X1100263Y1449721D01*
X1095183Y1452261D01*
X1090103Y1449721D01*
X1144391Y1741863D02*
X1146931Y1746943D01*
X1144391Y1752023D01*
X1149471Y1749483D01*
X1154551Y1752023D01*
X1152011Y1746943D01*
X1154551Y1741863D01*
X1149471Y1744403D01*
X1144391Y1741863D01*
X1090103Y1615721D02*
X1092643Y1620801D01*
X1090103Y1625881D01*
X1095183Y1623341D01*
X1100263Y1625881D01*
X1097723Y1620801D01*
X1100263Y1615721D01*
X1095183Y1618261D01*
X1090103Y1615721D01*
X1161391Y1741863D02*
X1163931Y1746943D01*
X1161391Y1752023D01*
X1166471Y1749483D01*
X1171551Y1752023D01*
X1169011Y1746943D01*
X1171551Y1741863D01*
X1166471Y1744403D01*
X1161391Y1741863D01*
X906103Y1103221D02*
X908643Y1108301D01*
X906103Y1113381D01*
X911183Y1110841D01*
X916263Y1113381D01*
X913723Y1108301D01*
X916263Y1103221D01*
X911183Y1105761D01*
X906103Y1103221D01*
X1090103Y1277721D02*
X1092643Y1282801D01*
X1090103Y1287881D01*
X1095183Y1285341D01*
X1100263Y1287881D01*
X1097723Y1282801D01*
X1100263Y1277721D01*
X1095183Y1280261D01*
X1090103Y1277721D01*
X906103Y1612221D02*
X908643Y1617301D01*
X906103Y1622381D01*
X911183Y1619841D01*
X916263Y1622381D01*
X913723Y1617301D01*
X916263Y1612221D01*
X911183Y1614761D01*
X906103Y1612221D01*
X1090103Y1102721D02*
X1092643Y1107801D01*
X1090103Y1112881D01*
X1095183Y1110341D01*
X1100263Y1112881D01*
X1097723Y1107801D01*
X1100263Y1102721D01*
X1095183Y1105261D01*
X1090103Y1102721D01*
X1170391Y1741863D02*
X1172931Y1746943D01*
X1170391Y1752023D01*
X1175471Y1749483D01*
X1180551Y1752023D01*
X1178011Y1746943D01*
X1180551Y1741863D01*
X1175471Y1744403D01*
X1170391Y1741863D01*
X996143Y975261D02*
Y972721D01*
X1001223D01*
Y975261D01*
X1003763D01*
Y980341D01*
X1001223D01*
Y982881D01*
X996143D01*
Y980341D01*
X993603D01*
Y975261D01*
X996143D01*
X1040143Y979761D02*
Y977221D01*
X1045223D01*
Y979761D01*
X1047763D01*
Y984841D01*
X1045223D01*
Y987381D01*
X1040143D01*
Y984841D01*
X1037603D01*
Y979761D01*
X1040143D01*
X982393Y974761D02*
Y972221D01*
X987473D01*
Y974761D01*
X990013D01*
Y979841D01*
X987473D01*
Y982381D01*
X982393D01*
Y979841D01*
X979853D01*
Y974761D01*
X982393D01*
X916643Y979761D02*
Y977221D01*
X921723D01*
Y979761D01*
X924263D01*
Y984841D01*
X921723D01*
Y987381D01*
X916643D01*
Y984841D01*
X914103D01*
Y979761D01*
X916643D01*
X973643Y989761D02*
Y987221D01*
X978723D01*
Y989761D01*
X981263D01*
Y994841D01*
X978723D01*
Y997381D01*
X973643D01*
Y994841D01*
X971103D01*
Y989761D01*
X973643D01*
D38*
X1373151Y1585043D02*
G03*
X1373151Y1585043I-5080J0D01*
G01*
Y1635843D02*
G03*
X1373151Y1635843I-5080J0D01*
G01*
X1251551Y1313277D02*
G03*
X1251551Y1313277I-5080J0D01*
G01*
Y1238277D02*
G03*
X1251551Y1238277I-5080J0D01*
G01*
X1201551Y1313277D02*
G03*
X1201551Y1313277I-5080J0D01*
G01*
Y1238277D02*
G03*
X1201551Y1238277I-5080J0D01*
G01*
X1301951Y1313277D02*
G03*
X1301951Y1313277I-5080J0D01*
G01*
Y1238277D02*
G03*
X1301951Y1238277I-5080J0D01*
G01*
X1048551D02*
G03*
X1048551Y1238277I-5080J0D01*
G01*
Y1313277D02*
G03*
X1048551Y1313277I-5080J0D01*
G01*
Y1275777D02*
G03*
X1048551Y1275777I-5080J0D01*
G01*
X957751D02*
G03*
X957751Y1275777I-5080J0D01*
G01*
Y1238277D02*
G03*
X957751Y1238277I-5080J0D01*
G01*
Y1313277D02*
G03*
X957751Y1313277I-5080J0D01*
G01*
X704351D02*
G03*
X704351Y1313277I-5080J0D01*
G01*
Y1238277D02*
G03*
X704351Y1238277I-5080J0D01*
G01*
X804751Y1313277D02*
G03*
X804751Y1313277I-5080J0D01*
G01*
Y1238277D02*
G03*
X804751Y1238277I-5080J0D01*
G01*
X754751Y1313277D02*
G03*
X754751Y1313277I-5080J0D01*
G01*
Y1238277D02*
G03*
X754751Y1238277I-5080J0D01*
G01*
X957751Y1108443D02*
G03*
X957751Y1108443I-5080J0D01*
G01*
Y1070943D02*
G03*
X957751Y1070943I-5080J0D01*
G01*
Y1145943D02*
G03*
X957751Y1145943I-5080J0D01*
G01*
X704351D02*
G03*
X704351Y1145943I-5080J0D01*
G01*
Y1070943D02*
G03*
X704351Y1070943I-5080J0D01*
G01*
X804751Y1145943D02*
G03*
X804751Y1145943I-5080J0D01*
G01*
Y1070943D02*
G03*
X804751Y1070943I-5080J0D01*
G01*
X754751Y1145943D02*
G03*
X754751Y1145943I-5080J0D01*
G01*
Y1070943D02*
G03*
X754751Y1070943I-5080J0D01*
G01*
X1373151Y1133843D02*
G03*
X1373151Y1133843I-5080J0D01*
G01*
Y1083043D02*
G03*
X1373151Y1083043I-5080J0D01*
G01*
X1048551Y1108443D02*
G03*
X1048551Y1108443I-5080J0D01*
G01*
Y1145943D02*
G03*
X1048551Y1145943I-5080J0D01*
G01*
Y1070943D02*
G03*
X1048551Y1070943I-5080J0D01*
G01*
X1301951D02*
G03*
X1301951Y1070943I-5080J0D01*
G01*
Y1145943D02*
G03*
X1301951Y1145943I-5080J0D01*
G01*
X1201551Y1070943D02*
G03*
X1201551Y1070943I-5080J0D01*
G01*
Y1145943D02*
G03*
X1201551Y1145943I-5080J0D01*
G01*
X1251551Y1070943D02*
G03*
X1251551Y1070943I-5080J0D01*
G01*
Y1145943D02*
G03*
X1251551Y1145943I-5080J0D01*
G01*
X957751Y1610443D02*
G03*
X957751Y1610443I-5080J0D01*
G01*
Y1572943D02*
G03*
X957751Y1572943I-5080J0D01*
G01*
Y1647943D02*
G03*
X957751Y1647943I-5080J0D01*
G01*
X704351D02*
G03*
X704351Y1647943I-5080J0D01*
G01*
Y1572943D02*
G03*
X704351Y1572943I-5080J0D01*
G01*
X804751Y1647943D02*
G03*
X804751Y1647943I-5080J0D01*
G01*
Y1572943D02*
G03*
X804751Y1572943I-5080J0D01*
G01*
X754751Y1647943D02*
G03*
X754751Y1647943I-5080J0D01*
G01*
Y1572943D02*
G03*
X754751Y1572943I-5080J0D01*
G01*
X1373151Y1468510D02*
G03*
X1373151Y1468510I-5080J0D01*
G01*
Y1417710D02*
G03*
X1373151Y1417710I-5080J0D01*
G01*
X633151Y1585043D02*
G03*
X633151Y1585043I-5080J0D01*
G01*
Y1635843D02*
G03*
X633151Y1635843I-5080J0D01*
G01*
Y1250377D02*
G03*
X633151Y1250377I-5080J0D01*
G01*
Y1301177D02*
G03*
X633151Y1301177I-5080J0D01*
G01*
Y1083043D02*
G03*
X633151Y1083043I-5080J0D01*
G01*
Y1133843D02*
G03*
X633151Y1133843I-5080J0D01*
G01*
X1373151Y1301177D02*
G03*
X1373151Y1301177I-5080J0D01*
G01*
Y1250377D02*
G03*
X1373151Y1250377I-5080J0D01*
G01*
X1048551Y1610443D02*
G03*
X1048551Y1610443I-5080J0D01*
G01*
Y1647943D02*
G03*
X1048551Y1647943I-5080J0D01*
G01*
Y1572943D02*
G03*
X1048551Y1572943I-5080J0D01*
G01*
X1301951D02*
G03*
X1301951Y1572943I-5080J0D01*
G01*
Y1647943D02*
G03*
X1301951Y1647943I-5080J0D01*
G01*
X1201551Y1572943D02*
G03*
X1201551Y1572943I-5080J0D01*
G01*
Y1647943D02*
G03*
X1201551Y1647943I-5080J0D01*
G01*
X1251551Y1572943D02*
G03*
X1251551Y1572943I-5080J0D01*
G01*
Y1647943D02*
G03*
X1251551Y1647943I-5080J0D01*
G01*
X1048551Y1443110D02*
G03*
X1048551Y1443110I-5080J0D01*
G01*
Y1480610D02*
G03*
X1048551Y1480610I-5080J0D01*
G01*
Y1405610D02*
G03*
X1048551Y1405610I-5080J0D01*
G01*
X1301951D02*
G03*
X1301951Y1405610I-5080J0D01*
G01*
Y1480610D02*
G03*
X1301951Y1480610I-5080J0D01*
G01*
X1201551Y1405610D02*
G03*
X1201551Y1405610I-5080J0D01*
G01*
Y1480610D02*
G03*
X1201551Y1480610I-5080J0D01*
G01*
X1251551Y1405610D02*
G03*
X1251551Y1405610I-5080J0D01*
G01*
Y1480610D02*
G03*
X1251551Y1480610I-5080J0D01*
G01*
X633151Y1417710D02*
G03*
X633151Y1417710I-5080J0D01*
G01*
Y1468510D02*
G03*
X633151Y1468510I-5080J0D01*
G01*
X957751Y1443110D02*
G03*
X957751Y1443110I-5080J0D01*
G01*
Y1405610D02*
G03*
X957751Y1405610I-5080J0D01*
G01*
Y1480610D02*
G03*
X957751Y1480610I-5080J0D01*
G01*
X704351D02*
G03*
X704351Y1480610I-5080J0D01*
G01*
Y1405610D02*
G03*
X704351Y1405610I-5080J0D01*
G01*
X804751Y1480610D02*
G03*
X804751Y1480610I-5080J0D01*
G01*
Y1405610D02*
G03*
X804751Y1405610I-5080J0D01*
G01*
X754751Y1480610D02*
G03*
X754751Y1480610I-5080J0D01*
G01*
Y1405610D02*
G03*
X754751Y1405610I-5080J0D01*
G01*
M02*
