G04*
G04 #@! TF.GenerationSoftware,Altium Limited,Altium Designer,26.5.1 (12)*
G04*
G04 Layer_Physical_Order=2*
G04 Layer_Color=16711680*
G04 Board_Origin=0|0*
%FSLAX44Y44*%
%MOMM*%
G71*
G04*
G04 #@! TF.SameCoordinates,75EFAC43-1628-424D-8E1A-596EA3B04155*
G04*
G04*
G04 #@! TF.FilePolarity,Positive*
G04*
G01*
G75*
%ADD10C,0.2540*%
%ADD13C,3.0000*%
G04:AMPARAMS|DCode=14|XSize=2.1mm|YSize=3.6mm|CornerRadius=0.126mm|HoleSize=0mm|Usage=FLASHONLY|Rotation=90.000|XOffset=0mm|YOffset=0mm|HoleType=Round|Shape=RoundedRectangle|*
%AMROUNDEDRECTD14*
21,1,2.1000,3.3480,0,0,90.0*
21,1,1.8480,3.6000,0,0,90.0*
1,1,0.2520,1.6740,0.9240*
1,1,0.2520,1.6740,-0.9240*
1,1,0.2520,-1.6740,-0.9240*
1,1,0.2520,-1.6740,0.9240*
%
%ADD14ROUNDEDRECTD14*%
G04:AMPARAMS|DCode=15|XSize=2.1mm|YSize=3.6mm|CornerRadius=1.05mm|HoleSize=0mm|Usage=FLASHONLY|Rotation=90.000|XOffset=0mm|YOffset=0mm|HoleType=Round|Shape=RoundedRectangle|*
%AMROUNDEDRECTD15*
21,1,2.1000,1.5000,0,0,90.0*
21,1,0.0000,3.6000,0,0,90.0*
1,1,2.1000,0.7500,0.0000*
1,1,2.1000,0.7500,0.0000*
1,1,2.1000,-0.7500,0.0000*
1,1,2.1000,-0.7500,0.0000*
%
%ADD15ROUNDEDRECTD15*%
%ADD16C,2.0000*%
%ADD17R,1.7000X1.7000*%
%ADD18C,1.7000*%
%ADD19C,0.3000*%
%ADD20C,3.0000*%
%ADD21C,1.0000*%
%ADD22C,0.8000*%
%ADD23C,0.6000*%
%ADD24C,0.8000*%
%ADD25C,1.0000*%
%ADD26C,0.5000*%
%ADD27C,0.7000*%
%ADD28C,0.6000*%
G04:AMPARAMS|DCode=29|XSize=0.8mm|YSize=0.95mm|CornerRadius=0.1mm|HoleSize=0mm|Usage=FLASHONLY|Rotation=180.000|XOffset=0mm|YOffset=0mm|HoleType=Round|Shape=RoundedRectangle|*
%AMROUNDEDRECTD29*
21,1,0.8000,0.7500,0,0,180.0*
21,1,0.6000,0.9500,0,0,180.0*
1,1,0.2000,-0.3000,0.3750*
1,1,0.2000,0.3000,0.3750*
1,1,0.2000,0.3000,-0.3750*
1,1,0.2000,-0.3000,-0.3750*
%
%ADD29ROUNDEDRECTD29*%
G04:AMPARAMS|DCode=30|XSize=1.475mm|YSize=0.4mm|CornerRadius=0.05mm|HoleSize=0mm|Usage=FLASHONLY|Rotation=270.000|XOffset=0mm|YOffset=0mm|HoleType=Round|Shape=RoundedRectangle|*
%AMROUNDEDRECTD30*
21,1,1.4750,0.3000,0,0,270.0*
21,1,1.3750,0.4000,0,0,270.0*
1,1,0.1000,-0.1500,-0.6875*
1,1,0.1000,-0.1500,0.6875*
1,1,0.1000,0.1500,0.6875*
1,1,0.1000,0.1500,-0.6875*
%
%ADD30ROUNDEDRECTD30*%
G04:AMPARAMS|DCode=31|XSize=1.3mm|YSize=1.7mm|CornerRadius=0.1235mm|HoleSize=0mm|Usage=FLASHONLY|Rotation=180.000|XOffset=0mm|YOffset=0mm|HoleType=Round|Shape=RoundedRectangle|*
%AMROUNDEDRECTD31*
21,1,1.3000,1.4530,0,0,180.0*
21,1,1.0530,1.7000,0,0,180.0*
1,1,0.2470,-0.5265,0.7265*
1,1,0.2470,0.5265,0.7265*
1,1,0.2470,0.5265,-0.7265*
1,1,0.2470,-0.5265,-0.7265*
%
%ADD31ROUNDEDRECTD31*%
G04:AMPARAMS|DCode=32|XSize=0.9mm|YSize=0.95mm|CornerRadius=0.1125mm|HoleSize=0mm|Usage=FLASHONLY|Rotation=270.000|XOffset=0mm|YOffset=0mm|HoleType=Round|Shape=RoundedRectangle|*
%AMROUNDEDRECTD32*
21,1,0.9000,0.7250,0,0,270.0*
21,1,0.6750,0.9500,0,0,270.0*
1,1,0.2250,-0.3625,-0.3375*
1,1,0.2250,-0.3625,0.3375*
1,1,0.2250,0.3625,0.3375*
1,1,0.2250,0.3625,-0.3375*
%
%ADD32ROUNDEDRECTD32*%
G04:AMPARAMS|DCode=33|XSize=0.8mm|YSize=0.95mm|CornerRadius=0.1mm|HoleSize=0mm|Usage=FLASHONLY|Rotation=90.000|XOffset=0mm|YOffset=0mm|HoleType=Round|Shape=RoundedRectangle|*
%AMROUNDEDRECTD33*
21,1,0.8000,0.7500,0,0,90.0*
21,1,0.6000,0.9500,0,0,90.0*
1,1,0.2000,0.3750,0.3000*
1,1,0.2000,0.3750,-0.3000*
1,1,0.2000,-0.3750,-0.3000*
1,1,0.2000,-0.3750,0.3000*
%
%ADD33ROUNDEDRECTD33*%
G04:AMPARAMS|DCode=34|XSize=1.475mm|YSize=0.6mm|CornerRadius=0.075mm|HoleSize=0mm|Usage=FLASHONLY|Rotation=180.000|XOffset=0mm|YOffset=0mm|HoleType=Round|Shape=RoundedRectangle|*
%AMROUNDEDRECTD34*
21,1,1.4750,0.4500,0,0,180.0*
21,1,1.3250,0.6000,0,0,180.0*
1,1,0.1500,-0.6625,0.2250*
1,1,0.1500,0.6625,0.2250*
1,1,0.1500,0.6625,-0.2250*
1,1,0.1500,-0.6625,-0.2250*
%
%ADD34ROUNDEDRECTD34*%
G04:AMPARAMS|DCode=35|XSize=1.475mm|YSize=0.6mm|CornerRadius=0.075mm|HoleSize=0mm|Usage=FLASHONLY|Rotation=270.000|XOffset=0mm|YOffset=0mm|HoleType=Round|Shape=RoundedRectangle|*
%AMROUNDEDRECTD35*
21,1,1.4750,0.4500,0,0,270.0*
21,1,1.3250,0.6000,0,0,270.0*
1,1,0.1500,-0.2250,-0.6625*
1,1,0.1500,-0.2250,0.6625*
1,1,0.1500,0.2250,0.6625*
1,1,0.1500,0.2250,-0.6625*
%
%ADD35ROUNDEDRECTD35*%
%ADD36C,0.4000*%
G36*
X1124662Y1837695D02*
X1124477Y1792262D01*
X1103280D01*
Y1792443D01*
X1103047Y1793614D01*
X1102384Y1794606D01*
X1101392Y1795269D01*
X1100221Y1795502D01*
X1094221D01*
X1093051Y1795269D01*
X1092058Y1794606D01*
X1091395Y1793614D01*
X1091162Y1792443D01*
Y1784943D01*
X1091395Y1783773D01*
X1092058Y1782780D01*
X1093051Y1782117D01*
X1094221Y1781885D01*
X1100221D01*
X1101392Y1782117D01*
X1102384Y1782780D01*
X1103047Y1783773D01*
X1103280Y1784943D01*
Y1785125D01*
X1122677D01*
X1124441Y1783353D01*
X1124321Y1753754D01*
X969298D01*
X967386Y1755793D01*
X967661Y1758352D01*
X968895Y1758975D01*
X969112Y1759145D01*
X969349Y1759287D01*
X969423Y1759388D01*
X969522Y1759465D01*
X969658Y1759705D01*
X969821Y1759927D01*
X969852Y1760048D01*
X969913Y1760157D01*
X969947Y1760431D01*
X970013Y1760699D01*
X970596Y1773038D01*
X970593Y1773062D01*
X970598Y1773086D01*
X970534Y1773455D01*
X970478Y1773825D01*
X970466Y1773846D01*
X970462Y1773870D01*
X970261Y1774185D01*
X970068Y1774507D01*
X970048Y1774521D01*
X970035Y1774542D01*
X969175Y1775443D01*
X970246Y1777943D01*
X970583D01*
Y1798943D01*
X971697Y1800982D01*
X971766Y1801075D01*
X971778Y1801122D01*
X971805Y1801163D01*
X971874Y1801507D01*
X971958Y1801847D01*
X972457Y1812404D01*
X972408Y1812731D01*
X972381Y1813060D01*
X971820Y1815027D01*
X971669Y1815320D01*
X971538Y1815624D01*
X968520Y1820003D01*
X968458Y1820063D01*
X968417Y1820139D01*
X968174Y1820338D01*
X967949Y1820557D01*
X967869Y1820589D01*
X967802Y1820644D01*
X964563Y1822374D01*
X964480Y1822399D01*
X964409Y1822448D01*
X964102Y1822513D01*
X963802Y1822604D01*
X963715Y1822596D01*
X963631Y1822614D01*
X865646Y1823963D01*
X864470Y1824514D01*
X863183Y1825488D01*
Y1839467D01*
X1122898D01*
X1124662Y1837695D01*
D02*
G37*
G36*
X963603Y1820575D02*
X966841Y1818845D01*
X969859Y1814467D01*
X970420Y1812501D01*
X969921Y1801943D01*
X962583D01*
Y1788443D01*
Y1774943D01*
X966834D01*
X968560Y1773134D01*
X967976Y1760795D01*
X965413Y1759502D01*
X964919Y1759832D01*
X962486Y1760316D01*
X959721D01*
Y1746693D01*
X957221D01*
Y1744193D01*
X945599D01*
Y1739428D01*
X946083Y1736996D01*
X947461Y1734933D01*
X948655Y1734135D01*
X947732Y1731745D01*
X942635Y1732508D01*
X939273Y1735855D01*
X936216Y1755724D01*
X932468Y1759111D01*
X860495Y1762808D01*
X856704Y1766968D01*
X857404Y1814275D01*
X858792Y1817237D01*
X863215Y1821051D01*
X865618Y1821925D01*
X963603Y1820575D01*
D02*
G37*
G36*
X1182432Y1760267D02*
X1186096Y1755909D01*
X1182840Y1720904D01*
X1178508Y1717290D01*
X1137202Y1720901D01*
X1133614Y1725592D01*
X1136134Y1759978D01*
X1140438Y1763626D01*
X1182432Y1760267D01*
D02*
G37*
G36*
X913033Y1758067D02*
X913180Y1757903D01*
X914101Y1755509D01*
X913909Y1755221D01*
X913658Y1753958D01*
Y1752811D01*
X899853D01*
X899634Y1753139D01*
X898642Y1753802D01*
X897471Y1754035D01*
X891471D01*
X890301Y1753802D01*
X889308Y1753139D01*
X888645Y1752146D01*
X888412Y1750976D01*
Y1747521D01*
X888354Y1747226D01*
X888412Y1746930D01*
Y1743476D01*
X888645Y1742305D01*
X889308Y1741313D01*
X890301Y1740650D01*
X891471Y1740417D01*
X897471D01*
X898269Y1740576D01*
X913658D01*
Y1739428D01*
X913909Y1738166D01*
X914624Y1737096D01*
X915353Y1736608D01*
Y1728050D01*
X914895Y1727364D01*
X914662Y1726193D01*
Y1720193D01*
X914895Y1719023D01*
X915558Y1718031D01*
X916551Y1717368D01*
X917721Y1717135D01*
X921176D01*
X921471Y1717076D01*
X921767Y1717135D01*
X925221D01*
X926392Y1717368D01*
X927384Y1718031D01*
X928047Y1719023D01*
X928280Y1720193D01*
Y1726193D01*
X928047Y1727364D01*
X927589Y1728050D01*
Y1736150D01*
X928748Y1736381D01*
X929818Y1737096D01*
X930533Y1738166D01*
X930784Y1739428D01*
Y1753876D01*
X931106Y1754178D01*
X932910Y1755411D01*
X934184Y1754653D01*
X934339Y1754518D01*
X937258Y1735545D01*
X937342Y1735313D01*
X937391Y1735071D01*
X937477Y1734943D01*
X937530Y1734798D01*
X937697Y1734615D01*
X937834Y1734411D01*
X941196Y1731063D01*
X941402Y1730926D01*
X941585Y1730760D01*
X941730Y1730708D01*
X941859Y1730622D01*
X942101Y1730574D01*
X942333Y1730491D01*
X947430Y1729729D01*
X947607Y1729737D01*
X947781Y1729707D01*
X948000Y1729756D01*
X948225Y1729767D01*
X948385Y1729842D01*
X948557Y1729881D01*
X948741Y1730010D01*
X948945Y1730106D01*
X949063Y1730237D01*
X949208Y1730338D01*
X949329Y1730529D01*
X949480Y1730695D01*
X949539Y1730861D01*
X949634Y1731010D01*
X950557Y1733400D01*
X950588Y1733574D01*
X950655Y1733737D01*
Y1733840D01*
X950677Y1734000D01*
X951049Y1734633D01*
X951719Y1735482D01*
X952150Y1735866D01*
X952152Y1735867D01*
X952309Y1735954D01*
X952700Y1736130D01*
X962486D01*
X963748Y1736381D01*
X964818Y1737096D01*
X965533Y1738166D01*
X965784Y1739428D01*
Y1739633D01*
X1122492D01*
X1124256Y1737862D01*
X1124174Y1717801D01*
X1089297Y1676253D01*
X1089230Y1623499D01*
X1082291Y1616561D01*
X1053796D01*
X1053074Y1617811D01*
X1050839Y1620046D01*
X1048103Y1621626D01*
X1045051Y1622443D01*
X1041891D01*
X1038839Y1621626D01*
X1036103Y1620046D01*
X1033869Y1617811D01*
X1032289Y1615075D01*
X1031471Y1612023D01*
Y1608864D01*
X1032289Y1605811D01*
X1033869Y1603075D01*
X1036103Y1600841D01*
X1038839Y1599261D01*
X1041891Y1598443D01*
X1045051D01*
X1048103Y1599261D01*
X1050839Y1600841D01*
X1053074Y1603075D01*
X1053796Y1604326D01*
X1084826D01*
X1086706Y1604700D01*
X1088378Y1603813D01*
X1089204Y1603146D01*
X1089018Y1457288D01*
X1080958Y1449228D01*
X1053796D01*
X1053074Y1450478D01*
X1050839Y1452712D01*
X1048103Y1454292D01*
X1045051Y1455110D01*
X1041891D01*
X1038839Y1454292D01*
X1036103Y1452712D01*
X1033869Y1450478D01*
X1032289Y1447742D01*
X1031471Y1444690D01*
Y1441530D01*
X1032289Y1438478D01*
X1033869Y1435742D01*
X1036103Y1433508D01*
X1038839Y1431928D01*
X1041891Y1431110D01*
X1045051D01*
X1048103Y1431928D01*
X1050839Y1433508D01*
X1053074Y1435742D01*
X1053796Y1436992D01*
X1083492D01*
X1085833Y1437458D01*
X1086494Y1437899D01*
X1088992Y1436562D01*
X1088800Y1285069D01*
X1085625Y1281894D01*
X1053796D01*
X1053074Y1283145D01*
X1050839Y1285379D01*
X1048103Y1286959D01*
X1045051Y1287777D01*
X1041891D01*
X1038839Y1286959D01*
X1036103Y1285379D01*
X1033869Y1283145D01*
X1032289Y1280408D01*
X1031471Y1277356D01*
Y1274197D01*
X1032289Y1271145D01*
X1033869Y1268409D01*
X1036103Y1266174D01*
X1038839Y1264594D01*
X1041891Y1263777D01*
X1045051D01*
X1048103Y1264594D01*
X1050839Y1266174D01*
X1053074Y1268409D01*
X1053796Y1269659D01*
X1086280D01*
X1088777Y1267415D01*
X1088583Y1114561D01*
X1053796D01*
X1053074Y1115812D01*
X1050839Y1118046D01*
X1048103Y1119626D01*
X1045051Y1120443D01*
X1041891D01*
X1038839Y1119626D01*
X1036103Y1118046D01*
X1033869Y1115812D01*
X1032289Y1113075D01*
X1031471Y1110023D01*
Y1106863D01*
X1032289Y1103811D01*
X1033869Y1101075D01*
X1036103Y1098841D01*
X1038839Y1097261D01*
X1041891Y1096443D01*
X1045051D01*
X1048103Y1097261D01*
X1050839Y1098841D01*
X1053074Y1101075D01*
X1053796Y1102326D01*
X1086798D01*
X1088565Y1100557D01*
X1088475Y1029343D01*
X1106683Y1029301D01*
Y881135D01*
X889183D01*
Y1028031D01*
X890953Y1029797D01*
X916894Y1029737D01*
X916940Y1102183D01*
X942429D01*
X943069Y1101075D01*
X945303Y1098841D01*
X948039Y1097261D01*
X951091Y1096443D01*
X954251D01*
X957303Y1097261D01*
X960039Y1098841D01*
X962273Y1101075D01*
X963853Y1103811D01*
X964671Y1106863D01*
Y1110023D01*
X963853Y1113075D01*
X962273Y1115812D01*
X960039Y1118046D01*
X959627Y1118284D01*
X958857Y1121615D01*
X959094Y1121967D01*
X967802D01*
X971825Y1117943D01*
X980374Y1109395D01*
Y1104051D01*
X980607Y1102880D01*
X981270Y1101888D01*
X982262Y1101225D01*
X983433Y1100992D01*
X989433D01*
X990603Y1101225D01*
X991596Y1101888D01*
X992259Y1102880D01*
X992492Y1104051D01*
Y1111551D01*
X992259Y1112721D01*
X991596Y1113714D01*
X990603Y1114377D01*
X989433Y1114610D01*
X984589D01*
X976541Y1122658D01*
X976541Y1122658D01*
X971541Y1127658D01*
X970459Y1128381D01*
X969183Y1128635D01*
X939713D01*
X939232Y1129116D01*
X937578Y1129801D01*
X935788D01*
X934134Y1129116D01*
X932868Y1127850D01*
X932183Y1126196D01*
Y1124406D01*
X932868Y1122752D01*
X934134Y1121486D01*
X935788Y1120801D01*
X937578D01*
X939232Y1121486D01*
X939713Y1121967D01*
X946248D01*
X946485Y1121615D01*
X945715Y1118284D01*
X945303Y1118046D01*
X943069Y1115812D01*
X942264Y1114418D01*
X918716D01*
X916948Y1116187D01*
X917045Y1269659D01*
X942347D01*
X943069Y1268409D01*
X945303Y1266174D01*
X948039Y1264594D01*
X951091Y1263777D01*
X954251D01*
X957303Y1264594D01*
X960039Y1266174D01*
X962273Y1268409D01*
X963853Y1271145D01*
X964671Y1274197D01*
Y1277356D01*
X963853Y1280408D01*
X962273Y1283145D01*
X960039Y1285379D01*
X957303Y1286959D01*
X954251Y1287777D01*
X951091D01*
X948039Y1286959D01*
X945303Y1285379D01*
X943069Y1283145D01*
X942347Y1281894D01*
X918821D01*
X917054Y1283663D01*
X917150Y1436992D01*
X942347D01*
X943069Y1435742D01*
X945303Y1433508D01*
X948039Y1431928D01*
X951091Y1431110D01*
X954251D01*
X957303Y1431928D01*
X960039Y1433508D01*
X962273Y1435742D01*
X963853Y1438478D01*
X964671Y1441530D01*
Y1444690D01*
X963853Y1447742D01*
X962273Y1450478D01*
X960039Y1452712D01*
X957303Y1454292D01*
X954251Y1455110D01*
X951091D01*
X948039Y1454292D01*
X945303Y1452712D01*
X943069Y1450478D01*
X942347Y1449228D01*
X919140D01*
X917159Y1451210D01*
X917254Y1603681D01*
X918040Y1604326D01*
X942347D01*
X943069Y1603075D01*
X945303Y1600841D01*
X948039Y1599261D01*
X951091Y1598443D01*
X954251D01*
X957303Y1599261D01*
X960039Y1600841D01*
X962273Y1603075D01*
X963853Y1605811D01*
X964671Y1608864D01*
Y1612023D01*
X963853Y1615075D01*
X962273Y1617811D01*
X960039Y1620046D01*
X957303Y1621626D01*
X954251Y1622443D01*
X951091D01*
X948039Y1621626D01*
X945303Y1620046D01*
X943069Y1617811D01*
X942347Y1616561D01*
X920574D01*
X917265Y1619871D01*
X917299Y1674701D01*
X893747Y1693520D01*
X892800Y1695716D01*
X893922Y1697178D01*
X894628Y1698881D01*
X894868Y1700708D01*
X894628Y1702536D01*
X893922Y1704239D01*
X892800Y1705701D01*
X894259Y1707733D01*
X894806Y1708160D01*
X894846Y1708152D01*
X895596D01*
Y1717101D01*
X891023D01*
Y1711976D01*
X891102Y1711579D01*
X890541Y1710553D01*
X889544Y1709479D01*
X889204Y1709280D01*
X885346D01*
X884784Y1709168D01*
X883437Y1710432D01*
X882989Y1711166D01*
X883150Y1711976D01*
Y1715677D01*
X883623Y1716385D01*
X884089Y1718726D01*
Y1747226D01*
X884030Y1747521D01*
Y1750976D01*
X883797Y1752146D01*
X883134Y1753139D01*
X882142Y1753802D01*
X880971Y1754035D01*
X874971D01*
X873801Y1753802D01*
X872808Y1753139D01*
X872145Y1752146D01*
X871912Y1750976D01*
Y1747522D01*
X871853Y1747226D01*
Y1718726D01*
X872319Y1716385D01*
X872865Y1715568D01*
X872469Y1713350D01*
X870164Y1712364D01*
X863183Y1717942D01*
Y1758813D01*
X864995Y1760535D01*
X913033Y1758067D01*
D02*
G37*
%LPC*%
G36*
X1012397Y1799943D02*
X1009369D01*
X1006444Y1799160D01*
X1003822Y1797646D01*
X1003812Y1797636D01*
X1010883Y1790565D01*
X1017954Y1797636D01*
X1017944Y1797646D01*
X1015322Y1799160D01*
X1012397Y1799943D01*
D02*
G37*
G36*
X1037665Y1798943D02*
X1034901D01*
X1032230Y1798228D01*
X1029836Y1796845D01*
X1027881Y1794890D01*
X1026498Y1792496D01*
X1025783Y1789826D01*
Y1787061D01*
X1026498Y1784391D01*
X1027881Y1781996D01*
X1029836Y1780041D01*
X1032230Y1778659D01*
X1034901Y1777943D01*
X1037665D01*
X1040336Y1778659D01*
X1042730Y1780041D01*
X1044685Y1781996D01*
X1046067Y1784391D01*
X1046264Y1785125D01*
X1074662D01*
Y1784943D01*
X1074895Y1783773D01*
X1075558Y1782780D01*
X1076551Y1782117D01*
X1077721Y1781885D01*
X1083721D01*
X1084892Y1782117D01*
X1085884Y1782780D01*
X1086547Y1783773D01*
X1086780Y1784943D01*
Y1792443D01*
X1086547Y1793614D01*
X1085884Y1794606D01*
X1084892Y1795269D01*
X1083721Y1795502D01*
X1077721D01*
X1076551Y1795269D01*
X1075558Y1794606D01*
X1074895Y1793614D01*
X1074662Y1792443D01*
Y1792262D01*
X1046130D01*
X1046067Y1792496D01*
X1044685Y1794890D01*
X1042730Y1796845D01*
X1040336Y1798228D01*
X1037665Y1798943D01*
D02*
G37*
G36*
X1001691Y1795514D02*
X1001681Y1795504D01*
X1000167Y1792882D01*
X999383Y1789957D01*
Y1786929D01*
X1000167Y1784005D01*
X1001681Y1781382D01*
X1001691Y1781372D01*
X1008762Y1788443D01*
X1001691Y1795514D01*
D02*
G37*
G36*
X1020075Y1795514D02*
X1013004Y1788443D01*
X1020075Y1781372D01*
X1020085Y1781382D01*
X1021599Y1784005D01*
X1022383Y1786929D01*
Y1789957D01*
X1021599Y1792882D01*
X1020085Y1795504D01*
X1020075Y1795514D01*
D02*
G37*
G36*
X986865Y1798943D02*
X984101D01*
X981430Y1798228D01*
X979036Y1796845D01*
X977081Y1794890D01*
X975698Y1792496D01*
X974983Y1789826D01*
Y1787061D01*
X975698Y1784391D01*
X977081Y1781996D01*
X979036Y1780041D01*
X981430Y1778659D01*
X984101Y1777943D01*
X986865D01*
X989536Y1778659D01*
X991930Y1780041D01*
X993885Y1781996D01*
X995267Y1784391D01*
X995983Y1787061D01*
Y1789826D01*
X995267Y1792496D01*
X993885Y1794890D01*
X991930Y1796845D01*
X989536Y1798228D01*
X986865Y1798943D01*
D02*
G37*
G36*
X1010883Y1786322D02*
X1003812Y1779251D01*
X1003822Y1779241D01*
X1006444Y1777727D01*
X1009369Y1776943D01*
X1012397D01*
X1015322Y1777727D01*
X1017944Y1779241D01*
X1017954Y1779251D01*
X1010883Y1786322D01*
D02*
G37*
G36*
X957583Y1801943D02*
X946583D01*
Y1790943D01*
X957583D01*
Y1801943D01*
D02*
G37*
G36*
Y1785943D02*
X946583D01*
Y1774943D01*
X957583D01*
Y1785943D01*
D02*
G37*
G36*
X954721Y1760316D02*
X951956D01*
X949523Y1759832D01*
X947461Y1758454D01*
X946083Y1756391D01*
X945599Y1753958D01*
Y1749193D01*
X954721D01*
Y1760316D01*
D02*
G37*
G36*
X899346Y1729049D02*
X898596D01*
Y1720101D01*
X903169D01*
Y1725226D01*
X902878Y1726689D01*
X902050Y1727929D01*
X900809Y1728758D01*
X899346Y1729049D01*
D02*
G37*
G36*
X895596D02*
X894846D01*
X893383Y1728758D01*
X892142Y1727929D01*
X891314Y1726689D01*
X891023Y1725226D01*
Y1720101D01*
X895596D01*
Y1729049D01*
D02*
G37*
G36*
X925221Y1713772D02*
X922971D01*
Y1708194D01*
X929299D01*
Y1709693D01*
X928989Y1711254D01*
X928105Y1712577D01*
X926782Y1713461D01*
X925221Y1713772D01*
D02*
G37*
G36*
X919971D02*
X917721D01*
X916160Y1713461D01*
X914837Y1712577D01*
X913953Y1711254D01*
X913643Y1709693D01*
Y1708194D01*
X919971D01*
Y1713772D01*
D02*
G37*
G36*
X903169Y1717101D02*
X898596D01*
Y1708152D01*
X899346D01*
X900809Y1708443D01*
X902050Y1709272D01*
X902878Y1710513D01*
X903169Y1711976D01*
Y1717101D01*
D02*
G37*
G36*
X929299Y1705193D02*
X922971D01*
Y1699615D01*
X925221D01*
X926782Y1699926D01*
X928105Y1700810D01*
X928989Y1702133D01*
X929299Y1703693D01*
Y1705193D01*
D02*
G37*
G36*
X919971D02*
X913643D01*
Y1703693D01*
X913953Y1702133D01*
X914837Y1700810D01*
X916160Y1699926D01*
X917721Y1699615D01*
X919971D01*
Y1705193D01*
D02*
G37*
G36*
X986500Y1695328D02*
X984250D01*
X982689Y1695018D01*
X981366Y1694134D01*
X980482Y1692811D01*
X980172Y1691250D01*
Y1689750D01*
X986500D01*
Y1695328D01*
D02*
G37*
G36*
X1033250Y1693573D02*
X1028125D01*
Y1689000D01*
X1037074D01*
Y1689750D01*
X1036782Y1691213D01*
X1035954Y1692454D01*
X1034713Y1693282D01*
X1033250Y1693573D01*
D02*
G37*
G36*
X1009625Y1695331D02*
X1007500D01*
Y1687750D01*
X1004500D01*
Y1695331D01*
X1002375D01*
X1000766Y1695011D01*
X999401Y1694099D01*
X998489Y1692735D01*
X998238Y1691469D01*
X995828Y1691250D01*
X995518Y1692811D01*
X994634Y1694134D01*
X993311Y1695018D01*
X991750Y1695328D01*
X989500D01*
Y1688250D01*
Y1681172D01*
X991750D01*
X993311Y1681482D01*
X994634Y1682366D01*
X995518Y1683689D01*
X995669Y1684450D01*
X998169Y1684375D01*
X998489Y1682766D01*
X999401Y1681401D01*
X1000319Y1680788D01*
X1000361Y1680676D01*
X1000502Y1678955D01*
X1000341Y1678025D01*
X1000122Y1677878D01*
X999431Y1676844D01*
X999189Y1675625D01*
Y1671762D01*
X994809D01*
Y1674750D01*
X994576Y1675921D01*
X993913Y1676913D01*
X992921Y1677576D01*
X991750Y1677809D01*
X984648D01*
X983782Y1678724D01*
X983886Y1679371D01*
X985177Y1681172D01*
X986500D01*
Y1686750D01*
X979530D01*
X977672Y1685697D01*
X977309Y1685915D01*
Y1691750D01*
X977076Y1692921D01*
X976413Y1693913D01*
X975421Y1694576D01*
X974250Y1694809D01*
X968250D01*
X967079Y1694576D01*
X966087Y1693913D01*
X965424Y1692921D01*
X965191Y1691750D01*
Y1684250D01*
X965424Y1683080D01*
X966087Y1682087D01*
X967079Y1681424D01*
X968250Y1681191D01*
X970138D01*
X973077Y1678252D01*
X972042Y1675752D01*
X968145D01*
X966974Y1675519D01*
X965982Y1674856D01*
X965319Y1673864D01*
X965086Y1672693D01*
Y1665193D01*
X965319Y1664023D01*
X965982Y1663031D01*
X966974Y1662367D01*
X967599Y1662243D01*
Y1659551D01*
X967853Y1658275D01*
X968575Y1657193D01*
X976014Y1649754D01*
Y1648693D01*
X976126Y1648131D01*
X974862Y1646785D01*
X974128Y1646336D01*
X973318Y1646497D01*
X972818D01*
X972596Y1646541D01*
X964671D01*
Y1649523D01*
X963853Y1652575D01*
X962273Y1655311D01*
X960039Y1657546D01*
X957303Y1659126D01*
X955403Y1659635D01*
X955732Y1662135D01*
X957645D01*
X958815Y1662367D01*
X959808Y1663031D01*
X960471Y1664023D01*
X960704Y1665193D01*
Y1672693D01*
X960471Y1673864D01*
X959808Y1674856D01*
X958815Y1675519D01*
X957645Y1675752D01*
X951645D01*
X950474Y1675519D01*
X949482Y1674856D01*
X948819Y1673864D01*
X946578Y1673301D01*
X944788D01*
X943134Y1672616D01*
X941868Y1671350D01*
X941183Y1669696D01*
Y1667906D01*
X941868Y1666252D01*
X943134Y1664986D01*
X944788Y1664301D01*
X946578D01*
X948819Y1664023D01*
X949482Y1663031D01*
X950474Y1662367D01*
X950671Y1662328D01*
X950561Y1659801D01*
X948039Y1659126D01*
X945303Y1657546D01*
X943069Y1655311D01*
X941489Y1652575D01*
X940671Y1649523D01*
Y1646364D01*
X941489Y1643311D01*
X943069Y1640575D01*
X945303Y1638341D01*
X948039Y1636761D01*
X951091Y1635943D01*
X954251D01*
X957214Y1636737D01*
X957220Y1636734D01*
X959171Y1636345D01*
X972596D01*
X972818Y1636389D01*
X972998D01*
X973953Y1635577D01*
X975003Y1634234D01*
X974995Y1634193D01*
Y1633443D01*
X983943D01*
Y1638017D01*
X979327D01*
X978668Y1638498D01*
X978266Y1638948D01*
X977466Y1640297D01*
X977694Y1641443D01*
X977306Y1643394D01*
X977035Y1643800D01*
X978619Y1645929D01*
X978818Y1645889D01*
X992068D01*
X993141Y1646103D01*
X993922Y1646625D01*
X1000189D01*
Y1646375D01*
X1000431Y1645156D01*
X1001122Y1644122D01*
X1001341Y1643975D01*
X1001502Y1643045D01*
X1001361Y1641324D01*
X1001319Y1641212D01*
X1000401Y1640599D01*
X999489Y1639234D01*
X999169Y1637625D01*
Y1635750D01*
X1007000D01*
Y1634250D01*
X1008500D01*
Y1626669D01*
X1010625D01*
X1012234Y1626989D01*
X1013599Y1627901D01*
X1014511Y1629265D01*
X1014762Y1630531D01*
X1017172Y1630750D01*
X1017482Y1629189D01*
X1018366Y1627866D01*
X1019689Y1626982D01*
X1021250Y1626672D01*
X1023500D01*
Y1633750D01*
Y1640828D01*
X1021250D01*
X1019689Y1640518D01*
X1018366Y1639634D01*
X1017482Y1638311D01*
X1017331Y1637550D01*
X1014831Y1637625D01*
X1014511Y1639234D01*
X1013599Y1640599D01*
X1012681Y1641212D01*
X1012639Y1641324D01*
X1012498Y1643045D01*
X1012658Y1643975D01*
X1012878Y1644122D01*
X1013569Y1645156D01*
X1013811Y1646375D01*
Y1646625D01*
X1018316D01*
X1018424Y1646080D01*
X1019087Y1645087D01*
X1020079Y1644424D01*
X1021250Y1644191D01*
X1028750D01*
X1029921Y1644424D01*
X1032118Y1643392D01*
X1032331Y1643193D01*
X1033526Y1641118D01*
X1031634Y1639634D01*
X1030311Y1640518D01*
X1028750Y1640828D01*
X1026500D01*
Y1635250D01*
X1032828D01*
Y1636750D01*
X1032518Y1638311D01*
X1032529Y1638383D01*
X1034715Y1639729D01*
X1036103Y1638341D01*
X1038839Y1636761D01*
X1041891Y1635943D01*
X1045051D01*
X1048103Y1636761D01*
X1050839Y1638341D01*
X1053074Y1640575D01*
X1054653Y1643311D01*
X1055471Y1646364D01*
Y1649523D01*
X1054653Y1652575D01*
X1053074Y1655311D01*
X1050839Y1657546D01*
X1048569Y1658857D01*
Y1672946D01*
X1052000D01*
X1053073Y1673160D01*
X1053983Y1673767D01*
X1054590Y1674677D01*
X1054804Y1675750D01*
Y1680250D01*
X1054590Y1681323D01*
X1053983Y1682233D01*
X1053073Y1682840D01*
X1052000Y1683054D01*
X1039071D01*
X1038115Y1683866D01*
X1037065Y1685210D01*
X1037074Y1685250D01*
Y1686000D01*
X1028125D01*
Y1681427D01*
X1033250D01*
X1033647Y1681505D01*
X1034673Y1680945D01*
X1035747Y1679948D01*
X1035946Y1679608D01*
Y1675750D01*
X1036058Y1675188D01*
X1034793Y1673841D01*
X1034060Y1673393D01*
X1033250Y1673554D01*
X1020000D01*
X1018927Y1673340D01*
X1018017Y1672733D01*
X1017410Y1671823D01*
X1017398Y1671762D01*
X1012811D01*
Y1675625D01*
X1012569Y1676844D01*
X1011878Y1677878D01*
X1011658Y1678025D01*
X1011498Y1678955D01*
X1011639Y1680676D01*
X1011681Y1680788D01*
X1012599Y1681401D01*
X1013511Y1682766D01*
X1013831Y1684375D01*
X1016331Y1684475D01*
X1016468Y1683787D01*
X1017296Y1682546D01*
X1018537Y1681718D01*
X1020000Y1681427D01*
X1025125D01*
Y1687500D01*
Y1693573D01*
X1020000D01*
X1018537Y1693282D01*
X1017296Y1692454D01*
X1016468Y1691213D01*
X1016331Y1690525D01*
X1013831Y1690772D01*
Y1691125D01*
X1013511Y1692735D01*
X1012599Y1694099D01*
X1011235Y1695011D01*
X1009625Y1695331D01*
D02*
G37*
G36*
X957750Y1694809D02*
X951750D01*
X950580Y1694576D01*
X949587Y1693913D01*
X948924Y1692921D01*
X947288Y1691569D01*
X945922Y1691297D01*
X945478Y1691000D01*
X944893D01*
X943239Y1690315D01*
X941973Y1689049D01*
X941288Y1687395D01*
Y1685605D01*
X941973Y1683951D01*
X943239Y1682685D01*
X944893Y1682000D01*
X946683D01*
X948337Y1682685D01*
X949587Y1682087D01*
X950580Y1681424D01*
X951750Y1681191D01*
X957750D01*
X958921Y1681424D01*
X959913Y1682087D01*
X960576Y1683080D01*
X960809Y1684250D01*
Y1691750D01*
X960576Y1692921D01*
X959913Y1693913D01*
X958921Y1694576D01*
X957750Y1694809D01*
D02*
G37*
G36*
X992068Y1638017D02*
X986943D01*
Y1633443D01*
X995892D01*
Y1634193D01*
X995601Y1635656D01*
X994772Y1636897D01*
X993531Y1637726D01*
X992068Y1638017D01*
D02*
G37*
G36*
X1032828Y1632250D02*
X1026500D01*
Y1626672D01*
X1028750D01*
X1030311Y1626982D01*
X1031634Y1627866D01*
X1032518Y1629189D01*
X1032828Y1630750D01*
Y1632250D01*
D02*
G37*
G36*
X1005500Y1632750D02*
X999169D01*
Y1630875D01*
X999489Y1629265D01*
X1000401Y1627901D01*
X1001766Y1626989D01*
X1003375Y1626669D01*
X1005500D01*
Y1632750D01*
D02*
G37*
G36*
X995892Y1630443D02*
X986943D01*
Y1625870D01*
X992068D01*
X993531Y1626161D01*
X994772Y1626990D01*
X995601Y1628230D01*
X995892Y1629693D01*
Y1630443D01*
D02*
G37*
G36*
X983943D02*
X974995D01*
Y1629693D01*
X975286Y1628230D01*
X976115Y1626990D01*
X977355Y1626161D01*
X978818Y1625870D01*
X983943D01*
Y1630443D01*
D02*
G37*
G36*
X993933Y1618110D02*
X987933D01*
X986762Y1617877D01*
X985770Y1617214D01*
X985529Y1616854D01*
X984809Y1616157D01*
X982444Y1615649D01*
X982078Y1615801D01*
X980288D01*
X978634Y1615116D01*
X977368Y1613850D01*
X976683Y1612196D01*
Y1610406D01*
X977368Y1608752D01*
X978634Y1607486D01*
X980288Y1606801D01*
X982078D01*
X982444Y1606953D01*
X984809Y1606444D01*
X985529Y1605748D01*
X985770Y1605388D01*
X986762Y1604725D01*
X987933Y1604492D01*
X993933D01*
X995104Y1604725D01*
X996096Y1605388D01*
X996759Y1606380D01*
X996992Y1607551D01*
Y1615051D01*
X996759Y1616221D01*
X996096Y1617214D01*
X995104Y1617877D01*
X993933Y1618110D01*
D02*
G37*
G36*
X1010433D02*
X1004433D01*
X1003262Y1617877D01*
X1002270Y1617214D01*
X1001607Y1616221D01*
X1001374Y1615051D01*
Y1607551D01*
X1001607Y1606380D01*
X1002270Y1605388D01*
X1003262Y1604725D01*
X1003864Y1604605D01*
Y1595096D01*
X1003798Y1594762D01*
X1000587D01*
X1000562Y1594891D01*
X999954Y1595801D01*
X999044Y1596409D01*
X997971Y1596622D01*
X984721D01*
X983648Y1596409D01*
X982738Y1595801D01*
X982131Y1594891D01*
X981917Y1593818D01*
Y1589318D01*
X982029Y1588756D01*
X980764Y1587410D01*
X980031Y1586961D01*
X979221Y1587122D01*
X972818D01*
X972596Y1587166D01*
X961796D01*
X959845Y1586778D01*
X958191Y1585673D01*
X956783Y1584265D01*
X954251Y1584943D01*
X951091D01*
X948039Y1584126D01*
X945303Y1582546D01*
X943069Y1580311D01*
X941489Y1577575D01*
X940671Y1574523D01*
Y1571364D01*
X941489Y1568311D01*
X943069Y1565575D01*
X945303Y1563341D01*
X948039Y1561761D01*
X951091Y1560943D01*
X954251D01*
X957303Y1561761D01*
X960039Y1563341D01*
X962273Y1565575D01*
X963853Y1568311D01*
X964671Y1571364D01*
Y1574523D01*
X964547Y1574987D01*
X966069Y1576970D01*
X972596D01*
X972818Y1577014D01*
X978901D01*
X979856Y1576202D01*
X980906Y1574859D01*
X980898Y1574818D01*
Y1574068D01*
X989846D01*
Y1578642D01*
X984721D01*
X984324Y1578563D01*
X983298Y1579123D01*
X982224Y1580120D01*
X982025Y1580461D01*
Y1584318D01*
X981913Y1584881D01*
X983178Y1586227D01*
X983911Y1586676D01*
X984721Y1586514D01*
X997971D01*
X999044Y1586728D01*
X999954Y1587336D01*
X1000147Y1587625D01*
X1003660D01*
Y1587318D01*
X1003902Y1586099D01*
X1004593Y1585065D01*
X1004813Y1584919D01*
X1004973Y1583988D01*
X1004833Y1582268D01*
X1004790Y1582156D01*
X1003872Y1581542D01*
X1002960Y1580178D01*
X1002714Y1578937D01*
X1001880Y1578359D01*
X1000140Y1577879D01*
X999434Y1578351D01*
X997971Y1578642D01*
X992846D01*
Y1572568D01*
Y1566495D01*
X997971D01*
X999434Y1566786D01*
X1000675Y1567615D01*
X1001181Y1568372D01*
X1003763Y1568845D01*
X1003872Y1568844D01*
X1005237Y1567933D01*
X1006846Y1567613D01*
X1008971D01*
Y1575193D01*
X1011971D01*
Y1567613D01*
X1014096D01*
X1015706Y1567933D01*
X1016543Y1568492D01*
X1019337Y1568810D01*
X1020660Y1567926D01*
X1022221Y1567615D01*
X1024471D01*
Y1574693D01*
Y1581772D01*
X1022221D01*
X1020660Y1581461D01*
X1020136Y1581111D01*
X1019119Y1580670D01*
X1017120Y1581521D01*
X1017005Y1581586D01*
X1016152Y1582156D01*
X1016110Y1582268D01*
X1015969Y1583988D01*
X1016130Y1584919D01*
X1016349Y1585065D01*
X1017040Y1586099D01*
X1017084Y1586324D01*
X1017898Y1586570D01*
X1019686Y1586588D01*
X1020058Y1586030D01*
X1021050Y1585367D01*
X1022221Y1585135D01*
X1029721D01*
X1030892Y1585367D01*
X1031884Y1586030D01*
X1032547Y1587023D01*
X1032780Y1588193D01*
Y1594193D01*
X1032547Y1595364D01*
X1031884Y1596356D01*
X1030892Y1597019D01*
X1029721Y1597252D01*
X1022221D01*
X1021050Y1597019D01*
X1020058Y1596356D01*
X1019533Y1595570D01*
X1018211Y1595420D01*
X1016879Y1595528D01*
X1016349Y1596321D01*
X1015315Y1597012D01*
X1014096Y1597255D01*
X1011002D01*
Y1604605D01*
X1011603Y1604725D01*
X1012596Y1605388D01*
X1013259Y1606380D01*
X1013492Y1607551D01*
Y1615051D01*
X1013259Y1616221D01*
X1012596Y1617214D01*
X1011603Y1617877D01*
X1010433Y1618110D01*
D02*
G37*
G36*
X1045051Y1584943D02*
X1041891D01*
X1038839Y1584126D01*
X1036103Y1582546D01*
X1035020Y1581463D01*
X1032941Y1580700D01*
X1031544Y1581286D01*
X1031282Y1581461D01*
X1029721Y1581772D01*
X1027471D01*
Y1574693D01*
Y1567615D01*
X1029721D01*
X1031282Y1567926D01*
X1033422Y1566349D01*
X1033869Y1565575D01*
X1036103Y1563341D01*
X1038373Y1562030D01*
Y1547497D01*
X1035542D01*
X1034586Y1548310D01*
X1033537Y1549653D01*
X1033544Y1549693D01*
Y1550443D01*
X1024596D01*
Y1545870D01*
X1029721D01*
X1030118Y1545949D01*
X1031144Y1545388D01*
X1032218Y1544391D01*
X1032417Y1544051D01*
Y1540193D01*
X1032529Y1539631D01*
X1031264Y1538285D01*
X1030531Y1537836D01*
X1029721Y1537997D01*
X1016471D01*
X1015398Y1537784D01*
X1014489Y1537176D01*
X1014045Y1536512D01*
X1010994D01*
Y1537193D01*
X1010752Y1538413D01*
X1010061Y1539446D01*
X1009841Y1539593D01*
X1009681Y1540524D01*
X1009822Y1542244D01*
X1009864Y1542356D01*
X1010782Y1542969D01*
X1011694Y1544334D01*
X1011916Y1545449D01*
X1012231Y1545711D01*
X1013262Y1546217D01*
X1014514Y1546491D01*
X1015008Y1546161D01*
X1016471Y1545870D01*
X1021596D01*
Y1551943D01*
Y1558017D01*
X1016471D01*
X1015008Y1557726D01*
X1013767Y1556897D01*
X1013367Y1556298D01*
X1011802Y1555916D01*
X1011080Y1555836D01*
X1010438Y1555897D01*
X1009417Y1556579D01*
X1007808Y1556899D01*
X1005683D01*
Y1549318D01*
X1002683D01*
Y1556899D01*
X1000558D01*
X998948Y1556579D01*
X997766Y1555789D01*
X997466Y1555669D01*
X994817Y1555702D01*
X994667Y1555802D01*
X993494Y1556586D01*
X991933Y1556897D01*
X989683D01*
Y1549818D01*
Y1542740D01*
X991933D01*
X993494Y1543051D01*
X994364Y1543632D01*
X995110Y1543859D01*
X997381Y1543273D01*
X997584Y1542969D01*
X998502Y1542356D01*
X998544Y1542244D01*
X998685Y1540524D01*
X998524Y1539593D01*
X998305Y1539446D01*
X997614Y1538413D01*
X997372Y1537193D01*
Y1537168D01*
X994872Y1536922D01*
X994759Y1537489D01*
X994096Y1538481D01*
X993103Y1539144D01*
X991933Y1539377D01*
X984433D01*
X983262Y1539144D01*
X982270Y1538481D01*
X979441Y1538340D01*
X979407Y1538353D01*
X977204Y1540556D01*
Y1545318D01*
X976971Y1546489D01*
X976308Y1547481D01*
X975315Y1548144D01*
X974145Y1548377D01*
X968145D01*
X966974Y1548144D01*
X965982Y1547481D01*
X965319Y1546489D01*
X965086Y1545318D01*
Y1537818D01*
X965319Y1536648D01*
X965982Y1535656D01*
X966974Y1534992D01*
X968145Y1534760D01*
X972907D01*
X977246Y1530420D01*
X978404Y1529646D01*
X979770Y1529375D01*
X981562D01*
X981607Y1529148D01*
X982270Y1528156D01*
X983262Y1527492D01*
X984433Y1527260D01*
X991933D01*
X993103Y1527492D01*
X994096Y1528156D01*
X994759Y1529148D01*
X994804Y1529375D01*
X997584D01*
X997614Y1529224D01*
X998305Y1528190D01*
X999339Y1527500D01*
X1000558Y1527257D01*
X1007808D01*
X1009027Y1527500D01*
X1010061Y1528190D01*
X1010752Y1529224D01*
X1010782Y1529375D01*
X1014045D01*
X1014489Y1528711D01*
X1015398Y1528103D01*
X1016471Y1527890D01*
X1029721D01*
X1030794Y1528103D01*
X1031704Y1528711D01*
X1032311Y1529620D01*
X1032525Y1530693D01*
Y1535193D01*
X1032413Y1535755D01*
X1033678Y1537102D01*
X1034411Y1537551D01*
X1035221Y1537390D01*
X1041624D01*
X1041846Y1537345D01*
X1042068Y1537390D01*
X1048471D01*
X1049544Y1537603D01*
X1050454Y1538211D01*
X1051061Y1539120D01*
X1051275Y1540193D01*
Y1544693D01*
X1051061Y1545766D01*
X1050454Y1546676D01*
X1049544Y1547284D01*
X1048569Y1547478D01*
Y1562030D01*
X1050839Y1563341D01*
X1053074Y1565575D01*
X1054653Y1568311D01*
X1055471Y1571364D01*
Y1574523D01*
X1054653Y1577575D01*
X1053074Y1580311D01*
X1050839Y1582546D01*
X1048103Y1584126D01*
X1045051Y1584943D01*
D02*
G37*
G36*
X989846Y1571068D02*
X980898D01*
Y1570318D01*
X981189Y1568855D01*
X982018Y1567615D01*
X983258Y1566786D01*
X984721Y1566495D01*
X989846D01*
Y1571068D01*
D02*
G37*
G36*
X1029721Y1558017D02*
X1024596D01*
Y1553443D01*
X1033544D01*
Y1554193D01*
X1033253Y1555656D01*
X1032425Y1556897D01*
X1031184Y1557726D01*
X1029721Y1558017D01*
D02*
G37*
G36*
X986683Y1556897D02*
X984433D01*
X982872Y1556586D01*
X981549Y1555702D01*
X980665Y1554379D01*
X980355Y1552818D01*
Y1551318D01*
X986683D01*
Y1556897D01*
D02*
G37*
G36*
Y1548318D02*
X980355D01*
Y1546818D01*
X980665Y1545258D01*
X981549Y1543934D01*
X982872Y1543051D01*
X984433Y1542740D01*
X986683D01*
Y1548318D01*
D02*
G37*
G36*
X957645Y1548377D02*
X951645D01*
X950474Y1548144D01*
X949482Y1547481D01*
X948819Y1546489D01*
X948682Y1545801D01*
X948288D01*
X946634Y1545116D01*
X945368Y1543850D01*
X944683Y1542196D01*
Y1540406D01*
X945368Y1538752D01*
X946634Y1537486D01*
X948288Y1536801D01*
X948789D01*
X948819Y1536648D01*
X949482Y1535656D01*
X950474Y1534992D01*
X951645Y1534760D01*
X957645D01*
X958815Y1534992D01*
X959808Y1535656D01*
X960471Y1536648D01*
X960704Y1537818D01*
Y1545318D01*
X960471Y1546489D01*
X959808Y1547481D01*
X958815Y1548144D01*
X957645Y1548377D01*
D02*
G37*
G36*
Y1526110D02*
X951645D01*
X950474Y1525877D01*
X949482Y1525214D01*
X948709Y1524225D01*
X946578Y1524301D01*
X944788D01*
X943134Y1523616D01*
X941868Y1522350D01*
X941183Y1520696D01*
Y1518906D01*
X941868Y1517252D01*
X943134Y1515986D01*
X944788Y1515301D01*
X946578D01*
X948819Y1514380D01*
X949482Y1513388D01*
X950474Y1512725D01*
X951645Y1512492D01*
X957645D01*
X958815Y1512725D01*
X959808Y1513388D01*
X960471Y1514380D01*
X960704Y1515551D01*
Y1518982D01*
X960767Y1519301D01*
X960704Y1519620D01*
Y1523051D01*
X960471Y1524221D01*
X959808Y1525214D01*
X958815Y1525877D01*
X957645Y1526110D01*
D02*
G37*
G36*
X1029721Y1523392D02*
X1024596D01*
Y1518818D01*
X1033544D01*
Y1519568D01*
X1033253Y1521031D01*
X1032425Y1522272D01*
X1031184Y1523101D01*
X1029721Y1523392D01*
D02*
G37*
G36*
X974145Y1526110D02*
X968145D01*
X966974Y1525877D01*
X965982Y1525214D01*
X965319Y1524221D01*
X965086Y1523051D01*
Y1515551D01*
X965319Y1514380D01*
X965982Y1513388D01*
X966974Y1512725D01*
X968145Y1512492D01*
X969337D01*
X971720Y1510110D01*
X970684Y1507610D01*
X968145D01*
X966974Y1507377D01*
X965982Y1506714D01*
X965319Y1505721D01*
X965086Y1504551D01*
Y1497051D01*
X965319Y1495880D01*
X965982Y1494888D01*
X966974Y1494225D01*
X967576Y1494105D01*
Y1489339D01*
X967848Y1487973D01*
X968622Y1486816D01*
X977457Y1477980D01*
X976422Y1475480D01*
X972818D01*
X972596Y1475524D01*
X966156D01*
X964331Y1477760D01*
X964671Y1479030D01*
Y1482190D01*
X963853Y1485242D01*
X962273Y1487978D01*
X960039Y1490212D01*
X957748Y1491535D01*
X957698Y1492728D01*
X957750Y1493062D01*
X958110Y1494084D01*
X958815Y1494225D01*
X959808Y1494888D01*
X960471Y1495880D01*
X960704Y1497051D01*
Y1504551D01*
X960471Y1505721D01*
X959808Y1506714D01*
X958815Y1507377D01*
X957645Y1507610D01*
X951645D01*
X950474Y1507377D01*
X949482Y1506714D01*
X948819Y1505721D01*
X948361Y1505477D01*
X947578Y1505801D01*
X945788D01*
X944134Y1505116D01*
X942868Y1503850D01*
X942183Y1502196D01*
Y1500406D01*
X942868Y1498752D01*
X944134Y1497486D01*
X945788Y1496801D01*
X947578D01*
X948819Y1495880D01*
X949482Y1494888D01*
X949611Y1494802D01*
X949243Y1492115D01*
X948039Y1491792D01*
X945303Y1490212D01*
X943069Y1487978D01*
X941489Y1485242D01*
X940671Y1482190D01*
Y1479030D01*
X941489Y1475978D01*
X943069Y1473242D01*
X945303Y1471008D01*
X948039Y1469428D01*
X951091Y1468610D01*
X954251D01*
X956783Y1469288D01*
X959250Y1466821D01*
X960904Y1465716D01*
X962855Y1465328D01*
X972596D01*
X972818Y1465372D01*
X978901D01*
X979856Y1464559D01*
X980906Y1463216D01*
X980898Y1463176D01*
Y1462426D01*
X989846D01*
Y1466999D01*
X984721D01*
X984324Y1466920D01*
X983298Y1467481D01*
X982224Y1468478D01*
X982025Y1468818D01*
Y1472676D01*
X981913Y1473238D01*
X983178Y1474585D01*
X983911Y1475033D01*
X984721Y1474872D01*
X997971D01*
X999044Y1475085D01*
X999954Y1475693D01*
X1000147Y1475982D01*
X1003660D01*
Y1475676D01*
X1003902Y1474457D01*
X1004593Y1473423D01*
X1004813Y1473276D01*
X1004973Y1472345D01*
X1004833Y1470625D01*
X1004790Y1470513D01*
X1003872Y1469900D01*
X1002960Y1468535D01*
X1002714Y1467295D01*
X1001880Y1466716D01*
X1000140Y1466237D01*
X999434Y1466708D01*
X997971Y1466999D01*
X992846D01*
Y1460926D01*
Y1454852D01*
X997971D01*
X999434Y1455143D01*
X1000675Y1455972D01*
X1001181Y1456730D01*
X1003763Y1457202D01*
X1003872Y1457202D01*
X1005237Y1456290D01*
X1006846Y1455970D01*
X1008971D01*
Y1463551D01*
X1011971D01*
Y1455970D01*
X1014096D01*
X1015706Y1456290D01*
X1016543Y1456850D01*
X1019337Y1457167D01*
X1020660Y1456283D01*
X1022221Y1455972D01*
X1024471D01*
Y1463051D01*
Y1470129D01*
X1022221D01*
X1020660Y1469819D01*
X1020136Y1469469D01*
X1019119Y1469028D01*
X1017120Y1469879D01*
X1017005Y1469944D01*
X1016152Y1470513D01*
X1016110Y1470625D01*
X1015969Y1472345D01*
X1016130Y1473276D01*
X1016349Y1473423D01*
X1017040Y1474457D01*
X1017084Y1474681D01*
X1017898Y1474927D01*
X1019686Y1474945D01*
X1020058Y1474388D01*
X1021050Y1473725D01*
X1022221Y1473492D01*
X1029721D01*
X1030892Y1473725D01*
X1033734Y1473264D01*
X1034022Y1473088D01*
X1036103Y1471008D01*
X1038839Y1469428D01*
X1041891Y1468610D01*
X1045051D01*
X1048103Y1469428D01*
X1050839Y1471008D01*
X1053074Y1473242D01*
X1054653Y1475978D01*
X1055471Y1479030D01*
Y1482190D01*
X1054653Y1485242D01*
X1053074Y1487978D01*
X1050839Y1490212D01*
X1048569Y1491523D01*
Y1502784D01*
X1049544Y1502978D01*
X1050454Y1503586D01*
X1051061Y1504495D01*
X1051275Y1505568D01*
Y1510068D01*
X1051061Y1511141D01*
X1050454Y1512051D01*
X1049544Y1512659D01*
X1048471Y1512872D01*
X1042068D01*
X1041846Y1512916D01*
X1041624Y1512872D01*
X1035542D01*
X1034586Y1513685D01*
X1033537Y1515028D01*
X1033544Y1515068D01*
Y1515818D01*
X1024596D01*
Y1511245D01*
X1029721D01*
X1030118Y1511324D01*
X1031144Y1510763D01*
X1032218Y1509767D01*
X1032417Y1509426D01*
Y1505568D01*
X1032529Y1505006D01*
X1031264Y1503660D01*
X1030531Y1503211D01*
X1029721Y1503372D01*
X1016471D01*
X1015398Y1503159D01*
X1014489Y1502551D01*
X1014295Y1502262D01*
X1010994D01*
Y1502568D01*
X1010752Y1503788D01*
X1010061Y1504821D01*
X1009841Y1504968D01*
X1009681Y1505899D01*
X1009822Y1507619D01*
X1009864Y1507731D01*
X1010782Y1508344D01*
X1011694Y1509709D01*
X1011916Y1510824D01*
X1012231Y1511086D01*
X1013262Y1511592D01*
X1014514Y1511866D01*
X1015008Y1511536D01*
X1016471Y1511245D01*
X1021596D01*
Y1517318D01*
Y1523392D01*
X1016471D01*
X1015008Y1523101D01*
X1013767Y1522272D01*
X1013367Y1521673D01*
X1011802Y1521291D01*
X1011080Y1521210D01*
X1010438Y1521272D01*
X1009417Y1521954D01*
X1007808Y1522274D01*
X1005683D01*
Y1514693D01*
X1002683D01*
Y1522274D01*
X1000558D01*
X998948Y1521954D01*
X997766Y1521164D01*
X997466Y1521044D01*
X994817Y1521077D01*
X994667Y1521177D01*
X993494Y1521961D01*
X991933Y1522272D01*
X989683D01*
Y1515193D01*
X986683D01*
Y1522272D01*
X984433D01*
X982872Y1521961D01*
X981549Y1521077D01*
X980665Y1519754D01*
X980355Y1518193D01*
Y1517176D01*
X980296Y1517082D01*
X977855Y1515952D01*
X977204Y1516505D01*
Y1523051D01*
X976971Y1524221D01*
X976308Y1525214D01*
X975315Y1525877D01*
X974145Y1526110D01*
D02*
G37*
G36*
X1029721Y1470129D02*
X1027471D01*
Y1464551D01*
X1033799D01*
Y1466051D01*
X1033489Y1467612D01*
X1032605Y1468935D01*
X1031282Y1469819D01*
X1029721Y1470129D01*
D02*
G37*
G36*
X1033799Y1461551D02*
X1027471D01*
Y1455972D01*
X1029721D01*
X1031282Y1456283D01*
X1032605Y1457167D01*
X1033489Y1458490D01*
X1033799Y1460051D01*
Y1461551D01*
D02*
G37*
G36*
X989846Y1459426D02*
X980898D01*
Y1458676D01*
X981189Y1457213D01*
X982018Y1455972D01*
X983258Y1455143D01*
X984721Y1454852D01*
X989846D01*
Y1459426D01*
D02*
G37*
G36*
X984433Y1449610D02*
X978433D01*
X977262Y1449377D01*
X976270Y1448714D01*
X975607Y1447721D01*
X975465Y1447008D01*
X975078Y1446801D01*
X973288D01*
X971634Y1446116D01*
X970368Y1444850D01*
X969683Y1443196D01*
Y1441406D01*
X970368Y1439752D01*
X971634Y1438486D01*
X973288Y1437801D01*
X975078D01*
X975460Y1437959D01*
X975607Y1437880D01*
X976270Y1436888D01*
X977262Y1436225D01*
X978433Y1435992D01*
X984433D01*
X985603Y1436225D01*
X986596Y1436888D01*
X987259Y1437880D01*
X987492Y1439051D01*
Y1446551D01*
X987259Y1447721D01*
X986596Y1448714D01*
X985603Y1449377D01*
X984433Y1449610D01*
D02*
G37*
G36*
X1000933D02*
X994933D01*
X993762Y1449377D01*
X992770Y1448714D01*
X992107Y1447721D01*
X991874Y1446551D01*
Y1439051D01*
X992107Y1437880D01*
X992770Y1436888D01*
X993762Y1436225D01*
X994933Y1435992D01*
X1000933D01*
X1002104Y1436225D01*
X1003068Y1436869D01*
X1006614Y1433323D01*
Y1428487D01*
X1006558D01*
X1005339Y1428244D01*
X1004305Y1427554D01*
X1003614Y1426520D01*
X1003510Y1425994D01*
X1000299D01*
X1000273Y1426124D01*
X999666Y1427034D01*
X998756Y1427641D01*
X997683Y1427855D01*
X984433D01*
X983360Y1427641D01*
X982450Y1427034D01*
X981842Y1426124D01*
X981629Y1425051D01*
Y1420551D01*
X981741Y1419989D01*
X980476Y1418642D01*
X979743Y1418194D01*
X978933Y1418355D01*
X972530D01*
X972308Y1418399D01*
X960362D01*
X958411Y1418011D01*
X956792Y1416929D01*
X954251Y1417610D01*
X951091D01*
X948039Y1416792D01*
X945303Y1415212D01*
X943069Y1412978D01*
X941489Y1410242D01*
X940671Y1407190D01*
Y1404030D01*
X941489Y1400978D01*
X943069Y1398242D01*
X945303Y1396008D01*
X948039Y1394428D01*
X951091Y1393610D01*
X954251D01*
X957303Y1394428D01*
X960039Y1396008D01*
X962273Y1398242D01*
X963853Y1400978D01*
X964671Y1404030D01*
Y1407190D01*
X965448Y1408203D01*
X972308D01*
X972530Y1408247D01*
X978612D01*
X979568Y1407434D01*
X980618Y1406091D01*
X980610Y1406051D01*
Y1405301D01*
X989558D01*
Y1409874D01*
X984433D01*
X984036Y1409795D01*
X983010Y1410356D01*
X981936Y1411353D01*
X981737Y1411693D01*
Y1415551D01*
X981625Y1416113D01*
X982890Y1417460D01*
X983623Y1417908D01*
X984433Y1417747D01*
X997683D01*
X998756Y1417960D01*
X999666Y1418568D01*
X999859Y1418857D01*
X1003372D01*
Y1418551D01*
X1003614Y1417332D01*
X1004305Y1416298D01*
X1004525Y1416151D01*
X1004685Y1415220D01*
X1004544Y1413500D01*
X1004502Y1413388D01*
X1003584Y1412775D01*
X1002672Y1411410D01*
X1002426Y1410170D01*
X1001592Y1409591D01*
X999852Y1409111D01*
X999146Y1409583D01*
X997683Y1409874D01*
X992558D01*
Y1403801D01*
Y1397727D01*
X997683D01*
X999146Y1398018D01*
X1000387Y1398847D01*
X1000893Y1399605D01*
X1003475Y1400077D01*
X1003584Y1400077D01*
X1004948Y1399165D01*
X1006558Y1398845D01*
X1008683D01*
Y1406426D01*
X1011683D01*
Y1398845D01*
X1013808D01*
X1015417Y1399165D01*
X1016255Y1399724D01*
X1019049Y1400042D01*
X1020372Y1399158D01*
X1021933Y1398848D01*
X1024183D01*
Y1405926D01*
Y1413004D01*
X1021933D01*
X1020372Y1412694D01*
X1019848Y1412343D01*
X1018830Y1411903D01*
X1016832Y1412754D01*
X1016717Y1412819D01*
X1015864Y1413388D01*
X1015822Y1413500D01*
X1015681Y1415220D01*
X1015841Y1416151D01*
X1016061Y1416298D01*
X1016752Y1417332D01*
X1016796Y1417556D01*
X1017609Y1417802D01*
X1019398Y1417820D01*
X1019770Y1417263D01*
X1020762Y1416600D01*
X1021933Y1416367D01*
X1029433D01*
X1030603Y1416600D01*
X1031596Y1417263D01*
X1032259Y1418255D01*
X1032492Y1419426D01*
Y1425426D01*
X1032259Y1426596D01*
X1031596Y1427589D01*
X1030603Y1428252D01*
X1029433Y1428485D01*
X1021933D01*
X1020762Y1428252D01*
X1019770Y1427589D01*
X1019245Y1426802D01*
X1017923Y1426653D01*
X1016591Y1426761D01*
X1016061Y1427554D01*
X1015027Y1428244D01*
X1013808Y1428487D01*
X1013752D01*
Y1434801D01*
X1013480Y1436167D01*
X1012706Y1437324D01*
X1004706Y1445324D01*
X1003992Y1445802D01*
Y1446551D01*
X1003759Y1447721D01*
X1003096Y1448714D01*
X1002104Y1449377D01*
X1000933Y1449610D01*
D02*
G37*
G36*
X1045051Y1417610D02*
X1041891D01*
X1038839Y1416792D01*
X1036103Y1415212D01*
X1034212Y1413321D01*
X1033769Y1412968D01*
X1030994Y1412694D01*
X1029433Y1413004D01*
X1027183D01*
Y1405926D01*
Y1398848D01*
X1029433D01*
X1030994Y1399158D01*
X1033869Y1398242D01*
X1036103Y1396008D01*
X1036748Y1395635D01*
Y1382628D01*
X1035988Y1382121D01*
X1035195Y1382266D01*
X1035097Y1382308D01*
X1034112Y1383318D01*
X1024596D01*
Y1378745D01*
X1029721D01*
X1030118Y1378824D01*
X1031144Y1378263D01*
X1032218Y1377267D01*
X1032417Y1376926D01*
Y1373068D01*
X1032529Y1372506D01*
X1031264Y1371160D01*
X1030531Y1370711D01*
X1029721Y1370872D01*
X1016471D01*
X1015398Y1370659D01*
X1014489Y1370051D01*
X1014045Y1369387D01*
X1010994D01*
Y1369926D01*
X1010752Y1371145D01*
X1010061Y1372179D01*
X1009841Y1372325D01*
X1009681Y1373256D01*
X1009822Y1374976D01*
X1009864Y1375088D01*
X1010782Y1375702D01*
X1011694Y1377066D01*
X1011941Y1378308D01*
X1012224Y1378550D01*
X1012961Y1378937D01*
X1014514Y1379366D01*
X1015008Y1379036D01*
X1016471Y1378745D01*
X1021596D01*
Y1384818D01*
Y1390892D01*
X1016471D01*
X1015008Y1390601D01*
X1013767Y1389772D01*
X1013320Y1389102D01*
X1012085Y1388760D01*
X1011124Y1388614D01*
X1010413Y1388647D01*
X1009417Y1389312D01*
X1007808Y1389632D01*
X1005683D01*
Y1382051D01*
X1002683D01*
Y1389632D01*
X1000558D01*
X998948Y1389312D01*
X997766Y1388521D01*
X997466Y1388401D01*
X994817Y1388435D01*
X994667Y1388535D01*
X993494Y1389319D01*
X991933Y1389629D01*
X989683D01*
Y1382551D01*
Y1375473D01*
X991933D01*
X993494Y1375783D01*
X994364Y1376364D01*
X995110Y1376591D01*
X997381Y1376005D01*
X997584Y1375702D01*
X998502Y1375088D01*
X998544Y1374976D01*
X998685Y1373256D01*
X998524Y1372325D01*
X998305Y1372179D01*
X997614Y1371145D01*
X997372Y1369926D01*
Y1369900D01*
X994872Y1369654D01*
X994759Y1370221D01*
X994096Y1371214D01*
X993103Y1371877D01*
X991933Y1372110D01*
X984746D01*
X983816Y1373062D01*
X983988Y1373734D01*
X985234Y1375473D01*
X986683D01*
Y1381051D01*
X980355D01*
Y1380935D01*
X977855Y1379567D01*
X977204Y1379983D01*
Y1383408D01*
X976971Y1384579D01*
X976308Y1385571D01*
X975315Y1386234D01*
X974145Y1386467D01*
X968145D01*
X966974Y1386234D01*
X965982Y1385571D01*
X965319Y1384579D01*
X965086Y1383408D01*
Y1375908D01*
X965319Y1374738D01*
X965982Y1373746D01*
X966974Y1373082D01*
X968145Y1372850D01*
X972907D01*
X981374Y1364382D01*
Y1363051D01*
X981607Y1361880D01*
X982270Y1360888D01*
X983262Y1360225D01*
X984433Y1359992D01*
X991933D01*
X993103Y1360225D01*
X994096Y1360888D01*
X994759Y1361880D01*
X994832Y1362250D01*
X997556D01*
X997614Y1361957D01*
X998305Y1360923D01*
X999339Y1360232D01*
X1000558Y1359990D01*
X1007808D01*
X1009027Y1360232D01*
X1010061Y1360923D01*
X1010752Y1361957D01*
X1010810Y1362250D01*
X1014045D01*
X1014489Y1361586D01*
X1015398Y1360978D01*
X1016471Y1360764D01*
X1029721D01*
X1030794Y1360978D01*
X1031704Y1361586D01*
X1032311Y1362495D01*
X1032525Y1363568D01*
Y1368068D01*
X1032413Y1368631D01*
X1033678Y1369977D01*
X1034411Y1370426D01*
X1035221Y1370264D01*
X1041624D01*
X1041846Y1370220D01*
X1042068Y1370264D01*
X1048471D01*
X1049544Y1370478D01*
X1050454Y1371086D01*
X1051061Y1371995D01*
X1051275Y1373068D01*
Y1377568D01*
X1051061Y1378641D01*
X1050454Y1379551D01*
X1049544Y1380159D01*
X1048471Y1380372D01*
X1046944D01*
Y1394117D01*
X1048103Y1394428D01*
X1050839Y1396008D01*
X1053074Y1398242D01*
X1054653Y1400978D01*
X1055471Y1404030D01*
Y1407190D01*
X1054653Y1410242D01*
X1053074Y1412978D01*
X1050839Y1415212D01*
X1048103Y1416792D01*
X1045051Y1417610D01*
D02*
G37*
G36*
X989558Y1402301D02*
X980610D01*
Y1401551D01*
X980900Y1400088D01*
X981729Y1398847D01*
X982970Y1398018D01*
X984433Y1397727D01*
X989558D01*
Y1402301D01*
D02*
G37*
G36*
X1029721Y1390892D02*
X1024596D01*
Y1386318D01*
X1033544D01*
Y1387068D01*
X1033253Y1388531D01*
X1032425Y1389772D01*
X1031184Y1390601D01*
X1029721Y1390892D01*
D02*
G37*
G36*
X957645Y1386467D02*
X951645D01*
X950474Y1386234D01*
X949482Y1385571D01*
X948819Y1384579D01*
X948202Y1384249D01*
X948078Y1384301D01*
X946288D01*
X944634Y1383616D01*
X943368Y1382350D01*
X942683Y1380696D01*
Y1378906D01*
X943368Y1377252D01*
X944634Y1375986D01*
X946288Y1375301D01*
X948078D01*
X948782Y1374925D01*
X948819Y1374738D01*
X949482Y1373746D01*
X950474Y1373082D01*
X951645Y1372850D01*
X957645D01*
X958815Y1373082D01*
X959808Y1373746D01*
X960471Y1374738D01*
X960704Y1375908D01*
Y1383408D01*
X960471Y1384579D01*
X959808Y1385571D01*
X958815Y1386234D01*
X957645Y1386467D01*
D02*
G37*
G36*
X986683Y1389629D02*
X984433D01*
X982872Y1389319D01*
X981549Y1388435D01*
X980665Y1387112D01*
X980355Y1385551D01*
Y1384051D01*
X986683D01*
Y1389629D01*
D02*
G37*
G36*
X957645Y1363967D02*
X951645D01*
X950474Y1363734D01*
X949482Y1363071D01*
X948819Y1362079D01*
X948202Y1361749D01*
X948078Y1361801D01*
X946288D01*
X944634Y1361116D01*
X943368Y1359850D01*
X942683Y1358196D01*
Y1356406D01*
X943368Y1354752D01*
X944634Y1353486D01*
X946288Y1352801D01*
X948078D01*
X948782Y1352425D01*
X948819Y1352238D01*
X949482Y1351246D01*
X950474Y1350582D01*
X951645Y1350350D01*
X957645D01*
X958815Y1350582D01*
X959808Y1351246D01*
X960471Y1352238D01*
X960704Y1353408D01*
Y1360908D01*
X960471Y1362079D01*
X959808Y1363071D01*
X958815Y1363734D01*
X957645Y1363967D01*
D02*
G37*
G36*
X1029721Y1355892D02*
X1024596D01*
Y1351318D01*
X1033544D01*
Y1352068D01*
X1033253Y1353531D01*
X1032425Y1354772D01*
X1031184Y1355601D01*
X1029721Y1355892D01*
D02*
G37*
G36*
X986683Y1354629D02*
X984433D01*
X982872Y1354319D01*
X981549Y1353435D01*
X980665Y1352112D01*
X980355Y1350551D01*
Y1349051D01*
X986683D01*
Y1354629D01*
D02*
G37*
G36*
X974145Y1363967D02*
X968145D01*
X966974Y1363734D01*
X965982Y1363071D01*
X965319Y1362079D01*
X965086Y1360908D01*
Y1353408D01*
X965319Y1352238D01*
X965982Y1351246D01*
X966974Y1350582D01*
X967811Y1350416D01*
Y1346839D01*
X968065Y1345563D01*
X968787Y1344482D01*
X970349Y1342919D01*
X969393Y1340610D01*
X968145D01*
X966974Y1340377D01*
X965982Y1339714D01*
X965319Y1338721D01*
X965086Y1337551D01*
Y1330051D01*
X965319Y1328880D01*
X965982Y1327888D01*
X966974Y1327225D01*
X967576Y1327105D01*
Y1324839D01*
X967848Y1323473D01*
X968622Y1322316D01*
X978457Y1312480D01*
X977422Y1309980D01*
X973530D01*
X973308Y1310024D01*
X965955D01*
X964671Y1311697D01*
Y1314857D01*
X963853Y1317908D01*
X962273Y1320645D01*
X960039Y1322879D01*
X957303Y1324459D01*
X957179Y1324492D01*
X957508Y1326992D01*
X957645D01*
X958815Y1327225D01*
X959808Y1327888D01*
X960471Y1328880D01*
X960704Y1330051D01*
Y1337551D01*
X960471Y1338721D01*
X959808Y1339714D01*
X958815Y1340377D01*
X957645Y1340610D01*
X951645D01*
X950474Y1340377D01*
X949482Y1339714D01*
X948819Y1338721D01*
X948813Y1338694D01*
X948078Y1338301D01*
X946288D01*
X944634Y1337616D01*
X943368Y1336350D01*
X942683Y1334696D01*
Y1332906D01*
X943368Y1331252D01*
X944634Y1329986D01*
X946288Y1329301D01*
X948078D01*
X948813Y1328908D01*
X948819Y1328880D01*
X949482Y1327888D01*
X949967Y1327564D01*
X949959Y1325554D01*
X949765Y1324921D01*
X948039Y1324459D01*
X945303Y1322879D01*
X943069Y1320645D01*
X941489Y1317908D01*
X940671Y1314857D01*
Y1311697D01*
X941489Y1308645D01*
X943069Y1305909D01*
X945303Y1303674D01*
X948039Y1302095D01*
X951091Y1301277D01*
X954251D01*
X956783Y1301955D01*
X957417Y1301321D01*
X959071Y1300216D01*
X961022Y1299828D01*
X973308D01*
X973530Y1299872D01*
X979612D01*
X980568Y1299059D01*
X981618Y1297716D01*
X981609Y1297676D01*
Y1296926D01*
X990558D01*
Y1301499D01*
X985433D01*
X985036Y1301420D01*
X984010Y1301981D01*
X982936Y1302978D01*
X982737Y1303318D01*
Y1307176D01*
X982625Y1307738D01*
X983890Y1309085D01*
X984623Y1309533D01*
X985433Y1309372D01*
X998683D01*
X999756Y1309585D01*
X1000666Y1310193D01*
X1000859Y1310482D01*
X1003372D01*
Y1310176D01*
X1003614Y1308957D01*
X1004305Y1307923D01*
X1004525Y1307776D01*
X1004685Y1306846D01*
X1004544Y1305125D01*
X1004502Y1305013D01*
X1003584Y1304400D01*
X1002672Y1303035D01*
X1002583Y1302587D01*
X1000300Y1301295D01*
X999852Y1301267D01*
X998683Y1301499D01*
X993558D01*
Y1295426D01*
Y1289352D01*
X998683D01*
X1000146Y1289643D01*
X1001386Y1290472D01*
X1001393Y1290482D01*
X1001777Y1290696D01*
X1004364Y1291107D01*
X1004553Y1291054D01*
X1004948Y1290790D01*
X1006558Y1290470D01*
X1008683D01*
Y1298051D01*
X1011683D01*
Y1290470D01*
X1013808D01*
X1015417Y1290790D01*
X1016255Y1291349D01*
X1019049Y1291667D01*
X1020372Y1290783D01*
X1021933Y1290473D01*
X1024183D01*
Y1297551D01*
Y1304629D01*
X1021933D01*
X1020372Y1304319D01*
X1019848Y1303969D01*
X1018830Y1303528D01*
X1016832Y1304379D01*
X1016717Y1304444D01*
X1015864Y1305013D01*
X1015822Y1305125D01*
X1015681Y1306846D01*
X1015841Y1307776D01*
X1016061Y1307923D01*
X1016752Y1308957D01*
X1016796Y1309181D01*
X1017609Y1309427D01*
X1019398Y1309445D01*
X1019770Y1308888D01*
X1020762Y1308225D01*
X1021933Y1307992D01*
X1029433D01*
X1030603Y1308225D01*
X1033180Y1307101D01*
X1033869Y1305909D01*
X1036103Y1303674D01*
X1038839Y1302095D01*
X1041891Y1301277D01*
X1045051D01*
X1048103Y1302095D01*
X1050839Y1303674D01*
X1053074Y1305909D01*
X1054653Y1308645D01*
X1055471Y1311697D01*
Y1314857D01*
X1054653Y1317908D01*
X1053074Y1320645D01*
X1050839Y1322879D01*
X1048569Y1324190D01*
Y1335284D01*
X1049544Y1335478D01*
X1050454Y1336086D01*
X1051061Y1336995D01*
X1051275Y1338068D01*
Y1342568D01*
X1051061Y1343641D01*
X1050454Y1344551D01*
X1049544Y1345159D01*
X1048471Y1345372D01*
X1042068D01*
X1041846Y1345416D01*
X1041624Y1345372D01*
X1035542D01*
X1034586Y1346185D01*
X1033537Y1347528D01*
X1033544Y1347568D01*
Y1348318D01*
X1024596D01*
Y1343745D01*
X1029721D01*
X1030118Y1343824D01*
X1031144Y1343263D01*
X1032218Y1342267D01*
X1032417Y1341926D01*
Y1338068D01*
X1032529Y1337506D01*
X1031264Y1336160D01*
X1030531Y1335711D01*
X1029721Y1335872D01*
X1016471D01*
X1015398Y1335659D01*
X1014489Y1335051D01*
X1014043Y1334385D01*
X1010994D01*
Y1334926D01*
X1010752Y1336145D01*
X1010061Y1337179D01*
X1009841Y1337325D01*
X1009681Y1338256D01*
X1009822Y1339976D01*
X1009864Y1340088D01*
X1010782Y1340702D01*
X1011694Y1342066D01*
X1011941Y1343308D01*
X1012224Y1343550D01*
X1012961Y1343937D01*
X1014514Y1344366D01*
X1015008Y1344036D01*
X1016471Y1343745D01*
X1021596D01*
Y1349818D01*
Y1355892D01*
X1016471D01*
X1015008Y1355601D01*
X1013767Y1354772D01*
X1013320Y1354102D01*
X1012085Y1353760D01*
X1011124Y1353614D01*
X1010413Y1353647D01*
X1009417Y1354312D01*
X1007808Y1354632D01*
X1005683D01*
Y1347051D01*
X1002683D01*
Y1354632D01*
X1000558D01*
X998948Y1354312D01*
X997766Y1353521D01*
X997466Y1353401D01*
X994817Y1353435D01*
X994667Y1353535D01*
X993494Y1354319D01*
X991933Y1354629D01*
X989683D01*
Y1347551D01*
X988183D01*
Y1346051D01*
X980355D01*
Y1345880D01*
X977855Y1344844D01*
X974677Y1348022D01*
X974975Y1350515D01*
X975315Y1350582D01*
X976308Y1351246D01*
X976971Y1352238D01*
X977204Y1353408D01*
Y1360908D01*
X976971Y1362079D01*
X976308Y1363071D01*
X975315Y1363734D01*
X974145Y1363967D01*
D02*
G37*
G36*
X1029433Y1304629D02*
X1027183D01*
Y1299051D01*
X1033511D01*
Y1300551D01*
X1033201Y1302112D01*
X1032317Y1303435D01*
X1030994Y1304319D01*
X1029433Y1304629D01*
D02*
G37*
G36*
X1033511Y1296051D02*
X1027183D01*
Y1290473D01*
X1029433D01*
X1030994Y1290783D01*
X1032317Y1291667D01*
X1033201Y1292990D01*
X1033511Y1294551D01*
Y1296051D01*
D02*
G37*
G36*
X990558Y1293926D02*
X981609D01*
Y1293176D01*
X981900Y1291713D01*
X982729Y1290472D01*
X983970Y1289643D01*
X985433Y1289352D01*
X990558D01*
Y1293926D01*
D02*
G37*
G36*
X984433Y1281610D02*
X978433D01*
X977262Y1281377D01*
X976270Y1280714D01*
X975607Y1279721D01*
X975241Y1279526D01*
X974578Y1279801D01*
X972788D01*
X971134Y1279116D01*
X969868Y1277850D01*
X969183Y1276196D01*
Y1274406D01*
X969868Y1272752D01*
X971134Y1271486D01*
X972788Y1270801D01*
X974578D01*
X975607Y1269880D01*
X976270Y1268888D01*
X977262Y1268225D01*
X978433Y1267992D01*
X984433D01*
X985603Y1268225D01*
X986596Y1268888D01*
X987259Y1269880D01*
X987492Y1271051D01*
Y1278551D01*
X987259Y1279721D01*
X986596Y1280714D01*
X985603Y1281377D01*
X984433Y1281610D01*
D02*
G37*
G36*
X1000933D02*
X994933D01*
X993762Y1281377D01*
X992770Y1280714D01*
X992107Y1279721D01*
X991874Y1278551D01*
Y1271051D01*
X992107Y1269880D01*
X992770Y1268888D01*
X993762Y1268225D01*
X994364Y1268105D01*
Y1264801D01*
X994636Y1263435D01*
X995410Y1262278D01*
X996707Y1260980D01*
X995672Y1258480D01*
X985433D01*
X984360Y1258266D01*
X983450Y1257658D01*
X982842Y1256749D01*
X982629Y1255676D01*
Y1251176D01*
X982741Y1250614D01*
X981476Y1249267D01*
X980743Y1248819D01*
X979933Y1248980D01*
X973530D01*
X973308Y1249024D01*
X958320D01*
X958124Y1248985D01*
X957303Y1249459D01*
X954251Y1250277D01*
X951091D01*
X948039Y1249459D01*
X945303Y1247879D01*
X943069Y1245645D01*
X941489Y1242908D01*
X940671Y1239856D01*
Y1236697D01*
X941489Y1233645D01*
X943069Y1230909D01*
X945303Y1228674D01*
X948039Y1227094D01*
X951091Y1226277D01*
X954251D01*
X957303Y1227094D01*
X960039Y1228674D01*
X962273Y1230909D01*
X963853Y1233645D01*
X964671Y1236697D01*
Y1238828D01*
X973308D01*
X973530Y1238872D01*
X979612D01*
X980568Y1238059D01*
X981618Y1236716D01*
X981609Y1236676D01*
Y1235926D01*
X990558D01*
Y1240499D01*
X985433D01*
X985036Y1240420D01*
X984010Y1240981D01*
X982936Y1241978D01*
X982737Y1242318D01*
Y1246176D01*
X982625Y1246738D01*
X983890Y1248085D01*
X984623Y1248533D01*
X985433Y1248372D01*
X998683D01*
X999756Y1248585D01*
X1000666Y1249193D01*
X1000872Y1249502D01*
X1003372Y1249392D01*
Y1249176D01*
X1003614Y1247957D01*
X1004305Y1246923D01*
X1004525Y1246776D01*
X1004685Y1245845D01*
X1004544Y1244125D01*
X1004502Y1244013D01*
X1003584Y1243400D01*
X1002672Y1242035D01*
X1002583Y1241587D01*
X1000300Y1240295D01*
X999852Y1240267D01*
X998683Y1240499D01*
X993558D01*
Y1234426D01*
Y1228352D01*
X998683D01*
X1000146Y1228643D01*
X1001386Y1229472D01*
X1001393Y1229482D01*
X1001777Y1229696D01*
X1004364Y1230107D01*
X1004553Y1230054D01*
X1004948Y1229790D01*
X1006558Y1229470D01*
X1008683D01*
Y1237051D01*
X1011683D01*
Y1229470D01*
X1013808D01*
X1015417Y1229790D01*
X1016255Y1230350D01*
X1019049Y1230667D01*
X1020372Y1229783D01*
X1021933Y1229473D01*
X1024183D01*
Y1236551D01*
Y1243629D01*
X1021933D01*
X1020372Y1243319D01*
X1019848Y1242969D01*
X1018830Y1242528D01*
X1016832Y1243379D01*
X1016717Y1243444D01*
X1015864Y1244013D01*
X1015822Y1244125D01*
X1015681Y1245845D01*
X1015841Y1246776D01*
X1016061Y1246923D01*
X1016752Y1247957D01*
X1016796Y1248181D01*
X1017609Y1248427D01*
X1019398Y1248445D01*
X1019770Y1247888D01*
X1020762Y1247225D01*
X1021933Y1246992D01*
X1029433D01*
X1030603Y1247225D01*
X1031596Y1247888D01*
X1032259Y1248880D01*
X1032492Y1250051D01*
Y1256051D01*
X1032259Y1257221D01*
X1031596Y1258214D01*
X1030603Y1258877D01*
X1029433Y1259110D01*
X1021933D01*
X1020762Y1258877D01*
X1019770Y1258214D01*
X1019213Y1257381D01*
X1017810Y1257246D01*
X1016645Y1257304D01*
X1016061Y1258179D01*
X1015027Y1258869D01*
X1013808Y1259112D01*
X1008669D01*
X1002104Y1265676D01*
X1002104Y1266778D01*
X1002385Y1268413D01*
X1003096Y1268888D01*
X1003759Y1269880D01*
X1003992Y1271051D01*
Y1278551D01*
X1003759Y1279721D01*
X1003096Y1280714D01*
X1002104Y1281377D01*
X1000933Y1281610D01*
D02*
G37*
G36*
X1045051Y1250277D02*
X1041891D01*
X1038839Y1249459D01*
X1036103Y1247879D01*
X1033869Y1245645D01*
X1033352Y1244750D01*
X1030994Y1243319D01*
X1029433Y1243629D01*
X1027183D01*
Y1236551D01*
Y1229473D01*
X1029433D01*
X1030994Y1229783D01*
X1031454Y1230091D01*
X1032770Y1230536D01*
X1034837Y1229940D01*
X1036103Y1228674D01*
X1038373Y1227364D01*
Y1213372D01*
X1035542D01*
X1034586Y1214185D01*
X1033537Y1215528D01*
X1033544Y1215568D01*
Y1216318D01*
X1024596D01*
Y1211745D01*
X1029721D01*
X1030118Y1211824D01*
X1031144Y1211263D01*
X1032218Y1210266D01*
X1032417Y1209926D01*
Y1206068D01*
X1032529Y1205506D01*
X1031264Y1204160D01*
X1030531Y1203711D01*
X1029721Y1203872D01*
X1016471D01*
X1015398Y1203659D01*
X1014489Y1203051D01*
X1014045Y1202387D01*
X1010994D01*
Y1203068D01*
X1010752Y1204288D01*
X1010061Y1205321D01*
X1009841Y1205468D01*
X1009681Y1206399D01*
X1009822Y1208119D01*
X1009864Y1208231D01*
X1010782Y1208844D01*
X1011694Y1210209D01*
X1011916Y1211324D01*
X1012231Y1211586D01*
X1013262Y1212092D01*
X1014514Y1212366D01*
X1015008Y1212036D01*
X1016471Y1211745D01*
X1021596D01*
Y1217818D01*
Y1223892D01*
X1016471D01*
X1015008Y1223601D01*
X1013767Y1222772D01*
X1013367Y1222173D01*
X1011802Y1221791D01*
X1011080Y1221711D01*
X1010438Y1221772D01*
X1009417Y1222454D01*
X1007808Y1222774D01*
X1005683D01*
Y1215193D01*
X1002683D01*
Y1222774D01*
X1000558D01*
X998948Y1222454D01*
X997766Y1221664D01*
X997466Y1221544D01*
X994817Y1221577D01*
X994667Y1221677D01*
X993494Y1222461D01*
X991933Y1222772D01*
X989683D01*
Y1215693D01*
Y1208615D01*
X991933D01*
X993494Y1208925D01*
X994364Y1209507D01*
X995110Y1209734D01*
X997381Y1209148D01*
X997584Y1208844D01*
X998502Y1208231D01*
X998544Y1208119D01*
X998685Y1206399D01*
X998524Y1205468D01*
X998305Y1205321D01*
X997614Y1204288D01*
X997372Y1203068D01*
Y1203043D01*
X994872Y1202796D01*
X994759Y1203364D01*
X994096Y1204356D01*
X993103Y1205019D01*
X991933Y1205252D01*
X984433D01*
X983262Y1205019D01*
X982270Y1204356D01*
X981607Y1203364D01*
X981413Y1202387D01*
X977204D01*
Y1207051D01*
X976971Y1208221D01*
X976308Y1209214D01*
X975315Y1209877D01*
X974145Y1210110D01*
X968145D01*
X966974Y1209877D01*
X965982Y1209214D01*
X965319Y1208221D01*
X965086Y1207051D01*
Y1199551D01*
X965319Y1198380D01*
X965982Y1197388D01*
X966974Y1196725D01*
X968145Y1196492D01*
X972907D01*
X973104Y1196295D01*
X974262Y1195521D01*
X975627Y1195250D01*
X981562D01*
X981607Y1195023D01*
X982270Y1194031D01*
X983262Y1193367D01*
X984433Y1193135D01*
X991933D01*
X993103Y1193367D01*
X994096Y1194031D01*
X994759Y1195023D01*
X994804Y1195250D01*
X997584D01*
X997614Y1195099D01*
X998305Y1194065D01*
X999339Y1193375D01*
X1000558Y1193132D01*
X1007808D01*
X1009027Y1193375D01*
X1010061Y1194065D01*
X1010752Y1195099D01*
X1010782Y1195250D01*
X1014045D01*
X1014489Y1194586D01*
X1015398Y1193978D01*
X1016471Y1193764D01*
X1029721D01*
X1030794Y1193978D01*
X1031704Y1194586D01*
X1032311Y1195495D01*
X1032525Y1196568D01*
Y1201068D01*
X1032413Y1201630D01*
X1033678Y1202977D01*
X1034411Y1203426D01*
X1035221Y1203264D01*
X1041624D01*
X1041846Y1203220D01*
X1042068Y1203264D01*
X1048471D01*
X1049544Y1203478D01*
X1050454Y1204086D01*
X1051061Y1204995D01*
X1051275Y1206068D01*
Y1210568D01*
X1051061Y1211641D01*
X1050454Y1212551D01*
X1049544Y1213159D01*
X1048569Y1213353D01*
Y1227364D01*
X1050839Y1228674D01*
X1053074Y1230909D01*
X1054653Y1233645D01*
X1055471Y1236697D01*
Y1239856D01*
X1054653Y1242908D01*
X1053074Y1245645D01*
X1050839Y1247879D01*
X1048103Y1249459D01*
X1045051Y1250277D01*
D02*
G37*
G36*
X990558Y1232926D02*
X981609D01*
Y1232176D01*
X981900Y1230713D01*
X982729Y1229472D01*
X983970Y1228643D01*
X985433Y1228352D01*
X990558D01*
Y1232926D01*
D02*
G37*
G36*
X1029721Y1223892D02*
X1024596D01*
Y1219318D01*
X1033544D01*
Y1220068D01*
X1033253Y1221532D01*
X1032425Y1222772D01*
X1031184Y1223601D01*
X1029721Y1223892D01*
D02*
G37*
G36*
X986683Y1222772D02*
X984433D01*
X982872Y1222461D01*
X981549Y1221577D01*
X980665Y1220254D01*
X980355Y1218693D01*
Y1217193D01*
X986683D01*
Y1222772D01*
D02*
G37*
G36*
Y1214193D02*
X980355D01*
Y1212693D01*
X980665Y1211133D01*
X981549Y1209809D01*
X982872Y1208925D01*
X984433Y1208615D01*
X986683D01*
Y1214193D01*
D02*
G37*
G36*
X957645Y1210110D02*
X951645D01*
X950474Y1209877D01*
X949482Y1209214D01*
X948819Y1208221D01*
X948813Y1208194D01*
X948078Y1207801D01*
X946288D01*
X944634Y1207116D01*
X943368Y1205850D01*
X942683Y1204196D01*
Y1202406D01*
X943368Y1200752D01*
X944634Y1199486D01*
X946288Y1198801D01*
X948078D01*
X948813Y1198408D01*
X948819Y1198380D01*
X949482Y1197388D01*
X950474Y1196725D01*
X951645Y1196492D01*
X957645D01*
X958815Y1196725D01*
X959808Y1197388D01*
X960471Y1198380D01*
X960704Y1199551D01*
Y1207051D01*
X960471Y1208221D01*
X959808Y1209214D01*
X958815Y1209877D01*
X957645Y1210110D01*
D02*
G37*
G36*
X1029721Y1188892D02*
X1024596D01*
Y1184318D01*
X1033544D01*
Y1185068D01*
X1033253Y1186532D01*
X1032425Y1187772D01*
X1031184Y1188601D01*
X1029721Y1188892D01*
D02*
G37*
G36*
X957645Y1191110D02*
X951645D01*
X950474Y1190877D01*
X949482Y1190214D01*
X948819Y1189221D01*
X948813Y1189194D01*
X948078Y1188801D01*
X946288D01*
X944634Y1188116D01*
X943368Y1186850D01*
X942683Y1185196D01*
Y1183406D01*
X943368Y1181752D01*
X944634Y1180486D01*
X946288Y1179801D01*
X948078D01*
X948813Y1179408D01*
X948819Y1179380D01*
X949482Y1178388D01*
X950474Y1177725D01*
X951645Y1177492D01*
X957645D01*
X958815Y1177725D01*
X959808Y1178388D01*
X960471Y1179380D01*
X960704Y1180551D01*
Y1188051D01*
X960471Y1189221D01*
X959808Y1190214D01*
X958815Y1190877D01*
X957645Y1191110D01*
D02*
G37*
G36*
X974145D02*
X968145D01*
X966974Y1190877D01*
X965982Y1190214D01*
X965319Y1189221D01*
X965086Y1188051D01*
Y1180551D01*
X965319Y1179380D01*
X965982Y1178388D01*
X966974Y1177725D01*
X968145Y1177492D01*
X970048D01*
X971377Y1175864D01*
X970403Y1173610D01*
X968145D01*
X966974Y1173377D01*
X965982Y1172714D01*
X965319Y1171721D01*
X965086Y1170551D01*
Y1163051D01*
X965319Y1161880D01*
X965982Y1160888D01*
X966974Y1160225D01*
X967576Y1160105D01*
Y1157339D01*
X967848Y1155973D01*
X968622Y1154816D01*
X977457Y1145980D01*
X976713Y1143701D01*
X976542Y1143480D01*
X973530D01*
X973308Y1143524D01*
X965315D01*
X964671Y1144364D01*
Y1147523D01*
X963853Y1150575D01*
X962273Y1153312D01*
X960039Y1155546D01*
X957303Y1157126D01*
X955935Y1157492D01*
X956264Y1159992D01*
X957645D01*
X958815Y1160225D01*
X959808Y1160888D01*
X960471Y1161880D01*
X960704Y1163051D01*
Y1170551D01*
X960471Y1171721D01*
X959808Y1172714D01*
X958815Y1173377D01*
X957645Y1173610D01*
X951645D01*
X950474Y1173377D01*
X949482Y1172714D01*
X948819Y1171721D01*
X948813Y1171694D01*
X948078Y1171301D01*
X946288D01*
X944634Y1170616D01*
X943368Y1169350D01*
X942683Y1167696D01*
Y1165906D01*
X943368Y1164252D01*
X944634Y1162986D01*
X946288Y1162301D01*
X948078D01*
X948813Y1161908D01*
X948819Y1161880D01*
X949482Y1160888D01*
X950323Y1160326D01*
X950422Y1159621D01*
X950256Y1157719D01*
X948039Y1157126D01*
X945303Y1155546D01*
X943069Y1153312D01*
X941489Y1150575D01*
X940671Y1147523D01*
Y1144363D01*
X941489Y1141311D01*
X943069Y1138575D01*
X945303Y1136341D01*
X948039Y1134761D01*
X951091Y1133943D01*
X954251D01*
X956854Y1134641D01*
X958238Y1133716D01*
X960189Y1133328D01*
X973308D01*
X973530Y1133372D01*
X979612D01*
X980568Y1132559D01*
X981618Y1131216D01*
X981609Y1131176D01*
Y1130426D01*
X990558D01*
Y1134999D01*
X985433D01*
X985036Y1134920D01*
X984010Y1135481D01*
X982936Y1136478D01*
X982737Y1136818D01*
Y1140676D01*
X982625Y1141238D01*
X983890Y1142585D01*
X984623Y1143033D01*
X985433Y1142872D01*
X998683D01*
X999756Y1143085D01*
X1000666Y1143693D01*
X1000872Y1144002D01*
X1003372Y1143892D01*
Y1143676D01*
X1003614Y1142457D01*
X1004305Y1141423D01*
X1004525Y1141276D01*
X1004685Y1140346D01*
X1004544Y1138625D01*
X1004502Y1138513D01*
X1003584Y1137900D01*
X1002672Y1136535D01*
X1002583Y1136087D01*
X1000300Y1134795D01*
X999852Y1134767D01*
X998683Y1134999D01*
X993558D01*
Y1128926D01*
Y1122852D01*
X998683D01*
X1000146Y1123143D01*
X1001386Y1123972D01*
X1001393Y1123981D01*
X1001777Y1124196D01*
X1004364Y1124607D01*
X1004553Y1124554D01*
X1004948Y1124290D01*
X1006558Y1123970D01*
X1008683D01*
Y1131551D01*
X1011683D01*
Y1123970D01*
X1013808D01*
X1015417Y1124290D01*
X1016255Y1124849D01*
X1019049Y1125167D01*
X1020372Y1124283D01*
X1021933Y1123972D01*
X1024183D01*
Y1131051D01*
Y1138129D01*
X1021933D01*
X1020372Y1137819D01*
X1019848Y1137468D01*
X1018830Y1137028D01*
X1016832Y1137879D01*
X1016717Y1137944D01*
X1015864Y1138513D01*
X1015822Y1138625D01*
X1015681Y1140346D01*
X1015841Y1141276D01*
X1016061Y1141423D01*
X1016752Y1142457D01*
X1016796Y1142681D01*
X1017609Y1142927D01*
X1019398Y1142945D01*
X1019770Y1142388D01*
X1020762Y1141725D01*
X1021933Y1141492D01*
X1029433D01*
X1029610Y1141527D01*
X1031995Y1139924D01*
X1031958Y1139845D01*
X1029824Y1138052D01*
X1029433Y1138129D01*
X1027183D01*
Y1132551D01*
X1033511D01*
Y1134051D01*
X1033229Y1135470D01*
X1033201Y1135612D01*
X1033201Y1135612D01*
X1033102Y1135787D01*
X1033052Y1135937D01*
X1034557Y1137172D01*
X1034557D01*
X1034950Y1137494D01*
X1035211Y1137233D01*
X1036103Y1136341D01*
X1038839Y1134761D01*
X1041891Y1133943D01*
X1045051D01*
X1048103Y1134761D01*
X1050839Y1136341D01*
X1053074Y1138575D01*
X1054653Y1141311D01*
X1055471Y1144363D01*
Y1147523D01*
X1054653Y1150575D01*
X1053074Y1153312D01*
X1050839Y1155546D01*
X1048569Y1156857D01*
Y1168284D01*
X1049544Y1168478D01*
X1050454Y1169086D01*
X1051061Y1169995D01*
X1051275Y1171068D01*
Y1175568D01*
X1051061Y1176641D01*
X1050454Y1177551D01*
X1049544Y1178159D01*
X1048471Y1178372D01*
X1042068D01*
X1041846Y1178416D01*
X1041624Y1178372D01*
X1035542D01*
X1034586Y1179185D01*
X1033537Y1180528D01*
X1033544Y1180568D01*
Y1181318D01*
X1024596D01*
Y1176745D01*
X1029721D01*
X1030118Y1176824D01*
X1031144Y1176263D01*
X1032218Y1175266D01*
X1032417Y1174926D01*
Y1171068D01*
X1032529Y1170506D01*
X1031264Y1169160D01*
X1030531Y1168711D01*
X1029721Y1168872D01*
X1016471D01*
X1015398Y1168659D01*
X1014489Y1168051D01*
X1014139Y1167527D01*
X1010994D01*
Y1168068D01*
X1010752Y1169288D01*
X1010061Y1170321D01*
X1009841Y1170468D01*
X1009681Y1171399D01*
X1009822Y1173119D01*
X1009864Y1173231D01*
X1010782Y1173844D01*
X1011694Y1175209D01*
X1011916Y1176324D01*
X1012231Y1176586D01*
X1013262Y1177092D01*
X1014514Y1177366D01*
X1015008Y1177036D01*
X1016471Y1176745D01*
X1021596D01*
Y1182818D01*
Y1188892D01*
X1016471D01*
X1015008Y1188601D01*
X1013767Y1187772D01*
X1013367Y1187173D01*
X1011802Y1186791D01*
X1011080Y1186711D01*
X1010438Y1186772D01*
X1009417Y1187454D01*
X1007808Y1187774D01*
X1005683D01*
Y1180193D01*
X1002683D01*
Y1187774D01*
X1000558D01*
X998948Y1187454D01*
X997766Y1186664D01*
X997466Y1186544D01*
X994817Y1186577D01*
X994667Y1186677D01*
X993494Y1187461D01*
X991933Y1187772D01*
X989683D01*
Y1180693D01*
X986683D01*
Y1187772D01*
X984433D01*
X982872Y1187461D01*
X981549Y1186577D01*
X980665Y1185254D01*
X980355Y1183693D01*
Y1182352D01*
X977855Y1181151D01*
X977204Y1181673D01*
Y1188051D01*
X976971Y1189221D01*
X976308Y1190214D01*
X975315Y1190877D01*
X974145Y1191110D01*
D02*
G37*
G36*
X1033511Y1129551D02*
X1027183D01*
Y1123972D01*
X1029433D01*
X1030994Y1124283D01*
X1032317Y1125167D01*
X1033201Y1126490D01*
X1033511Y1128051D01*
Y1129551D01*
D02*
G37*
G36*
X990558Y1127426D02*
X981609D01*
Y1126676D01*
X981900Y1125213D01*
X982729Y1123972D01*
X983970Y1123143D01*
X985433Y1122852D01*
X990558D01*
Y1127426D01*
D02*
G37*
G36*
X1005933Y1114610D02*
X999933D01*
X998762Y1114377D01*
X997770Y1113714D01*
X997107Y1112721D01*
X996874Y1111551D01*
Y1104051D01*
X997107Y1102880D01*
X997770Y1101888D01*
X998762Y1101225D01*
X999364Y1101105D01*
Y1095893D01*
X998996Y1094588D01*
X997078Y1093480D01*
X985433D01*
X984360Y1093266D01*
X983450Y1092658D01*
X982842Y1091749D01*
X982629Y1090676D01*
Y1086176D01*
X982741Y1085614D01*
X981476Y1084267D01*
X980743Y1083819D01*
X979933Y1083980D01*
X973530D01*
X973308Y1084024D01*
X960654D01*
X958703Y1083636D01*
X957049Y1082531D01*
X956783Y1082265D01*
X954251Y1082943D01*
X951091D01*
X948039Y1082126D01*
X945303Y1080546D01*
X943069Y1078312D01*
X941489Y1075575D01*
X940671Y1072523D01*
Y1069363D01*
X941489Y1066311D01*
X943069Y1063575D01*
X945303Y1061341D01*
X948039Y1059761D01*
X951091Y1058943D01*
X954251D01*
X957303Y1059761D01*
X960039Y1061341D01*
X962273Y1063575D01*
X963853Y1066311D01*
X964671Y1069363D01*
Y1072523D01*
X965672Y1073828D01*
X973308D01*
X973530Y1073872D01*
X979612D01*
X980568Y1073059D01*
X981618Y1071716D01*
X981609Y1071676D01*
Y1070926D01*
X990558D01*
Y1075499D01*
X985433D01*
X985036Y1075420D01*
X984010Y1075981D01*
X982936Y1076978D01*
X982737Y1077318D01*
Y1081176D01*
X982625Y1081738D01*
X983890Y1083085D01*
X984623Y1083533D01*
X985433Y1083372D01*
X998683D01*
X999756Y1083585D01*
X1000350Y1083982D01*
X1003410D01*
X1003614Y1082957D01*
X1004305Y1081923D01*
X1004525Y1081776D01*
X1004685Y1080845D01*
X1004544Y1079125D01*
X1004502Y1079013D01*
X1003584Y1078400D01*
X1002672Y1077035D01*
X1002583Y1076587D01*
X1000300Y1075295D01*
X999852Y1075267D01*
X998683Y1075499D01*
X993558D01*
Y1069426D01*
Y1063352D01*
X998683D01*
X1000146Y1063643D01*
X1001386Y1064472D01*
X1001393Y1064482D01*
X1001777Y1064696D01*
X1004364Y1065107D01*
X1004553Y1065054D01*
X1004948Y1064790D01*
X1006558Y1064470D01*
X1008683D01*
Y1072051D01*
X1011683D01*
Y1064470D01*
X1013808D01*
X1015417Y1064790D01*
X1016255Y1065350D01*
X1019049Y1065667D01*
X1020372Y1064783D01*
X1021933Y1064473D01*
X1024183D01*
Y1071551D01*
Y1078629D01*
X1021933D01*
X1020372Y1078319D01*
X1019848Y1077969D01*
X1018830Y1077528D01*
X1016832Y1078379D01*
X1016717Y1078444D01*
X1015864Y1079013D01*
X1015822Y1079125D01*
X1015681Y1080845D01*
X1015841Y1081776D01*
X1016061Y1081923D01*
X1016752Y1082957D01*
X1016796Y1083181D01*
X1017609Y1083427D01*
X1019398Y1083445D01*
X1019770Y1082888D01*
X1020762Y1082225D01*
X1021933Y1081992D01*
X1029433D01*
X1030603Y1082225D01*
X1031596Y1082888D01*
X1032259Y1083880D01*
X1032492Y1085051D01*
Y1091051D01*
X1032259Y1092221D01*
X1031596Y1093214D01*
X1030603Y1093877D01*
X1029433Y1094110D01*
X1021933D01*
X1020762Y1093877D01*
X1019770Y1093214D01*
X1019245Y1092427D01*
X1017923Y1092278D01*
X1016591Y1092386D01*
X1016061Y1093179D01*
X1015027Y1093869D01*
X1013808Y1094112D01*
X1008669D01*
X1006501Y1096279D01*
Y1101105D01*
X1007104Y1101225D01*
X1008096Y1101888D01*
X1008759Y1102880D01*
X1008992Y1104051D01*
Y1111551D01*
X1008759Y1112721D01*
X1008096Y1113714D01*
X1007104Y1114377D01*
X1005933Y1114610D01*
D02*
G37*
G36*
X1045051Y1082943D02*
X1041891D01*
X1038839Y1082126D01*
X1036103Y1080546D01*
X1034387Y1078829D01*
X1033619Y1078312D01*
X1030994Y1078319D01*
X1029433Y1078629D01*
X1027183D01*
Y1071551D01*
Y1064473D01*
X1029433D01*
X1030994Y1064783D01*
X1033789Y1063713D01*
X1033869Y1063575D01*
X1036103Y1061341D01*
X1038373Y1060030D01*
Y1046997D01*
X1035542D01*
X1034586Y1047810D01*
X1033537Y1049153D01*
X1033544Y1049193D01*
Y1049943D01*
X1024596D01*
Y1045370D01*
X1029721D01*
X1030118Y1045449D01*
X1031144Y1044888D01*
X1032218Y1043892D01*
X1032417Y1043551D01*
Y1039693D01*
X1032529Y1039131D01*
X1031264Y1037785D01*
X1030531Y1037336D01*
X1029721Y1037497D01*
X1016471D01*
X1015398Y1037284D01*
X1014489Y1036676D01*
X1014295Y1036387D01*
X1010994D01*
Y1036693D01*
X1010752Y1037913D01*
X1010061Y1038946D01*
X1009841Y1039093D01*
X1009681Y1040024D01*
X1009822Y1041744D01*
X1009864Y1041856D01*
X1010782Y1042469D01*
X1011694Y1043834D01*
X1011916Y1044949D01*
X1012231Y1045211D01*
X1013262Y1045717D01*
X1014514Y1045991D01*
X1015008Y1045661D01*
X1016471Y1045370D01*
X1021596D01*
Y1051443D01*
Y1057517D01*
X1016471D01*
X1015008Y1057226D01*
X1013767Y1056397D01*
X1013367Y1055798D01*
X1011802Y1055416D01*
X1011080Y1055336D01*
X1010438Y1055397D01*
X1009417Y1056079D01*
X1007808Y1056399D01*
X1005683D01*
Y1048818D01*
X1002683D01*
Y1056399D01*
X1000558D01*
X998948Y1056079D01*
X997766Y1055289D01*
X997466Y1055169D01*
X994817Y1055202D01*
X994667Y1055302D01*
X993494Y1056086D01*
X991933Y1056397D01*
X989683D01*
Y1049318D01*
Y1042240D01*
X991933D01*
X993494Y1042551D01*
X994364Y1043132D01*
X995110Y1043359D01*
X997381Y1042773D01*
X997584Y1042469D01*
X998502Y1041856D01*
X998544Y1041744D01*
X998685Y1040024D01*
X998524Y1039093D01*
X998305Y1038946D01*
X997614Y1037913D01*
X997372Y1036693D01*
Y1036387D01*
X994879D01*
X994759Y1036989D01*
X994096Y1037981D01*
X993103Y1038644D01*
X991933Y1038877D01*
X984433D01*
X983262Y1038644D01*
X982270Y1037981D01*
X981607Y1036989D01*
X981539Y1036647D01*
X979607Y1035408D01*
X978874Y1035238D01*
X978598Y1035352D01*
X976808D01*
X975018Y1036850D01*
X973752Y1038116D01*
X972098Y1038801D01*
X970308D01*
X968654Y1038116D01*
X967388Y1036850D01*
X966966Y1035831D01*
X965463Y1036453D01*
X963673D01*
X962019Y1035768D01*
X960753Y1034502D01*
X960068Y1032848D01*
Y1032461D01*
X959828Y1032301D01*
X958038D01*
X956384Y1031616D01*
X955118Y1030350D01*
X954582Y1029056D01*
X954290Y1028636D01*
X951933Y1027654D01*
X951578Y1027801D01*
X949788D01*
X948253Y1027165D01*
D01*
X948134Y1027116D01*
D01*
X946868Y1025850D01*
X946183Y1024196D01*
Y1022406D01*
X946868Y1020752D01*
X948134Y1019486D01*
X948148Y1018054D01*
X946044Y1015850D01*
X944433D01*
X943457Y1015656D01*
X942631Y1015103D01*
X942078Y1014276D01*
X941884Y1013301D01*
Y1011499D01*
X940828Y1010820D01*
X939384Y1010260D01*
X938078Y1010801D01*
X936288D01*
X934634Y1010116D01*
X933368Y1008850D01*
X932683Y1007196D01*
Y1005406D01*
X933368Y1003752D01*
X934634Y1002486D01*
X936288Y1001801D01*
X938078D01*
X939384Y1002342D01*
X940828Y1001781D01*
X941884Y1001102D01*
Y999551D01*
X942078Y998575D01*
X942631Y997748D01*
X943457Y997196D01*
X944433Y997002D01*
X947433D01*
X948408Y997196D01*
X949183Y997713D01*
X949958Y997196D01*
X950933Y997002D01*
X953933D01*
X954908Y997196D01*
X955683Y997713D01*
X956458Y997196D01*
X957433Y997002D01*
X960433D01*
X961408Y997196D01*
X962183Y997713D01*
X962958Y997196D01*
X963933Y997002D01*
X966933D01*
X967908Y997196D01*
X968683Y997713D01*
X969457Y997196D01*
X970433Y997002D01*
X973433D01*
X974408Y997196D01*
X975183Y997713D01*
X975957Y997196D01*
X976933Y997002D01*
X979933D01*
X980908Y997196D01*
X981683Y997713D01*
X982458Y997196D01*
X983433Y997002D01*
X986433D01*
X987310Y997176D01*
X987410Y997028D01*
X988567Y996254D01*
X989933Y995982D01*
X990182D01*
X991199Y994744D01*
Y991684D01*
X990718Y991203D01*
X990650Y991039D01*
X989579Y989594D01*
X987632Y989789D01*
X987578Y989811D01*
X985788D01*
X984134Y989126D01*
X983653Y988645D01*
X980693D01*
X979417Y988391D01*
X978335Y987668D01*
X971302Y980635D01*
X957183D01*
X955907Y980381D01*
X954825Y979658D01*
X950075Y974908D01*
X949353Y973827D01*
X949099Y972551D01*
Y971467D01*
X946599Y970432D01*
X942581Y974449D01*
X941424Y975223D01*
X940058Y975494D01*
X936956D01*
X936752Y976520D01*
X936061Y977554D01*
X935841Y977701D01*
X935681Y978631D01*
X935822Y980351D01*
X935864Y980463D01*
X936782Y981077D01*
X937694Y982441D01*
X938014Y984051D01*
Y985926D01*
X930183D01*
Y987426D01*
X928683D01*
Y995007D01*
X926558D01*
X924948Y994687D01*
X923584Y993775D01*
X922672Y992410D01*
X922352Y990801D01*
Y989106D01*
X920178Y987301D01*
X918188D01*
X916351Y986540D01*
X914944Y985133D01*
X914183Y983295D01*
Y981306D01*
X914944Y979469D01*
X915105Y979308D01*
Y976301D01*
X915105Y976301D01*
X915415Y974740D01*
X916299Y973417D01*
X920674Y969042D01*
X920674Y969042D01*
X921997Y968158D01*
X923510Y967857D01*
X923614Y967332D01*
X924305Y966298D01*
X925339Y965607D01*
X926558Y965365D01*
X933808D01*
X935027Y965607D01*
X936061Y966298D01*
X936599Y967103D01*
X938012Y967455D01*
X939351Y967586D01*
X942364Y964573D01*
Y957455D01*
X942078Y957026D01*
X941884Y956051D01*
Y942301D01*
X942078Y941325D01*
X942631Y940499D01*
X943457Y939946D01*
X944433Y939752D01*
X947433D01*
X948408Y939946D01*
X949183Y940463D01*
X949958Y939946D01*
X950933Y939752D01*
X952536D01*
X954228Y937436D01*
X954241Y937336D01*
X954183Y937196D01*
Y935406D01*
X954868Y933752D01*
X956134Y932486D01*
X957788Y931801D01*
X959578D01*
X961232Y932486D01*
X962498Y933752D01*
X963183Y935406D01*
Y937196D01*
X963112Y937366D01*
X963342Y938034D01*
X964629Y939520D01*
X967150Y939408D01*
X968364Y937488D01*
Y933846D01*
X967868Y933350D01*
X967183Y931696D01*
Y929906D01*
X966206Y928443D01*
X949583D01*
Y921512D01*
X941195D01*
X939712Y922644D01*
X938992Y923774D01*
Y929193D01*
X938759Y930364D01*
X938096Y931356D01*
X937104Y932019D01*
X935933Y932252D01*
X935751D01*
Y950005D01*
X935998Y950252D01*
X936683Y951906D01*
Y953696D01*
X935998Y955350D01*
X934732Y956616D01*
X933078Y957301D01*
X931288D01*
X929634Y956616D01*
X928368Y955350D01*
X927683Y953696D01*
Y951906D01*
X928368Y950252D01*
X928614Y950005D01*
Y932252D01*
X928433D01*
X927262Y932019D01*
X926270Y931356D01*
X925607Y930364D01*
X925374Y929193D01*
X922992D01*
X922759Y930364D01*
X922096Y931356D01*
X921104Y932019D01*
X920183Y934406D01*
Y936196D01*
X919498Y937850D01*
X918232Y939116D01*
X916578Y939801D01*
X914788D01*
X913134Y939116D01*
X911868Y937850D01*
X911183Y936196D01*
Y934406D01*
X911256Y932217D01*
X910270Y931356D01*
X909607Y930364D01*
X909374Y929193D01*
Y923193D01*
X909607Y922023D01*
X910270Y921031D01*
X911262Y920368D01*
X912433Y920135D01*
X919933D01*
X921104Y920368D01*
X922096Y921031D01*
X922759Y922023D01*
X922992Y923193D01*
X925374D01*
X925607Y922023D01*
X926270Y921031D01*
X927262Y920368D01*
X928433Y920135D01*
X934042D01*
X935078Y917635D01*
X933195Y915752D01*
X928433D01*
X927262Y915519D01*
X926270Y914856D01*
X925607Y913864D01*
X925374Y912693D01*
X922992D01*
X922759Y913864D01*
X922096Y914856D01*
X921104Y915519D01*
X919933Y915752D01*
X912433D01*
X911262Y915519D01*
X910270Y914856D01*
X909607Y913864D01*
X909374Y912693D01*
Y906693D01*
X909607Y905523D01*
X910270Y904530D01*
X911262Y903867D01*
X912433Y903635D01*
X914802D01*
X919122Y899315D01*
X921660Y896777D01*
X922817Y896004D01*
X924183Y895732D01*
X966840D01*
X968206Y896004D01*
X969364Y896777D01*
X980996Y908410D01*
X981430Y908159D01*
X984101Y907443D01*
X986865D01*
X989536Y908159D01*
X991930Y909541D01*
X993885Y911496D01*
X995267Y913891D01*
X995983Y916561D01*
Y919326D01*
X995267Y921996D01*
X993885Y924390D01*
X991930Y926345D01*
X989536Y927728D01*
X986865Y928443D01*
X984101D01*
X981430Y927728D01*
X979036Y926345D01*
X977081Y924390D01*
X975698Y921996D01*
X974983Y919326D01*
Y916561D01*
X975698Y913891D01*
X975949Y913456D01*
X972893Y910400D01*
X970583Y911357D01*
Y926164D01*
D01*
X970788Y926301D01*
X972578D01*
X974232Y926986D01*
X975498Y928252D01*
X976183Y929906D01*
Y931696D01*
X975501Y933341D01*
Y937488D01*
X976933Y939752D01*
X979933D01*
X980908Y939946D01*
X981683Y940463D01*
X982458Y939946D01*
X983433Y939752D01*
X986433D01*
X987408Y939946D01*
X988183Y940463D01*
X988958Y939946D01*
X989933Y939752D01*
X992933D01*
X993908Y939946D01*
X994735Y940499D01*
X995288Y941325D01*
X995482Y942301D01*
Y956051D01*
X995288Y957026D01*
X994735Y957853D01*
X993908Y958406D01*
X992933Y958600D01*
X989933D01*
X988502Y960864D01*
Y974505D01*
X988748Y974752D01*
X989433Y976406D01*
Y978196D01*
X988748Y979850D01*
X989061Y981425D01*
X989232Y981496D01*
X990498Y982762D01*
X990566Y982927D01*
X991637Y984371D01*
X993584Y984177D01*
X993638Y984154D01*
X995474Y981842D01*
X995383Y980865D01*
X994868Y980350D01*
X994183Y978696D01*
Y976906D01*
X994868Y975252D01*
X996134Y973986D01*
X997788Y973301D01*
X999578D01*
X999864Y973110D01*
Y957455D01*
X999578Y957026D01*
X999384Y956051D01*
Y942301D01*
X999578Y941325D01*
X1000131Y940499D01*
X1000957Y939946D01*
X1001933Y939752D01*
X1004933D01*
X1005908Y939946D01*
X1006683Y940463D01*
X1007458Y939946D01*
X1008433Y939752D01*
X1011433D01*
X1012408Y939946D01*
X1013183Y940463D01*
X1013958Y939946D01*
X1014933Y939752D01*
X1017933D01*
X1018908Y939946D01*
X1019683Y940463D01*
X1020458Y939946D01*
X1021433Y939752D01*
X1024433D01*
X1025614Y937438D01*
Y933596D01*
X1025368Y933350D01*
X1024683Y931696D01*
Y929906D01*
X1025368Y928252D01*
X1026634Y926986D01*
X1026851Y926896D01*
X1027369Y925636D01*
X1027650Y923991D01*
X1026498Y921996D01*
X1025783Y919326D01*
Y916561D01*
X1026498Y913891D01*
X1027881Y911496D01*
X1029836Y909541D01*
X1032230Y908159D01*
X1034901Y907443D01*
X1037665D01*
X1040336Y908159D01*
X1040770Y908410D01*
X1042010Y907170D01*
X1043167Y906396D01*
X1044533Y906125D01*
X1056310D01*
X1056800Y905369D01*
X1055444Y902869D01*
X1021661D01*
X1017443Y907088D01*
X1017927Y910139D01*
X1019285Y911496D01*
X1020667Y913891D01*
X1021383Y916561D01*
Y919326D01*
X1020667Y921996D01*
X1019285Y924390D01*
X1017330Y926345D01*
X1014936Y927728D01*
X1012265Y928443D01*
X1009501D01*
X1006830Y927728D01*
X1004436Y926345D01*
X1002481Y924390D01*
X1001098Y921996D01*
X1000383Y919326D01*
Y916561D01*
X1001098Y913891D01*
X1002481Y911496D01*
X1004436Y909541D01*
X1006830Y908159D01*
X1007434Y907997D01*
X1007586Y907235D01*
X1008360Y906077D01*
X1017660Y896777D01*
X1018817Y896004D01*
X1020183Y895732D01*
X1076183D01*
X1077549Y896004D01*
X1078706Y896777D01*
X1080288Y898359D01*
X1084725Y902796D01*
D01*
X1085206Y903278D01*
X1085445Y903635D01*
X1086433D01*
X1087604Y903867D01*
X1088596Y904530D01*
X1089259Y905523D01*
X1089492Y906693D01*
Y912693D01*
X1089259Y913864D01*
X1088596Y914856D01*
X1087604Y915519D01*
X1086433Y915752D01*
X1078933D01*
X1077762Y915519D01*
X1076770Y914856D01*
X1076107Y913864D01*
X1075874Y912693D01*
Y906693D01*
X1076107Y905523D01*
X1076345Y905166D01*
D01*
D01*
X1074692Y903275D01*
X1073151Y903449D01*
X1071801Y905734D01*
X1071992Y906693D01*
Y912693D01*
X1071759Y913864D01*
X1071096Y914856D01*
X1070104Y915519D01*
X1068933Y915752D01*
X1061433D01*
X1060262Y915519D01*
X1059270Y914856D01*
X1058607Y913864D01*
X1058487Y913262D01*
X1048487D01*
X1046569Y915762D01*
X1046783Y916561D01*
Y919326D01*
X1046067Y921996D01*
X1044685Y924390D01*
X1042730Y926345D01*
X1040336Y927728D01*
X1037665Y928443D01*
X1035783D01*
X1034371Y929426D01*
X1033683Y930705D01*
Y931696D01*
X1032998Y933350D01*
X1032751Y933596D01*
Y937640D01*
X1034433Y939752D01*
X1037433D01*
X1038408Y939946D01*
X1039183Y940463D01*
X1039958Y939946D01*
X1040933Y939752D01*
X1042328D01*
X1044142Y937741D01*
X1044183Y937347D01*
Y935906D01*
X1044868Y934252D01*
X1046134Y932986D01*
X1047788Y932301D01*
X1049578D01*
X1051232Y932986D01*
X1052498Y934252D01*
X1053183Y935906D01*
Y937696D01*
X1052498Y939350D01*
X1052235Y940499D01*
X1052788Y941325D01*
X1052982Y942301D01*
Y956051D01*
X1052788Y957026D01*
X1052235Y957853D01*
X1051408Y958406D01*
X1050433Y958600D01*
X1047433D01*
X1046002Y960864D01*
Y971354D01*
X1047933Y973482D01*
X1055163D01*
X1056057Y972053D01*
X1055097Y969308D01*
X1054634Y969116D01*
D01*
X1053368Y967850D01*
X1052683Y966196D01*
Y964406D01*
X1053368Y962752D01*
X1054634Y961486D01*
X1056288Y960801D01*
X1058078D01*
X1058826Y961111D01*
X1061614Y958323D01*
Y932252D01*
X1061433D01*
X1060262Y932019D01*
X1059270Y931356D01*
X1058607Y930364D01*
X1058374Y929193D01*
Y923193D01*
X1058607Y922023D01*
X1059270Y921031D01*
X1060262Y920368D01*
X1061433Y920135D01*
X1068933D01*
X1070104Y920368D01*
X1071096Y921031D01*
X1071759Y922023D01*
X1071992Y923193D01*
Y929193D01*
X1071759Y930364D01*
X1071096Y931356D01*
X1070104Y932019D01*
X1068933Y932252D01*
X1068752D01*
Y959801D01*
X1068480Y961167D01*
X1067706Y962324D01*
X1062206Y967824D01*
X1061959Y967990D01*
X1062717Y970490D01*
X1067308D01*
X1068527Y970732D01*
X1069561Y971423D01*
X1070252Y972457D01*
X1070494Y973676D01*
Y980426D01*
X1070252Y981645D01*
X1069561Y982679D01*
X1069341Y982825D01*
X1069261Y983295D01*
X1069181Y983756D01*
X1069322Y985476D01*
X1069364Y985588D01*
X1070282Y986202D01*
X1071194Y987566D01*
X1071514Y989176D01*
Y991051D01*
X1063683D01*
X1055852D01*
Y989176D01*
X1056172Y987566D01*
X1057084Y986202D01*
X1058002Y985588D01*
X1058044Y985476D01*
X1058185Y983756D01*
D01*
X1058025Y982825D01*
X1057805Y982679D01*
X1057114Y981645D01*
X1056910Y980619D01*
X1049411D01*
X1047183Y982848D01*
Y983196D01*
X1046498Y984850D01*
X1045232Y986116D01*
X1043578Y986801D01*
X1041788D01*
X1040134Y986116D01*
X1038868Y984850D01*
X1038183Y983196D01*
Y981406D01*
X1038864Y979761D01*
Y971663D01*
X1036828Y969801D01*
X1035038D01*
X1033384Y969116D01*
X1032118Y967850D01*
X1031433Y966196D01*
Y964406D01*
X1032118Y962752D01*
X1032364Y962505D01*
Y960864D01*
X1030933Y958600D01*
X1027933D01*
X1026252Y960712D01*
Y968505D01*
X1026498Y968752D01*
X1027183Y970406D01*
Y972196D01*
X1026498Y973850D01*
X1025232Y975116D01*
X1023578Y975801D01*
X1021788D01*
X1020134Y975116D01*
X1018868Y973850D01*
X1018183Y972196D01*
Y970406D01*
X1018868Y968752D01*
X1019114Y968505D01*
Y965663D01*
X1017078Y963801D01*
X1015288D01*
X1013017Y965566D01*
Y980301D01*
X1012763Y981577D01*
X1012040Y982658D01*
X1009967Y984732D01*
D01*
D01*
X1010187Y987154D01*
X1012200Y988206D01*
X1013328Y987545D01*
X1013547Y987326D01*
X1015201Y986641D01*
X1016991D01*
X1018645Y987326D01*
X1019911Y988592D01*
X1020043Y988912D01*
X1020350Y988973D01*
X1022004Y988288D01*
X1023795D01*
X1025449Y988973D01*
X1026714Y990239D01*
X1027180Y991363D01*
X1028538Y990801D01*
X1030328D01*
X1031982Y991486D01*
X1033558Y992544D01*
X1035134Y991486D01*
X1036788Y990801D01*
X1038578D01*
X1040232Y991486D01*
X1041498Y992752D01*
X1042183Y994406D01*
Y996196D01*
X1044493Y997113D01*
X1044810Y997176D01*
X1044910Y997028D01*
X1046067Y996254D01*
X1047433Y995982D01*
X1047433D01*
Y1006426D01*
X1048933D01*
Y1007926D01*
X1054001D01*
Y1013301D01*
X1053730Y1014667D01*
X1053352Y1015232D01*
X1054087Y1017259D01*
X1054459Y1017732D01*
X1066933D01*
X1068299Y1018004D01*
X1069456Y1018777D01*
X1076171Y1025492D01*
X1080933D01*
X1082104Y1025725D01*
X1083096Y1026388D01*
X1083759Y1027380D01*
X1083992Y1028551D01*
D01*
Y1028551D01*
Y1036051D01*
X1083759Y1037221D01*
X1083096Y1038214D01*
X1082104Y1038877D01*
X1080933Y1039110D01*
X1074933D01*
X1073762Y1038877D01*
X1072770Y1038214D01*
X1072107Y1037221D01*
X1071874Y1036051D01*
Y1031289D01*
X1069992Y1029406D01*
X1067492Y1030442D01*
Y1036051D01*
X1067259Y1037221D01*
X1066596Y1038214D01*
X1065603Y1038877D01*
X1064433Y1039110D01*
X1058433D01*
X1057262Y1038877D01*
X1056270Y1038214D01*
X1055607Y1037221D01*
X1055374Y1036051D01*
Y1035869D01*
X1052001D01*
X1051732Y1036189D01*
X1050894Y1038369D01*
X1051061Y1038620D01*
X1051275Y1039693D01*
Y1044193D01*
X1051061Y1045266D01*
X1050454Y1046176D01*
X1049544Y1046784D01*
X1048569Y1046978D01*
Y1060030D01*
X1050839Y1061341D01*
X1053074Y1063575D01*
X1054653Y1066311D01*
X1055471Y1069363D01*
Y1072523D01*
X1054653Y1075575D01*
X1053074Y1078312D01*
X1050839Y1080546D01*
X1048103Y1082126D01*
X1045051Y1082943D01*
D02*
G37*
G36*
X990558Y1067926D02*
X981609D01*
Y1067176D01*
X981900Y1065713D01*
X982729Y1064472D01*
X983970Y1063643D01*
X985433Y1063352D01*
X990558D01*
Y1067926D01*
D02*
G37*
G36*
X1029721Y1057517D02*
X1024596D01*
Y1052943D01*
X1033544D01*
Y1053693D01*
X1033253Y1055156D01*
X1032425Y1056397D01*
X1031184Y1057226D01*
X1029721Y1057517D01*
D02*
G37*
G36*
X986683Y1056397D02*
X984433D01*
X982872Y1056086D01*
X981549Y1055202D01*
X980665Y1053879D01*
X980355Y1052318D01*
Y1050818D01*
X986683D01*
Y1056397D01*
D02*
G37*
G36*
Y1047818D02*
X980355D01*
Y1046318D01*
X980665Y1044758D01*
X981549Y1043435D01*
X982872Y1042551D01*
X984433Y1042240D01*
X986683D01*
Y1047818D01*
D02*
G37*
G36*
X1054001Y1004926D02*
X1050433D01*
Y995982D01*
X1051799Y996254D01*
X1052956Y997028D01*
X1053730Y998185D01*
X1054001Y999551D01*
Y1004926D01*
D02*
G37*
G36*
X1067308Y1000132D02*
X1065183D01*
Y994051D01*
X1071514D01*
Y995926D01*
X1071194Y997535D01*
X1070282Y998900D01*
X1068917Y999811D01*
X1067308Y1000132D01*
D02*
G37*
G36*
X1062183D02*
X1060058D01*
X1058448Y999811D01*
X1057084Y998900D01*
X1056172Y997535D01*
X1055852Y995926D01*
Y994051D01*
X1062183D01*
Y1000132D01*
D02*
G37*
G36*
X933808Y995007D02*
X931683D01*
Y988926D01*
X938014D01*
Y990801D01*
X937694Y992410D01*
X936782Y993775D01*
X935417Y994687D01*
X933808Y995007D01*
D02*
G37*
G36*
X1082578Y963801D02*
X1080788D01*
X1079134Y963116D01*
X1077868Y961850D01*
X1077183Y960196D01*
Y958406D01*
X1077868Y956752D01*
X1079114Y955506D01*
Y932252D01*
X1078933D01*
X1077762Y932019D01*
X1076770Y931356D01*
X1076107Y930364D01*
X1075874Y929193D01*
Y923193D01*
X1076107Y922023D01*
X1076770Y921031D01*
X1077762Y920368D01*
X1078933Y920135D01*
X1086433D01*
X1087604Y920368D01*
X1088596Y921031D01*
X1089259Y922023D01*
X1089492Y923193D01*
Y929193D01*
X1089259Y930364D01*
X1088596Y931356D01*
X1087604Y932019D01*
X1086433Y932252D01*
X1086252D01*
Y958301D01*
X1086183Y958646D01*
Y960196D01*
X1085888Y960909D01*
D01*
X1085498Y961850D01*
X1084232Y963116D01*
X1082578Y963801D01*
D02*
G37*
%LPD*%
G36*
X1013881Y1029120D02*
X1014489Y1028211D01*
X1015398Y1027603D01*
X1016471Y1027390D01*
X1029721D01*
X1030794Y1027603D01*
X1031704Y1028211D01*
X1032052Y1028732D01*
X1053666D01*
X1054435Y1027349D01*
X1053057Y1024869D01*
X1048183D01*
X1046817Y1024598D01*
X1045660Y1023824D01*
X1039910Y1018074D01*
X1039136Y1016917D01*
X1038408Y1015656D01*
X1037433Y1015850D01*
X1034433D01*
X1033457Y1015656D01*
X1032683Y1015138D01*
X1031908Y1015656D01*
X1030933Y1015850D01*
X1027933D01*
X1026957Y1015656D01*
X1026183Y1015138D01*
X1025408Y1015656D01*
X1024433Y1015850D01*
X1021433D01*
X1020458Y1015656D01*
X1019683Y1015138D01*
X1018908Y1015656D01*
X1017933Y1015850D01*
X1014933D01*
X1013958Y1015656D01*
X1013183Y1015138D01*
X1012408Y1015656D01*
X1011433Y1015850D01*
X1008433D01*
X1007458Y1015656D01*
X1006683Y1015138D01*
X1005908Y1015656D01*
X1004933Y1015850D01*
X1001933D01*
X1000957Y1015656D01*
X1000131Y1015103D01*
X999578Y1014276D01*
X999384Y1013301D01*
Y1006206D01*
X999001Y1005950D01*
X996501Y1007286D01*
Y1013301D01*
X996230Y1014667D01*
X995456Y1015824D01*
X994299Y1016598D01*
X992933Y1016869D01*
Y1006426D01*
X989933D01*
Y1016869D01*
D01*
X988267Y1019087D01*
Y1022551D01*
X988183Y1022973D01*
Y1024696D01*
X990034Y1026760D01*
X991933D01*
X993103Y1026992D01*
X994096Y1027655D01*
X994759Y1028648D01*
X994879Y1029250D01*
X997510D01*
X997614Y1028724D01*
X998305Y1027690D01*
X999339Y1027000D01*
X1000558Y1026757D01*
X1007808D01*
X1009027Y1027000D01*
X1010061Y1027690D01*
X1010752Y1028724D01*
X1010856Y1029250D01*
X1013855D01*
X1013881Y1029120D01*
D02*
G37*
D10*
X1035933Y997051D02*
X1037683Y995301D01*
X1035933Y997051D02*
Y1006426D01*
X958933Y936551D02*
Y949176D01*
X958683Y936301D02*
X958933Y936551D01*
X1048683Y948926D02*
X1048933Y949176D01*
X1048683Y936801D02*
Y948926D01*
X977703Y1007156D02*
Y1030853D01*
Y1007156D02*
X978433Y1006426D01*
X947183Y1333801D02*
X954645D01*
X984933Y1006426D02*
Y1022551D01*
X983683Y1023801D02*
X984933Y1022551D01*
X947326Y1357158D02*
X954645D01*
X947183Y1357301D02*
X947326Y1357158D01*
X964568Y1031953D02*
X965433Y1031089D01*
Y1006426D02*
Y1031089D01*
X947183Y1203301D02*
X954645D01*
X973683Y1275301D02*
X974183Y1274801D01*
X971933Y1006426D02*
Y1033571D01*
X974183Y1274801D02*
X981433D01*
X971203Y1034301D02*
X971933Y1033571D01*
X952433Y1006426D02*
Y1021551D01*
X947183Y1166801D02*
X954645D01*
X950683Y1023301D02*
X952433Y1021551D01*
X947183Y1184301D02*
X954645D01*
X958933Y1006426D02*
Y1027801D01*
X957183Y977301D02*
X972683D01*
X980693Y985311D01*
X952183Y949426D02*
X952433Y949176D01*
X980693Y985311D02*
X986683D01*
X952433Y972551D02*
X957183Y977301D01*
X952433Y949176D02*
Y972551D01*
X947183Y1379801D02*
X947326Y1379658D01*
X954645D01*
X952183Y949426D02*
Y960301D01*
X969183Y1125301D02*
X974183Y1120301D01*
X937183Y1006301D02*
X945808D01*
X945933Y1006426D01*
X986433Y1107801D02*
Y1108051D01*
X974183Y1120301D02*
X986433Y1108051D01*
X936683Y1125301D02*
X969183D01*
X1022933Y992821D02*
Y1006426D01*
X1022899Y992788D02*
X1022933Y992821D01*
X981183Y1611301D02*
X990933D01*
X1029433Y995301D02*
Y1006426D01*
X945683Y1668801D02*
X945826Y1668943D01*
X954433D01*
X1007453Y991301D02*
X1009933Y993781D01*
X945683Y1519801D02*
X945933Y1519551D01*
X1009933Y993781D02*
Y1006426D01*
X957183Y1519551D02*
X957433Y1519301D01*
X945933Y1519551D02*
X957183D01*
X949183Y1541301D02*
X956665D01*
X956933Y1541568D01*
X1016433Y991478D02*
Y1006426D01*
X1016096Y991141D02*
X1016433Y991478D01*
X1004673Y985311D02*
X1009683Y980301D01*
X1000683Y985311D02*
X1004673D01*
X946683Y1501301D02*
X954145D01*
X954645Y1500801D01*
X1009683Y949426D02*
X1009933Y949176D01*
X1009683Y949426D02*
Y980301D01*
X974183Y1442301D02*
X974683Y1442801D01*
X981433D01*
X1003433Y1003644D02*
Y1006426D01*
X994533Y988654D02*
Y994744D01*
X1003433Y1003644D01*
X979540Y1650943D02*
X991346D01*
X970933Y1659551D02*
X979540Y1650943D01*
X970933Y1659551D02*
Y1669801D01*
X971145Y1181232D02*
Y1184301D01*
X1022721Y1164193D02*
X1023096Y1163818D01*
X971145Y1181232D02*
X988183Y1164193D01*
X1022721D01*
X971145Y1346839D02*
X986933Y1331051D01*
X971145Y1346839D02*
Y1357158D01*
X1022864Y1331051D02*
X1023096Y1330818D01*
X988183Y1331051D02*
X1022864D01*
X986933D02*
X988183D01*
D13*
X748183Y1710301D02*
D03*
X798183Y1010301D02*
D03*
X1248183D02*
D03*
Y1710301D02*
D03*
D14*
X1368071Y1585043D02*
D03*
Y1083043D02*
D03*
Y1417710D02*
D03*
X628071Y1635843D02*
D03*
Y1301177D02*
D03*
Y1133843D02*
D03*
X1368071Y1250377D02*
D03*
X628071Y1468510D02*
D03*
D15*
X1368071Y1635843D02*
D03*
Y1133843D02*
D03*
Y1468510D02*
D03*
X628071Y1585043D02*
D03*
Y1250377D02*
D03*
Y1083043D02*
D03*
X1368071Y1301177D02*
D03*
X628071Y1417710D02*
D03*
D16*
X1246471Y1313277D02*
D03*
Y1238277D02*
D03*
X1196471Y1313277D02*
D03*
Y1238277D02*
D03*
X1296871Y1313277D02*
D03*
Y1238277D02*
D03*
X1043471D02*
D03*
Y1313277D02*
D03*
Y1275777D02*
D03*
X952671D02*
D03*
Y1238277D02*
D03*
Y1313277D02*
D03*
X699271D02*
D03*
Y1238277D02*
D03*
X799671Y1313277D02*
D03*
Y1238277D02*
D03*
X749671Y1313277D02*
D03*
Y1238277D02*
D03*
X952671Y1108443D02*
D03*
Y1070943D02*
D03*
Y1145943D02*
D03*
X699271D02*
D03*
Y1070943D02*
D03*
X799671Y1145943D02*
D03*
Y1070943D02*
D03*
X749671Y1145943D02*
D03*
Y1070943D02*
D03*
X1043471Y1108443D02*
D03*
Y1145943D02*
D03*
Y1070943D02*
D03*
X1296871D02*
D03*
Y1145943D02*
D03*
X1196471Y1070943D02*
D03*
Y1145943D02*
D03*
X1246471Y1070943D02*
D03*
Y1145943D02*
D03*
X952671Y1610443D02*
D03*
Y1572943D02*
D03*
Y1647943D02*
D03*
X699271D02*
D03*
Y1572943D02*
D03*
X799671Y1647943D02*
D03*
Y1572943D02*
D03*
X749671Y1647943D02*
D03*
Y1572943D02*
D03*
X1043471Y1610443D02*
D03*
Y1647943D02*
D03*
Y1572943D02*
D03*
X1296871D02*
D03*
Y1647943D02*
D03*
X1196471Y1572943D02*
D03*
Y1647943D02*
D03*
X1246471Y1572943D02*
D03*
Y1647943D02*
D03*
X1043471Y1443110D02*
D03*
Y1480610D02*
D03*
Y1405610D02*
D03*
X1296871D02*
D03*
Y1480610D02*
D03*
X1196471Y1405610D02*
D03*
Y1480610D02*
D03*
X1246471Y1405610D02*
D03*
Y1480610D02*
D03*
X952671Y1443110D02*
D03*
Y1405610D02*
D03*
Y1480610D02*
D03*
X699271D02*
D03*
Y1405610D02*
D03*
X799671Y1480610D02*
D03*
Y1405610D02*
D03*
X749671Y1480610D02*
D03*
Y1405610D02*
D03*
D17*
X960083Y917943D02*
D03*
Y1788443D02*
D03*
D18*
X985483Y917943D02*
D03*
X1010883D02*
D03*
X1036283D02*
D03*
Y1788443D02*
D03*
X1010883D02*
D03*
X985483D02*
D03*
D19*
X1010471Y1650193D02*
X1025971D01*
X985938Y1670438D02*
X988183Y1668193D01*
X1004183D02*
X1022721D01*
X988183D02*
X1004183D01*
X947288Y1688000D02*
X954750D01*
X945788Y1686500D02*
X947288Y1688000D01*
X1036283Y917943D02*
X1044533Y909693D01*
X1065183D01*
X1082683Y905801D02*
Y909693D01*
X1076183Y899301D02*
X1082683Y905801D01*
X1010883Y908601D02*
Y917943D01*
Y908601D02*
X1020183Y899301D01*
X1076183D01*
X924183D02*
X966840D01*
X916183Y907301D02*
X924183Y899301D01*
X966840D02*
X985483Y917943D01*
X916183Y907301D02*
Y909693D01*
X932183D02*
X940433Y917943D01*
X960083D01*
X1034321Y1788943D02*
X1034571Y1788693D01*
X1080721D01*
X1081683Y959301D02*
X1082683Y958301D01*
X1016183Y949426D02*
Y959301D01*
Y949426D02*
X1016433Y949176D01*
X1082683Y926193D02*
Y958301D01*
X1029183Y930801D02*
Y948926D01*
X915683Y935301D02*
X916183Y934801D01*
Y926193D02*
Y934801D01*
X971933Y931051D02*
Y949176D01*
X971683Y930801D02*
X971933Y931051D01*
X1029183Y948926D02*
X1029433Y949176D01*
X1022683Y949426D02*
X1022933Y949176D01*
X932183Y926193D02*
Y952801D01*
X965433Y949176D02*
Y971051D01*
X965183Y971301D02*
X965433Y971051D01*
X1022683Y949426D02*
Y971301D01*
X1035933Y949176D02*
Y965301D01*
X978183Y949426D02*
X978433Y949176D01*
X978183Y949426D02*
Y964801D01*
X1065183Y926193D02*
Y959801D01*
X1059683Y965301D02*
X1065183Y959801D01*
X1057183Y965301D02*
X1059683D01*
X1048183Y1021301D02*
X1066933D01*
X1042433Y1015551D02*
X1048183Y1021301D01*
X1066933D02*
X1077933Y1032301D01*
X1042433Y1006426D02*
Y1015551D01*
X1097221Y1788693D02*
X1142721D01*
X1166471Y1764943D01*
Y1746943D02*
Y1764943D01*
X1042433Y949176D02*
Y982051D01*
X984933Y949176D02*
Y977301D01*
X945933Y949176D02*
Y966051D01*
X940058Y971926D02*
X945933Y966051D01*
X930183Y971926D02*
X940058D01*
X1042683Y982301D02*
X1047933Y977051D01*
X1042433Y982051D02*
X1042683Y982301D01*
X1003433Y949176D02*
Y975051D01*
X1047933Y977051D02*
X1063683D01*
X998683Y977801D02*
X1000683D01*
X1003433Y975051D01*
X991346Y1591568D02*
X991721Y1591193D01*
X1007433Y1593732D02*
X1010471Y1590693D01*
X991721Y1591193D02*
X1025971D01*
X1007433Y1593732D02*
Y1611301D01*
X992096Y1650193D02*
X1010471D01*
X991346Y1650943D02*
X992096Y1650193D01*
X991433Y1422426D02*
X1025683D01*
X1010183Y1421926D02*
Y1434801D01*
X997933Y1442801D02*
X1002183D01*
X991058Y1422801D02*
X991433Y1422426D01*
X1002183Y1442801D02*
X1010183Y1434801D01*
X980933Y1479551D02*
X1025971D01*
X971145Y1489339D02*
X980933Y1479551D01*
X971145Y1489339D02*
Y1500801D01*
X997933Y1264801D02*
X1010183Y1252551D01*
X997933Y1264801D02*
Y1274801D01*
X1025308Y1253426D02*
X1025683Y1253051D01*
X992058Y1253426D02*
X1025308D01*
X971145Y1324839D02*
X981933Y1314051D01*
X971145Y1324839D02*
Y1333801D01*
X981933Y1314051D02*
X1025683D01*
X1002933Y1094801D02*
Y1107801D01*
X1010683Y1088051D02*
X1025683D01*
X1002933Y1094801D02*
X1010183Y1087551D01*
X992058Y1088426D02*
X992933Y1087551D01*
X1010183D01*
X1010683Y1088051D01*
X980558Y1147926D02*
X992058D01*
X971145Y1157339D02*
Y1166801D01*
Y1157339D02*
X980558Y1147926D01*
X1025308D02*
X1025683Y1147551D01*
X992058Y1147926D02*
X1025308D01*
X1023239Y1032301D02*
X1061433D01*
X1022721Y1032818D02*
X1023096Y1032443D01*
X1023239Y1032301D01*
X988183Y1032818D02*
X1022721D01*
X975627Y1198818D02*
X1023096D01*
X971145Y1203301D02*
X975627Y1198818D01*
X1022721Y1498693D02*
X1023096Y1498318D01*
X971145Y1515732D02*
Y1519301D01*
X988183Y1498693D02*
X1022721D01*
X971145Y1515732D02*
X988183Y1498693D01*
X984985Y1365818D02*
X1023096D01*
X971145Y1379658D02*
X984985Y1365818D01*
X979770Y1532943D02*
X1023096D01*
X971145Y1541568D02*
X979770Y1532943D01*
X971145Y1685231D02*
Y1685301D01*
Y1685231D02*
X985938Y1670438D01*
X1022721Y1668193D02*
X1023096Y1667818D01*
X985330Y992301D02*
X991433Y998403D01*
Y1006426D01*
X976183Y992301D02*
X985330D01*
D20*
X749459Y1541919D02*
Y1572731D01*
X640459Y1526419D02*
X733959D01*
X749459Y1572731D02*
X749671Y1572943D01*
X733959Y1526419D02*
X749459Y1541919D01*
X628071Y1538807D02*
Y1585043D01*
Y1538807D02*
X640459Y1526419D01*
X628071Y1635843D02*
X659383D01*
X659459Y1635919D02*
X689959D01*
X699271Y1645231D02*
Y1647943D01*
X689959Y1635919D02*
X699271Y1645231D01*
X659383Y1635843D02*
X659459Y1635919D01*
X749459Y1405398D02*
X749671Y1405610D01*
X628071Y1371474D02*
X640459Y1359086D01*
X733959D02*
X749459Y1374586D01*
X640459Y1359086D02*
X733959D01*
X749459Y1374586D02*
Y1405398D01*
X628071Y1371474D02*
Y1417710D01*
X659383Y1468510D02*
X659459Y1468586D01*
X628071Y1468510D02*
X659383D01*
X689959Y1468586D02*
X699271Y1477898D01*
Y1480610D01*
X659459Y1468586D02*
X689959D01*
X628071Y1204141D02*
Y1250377D01*
X640459Y1191752D02*
X733959D01*
X749459Y1207253D02*
Y1238065D01*
X733959Y1191752D02*
X749459Y1207253D01*
Y1238065D02*
X749671Y1238277D01*
X628071Y1204141D02*
X640459Y1191752D01*
X659459Y1301252D02*
X689959D01*
X699271Y1310564D01*
X628071Y1301177D02*
X659383D01*
X659459Y1301252D01*
X699271Y1310564D02*
Y1313277D01*
X689959Y1133919D02*
X699271Y1143231D01*
X628071Y1133843D02*
X659383D01*
X659459Y1133919D01*
X699271Y1143231D02*
Y1145943D01*
X659459Y1133919D02*
X689959D01*
X628071Y1036807D02*
X640459Y1024419D01*
X712301D02*
X749671Y1061789D01*
X628071Y1036807D02*
Y1083043D01*
X640459Y1024419D02*
X712301D01*
X749671Y1061789D02*
Y1070943D01*
X1246295Y1146413D02*
Y1177225D01*
X1246083Y1146201D02*
X1246295Y1146413D01*
Y1177225D02*
X1261795Y1192725D01*
X1355295D02*
X1367683Y1180337D01*
X1261795Y1192725D02*
X1355295D01*
X1367683Y1134101D02*
Y1180337D01*
X1296483Y1071201D02*
Y1073913D01*
X1305795Y1083225D01*
X1336295D02*
X1336371Y1083301D01*
X1305795Y1083225D02*
X1336295D01*
X1336371Y1083301D02*
X1367683D01*
X1336683Y1250301D02*
X1336759Y1250377D01*
X1306183Y1250301D02*
X1336683D01*
X1296871Y1238277D02*
Y1240989D01*
X1336759Y1250377D02*
X1368071D01*
X1296871Y1240989D02*
X1306183Y1250301D01*
X1246683Y1344301D02*
X1262183Y1359801D01*
X1355683D01*
X1368071Y1301177D02*
Y1347413D01*
X1246471Y1313277D02*
X1246683Y1313489D01*
X1355683Y1359801D02*
X1368071Y1347413D01*
X1246683Y1313489D02*
Y1344301D01*
X1246795Y1479913D02*
Y1510725D01*
X1262295Y1526225D01*
X1355795D02*
X1368183Y1513837D01*
X1262295Y1526225D02*
X1355795D01*
X1368183Y1467601D02*
Y1513837D01*
X1246583Y1479701D02*
X1246795Y1479913D01*
X1306295Y1416725D02*
X1336795D01*
X1296983Y1407413D02*
X1306295Y1416725D01*
X1336795D02*
X1336871Y1416801D01*
X1368183D01*
X1296983Y1404701D02*
Y1407413D01*
X1336871Y1585301D02*
X1368183D01*
X1296983Y1575913D02*
X1306295Y1585225D01*
X1336795D02*
X1336871Y1585301D01*
X1296983Y1573201D02*
Y1575913D01*
X1306295Y1585225D02*
X1336795D01*
X1246795Y1648413D02*
Y1658801D01*
X1355795Y1694725D02*
X1368183Y1682337D01*
Y1636101D02*
Y1682337D01*
X1246795Y1658801D02*
X1282719Y1694725D01*
X1246583Y1648201D02*
X1246795Y1648413D01*
X1282719Y1694725D02*
X1355795D01*
D21*
X960083Y1756051D02*
Y1788443D01*
X958721Y1754689D02*
X960083Y1756051D01*
X957221Y1746693D02*
X958721Y1748193D01*
Y1754689D01*
X957221Y1746693D02*
X1130221D01*
X871683Y1695801D02*
X877683D01*
X882900D02*
X883292Y1696192D01*
X877683Y1695801D02*
X882900D01*
X883292Y1696192D02*
X887808Y1700708D01*
X864683Y1695801D02*
X871683D01*
X1130221Y1746693D02*
X1130471Y1746943D01*
X1149471D01*
X1166471D02*
X1175471D01*
X1149471D02*
X1166471D01*
D22*
X921471Y1745943D02*
X922221Y1746693D01*
X921471Y1723193D02*
Y1745943D01*
X895004Y1746693D02*
X922221D01*
X894471Y1747226D02*
X895004Y1746693D01*
X877971Y1718726D02*
Y1747226D01*
X911707Y1275777D02*
X952671D01*
X911183Y1108301D02*
X952529D01*
X911183Y1617301D02*
X918040Y1610443D01*
X952529Y1108301D02*
X952671Y1108443D01*
X1083492Y1443110D02*
X1095183Y1454801D01*
X1084826Y1610443D02*
X1095183Y1620801D01*
X911183Y1276301D02*
X911707Y1275777D01*
X1088159D02*
X1095183Y1282801D01*
X911183Y1447801D02*
X915874Y1443110D01*
X952671D01*
X918040Y1610443D02*
X952671D01*
X1043471Y1275777D02*
X1088159D01*
X1043471Y1443110D02*
X1083492D01*
X1043471Y1610443D02*
X1084826D01*
X1094540Y1108443D02*
X1095183Y1107801D01*
X1043471Y1108443D02*
X1094540D01*
D23*
X952671Y1647943D02*
X959171Y1641443D01*
X972596D01*
X952671Y1572943D02*
X961796Y1582068D01*
X972596D01*
X952671Y1405610D02*
X960362Y1413301D01*
X972308D01*
X962855Y1470426D02*
X972596D01*
X952671Y1480610D02*
X962855Y1470426D01*
X952671Y1238277D02*
X958320Y1243926D01*
X973308D01*
X952671Y1313277D02*
X961022Y1304926D01*
X973308D01*
X952671Y1070943D02*
X960654Y1078926D01*
X973308D01*
X960189Y1138426D02*
X973308D01*
X952671Y1145943D02*
X960189Y1138426D01*
X1043471Y1145943D02*
Y1171693D01*
X1041846Y1173318D02*
X1043471Y1171693D01*
Y1043568D02*
Y1070943D01*
X1041846Y1041943D02*
X1043471Y1043568D01*
X1041846Y1208318D02*
X1043471Y1209943D01*
Y1238277D01*
X1041846Y1340318D02*
X1043471Y1338693D01*
Y1313277D02*
Y1338693D01*
X1041846Y1507818D02*
X1043471Y1506193D01*
Y1480610D02*
Y1506193D01*
X1041846Y1375318D02*
Y1403985D01*
X1043471Y1405610D01*
Y1544068D02*
Y1572943D01*
X1041846Y1542443D02*
X1043471Y1544068D01*
Y1647943D02*
Y1675693D01*
X1041846Y1677318D02*
X1043471Y1675693D01*
X1006808Y1517318D02*
X1023096D01*
X1004183Y1514693D02*
X1006808Y1517318D01*
X988183Y1515193D02*
X1003683D01*
X1004183Y1514693D01*
D24*
X902000Y1787000D02*
D03*
X864683Y1695801D02*
D03*
X911183Y1447801D02*
D03*
Y1276301D02*
D03*
X1095183Y1454801D02*
D03*
X1149471Y1746943D02*
D03*
X1095183Y1620801D02*
D03*
X1166471Y1746943D02*
D03*
X911183Y1108301D02*
D03*
X1095183Y1282801D02*
D03*
X911183Y1617301D02*
D03*
X1095183Y1107801D02*
D03*
X1175471Y1746943D02*
D03*
D25*
X1095000Y1770000D02*
D03*
Y1710000D02*
D03*
X1080000Y1680000D02*
D03*
Y1560000D02*
D03*
Y1500000D02*
D03*
Y1380000D02*
D03*
Y1320000D02*
D03*
Y1260000D02*
D03*
Y1200000D02*
D03*
Y1140000D02*
D03*
Y1080000D02*
D03*
Y1020000D02*
D03*
X1095000Y990000D02*
D03*
Y930000D02*
D03*
X1050000Y1799999D02*
D03*
X1065000Y1770000D02*
D03*
Y1710000D02*
D03*
X1035000Y1770000D02*
D03*
X1005000D02*
D03*
Y1710000D02*
D03*
X990000Y900000D02*
D03*
X975000Y1710000D02*
D03*
Y1290000D02*
D03*
X960000Y1260000D02*
D03*
X945000Y1710000D02*
D03*
X930000Y1680000D02*
D03*
X945000Y1590000D02*
D03*
X930000Y1560000D02*
D03*
Y1500000D02*
D03*
Y1380000D02*
D03*
Y1320000D02*
D03*
Y1260000D02*
D03*
Y1200000D02*
D03*
Y1140000D02*
D03*
X900000Y1020000D02*
D03*
Y960000D02*
D03*
Y900000D02*
D03*
D26*
X945788Y1686500D02*
D03*
X1037683Y995301D02*
D03*
X1016183Y959301D02*
D03*
X1081683D02*
D03*
X1048683Y936801D02*
D03*
X958683Y936301D02*
D03*
X1029183Y930801D02*
D03*
X915683Y935301D02*
D03*
X971683Y930801D02*
D03*
X1022683Y971301D02*
D03*
X965183D02*
D03*
X932183Y952801D02*
D03*
X978183Y964801D02*
D03*
X1057183Y965301D02*
D03*
X1035933D02*
D03*
X977703Y1030853D02*
D03*
X947183Y1333801D02*
D03*
X983683Y1023801D02*
D03*
X947183Y1357301D02*
D03*
Y1203301D02*
D03*
X964568Y1031953D02*
D03*
X971203Y1034301D02*
D03*
X973683Y1275301D02*
D03*
X947183Y1166801D02*
D03*
X950683Y1023301D02*
D03*
X958933Y1027801D02*
D03*
X947183Y1184301D02*
D03*
Y1379801D02*
D03*
X986683Y985311D02*
D03*
X937183Y1006301D02*
D03*
X936683Y1125301D02*
D03*
X981183Y1611301D02*
D03*
X1022899Y992788D02*
D03*
X1029433Y995301D02*
D03*
X945683Y1668801D02*
D03*
Y1519801D02*
D03*
X1007453Y991301D02*
D03*
X949183Y1541301D02*
D03*
X1016096Y991141D02*
D03*
X946683Y1501301D02*
D03*
X1000683Y985311D02*
D03*
X994533Y988654D02*
D03*
X974183Y1442301D02*
D03*
X998683Y977801D02*
D03*
X1042683Y982301D02*
D03*
X984933Y977301D02*
D03*
X976183Y992301D02*
D03*
D27*
X877683Y1695801D02*
D03*
D28*
X919183Y982301D02*
D03*
D29*
X971250Y1688000D02*
D03*
X954750D02*
D03*
X1077933Y1032301D02*
D03*
X1061433D02*
D03*
X954645Y1357158D02*
D03*
X971145D02*
D03*
X954645Y1184301D02*
D03*
X971145D02*
D03*
X990933Y1611301D02*
D03*
X1007433D02*
D03*
X954645Y1166801D02*
D03*
X971145D02*
D03*
X954645Y1519301D02*
D03*
X971145D02*
D03*
X954645Y1668943D02*
D03*
X971145D02*
D03*
X954645Y1203301D02*
D03*
X971145D02*
D03*
X1080721Y1788693D02*
D03*
X1097221D02*
D03*
X986433Y1107801D02*
D03*
X1002933D02*
D03*
X954645Y1541568D02*
D03*
X971145D02*
D03*
X954645Y1333801D02*
D03*
X971145D02*
D03*
X954645Y1500801D02*
D03*
X971145D02*
D03*
X981433Y1442801D02*
D03*
X997933D02*
D03*
X894471Y1747226D02*
D03*
X877971D02*
D03*
X954645Y1379658D02*
D03*
X971145D02*
D03*
X981433Y1274801D02*
D03*
X997933D02*
D03*
D30*
X1035933Y1006426D02*
D03*
X945933D02*
D03*
X952433D02*
D03*
X958933D02*
D03*
X965433D02*
D03*
X971933D02*
D03*
X978433D02*
D03*
X984933D02*
D03*
X991433D02*
D03*
Y949176D02*
D03*
X984933D02*
D03*
X978433D02*
D03*
X971933D02*
D03*
X965433D02*
D03*
X958933D02*
D03*
X952433D02*
D03*
X945933D02*
D03*
X1003433D02*
D03*
X1009933D02*
D03*
X1016433D02*
D03*
X1022933D02*
D03*
X1029433D02*
D03*
X1035933D02*
D03*
X1042433D02*
D03*
X1048933D02*
D03*
Y1006426D02*
D03*
X1042433D02*
D03*
X1029433D02*
D03*
X1022933D02*
D03*
X1016433D02*
D03*
X1009933D02*
D03*
X1003433D02*
D03*
D31*
X957221Y1746693D02*
D03*
X922221D02*
D03*
D32*
X1004183Y1382051D02*
D03*
Y1366551D02*
D03*
Y1164693D02*
D03*
Y1180193D02*
D03*
X1010471Y1590693D02*
D03*
Y1575193D02*
D03*
Y1479051D02*
D03*
Y1463551D02*
D03*
X1063683Y977051D02*
D03*
Y992551D02*
D03*
X1010183Y1313551D02*
D03*
Y1298051D02*
D03*
X1004183Y1033318D02*
D03*
Y1048818D02*
D03*
X1010183Y1087551D02*
D03*
Y1072051D02*
D03*
X1006000Y1672250D02*
D03*
Y1687750D02*
D03*
X1010183Y1147051D02*
D03*
Y1131551D02*
D03*
X930183Y971926D02*
D03*
Y987426D02*
D03*
X1004183Y1533818D02*
D03*
Y1549318D02*
D03*
X1010183Y1252551D02*
D03*
Y1237051D02*
D03*
Y1421926D02*
D03*
Y1406426D02*
D03*
X1007000Y1649750D02*
D03*
Y1634250D02*
D03*
X1004183Y1499193D02*
D03*
Y1514693D02*
D03*
Y1199693D02*
D03*
Y1215193D02*
D03*
Y1331551D02*
D03*
Y1347051D02*
D03*
D33*
X1025683Y1236551D02*
D03*
Y1253051D02*
D03*
X988183Y1032818D02*
D03*
Y1049318D02*
D03*
X916183Y926193D02*
D03*
Y909693D02*
D03*
X988183Y1199193D02*
D03*
Y1215693D02*
D03*
Y1533318D02*
D03*
Y1549818D02*
D03*
X1025683Y1088051D02*
D03*
Y1071551D02*
D03*
X1025971Y1479551D02*
D03*
Y1463051D02*
D03*
X988183Y1498693D02*
D03*
Y1515193D02*
D03*
X1025000Y1650250D02*
D03*
Y1633750D02*
D03*
X1025683Y1422426D02*
D03*
Y1405926D02*
D03*
X1082683Y926193D02*
D03*
Y909693D02*
D03*
X988000Y1671750D02*
D03*
Y1688250D02*
D03*
X988183Y1331051D02*
D03*
Y1347551D02*
D03*
X1065183Y926193D02*
D03*
Y909693D02*
D03*
X988183Y1366051D02*
D03*
Y1382551D02*
D03*
X921471Y1723193D02*
D03*
Y1706693D02*
D03*
X1025971Y1591193D02*
D03*
Y1574693D02*
D03*
X1025683Y1147551D02*
D03*
Y1131051D02*
D03*
X932183Y926193D02*
D03*
Y909693D02*
D03*
X1025683Y1314051D02*
D03*
Y1297551D02*
D03*
X988183Y1164193D02*
D03*
Y1180693D02*
D03*
D34*
X992058Y1147926D02*
D03*
Y1128926D02*
D03*
X973308Y1138426D02*
D03*
Y1304926D02*
D03*
X992058Y1295426D02*
D03*
Y1314426D02*
D03*
X966693Y1641443D02*
D03*
X985443Y1631943D02*
D03*
Y1650943D02*
D03*
X1045375Y1678000D02*
D03*
X1026625Y1687500D02*
D03*
Y1668500D02*
D03*
X973308Y1243926D02*
D03*
X992058Y1234426D02*
D03*
Y1253426D02*
D03*
X1041846Y1340318D02*
D03*
X1023096Y1349818D02*
D03*
Y1330818D02*
D03*
X972596Y1582068D02*
D03*
X991346Y1572568D02*
D03*
Y1591568D02*
D03*
X972596Y1470426D02*
D03*
X991346Y1460926D02*
D03*
Y1479926D02*
D03*
X973308Y1078926D02*
D03*
X992058Y1069426D02*
D03*
Y1088426D02*
D03*
X1041846Y1208318D02*
D03*
X1023096Y1217818D02*
D03*
Y1198818D02*
D03*
X1041846Y1507818D02*
D03*
X1023096Y1517318D02*
D03*
Y1498318D02*
D03*
X1041846Y1542443D02*
D03*
X1023096Y1551943D02*
D03*
Y1532943D02*
D03*
X972308Y1413301D02*
D03*
X991058Y1403801D02*
D03*
Y1422801D02*
D03*
X1041846Y1041943D02*
D03*
X1023096Y1051443D02*
D03*
Y1032443D02*
D03*
X1041846Y1375318D02*
D03*
X1023096Y1384818D02*
D03*
Y1365818D02*
D03*
X1041846Y1173318D02*
D03*
X1023096Y1182818D02*
D03*
Y1163818D02*
D03*
D35*
X887596Y1699851D02*
D03*
X897096Y1718601D02*
D03*
X878096D02*
D03*
D36*
X923558Y971926D02*
X930183D01*
X919183Y976301D02*
X923558Y971926D01*
X919183Y976301D02*
Y982301D01*
M02*
