G04*
G04 #@! TF.GenerationSoftware,Altium Limited,Altium Designer,26.5.1 (12)*
G04*
G04 Layer_Color=2752767*
G04 Board_Origin=86215166|373809532*
%FSLAX44Y44*%
%MOMM*%
G71*
G04*
G04 #@! TF.SameCoordinates,C941381F-4326-489C-B6A4-9E12FBC03EC8*
G04*
G04*
G04 #@! TF.FilePolarity,Positive*
G04*
G01*
G75*
%ADD92C,0.1693*%
%ADD93C,0.1016*%
%ADD94C,0.1270*%
D92*
X34938Y-336037D02*
G03*
X34938Y-336037I-5080J0D01*
G01*
X827263Y-147669D02*
G03*
X827263Y-147669I-5080J0D01*
G01*
Y-212670D02*
G03*
X827263Y-212670I-5080J0D01*
G01*
X872263Y-147669D02*
G03*
X872263Y-147669I-5080J0D01*
G01*
Y-212670D02*
G03*
X872263Y-212670I-5080J0D01*
G01*
X905437Y-336037D02*
G03*
X905437Y-336037I-5080J0D01*
G01*
Y-310637D02*
G03*
X905437Y-310637I-5080J0D01*
G01*
Y-285237D02*
G03*
X905437Y-285237I-5080J0D01*
G01*
Y-259837D02*
G03*
X905437Y-259837I-5080J0D01*
G01*
X34938D02*
G03*
X34938Y-259837I-5080J0D01*
G01*
Y-285237D02*
G03*
X34938Y-285237I-5080J0D01*
G01*
Y-310637D02*
G03*
X34938Y-310637I-5080J0D01*
G01*
X872263Y-330170D02*
G03*
X872263Y-330170I-5080J0D01*
G01*
Y-265170D02*
G03*
X872263Y-265170I-5080J0D01*
G01*
X827263Y-330170D02*
G03*
X827263Y-330170I-5080J0D01*
G01*
Y-265170D02*
G03*
X827263Y-265170I-5080J0D01*
G01*
X872764Y-447670D02*
G03*
X872764Y-447670I-5080J0D01*
G01*
Y-382669D02*
G03*
X872764Y-382669I-5080J0D01*
G01*
X827763Y-447670D02*
G03*
X827763Y-447670I-5080J0D01*
G01*
Y-382669D02*
G03*
X827763Y-382669I-5080J0D01*
G01*
X337765Y-544570D02*
G03*
X337765Y-544570I-5080J0D01*
G01*
X363165D02*
G03*
X363165Y-544570I-5080J0D01*
G01*
X388565D02*
G03*
X388565Y-544570I-5080J0D01*
G01*
X413965D02*
G03*
X413965Y-544570I-5080J0D01*
G01*
X439365D02*
G03*
X439365Y-544570I-5080J0D01*
G01*
D93*
X825231Y-147669D02*
G03*
X825231Y-147669I-3048J0D01*
G01*
Y-212670D02*
G03*
X825231Y-212670I-3048J0D01*
G01*
X870231Y-147669D02*
G03*
X870231Y-147669I-3048J0D01*
G01*
Y-212670D02*
G03*
X870231Y-212670I-3048J0D01*
G01*
Y-330170D02*
G03*
X870231Y-330170I-3048J0D01*
G01*
Y-265170D02*
G03*
X870231Y-265170I-3048J0D01*
G01*
X825231Y-330170D02*
G03*
X825231Y-330170I-3048J0D01*
G01*
Y-265170D02*
G03*
X825231Y-265170I-3048J0D01*
G01*
X870732Y-447670D02*
G03*
X870732Y-447670I-3048J0D01*
G01*
Y-382669D02*
G03*
X870732Y-382669I-3048J0D01*
G01*
X825731Y-447670D02*
G03*
X825731Y-447670I-3048J0D01*
G01*
Y-382669D02*
G03*
X825731Y-382669I-3048J0D01*
G01*
D94*
X368855Y-402950D02*
X371395Y-397870D01*
X368855Y-392790D01*
X373935Y-395330D01*
X379015Y-392790D01*
X376475Y-397870D01*
X379015Y-402950D01*
X373935Y-400410D01*
X368855Y-402950D01*
X379015Y-453750D02*
X381555Y-448670D01*
X379015Y-443590D01*
X384095Y-446130D01*
X389175Y-443590D01*
X386635Y-448670D01*
X389175Y-453750D01*
X384095Y-451210D01*
X379015Y-453750D01*
X358695D02*
X361235Y-448670D01*
X358695Y-443590D01*
X363775Y-446130D01*
X368855Y-443590D01*
X366315Y-448670D01*
X368855Y-453750D01*
X363775Y-451210D01*
X358695Y-453750D01*
X611500Y-583780D02*
X614040Y-581240D01*
X616580D01*
X614040Y-578700D01*
X616580Y-576160D01*
X614040D01*
X611500Y-573620D01*
X608960Y-576160D01*
X606420D01*
X608960Y-578700D01*
X606420Y-581240D01*
X608960D01*
X611500Y-583780D01*
Y-558380D02*
X614040Y-555840D01*
X616580D01*
X614040Y-553300D01*
X616580Y-550760D01*
X614040D01*
X611500Y-548220D01*
X608960Y-550760D01*
X606420D01*
X608960Y-553300D01*
X606420Y-555840D01*
X608960D01*
X611500Y-558380D01*
X783700Y-582080D02*
X778620Y-571920D01*
X788780D01*
X783700Y-582080D01*
X834500D02*
X829420Y-571920D01*
X839580D01*
X834500Y-582080D01*
X102920Y-553080D02*
Y-542920D01*
X113080D01*
Y-553080D01*
X102920D01*
X802920Y-503080D02*
Y-492920D01*
X813080D01*
Y-503080D01*
X802920D01*
X102920Y-53080D02*
Y-42920D01*
X113080D01*
Y-53080D01*
X102920D01*
X802920D02*
Y-42920D01*
X813080D01*
Y-53080D01*
X802920D01*
X895055Y-19841D02*
Y-9681D01*
X905215D01*
Y-19841D01*
X895055D01*
X897087Y-17809D02*
Y-11713D01*
X903183D01*
Y-17809D01*
X897087D01*
X865055Y-79841D02*
Y-69681D01*
X875215D01*
Y-79841D01*
X865055D01*
X867087Y-77809D02*
Y-71713D01*
X873183D01*
Y-77809D01*
X867087D01*
X895055Y-139841D02*
Y-129681D01*
X905215D01*
Y-139841D01*
X895055D01*
X897087Y-137809D02*
Y-131713D01*
X903183D01*
Y-137809D01*
X897087D01*
X895055Y-379841D02*
Y-369681D01*
X905215D01*
Y-379841D01*
X895055D01*
X897087Y-377809D02*
Y-371713D01*
X903183D01*
Y-377809D01*
X897087D01*
X895055Y-499841D02*
Y-489681D01*
X905215D01*
Y-499841D01*
X895055D01*
X897087Y-497809D02*
Y-491713D01*
X903183D01*
Y-497809D01*
X897087D01*
X865055Y-559841D02*
Y-549681D01*
X875215D01*
Y-559841D01*
X865055D01*
X867087Y-557809D02*
Y-551713D01*
X873183D01*
Y-557809D01*
X867087D01*
X835055Y-19841D02*
Y-9681D01*
X845215D01*
Y-19841D01*
X835055D01*
X837087Y-17809D02*
Y-11713D01*
X843183D01*
Y-17809D01*
X837087D01*
X805055Y-79841D02*
Y-69681D01*
X815215D01*
Y-79841D01*
X805055D01*
X807087Y-77809D02*
Y-71713D01*
X813183D01*
Y-77809D01*
X807087D01*
X835055Y-379841D02*
Y-369681D01*
X845215D01*
Y-379841D01*
X835055D01*
X837087Y-377809D02*
Y-371713D01*
X843183D01*
Y-377809D01*
X837087D01*
X805055Y-439841D02*
Y-429681D01*
X815215D01*
Y-439841D01*
X805055D01*
X807087Y-437809D02*
Y-431713D01*
X813183D01*
Y-437809D01*
X807087D01*
X835055Y-499841D02*
Y-489681D01*
X845215D01*
Y-499841D01*
X835055D01*
X837087Y-497809D02*
Y-491713D01*
X843183D01*
Y-497809D01*
X837087D01*
X775055Y-19841D02*
Y-9681D01*
X785215D01*
Y-19841D01*
X775055D01*
X777087Y-17809D02*
Y-11713D01*
X783183D01*
Y-17809D01*
X777087D01*
X745055Y-319841D02*
Y-309681D01*
X755215D01*
Y-319841D01*
X745055D01*
X747087Y-317809D02*
Y-311713D01*
X753183D01*
Y-317809D01*
X747087D01*
X775055Y-499841D02*
Y-489681D01*
X785215D01*
Y-499841D01*
X775055D01*
X777087Y-497809D02*
Y-491713D01*
X783183D01*
Y-497809D01*
X777087D01*
X715055Y-19841D02*
Y-9681D01*
X725215D01*
Y-19841D01*
X715055D01*
X717087Y-17809D02*
Y-11713D01*
X723183D01*
Y-17809D01*
X717087D01*
X715055Y-259841D02*
Y-249681D01*
X725215D01*
Y-259841D01*
X715055D01*
X717087Y-257809D02*
Y-251713D01*
X723183D01*
Y-257809D01*
X717087D01*
X685055Y-439841D02*
Y-429681D01*
X695215D01*
Y-439841D01*
X685055D01*
X687087Y-437809D02*
Y-431713D01*
X693183D01*
Y-437809D01*
X687087D01*
X655055Y-19841D02*
Y-9681D01*
X665215D01*
Y-19841D01*
X655055D01*
X657087Y-17809D02*
Y-11713D01*
X663183D01*
Y-17809D01*
X657087D01*
X625055Y-199841D02*
Y-189681D01*
X635215D01*
Y-199841D01*
X625055D01*
X627087Y-197809D02*
Y-191713D01*
X633183D01*
Y-197809D01*
X627087D01*
X625055Y-439841D02*
Y-429681D01*
X635215D01*
Y-439841D01*
X625055D01*
X627087Y-437809D02*
Y-431713D01*
X633183D01*
Y-437809D01*
X627087D01*
X625055Y-559841D02*
Y-549681D01*
X635215D01*
Y-559841D01*
X625055D01*
X627087Y-557809D02*
Y-551713D01*
X633183D01*
Y-557809D01*
X627087D01*
X595055Y-19841D02*
Y-9681D01*
X605215D01*
Y-19841D01*
X595055D01*
X597087Y-17809D02*
Y-11713D01*
X603183D01*
Y-17809D01*
X597087D01*
X565055Y-559841D02*
Y-549681D01*
X575215D01*
Y-559841D01*
X565055D01*
X567087Y-557809D02*
Y-551713D01*
X573183D01*
Y-557809D01*
X567087D01*
X535055Y-19841D02*
Y-9681D01*
X545215D01*
Y-19841D01*
X535055D01*
X537087Y-17809D02*
Y-11713D01*
X543183D01*
Y-17809D01*
X537087D01*
X505055Y-559841D02*
Y-549681D01*
X515215D01*
Y-559841D01*
X505055D01*
X507087Y-557809D02*
Y-551713D01*
X513183D01*
Y-557809D01*
X507087D01*
X475055Y-259841D02*
Y-249681D01*
X485215D01*
Y-259841D01*
X475055D01*
X477087Y-257809D02*
Y-251713D01*
X483183D01*
Y-257809D01*
X477087D01*
X445055Y-559841D02*
Y-549681D01*
X455215D01*
Y-559841D01*
X445055D01*
X447087Y-557809D02*
Y-551713D01*
X453183D01*
Y-557809D01*
X447087D01*
X415055Y-379841D02*
Y-369681D01*
X425215D01*
Y-379841D01*
X415055D01*
X417087Y-377809D02*
Y-371713D01*
X423183D01*
Y-377809D01*
X417087D01*
X355055Y-379841D02*
Y-369681D01*
X365215D01*
Y-379841D01*
X355055D01*
X357087Y-377809D02*
Y-371713D01*
X363183D01*
Y-377809D01*
X357087D01*
X295055Y-259841D02*
Y-249681D01*
X305215D01*
Y-259841D01*
X295055D01*
X297087Y-257809D02*
Y-251713D01*
X303183D01*
Y-257809D01*
X297087D01*
X265055Y-319841D02*
Y-309681D01*
X275215D01*
Y-319841D01*
X265055D01*
X267087Y-317809D02*
Y-311713D01*
X273183D01*
Y-317809D01*
X267087D01*
X265055Y-439841D02*
Y-429681D01*
X275215D01*
Y-439841D01*
X265055D01*
X267087Y-437809D02*
Y-431713D01*
X273183D01*
Y-437809D01*
X267087D01*
X265055Y-559841D02*
Y-549681D01*
X275215D01*
Y-559841D01*
X265055D01*
X267087Y-557809D02*
Y-551713D01*
X273183D01*
Y-557809D01*
X267087D01*
X205055Y-559841D02*
Y-549681D01*
X215215D01*
Y-559841D01*
X205055D01*
X207087Y-557809D02*
Y-551713D01*
X213183D01*
Y-557809D01*
X207087D01*
X175055Y-19841D02*
Y-9681D01*
X185215D01*
Y-19841D01*
X175055D01*
X177087Y-17809D02*
Y-11713D01*
X183183D01*
Y-17809D01*
X177087D01*
X175055Y-259841D02*
Y-249681D01*
X185215D01*
Y-259841D01*
X175055D01*
X177087Y-257809D02*
Y-251713D01*
X183183D01*
Y-257809D01*
X177087D01*
X175055Y-379841D02*
Y-369681D01*
X185215D01*
Y-379841D01*
X175055D01*
X177087Y-377809D02*
Y-371713D01*
X183183D01*
Y-377809D01*
X177087D01*
X145055Y-439841D02*
Y-429681D01*
X155215D01*
Y-439841D01*
X145055D01*
X147087Y-437809D02*
Y-431713D01*
X153183D01*
Y-437809D01*
X147087D01*
X175055Y-499841D02*
Y-489681D01*
X185215D01*
Y-499841D01*
X175055D01*
X177087Y-497809D02*
Y-491713D01*
X183183D01*
Y-497809D01*
X177087D01*
X145055Y-559841D02*
Y-549681D01*
X155215D01*
Y-559841D01*
X145055D01*
X147087Y-557809D02*
Y-551713D01*
X153183D01*
Y-557809D01*
X147087D01*
X115055Y-19841D02*
Y-9681D01*
X125215D01*
Y-19841D01*
X115055D01*
X117087Y-17809D02*
Y-11713D01*
X123183D01*
Y-17809D01*
X117087D01*
X85055Y-79841D02*
Y-69681D01*
X95215D01*
Y-79841D01*
X85055D01*
X87087Y-77809D02*
Y-71713D01*
X93183D01*
Y-77809D01*
X87087D01*
X85055Y-199841D02*
Y-189681D01*
X95215D01*
Y-199841D01*
X85055D01*
X87087Y-197809D02*
Y-191713D01*
X93183D01*
Y-197809D01*
X87087D01*
X115055Y-259841D02*
Y-249681D01*
X125215D01*
Y-259841D01*
X115055D01*
X117087Y-257809D02*
Y-251713D01*
X123183D01*
Y-257809D01*
X117087D01*
X115055Y-379841D02*
Y-369681D01*
X125215D01*
Y-379841D01*
X115055D01*
X117087Y-377809D02*
Y-371713D01*
X123183D01*
Y-377809D01*
X117087D01*
X85055Y-439841D02*
Y-429681D01*
X95215D01*
Y-439841D01*
X85055D01*
X87087Y-437809D02*
Y-431713D01*
X93183D01*
Y-437809D01*
X87087D01*
X115055Y-499841D02*
Y-489681D01*
X125215D01*
Y-499841D01*
X115055D01*
X117087Y-497809D02*
Y-491713D01*
X123183D01*
Y-497809D01*
X117087D01*
X55055Y-19841D02*
Y-9681D01*
X65215D01*
Y-19841D01*
X55055D01*
X57087Y-17809D02*
Y-11713D01*
X63183D01*
Y-17809D01*
X57087D01*
X25055Y-79841D02*
Y-69681D01*
X35215D01*
Y-79841D01*
X25055D01*
X27087Y-77809D02*
Y-71713D01*
X33183D01*
Y-77809D01*
X27087D01*
X25055Y-439841D02*
Y-429681D01*
X35215D01*
Y-439841D01*
X25055D01*
X27087Y-437809D02*
Y-431713D01*
X33183D01*
Y-437809D01*
X27087D01*
X55055Y-499841D02*
Y-489681D01*
X65215D01*
Y-499841D01*
X55055D01*
X57087Y-497809D02*
Y-491713D01*
X63183D01*
Y-497809D01*
X57087D01*
X25055Y-559841D02*
Y-549681D01*
X35215D01*
Y-559841D01*
X25055D01*
X27087Y-557809D02*
Y-551713D01*
X33183D01*
Y-557809D01*
X27087D01*
X231920Y-235100D02*
X234460D01*
X237000Y-232560D01*
X239540Y-235100D01*
X242080D01*
Y-232560D01*
X239540Y-230020D01*
X242080Y-227480D01*
Y-224940D01*
X239540D01*
X237000Y-227480D01*
X234460Y-224940D01*
X231920D01*
Y-227480D01*
X234460Y-230020D01*
X231920Y-232560D01*
Y-235100D01*
X221670Y-347080D02*
X224210D01*
X226750Y-344540D01*
X229290Y-347080D01*
X231830D01*
Y-344540D01*
X229290Y-342000D01*
X231830Y-339460D01*
Y-336920D01*
X229290D01*
X226750Y-339460D01*
X224210Y-336920D01*
X221670D01*
Y-339460D01*
X224210Y-342000D01*
X221670Y-344540D01*
Y-347080D01*
X215920Y-257080D02*
X218460D01*
X221000Y-254540D01*
X223540Y-257080D01*
X226080D01*
Y-254540D01*
X223540Y-252000D01*
X226080Y-249460D01*
Y-246920D01*
X223540D01*
X221000Y-249460D01*
X218460Y-246920D01*
X215920D01*
Y-249460D01*
X218460Y-252000D01*
X215920Y-254540D01*
Y-257080D01*
X286555Y-204945D02*
X289095D01*
X291635Y-202405D01*
X294175Y-204945D01*
X296715D01*
Y-202405D01*
X294175Y-199865D01*
X296715Y-197325D01*
Y-194785D01*
X294175D01*
X291635Y-197325D01*
X289095Y-194785D01*
X286555D01*
Y-197325D01*
X289095Y-199865D01*
X286555Y-202405D01*
Y-204945D01*
X307920Y-207080D02*
X310460D01*
X313000Y-204540D01*
X315540Y-207080D01*
X318080D01*
Y-204540D01*
X315540Y-202000D01*
X318080Y-199460D01*
Y-196920D01*
X315540D01*
X313000Y-199460D01*
X310460Y-196920D01*
X307920D01*
Y-199460D01*
X310460Y-202000D01*
X307920Y-204540D01*
Y-207080D01*
X530920Y-182830D02*
X533460D01*
X536000Y-180290D01*
X538540Y-182830D01*
X541080D01*
Y-180290D01*
X538540Y-177750D01*
X541080Y-175210D01*
Y-172670D01*
X538540D01*
X536000Y-175210D01*
X533460Y-172670D01*
X530920D01*
Y-175210D01*
X533460Y-177750D01*
X530920Y-180290D01*
Y-182830D01*
X596920Y-198830D02*
X599460D01*
X602000Y-196290D01*
X604540Y-198830D01*
X607080D01*
Y-196290D01*
X604540Y-193750D01*
X607080Y-191210D01*
Y-188670D01*
X604540D01*
X602000Y-191210D01*
X599460Y-188670D01*
X596920D01*
Y-191210D01*
X599460Y-193750D01*
X596920Y-196290D01*
Y-198830D01*
X487770Y-175205D02*
X490310D01*
X492850Y-172665D01*
X495390Y-175205D01*
X497930D01*
Y-172665D01*
X495390Y-170125D01*
X497930Y-167585D01*
Y-165045D01*
X495390D01*
X492850Y-167585D01*
X490310Y-165045D01*
X487770D01*
Y-167585D01*
X490310Y-170125D01*
X487770Y-172665D01*
Y-175205D01*
X329920Y-177080D02*
X332460D01*
X335000Y-174540D01*
X337540Y-177080D01*
X340080D01*
Y-174540D01*
X337540Y-172000D01*
X340080Y-169460D01*
Y-166920D01*
X337540D01*
X335000Y-169460D01*
X332460Y-166920D01*
X329920D01*
Y-169460D01*
X332460Y-172000D01*
X329920Y-174540D01*
Y-177080D01*
X293920Y-186080D02*
X296460D01*
X299000Y-183540D01*
X301540Y-186080D01*
X304080D01*
Y-183540D01*
X301540Y-181000D01*
X304080Y-178460D01*
Y-175920D01*
X301540D01*
X299000Y-178460D01*
X296460Y-175920D01*
X293920D01*
Y-178460D01*
X296460Y-181000D01*
X293920Y-183540D01*
Y-186080D01*
X57920Y-116080D02*
X60460D01*
X63000Y-113540D01*
X65540Y-116080D01*
X68080D01*
Y-113540D01*
X65540Y-111000D01*
X68080Y-108460D01*
Y-105920D01*
X65540D01*
X63000Y-108460D01*
X60460Y-105920D01*
X57920D01*
Y-108460D01*
X60460Y-111000D01*
X57920Y-113540D01*
Y-116080D01*
X45920Y-108080D02*
X48460D01*
X51000Y-105540D01*
X53540Y-108080D01*
X56080D01*
Y-105540D01*
X53540Y-103000D01*
X56080Y-100460D01*
Y-97920D01*
X53540D01*
X51000Y-100460D01*
X48460Y-97920D01*
X45920D01*
Y-100460D01*
X48460Y-103000D01*
X45920Y-105540D01*
Y-108080D01*
X-80Y-102080D02*
X2460D01*
X5000Y-99540D01*
X7540Y-102080D01*
X10080D01*
Y-99540D01*
X7540Y-97000D01*
X10080Y-94460D01*
Y-91920D01*
X7540D01*
X5000Y-94460D01*
X2460Y-91920D01*
X-80D01*
Y-94460D01*
X2460Y-97000D01*
X-80Y-99540D01*
Y-102080D01*
X210920Y-63080D02*
X213460D01*
X216000Y-60540D01*
X218540Y-63080D01*
X221080D01*
Y-60540D01*
X218540Y-58000D01*
X221080Y-55460D01*
Y-52920D01*
X218540D01*
X216000Y-55460D01*
X213460Y-52920D01*
X210920D01*
Y-55460D01*
X213460Y-58000D01*
X210920Y-60540D01*
Y-63080D01*
X303920Y-73080D02*
X306460D01*
X309000Y-70540D01*
X311540Y-73080D01*
X314080D01*
Y-70540D01*
X311540Y-68000D01*
X314080Y-65460D01*
Y-62920D01*
X311540D01*
X309000Y-65460D01*
X306460Y-62920D01*
X303920D01*
Y-65460D01*
X306460Y-68000D01*
X303920Y-70540D01*
Y-73080D01*
X391920Y-81080D02*
X394460D01*
X397000Y-78540D01*
X399540Y-81080D01*
X402080D01*
Y-78540D01*
X399540Y-76000D01*
X402080Y-73460D01*
Y-70920D01*
X399540D01*
X397000Y-73460D01*
X394460Y-70920D01*
X391920D01*
Y-73460D01*
X394460Y-76000D01*
X391920Y-78540D01*
Y-81080D01*
X751920Y-72080D02*
X754460D01*
X757000Y-69540D01*
X759540Y-72080D01*
X762080D01*
Y-69540D01*
X759540Y-67000D01*
X762080Y-64460D01*
Y-61920D01*
X759540D01*
X757000Y-64460D01*
X754460Y-61920D01*
X751920D01*
Y-64460D01*
X754460Y-67000D01*
X751920Y-69540D01*
Y-72080D01*
X660920Y-81080D02*
X663460D01*
X666000Y-78540D01*
X668540Y-81080D01*
X671080D01*
Y-78540D01*
X668540Y-76000D01*
X671080Y-73460D01*
Y-70920D01*
X668540D01*
X666000Y-73460D01*
X663460Y-70920D01*
X660920D01*
Y-73460D01*
X663460Y-76000D01*
X660920Y-78540D01*
Y-81080D01*
X570920Y-85080D02*
X573460D01*
X576000Y-82540D01*
X578540Y-85080D01*
X581080D01*
Y-82540D01*
X578540Y-80000D01*
X581080Y-77460D01*
Y-74920D01*
X578540D01*
X576000Y-77460D01*
X573460Y-74920D01*
X570920D01*
Y-77460D01*
X573460Y-80000D01*
X570920Y-82540D01*
Y-85080D01*
X660920Y-148080D02*
X663460D01*
X666000Y-145540D01*
X668540Y-148080D01*
X671080D01*
Y-145540D01*
X668540Y-143000D01*
X671080Y-140460D01*
Y-137920D01*
X668540D01*
X666000Y-140460D01*
X663460Y-137920D01*
X660920D01*
Y-140460D01*
X663460Y-143000D01*
X660920Y-145540D01*
Y-148080D01*
X121920Y-145080D02*
X124460D01*
X127000Y-142540D01*
X129540Y-145080D01*
X132080D01*
Y-142540D01*
X129540Y-140000D01*
X132080Y-137460D01*
Y-134920D01*
X129540D01*
X127000Y-137460D01*
X124460Y-134920D01*
X121920D01*
Y-137460D01*
X124460Y-140000D01*
X121920Y-142540D01*
Y-145080D01*
X303920Y-148080D02*
X306460D01*
X309000Y-145540D01*
X311540Y-148080D01*
X314080D01*
Y-145540D01*
X311540Y-143000D01*
X314080Y-140460D01*
Y-137920D01*
X311540D01*
X309000Y-140460D01*
X306460Y-137920D01*
X303920D01*
Y-140460D01*
X306460Y-143000D01*
X303920Y-145540D01*
Y-148080D01*
X391920D02*
X394460D01*
X397000Y-145540D01*
X399540Y-148080D01*
X402080D01*
Y-145540D01*
X399540Y-143000D01*
X402080Y-140460D01*
Y-137920D01*
X399540D01*
X397000Y-140460D01*
X394460Y-137920D01*
X391920D01*
Y-140460D01*
X394460Y-143000D01*
X391920Y-145540D01*
Y-148080D01*
X483920D02*
X486460D01*
X489000Y-145540D01*
X491540Y-148080D01*
X494080D01*
Y-145540D01*
X491540Y-143000D01*
X494080Y-140460D01*
Y-137920D01*
X491540D01*
X489000Y-140460D01*
X486460Y-137920D01*
X483920D01*
Y-140460D01*
X486460Y-143000D01*
X483920Y-145540D01*
Y-148080D01*
X571920D02*
X574460D01*
X577000Y-145540D01*
X579540Y-148080D01*
X582080D01*
Y-145540D01*
X579540Y-143000D01*
X582080Y-140460D01*
Y-137920D01*
X579540D01*
X577000Y-140460D01*
X574460Y-137920D01*
X571920D01*
Y-140460D01*
X574460Y-143000D01*
X571920Y-145540D01*
Y-148080D01*
X752920D02*
X755460D01*
X758000Y-145540D01*
X760540Y-148080D01*
X763080D01*
Y-145540D01*
X760540Y-143000D01*
X763080Y-140460D01*
Y-137920D01*
X760540D01*
X758000Y-140460D01*
X755460Y-137920D01*
X752920D01*
Y-140460D01*
X755460Y-143000D01*
X752920Y-145540D01*
Y-148080D01*
X484670Y-88830D02*
X487210D01*
X489750Y-86290D01*
X492290Y-88830D01*
X494830D01*
Y-86290D01*
X492290Y-83750D01*
X494830Y-81210D01*
Y-78670D01*
X492290D01*
X489750Y-81210D01*
X487210Y-78670D01*
X484670D01*
Y-81210D01*
X487210Y-83750D01*
X484670Y-86290D01*
Y-88830D01*
X121920Y-92080D02*
X124460D01*
X127000Y-89540D01*
X129540Y-92080D01*
X132080D01*
Y-89540D01*
X129540Y-87000D01*
X132080Y-84460D01*
Y-81920D01*
X129540D01*
X127000Y-84460D01*
X124460Y-81920D01*
X121920D01*
Y-84460D01*
X124460Y-87000D01*
X121920Y-89540D01*
Y-92080D01*
X233920Y-115080D02*
X236460D01*
X239000Y-112540D01*
X241540Y-115080D01*
X244080D01*
Y-112540D01*
X241540Y-110000D01*
X244080Y-107460D01*
Y-104920D01*
X241540D01*
X239000Y-107460D01*
X236460Y-104920D01*
X233920D01*
Y-107460D01*
X236460Y-110000D01*
X233920Y-112540D01*
Y-115080D01*
X316920Y-107080D02*
X319460D01*
X322000Y-104540D01*
X324540Y-107080D01*
X327080D01*
Y-104540D01*
X324540Y-102000D01*
X327080Y-99460D01*
Y-96920D01*
X324540D01*
X322000Y-99460D01*
X319460Y-96920D01*
X316920D01*
Y-99460D01*
X319460Y-102000D01*
X316920Y-104540D01*
Y-107080D01*
X209920Y-147080D02*
X212460D01*
X215000Y-144540D01*
X217540Y-147080D01*
X220080D01*
Y-144540D01*
X217540Y-142000D01*
X220080Y-139460D01*
Y-136920D01*
X217540D01*
X215000Y-139460D01*
X212460Y-136920D01*
X209920D01*
Y-139460D01*
X212460Y-142000D01*
X209920Y-144540D01*
Y-147080D01*
X130795Y-175205D02*
X133335D01*
X135875Y-172665D01*
X138415Y-175205D01*
X140955D01*
Y-172665D01*
X138415Y-170125D01*
X140955Y-167585D01*
Y-165045D01*
X138415D01*
X135875Y-167585D01*
X133335Y-165045D01*
X130795D01*
Y-167585D01*
X133335Y-170125D01*
X130795Y-172665D01*
Y-175205D01*
X126920Y-228080D02*
X129460D01*
X132000Y-225540D01*
X134540Y-228080D01*
X137080D01*
Y-225540D01*
X134540Y-223000D01*
X137080Y-220460D01*
Y-217920D01*
X134540D01*
X132000Y-220460D01*
X129460Y-217920D01*
X126920D01*
Y-220460D01*
X129460Y-223000D01*
X126920Y-225540D01*
Y-228080D01*
X806879Y-193121D02*
Y-195661D01*
X811959D01*
Y-193121D01*
X814499D01*
Y-188041D01*
X811959D01*
Y-185501D01*
X806879D01*
Y-188041D01*
X804339D01*
Y-193121D01*
X806879D01*
X778460Y-293540D02*
Y-296080D01*
X783540D01*
Y-293540D01*
X786080D01*
Y-288460D01*
X783540D01*
Y-285920D01*
X778460D01*
Y-288460D01*
X775920D01*
Y-293540D01*
X778460D01*
X607920Y-116330D02*
X610460D01*
X613000Y-113790D01*
X615540Y-116330D01*
X618080D01*
Y-113790D01*
X615540Y-111250D01*
X618080Y-108710D01*
Y-106170D01*
X615540D01*
X613000Y-108710D01*
X610460Y-106170D01*
X607920D01*
Y-108710D01*
X610460Y-111250D01*
X607920Y-113790D01*
Y-116330D01*
X739045Y-199080D02*
X741585D01*
X744125Y-196540D01*
X746665Y-199080D01*
X749205D01*
Y-196540D01*
X746665Y-194000D01*
X749205Y-191460D01*
Y-188920D01*
X746665D01*
X744125Y-191460D01*
X741585Y-188920D01*
X739045D01*
Y-191460D01*
X741585Y-194000D01*
X739045Y-196540D01*
Y-199080D01*
X684795Y-203580D02*
X687335D01*
X689875Y-201040D01*
X692415Y-203580D01*
X694955D01*
Y-201040D01*
X692415Y-198500D01*
X694955Y-195960D01*
Y-193420D01*
X692415D01*
X689875Y-195960D01*
X687335Y-193420D01*
X684795D01*
Y-195960D01*
X687335Y-198500D01*
X684795Y-201040D01*
Y-203580D01*
X276500Y-146975D02*
Y-149515D01*
X281579D01*
Y-146975D01*
X284119D01*
Y-141895D01*
X281579D01*
Y-139355D01*
X276500D01*
Y-141895D01*
X273960D01*
Y-146975D01*
X276500D01*
X198920Y-471080D02*
X201460D01*
X204000Y-468540D01*
X206540Y-471080D01*
X209080D01*
Y-468540D01*
X206540Y-466000D01*
X209080Y-463460D01*
Y-460920D01*
X206540D01*
X204000Y-463460D01*
X201460Y-460920D01*
X198920D01*
Y-463460D01*
X201460Y-466000D01*
X198920Y-468540D01*
Y-471080D01*
X199920Y-396080D02*
X202460D01*
X205000Y-393540D01*
X207540Y-396080D01*
X210080D01*
Y-393540D01*
X207540Y-391000D01*
X210080Y-388460D01*
Y-385920D01*
X207540D01*
X205000Y-388460D01*
X202460Y-385920D01*
X199920D01*
Y-388460D01*
X202460Y-391000D01*
X199920Y-393540D01*
Y-396080D01*
X356774Y-362080D02*
X359314D01*
X361854Y-359540D01*
X364394Y-362080D01*
X366934D01*
Y-359540D01*
X364394Y-357000D01*
X366934Y-354460D01*
Y-351920D01*
X364394D01*
X361854Y-354460D01*
X359314Y-351920D01*
X356774D01*
Y-354460D01*
X359314Y-357000D01*
X356774Y-359540D01*
Y-362080D01*
X327920Y-563955D02*
X330460D01*
X333000Y-561415D01*
X335540Y-563955D01*
X338080D01*
Y-561415D01*
X335540Y-558875D01*
X338080Y-556335D01*
Y-553795D01*
X335540D01*
X333000Y-556335D01*
X330460Y-553795D01*
X327920D01*
Y-556335D01*
X330460Y-558875D01*
X327920Y-561415D01*
Y-563955D01*
X326920Y-534205D02*
X329460D01*
X332000Y-531665D01*
X334540Y-534205D01*
X337080D01*
Y-531665D01*
X334540Y-529125D01*
X337080Y-526585D01*
Y-524045D01*
X334540D01*
X332000Y-526585D01*
X329460Y-524045D01*
X326920D01*
Y-526585D01*
X329460Y-529125D01*
X326920Y-531665D01*
Y-534205D01*
X352630Y-441050D02*
X355170D01*
X357710Y-438510D01*
X360250Y-441050D01*
X362790D01*
Y-438510D01*
X360250Y-435970D01*
X362790Y-433430D01*
Y-430890D01*
X360250D01*
X357710Y-433430D01*
X355170Y-430890D01*
X352630D01*
Y-433430D01*
X355170Y-435970D01*
X352630Y-438510D01*
Y-441050D01*
X889920Y-404080D02*
X892460D01*
X895000Y-401540D01*
X897540Y-404080D01*
X900080D01*
Y-401540D01*
X897540Y-399000D01*
X900080Y-396460D01*
Y-393920D01*
X897540D01*
X895000Y-396460D01*
X892460Y-393920D01*
X889920D01*
Y-396460D01*
X892460Y-399000D01*
X889920Y-401540D01*
Y-404080D01*
X559795Y-550080D02*
X562335D01*
X564875Y-547540D01*
X567415Y-550080D01*
X569955D01*
Y-547540D01*
X567415Y-545000D01*
X569955Y-542460D01*
Y-539920D01*
X567415D01*
X564875Y-542460D01*
X562335Y-539920D01*
X559795D01*
Y-542460D01*
X562335Y-545000D01*
X559795Y-547540D01*
Y-550080D01*
X294795Y-378080D02*
X297335D01*
X299875Y-375540D01*
X302415Y-378080D01*
X304955D01*
Y-375540D01*
X302415Y-373000D01*
X304955Y-370460D01*
Y-367920D01*
X302415D01*
X299875Y-370460D01*
X297335Y-367920D01*
X294795D01*
Y-370460D01*
X297335Y-373000D01*
X294795Y-375540D01*
Y-378080D01*
X221920Y-397080D02*
X224460D01*
X227000Y-394540D01*
X229540Y-397080D01*
X232080D01*
Y-394540D01*
X229540Y-392000D01*
X232080Y-389460D01*
Y-386920D01*
X229540D01*
X227000Y-389460D01*
X224460Y-386920D01*
X221920D01*
Y-389460D01*
X224460Y-392000D01*
X221920Y-394540D01*
Y-397080D01*
X151120Y-343380D02*
X153660D01*
X156200Y-340840D01*
X158740Y-343380D01*
X161280D01*
Y-340840D01*
X158740Y-338300D01*
X161280Y-335760D01*
Y-333220D01*
X158740D01*
X156200Y-335760D01*
X153660Y-333220D01*
X151120D01*
Y-335760D01*
X153660Y-338300D01*
X151120Y-340840D01*
Y-343380D01*
X130920Y-313080D02*
X133460D01*
X136000Y-310540D01*
X138540Y-313080D01*
X141080D01*
Y-310540D01*
X138540Y-308000D01*
X141080Y-305460D01*
Y-302920D01*
X138540D01*
X136000Y-305460D01*
X133460Y-302920D01*
X130920D01*
Y-305460D01*
X133460Y-308000D01*
X130920Y-310540D01*
Y-313080D01*
X11920Y-286080D02*
X14460D01*
X17000Y-283540D01*
X19540Y-286080D01*
X22080D01*
Y-283540D01*
X19540Y-281000D01*
X22080Y-278460D01*
Y-275920D01*
X19540D01*
X17000Y-278460D01*
X14460Y-275920D01*
X11920D01*
Y-278460D01*
X14460Y-281000D01*
X11920Y-283540D01*
Y-286080D01*
X11835Y-223810D02*
X14375D01*
X16915Y-221270D01*
X19455Y-223810D01*
X21995D01*
Y-221270D01*
X19455Y-218730D01*
X21995Y-216190D01*
Y-213650D01*
X19455D01*
X16915Y-216190D01*
X14375Y-213650D01*
X11835D01*
Y-216190D01*
X14375Y-218730D01*
X11835Y-221270D01*
Y-223810D01*
X128920Y-249080D02*
X131460D01*
X134000Y-246540D01*
X136540Y-249080D01*
X139080D01*
Y-246540D01*
X136540Y-244000D01*
X139080Y-241460D01*
Y-238920D01*
X136540D01*
X134000Y-241460D01*
X131460Y-238920D01*
X128920D01*
Y-241460D01*
X131460Y-244000D01*
X128920Y-246540D01*
Y-249080D01*
X254920Y-234080D02*
X257460D01*
X260000Y-231540D01*
X262540Y-234080D01*
X265080D01*
Y-231540D01*
X262540Y-229000D01*
X265080Y-226460D01*
Y-223920D01*
X262540D01*
X260000Y-226460D01*
X257460Y-223920D01*
X254920D01*
Y-226460D01*
X257460Y-229000D01*
X254920Y-231540D01*
Y-234080D01*
X276210Y-234540D02*
Y-237080D01*
X281290D01*
Y-234540D01*
X283830D01*
Y-229460D01*
X281290D01*
Y-226920D01*
X276210D01*
Y-229460D01*
X273670D01*
Y-234540D01*
X276210D01*
X239650Y-176080D02*
X242190D01*
X244730Y-173540D01*
X247270Y-176080D01*
X249810D01*
Y-173540D01*
X247270Y-171000D01*
X249810Y-168460D01*
Y-165920D01*
X247270D01*
X244730Y-168460D01*
X242190Y-165920D01*
X239650D01*
Y-168460D01*
X242190Y-171000D01*
X239650Y-173540D01*
Y-176080D01*
Y-163620D02*
X242190D01*
X244730Y-161080D01*
X247270Y-163620D01*
X249810D01*
Y-161080D01*
X247270Y-158540D01*
X249810Y-156000D01*
Y-153460D01*
X247270D01*
X244730Y-156000D01*
X242190Y-153460D01*
X239650D01*
Y-156000D01*
X242190Y-158540D01*
X239650Y-161080D01*
Y-163620D01*
X467920Y-282080D02*
X470460D01*
X473000Y-279540D01*
X475540Y-282080D01*
X478080D01*
Y-279540D01*
X475540Y-277000D01*
X478080Y-274460D01*
Y-271920D01*
X475540D01*
X473000Y-274460D01*
X470460Y-271920D01*
X467920D01*
Y-274460D01*
X470460Y-277000D01*
X467920Y-279540D01*
Y-282080D01*
X590920Y-444080D02*
X593460D01*
X596000Y-441540D01*
X598540Y-444080D01*
X601080D01*
Y-441540D01*
X598540Y-439000D01*
X601080Y-436460D01*
Y-433920D01*
X598540D01*
X596000Y-436460D01*
X593460Y-433920D01*
X590920D01*
Y-436460D01*
X593460Y-439000D01*
X590920Y-441540D01*
Y-444080D01*
X571920Y-443080D02*
X574460D01*
X577000Y-440540D01*
X579540Y-443080D01*
X582080D01*
Y-440540D01*
X579540Y-438000D01*
X582080Y-435460D01*
Y-432920D01*
X579540D01*
X577000Y-435460D01*
X574460Y-432920D01*
X571920D01*
Y-435460D01*
X574460Y-438000D01*
X571920Y-440540D01*
Y-443080D01*
X614795Y-375080D02*
X617335D01*
X619875Y-372540D01*
X622415Y-375080D01*
X624955D01*
Y-372540D01*
X622415Y-370000D01*
X624955Y-367460D01*
Y-364920D01*
X622415D01*
X619875Y-367460D01*
X617335Y-364920D01*
X614795D01*
Y-367460D01*
X617335Y-370000D01*
X614795Y-372540D01*
Y-375080D01*
X743045Y-372080D02*
X745585D01*
X748125Y-369540D01*
X750665Y-372080D01*
X753205D01*
Y-369540D01*
X750665Y-367000D01*
X753205Y-364460D01*
Y-361920D01*
X750665D01*
X748125Y-364460D01*
X745585Y-361920D01*
X743045D01*
Y-364460D01*
X745585Y-367000D01*
X743045Y-369540D01*
Y-372080D01*
Y-361080D02*
X745585D01*
X748125Y-358540D01*
X750665Y-361080D01*
X753205D01*
Y-358540D01*
X750665Y-356000D01*
X753205Y-353460D01*
Y-350920D01*
X750665D01*
X748125Y-353460D01*
X745585Y-350920D01*
X743045D01*
Y-353460D01*
X745585Y-356000D01*
X743045Y-358540D01*
Y-361080D01*
X767795Y-375080D02*
X770335D01*
X772875Y-372540D01*
X775415Y-375080D01*
X777955D01*
Y-372540D01*
X775415Y-370000D01*
X777955Y-367460D01*
Y-364920D01*
X775415D01*
X772875Y-367460D01*
X770335Y-364920D01*
X767795D01*
Y-367460D01*
X770335Y-370000D01*
X767795Y-372540D01*
Y-375080D01*
X765795Y-361080D02*
X768335D01*
X770875Y-358540D01*
X773415Y-361080D01*
X775955D01*
Y-358540D01*
X773415Y-356000D01*
X775955Y-353460D01*
Y-350920D01*
X773415D01*
X770875Y-353460D01*
X768335Y-350920D01*
X765795D01*
Y-353460D01*
X768335Y-356000D01*
X765795Y-358540D01*
Y-361080D01*
X751920Y-347205D02*
X754460D01*
X757000Y-344665D01*
X759540Y-347205D01*
X762080D01*
Y-344665D01*
X759540Y-342125D01*
X762080Y-339585D01*
Y-337045D01*
X759540D01*
X757000Y-339585D01*
X754460Y-337045D01*
X751920D01*
Y-339585D01*
X754460Y-342125D01*
X751920Y-344665D01*
Y-347205D01*
X645045Y-218580D02*
X647585D01*
X650125Y-216040D01*
X652665Y-218580D01*
X655205D01*
Y-216040D01*
X652665Y-213500D01*
X655205Y-210960D01*
Y-208420D01*
X652665D01*
X650125Y-210960D01*
X647585Y-208420D01*
X645045D01*
Y-210960D01*
X647585Y-213500D01*
X645045Y-216040D01*
Y-218580D01*
X646045Y-206580D02*
X648585D01*
X651125Y-204040D01*
X653665Y-206580D01*
X656205D01*
Y-204040D01*
X653665Y-201500D01*
X656205Y-198960D01*
Y-196420D01*
X653665D01*
X651125Y-198960D01*
X648585Y-196420D01*
X646045D01*
Y-198960D01*
X648585Y-201500D01*
X646045Y-204040D01*
Y-206580D01*
X684795Y-216580D02*
X687335D01*
X689875Y-214040D01*
X692415Y-216580D01*
X694955D01*
Y-214040D01*
X692415Y-211500D01*
X694955Y-208960D01*
Y-206420D01*
X692415D01*
X689875Y-208960D01*
X687335Y-206420D01*
X684795D01*
Y-208960D01*
X687335Y-211500D01*
X684795Y-214040D01*
Y-216580D01*
X777633Y-218588D02*
X780173D01*
X782713Y-216048D01*
X785253Y-218588D01*
X787793D01*
Y-216048D01*
X785253Y-213508D01*
X787793Y-210968D01*
Y-208428D01*
X785253D01*
X782713Y-210968D01*
X780173Y-208428D01*
X777633D01*
Y-210968D01*
X780173Y-213508D01*
X777633Y-216048D01*
Y-218588D01*
X776795Y-208080D02*
X779335D01*
X781875Y-205540D01*
X784415Y-208080D01*
X786955D01*
Y-205540D01*
X784415Y-203000D01*
X786955Y-200460D01*
Y-197920D01*
X784415D01*
X781875Y-200460D01*
X779335Y-197920D01*
X776795D01*
Y-200460D01*
X779335Y-203000D01*
X776795Y-205540D01*
Y-208080D01*
X739045Y-221080D02*
X741585D01*
X744125Y-218540D01*
X746665Y-221080D01*
X749205D01*
Y-218540D01*
X746665Y-216000D01*
X749205Y-213460D01*
Y-210920D01*
X746665D01*
X744125Y-213460D01*
X741585Y-210920D01*
X739045D01*
Y-213460D01*
X741585Y-216000D01*
X739045Y-218540D01*
Y-221080D01*
X738045Y-211080D02*
X740585D01*
X743125Y-208540D01*
X745665Y-211080D01*
X748205D01*
Y-208540D01*
X745665Y-206000D01*
X748205Y-203460D01*
Y-200920D01*
X745665D01*
X743125Y-203460D01*
X740585Y-200920D01*
X738045D01*
Y-203460D01*
X740585Y-206000D01*
X738045Y-208540D01*
Y-211080D01*
X791920Y-297205D02*
X794460D01*
X797000Y-294665D01*
X799540Y-297205D01*
X802080D01*
Y-294665D01*
X799540Y-292125D01*
X802080Y-289585D01*
Y-287045D01*
X799540D01*
X797000Y-289585D01*
X794460Y-287045D01*
X791920D01*
Y-289585D01*
X794460Y-292125D01*
X791920Y-294665D01*
Y-297205D01*
X882920Y-165205D02*
X885460D01*
X888000Y-162665D01*
X890540Y-165205D01*
X893080D01*
Y-162665D01*
X890540Y-160125D01*
X893080Y-157585D01*
Y-155045D01*
X890540D01*
X888000Y-157585D01*
X885460Y-155045D01*
X882920D01*
Y-157585D01*
X885460Y-160125D01*
X882920Y-162665D01*
Y-165205D01*
X760795Y-176205D02*
X763335D01*
X765875Y-173665D01*
X768415Y-176205D01*
X770955D01*
Y-173665D01*
X768415Y-171125D01*
X770955Y-168585D01*
Y-166045D01*
X768415D01*
X765875Y-168585D01*
X763335Y-166045D01*
X760795D01*
Y-168585D01*
X763335Y-171125D01*
X760795Y-173665D01*
Y-176205D01*
X670795Y-173705D02*
X673335D01*
X675875Y-171165D01*
X678415Y-173705D01*
X680955D01*
Y-171165D01*
X678415Y-168625D01*
X680955Y-166085D01*
Y-163545D01*
X678415D01*
X675875Y-166085D01*
X673335Y-163545D01*
X670795D01*
Y-166085D01*
X673335Y-168625D01*
X670795Y-171165D01*
Y-173705D01*
X580670Y-175205D02*
X583210D01*
X585750Y-172665D01*
X588290Y-175205D01*
X590830D01*
Y-172665D01*
X588290Y-170125D01*
X590830Y-167585D01*
Y-165045D01*
X588290D01*
X585750Y-167585D01*
X583210Y-165045D01*
X580670D01*
Y-167585D01*
X583210Y-170125D01*
X580670Y-172665D01*
Y-175205D01*
X400795Y-173705D02*
X403335D01*
X405875Y-171165D01*
X408415Y-173705D01*
X410955D01*
Y-171165D01*
X408415Y-168625D01*
X410955Y-166085D01*
Y-163545D01*
X408415D01*
X405875Y-166085D01*
X403335Y-163545D01*
X400795D01*
Y-166085D01*
X403335Y-168625D01*
X400795Y-171165D01*
Y-173705D01*
X220670Y-175205D02*
X223210D01*
X225750Y-172665D01*
X228290Y-175205D01*
X230830D01*
Y-172665D01*
X228290Y-170125D01*
X230830Y-167585D01*
Y-165045D01*
X228290D01*
X225750Y-167585D01*
X223210Y-165045D01*
X220670D01*
Y-167585D01*
X223210Y-170125D01*
X220670Y-172665D01*
Y-175205D01*
X567920Y-288080D02*
X570460D01*
X573000Y-285540D01*
X575540Y-288080D01*
X578080D01*
Y-285540D01*
X575540Y-283000D01*
X578080Y-280460D01*
Y-277920D01*
X575540D01*
X573000Y-280460D01*
X570460Y-277920D01*
X567920D01*
Y-280460D01*
X570460Y-283000D01*
X567920Y-285540D01*
Y-288080D01*
X432920Y-18080D02*
X435460D01*
X438000Y-15540D01*
X440540Y-18080D01*
X443080D01*
Y-15540D01*
X440540Y-13000D01*
X443080Y-10460D01*
Y-7920D01*
X440540D01*
X438000Y-10460D01*
X435460Y-7920D01*
X432920D01*
Y-10460D01*
X435460Y-13000D01*
X432920Y-15540D01*
Y-18080D01*
X431920Y-80D02*
X434460D01*
X437000Y2460D01*
X439540Y-80D01*
X442080D01*
Y2460D01*
X439540Y5000D01*
X442080Y7540D01*
Y10080D01*
X439540D01*
X437000Y7540D01*
X434460Y10080D01*
X431920D01*
Y7540D01*
X434460Y5000D01*
X431920Y2460D01*
Y-80D01*
X615920Y-288080D02*
X618460D01*
X621000Y-285540D01*
X623540Y-288080D01*
X626080D01*
Y-285540D01*
X623540Y-283000D01*
X626080Y-280460D01*
Y-277920D01*
X623540D01*
X621000Y-280460D01*
X618460Y-277920D01*
X615920D01*
Y-280460D01*
X618460Y-283000D01*
X615920Y-285540D01*
Y-288080D01*
X608920Y-278080D02*
X611460D01*
X614000Y-275540D01*
X616540Y-278080D01*
X619080D01*
Y-275540D01*
X616540Y-273000D01*
X619080Y-270460D01*
Y-267920D01*
X616540D01*
X614000Y-270460D01*
X611460Y-267920D01*
X608920D01*
Y-270460D01*
X611460Y-273000D01*
X608920Y-275540D01*
Y-278080D01*
X628920Y-293080D02*
X631460D01*
X634000Y-290540D01*
X636540Y-293080D01*
X639080D01*
Y-290540D01*
X636540Y-288000D01*
X639080Y-285460D01*
Y-282920D01*
X636540D01*
X634000Y-285460D01*
X631460Y-282920D01*
X628920D01*
Y-285460D01*
X631460Y-288000D01*
X628920Y-290540D01*
Y-293080D01*
X597920Y-481080D02*
X600460D01*
X603000Y-478540D01*
X605540Y-481080D01*
X608080D01*
Y-478540D01*
X605540Y-476000D01*
X608080Y-473460D01*
Y-470920D01*
X605540D01*
X603000Y-473460D01*
X600460Y-470920D01*
X597920D01*
Y-473460D01*
X600460Y-476000D01*
X597920Y-478540D01*
Y-481080D01*
X596920Y-418080D02*
X599460D01*
X602000Y-415540D01*
X604540Y-418080D01*
X607080D01*
Y-415540D01*
X604540Y-413000D01*
X607080Y-410460D01*
Y-407920D01*
X604540D01*
X602000Y-410460D01*
X599460Y-407920D01*
X596920D01*
Y-410460D01*
X599460Y-413000D01*
X596920Y-415540D01*
Y-418080D01*
X494920Y-273080D02*
X497460D01*
X500000Y-270540D01*
X502540Y-273080D01*
X505080D01*
Y-270540D01*
X502540Y-268000D01*
X505080Y-265460D01*
Y-262920D01*
X502540D01*
X500000Y-265460D01*
X497460Y-262920D01*
X494920D01*
Y-265460D01*
X497460Y-268000D01*
X494920Y-270540D01*
Y-273080D01*
X468920Y-332080D02*
X471460D01*
X474000Y-329540D01*
X476540Y-332080D01*
X479080D01*
Y-329540D01*
X476540Y-327000D01*
X479080Y-324460D01*
Y-321920D01*
X476540D01*
X474000Y-324460D01*
X471460Y-321920D01*
X468920D01*
Y-324460D01*
X471460Y-327000D01*
X468920Y-329540D01*
Y-332080D01*
X470583Y-385808D02*
Y-388349D01*
X475663D01*
Y-385808D01*
X478203D01*
Y-380728D01*
X475663D01*
Y-378189D01*
X470583D01*
Y-380728D01*
X468043D01*
Y-385808D01*
X470583D01*
X456920Y-481080D02*
X459460D01*
X462000Y-478540D01*
X464540Y-481080D01*
X467080D01*
Y-478540D01*
X464540Y-476000D01*
X467080Y-473460D01*
Y-470920D01*
X464540D01*
X462000Y-473460D01*
X459460Y-470920D01*
X456920D01*
Y-473460D01*
X459460Y-476000D01*
X456920Y-478540D01*
Y-481080D01*
X431920Y-459080D02*
X434460D01*
X437000Y-456540D01*
X439540Y-459080D01*
X442080D01*
Y-456540D01*
X439540Y-454000D01*
X442080Y-451460D01*
Y-448920D01*
X439540D01*
X437000Y-451460D01*
X434460Y-448920D01*
X431920D01*
Y-451460D01*
X434460Y-454000D01*
X431920Y-456540D01*
Y-459080D01*
X438620Y-452629D02*
X441160D01*
X443700Y-450089D01*
X446240Y-452629D01*
X448780D01*
Y-450089D01*
X446240Y-447549D01*
X448780Y-445009D01*
Y-442469D01*
X446240D01*
X443700Y-445009D01*
X441160Y-442469D01*
X438620D01*
Y-445009D01*
X441160Y-447549D01*
X438620Y-450089D01*
Y-452629D01*
X478920Y-446080D02*
X481460D01*
X484000Y-443540D01*
X486540Y-446080D01*
X489080D01*
Y-443540D01*
X486540Y-441000D01*
X489080Y-438460D01*
Y-435920D01*
X486540D01*
X484000Y-438460D01*
X481460Y-435920D01*
X478920D01*
Y-438460D01*
X481460Y-441000D01*
X478920Y-443540D01*
Y-446080D01*
X529920D02*
X532460D01*
X535000Y-443540D01*
X537540Y-446080D01*
X540080D01*
Y-443540D01*
X537540Y-441000D01*
X540080Y-438460D01*
Y-435920D01*
X537540D01*
X535000Y-438460D01*
X532460Y-435920D01*
X529920D01*
Y-438460D01*
X532460Y-441000D01*
X529920Y-443540D01*
Y-446080D01*
X331920Y-415650D02*
X334460D01*
X337000Y-413110D01*
X339540Y-415650D01*
X342080D01*
Y-413110D01*
X339540Y-410570D01*
X342080Y-408030D01*
Y-405490D01*
X339540D01*
X337000Y-408030D01*
X334460Y-405490D01*
X331920D01*
Y-408030D01*
X334460Y-410570D01*
X331920Y-413110D01*
Y-415650D01*
Y-480080D02*
X334460D01*
X337000Y-477540D01*
X339540Y-480080D01*
X342080D01*
Y-477540D01*
X339540Y-475000D01*
X342080Y-472460D01*
Y-469920D01*
X339540D01*
X337000Y-472460D01*
X334460Y-469920D01*
X331920D01*
Y-472460D01*
X334460Y-475000D01*
X331920Y-477540D01*
Y-480080D01*
X644920Y-501080D02*
X647460D01*
X650000Y-498540D01*
X652540Y-501080D01*
X655080D01*
Y-498540D01*
X652540Y-496000D01*
X655080Y-493460D01*
Y-490920D01*
X652540D01*
X650000Y-493460D01*
X647460Y-490920D01*
X644920D01*
Y-493460D01*
X647460Y-496000D01*
X644920Y-498540D01*
Y-501080D01*
X656885Y-478210D02*
X659425D01*
X661965Y-475670D01*
X664505Y-478210D01*
X667045D01*
Y-475670D01*
X664505Y-473130D01*
X667045Y-470590D01*
Y-468050D01*
X664505D01*
X661965Y-470590D01*
X659425Y-468050D01*
X656885D01*
Y-470590D01*
X659425Y-473130D01*
X656885Y-475670D01*
Y-478210D01*
X655920Y-445080D02*
X658460D01*
X661000Y-442540D01*
X663540Y-445080D01*
X666080D01*
Y-442540D01*
X663540Y-440000D01*
X666080Y-437460D01*
Y-434920D01*
X663540D01*
X661000Y-437460D01*
X658460Y-434920D01*
X655920D01*
Y-437460D01*
X658460Y-440000D01*
X655920Y-442540D01*
Y-445080D01*
X862604Y-411080D02*
X865144D01*
X867683Y-408540D01*
X870223Y-411080D01*
X872764D01*
Y-408540D01*
X870223Y-406000D01*
X872764Y-403460D01*
Y-400920D01*
X870223D01*
X867683Y-403460D01*
X865144Y-400920D01*
X862604D01*
Y-403460D01*
X865144Y-406000D01*
X862604Y-408540D01*
Y-411080D01*
X61920Y-471080D02*
X64460D01*
X67000Y-468540D01*
X69540Y-471080D01*
X72080D01*
Y-468540D01*
X69540Y-466000D01*
X72080Y-463460D01*
Y-460920D01*
X69540D01*
X67000Y-463460D01*
X64460Y-460920D01*
X61920D01*
Y-463460D01*
X64460Y-466000D01*
X61920Y-468540D01*
Y-471080D01*
X233920Y-158620D02*
X236460D01*
X239000Y-156080D01*
X241540Y-158620D01*
X244080D01*
Y-156080D01*
X241540Y-153540D01*
X244080Y-151000D01*
Y-148460D01*
X241540D01*
X239000Y-151000D01*
X236460Y-148460D01*
X233920D01*
Y-151000D01*
X236460Y-153540D01*
X233920Y-156080D01*
Y-158620D01*
X610920Y-230080D02*
X613460D01*
X616000Y-227540D01*
X618540Y-230080D01*
X621080D01*
Y-227540D01*
X618540Y-225000D01*
X621080Y-222460D01*
Y-219920D01*
X618540D01*
X616000Y-222460D01*
X613460Y-219920D01*
X610920D01*
Y-222460D01*
X613460Y-225000D01*
X610920Y-227540D01*
Y-230080D01*
X921460Y-411540D02*
Y-414080D01*
X926540D01*
Y-411540D01*
X929080D01*
Y-406460D01*
X926540D01*
Y-403920D01*
X921460D01*
Y-406460D01*
X918920D01*
Y-411540D01*
X921460D01*
X925460Y-205540D02*
Y-208080D01*
X930540D01*
Y-205540D01*
X933080D01*
Y-200460D01*
X930540D01*
Y-197920D01*
X925460D01*
Y-200460D01*
X922920D01*
Y-205540D01*
X925460D01*
X469490Y-376295D02*
X472030D01*
X474570Y-373755D01*
X477110Y-376295D01*
X479650D01*
Y-373755D01*
X477110Y-371215D01*
X479650Y-368675D01*
Y-366135D01*
X477110D01*
X474570Y-368675D01*
X472030Y-366135D01*
X469490D01*
Y-368675D01*
X472030Y-371215D01*
X469490Y-373755D01*
Y-376295D01*
X515460Y-387540D02*
Y-390080D01*
X520540D01*
Y-387540D01*
X523080D01*
Y-382460D01*
X520540D01*
Y-379920D01*
X515460D01*
Y-382460D01*
X512920D01*
Y-387540D01*
X515460D01*
X232920Y-516080D02*
X235460D01*
X238000Y-513540D01*
X240540Y-516080D01*
X243080D01*
Y-513540D01*
X240540Y-511000D01*
X243080Y-508460D01*
Y-505920D01*
X240540D01*
X238000Y-508460D01*
X235460Y-505920D01*
X232920D01*
Y-508460D01*
X235460Y-511000D01*
X232920Y-513540D01*
Y-516080D01*
X213920Y-496080D02*
X216460D01*
X219000Y-493540D01*
X221540Y-496080D01*
X224080D01*
Y-493540D01*
X221540Y-491000D01*
X224080Y-488460D01*
Y-485920D01*
X221540D01*
X219000Y-488460D01*
X216460Y-485920D01*
X213920D01*
Y-488460D01*
X216460Y-491000D01*
X213920Y-493540D01*
Y-496080D01*
X535920Y-269280D02*
X538460D01*
X541000Y-266740D01*
X543540Y-269280D01*
X546080D01*
Y-266740D01*
X543540Y-264200D01*
X546080Y-261660D01*
Y-259120D01*
X543540D01*
X541000Y-261660D01*
X538460Y-259120D01*
X535920D01*
Y-261660D01*
X538460Y-264200D01*
X535920Y-266740D01*
Y-269280D01*
X522920Y-304080D02*
X525460D01*
X528000Y-301540D01*
X530540Y-304080D01*
X533080D01*
Y-301540D01*
X530540Y-299000D01*
X533080Y-296460D01*
Y-293920D01*
X530540D01*
X528000Y-296460D01*
X525460Y-293920D01*
X522920D01*
Y-296460D01*
X525460Y-299000D01*
X522920Y-301540D01*
Y-304080D01*
X433710Y-233670D02*
Y-236210D01*
X438790D01*
Y-233670D01*
X441330D01*
Y-228590D01*
X438790D01*
Y-226050D01*
X433710D01*
Y-228590D01*
X431170D01*
Y-233670D01*
X433710D01*
X441625Y-252270D02*
Y-254810D01*
X446705D01*
Y-252270D01*
X449245D01*
Y-247190D01*
X446705D01*
Y-244650D01*
X441625D01*
Y-247190D01*
X439085D01*
Y-252270D01*
X441625D01*
X45920Y-196080D02*
X48460D01*
X51000Y-193540D01*
X53540Y-196080D01*
X56080D01*
Y-193540D01*
X53540Y-191000D01*
X56080Y-188460D01*
Y-185920D01*
X53540D01*
X51000Y-188460D01*
X48460Y-185920D01*
X45920D01*
Y-188460D01*
X48460Y-191000D01*
X45920Y-193540D01*
Y-196080D01*
X343920Y-428080D02*
X346460D01*
X349000Y-425540D01*
X351540Y-428080D01*
X354080D01*
Y-425540D01*
X351540Y-423000D01*
X354080Y-420460D01*
Y-417920D01*
X351540D01*
X349000Y-420460D01*
X346460Y-417920D01*
X343920D01*
Y-420460D01*
X346460Y-423000D01*
X343920Y-425540D01*
Y-428080D01*
X344920Y-469080D02*
X347460D01*
X350000Y-466540D01*
X352540Y-469080D01*
X355080D01*
Y-466540D01*
X352540Y-464000D01*
X355080Y-461460D01*
Y-458920D01*
X352540D01*
X350000Y-461460D01*
X347460Y-458920D01*
X344920D01*
Y-461460D01*
X347460Y-464000D01*
X344920Y-466540D01*
Y-469080D01*
X428920D02*
X431460D01*
X434000Y-466540D01*
X436540Y-469080D01*
X439080D01*
Y-466540D01*
X436540Y-464000D01*
X439080Y-461460D01*
Y-458920D01*
X436540D01*
X434000Y-461460D01*
X431460Y-458920D01*
X428920D01*
Y-461460D01*
X431460Y-464000D01*
X428920Y-466540D01*
Y-469080D01*
X394920Y-416080D02*
X397460D01*
X400000Y-413540D01*
X402540Y-416080D01*
X405080D01*
Y-413540D01*
X402540Y-411000D01*
X405080Y-408460D01*
Y-405920D01*
X402540D01*
X400000Y-408460D01*
X397460Y-405920D01*
X394920D01*
Y-408460D01*
X397460Y-411000D01*
X394920Y-413540D01*
Y-416080D01*
Y-320080D02*
X397460D01*
X400000Y-317540D01*
X402540Y-320080D01*
X405080D01*
Y-317540D01*
X402540Y-315000D01*
X405080Y-312460D01*
Y-309920D01*
X402540D01*
X400000Y-312460D01*
X397460Y-309920D01*
X394920D01*
Y-312460D01*
X397460Y-315000D01*
X394920Y-317540D01*
Y-320080D01*
X385920Y-349650D02*
X388460D01*
X391000Y-347110D01*
X393540Y-349650D01*
X396080D01*
Y-347110D01*
X393540Y-344570D01*
X396080Y-342030D01*
Y-339490D01*
X393540D01*
X391000Y-342030D01*
X388460Y-339490D01*
X385920D01*
Y-342030D01*
X388460Y-344570D01*
X385920Y-347110D01*
Y-349650D01*
X388855Y-428350D02*
X391395D01*
X393935Y-425810D01*
X396475Y-428350D01*
X399015D01*
Y-425810D01*
X396475Y-423270D01*
X399015Y-420730D01*
Y-418190D01*
X396475D01*
X393935Y-420730D01*
X391395Y-418190D01*
X388855D01*
Y-420730D01*
X391395Y-423270D01*
X388855Y-425810D01*
Y-428350D01*
X849920Y-172080D02*
X852460D01*
X855000Y-169540D01*
X857540Y-172080D01*
X860080D01*
Y-169540D01*
X857540Y-167000D01*
X860080Y-164460D01*
Y-161920D01*
X857540D01*
X855000Y-164460D01*
X852460Y-161920D01*
X849920D01*
Y-164460D01*
X852460Y-167000D01*
X849920Y-169540D01*
Y-172080D01*
X829920Y-178080D02*
X832460D01*
X835000Y-175540D01*
X837540Y-178080D01*
X840080D01*
Y-175540D01*
X837540Y-173000D01*
X840080Y-170460D01*
Y-167920D01*
X837540D01*
X835000Y-170460D01*
X832460Y-167920D01*
X829920D01*
Y-170460D01*
X832460Y-173000D01*
X829920Y-175540D01*
Y-178080D01*
X824920Y-184080D02*
X827460D01*
X830000Y-181540D01*
X832540Y-184080D01*
X835080D01*
Y-181540D01*
X832540Y-179000D01*
X835080Y-176460D01*
Y-173920D01*
X832540D01*
X830000Y-176460D01*
X827460Y-173920D01*
X824920D01*
Y-176460D01*
X827460Y-179000D01*
X824920Y-181540D01*
Y-184080D01*
X816920Y-190080D02*
X819460D01*
X822000Y-187540D01*
X824540Y-190080D01*
X827080D01*
Y-187540D01*
X824540Y-185000D01*
X827080Y-182460D01*
Y-179920D01*
X824540D01*
X822000Y-182460D01*
X819460Y-179920D01*
X816920D01*
Y-182460D01*
X819460Y-185000D01*
X816920Y-187540D01*
Y-190080D01*
X852920Y-233080D02*
X855460D01*
X858000Y-230540D01*
X860540Y-233080D01*
X863080D01*
Y-230540D01*
X860540Y-228000D01*
X863080Y-225460D01*
Y-222920D01*
X860540D01*
X858000Y-225460D01*
X855460Y-222920D01*
X852920D01*
Y-225460D01*
X855460Y-228000D01*
X852920Y-230540D01*
Y-233080D01*
X845920Y-289080D02*
X848460D01*
X851000Y-286540D01*
X853540Y-289080D01*
X856080D01*
Y-286540D01*
X853540Y-284000D01*
X856080Y-281460D01*
Y-278920D01*
X853540D01*
X851000Y-281460D01*
X848460Y-278920D01*
X845920D01*
Y-281460D01*
X848460Y-284000D01*
X845920Y-286540D01*
Y-289080D01*
X841920Y-166080D02*
X844460D01*
X847000Y-163540D01*
X849540Y-166080D01*
X852080D01*
Y-163540D01*
X849540Y-161000D01*
X852080Y-158460D01*
Y-155920D01*
X849540D01*
X847000Y-158460D01*
X844460Y-155920D01*
X841920D01*
Y-158460D01*
X844460Y-161000D01*
X841920Y-163540D01*
Y-166080D01*
X837920Y-315080D02*
X840460D01*
X843000Y-312540D01*
X845540Y-315080D01*
X848080D01*
Y-312540D01*
X845540Y-310000D01*
X848080Y-307460D01*
Y-304920D01*
X845540D01*
X843000Y-307460D01*
X840460Y-304920D01*
X837920D01*
Y-307460D01*
X840460Y-310000D01*
X837920Y-312540D01*
Y-315080D01*
X817012Y-307488D02*
X819552D01*
X822092Y-304948D01*
X824632Y-307488D01*
X827172D01*
Y-304948D01*
X824632Y-302408D01*
X827172Y-299868D01*
Y-297328D01*
X824632D01*
X822092Y-299868D01*
X819552Y-297328D01*
X817012D01*
Y-299868D01*
X819552Y-302408D01*
X817012Y-304948D01*
Y-307488D01*
X830920Y-348080D02*
X833460D01*
X836000Y-345540D01*
X838540Y-348080D01*
X841080D01*
Y-345540D01*
X838540Y-343000D01*
X841080Y-340460D01*
Y-337920D01*
X838540D01*
X836000Y-340460D01*
X833460Y-337920D01*
X830920D01*
Y-340460D01*
X833460Y-343000D01*
X830920Y-345540D01*
Y-348080D01*
X817512Y-424988D02*
X820052D01*
X822592Y-422448D01*
X825132Y-424988D01*
X827672D01*
Y-422448D01*
X825132Y-419908D01*
X827672Y-417368D01*
Y-414828D01*
X825132D01*
X822592Y-417368D01*
X820052Y-414828D01*
X817512D01*
Y-417368D01*
X820052Y-419908D01*
X817512Y-422448D01*
Y-424988D01*
X265920Y-32080D02*
X268460D01*
X271000Y-29540D01*
X273540Y-32080D01*
X276080D01*
Y-29540D01*
X273540Y-27000D01*
X276080Y-24460D01*
Y-21920D01*
X273540D01*
X271000Y-24460D01*
X268460Y-21920D01*
X265920D01*
Y-24460D01*
X268460Y-27000D01*
X265920Y-29540D01*
Y-32080D01*
X245920Y-38080D02*
X248460D01*
X251000Y-35540D01*
X253540Y-38080D01*
X256080D01*
Y-35540D01*
X253540Y-33000D01*
X256080Y-30460D01*
Y-27920D01*
X253540D01*
X251000Y-30460D01*
X248460Y-27920D01*
X245920D01*
Y-30460D01*
X248460Y-33000D01*
X245920Y-35540D01*
Y-38080D01*
X252920Y-44080D02*
X255460D01*
X258000Y-41540D01*
X260540Y-44080D01*
X263080D01*
Y-41540D01*
X260540Y-39000D01*
X263080Y-36460D01*
Y-33920D01*
X260540D01*
X258000Y-36460D01*
X255460Y-33920D01*
X252920D01*
Y-36460D01*
X255460Y-39000D01*
X252920Y-41540D01*
Y-44080D01*
X259920Y-50080D02*
X262460D01*
X265000Y-47540D01*
X267540Y-50080D01*
X270080D01*
Y-47540D01*
X267540Y-45000D01*
X270080Y-42460D01*
Y-39920D01*
X267540D01*
X265000Y-42460D01*
X262460Y-39920D01*
X259920D01*
Y-42460D01*
X262460Y-45000D01*
X259920Y-47540D01*
Y-50080D01*
X255313Y-352928D02*
X257853D01*
X260393Y-350388D01*
X262933Y-352928D01*
X265473D01*
Y-350388D01*
X262933Y-347848D01*
X265473Y-345308D01*
Y-342768D01*
X262933D01*
X260393Y-345308D01*
X257853Y-342768D01*
X255313D01*
Y-345308D01*
X257853Y-347848D01*
X255313Y-350388D01*
Y-352928D01*
X248784Y-355453D02*
X251324D01*
X253864Y-352913D01*
X256404Y-355453D01*
X258944D01*
Y-352913D01*
X256404Y-350373D01*
X258944Y-347833D01*
Y-345293D01*
X256404D01*
X253864Y-347833D01*
X251324Y-345293D01*
X248784D01*
Y-347833D01*
X251324Y-350373D01*
X248784Y-352913D01*
Y-355453D01*
X241920Y-354080D02*
X244460D01*
X247000Y-351540D01*
X249540Y-354080D01*
X252080D01*
Y-351540D01*
X249540Y-349000D01*
X252080Y-346460D01*
Y-343920D01*
X249540D01*
X247000Y-346460D01*
X244460Y-343920D01*
X241920D01*
Y-346460D01*
X244460Y-349000D01*
X241920Y-351540D01*
Y-354080D01*
X233920D02*
X236460D01*
X239000Y-351540D01*
X241540Y-354080D01*
X244080D01*
Y-351540D01*
X241540Y-349000D01*
X244080Y-346460D01*
Y-343920D01*
X241540D01*
X239000Y-346460D01*
X236460Y-343920D01*
X233920D01*
Y-346460D01*
X236460Y-349000D01*
X233920Y-351540D01*
Y-354080D01*
X175960Y-242040D02*
Y-244580D01*
X181040D01*
Y-242040D01*
X183580D01*
Y-236960D01*
X181040D01*
Y-234420D01*
X175960D01*
Y-236960D01*
X173420D01*
Y-242040D01*
X175960D01*
X376745Y-289610D02*
Y-292150D01*
X381825D01*
Y-289610D01*
X384365D01*
Y-284530D01*
X381825D01*
Y-281990D01*
X376745D01*
Y-284530D01*
X374205D01*
Y-289610D01*
X376745D01*
X524280Y-336505D02*
Y-339045D01*
X529360D01*
Y-336505D01*
X531900D01*
Y-331425D01*
X529360D01*
Y-328885D01*
X524280D01*
Y-331425D01*
X521740D01*
Y-336505D01*
X524280D01*
X484030Y-345255D02*
Y-347795D01*
X489110D01*
Y-345255D01*
X491650D01*
Y-340175D01*
X489110D01*
Y-337635D01*
X484030D01*
Y-340175D01*
X481490D01*
Y-345255D01*
X484030D01*
X522880Y-358605D02*
Y-361145D01*
X527960D01*
Y-358605D01*
X530500D01*
Y-353525D01*
X527960D01*
Y-350985D01*
X522880D01*
Y-353525D01*
X520340D01*
Y-358605D01*
X522880D01*
X542130Y-335255D02*
Y-337795D01*
X547210D01*
Y-335255D01*
X549750D01*
Y-330175D01*
X547210D01*
Y-327635D01*
X542130D01*
Y-330175D01*
X539590D01*
Y-335255D01*
X542130D01*
X545530Y-357755D02*
Y-360295D01*
X550610D01*
Y-357755D01*
X553150D01*
Y-352675D01*
X550610D01*
Y-350135D01*
X545530D01*
Y-352675D01*
X542990D01*
Y-357755D01*
X545530D01*
X534630Y-346855D02*
Y-349395D01*
X539710D01*
Y-346855D01*
X542250D01*
Y-341775D01*
X539710D01*
Y-339235D01*
X534630D01*
Y-341775D01*
X532090D01*
Y-346855D01*
X534630D01*
X117245Y-317110D02*
Y-319650D01*
X122325D01*
Y-317110D01*
X124865D01*
Y-312030D01*
X122325D01*
Y-309490D01*
X117245D01*
Y-312030D01*
X114705D01*
Y-317110D01*
X117245D01*
X187745Y-320110D02*
Y-322650D01*
X192825D01*
Y-320110D01*
X195365D01*
Y-315030D01*
X192825D01*
Y-312490D01*
X187745D01*
Y-315030D01*
X185205D01*
Y-320110D01*
X187745D01*
X115245Y-268610D02*
Y-271150D01*
X120325D01*
Y-268610D01*
X122865D01*
Y-263530D01*
X120325D01*
Y-260990D01*
X115245D01*
Y-263530D01*
X112705D01*
Y-268610D01*
X115245D01*
X382670Y-274780D02*
X385210D01*
X387750Y-272240D01*
X390290Y-274780D01*
X392830D01*
Y-272240D01*
X390290Y-269700D01*
X392830Y-267160D01*
Y-264620D01*
X390290D01*
X387750Y-267160D01*
X385210Y-264620D01*
X382670D01*
Y-267160D01*
X385210Y-269700D01*
X382670Y-272240D01*
Y-274780D01*
X382205Y-312650D02*
X384745D01*
X387285Y-310110D01*
X389825Y-312650D01*
X392365D01*
Y-310110D01*
X389825Y-307570D01*
X392365Y-305030D01*
Y-302490D01*
X389825D01*
X387285Y-305030D01*
X384745Y-302490D01*
X382205D01*
Y-305030D01*
X384745Y-307570D01*
X382205Y-310110D01*
Y-312650D01*
X185745Y-267110D02*
Y-269650D01*
X190825D01*
Y-267110D01*
X193365D01*
Y-262030D01*
X190825D01*
Y-259490D01*
X185745D01*
Y-262030D01*
X183205D01*
Y-267110D01*
X185745D01*
X238745Y-276110D02*
Y-278650D01*
X243825D01*
Y-276110D01*
X246365D01*
Y-271030D01*
X243825D01*
Y-268490D01*
X238745D01*
Y-271030D01*
X236205D01*
Y-276110D01*
X238745D01*
X284245Y-258610D02*
Y-261150D01*
X289325D01*
Y-258610D01*
X291865D01*
Y-253530D01*
X289325D01*
Y-250990D01*
X284245D01*
Y-253530D01*
X281705D01*
Y-258610D01*
X284245D01*
X364245Y-261610D02*
Y-264150D01*
X369325D01*
Y-261610D01*
X371865D01*
Y-256530D01*
X369325D01*
Y-253990D01*
X364245D01*
Y-256530D01*
X361705D01*
Y-261610D01*
X364245D01*
M02*
