G04*
G04 #@! TF.GenerationSoftware,Altium Limited,Altium Designer,26.5.1 (12)*
G04*
G04 Layer_Color=128*
G04 Board_Origin=86215166|373809532*
%FSLAX44Y44*%
%MOMM*%
G71*
G04*
G04 #@! TF.SameCoordinates,C941381F-4326-489C-B6A4-9E12FBC03EC8*
G04*
G04*
G04 #@! TF.FilePolarity,Positive*
G04*
G01*
G75*
%ADD94C,0.1270*%
D94*
X24857Y-336037D02*
X34857D01*
X29857Y-341037D02*
Y-331037D01*
X816883Y-147669D02*
X827483D01*
X822183Y-152970D02*
Y-142369D01*
X816883Y-212670D02*
X827483D01*
X822183Y-217969D02*
Y-207370D01*
X861883Y-147669D02*
X872483D01*
X867184Y-152970D02*
Y-142369D01*
X861883Y-212670D02*
X872483D01*
X867184Y-217969D02*
Y-207370D01*
X895357Y-336037D02*
X905357D01*
X900357Y-341037D02*
Y-331037D01*
X895357Y-310637D02*
X905357D01*
X900357Y-315637D02*
Y-305637D01*
X895357Y-285237D02*
X905357D01*
X900357Y-290237D02*
Y-280237D01*
X895357Y-259837D02*
X905357D01*
X900357Y-264837D02*
Y-254837D01*
X24857Y-259837D02*
X34857D01*
X29857Y-264837D02*
Y-254837D01*
X24857Y-285237D02*
X34857D01*
X29857Y-290237D02*
Y-280237D01*
X24857Y-310637D02*
X34857D01*
X29857Y-315637D02*
Y-305637D01*
X861883Y-330170D02*
X872483D01*
X867184Y-335470D02*
Y-324870D01*
X861883Y-265170D02*
X872483D01*
X867184Y-270469D02*
Y-259870D01*
X816883Y-330170D02*
X827483D01*
X822183Y-335470D02*
Y-324870D01*
X816883Y-265170D02*
X827483D01*
X822183Y-270469D02*
Y-259870D01*
X862383Y-447670D02*
X872983D01*
X867683Y-452970D02*
Y-442370D01*
X862383Y-382669D02*
X872983D01*
X867683Y-387970D02*
Y-377370D01*
X817383Y-447670D02*
X827983D01*
X822683Y-452970D02*
Y-442370D01*
X817383Y-382669D02*
X827983D01*
X822683Y-387970D02*
Y-377370D01*
X368982Y-397870D02*
X378888D01*
X373935Y-402823D02*
Y-392917D01*
X379142Y-448670D02*
X389048D01*
X384095Y-453623D02*
Y-443717D01*
X358822Y-448670D02*
X368728D01*
X363775Y-453623D02*
Y-443717D01*
X327685Y-544570D02*
X337685D01*
X332685Y-549570D02*
Y-539570D01*
X353085Y-544570D02*
X363085D01*
X358085Y-549570D02*
Y-539570D01*
X378485Y-544570D02*
X388485D01*
X383485Y-549570D02*
Y-539570D01*
X403885Y-544570D02*
X413885D01*
X408885Y-549570D02*
Y-539570D01*
X429285Y-544570D02*
X439285D01*
X434285Y-549570D02*
Y-539570D01*
X607000Y-578700D02*
X616000D01*
X611500Y-583200D02*
Y-574200D01*
X607000Y-553300D02*
X616000D01*
X611500Y-557800D02*
Y-548800D01*
X778200Y-577000D02*
X789200D01*
X783700Y-582500D02*
Y-571500D01*
X829000Y-577000D02*
X840000D01*
X834500Y-582500D02*
Y-571500D01*
X93000Y-548000D02*
X123000D01*
X108000Y-563000D02*
Y-533000D01*
X793000Y-498000D02*
X823000D01*
X808000Y-513000D02*
Y-483000D01*
X93000Y-48000D02*
X123000D01*
X108000Y-63000D02*
Y-33000D01*
X793000Y-48000D02*
X823000D01*
X808000Y-63000D02*
Y-33000D01*
X897635Y-14761D02*
X902635D01*
X900135Y-17261D02*
Y-12261D01*
X867635Y-74761D02*
X872635D01*
X870135Y-77261D02*
Y-72261D01*
X897635Y-134761D02*
X902635D01*
X900135Y-137261D02*
Y-132261D01*
X897635Y-374761D02*
X902635D01*
X900135Y-377261D02*
Y-372261D01*
X897635Y-494761D02*
X902635D01*
X900135Y-497261D02*
Y-492261D01*
X867635Y-554761D02*
X872635D01*
X870135Y-557261D02*
Y-552261D01*
X837635Y-14761D02*
X842635D01*
X840135Y-17261D02*
Y-12261D01*
X807635Y-74761D02*
X812635D01*
X810135Y-77261D02*
Y-72261D01*
X837635Y-374761D02*
X842635D01*
X840135Y-377261D02*
Y-372261D01*
X807635Y-434761D02*
X812635D01*
X810135Y-437261D02*
Y-432261D01*
X837635Y-494761D02*
X842635D01*
X840135Y-497261D02*
Y-492261D01*
X777635Y-14761D02*
X782635D01*
X780135Y-17261D02*
Y-12261D01*
X747635Y-314761D02*
X752635D01*
X750135Y-317261D02*
Y-312261D01*
X777635Y-494761D02*
X782635D01*
X780135Y-497261D02*
Y-492261D01*
X717635Y-14761D02*
X722635D01*
X720135Y-17261D02*
Y-12261D01*
X717635Y-254761D02*
X722635D01*
X720135Y-257261D02*
Y-252261D01*
X687635Y-434761D02*
X692635D01*
X690135Y-437261D02*
Y-432261D01*
X657635Y-14761D02*
X662635D01*
X660135Y-17261D02*
Y-12261D01*
X627635Y-194761D02*
X632635D01*
X630135Y-197261D02*
Y-192261D01*
X627635Y-434761D02*
X632635D01*
X630135Y-437261D02*
Y-432261D01*
X627635Y-554761D02*
X632635D01*
X630135Y-557261D02*
Y-552261D01*
X597635Y-14761D02*
X602635D01*
X600135Y-17261D02*
Y-12261D01*
X567635Y-554761D02*
X572635D01*
X570135Y-557261D02*
Y-552261D01*
X537635Y-14761D02*
X542635D01*
X540135Y-17261D02*
Y-12261D01*
X507635Y-554761D02*
X512635D01*
X510135Y-557261D02*
Y-552261D01*
X477635Y-254761D02*
X482635D01*
X480135Y-257261D02*
Y-252261D01*
X447635Y-554761D02*
X452635D01*
X450135Y-557261D02*
Y-552261D01*
X417635Y-374761D02*
X422635D01*
X420135Y-377261D02*
Y-372261D01*
X357635Y-374761D02*
X362635D01*
X360135Y-377261D02*
Y-372261D01*
X297635Y-254761D02*
X302635D01*
X300135Y-257261D02*
Y-252261D01*
X267635Y-314761D02*
X272635D01*
X270135Y-317261D02*
Y-312261D01*
X267635Y-434761D02*
X272635D01*
X270135Y-437261D02*
Y-432261D01*
X267635Y-554761D02*
X272635D01*
X270135Y-557261D02*
Y-552261D01*
X207635Y-554761D02*
X212635D01*
X210135Y-557261D02*
Y-552261D01*
X177635Y-14761D02*
X182635D01*
X180135Y-17261D02*
Y-12261D01*
X177635Y-254761D02*
X182635D01*
X180135Y-257261D02*
Y-252261D01*
X177635Y-374761D02*
X182635D01*
X180135Y-377261D02*
Y-372261D01*
X147635Y-434761D02*
X152635D01*
X150135Y-437261D02*
Y-432261D01*
X177635Y-494761D02*
X182635D01*
X180135Y-497261D02*
Y-492261D01*
X147635Y-554761D02*
X152635D01*
X150135Y-557261D02*
Y-552261D01*
X117635Y-14761D02*
X122635D01*
X120135Y-17261D02*
Y-12261D01*
X87635Y-74761D02*
X92635D01*
X90135Y-77261D02*
Y-72261D01*
X87635Y-194761D02*
X92635D01*
X90135Y-197261D02*
Y-192261D01*
X117635Y-254761D02*
X122635D01*
X120135Y-257261D02*
Y-252261D01*
X117635Y-374761D02*
X122635D01*
X120135Y-377261D02*
Y-372261D01*
X87635Y-434761D02*
X92635D01*
X90135Y-437261D02*
Y-432261D01*
X117635Y-494761D02*
X122635D01*
X120135Y-497261D02*
Y-492261D01*
X57635Y-14761D02*
X62635D01*
X60135Y-17261D02*
Y-12261D01*
X27635Y-74761D02*
X32635D01*
X30135Y-77261D02*
Y-72261D01*
X27635Y-434761D02*
X32635D01*
X30135Y-437261D02*
Y-432261D01*
X57635Y-494761D02*
X62635D01*
X60135Y-497261D02*
Y-492261D01*
X27635Y-554761D02*
X32635D01*
X30135Y-557261D02*
Y-552261D01*
X235500Y-230020D02*
X238500D01*
X237000Y-231520D02*
Y-228520D01*
X225250Y-342000D02*
X228250D01*
X226750Y-343500D02*
Y-340500D01*
X219500Y-252000D02*
X222500D01*
X221000Y-253500D02*
Y-250500D01*
X290135Y-199865D02*
X293135D01*
X291635Y-201365D02*
Y-198365D01*
X311500Y-202000D02*
X314500D01*
X313000Y-203500D02*
Y-200500D01*
X534500Y-177750D02*
X537500D01*
X536000Y-179250D02*
Y-176250D01*
X600500Y-193750D02*
X603500D01*
X602000Y-195250D02*
Y-192250D01*
X491350Y-170125D02*
X494350D01*
X492850Y-171625D02*
Y-168625D01*
X333500Y-172000D02*
X336500D01*
X335000Y-173500D02*
Y-170500D01*
X297500Y-181000D02*
X300500D01*
X299000Y-182500D02*
Y-179500D01*
X61500Y-111000D02*
X64500D01*
X63000Y-112500D02*
Y-109500D01*
X49500Y-103000D02*
X52500D01*
X51000Y-104500D02*
Y-101500D01*
X3500Y-97000D02*
X6500D01*
X5000Y-98500D02*
Y-95500D01*
X214500Y-58000D02*
X217500D01*
X216000Y-59500D02*
Y-56500D01*
X307500Y-68000D02*
X310500D01*
X309000Y-69500D02*
Y-66500D01*
X395500Y-76000D02*
X398500D01*
X397000Y-77500D02*
Y-74500D01*
X755500Y-67000D02*
X758500D01*
X757000Y-68500D02*
Y-65500D01*
X664500Y-76000D02*
X667500D01*
X666000Y-77500D02*
Y-74500D01*
X574500Y-80000D02*
X577500D01*
X576000Y-81500D02*
Y-78500D01*
X664500Y-143000D02*
X667500D01*
X666000Y-144500D02*
Y-141500D01*
X125500Y-140000D02*
X128500D01*
X127000Y-141500D02*
Y-138500D01*
X307500Y-143000D02*
X310500D01*
X309000Y-144500D02*
Y-141500D01*
X395500Y-143000D02*
X398500D01*
X397000Y-144500D02*
Y-141500D01*
X487500Y-143000D02*
X490500D01*
X489000Y-144500D02*
Y-141500D01*
X575500Y-143000D02*
X578500D01*
X577000Y-144500D02*
Y-141500D01*
X756500Y-143000D02*
X759500D01*
X758000Y-144500D02*
Y-141500D01*
X488250Y-83750D02*
X491250D01*
X489750Y-85250D02*
Y-82250D01*
X125500Y-87000D02*
X128500D01*
X127000Y-88500D02*
Y-85500D01*
X237500Y-110000D02*
X240500D01*
X239000Y-111500D02*
Y-108500D01*
X320500Y-102000D02*
X323500D01*
X322000Y-103500D02*
Y-100500D01*
X213500Y-142000D02*
X216500D01*
X215000Y-143500D02*
Y-140500D01*
X134375Y-170125D02*
X137375D01*
X135875Y-171625D02*
Y-168625D01*
X130500Y-223000D02*
X133500D01*
X132000Y-224500D02*
Y-221500D01*
X807669Y-190581D02*
X811169D01*
X809419Y-192331D02*
Y-188831D01*
X779250Y-291000D02*
X782750D01*
X781000Y-292750D02*
Y-289250D01*
X611500Y-111250D02*
X614500D01*
X613000Y-112750D02*
Y-109750D01*
X742625Y-194000D02*
X745625D01*
X744125Y-195500D02*
Y-192500D01*
X688375Y-198500D02*
X691375D01*
X689875Y-200000D02*
Y-197000D01*
X277290Y-144435D02*
X280790D01*
X279039Y-146185D02*
Y-142685D01*
X202500Y-466000D02*
X205500D01*
X204000Y-467500D02*
Y-464500D01*
X203500Y-391000D02*
X206500D01*
X205000Y-392500D02*
Y-389500D01*
X360354Y-357000D02*
X363354D01*
X361854Y-358500D02*
Y-355500D01*
X331500Y-558875D02*
X334500D01*
X333000Y-560375D02*
Y-557375D01*
X330500Y-529125D02*
X333500D01*
X332000Y-530625D02*
Y-527625D01*
X356210Y-435970D02*
X359210D01*
X357710Y-437470D02*
Y-434470D01*
X893500Y-399000D02*
X896500D01*
X895000Y-400500D02*
Y-397500D01*
X563375Y-545000D02*
X566375D01*
X564875Y-546500D02*
Y-543500D01*
X298375Y-373000D02*
X301375D01*
X299875Y-374500D02*
Y-371500D01*
X225500Y-392000D02*
X228500D01*
X227000Y-393500D02*
Y-390500D01*
X154700Y-338300D02*
X157700D01*
X156200Y-339800D02*
Y-336800D01*
X134500Y-308000D02*
X137500D01*
X136000Y-309500D02*
Y-306500D01*
X15500Y-281000D02*
X18500D01*
X17000Y-282500D02*
Y-279500D01*
X15415Y-218730D02*
X18415D01*
X16915Y-220230D02*
Y-217230D01*
X132500Y-244000D02*
X135500D01*
X134000Y-245500D02*
Y-242500D01*
X258500Y-229000D02*
X261500D01*
X260000Y-230500D02*
Y-227500D01*
X277000Y-232000D02*
X280500D01*
X278750Y-233750D02*
Y-230250D01*
X243230Y-171000D02*
X246230D01*
X244730Y-172500D02*
Y-169500D01*
X243230Y-158540D02*
X246230D01*
X244730Y-160040D02*
Y-157040D01*
X471500Y-277000D02*
X474500D01*
X473000Y-278500D02*
Y-275500D01*
X594500Y-439000D02*
X597500D01*
X596000Y-440500D02*
Y-437500D01*
X575500Y-438000D02*
X578500D01*
X577000Y-439500D02*
Y-436500D01*
X618375Y-370000D02*
X621375D01*
X619875Y-371500D02*
Y-368500D01*
X746625Y-367000D02*
X749625D01*
X748125Y-368500D02*
Y-365500D01*
X746625Y-356000D02*
X749625D01*
X748125Y-357500D02*
Y-354500D01*
X771375Y-370000D02*
X774375D01*
X772875Y-371500D02*
Y-368500D01*
X769375Y-356000D02*
X772375D01*
X770875Y-357500D02*
Y-354500D01*
X755500Y-342125D02*
X758500D01*
X757000Y-343625D02*
Y-340625D01*
X648625Y-213500D02*
X651625D01*
X650125Y-215000D02*
Y-212000D01*
X649625Y-201500D02*
X652625D01*
X651125Y-203000D02*
Y-200000D01*
X688375Y-211500D02*
X691375D01*
X689875Y-213000D02*
Y-210000D01*
X781213Y-213508D02*
X784213D01*
X782713Y-215008D02*
Y-212008D01*
X780375Y-203000D02*
X783375D01*
X781875Y-204500D02*
Y-201500D01*
X742625Y-216000D02*
X745625D01*
X744125Y-217500D02*
Y-214500D01*
X741625Y-206000D02*
X744625D01*
X743125Y-207500D02*
Y-204500D01*
X795500Y-292125D02*
X798500D01*
X797000Y-293625D02*
Y-290625D01*
X886500Y-160125D02*
X889500D01*
X888000Y-161625D02*
Y-158625D01*
X764375Y-171125D02*
X767375D01*
X765875Y-172625D02*
Y-169625D01*
X674375Y-168625D02*
X677375D01*
X675875Y-170125D02*
Y-167125D01*
X584250Y-170125D02*
X587250D01*
X585750Y-171625D02*
Y-168625D01*
X404375D02*
X407375D01*
X405875Y-170125D02*
Y-167125D01*
X224250Y-170125D02*
X227250D01*
X225750Y-171625D02*
Y-168625D01*
X571500Y-283000D02*
X574500D01*
X573000Y-284500D02*
Y-281500D01*
X436500Y-13000D02*
X439500D01*
X438000Y-14500D02*
Y-11500D01*
X435500Y5000D02*
X438500D01*
X437000Y3500D02*
Y6500D01*
X619500Y-283000D02*
X622500D01*
X621000Y-284500D02*
Y-281500D01*
X612500Y-273000D02*
X615500D01*
X614000Y-274500D02*
Y-271500D01*
X632500Y-288000D02*
X635500D01*
X634000Y-289500D02*
Y-286500D01*
X601500Y-476000D02*
X604500D01*
X603000Y-477500D02*
Y-474500D01*
X600500Y-413000D02*
X603500D01*
X602000Y-414500D02*
Y-411500D01*
X498500Y-268000D02*
X501500D01*
X500000Y-269500D02*
Y-266500D01*
X472500Y-327000D02*
X475500D01*
X474000Y-328500D02*
Y-325500D01*
X471373Y-383269D02*
X474873D01*
X473123Y-385019D02*
Y-381519D01*
X460500Y-476000D02*
X463500D01*
X462000Y-477500D02*
Y-474500D01*
X435500Y-454000D02*
X438500D01*
X437000Y-455500D02*
Y-452500D01*
X442200Y-447549D02*
X445200D01*
X443700Y-449049D02*
Y-446049D01*
X482500Y-441000D02*
X485500D01*
X484000Y-442500D02*
Y-439500D01*
X533500Y-441000D02*
X536500D01*
X535000Y-442500D02*
Y-439500D01*
X335500Y-410570D02*
X338500D01*
X337000Y-412070D02*
Y-409070D01*
X335500Y-475000D02*
X338500D01*
X337000Y-476500D02*
Y-473500D01*
X648500Y-496000D02*
X651500D01*
X650000Y-497500D02*
Y-494500D01*
X660465Y-473130D02*
X663465D01*
X661965Y-474630D02*
Y-471630D01*
X659500Y-440000D02*
X662500D01*
X661000Y-441500D02*
Y-438500D01*
X866183Y-406000D02*
X869184D01*
X867683Y-407500D02*
Y-404500D01*
X65500Y-466000D02*
X68500D01*
X67000Y-467500D02*
Y-464500D01*
X237500Y-153540D02*
X240500D01*
X239000Y-155040D02*
Y-152040D01*
X614500Y-225000D02*
X617500D01*
X616000Y-226500D02*
Y-223500D01*
X922250Y-409000D02*
X925750D01*
X924000Y-410750D02*
Y-407250D01*
X926250Y-203000D02*
X929750D01*
X928000Y-204750D02*
Y-201250D01*
X473070Y-371215D02*
X476070D01*
X474570Y-372715D02*
Y-369715D01*
X516250Y-385000D02*
X519750D01*
X518000Y-386750D02*
Y-383250D01*
X236500Y-511000D02*
X239500D01*
X238000Y-512500D02*
Y-509500D01*
X217500Y-491000D02*
X220500D01*
X219000Y-492500D02*
Y-489500D01*
X539500Y-264200D02*
X542500D01*
X541000Y-265700D02*
Y-262700D01*
X526500Y-299000D02*
X529500D01*
X528000Y-300500D02*
Y-297500D01*
X434500Y-231130D02*
X438000D01*
X436250Y-232880D02*
Y-229380D01*
X442415Y-249730D02*
X445915D01*
X444165Y-251480D02*
Y-247980D01*
X49500Y-191000D02*
X52500D01*
X51000Y-192500D02*
Y-189500D01*
X347500Y-423000D02*
X350500D01*
X349000Y-424500D02*
Y-421500D01*
X348500Y-464000D02*
X351500D01*
X350000Y-465500D02*
Y-462500D01*
X432500Y-464000D02*
X435500D01*
X434000Y-465500D02*
Y-462500D01*
X398500Y-411000D02*
X401500D01*
X400000Y-412500D02*
Y-409500D01*
X398500Y-315000D02*
X401500D01*
X400000Y-316500D02*
Y-313500D01*
X389500Y-344570D02*
X392500D01*
X391000Y-346070D02*
Y-343070D01*
X392435Y-423270D02*
X395435D01*
X393935Y-424770D02*
Y-421770D01*
X853500Y-167000D02*
X856500D01*
X855000Y-168500D02*
Y-165500D01*
X833500Y-173000D02*
X836500D01*
X835000Y-174500D02*
Y-171500D01*
X828500Y-179000D02*
X831500D01*
X830000Y-180500D02*
Y-177500D01*
X820500Y-185000D02*
X823500D01*
X822000Y-186500D02*
Y-183500D01*
X856500Y-228000D02*
X859500D01*
X858000Y-229500D02*
Y-226500D01*
X849500Y-284000D02*
X852500D01*
X851000Y-285500D02*
Y-282500D01*
X845500Y-161000D02*
X848500D01*
X847000Y-162500D02*
Y-159500D01*
X841500Y-310000D02*
X844500D01*
X843000Y-311500D02*
Y-308500D01*
X820592Y-302408D02*
X823592D01*
X822092Y-303908D02*
Y-300908D01*
X834500Y-343000D02*
X837500D01*
X836000Y-344500D02*
Y-341500D01*
X821092Y-419908D02*
X824092D01*
X822592Y-421408D02*
Y-418408D01*
X269500Y-27000D02*
X272500D01*
X271000Y-28500D02*
Y-25500D01*
X249500Y-33000D02*
X252500D01*
X251000Y-34500D02*
Y-31500D01*
X256500Y-39000D02*
X259500D01*
X258000Y-40500D02*
Y-37500D01*
X263500Y-45000D02*
X266500D01*
X265000Y-46500D02*
Y-43500D01*
X258893Y-347848D02*
X261893D01*
X260393Y-349348D02*
Y-346348D01*
X252364Y-350373D02*
X255364D01*
X253864Y-351873D02*
Y-348873D01*
X245500Y-349000D02*
X248500D01*
X247000Y-350500D02*
Y-347500D01*
X237500Y-349000D02*
X240500D01*
X239000Y-350500D02*
Y-347500D01*
X176750Y-239500D02*
X180250D01*
X178500Y-241250D02*
Y-237750D01*
X377535Y-287070D02*
X381035D01*
X379285Y-288820D02*
Y-285320D01*
X525070Y-333965D02*
X528570D01*
X526820Y-335715D02*
Y-332215D01*
X484820Y-342715D02*
X488320D01*
X486570Y-344465D02*
Y-340965D01*
X523670Y-356065D02*
X527170D01*
X525420Y-357815D02*
Y-354315D01*
X542920Y-332715D02*
X546420D01*
X544670Y-334465D02*
Y-330965D01*
X546320Y-355215D02*
X549820D01*
X548070Y-356965D02*
Y-353465D01*
X535420Y-344315D02*
X538920D01*
X537170Y-346065D02*
Y-342565D01*
X118035Y-314570D02*
X121535D01*
X119785Y-316320D02*
Y-312820D01*
X188535Y-317570D02*
X192035D01*
X190285Y-319320D02*
Y-315820D01*
X116035Y-266070D02*
X119535D01*
X117785Y-267820D02*
Y-264320D01*
X386250Y-269700D02*
X389250D01*
X387750Y-271200D02*
Y-268200D01*
X385785Y-307570D02*
X388785D01*
X387285Y-309070D02*
Y-306070D01*
X186535Y-264570D02*
X190035D01*
X188285Y-266320D02*
Y-262820D01*
X239535Y-273570D02*
X243035D01*
X241285Y-275320D02*
Y-271820D01*
X285035Y-256070D02*
X288535D01*
X286785Y-257820D02*
Y-254320D01*
X365035Y-259070D02*
X368535D01*
X366785Y-260820D02*
Y-257320D01*
M02*
