G04*
G04 #@! TF.GenerationSoftware,Altium Limited,Altium Designer,26.5.1 (12)*
G04*
G04 Layer_Physical_Order=2*
G04 Layer_Color=16711680*
G04 Board_Origin=86215166|373809532*
%FSLAX44Y44*%
%MOMM*%
G71*
G04*
G04 #@! TF.SameCoordinates,C941381F-4326-489C-B6A4-9E12FBC03EC8*
G04*
G04*
G04 #@! TF.FilePolarity,Positive*
G04*
G01*
G75*
%ADD11C,0.2540*%
%ADD15C,1.5000*%
%ADD65C,1.6000*%
%ADD66C,1.8000*%
%ADD68R,1.8000X1.8000*%
%ADD76C,0.2500*%
%ADD77C,0.3000*%
%ADD78C,0.5000*%
%ADD82R,1.7000X1.7000*%
%ADD83C,1.7000*%
%ADD84C,0.9906*%
%ADD85R,1.7000X1.7000*%
%ADD86R,2.8000X2.8000*%
%ADD87C,2.8000*%
%ADD88C,3.0000*%
%ADD89C,1.0000*%
%ADD90C,0.5000*%
%ADD91C,0.6000*%
G36*
X937166Y-616666D02*
X16000D01*
Y-597604D01*
X-21166D01*
Y-23000D01*
X24500D01*
Y20666D01*
X937166D01*
Y-616666D01*
D02*
G37*
G36*
X-2296Y-600054D02*
X-2571Y-600079D01*
X-2796Y-600129D01*
X-2971Y-600204D01*
X-3121Y-600254D01*
X-3221Y-600304D01*
X-3296Y-600354D01*
X-3321Y-600379D01*
X-3346Y-600404D01*
X-3446Y-600529D01*
X-3521Y-600679D01*
X-3645Y-601004D01*
X-3670Y-601154D01*
X-3695Y-601279D01*
Y-601379D01*
Y-601404D01*
X-3771Y-604178D01*
X-3845Y-604653D01*
X-3895Y-604853D01*
X-3920Y-605028D01*
X-3970Y-605178D01*
X-3995Y-605278D01*
X-4020Y-605353D01*
Y-605378D01*
X-4120Y-605653D01*
X-4245Y-605903D01*
X-4345Y-606128D01*
X-4470Y-606353D01*
X-4595Y-606527D01*
X-4695Y-606652D01*
X-4745Y-606752D01*
X-4770Y-606777D01*
X-5095Y-607127D01*
X-5445Y-607452D01*
X-5795Y-607727D01*
X-6145Y-607952D01*
X-6445Y-608152D01*
X-6670Y-608277D01*
X-6770Y-608327D01*
X-6845Y-608352D01*
X-6870Y-608377D01*
X-6895D01*
X-7419Y-608552D01*
X-8019Y-608702D01*
X-8619Y-608802D01*
X-9169Y-608877D01*
X-9694Y-608927D01*
X-9919Y-608952D01*
X-10094D01*
X-10244Y-608977D01*
X-10469D01*
Y-613701D01*
X-10444Y-614050D01*
X-10394Y-614350D01*
X-10319Y-614600D01*
X-10244Y-614775D01*
X-10169Y-614925D01*
X-10094Y-615050D01*
X-10044Y-615100D01*
X-10019Y-615125D01*
X-9844Y-615275D01*
X-9619Y-615375D01*
X-9369Y-615450D01*
X-9119Y-615500D01*
X-8894Y-615525D01*
X-8719Y-615550D01*
X-8119D01*
Y-616000D01*
X-15143D01*
Y-615550D01*
X-14718D01*
X-14343Y-615525D01*
X-14043Y-615475D01*
X-13793Y-615425D01*
X-13568Y-615325D01*
X-13418Y-615250D01*
X-13318Y-615200D01*
X-13243Y-615150D01*
X-13218Y-615125D01*
X-13068Y-614950D01*
X-12968Y-614725D01*
X-12868Y-614475D01*
X-12818Y-614250D01*
X-12793Y-614050D01*
X-12768Y-613851D01*
Y-613751D01*
Y-613701D01*
Y-608977D01*
X-13268Y-608952D01*
X-13718Y-608927D01*
X-14168Y-608877D01*
X-14568Y-608802D01*
X-14943Y-608727D01*
X-15267Y-608652D01*
X-15592Y-608577D01*
X-15867Y-608502D01*
X-16117Y-608427D01*
X-16342Y-608352D01*
X-16517Y-608277D01*
X-16667Y-608202D01*
X-16792Y-608152D01*
X-16867Y-608102D01*
X-16917Y-608077D01*
X-16942D01*
X-17467Y-607727D01*
X-17892Y-607377D01*
X-18242Y-607002D01*
X-18542Y-606652D01*
X-18742Y-606328D01*
X-18892Y-606077D01*
X-18942Y-605978D01*
X-18992Y-605903D01*
X-19016Y-605878D01*
Y-605853D01*
X-19092Y-605653D01*
X-19167Y-605403D01*
X-19291Y-604853D01*
X-19367Y-604253D01*
X-19441Y-603653D01*
X-19466Y-603103D01*
X-19491Y-602853D01*
Y-602653D01*
X-19516Y-602478D01*
Y-602354D01*
Y-602253D01*
Y-602229D01*
Y-601779D01*
X-19541Y-601404D01*
X-19591Y-601129D01*
X-19641Y-600904D01*
X-19666Y-600754D01*
X-19716Y-600654D01*
X-19741Y-600604D01*
Y-600579D01*
X-19866Y-600429D01*
X-20041Y-600304D01*
X-20241Y-600204D01*
X-20416Y-600154D01*
X-20591Y-600104D01*
X-20741Y-600079D01*
X-20841Y-600054D01*
X-20866D01*
Y-599604D01*
X-20366Y-599654D01*
X-19916Y-599729D01*
X-19516Y-599804D01*
X-19191Y-599929D01*
X-18942Y-600029D01*
X-18742Y-600104D01*
X-18642Y-600179D01*
X-18592Y-600204D01*
X-18292Y-600429D01*
X-18042Y-600654D01*
X-17842Y-600904D01*
X-17667Y-601129D01*
X-17542Y-601329D01*
X-17467Y-601504D01*
X-17417Y-601604D01*
X-17392Y-601654D01*
X-17317Y-601954D01*
X-17217Y-602304D01*
X-17167Y-602678D01*
X-17117Y-603053D01*
X-17067Y-603403D01*
X-17042Y-603678D01*
Y-603803D01*
X-17017Y-603878D01*
Y-603928D01*
Y-603953D01*
X-16967Y-604503D01*
X-16892Y-605003D01*
X-16817Y-605403D01*
X-16742Y-605728D01*
X-16642Y-606003D01*
X-16592Y-606177D01*
X-16542Y-606302D01*
X-16517Y-606328D01*
X-16342Y-606602D01*
X-16142Y-606852D01*
X-15917Y-607077D01*
X-15692Y-607277D01*
X-15493Y-607427D01*
X-15317Y-607527D01*
X-15217Y-607602D01*
X-15167Y-607627D01*
X-14793Y-607802D01*
X-14393Y-607927D01*
X-13993Y-608002D01*
X-13618Y-608052D01*
X-13268Y-608102D01*
X-13018Y-608127D01*
X-12768D01*
Y-602079D01*
X-12793Y-601729D01*
X-12843Y-601454D01*
X-12918Y-601204D01*
X-12993Y-601004D01*
X-13068Y-600854D01*
X-13143Y-600754D01*
X-13193Y-600704D01*
X-13218Y-600679D01*
X-13418Y-600529D01*
X-13643Y-600429D01*
X-13893Y-600329D01*
X-14143Y-600279D01*
X-14368Y-600254D01*
X-14543Y-600229D01*
X-15143D01*
Y-599779D01*
X-8119D01*
Y-600229D01*
X-8544D01*
X-8919Y-600254D01*
X-9219Y-600304D01*
X-9469Y-600379D01*
X-9669Y-600454D01*
X-9819Y-600529D01*
X-9944Y-600604D01*
X-9994Y-600654D01*
X-10019Y-600679D01*
X-10169Y-600854D01*
X-10269Y-601079D01*
X-10369Y-601304D01*
X-10419Y-601529D01*
X-10444Y-601754D01*
X-10469Y-601929D01*
Y-602029D01*
Y-602079D01*
Y-608127D01*
X-9944Y-608102D01*
X-9469Y-608052D01*
X-9069Y-607977D01*
X-8719Y-607877D01*
X-8419Y-607777D01*
X-8219Y-607702D01*
X-8094Y-607652D01*
X-8044Y-607627D01*
X-7719Y-607427D01*
X-7419Y-607202D01*
X-7195Y-606977D01*
X-6995Y-606777D01*
X-6845Y-606602D01*
X-6745Y-606452D01*
X-6695Y-606353D01*
X-6670Y-606328D01*
X-6545Y-606003D01*
X-6420Y-605653D01*
X-6345Y-605303D01*
X-6295Y-604953D01*
X-6245Y-604628D01*
X-6220Y-604378D01*
X-6195Y-604278D01*
Y-604203D01*
Y-604178D01*
Y-604153D01*
X-6145Y-603503D01*
X-6095Y-602928D01*
X-6020Y-602478D01*
X-5945Y-602104D01*
X-5870Y-601804D01*
X-5795Y-601604D01*
X-5770Y-601504D01*
X-5745Y-601454D01*
X-5595Y-601154D01*
X-5420Y-600904D01*
X-5220Y-600679D01*
X-5045Y-600504D01*
X-4870Y-600354D01*
X-4720Y-600229D01*
X-4620Y-600179D01*
X-4595Y-600154D01*
X-4270Y-600004D01*
X-3895Y-599879D01*
X-3521Y-599779D01*
X-3146Y-599704D01*
X-2821Y-599654D01*
X-2546Y-599629D01*
X-2446Y-599604D01*
X-2296D01*
Y-600054D01*
D02*
G37*
G36*
X14000Y-600229D02*
X13400D01*
X13075Y-600254D01*
X12800Y-600304D01*
X12575Y-600404D01*
X12375Y-600504D01*
X12226Y-600604D01*
X12100Y-600704D01*
X12050Y-600754D01*
X12026Y-600779D01*
X11976Y-600854D01*
X11901Y-600954D01*
X11826Y-601229D01*
X11751Y-601529D01*
X11726Y-601854D01*
X11701Y-602154D01*
X11676Y-602403D01*
Y-602503D01*
Y-602578D01*
Y-602628D01*
Y-602653D01*
Y-613126D01*
Y-613601D01*
X11726Y-613975D01*
X11751Y-614300D01*
X11801Y-614550D01*
X11851Y-614725D01*
X11901Y-614825D01*
X11925Y-614900D01*
X11951Y-614925D01*
X12150Y-615125D01*
X12375Y-615275D01*
X12600Y-615400D01*
X12850Y-615475D01*
X13050Y-615525D01*
X13225Y-615550D01*
X14000D01*
Y-616000D01*
X5852D01*
X5402Y-615975D01*
X4977Y-615950D01*
X4577Y-615925D01*
X4202Y-615875D01*
X3878Y-615850D01*
X3578Y-615800D01*
X3303Y-615750D01*
X3078Y-615700D01*
X2853Y-615650D01*
X2703Y-615625D01*
X2553Y-615575D01*
X2453Y-615550D01*
X2353Y-615525D01*
X2328Y-615500D01*
X2303D01*
X1828Y-615275D01*
X1403Y-615050D01*
X1053Y-614775D01*
X753Y-614500D01*
X503Y-614275D01*
X329Y-614076D01*
X228Y-613951D01*
X203Y-613900D01*
X-46Y-613476D01*
X-246Y-613051D01*
X-371Y-612651D01*
X-471Y-612301D01*
X-521Y-612001D01*
X-571Y-611751D01*
Y-611601D01*
Y-611576D01*
Y-611551D01*
Y-611251D01*
X-521Y-610976D01*
X-396Y-610476D01*
X-196Y-610001D01*
X4Y-609627D01*
X228Y-609302D01*
X428Y-609077D01*
X553Y-608927D01*
X578Y-608877D01*
X603D01*
X953Y-608602D01*
X1353Y-608377D01*
X1753Y-608177D01*
X2178Y-608002D01*
X2553Y-607877D01*
X2853Y-607802D01*
X2953Y-607777D01*
X3053Y-607752D01*
X3103Y-607727D01*
X3128D01*
X2628Y-607527D01*
X2178Y-607327D01*
X1803Y-607077D01*
X1478Y-606852D01*
X1253Y-606652D01*
X1078Y-606477D01*
X953Y-606377D01*
X928Y-606328D01*
X678Y-605953D01*
X503Y-605578D01*
X353Y-605203D01*
X279Y-604853D01*
X228Y-604578D01*
X179Y-604328D01*
Y-604178D01*
Y-604153D01*
Y-604128D01*
X228Y-603603D01*
X329Y-603128D01*
X479Y-602703D01*
X653Y-602328D01*
X828Y-602029D01*
X978Y-601804D01*
X1078Y-601654D01*
X1128Y-601604D01*
X1528Y-601229D01*
X1953Y-600904D01*
X2403Y-600629D01*
X2853Y-600429D01*
X3228Y-600279D01*
X3403Y-600204D01*
X3553Y-600154D01*
X3678Y-600129D01*
X3778Y-600104D01*
X3828Y-600079D01*
X3853D01*
X4327Y-599979D01*
X4852Y-599904D01*
X5377Y-599854D01*
X5877Y-599804D01*
X6327D01*
X6502Y-599779D01*
X14000D01*
Y-600229D01*
D02*
G37*
%LPC*%
G36*
X271895Y-22500D02*
X270105D01*
X268451Y-23185D01*
X267185Y-24451D01*
X266500Y-26105D01*
Y-27895D01*
X267185Y-29549D01*
X267686Y-30050D01*
Y-39867D01*
X266416Y-40716D01*
X265895Y-40500D01*
X264105D01*
X263524Y-40740D01*
X262861Y-40192D01*
X262500Y-39790D01*
Y-38105D01*
X261815Y-36451D01*
X260549Y-35185D01*
X258895Y-34500D01*
X257105D01*
X256525Y-34740D01*
X255860Y-34193D01*
X255500Y-33790D01*
Y-32105D01*
X254815Y-30451D01*
X253549Y-29185D01*
X251895Y-28500D01*
X250105D01*
X248451Y-29185D01*
X247185Y-30451D01*
X246500Y-32105D01*
Y-33895D01*
X247185Y-35549D01*
X247686Y-36050D01*
Y-171489D01*
X247367Y-171809D01*
X246649Y-172884D01*
X246396Y-174152D01*
Y-284292D01*
X239657Y-291031D01*
X238939Y-292106D01*
X238686Y-293374D01*
Y-338532D01*
X237834Y-339384D01*
X236564Y-338858D01*
Y-274138D01*
X239357Y-271345D01*
X240080Y-270263D01*
X240334Y-268987D01*
Y-233050D01*
X240815Y-232569D01*
X241500Y-230915D01*
Y-229125D01*
X240815Y-227470D01*
X239549Y-226205D01*
X237895Y-225520D01*
X236105D01*
X234451Y-226205D01*
X233185Y-227470D01*
X232500Y-229125D01*
Y-230915D01*
X233185Y-232569D01*
X233666Y-233050D01*
Y-267606D01*
X230872Y-270400D01*
X230150Y-271481D01*
X229896Y-272757D01*
Y-506230D01*
X230150Y-507506D01*
X230872Y-508587D01*
X233500Y-511215D01*
Y-511895D01*
X234185Y-513549D01*
X235451Y-514815D01*
X237105Y-515500D01*
X238895D01*
X240549Y-514815D01*
X241815Y-513549D01*
X242500Y-511895D01*
Y-510105D01*
X241815Y-508451D01*
X240549Y-507185D01*
X238895Y-506500D01*
X238215D01*
X236564Y-504849D01*
Y-354005D01*
X237620Y-353299D01*
X238105Y-353500D01*
X239895D01*
X241549Y-352815D01*
X242170Y-352194D01*
X243000Y-351667D01*
X243830Y-352194D01*
X244451Y-352815D01*
X246105Y-353500D01*
X247895D01*
X248765Y-353140D01*
X249786Y-352967D01*
X250644Y-353516D01*
X251315Y-354188D01*
X252969Y-354873D01*
X254759D01*
X256413Y-354188D01*
X257679Y-352922D01*
X258148Y-351789D01*
X259498Y-352348D01*
X261288D01*
X262942Y-351663D01*
X264208Y-350397D01*
X264893Y-348743D01*
Y-346953D01*
X264208Y-345299D01*
X263228Y-344319D01*
Y-341780D01*
X262976Y-340512D01*
X262258Y-339437D01*
X259448Y-336627D01*
Y-300602D01*
X273343Y-286707D01*
X274061Y-285632D01*
X274314Y-284364D01*
Y-236431D01*
X275584Y-235905D01*
X275918Y-236239D01*
X277755Y-237000D01*
X279745D01*
X281582Y-236239D01*
X282989Y-234832D01*
X283750Y-232995D01*
Y-231005D01*
X282989Y-229168D01*
X282733Y-228912D01*
Y-226953D01*
X283343Y-226343D01*
X284061Y-225268D01*
X284314Y-224000D01*
Y-185672D01*
X284061Y-184403D01*
X283343Y-183328D01*
X282353Y-182338D01*
Y-148193D01*
X283278Y-147268D01*
X284039Y-145430D01*
Y-143441D01*
X283278Y-141603D01*
X281872Y-140197D01*
X280034Y-139435D01*
X278045D01*
X276207Y-140197D01*
X275584Y-140820D01*
X274314Y-140294D01*
Y-30050D01*
X274815Y-29549D01*
X275500Y-27895D01*
Y-26105D01*
X274815Y-24451D01*
X273549Y-23185D01*
X271895Y-22500D01*
D02*
G37*
G36*
X809674Y-31000D02*
X806326D01*
X803041Y-31653D01*
X799948Y-32935D01*
X797163Y-34795D01*
X794795Y-37163D01*
X792935Y-39948D01*
X791653Y-43041D01*
X791000Y-46326D01*
Y-49674D01*
X791653Y-52959D01*
X792935Y-56052D01*
X794795Y-58837D01*
X797163Y-61205D01*
X799948Y-63065D01*
X803041Y-64347D01*
X806326Y-65000D01*
X809674D01*
X812959Y-64347D01*
X816052Y-63065D01*
X818837Y-61205D01*
X821205Y-58837D01*
X823065Y-56052D01*
X824347Y-52959D01*
X825000Y-49674D01*
Y-46326D01*
X824347Y-43041D01*
X823065Y-39948D01*
X821205Y-37163D01*
X818837Y-34795D01*
X816052Y-32935D01*
X812959Y-31653D01*
X809674Y-31000D01*
D02*
G37*
G36*
X109674D02*
X106326D01*
X103041Y-31653D01*
X99948Y-32935D01*
X97163Y-34795D01*
X94795Y-37163D01*
X92935Y-39948D01*
X91653Y-43041D01*
X91000Y-46326D01*
Y-49674D01*
X91653Y-52959D01*
X92935Y-56052D01*
X94795Y-58837D01*
X97163Y-61205D01*
X99948Y-63065D01*
X103041Y-64347D01*
X106326Y-65000D01*
X109674D01*
X112959Y-64347D01*
X116053Y-63065D01*
X118837Y-61205D01*
X121205Y-58837D01*
X123065Y-56052D01*
X124347Y-52959D01*
X125000Y-49674D01*
Y-46326D01*
X124347Y-43041D01*
X123065Y-39948D01*
X121205Y-37163D01*
X118837Y-34795D01*
X116053Y-32935D01*
X112959Y-31653D01*
X109674Y-31000D01*
D02*
G37*
G36*
X437000Y9588D02*
X436557Y9500D01*
X436105D01*
X435687Y9327D01*
X435244Y9239D01*
X434868Y8988D01*
X434451Y8815D01*
X434131Y8495D01*
X433756Y8244D01*
X433505Y7869D01*
X433185Y7549D01*
X433012Y7132D01*
X432761Y6756D01*
X432673Y6313D01*
X432500Y5895D01*
Y5443D01*
X432412Y5000D01*
X432500Y4557D01*
Y4105D01*
X432673Y3688D01*
X432761Y3244D01*
X433012Y2868D01*
X433185Y2451D01*
X433505Y2131D01*
X433756Y1756D01*
X495412Y-59900D01*
Y-82341D01*
X494142Y-82594D01*
X493565Y-81201D01*
X492299Y-79935D01*
X490645Y-79250D01*
X488855D01*
X487201Y-79935D01*
X485935Y-81201D01*
X485250Y-82855D01*
Y-84645D01*
X485935Y-86299D01*
X486181Y-86545D01*
Y-139455D01*
X485185Y-140451D01*
X484500Y-142105D01*
Y-143895D01*
X485185Y-145549D01*
X486451Y-146815D01*
X488105Y-147500D01*
X489895D01*
X491549Y-146815D01*
X492815Y-145549D01*
X493500Y-143895D01*
Y-142105D01*
X493319Y-141667D01*
Y-86545D01*
X493565Y-86299D01*
X494142Y-84906D01*
X495412Y-85159D01*
Y-266099D01*
X470756Y-290756D01*
X469761Y-292244D01*
X469412Y-294000D01*
Y-327000D01*
X469500Y-327443D01*
Y-327895D01*
X469673Y-328312D01*
X469761Y-328756D01*
X469981Y-329086D01*
Y-369315D01*
X458756Y-380541D01*
X457761Y-382029D01*
X457412Y-383785D01*
Y-476000D01*
X457500Y-476443D01*
Y-476895D01*
X457673Y-477313D01*
X457761Y-477756D01*
X458012Y-478132D01*
X458185Y-478549D01*
X458505Y-478868D01*
X458756Y-479244D01*
X459131Y-479495D01*
X459451Y-479815D01*
X459868Y-479988D01*
X460244Y-480239D01*
X460687Y-480327D01*
X461105Y-480500D01*
X461557D01*
X462000Y-480588D01*
X462443Y-480500D01*
X462895D01*
X463313Y-480327D01*
X463756Y-480239D01*
X464132Y-479988D01*
X464549Y-479815D01*
X464869Y-479495D01*
X465244Y-479244D01*
X465495Y-478868D01*
X465815Y-478549D01*
X465988Y-478132D01*
X466239Y-477756D01*
X466327Y-477313D01*
X466500Y-476895D01*
Y-476443D01*
X466588Y-476000D01*
Y-385685D01*
X477814Y-374459D01*
X478065Y-374084D01*
X478385Y-373764D01*
X478557Y-373347D01*
X478809Y-372971D01*
X478897Y-372528D01*
X479070Y-372110D01*
Y-371658D01*
X479158Y-371215D01*
Y-327570D01*
X478809Y-325814D01*
X478588Y-325484D01*
Y-295900D01*
X503244Y-271244D01*
X503495Y-270868D01*
X503815Y-270549D01*
X503988Y-270132D01*
X504239Y-269756D01*
X504327Y-269312D01*
X504500Y-268895D01*
Y-268443D01*
X504588Y-268000D01*
Y-58000D01*
X504239Y-56244D01*
X503244Y-54756D01*
X440244Y8244D01*
X439869Y8495D01*
X439549Y8815D01*
X439132Y8988D01*
X438756Y9239D01*
X438312Y9327D01*
X437895Y9500D01*
X437443D01*
X437000Y9588D01*
D02*
G37*
G36*
X127895Y-82500D02*
X126105D01*
X124451Y-83185D01*
X123185Y-84451D01*
X122500Y-86105D01*
Y-87895D01*
X123185Y-89549D01*
X123431Y-89795D01*
Y-137205D01*
X123185Y-137451D01*
X122500Y-139105D01*
Y-140895D01*
X123185Y-142549D01*
X124451Y-143815D01*
X126105Y-144500D01*
X127895D01*
X129549Y-143815D01*
X130815Y-142549D01*
X131500Y-140895D01*
Y-139105D01*
X130815Y-137451D01*
X130569Y-137205D01*
Y-89795D01*
X130815Y-89549D01*
X131500Y-87895D01*
Y-86105D01*
X130815Y-84451D01*
X129549Y-83185D01*
X127895Y-82500D01*
D02*
G37*
G36*
X216895Y-53500D02*
X215105D01*
X213451Y-54185D01*
X212185Y-55451D01*
X211500Y-57105D01*
Y-58895D01*
X211541Y-58993D01*
X211431Y-59541D01*
Y-139205D01*
X211185Y-139451D01*
X210500Y-141105D01*
Y-142895D01*
X211185Y-144549D01*
X212451Y-145815D01*
X214105Y-146500D01*
X215895D01*
X217549Y-145815D01*
X218815Y-144549D01*
X219500Y-142895D01*
Y-141105D01*
X218815Y-139451D01*
X218569Y-139205D01*
Y-61795D01*
X219815Y-60549D01*
X220500Y-58895D01*
Y-57105D01*
X219815Y-55451D01*
X218549Y-54185D01*
X216895Y-53500D01*
D02*
G37*
G36*
X757895Y-62500D02*
X756105D01*
X754451Y-63185D01*
X753185Y-64451D01*
X752500Y-66105D01*
Y-67895D01*
X753185Y-69549D01*
X754431Y-70795D01*
Y-140205D01*
X754185Y-140451D01*
X753500Y-142105D01*
Y-143895D01*
X754185Y-145549D01*
X755451Y-146815D01*
X757105Y-147500D01*
X758895D01*
X760549Y-146815D01*
X761815Y-145549D01*
X762500Y-143895D01*
Y-142105D01*
X761815Y-140451D01*
X761569Y-140205D01*
Y-68541D01*
X761460Y-67993D01*
X761500Y-67895D01*
Y-66105D01*
X760815Y-64451D01*
X759549Y-63185D01*
X757895Y-62500D01*
D02*
G37*
G36*
X666895Y-71500D02*
X665105D01*
X663451Y-72185D01*
X662185Y-73451D01*
X661500Y-75105D01*
Y-76895D01*
X662185Y-78549D01*
X662431Y-78795D01*
Y-140205D01*
X662185Y-140451D01*
X661500Y-142105D01*
Y-143895D01*
X662185Y-145549D01*
X663451Y-146815D01*
X665105Y-147500D01*
X666895D01*
X668549Y-146815D01*
X669815Y-145549D01*
X670500Y-143895D01*
Y-142105D01*
X669815Y-140451D01*
X669569Y-140205D01*
Y-78795D01*
X669815Y-78549D01*
X670500Y-76895D01*
Y-75105D01*
X669815Y-73451D01*
X668549Y-72185D01*
X666895Y-71500D01*
D02*
G37*
G36*
X576895Y-75500D02*
X575105D01*
X573451Y-76185D01*
X572185Y-77451D01*
X571500Y-79105D01*
Y-80895D01*
X572185Y-82549D01*
X573431Y-83795D01*
Y-140205D01*
X573185Y-140451D01*
X572500Y-142105D01*
Y-143895D01*
X573185Y-145549D01*
X574451Y-146815D01*
X576105Y-147500D01*
X577895D01*
X579549Y-146815D01*
X580815Y-145549D01*
X581500Y-143895D01*
Y-142105D01*
X580815Y-140451D01*
X580569Y-140205D01*
Y-81541D01*
X580460Y-80993D01*
X580500Y-80895D01*
Y-79105D01*
X579815Y-77451D01*
X578549Y-76185D01*
X576895Y-75500D01*
D02*
G37*
G36*
X397895Y-71500D02*
X396105D01*
X394451Y-72185D01*
X393185Y-73451D01*
X392500Y-75105D01*
Y-76895D01*
X393185Y-78549D01*
X393431Y-78795D01*
Y-140205D01*
X393185Y-140451D01*
X392500Y-142105D01*
Y-143895D01*
X393185Y-145549D01*
X394451Y-146815D01*
X396105Y-147500D01*
X397895D01*
X399549Y-146815D01*
X400815Y-145549D01*
X401500Y-143895D01*
Y-142105D01*
X400815Y-140451D01*
X400569Y-140205D01*
Y-78795D01*
X400815Y-78549D01*
X401500Y-76895D01*
Y-75105D01*
X400815Y-73451D01*
X399549Y-72185D01*
X397895Y-71500D01*
D02*
G37*
G36*
X309895Y-63500D02*
X308105D01*
X306451Y-64185D01*
X305185Y-65451D01*
X304500Y-67105D01*
Y-68895D01*
X305185Y-70549D01*
X305431Y-70795D01*
Y-140205D01*
X305185Y-140451D01*
X304500Y-142105D01*
Y-143895D01*
X305185Y-145549D01*
X306451Y-146815D01*
X308105Y-147500D01*
X309895D01*
X311549Y-146815D01*
X312815Y-145549D01*
X313500Y-143895D01*
Y-142105D01*
X312815Y-140451D01*
X312569Y-140205D01*
Y-70795D01*
X312815Y-70549D01*
X313500Y-68895D01*
Y-67105D01*
X312815Y-65451D01*
X311549Y-64185D01*
X309895Y-63500D01*
D02*
G37*
G36*
X239000Y-105412D02*
X238557Y-105500D01*
X238105D01*
X237687Y-105673D01*
X237244Y-105761D01*
X236868Y-106012D01*
X236451Y-106185D01*
X236131Y-106505D01*
X235756Y-106756D01*
X235505Y-107131D01*
X235185Y-107451D01*
X235012Y-107868D01*
X234761Y-108244D01*
X234673Y-108687D01*
X234500Y-109105D01*
Y-109557D01*
X234412Y-110000D01*
Y-153540D01*
X234500Y-153983D01*
Y-154435D01*
X234673Y-154853D01*
X234761Y-155296D01*
X235012Y-155672D01*
X235185Y-156089D01*
X235505Y-156409D01*
X235756Y-156784D01*
X236131Y-157035D01*
X236451Y-157355D01*
X236868Y-157528D01*
X237244Y-157779D01*
X237687Y-157867D01*
X238105Y-158040D01*
X238557D01*
X239000Y-158128D01*
X239443Y-158040D01*
X239895D01*
X240313Y-157867D01*
X240756Y-157779D01*
X241132Y-157528D01*
X241549Y-157355D01*
X241869Y-157035D01*
X242244Y-156784D01*
X242495Y-156409D01*
X242815Y-156089D01*
X242988Y-155672D01*
X243239Y-155296D01*
X243327Y-154853D01*
X243500Y-154435D01*
Y-153983D01*
X243588Y-153540D01*
Y-110000D01*
X243500Y-109557D01*
Y-109105D01*
X243327Y-108687D01*
X243239Y-108244D01*
X242988Y-107868D01*
X242815Y-107451D01*
X242495Y-107131D01*
X242244Y-106756D01*
X241869Y-106505D01*
X241549Y-106185D01*
X241132Y-106012D01*
X240756Y-105761D01*
X240313Y-105673D01*
X239895Y-105500D01*
X239443D01*
X239000Y-105412D01*
D02*
G37*
G36*
X322895Y-97500D02*
X321105D01*
X319451Y-98185D01*
X318185Y-99451D01*
X317500Y-101105D01*
Y-102895D01*
X318185Y-104549D01*
X319451Y-105815D01*
X321105Y-106500D01*
X321785D01*
X331666Y-116381D01*
Y-168970D01*
X331185Y-169451D01*
X330500Y-171105D01*
Y-172895D01*
X331185Y-174549D01*
X332451Y-175815D01*
X334105Y-176500D01*
X335895D01*
X337549Y-175815D01*
X338815Y-174549D01*
X339500Y-172895D01*
Y-171105D01*
X338815Y-169451D01*
X338334Y-168970D01*
Y-115000D01*
X338080Y-113724D01*
X337357Y-112642D01*
X326500Y-101785D01*
Y-101105D01*
X325815Y-99451D01*
X324549Y-98185D01*
X322895Y-97500D01*
D02*
G37*
G36*
X868500Y-137669D02*
X865867D01*
X863324Y-138351D01*
X861043Y-139668D01*
X859182Y-141529D01*
X857865Y-143810D01*
X857184Y-146353D01*
Y-148986D01*
X857865Y-151529D01*
X859182Y-153810D01*
X860016Y-154644D01*
X860112Y-154795D01*
X860655Y-155361D01*
X861093Y-155881D01*
X861471Y-156400D01*
X861791Y-156916D01*
X862057Y-157431D01*
X862269Y-157946D01*
X862433Y-158464D01*
X862549Y-158988D01*
X862595Y-159341D01*
Y-200998D01*
X862549Y-201351D01*
X862433Y-201875D01*
X862269Y-202393D01*
X862057Y-202908D01*
X861791Y-203423D01*
X861471Y-203939D01*
X861093Y-204458D01*
X860655Y-204979D01*
X860112Y-205544D01*
X860016Y-205695D01*
X859839Y-205872D01*
X858569Y-205346D01*
Y-169795D01*
X858815Y-169549D01*
X859500Y-167895D01*
Y-166105D01*
X858815Y-164451D01*
X857549Y-163185D01*
X855895Y-162500D01*
X854105D01*
X852451Y-163185D01*
X852262Y-163374D01*
X851185Y-162655D01*
X851500Y-161895D01*
Y-160105D01*
X850815Y-158451D01*
X849549Y-157185D01*
X847895Y-156500D01*
X846105D01*
X844451Y-157185D01*
X843185Y-158451D01*
X842500Y-160105D01*
Y-161895D01*
X843185Y-163549D01*
X843431Y-163795D01*
Y-174725D01*
X842258Y-175211D01*
X839500Y-172453D01*
Y-172105D01*
X838815Y-170451D01*
X837549Y-169185D01*
X835895Y-168500D01*
X834105D01*
X832451Y-169185D01*
X831185Y-170451D01*
X830500Y-172105D01*
Y-173895D01*
X830096Y-174500D01*
X829105D01*
X827451Y-175185D01*
X826696Y-175940D01*
X825426Y-175414D01*
Y-160137D01*
X825428Y-160114D01*
X825501Y-159778D01*
X825645Y-159368D01*
X825869Y-158890D01*
X826180Y-158349D01*
X826584Y-157754D01*
X827066Y-157127D01*
X828369Y-155673D01*
X829153Y-154895D01*
X829263Y-154732D01*
X830185Y-153810D01*
X831502Y-151529D01*
X832183Y-148986D01*
Y-146353D01*
X831502Y-143810D01*
X830185Y-141529D01*
X828324Y-139668D01*
X826043Y-138351D01*
X823500Y-137669D01*
X820867D01*
X818324Y-138351D01*
X816043Y-139668D01*
X814182Y-141529D01*
X812865Y-143810D01*
X812184Y-146353D01*
Y-148986D01*
X812865Y-151529D01*
X814182Y-153810D01*
X814952Y-154580D01*
X815051Y-154734D01*
X815829Y-155540D01*
X817121Y-157040D01*
X817602Y-157686D01*
X818004Y-158297D01*
X818315Y-158850D01*
X818540Y-159338D01*
X818683Y-159753D01*
X818756Y-160090D01*
X818758Y-160108D01*
Y-181878D01*
X818185Y-182451D01*
X817500Y-184105D01*
Y-185895D01*
X818185Y-187549D01*
X818758Y-188122D01*
Y-200231D01*
X818756Y-200249D01*
X818683Y-200586D01*
X818540Y-201001D01*
X818315Y-201489D01*
X818004Y-202042D01*
X817602Y-202653D01*
X817121Y-203299D01*
X815829Y-204799D01*
X815051Y-205605D01*
X814952Y-205759D01*
X814182Y-206529D01*
X813584Y-207565D01*
X812314Y-207225D01*
Y-194757D01*
X813658Y-193413D01*
X814419Y-191575D01*
Y-189586D01*
X813658Y-187748D01*
X812252Y-186342D01*
X810414Y-185581D01*
X808425D01*
X806587Y-186342D01*
X805181Y-187748D01*
X804419Y-189586D01*
Y-191575D01*
X805181Y-193413D01*
X805686Y-193919D01*
Y-261627D01*
X781314Y-286000D01*
X780005D01*
X778168Y-286761D01*
X776761Y-288168D01*
X776000Y-290005D01*
Y-291994D01*
X776761Y-293832D01*
X778168Y-295239D01*
X780005Y-296000D01*
X781994D01*
X783832Y-295239D01*
X785239Y-293832D01*
X786000Y-291994D01*
Y-290686D01*
X810913Y-265773D01*
X812184Y-266299D01*
Y-266486D01*
X812865Y-269029D01*
X814182Y-271310D01*
X815026Y-272154D01*
X815132Y-272315D01*
X815913Y-273107D01*
X817211Y-274584D01*
X817692Y-275220D01*
X818095Y-275824D01*
X818407Y-276370D01*
X818631Y-276854D01*
X818774Y-277266D01*
X818848Y-277603D01*
X818849Y-277623D01*
Y-299287D01*
X818277Y-299859D01*
X817592Y-301513D01*
Y-303303D01*
X818277Y-304957D01*
X818849Y-305530D01*
Y-317716D01*
X818848Y-317737D01*
X818774Y-318073D01*
X818631Y-318486D01*
X818407Y-318969D01*
X818095Y-319515D01*
X817692Y-320119D01*
X817211Y-320755D01*
X815913Y-322233D01*
X815132Y-323024D01*
X815026Y-323185D01*
X814182Y-324030D01*
X812865Y-326310D01*
X812184Y-328853D01*
Y-331486D01*
X812865Y-334029D01*
X814182Y-336310D01*
X816043Y-338172D01*
X818324Y-339488D01*
X820867Y-340170D01*
X823500D01*
X826043Y-339488D01*
X828324Y-338172D01*
X830185Y-336310D01*
X831161Y-334619D01*
X832431Y-334959D01*
Y-340205D01*
X832185Y-340451D01*
X831500Y-342105D01*
Y-343895D01*
X832185Y-345549D01*
X833451Y-346815D01*
X835105Y-347500D01*
X836895D01*
X838549Y-346815D01*
X839815Y-345549D01*
X840500Y-343895D01*
Y-342105D01*
X839815Y-340451D01*
X839569Y-340205D01*
Y-314592D01*
X840839Y-313976D01*
X842105Y-314500D01*
X843895D01*
X845549Y-313815D01*
X846815Y-312549D01*
X847500Y-310895D01*
Y-309105D01*
X846815Y-307451D01*
X846569Y-307205D01*
Y-287729D01*
X847839Y-287202D01*
X848451Y-287815D01*
X850105Y-288500D01*
X851895D01*
X853549Y-287815D01*
X854815Y-286549D01*
X855500Y-284895D01*
Y-283105D01*
X854815Y-281451D01*
X854569Y-281205D01*
Y-232719D01*
X854921Y-232358D01*
X855710Y-231922D01*
X857105Y-232500D01*
X858895D01*
X860549Y-231815D01*
X861325Y-231039D01*
X862595Y-231565D01*
Y-253498D01*
X862549Y-253851D01*
X862433Y-254375D01*
X862269Y-254893D01*
X862057Y-255408D01*
X861791Y-255923D01*
X861471Y-256439D01*
X861093Y-256958D01*
X860655Y-257479D01*
X860112Y-258044D01*
X860016Y-258195D01*
X859182Y-259029D01*
X857865Y-261310D01*
X857184Y-263853D01*
Y-266486D01*
X857865Y-269029D01*
X859182Y-271310D01*
X860016Y-272144D01*
X860112Y-272295D01*
X860655Y-272861D01*
X861093Y-273381D01*
X861471Y-273900D01*
X861791Y-274416D01*
X862057Y-274931D01*
X862269Y-275446D01*
X862433Y-275964D01*
X862549Y-276488D01*
X862595Y-276841D01*
Y-318498D01*
X862549Y-318851D01*
X862433Y-319375D01*
X862269Y-319893D01*
X862057Y-320408D01*
X861791Y-320923D01*
X861471Y-321439D01*
X861093Y-321958D01*
X860655Y-322479D01*
X860112Y-323045D01*
X860016Y-323195D01*
X859182Y-324030D01*
X857865Y-326310D01*
X857184Y-328853D01*
Y-331486D01*
X857865Y-334029D01*
X859182Y-336310D01*
X860238Y-337366D01*
X860336Y-337510D01*
X860888Y-338052D01*
X861331Y-338551D01*
X861712Y-339049D01*
X862035Y-339547D01*
X862301Y-340045D01*
X862516Y-340546D01*
X862680Y-341053D01*
X862798Y-341569D01*
X862845Y-341925D01*
Y-371093D01*
X862801Y-371441D01*
X862686Y-371973D01*
X862524Y-372501D01*
X862313Y-373030D01*
X862050Y-373561D01*
X861734Y-374096D01*
X861360Y-374635D01*
X860927Y-375178D01*
X860395Y-375767D01*
X860322Y-375889D01*
X859681Y-376529D01*
X858365Y-378810D01*
X857683Y-381353D01*
Y-383986D01*
X858365Y-386529D01*
X859681Y-388810D01*
X860516Y-389644D01*
X860612Y-389795D01*
X861155Y-390361D01*
X861593Y-390881D01*
X861971Y-391400D01*
X862291Y-391916D01*
X862557Y-392431D01*
X862769Y-392946D01*
X862933Y-393464D01*
X863049Y-393988D01*
X863095Y-394341D01*
Y-406000D01*
Y-435998D01*
X863049Y-436351D01*
X862933Y-436875D01*
X862769Y-437393D01*
X862557Y-437908D01*
X862291Y-438423D01*
X861971Y-438939D01*
X861593Y-439458D01*
X861155Y-439978D01*
X860612Y-440545D01*
X860516Y-440695D01*
X859681Y-441529D01*
X858365Y-443810D01*
X857683Y-446353D01*
Y-448986D01*
X858365Y-451529D01*
X859681Y-453810D01*
X861543Y-455672D01*
X863824Y-456988D01*
X866367Y-457669D01*
X869000D01*
X871543Y-456988D01*
X873824Y-455672D01*
X875685Y-453810D01*
X877002Y-451529D01*
X877683Y-448986D01*
Y-446353D01*
X877002Y-443810D01*
X875685Y-441529D01*
X874851Y-440695D01*
X874755Y-440545D01*
X874212Y-439978D01*
X873773Y-439458D01*
X873395Y-438939D01*
X873075Y-438423D01*
X872810Y-437908D01*
X872598Y-437393D01*
X872434Y-436875D01*
X872318Y-436351D01*
X872272Y-435998D01*
Y-406000D01*
Y-394341D01*
X872318Y-393988D01*
X872434Y-393464D01*
X872598Y-392946D01*
X872810Y-392431D01*
X873075Y-391916D01*
X873395Y-391400D01*
X873773Y-390881D01*
X874212Y-390361D01*
X874755Y-389795D01*
X874851Y-389644D01*
X875685Y-388810D01*
X877002Y-386529D01*
X877683Y-383986D01*
Y-381353D01*
X877002Y-378810D01*
X875685Y-376529D01*
X874629Y-375473D01*
X874531Y-375329D01*
X873978Y-374787D01*
X873536Y-374288D01*
X873155Y-373790D01*
X872832Y-373293D01*
X872566Y-372794D01*
X872351Y-372293D01*
X872187Y-371786D01*
X872069Y-371270D01*
X872022Y-370914D01*
Y-341746D01*
X872066Y-341398D01*
X872181Y-340866D01*
X872343Y-340338D01*
X872554Y-339809D01*
X872816Y-339278D01*
X873133Y-338743D01*
X873507Y-338204D01*
X873939Y-337662D01*
X874472Y-337072D01*
X874545Y-336950D01*
X875185Y-336310D01*
X876502Y-334029D01*
X877183Y-331486D01*
Y-328853D01*
X876502Y-326310D01*
X875185Y-324030D01*
X874351Y-323195D01*
X874255Y-323045D01*
X873711Y-322478D01*
X873273Y-321958D01*
X872896Y-321439D01*
X872576Y-320923D01*
X872310Y-320408D01*
X872097Y-319893D01*
X871934Y-319375D01*
X871818Y-318851D01*
X871772Y-318498D01*
Y-276841D01*
X871818Y-276488D01*
X871934Y-275964D01*
X872097Y-275446D01*
X872310Y-274931D01*
X872576Y-274416D01*
X872896Y-273900D01*
X873273Y-273381D01*
X873712Y-272861D01*
X874255Y-272295D01*
X874351Y-272144D01*
X875185Y-271310D01*
X876502Y-269029D01*
X877183Y-266486D01*
Y-263853D01*
X876502Y-261310D01*
X875185Y-259029D01*
X874351Y-258195D01*
X874255Y-258044D01*
X873711Y-257478D01*
X873273Y-256958D01*
X872896Y-256439D01*
X872576Y-255923D01*
X872310Y-255408D01*
X872097Y-254893D01*
X871934Y-254375D01*
X871818Y-253851D01*
X871772Y-253498D01*
Y-224341D01*
X871818Y-223988D01*
X871934Y-223464D01*
X872097Y-222946D01*
X872310Y-222431D01*
X872576Y-221916D01*
X872896Y-221400D01*
X873273Y-220881D01*
X873712Y-220361D01*
X874255Y-219795D01*
X874351Y-219644D01*
X875185Y-218810D01*
X876502Y-216529D01*
X877183Y-213986D01*
Y-211353D01*
X876502Y-208810D01*
X875185Y-206529D01*
X874351Y-205695D01*
X874255Y-205544D01*
X873711Y-204978D01*
X873273Y-204458D01*
X872896Y-203939D01*
X872576Y-203423D01*
X872310Y-202908D01*
X872097Y-202393D01*
X871934Y-201875D01*
X871818Y-201351D01*
X871772Y-200998D01*
Y-159341D01*
X871818Y-158988D01*
X871934Y-158464D01*
X872097Y-157946D01*
X872310Y-157431D01*
X872576Y-156916D01*
X872896Y-156400D01*
X873273Y-155881D01*
X873712Y-155360D01*
X874255Y-154795D01*
X874351Y-154644D01*
X875185Y-153810D01*
X876502Y-151529D01*
X877183Y-148986D01*
Y-146353D01*
X876502Y-143810D01*
X875185Y-141529D01*
X873324Y-139668D01*
X871043Y-138351D01*
X868500Y-137669D01*
D02*
G37*
G36*
X292530Y-195365D02*
X290740D01*
X289086Y-196050D01*
X287820Y-197316D01*
X287135Y-198970D01*
Y-200760D01*
X287820Y-202414D01*
X289086Y-203680D01*
X290740Y-204365D01*
X292089D01*
X293159Y-205080D01*
X294435Y-205334D01*
X309970D01*
X310451Y-205815D01*
X312105Y-206500D01*
X313895D01*
X315549Y-205815D01*
X316815Y-204549D01*
X317500Y-202895D01*
Y-201105D01*
X316815Y-199451D01*
X315549Y-198185D01*
X313895Y-197500D01*
X312105D01*
X310451Y-198185D01*
X309970Y-198666D01*
X296009D01*
X295450Y-197316D01*
X294184Y-196050D01*
X292530Y-195365D01*
D02*
G37*
G36*
X179495Y-234500D02*
X177505D01*
X175668Y-235261D01*
X174261Y-236668D01*
X173500Y-238505D01*
Y-239453D01*
X150452Y-262501D01*
X121287D01*
X120617Y-261831D01*
X118779Y-261070D01*
X116790D01*
X114952Y-261831D01*
X113546Y-263237D01*
X112785Y-265075D01*
Y-267064D01*
X113546Y-268902D01*
X114952Y-270308D01*
X116790Y-271070D01*
X118779D01*
X120617Y-270308D01*
X121287Y-269638D01*
X151930D01*
X153296Y-269366D01*
X154454Y-268593D01*
X178547Y-244500D01*
X179495D01*
X181332Y-243739D01*
X182739Y-242332D01*
X183500Y-240495D01*
Y-238505D01*
X182739Y-236668D01*
X181332Y-235261D01*
X179495Y-234500D01*
D02*
G37*
G36*
X901740Y-249337D02*
X898975D01*
X896305Y-250053D01*
X893910Y-251435D01*
X891955Y-253390D01*
X890573Y-255784D01*
X889857Y-258455D01*
Y-261220D01*
X890573Y-263890D01*
X891955Y-266284D01*
X893910Y-268239D01*
X896305Y-269622D01*
X898975Y-270337D01*
X901740D01*
X904410Y-269622D01*
X906805Y-268239D01*
X908760Y-266284D01*
X910142Y-263890D01*
X910857Y-261220D01*
Y-258455D01*
X910142Y-255784D01*
X908760Y-253390D01*
X906805Y-251435D01*
X904410Y-250053D01*
X901740Y-249337D01*
D02*
G37*
G36*
X31240D02*
X28475D01*
X25805Y-250053D01*
X23410Y-251435D01*
X21455Y-253390D01*
X20073Y-255784D01*
X19358Y-258455D01*
Y-261220D01*
X20073Y-263890D01*
X21455Y-266284D01*
X23410Y-268239D01*
X25805Y-269622D01*
X28475Y-270337D01*
X31240D01*
X33910Y-269622D01*
X36305Y-268239D01*
X38260Y-266284D01*
X39642Y-263890D01*
X40357Y-261220D01*
Y-258455D01*
X39642Y-255784D01*
X38260Y-253390D01*
X36305Y-251435D01*
X33910Y-250053D01*
X31240Y-249337D01*
D02*
G37*
G36*
X536895Y-173250D02*
X535105D01*
X533451Y-173935D01*
X532185Y-175201D01*
X531500Y-176855D01*
Y-178645D01*
X532185Y-180299D01*
X532431Y-180545D01*
Y-259200D01*
X532703Y-260566D01*
X533477Y-261723D01*
X536500Y-264747D01*
Y-265095D01*
X537185Y-266749D01*
X537431Y-266995D01*
Y-267418D01*
X537703Y-268783D01*
X538477Y-269941D01*
X539634Y-270714D01*
X541000Y-270986D01*
X542366Y-270714D01*
X543523Y-269941D01*
X544297Y-268783D01*
X544569Y-267418D01*
Y-266995D01*
X544815Y-266749D01*
X545500Y-265095D01*
Y-263305D01*
X544815Y-261651D01*
X543549Y-260385D01*
X541895Y-259700D01*
X541547D01*
X539569Y-257722D01*
Y-180545D01*
X539815Y-180299D01*
X540500Y-178645D01*
Y-176855D01*
X539815Y-175201D01*
X538549Y-173935D01*
X536895Y-173250D01*
D02*
G37*
G36*
X613000Y-106662D02*
X612557Y-106750D01*
X612105D01*
X611687Y-106923D01*
X611244Y-107011D01*
X610868Y-107262D01*
X610451Y-107435D01*
X610131Y-107755D01*
X609756Y-108006D01*
X609505Y-108382D01*
X609185Y-108701D01*
X609012Y-109118D01*
X608761Y-109494D01*
X608673Y-109937D01*
X608500Y-110355D01*
Y-110807D01*
X608412Y-111250D01*
Y-222000D01*
X608761Y-223756D01*
X609756Y-225244D01*
X616412Y-231901D01*
Y-279666D01*
X576030D01*
X575549Y-279185D01*
X573895Y-278500D01*
X572105D01*
X570451Y-279185D01*
X569185Y-280451D01*
X568500Y-282105D01*
Y-283895D01*
X569185Y-285549D01*
X570451Y-286815D01*
X572105Y-287500D01*
X573895D01*
X575549Y-286815D01*
X576030Y-286334D01*
X617890D01*
X618131Y-286495D01*
X618451Y-286815D01*
X618868Y-286988D01*
X619244Y-287239D01*
X619687Y-287327D01*
X620105Y-287500D01*
X620557D01*
X621000Y-287588D01*
X621443Y-287500D01*
X621895D01*
X622313Y-287327D01*
X622756Y-287239D01*
X623132Y-286988D01*
X623549Y-286815D01*
X623869Y-286495D01*
X624244Y-286244D01*
X624495Y-285868D01*
X624815Y-285549D01*
X624988Y-285132D01*
X625239Y-284756D01*
X625327Y-284313D01*
X625500Y-283895D01*
Y-283443D01*
X625588Y-283000D01*
Y-230000D01*
X625239Y-228244D01*
X624244Y-226756D01*
X617588Y-220100D01*
Y-111250D01*
X617500Y-110807D01*
Y-110355D01*
X617327Y-109937D01*
X617239Y-109494D01*
X616988Y-109118D01*
X616815Y-108701D01*
X616495Y-108382D01*
X616244Y-108006D01*
X615868Y-107755D01*
X615549Y-107435D01*
X615132Y-107262D01*
X614756Y-107011D01*
X614313Y-106923D01*
X613895Y-106750D01*
X613443D01*
X613000Y-106662D01*
D02*
G37*
G36*
X388645Y-265200D02*
X386855D01*
X386198Y-265472D01*
X386017Y-265508D01*
X385863Y-265611D01*
X385201Y-265885D01*
X383935Y-267151D01*
X383250Y-268805D01*
Y-270595D01*
X383935Y-272249D01*
X383971Y-272285D01*
Y-282889D01*
X382701Y-283415D01*
X382117Y-282831D01*
X380279Y-282070D01*
X378290D01*
X376452Y-282831D01*
X375046Y-284237D01*
X374285Y-286075D01*
Y-288064D01*
X374697Y-289058D01*
Y-337669D01*
X358610Y-353756D01*
X333756Y-378610D01*
X332761Y-380099D01*
X332412Y-381854D01*
Y-410570D01*
Y-475000D01*
X332500Y-475443D01*
Y-475895D01*
X332673Y-476312D01*
X332761Y-476756D01*
X333012Y-477132D01*
X333185Y-477549D01*
X333505Y-477868D01*
X333756Y-478244D01*
X353497Y-497985D01*
Y-532058D01*
X353440Y-532464D01*
X353310Y-533018D01*
X353125Y-533574D01*
X352883Y-534135D01*
X352581Y-534702D01*
X352214Y-535277D01*
X351781Y-535860D01*
X351279Y-536449D01*
X350666Y-537084D01*
X350569Y-537236D01*
X349683Y-538122D01*
X348300Y-540517D01*
X347585Y-543187D01*
Y-545952D01*
X348300Y-548622D01*
X349683Y-551017D01*
X351638Y-552972D01*
X354032Y-554354D01*
X356702Y-555070D01*
X359467D01*
X362138Y-554354D01*
X364532Y-552972D01*
X366487Y-551017D01*
X367869Y-548622D01*
X368585Y-545952D01*
Y-543187D01*
X367869Y-540517D01*
X366487Y-538122D01*
X365601Y-537236D01*
X365503Y-537084D01*
X364891Y-536449D01*
X364389Y-535860D01*
X363955Y-535277D01*
X363589Y-534702D01*
X363286Y-534135D01*
X363044Y-533574D01*
X362859Y-533018D01*
X362729Y-532464D01*
X362673Y-532058D01*
Y-496085D01*
X362324Y-494329D01*
X361329Y-492840D01*
X341588Y-473100D01*
Y-410570D01*
Y-383755D01*
X365099Y-360244D01*
X382529Y-342814D01*
X383524Y-341325D01*
X383873Y-339570D01*
Y-312181D01*
X385143Y-311553D01*
X386390Y-312070D01*
X388180D01*
X389834Y-311385D01*
X391100Y-310119D01*
X391785Y-308465D01*
Y-306674D01*
X391100Y-305021D01*
X390598Y-304519D01*
Y-273216D01*
X391565Y-272249D01*
X392250Y-270595D01*
Y-268805D01*
X391565Y-267151D01*
X390299Y-265885D01*
X389820Y-265687D01*
X389553Y-265508D01*
X389238Y-265445D01*
X388645Y-265200D01*
D02*
G37*
G36*
X31311Y-274197D02*
X31128D01*
Y-283967D01*
X40897D01*
Y-283784D01*
X40145Y-280976D01*
X38692Y-278458D01*
X36636Y-276403D01*
X34119Y-274949D01*
X31311Y-274197D01*
D02*
G37*
G36*
X28588D02*
X28404D01*
X25596Y-274949D01*
X23079Y-276403D01*
X21023Y-278458D01*
X19570Y-280976D01*
X18817Y-283784D01*
Y-283967D01*
X28588D01*
Y-274197D01*
D02*
G37*
G36*
X901740Y-274737D02*
X898975D01*
X896305Y-275453D01*
X893910Y-276835D01*
X891955Y-278790D01*
X890573Y-281184D01*
X889857Y-283855D01*
Y-286619D01*
X890573Y-289290D01*
X891955Y-291684D01*
X893910Y-293639D01*
X896305Y-295022D01*
X898975Y-295737D01*
X901740D01*
X904410Y-295022D01*
X906805Y-293639D01*
X908760Y-291684D01*
X910142Y-289290D01*
X910857Y-286619D01*
Y-283855D01*
X910142Y-281184D01*
X908760Y-278790D01*
X906805Y-276835D01*
X904410Y-275453D01*
X901740Y-274737D01*
D02*
G37*
G36*
X40897Y-286507D02*
X31128D01*
Y-296277D01*
X31311D01*
X34119Y-295525D01*
X36636Y-294071D01*
X38692Y-292016D01*
X40145Y-289498D01*
X40897Y-286691D01*
Y-286507D01*
D02*
G37*
G36*
X28588D02*
X18817D01*
Y-286691D01*
X19570Y-289498D01*
X21023Y-292016D01*
X23079Y-294071D01*
X25596Y-295525D01*
X28404Y-296277D01*
X28588D01*
Y-286507D01*
D02*
G37*
G36*
X51895Y-98500D02*
X50105D01*
X48451Y-99185D01*
X47185Y-100451D01*
X46500Y-102105D01*
Y-103895D01*
X47185Y-105549D01*
X47666Y-106030D01*
Y-187970D01*
X47185Y-188451D01*
X46500Y-190105D01*
Y-191895D01*
X47185Y-193549D01*
X48451Y-194815D01*
X50105Y-195500D01*
X51895D01*
X53549Y-194815D01*
X54815Y-193549D01*
X55142Y-192760D01*
X56412Y-193012D01*
Y-304100D01*
X54462Y-306049D01*
X42369D01*
X41963Y-305992D01*
X41409Y-305862D01*
X40853Y-305678D01*
X40293Y-305436D01*
X39725Y-305133D01*
X39150Y-304766D01*
X38567Y-304333D01*
X37978Y-303831D01*
X37343Y-303219D01*
X37191Y-303121D01*
X36305Y-302235D01*
X33910Y-300853D01*
X31240Y-300137D01*
X28475D01*
X25805Y-300853D01*
X23410Y-302235D01*
X21455Y-304190D01*
X20073Y-306584D01*
X19358Y-309255D01*
Y-312020D01*
X20073Y-314690D01*
X21455Y-317084D01*
X23410Y-319039D01*
X25805Y-320422D01*
X28475Y-321137D01*
X31240D01*
X33910Y-320422D01*
X36305Y-319039D01*
X37191Y-318153D01*
X37343Y-318055D01*
X37978Y-317443D01*
X38567Y-316941D01*
X39150Y-316508D01*
X39725Y-316141D01*
X40293Y-315839D01*
X40853Y-315596D01*
X41409Y-315412D01*
X41963Y-315282D01*
X42369Y-315225D01*
X54462D01*
X56412Y-317175D01*
Y-460000D01*
X56761Y-461756D01*
X57756Y-463244D01*
X63756Y-469244D01*
X64131Y-469495D01*
X64451Y-469815D01*
X64868Y-469988D01*
X65244Y-470239D01*
X65687Y-470327D01*
X66105Y-470500D01*
X66557D01*
X67000Y-470588D01*
X67443Y-470500D01*
X67895D01*
X68313Y-470327D01*
X68756Y-470239D01*
X69132Y-469988D01*
X69549Y-469815D01*
X69868Y-469495D01*
X70244Y-469244D01*
X70495Y-468868D01*
X70815Y-468549D01*
X70988Y-468132D01*
X71239Y-467756D01*
X71327Y-467313D01*
X71500Y-466895D01*
Y-466443D01*
X71588Y-466000D01*
X71500Y-465557D01*
Y-465105D01*
X71327Y-464687D01*
X71239Y-464244D01*
X70988Y-463868D01*
X70815Y-463451D01*
X70495Y-463131D01*
X70244Y-462756D01*
X65588Y-458100D01*
Y-315274D01*
X65239Y-313519D01*
X64244Y-312030D01*
X62852Y-310637D01*
X64244Y-309244D01*
X65239Y-307756D01*
X65588Y-306000D01*
Y-114901D01*
X66244Y-114244D01*
X66495Y-113869D01*
X66815Y-113549D01*
X66988Y-113132D01*
X67239Y-112756D01*
X67327Y-112312D01*
X67500Y-111895D01*
Y-111443D01*
X67588Y-111000D01*
X67500Y-110557D01*
Y-110105D01*
X67327Y-109687D01*
X67239Y-109244D01*
X66988Y-108868D01*
X66815Y-108451D01*
X66495Y-108131D01*
X66244Y-107756D01*
X65869Y-107505D01*
X65549Y-107185D01*
X65132Y-107012D01*
X64756Y-106761D01*
X64313Y-106673D01*
X63895Y-106500D01*
X63443D01*
X63000Y-106412D01*
X62557Y-106500D01*
X62105D01*
X61687Y-106673D01*
X61244Y-106761D01*
X60868Y-107012D01*
X60451Y-107185D01*
X60132Y-107505D01*
X59756Y-107756D01*
X57756Y-109756D01*
X56761Y-111244D01*
X56412Y-113000D01*
Y-188988D01*
X55142Y-189240D01*
X54815Y-188451D01*
X54334Y-187970D01*
Y-106030D01*
X54815Y-105549D01*
X55500Y-103895D01*
Y-102105D01*
X54815Y-100451D01*
X53549Y-99185D01*
X51895Y-98500D01*
D02*
G37*
G36*
X901740Y-300137D02*
X898975D01*
X896305Y-300853D01*
X893910Y-302235D01*
X891955Y-304190D01*
X890573Y-306584D01*
X889857Y-309255D01*
Y-312020D01*
X890573Y-314690D01*
X891955Y-317084D01*
X893910Y-319039D01*
X896305Y-320422D01*
X898975Y-321137D01*
X901740D01*
X904410Y-320422D01*
X906805Y-319039D01*
X908760Y-317084D01*
X910142Y-314690D01*
X910857Y-312020D01*
Y-309255D01*
X910142Y-306584D01*
X908760Y-304190D01*
X906805Y-302235D01*
X904410Y-300853D01*
X901740Y-300137D01*
D02*
G37*
G36*
X120779Y-309570D02*
X118790D01*
X116952Y-310331D01*
X115546Y-311737D01*
X114785Y-313575D01*
Y-315564D01*
X115546Y-317402D01*
X116952Y-318808D01*
X118790Y-319570D01*
X119738D01*
X120261Y-320093D01*
X121419Y-320867D01*
X122785Y-321138D01*
X186782D01*
X187453Y-321808D01*
X189290Y-322570D01*
X191279D01*
X193117Y-321808D01*
X194524Y-320402D01*
X195285Y-318564D01*
Y-316575D01*
X194524Y-314737D01*
X193117Y-313331D01*
X191279Y-312570D01*
X189290D01*
X187453Y-313331D01*
X186782Y-314001D01*
X124785D01*
Y-313575D01*
X124024Y-311737D01*
X122617Y-310331D01*
X120779Y-309570D01*
D02*
G37*
G36*
X400895Y-310500D02*
X399105D01*
X397451Y-311185D01*
X396185Y-312451D01*
X395500Y-314105D01*
Y-315895D01*
X396185Y-317549D01*
X396666Y-318030D01*
Y-343171D01*
X395396Y-343423D01*
X394815Y-342021D01*
X393549Y-340755D01*
X391895Y-340070D01*
X390105D01*
X388451Y-340755D01*
X387185Y-342021D01*
X386500Y-343675D01*
Y-345465D01*
X387185Y-347119D01*
X388451Y-348385D01*
X390105Y-349070D01*
X390366D01*
Y-420474D01*
X390120Y-420720D01*
X389435Y-422374D01*
Y-424165D01*
X390120Y-425819D01*
X390366Y-426065D01*
Y-443312D01*
X389096Y-443838D01*
X388364Y-443106D01*
X386779Y-442190D01*
X385010Y-441717D01*
X383179D01*
X381411Y-442190D01*
X379826Y-443106D01*
X378531Y-444400D01*
X377616Y-445986D01*
X377142Y-447754D01*
Y-449585D01*
X377616Y-451353D01*
X378531Y-452939D01*
X379826Y-454233D01*
X381411Y-455149D01*
X383179Y-455623D01*
X385010D01*
X386779Y-455149D01*
X388364Y-454233D01*
X389096Y-453501D01*
X390366Y-454027D01*
Y-463587D01*
X380961Y-472992D01*
X380188Y-474150D01*
X379916Y-475515D01*
Y-531440D01*
X379916Y-531443D01*
X379834Y-531842D01*
X379680Y-532307D01*
X379445Y-532834D01*
X379122Y-533420D01*
X378708Y-534058D01*
X378214Y-534723D01*
X376882Y-536255D01*
X376081Y-537069D01*
X375977Y-537229D01*
X375083Y-538122D01*
X373700Y-540517D01*
X372985Y-543187D01*
Y-545952D01*
X373700Y-548622D01*
X375083Y-551017D01*
X377038Y-552972D01*
X379432Y-554354D01*
X382102Y-555070D01*
X384867D01*
X387538Y-554354D01*
X389932Y-552972D01*
X391887Y-551017D01*
X393269Y-548622D01*
X393985Y-545952D01*
Y-543187D01*
X393269Y-540517D01*
X391887Y-538122D01*
X391007Y-537242D01*
X390915Y-537097D01*
X389360Y-535455D01*
X388770Y-534743D01*
X388262Y-534058D01*
X387847Y-533420D01*
X387524Y-532834D01*
X387290Y-532307D01*
X387136Y-531842D01*
X387054Y-531443D01*
X387053Y-531440D01*
Y-476993D01*
X395396Y-468651D01*
X396666Y-469177D01*
Y-516000D01*
X396920Y-517276D01*
X397643Y-518358D01*
X405551Y-526266D01*
Y-531295D01*
X405547Y-531345D01*
X405466Y-531704D01*
X405307Y-532149D01*
X405060Y-532671D01*
X404716Y-533263D01*
X404274Y-533916D01*
X403745Y-534608D01*
X402333Y-536207D01*
X401484Y-537066D01*
X401378Y-537227D01*
X400483Y-538122D01*
X399100Y-540517D01*
X398385Y-543187D01*
Y-545952D01*
X399100Y-548622D01*
X400483Y-551017D01*
X402438Y-552972D01*
X404832Y-554354D01*
X407502Y-555070D01*
X410267D01*
X412938Y-554354D01*
X415332Y-552972D01*
X417287Y-551017D01*
X418669Y-548622D01*
X419385Y-545952D01*
Y-543187D01*
X418669Y-540517D01*
X417287Y-538122D01*
X416392Y-537227D01*
X416285Y-537066D01*
X415436Y-536207D01*
X414024Y-534608D01*
X413495Y-533916D01*
X413053Y-533263D01*
X412710Y-532671D01*
X412463Y-532149D01*
X412304Y-531704D01*
X412223Y-531345D01*
X412219Y-531295D01*
Y-524885D01*
X411965Y-523609D01*
X411242Y-522527D01*
X403334Y-514619D01*
Y-414030D01*
X403815Y-413549D01*
X404500Y-411895D01*
Y-410105D01*
X403815Y-408451D01*
X403334Y-407970D01*
Y-318030D01*
X403815Y-317549D01*
X404500Y-315895D01*
Y-314105D01*
X403815Y-312451D01*
X402549Y-311185D01*
X400895Y-310500D01*
D02*
G37*
G36*
X910857Y-325537D02*
X889857D01*
Y-346537D01*
X910857D01*
Y-325537D01*
D02*
G37*
G36*
X5000Y-92412D02*
X4557Y-92500D01*
X4105D01*
X3687Y-92673D01*
X3244Y-92761D01*
X2868Y-93012D01*
X2451Y-93185D01*
X2131Y-93505D01*
X1756Y-93756D01*
X-1244Y-96756D01*
X-2239Y-98244D01*
X-2588Y-100000D01*
Y-333000D01*
X-2239Y-334756D01*
X-1244Y-336244D01*
X1793Y-339282D01*
X3281Y-340276D01*
X5037Y-340625D01*
X17520D01*
X17930Y-340662D01*
X18504Y-340757D01*
X18934Y-340873D01*
X19214Y-340988D01*
X19340Y-341064D01*
X19358Y-341227D01*
Y-346537D01*
X40357D01*
Y-325537D01*
X19358D01*
Y-330847D01*
X19340Y-331010D01*
X19214Y-331087D01*
X18934Y-331201D01*
X18504Y-331317D01*
X17930Y-331413D01*
X17520Y-331449D01*
X6938D01*
X6588Y-331100D01*
Y-101901D01*
X8244Y-100244D01*
X8495Y-99868D01*
X8815Y-99549D01*
X8988Y-99132D01*
X9239Y-98756D01*
X9327Y-98313D01*
X9500Y-97895D01*
Y-97443D01*
X9588Y-97000D01*
X9500Y-96557D01*
Y-96105D01*
X9327Y-95687D01*
X9239Y-95244D01*
X8988Y-94868D01*
X8815Y-94451D01*
X8495Y-94131D01*
X8244Y-93756D01*
X7868Y-93505D01*
X7549Y-93185D01*
X7132Y-93012D01*
X6756Y-92761D01*
X6313Y-92673D01*
X5895Y-92500D01*
X5443D01*
X5000Y-92412D01*
D02*
G37*
G36*
X374850Y-390917D02*
X373019D01*
X371251Y-391390D01*
X369666Y-392306D01*
X368371Y-393600D01*
X367456Y-395186D01*
X366982Y-396954D01*
Y-398785D01*
X367456Y-400553D01*
X368371Y-402139D01*
X369666Y-403433D01*
X371251Y-404349D01*
X373019Y-404823D01*
X374850D01*
X376619Y-404349D01*
X378204Y-403433D01*
X379499Y-402139D01*
X380414Y-400553D01*
X380888Y-398785D01*
Y-396954D01*
X380414Y-395186D01*
X379499Y-393600D01*
X378204Y-392306D01*
X376619Y-391390D01*
X374850Y-390917D01*
D02*
G37*
G36*
X928995Y-198000D02*
X927005D01*
X925168Y-198761D01*
X923761Y-200168D01*
X923000Y-202005D01*
Y-203995D01*
X923761Y-205832D01*
X924686Y-206757D01*
Y-403627D01*
X924314Y-404000D01*
X923005D01*
X921168Y-404761D01*
X919761Y-406168D01*
X919000Y-408005D01*
Y-409995D01*
X919761Y-411832D01*
X921168Y-413239D01*
X923005Y-414000D01*
X924995D01*
X926832Y-413239D01*
X928239Y-411832D01*
X929000Y-409995D01*
Y-408686D01*
X930343Y-407343D01*
X931061Y-406268D01*
X931314Y-405000D01*
Y-206757D01*
X932239Y-205832D01*
X933000Y-203995D01*
Y-202005D01*
X932239Y-200168D01*
X930832Y-198761D01*
X928995Y-198000D01*
D02*
G37*
G36*
X437244Y-226130D02*
X435255D01*
X433418Y-226892D01*
X432011Y-228298D01*
X431250Y-230136D01*
Y-232125D01*
X432011Y-233963D01*
X433418Y-235369D01*
X433686Y-235480D01*
Y-393715D01*
X433686Y-393715D01*
Y-450950D01*
X433185Y-451451D01*
X432500Y-453105D01*
Y-454895D01*
X433185Y-456549D01*
X434451Y-457815D01*
X436105Y-458500D01*
X437895D01*
X439549Y-457815D01*
X440815Y-456549D01*
X441500Y-454895D01*
Y-453105D01*
X441389Y-452837D01*
X442361Y-451865D01*
X442805Y-452049D01*
X444595D01*
X446249Y-451364D01*
X447515Y-450098D01*
X448200Y-448444D01*
Y-446654D01*
X447515Y-445000D01*
X447014Y-444498D01*
Y-253953D01*
X448404Y-252563D01*
X449165Y-250725D01*
Y-248736D01*
X448404Y-246898D01*
X446997Y-245492D01*
X445160Y-244730D01*
X443171D01*
X441584Y-245388D01*
X440314Y-244851D01*
Y-234958D01*
X440177Y-234274D01*
X440489Y-233963D01*
X441250Y-232125D01*
Y-230136D01*
X440489Y-228298D01*
X439082Y-226892D01*
X437244Y-226130D01*
D02*
G37*
G36*
X364690Y-441717D02*
X362859D01*
X361091Y-442190D01*
X359506Y-443106D01*
X358211Y-444400D01*
X357296Y-445986D01*
X356822Y-447754D01*
Y-449585D01*
X357296Y-451353D01*
X358211Y-452939D01*
X359506Y-454233D01*
X361091Y-455149D01*
X362859Y-455623D01*
X364690D01*
X366459Y-455149D01*
X368044Y-454233D01*
X369339Y-452939D01*
X370254Y-451353D01*
X370728Y-449585D01*
Y-447754D01*
X370254Y-445986D01*
X369339Y-444400D01*
X368044Y-443106D01*
X366459Y-442190D01*
X364690Y-441717D01*
D02*
G37*
G36*
X824000Y-372670D02*
X821367D01*
X818824Y-373351D01*
X816543Y-374668D01*
X814681Y-376529D01*
X813365Y-378810D01*
X812683Y-381353D01*
Y-383986D01*
X813365Y-386529D01*
X814681Y-388810D01*
X815526Y-389654D01*
X815632Y-389815D01*
X816413Y-390607D01*
X817711Y-392084D01*
X818192Y-392720D01*
X818595Y-393324D01*
X818907Y-393870D01*
X819131Y-394354D01*
X819274Y-394766D01*
X819348Y-395103D01*
X819349Y-395123D01*
Y-416787D01*
X818777Y-417359D01*
X818092Y-419013D01*
Y-420803D01*
X818777Y-422457D01*
X819349Y-423030D01*
Y-435216D01*
X819348Y-435237D01*
X819274Y-435573D01*
X819131Y-435986D01*
X818907Y-436469D01*
X818595Y-437015D01*
X818192Y-437619D01*
X817711Y-438255D01*
X816413Y-439733D01*
X815632Y-440524D01*
X815526Y-440685D01*
X814681Y-441529D01*
X813365Y-443810D01*
X812683Y-446353D01*
Y-448986D01*
X813365Y-451529D01*
X814681Y-453810D01*
X816543Y-455672D01*
X818824Y-456988D01*
X821367Y-457669D01*
X824000D01*
X826543Y-456988D01*
X828824Y-455672D01*
X830685Y-453810D01*
X832002Y-451529D01*
X832683Y-448986D01*
Y-446353D01*
X832002Y-443810D01*
X830685Y-441529D01*
X829841Y-440685D01*
X829735Y-440524D01*
X828954Y-439732D01*
X827656Y-438255D01*
X827175Y-437619D01*
X826772Y-437015D01*
X826460Y-436469D01*
X826236Y-435985D01*
X826093Y-435573D01*
X826019Y-435237D01*
X826018Y-435216D01*
Y-422846D01*
X826407Y-422457D01*
X827092Y-420803D01*
Y-419013D01*
X826407Y-417359D01*
X826018Y-416970D01*
Y-395123D01*
X826019Y-395103D01*
X826093Y-394766D01*
X826236Y-394353D01*
X826460Y-393870D01*
X826772Y-393324D01*
X827175Y-392720D01*
X827656Y-392084D01*
X828954Y-390606D01*
X829735Y-389815D01*
X829841Y-389654D01*
X830685Y-388810D01*
X832002Y-386529D01*
X832683Y-383986D01*
Y-381353D01*
X832002Y-378810D01*
X830685Y-376529D01*
X828824Y-374668D01*
X826543Y-373351D01*
X824000Y-372670D01*
D02*
G37*
G36*
X349895Y-418500D02*
X348105D01*
X346451Y-419185D01*
X345185Y-420451D01*
X344500Y-422105D01*
Y-423895D01*
X345185Y-425549D01*
X346431Y-426795D01*
Y-461205D01*
X346185Y-461451D01*
X345500Y-463105D01*
Y-464895D01*
X346185Y-466549D01*
X347451Y-467815D01*
X349105Y-468500D01*
X350895D01*
X352549Y-467815D01*
X353815Y-466549D01*
X354500Y-464895D01*
Y-463105D01*
X353815Y-461451D01*
X353569Y-461205D01*
Y-424541D01*
X353460Y-423993D01*
X353500Y-423895D01*
Y-422105D01*
X352815Y-420451D01*
X351549Y-419185D01*
X349895Y-418500D01*
D02*
G37*
G36*
X205895Y-386500D02*
X204105D01*
X202451Y-387185D01*
X201185Y-388451D01*
X200500Y-390105D01*
Y-391895D01*
X201185Y-393549D01*
X201431Y-393795D01*
Y-462205D01*
X200185Y-463451D01*
X199500Y-465105D01*
Y-466895D01*
X200185Y-468549D01*
X201451Y-469815D01*
X203105Y-470500D01*
X204895D01*
X206549Y-469815D01*
X207815Y-468549D01*
X208500Y-466895D01*
Y-465345D01*
X208569Y-465000D01*
Y-393795D01*
X208815Y-393549D01*
X209500Y-391895D01*
Y-390105D01*
X208815Y-388451D01*
X207549Y-387185D01*
X205895Y-386500D01*
D02*
G37*
G36*
X661895Y-435500D02*
X660105D01*
X658451Y-436185D01*
X657185Y-437451D01*
X656500Y-439105D01*
Y-440895D01*
X657185Y-442549D01*
X658397Y-443761D01*
Y-456856D01*
X658397Y-456857D01*
Y-470335D01*
X658150Y-470581D01*
X657465Y-472235D01*
Y-474025D01*
X658150Y-475679D01*
X659416Y-476945D01*
X661070Y-477630D01*
X662860D01*
X664514Y-476945D01*
X665780Y-475679D01*
X666465Y-474025D01*
Y-472235D01*
X665780Y-470581D01*
X665534Y-470335D01*
Y-456856D01*
X665534Y-456856D01*
Y-442379D01*
X665323Y-441321D01*
X665500Y-440895D01*
Y-439105D01*
X664815Y-437451D01*
X663549Y-436185D01*
X661895Y-435500D01*
D02*
G37*
G36*
X602895Y-408500D02*
X601105D01*
X599451Y-409185D01*
X598185Y-410451D01*
X597500Y-412105D01*
Y-413895D01*
X598185Y-415549D01*
X598431Y-415795D01*
Y-475000D01*
X598500Y-475345D01*
Y-476895D01*
X599185Y-478549D01*
X600451Y-479815D01*
X602105Y-480500D01*
X603895D01*
X605549Y-479815D01*
X606815Y-478549D01*
X607500Y-476895D01*
Y-475105D01*
X606815Y-473451D01*
X605569Y-472205D01*
Y-415795D01*
X605815Y-415549D01*
X606500Y-413895D01*
Y-412105D01*
X605815Y-410451D01*
X604549Y-409185D01*
X602895Y-408500D01*
D02*
G37*
G36*
X221895Y-247500D02*
X220105D01*
X218451Y-248185D01*
X217185Y-249451D01*
X216500Y-251105D01*
Y-252895D01*
X217185Y-254549D01*
X217686Y-255050D01*
Y-368294D01*
X216657Y-369323D01*
X215939Y-370398D01*
X215686Y-371666D01*
Y-487950D01*
X215185Y-488451D01*
X214500Y-490105D01*
Y-491895D01*
X215185Y-493549D01*
X216451Y-494815D01*
X218105Y-495500D01*
X219895D01*
X221549Y-494815D01*
X222815Y-493549D01*
X223500Y-491895D01*
Y-490105D01*
X222815Y-488451D01*
X222314Y-487950D01*
Y-373039D01*
X223343Y-372010D01*
X224061Y-370934D01*
X224314Y-369666D01*
Y-255050D01*
X224815Y-254549D01*
X225500Y-252895D01*
Y-251105D01*
X224815Y-249451D01*
X223549Y-248185D01*
X221895Y-247500D01*
D02*
G37*
G36*
X809674Y-481000D02*
X806326D01*
X803041Y-481653D01*
X799948Y-482935D01*
X797163Y-484795D01*
X794795Y-487163D01*
X792935Y-489948D01*
X791653Y-493041D01*
X791000Y-496326D01*
Y-499674D01*
X791653Y-502959D01*
X792935Y-506053D01*
X794795Y-508837D01*
X797163Y-511205D01*
X799948Y-513065D01*
X803041Y-514347D01*
X806326Y-515000D01*
X809674D01*
X812959Y-514347D01*
X816052Y-513065D01*
X818837Y-511205D01*
X821205Y-508837D01*
X823065Y-506053D01*
X824347Y-502959D01*
X825000Y-499674D01*
Y-496326D01*
X824347Y-493041D01*
X823065Y-489948D01*
X821205Y-487163D01*
X818837Y-484795D01*
X816052Y-482935D01*
X812959Y-481653D01*
X809674Y-481000D01*
D02*
G37*
G36*
X343725Y-533530D02*
X333955D01*
Y-543299D01*
X343725D01*
Y-533530D01*
D02*
G37*
G36*
X331415D02*
X321645D01*
Y-543299D01*
X331415D01*
Y-533530D01*
D02*
G37*
G36*
X434895Y-459500D02*
X433105D01*
X431451Y-460185D01*
X430185Y-461451D01*
X429500Y-463105D01*
Y-464895D01*
X430185Y-466549D01*
X430716Y-467080D01*
Y-531440D01*
X430716Y-531443D01*
X430634Y-531842D01*
X430480Y-532307D01*
X430245Y-532834D01*
X429922Y-533420D01*
X429508Y-534058D01*
X429014Y-534723D01*
X427682Y-536255D01*
X426881Y-537069D01*
X426777Y-537229D01*
X425883Y-538122D01*
X424500Y-540517D01*
X423785Y-543187D01*
Y-545952D01*
X424500Y-548622D01*
X425883Y-551017D01*
X427838Y-552972D01*
X430232Y-554354D01*
X432902Y-555070D01*
X435667D01*
X438338Y-554354D01*
X440732Y-552972D01*
X442687Y-551017D01*
X444069Y-548622D01*
X444785Y-545952D01*
Y-543187D01*
X444069Y-540517D01*
X442687Y-538122D01*
X441807Y-537242D01*
X441715Y-537097D01*
X440160Y-535455D01*
X439570Y-534743D01*
X439062Y-534058D01*
X438647Y-533420D01*
X438324Y-532834D01*
X438090Y-532307D01*
X437936Y-531842D01*
X437854Y-531443D01*
X437853Y-531440D01*
Y-466456D01*
X438500Y-464895D01*
Y-463105D01*
X437815Y-461451D01*
X436549Y-460185D01*
X434895Y-459500D01*
D02*
G37*
G36*
X343725Y-545839D02*
X333955D01*
Y-555610D01*
X343725D01*
Y-545839D01*
D02*
G37*
G36*
X331415D02*
X321645D01*
Y-555610D01*
X331415D01*
Y-545839D01*
D02*
G37*
G36*
X612948Y-542300D02*
X610052D01*
X607254Y-543050D01*
X604746Y-544498D01*
X602698Y-546546D01*
X601250Y-549054D01*
X600500Y-551852D01*
Y-554748D01*
X601250Y-557546D01*
X602698Y-560054D01*
X604746Y-562102D01*
X607254Y-563550D01*
X610052Y-564300D01*
X612948D01*
X615746Y-563550D01*
X618254Y-562102D01*
X620302Y-560054D01*
X621750Y-557546D01*
X622500Y-554748D01*
Y-551852D01*
X621750Y-549054D01*
X620302Y-546546D01*
X618254Y-544498D01*
X615746Y-543050D01*
X612948Y-542300D01*
D02*
G37*
G36*
X109674Y-531000D02*
X106326D01*
X103041Y-531653D01*
X99948Y-532935D01*
X97163Y-534795D01*
X94795Y-537163D01*
X92935Y-539948D01*
X91653Y-543041D01*
X91000Y-546326D01*
Y-549674D01*
X91653Y-552959D01*
X92935Y-556053D01*
X94795Y-558837D01*
X97163Y-561205D01*
X99948Y-563065D01*
X103041Y-564347D01*
X106326Y-565000D01*
X109674D01*
X112959Y-564347D01*
X116053Y-563065D01*
X118837Y-561205D01*
X121205Y-558837D01*
X123065Y-556053D01*
X124347Y-552959D01*
X125000Y-549674D01*
Y-546326D01*
X124347Y-543041D01*
X123065Y-539948D01*
X121205Y-537163D01*
X118837Y-534795D01*
X116053Y-532935D01*
X112959Y-531653D01*
X109674Y-531000D01*
D02*
G37*
G36*
X623040Y-567160D02*
X612770D01*
Y-577430D01*
X623040D01*
Y-567160D01*
D02*
G37*
G36*
X610230D02*
X599960D01*
Y-577430D01*
X610230D01*
Y-567160D01*
D02*
G37*
G36*
X623040Y-579970D02*
X612770D01*
Y-590240D01*
X623040D01*
Y-579970D01*
D02*
G37*
G36*
X610230D02*
X599960D01*
Y-590240D01*
X610230D01*
Y-579970D01*
D02*
G37*
G36*
X836076Y-561000D02*
X832924D01*
X829833Y-561615D01*
X826921Y-562821D01*
X824301Y-564572D01*
X822072Y-566801D01*
X820321Y-569421D01*
X819115Y-572333D01*
X818500Y-575424D01*
Y-578576D01*
X819115Y-581667D01*
X820321Y-584579D01*
X822072Y-587199D01*
X824301Y-589428D01*
X826921Y-591179D01*
X829833Y-592385D01*
X832924Y-593000D01*
X836076D01*
X839167Y-592385D01*
X842079Y-591179D01*
X844699Y-589428D01*
X846928Y-587199D01*
X848679Y-584579D01*
X849885Y-581667D01*
X850500Y-578576D01*
Y-575424D01*
X849885Y-572333D01*
X848679Y-569421D01*
X846928Y-566801D01*
X844699Y-564572D01*
X842079Y-562821D01*
X839167Y-561615D01*
X836076Y-561000D01*
D02*
G37*
G36*
X799700D02*
X767700D01*
Y-593000D01*
X799700D01*
Y-561000D01*
D02*
G37*
G36*
X921251Y-590500D02*
X918749D01*
X916333Y-591147D01*
X914167Y-592398D01*
X912398Y-594167D01*
X911147Y-596333D01*
X910500Y-598749D01*
Y-601251D01*
X911147Y-603667D01*
X912398Y-605833D01*
X914167Y-607602D01*
X916333Y-608853D01*
X918749Y-609500D01*
X921251D01*
X923667Y-608853D01*
X925833Y-607602D01*
X927602Y-605833D01*
X928852Y-603667D01*
X929500Y-601251D01*
Y-598749D01*
X928852Y-596333D01*
X927602Y-594167D01*
X925833Y-592398D01*
X923667Y-591147D01*
X921251Y-590500D01*
D02*
G37*
%LPD*%
G36*
X263186Y-166642D02*
Y-281127D01*
X258737Y-285576D01*
X257564Y-285090D01*
Y-177405D01*
X260357Y-174611D01*
X261080Y-173530D01*
X261334Y-172254D01*
Y-166763D01*
X262604Y-166163D01*
X263186Y-166642D01*
D02*
G37*
G36*
X872194Y-153996D02*
X871667Y-154622D01*
X871202Y-155261D01*
X870799Y-155911D01*
X870459Y-156573D01*
X870180Y-157248D01*
X869962Y-157935D01*
X869808Y-158634D01*
X869714Y-159346D01*
X869684Y-160069D01*
X864684D01*
X864652Y-159346D01*
X864559Y-158634D01*
X864405Y-157935D01*
X864187Y-157248D01*
X863908Y-156573D01*
X863568Y-155911D01*
X863165Y-155261D01*
X862700Y-154622D01*
X862172Y-153996D01*
X861583Y-153383D01*
X872783D01*
X872194Y-153996D01*
D02*
G37*
G36*
X827718Y-153447D02*
X826890Y-154267D01*
X825496Y-155823D01*
X824930Y-156559D01*
X824451Y-157267D01*
X824059Y-157946D01*
X823754Y-158598D01*
X823536Y-159221D01*
X823405Y-159816D01*
X823362Y-160382D01*
X820822Y-160353D01*
X820779Y-159793D01*
X820650Y-159201D01*
X820434Y-158578D01*
X820133Y-157922D01*
X819746Y-157235D01*
X819273Y-156515D01*
X818713Y-155764D01*
X817336Y-154165D01*
X816518Y-153318D01*
X827718Y-153447D01*
D02*
G37*
G36*
X869714Y-200994D02*
X869808Y-201705D01*
X869962Y-202404D01*
X870180Y-203091D01*
X870459Y-203766D01*
X870799Y-204428D01*
X871202Y-205078D01*
X871667Y-205717D01*
X872194Y-206343D01*
X872783Y-206956D01*
X861583D01*
X862172Y-206343D01*
X862700Y-205717D01*
X863165Y-205078D01*
X863568Y-204428D01*
X863908Y-203766D01*
X864187Y-203091D01*
X864405Y-202404D01*
X864559Y-201705D01*
X864652Y-200994D01*
X864684Y-200270D01*
X869684D01*
X869714Y-200994D01*
D02*
G37*
G36*
X823405Y-200523D02*
X823536Y-201118D01*
X823754Y-201742D01*
X824059Y-202393D01*
X824451Y-203072D01*
X824930Y-203780D01*
X825496Y-204516D01*
X826890Y-206072D01*
X827718Y-206893D01*
X816518Y-207021D01*
X817336Y-206174D01*
X818713Y-204575D01*
X819273Y-203824D01*
X819746Y-203104D01*
X820133Y-202417D01*
X820434Y-201761D01*
X820650Y-201138D01*
X820779Y-200546D01*
X820822Y-199986D01*
X823362Y-199957D01*
X823405Y-200523D01*
D02*
G37*
G36*
X872194Y-218997D02*
X871667Y-219622D01*
X871202Y-220261D01*
X870799Y-220911D01*
X870459Y-221574D01*
X870180Y-222248D01*
X869962Y-222935D01*
X869808Y-223634D01*
X869714Y-224345D01*
X869684Y-225069D01*
X864684D01*
X864652Y-224345D01*
X864559Y-223634D01*
X864405Y-222935D01*
X864187Y-222248D01*
X863908Y-221574D01*
X863568Y-220911D01*
X863165Y-220261D01*
X862700Y-219622D01*
X862172Y-218997D01*
X861583Y-218383D01*
X872783D01*
X872194Y-218997D01*
D02*
G37*
G36*
X869714Y-253494D02*
X869808Y-254205D01*
X869962Y-254904D01*
X870180Y-255591D01*
X870459Y-256266D01*
X870799Y-256928D01*
X871202Y-257578D01*
X871667Y-258217D01*
X872194Y-258843D01*
X872783Y-259456D01*
X861583D01*
X862172Y-258843D01*
X862700Y-258217D01*
X863165Y-257578D01*
X863568Y-256928D01*
X863908Y-256266D01*
X864187Y-255591D01*
X864405Y-254904D01*
X864559Y-254205D01*
X864652Y-253494D01*
X864684Y-252770D01*
X869684D01*
X869714Y-253494D01*
D02*
G37*
G36*
X872194Y-271497D02*
X871667Y-272122D01*
X871202Y-272761D01*
X870799Y-273411D01*
X870459Y-274074D01*
X870180Y-274748D01*
X869962Y-275435D01*
X869808Y-276134D01*
X869714Y-276845D01*
X869684Y-277569D01*
X864684D01*
X864652Y-276845D01*
X864559Y-276134D01*
X864405Y-275435D01*
X864187Y-274748D01*
X863908Y-274074D01*
X863568Y-273411D01*
X863165Y-272761D01*
X862700Y-272122D01*
X862172Y-271497D01*
X861583Y-270883D01*
X872783D01*
X872194Y-271497D01*
D02*
G37*
G36*
X826961Y-271716D02*
X825575Y-273294D01*
X825012Y-274038D01*
X824536Y-274751D01*
X824146Y-275435D01*
X823843Y-276088D01*
X823627Y-276712D01*
X823497Y-277305D01*
X823453Y-277868D01*
X820913D01*
X820870Y-277305D01*
X820740Y-276712D01*
X820524Y-276088D01*
X820221Y-275435D01*
X819831Y-274751D01*
X819355Y-274038D01*
X818792Y-273294D01*
X817406Y-271716D01*
X816583Y-270883D01*
X827783D01*
X826961Y-271716D01*
D02*
G37*
G36*
X869714Y-318494D02*
X869808Y-319205D01*
X869962Y-319904D01*
X870180Y-320591D01*
X870459Y-321266D01*
X870799Y-321928D01*
X871202Y-322579D01*
X871667Y-323217D01*
X872194Y-323843D01*
X872783Y-324456D01*
X861583D01*
X862172Y-323843D01*
X862700Y-323217D01*
X863165Y-322579D01*
X863568Y-321928D01*
X863908Y-321266D01*
X864187Y-320591D01*
X864405Y-319904D01*
X864559Y-319205D01*
X864652Y-318494D01*
X864684Y-317770D01*
X869684D01*
X869714Y-318494D01*
D02*
G37*
G36*
X823497Y-318034D02*
X823627Y-318628D01*
X823843Y-319251D01*
X824146Y-319904D01*
X824536Y-320588D01*
X825012Y-321301D01*
X825575Y-322045D01*
X826961Y-323623D01*
X827783Y-324456D01*
X816583D01*
X817406Y-323623D01*
X818792Y-322045D01*
X819355Y-321301D01*
X819831Y-320588D01*
X820221Y-319904D01*
X820524Y-319251D01*
X820740Y-318628D01*
X820870Y-318034D01*
X820913Y-317471D01*
X823453D01*
X823497Y-318034D01*
D02*
G37*
G36*
X872384Y-336341D02*
X871870Y-336986D01*
X871416Y-337641D01*
X871023Y-338305D01*
X870690Y-338978D01*
X870418Y-339660D01*
X870206Y-340352D01*
X870054Y-341053D01*
X869964Y-341763D01*
X869933Y-342482D01*
X864933Y-342647D01*
X864902Y-341919D01*
X864807Y-341207D01*
X864648Y-340510D01*
X864426Y-339828D01*
X864141Y-339162D01*
X863793Y-338510D01*
X863381Y-337873D01*
X862906Y-337252D01*
X862367Y-336646D01*
X861765Y-336055D01*
X872959Y-335705D01*
X872384Y-336341D01*
D02*
G37*
G36*
X869965Y-370920D02*
X870060Y-371632D01*
X870219Y-372329D01*
X870440Y-373011D01*
X870726Y-373677D01*
X871074Y-374329D01*
X871486Y-374966D01*
X871961Y-375587D01*
X872500Y-376193D01*
X873102Y-376784D01*
X861908Y-377134D01*
X862483Y-376498D01*
X862997Y-375853D01*
X863451Y-375198D01*
X863844Y-374534D01*
X864177Y-373861D01*
X864449Y-373179D01*
X864661Y-372487D01*
X864812Y-371786D01*
X864903Y-371076D01*
X864933Y-370357D01*
X869933Y-370192D01*
X869965Y-370920D01*
D02*
G37*
G36*
X872694Y-388997D02*
X872167Y-389622D01*
X871702Y-390261D01*
X871300Y-390911D01*
X870958Y-391573D01*
X870679Y-392248D01*
X870462Y-392935D01*
X870307Y-393634D01*
X870214Y-394346D01*
X870183Y-395069D01*
X865183D01*
X865153Y-394346D01*
X865060Y-393634D01*
X864904Y-392935D01*
X864688Y-392248D01*
X864408Y-391573D01*
X864068Y-390911D01*
X863664Y-390261D01*
X863199Y-389622D01*
X862673Y-388997D01*
X862084Y-388383D01*
X873283D01*
X872694Y-388997D01*
D02*
G37*
G36*
X870214Y-435994D02*
X870307Y-436705D01*
X870462Y-437404D01*
X870679Y-438091D01*
X870958Y-438766D01*
X871300Y-439428D01*
X871702Y-440078D01*
X872167Y-440717D01*
X872694Y-441343D01*
X873283Y-441956D01*
X862084D01*
X862673Y-441343D01*
X863199Y-440717D01*
X863664Y-440078D01*
X864068Y-439428D01*
X864408Y-438766D01*
X864688Y-438091D01*
X864904Y-437404D01*
X865060Y-436705D01*
X865153Y-435994D01*
X865183Y-435270D01*
X870183D01*
X870214Y-435994D01*
D02*
G37*
G36*
X360619Y-532096D02*
X360723Y-532839D01*
X360895Y-533574D01*
X361137Y-534301D01*
X361447Y-535020D01*
X361827Y-535732D01*
X362275Y-536435D01*
X362793Y-537131D01*
X363379Y-537819D01*
X364035Y-538499D01*
X352135D01*
X352790Y-537819D01*
X353377Y-537131D01*
X353894Y-536435D01*
X354343Y-535732D01*
X354722Y-535020D01*
X355033Y-534301D01*
X355274Y-533574D01*
X355447Y-532839D01*
X355550Y-532096D01*
X355585Y-531345D01*
X360585D01*
X360619Y-532096D01*
D02*
G37*
G36*
X36608Y-305343D02*
X37296Y-305929D01*
X37992Y-306447D01*
X38695Y-306895D01*
X39407Y-307275D01*
X40126Y-307585D01*
X40853Y-307827D01*
X41588Y-307999D01*
X42331Y-308103D01*
X43081Y-308137D01*
Y-313137D01*
X42331Y-313172D01*
X41588Y-313275D01*
X40853Y-313448D01*
X40126Y-313689D01*
X39407Y-314000D01*
X38695Y-314379D01*
X37992Y-314828D01*
X37296Y-315345D01*
X36608Y-315932D01*
X35928Y-316587D01*
Y-304687D01*
X36608Y-305343D01*
D02*
G37*
G36*
X410202Y-531652D02*
X410342Y-532273D01*
X410576Y-532930D01*
X410904Y-533621D01*
X411325Y-534347D01*
X411840Y-535108D01*
X412448Y-535904D01*
X413946Y-537599D01*
X414835Y-538499D01*
X402935D01*
X403824Y-537599D01*
X405322Y-535904D01*
X405930Y-535108D01*
X406445Y-534347D01*
X406866Y-533621D01*
X407194Y-532930D01*
X407428Y-532273D01*
X407568Y-531652D01*
X407615Y-531065D01*
X410155D01*
X410202Y-531652D01*
D02*
G37*
G36*
X385029Y-531723D02*
X385163Y-532370D01*
X385385Y-533043D01*
X385697Y-533743D01*
X386097Y-534469D01*
X386587Y-535222D01*
X387165Y-536002D01*
X387833Y-536808D01*
X389435Y-538499D01*
X377535D01*
X378380Y-537640D01*
X379804Y-536002D01*
X380383Y-535222D01*
X380872Y-534469D01*
X381273Y-533743D01*
X381584Y-533043D01*
X381807Y-532370D01*
X381940Y-531723D01*
X381985Y-531103D01*
X384985D01*
X385029Y-531723D01*
D02*
G37*
G36*
X21388Y-341037D02*
X21338Y-340562D01*
X21188Y-340137D01*
X20938Y-339762D01*
X20588Y-339437D01*
X20138Y-339162D01*
X19588Y-338937D01*
X18938Y-338762D01*
X18188Y-338637D01*
X17338Y-338562D01*
X16388Y-338537D01*
Y-333537D01*
X17338Y-333512D01*
X18188Y-333437D01*
X18938Y-333312D01*
X19588Y-333137D01*
X20138Y-332912D01*
X20588Y-332637D01*
X20938Y-332312D01*
X21188Y-331937D01*
X21338Y-331512D01*
X21388Y-331037D01*
Y-341037D01*
D02*
G37*
G36*
X827461Y-389216D02*
X826075Y-390794D01*
X825512Y-391538D01*
X825036Y-392251D01*
X824646Y-392935D01*
X824343Y-393588D01*
X824127Y-394212D01*
X823997Y-394805D01*
X823953Y-395368D01*
X821413D01*
X821370Y-394805D01*
X821240Y-394212D01*
X821024Y-393588D01*
X820721Y-392935D01*
X820331Y-392251D01*
X819855Y-391538D01*
X819292Y-390794D01*
X817906Y-389216D01*
X817084Y-388383D01*
X828283D01*
X827461Y-389216D01*
D02*
G37*
G36*
X823997Y-435534D02*
X824127Y-436128D01*
X824343Y-436751D01*
X824646Y-437404D01*
X825036Y-438088D01*
X825512Y-438801D01*
X826075Y-439545D01*
X827461Y-441123D01*
X828283Y-441956D01*
X817084D01*
X817906Y-441123D01*
X819292Y-439545D01*
X819855Y-438801D01*
X820331Y-438088D01*
X820721Y-437404D01*
X821024Y-436751D01*
X821240Y-436128D01*
X821370Y-435534D01*
X821413Y-434971D01*
X823953D01*
X823997Y-435534D01*
D02*
G37*
G36*
X435829Y-531723D02*
X435963Y-532370D01*
X436185Y-533043D01*
X436497Y-533743D01*
X436897Y-534469D01*
X437387Y-535222D01*
X437965Y-536002D01*
X438633Y-536808D01*
X440235Y-538499D01*
X428335D01*
X429180Y-537640D01*
X430604Y-536002D01*
X431183Y-535222D01*
X431672Y-534469D01*
X432073Y-533743D01*
X432384Y-533043D01*
X432607Y-532370D01*
X432740Y-531723D01*
X432785Y-531103D01*
X435785D01*
X435829Y-531723D01*
D02*
G37*
%LPC*%
G36*
X7452Y-600579D02*
X6852D01*
X6452Y-600629D01*
X6102Y-600679D01*
X5777Y-600729D01*
X5477Y-600804D01*
X5177Y-600904D01*
X4927Y-601004D01*
X4702Y-601079D01*
X4502Y-601179D01*
X4327Y-601279D01*
X4178Y-601354D01*
X4078Y-601454D01*
X3978Y-601504D01*
X3903Y-601554D01*
X3878Y-601604D01*
X3853D01*
X3653Y-601804D01*
X3453Y-602004D01*
X3178Y-602403D01*
X2953Y-602803D01*
X2828Y-603178D01*
X2728Y-603528D01*
X2703Y-603778D01*
X2678Y-603878D01*
Y-603953D01*
Y-604003D01*
Y-604028D01*
X2703Y-604353D01*
X2753Y-604678D01*
X2828Y-604953D01*
X2903Y-605203D01*
X3003Y-605403D01*
X3078Y-605578D01*
X3128Y-605678D01*
X3153Y-605703D01*
X3353Y-605978D01*
X3553Y-606203D01*
X3778Y-606402D01*
X4003Y-606577D01*
X4202Y-606702D01*
X4353Y-606777D01*
X4452Y-606827D01*
X4502Y-606852D01*
X4877Y-606977D01*
X5277Y-607077D01*
X5727Y-607127D01*
X6152Y-607177D01*
X6552Y-607202D01*
X6702Y-607227D01*
X7627D01*
X8051Y-607202D01*
X8426Y-607177D01*
X8751Y-607152D01*
X9026Y-607127D01*
X9226Y-607102D01*
X9326Y-607077D01*
X9376D01*
Y-600854D01*
X9001Y-600754D01*
X8651Y-600704D01*
X8277Y-600654D01*
X7951Y-600604D01*
X7677D01*
X7452Y-600579D01*
D02*
G37*
G36*
X7827Y-608077D02*
X7352D01*
X6702Y-608102D01*
X6127Y-608152D01*
X5627Y-608252D01*
X5202Y-608327D01*
X4852Y-608427D01*
X4602Y-608527D01*
X4527Y-608552D01*
X4452Y-608577D01*
X4427Y-608602D01*
X4403D01*
X4003Y-608802D01*
X3653Y-609027D01*
X3353Y-609252D01*
X3128Y-609477D01*
X2953Y-609677D01*
X2828Y-609827D01*
X2753Y-609926D01*
X2728Y-609977D01*
X2553Y-610301D01*
X2428Y-610626D01*
X2328Y-610926D01*
X2278Y-611201D01*
X2228Y-611426D01*
X2203Y-611626D01*
Y-611726D01*
Y-611776D01*
Y-612051D01*
X2253Y-612301D01*
X2378Y-612776D01*
X2578Y-613176D01*
X2778Y-613526D01*
X2978Y-613825D01*
X3178Y-614025D01*
X3303Y-614151D01*
X3328Y-614200D01*
X3353D01*
X3578Y-614375D01*
X3828Y-614525D01*
X4353Y-614750D01*
X4902Y-614925D01*
X5427Y-615025D01*
X5927Y-615100D01*
X6127Y-615125D01*
X6327D01*
X6477Y-615150D01*
X6677D01*
X7177Y-615125D01*
X7652Y-615100D01*
X8102Y-615050D01*
X8526Y-615000D01*
X8876Y-614950D01*
X9151Y-614900D01*
X9251Y-614875D01*
X9326Y-614850D01*
X9376D01*
Y-608202D01*
X9101Y-608152D01*
X8801Y-608127D01*
X8451Y-608102D01*
X8127D01*
X7827Y-608077D01*
D02*
G37*
%LPD*%
D11*
X237000Y-268987D02*
Y-230020D01*
X291635Y-199865D02*
X292300D01*
X294435Y-202000D01*
X313000D01*
X322000Y-102000D02*
X335000Y-115000D01*
Y-172000D02*
Y-115000D01*
X51000Y-191000D02*
Y-103000D01*
X254230Y-288215D02*
Y-176024D01*
X258000Y-172254D01*
X247000Y-295445D02*
X254230Y-288215D01*
X258000Y-172254D02*
Y-39000D01*
X573000Y-283000D02*
X621000D01*
X233230Y-506230D02*
X238000Y-511000D01*
X233230Y-506230D02*
Y-272757D01*
X237000Y-268987D01*
X408885Y-544570D02*
Y-524885D01*
X400000Y-516000D02*
X408885Y-524885D01*
X400000Y-516000D02*
Y-411000D01*
Y-315000D01*
X822000Y-185000D02*
X822092Y-184908D01*
Y-147761D01*
X822000Y-185000D02*
X822092Y-185092D01*
Y-212578D02*
Y-185092D01*
X822683Y-447486D02*
Y-420000D01*
X822592Y-419908D02*
X822683Y-420000D01*
X822592Y-419908D02*
X822683Y-419817D01*
Y-382669D01*
X822183Y-329986D02*
Y-302500D01*
X822092Y-302408D02*
X822183Y-302500D01*
X822092Y-302408D02*
X822183Y-302317D01*
Y-265170D01*
X822092Y-147761D02*
X822183Y-147669D01*
X822092Y-212578D02*
X822183Y-212670D01*
X247000Y-349000D02*
Y-295445D01*
D15*
X0Y0D02*
D03*
X920000Y-600000D02*
D03*
D65*
X822183Y-147669D02*
D03*
Y-212670D02*
D03*
X867184Y-147669D02*
D03*
Y-212670D02*
D03*
Y-330170D02*
D03*
Y-265170D02*
D03*
X822183Y-330170D02*
D03*
Y-265170D02*
D03*
X867683Y-447670D02*
D03*
Y-382669D02*
D03*
X822683Y-447670D02*
D03*
Y-382669D02*
D03*
D66*
X611500Y-553300D02*
D03*
D68*
Y-578700D02*
D03*
D76*
X221000Y-369666D02*
Y-252000D01*
X219000Y-371666D02*
X221000Y-369666D01*
X809000Y-191000D02*
X809419Y-190581D01*
X809000Y-263000D02*
Y-191000D01*
X781000Y-291000D02*
X809000Y-263000D01*
X281000Y-224000D02*
Y-185672D01*
X279039Y-183711D02*
Y-144435D01*
Y-183711D02*
X281000Y-185672D01*
X256135Y-299229D02*
X271000Y-284364D01*
Y-27000D01*
X219000Y-491000D02*
Y-371666D01*
X251000Y-172862D02*
Y-33000D01*
X249710Y-285664D02*
Y-174152D01*
X242000Y-293374D02*
X249710Y-285664D01*
Y-174152D02*
X251000Y-172862D01*
X266500Y-282500D02*
Y-164838D01*
X251635Y-297365D02*
X266500Y-282500D01*
X265000Y-163338D02*
Y-45000D01*
Y-163338D02*
X266500Y-164838D01*
X278750Y-232000D02*
X279420Y-231330D01*
Y-225580D02*
X281000Y-224000D01*
X279420Y-231330D02*
Y-225580D01*
X443700Y-447549D02*
Y-250300D01*
X437000Y-393715D02*
X437000Y-393715D01*
X437000Y-393715D02*
Y-234958D01*
X437000Y-454000D02*
Y-393715D01*
X924000Y-409000D02*
X928000Y-405000D01*
Y-203000D01*
X239000Y-342904D02*
X242000Y-339904D01*
X239000Y-349000D02*
Y-342904D01*
X242000Y-339904D02*
Y-293374D01*
X256135Y-338000D02*
Y-299229D01*
Y-338000D02*
X259914Y-341780D01*
Y-347370D02*
Y-341780D01*
Y-347370D02*
X260393Y-347848D01*
X251635Y-342999D02*
Y-297365D01*
Y-342999D02*
X253386Y-344750D01*
Y-349894D02*
Y-344750D01*
Y-349894D02*
X253864Y-350373D01*
X387285Y-307570D02*
Y-268570D01*
X388285D01*
D77*
X536000Y-259200D02*
Y-177750D01*
Y-259200D02*
X541000Y-264200D01*
Y-267418D02*
Y-264200D01*
X215000Y-142000D02*
Y-59541D01*
X216000Y-58541D01*
Y-58000D01*
X309000Y-143000D02*
Y-68000D01*
X397000Y-143000D02*
Y-76000D01*
X757000Y-67541D02*
Y-67000D01*
X758000Y-143000D02*
Y-68541D01*
X757000Y-67541D02*
X758000Y-68541D01*
X666000Y-143000D02*
Y-76000D01*
X576000Y-80541D02*
Y-80000D01*
X577000Y-143000D02*
Y-81541D01*
X576000Y-80541D02*
X577000Y-81541D01*
X489000Y-143000D02*
Y-142459D01*
X489750Y-141709D01*
Y-83750D01*
X127000Y-140000D02*
Y-87000D01*
X204000Y-466000D02*
X205000Y-465000D01*
Y-391000D01*
X119785Y-314570D02*
X122785Y-317570D01*
X190285D01*
X602000Y-475000D02*
X603000Y-476000D01*
X602000Y-475000D02*
Y-413000D01*
X661965Y-456856D02*
Y-442379D01*
X661383Y-441797D02*
X661965Y-442379D01*
X661383Y-441797D02*
Y-440383D01*
X661965Y-456856D02*
X661965Y-456856D01*
X661000Y-440000D02*
X661383Y-440383D01*
X661965Y-473130D02*
Y-456856D01*
X349000Y-423541D02*
Y-423000D01*
Y-423541D02*
X350000Y-424541D01*
Y-464000D02*
Y-424541D01*
X434285Y-544570D02*
Y-464285D01*
X434000Y-464000D02*
X434285Y-464285D01*
X393935Y-423270D02*
Y-347504D01*
X391000Y-344570D02*
X393935Y-347504D01*
Y-465065D02*
Y-423270D01*
X383485Y-475515D02*
X393935Y-465065D01*
X383485Y-544570D02*
Y-475515D01*
X851000Y-284000D02*
Y-232694D01*
X850000Y-231694D02*
Y-180929D01*
X855000Y-225000D02*
Y-167000D01*
Y-225000D02*
X858000Y-228000D01*
X850000Y-231694D02*
X851000Y-232694D01*
X847000Y-177929D02*
X850000Y-180929D01*
X847000Y-177929D02*
Y-161000D01*
X835000Y-173000D02*
X843000Y-181000D01*
X836000Y-343000D02*
Y-185021D01*
X830000Y-179021D02*
Y-179000D01*
Y-179021D02*
X836000Y-185021D01*
X843000Y-310000D02*
Y-181000D01*
X151930Y-266070D02*
X178500Y-239500D01*
X178500D01*
X117785Y-266070D02*
X151930D01*
D78*
X61000Y-113000D02*
X63000Y-111000D01*
X61000Y-306000D02*
Y-113000D01*
X2000Y-100000D02*
X5000Y-97000D01*
X2000Y-333000D02*
Y-100000D01*
X239000Y-153540D02*
Y-110000D01*
X361854Y-357000D02*
X379285Y-339570D01*
X337000Y-381854D02*
X361854Y-357000D01*
X613000Y-222000D02*
Y-111250D01*
X437000Y5000D02*
X500000Y-58000D01*
Y-268000D02*
Y-58000D01*
X616000Y-225000D02*
X621000Y-230000D01*
Y-283000D02*
Y-230000D01*
X474000Y-294000D02*
X500000Y-268000D01*
X474000Y-327000D02*
Y-294000D01*
Y-327000D02*
X474570Y-327570D01*
Y-371215D02*
Y-327570D01*
X462000Y-383785D02*
X474570Y-371215D01*
X462000Y-476000D02*
Y-383785D01*
X337000Y-410570D02*
Y-381854D01*
Y-475000D02*
Y-410570D01*
Y-475000D02*
X358085Y-496085D01*
Y-544570D02*
Y-496085D01*
X867683Y-406000D02*
Y-382669D01*
X61000Y-460000D02*
X67000Y-466000D01*
X61000Y-460000D02*
Y-315274D01*
X56363Y-310637D02*
X61000Y-315274D01*
X56363Y-310637D02*
X61000Y-306000D01*
X29857Y-310637D02*
X56363D01*
X613000Y-222000D02*
X616000Y-225000D01*
X2000Y-333000D02*
X5037Y-336037D01*
X29857D01*
X379285Y-339570D02*
Y-287070D01*
X867184Y-212670D02*
Y-147669D01*
Y-265170D02*
Y-212670D01*
Y-330170D02*
Y-265170D01*
Y-330170D02*
X867433Y-330420D01*
Y-382420D02*
Y-330420D01*
Y-382420D02*
X867683Y-382669D01*
Y-447670D02*
Y-406000D01*
D82*
X29857Y-336037D02*
D03*
X900357D02*
D03*
D83*
Y-310637D02*
D03*
Y-285237D02*
D03*
Y-259837D02*
D03*
X29857D02*
D03*
Y-285237D02*
D03*
Y-310637D02*
D03*
X358085Y-544570D02*
D03*
X383485D02*
D03*
X408885D02*
D03*
X434285D02*
D03*
D84*
X373935Y-397870D02*
D03*
X384095Y-448670D02*
D03*
X363775D02*
D03*
D85*
X332685Y-544570D02*
D03*
D86*
X783700Y-577000D02*
D03*
D87*
X834500D02*
D03*
D88*
X108000Y-548000D02*
D03*
X808000Y-498000D02*
D03*
X108000Y-48000D02*
D03*
X808000D02*
D03*
D89*
X900135Y-14761D02*
D03*
X870135Y-74761D02*
D03*
X900135Y-134761D02*
D03*
Y-374761D02*
D03*
Y-494761D02*
D03*
X870135Y-554761D02*
D03*
X840135Y-14761D02*
D03*
X810135Y-74761D02*
D03*
X840135Y-374761D02*
D03*
X810135Y-434761D02*
D03*
X840135Y-494761D02*
D03*
X780135Y-14761D02*
D03*
X750135Y-314761D02*
D03*
X780135Y-494761D02*
D03*
X720135Y-14761D02*
D03*
Y-254761D02*
D03*
X690135Y-434761D02*
D03*
X660135Y-14761D02*
D03*
X630135Y-194761D02*
D03*
Y-434761D02*
D03*
Y-554761D02*
D03*
X600135Y-14761D02*
D03*
X570135Y-554761D02*
D03*
X540135Y-14761D02*
D03*
X510135Y-554761D02*
D03*
X480135Y-254761D02*
D03*
X450135Y-554761D02*
D03*
X420135Y-374761D02*
D03*
X360135D02*
D03*
X300135Y-254761D02*
D03*
X270135Y-314761D02*
D03*
Y-434761D02*
D03*
Y-554761D02*
D03*
X210135D02*
D03*
X180135Y-14761D02*
D03*
Y-254761D02*
D03*
Y-374761D02*
D03*
X150135Y-434761D02*
D03*
X180135Y-494761D02*
D03*
X150135Y-554761D02*
D03*
X120135Y-14761D02*
D03*
X90135Y-74761D02*
D03*
Y-194761D02*
D03*
X120135Y-254761D02*
D03*
Y-374761D02*
D03*
X90135Y-434761D02*
D03*
X120135Y-494761D02*
D03*
X60135Y-14761D02*
D03*
X30135Y-74761D02*
D03*
Y-434761D02*
D03*
X60135Y-494761D02*
D03*
X30135Y-554761D02*
D03*
D90*
X237000Y-230020D02*
D03*
X226750Y-342000D02*
D03*
X221000Y-252000D02*
D03*
X291635Y-199865D02*
D03*
X313000Y-202000D02*
D03*
X536000Y-177750D02*
D03*
X602000Y-193750D02*
D03*
X492850Y-170125D02*
D03*
X335000Y-172000D02*
D03*
X299000Y-181000D02*
D03*
X63000Y-111000D02*
D03*
X51000Y-103000D02*
D03*
X5000Y-97000D02*
D03*
X216000Y-58000D02*
D03*
X309000Y-68000D02*
D03*
X397000Y-76000D02*
D03*
X757000Y-67000D02*
D03*
X666000Y-76000D02*
D03*
X576000Y-80000D02*
D03*
X666000Y-143000D02*
D03*
X127000Y-140000D02*
D03*
X309000Y-143000D02*
D03*
X397000D02*
D03*
X489000D02*
D03*
X577000D02*
D03*
X758000D02*
D03*
X489750Y-83750D02*
D03*
X127000Y-87000D02*
D03*
X239000Y-110000D02*
D03*
X322000Y-102000D02*
D03*
X215000Y-142000D02*
D03*
X135875Y-170125D02*
D03*
X132000Y-223000D02*
D03*
X613000Y-111250D02*
D03*
X744125Y-194000D02*
D03*
X689875Y-198500D02*
D03*
X204000Y-466000D02*
D03*
X205000Y-391000D02*
D03*
X361854Y-357000D02*
D03*
X333000Y-558875D02*
D03*
X332000Y-529125D02*
D03*
X357710Y-435970D02*
D03*
X895000Y-399000D02*
D03*
X564875Y-545000D02*
D03*
X299875Y-373000D02*
D03*
X227000Y-392000D02*
D03*
X156200Y-338300D02*
D03*
X136000Y-308000D02*
D03*
X17000Y-281000D02*
D03*
X16915Y-218730D02*
D03*
X134000Y-244000D02*
D03*
X260000Y-229000D02*
D03*
X244730Y-171000D02*
D03*
Y-158540D02*
D03*
X473000Y-277000D02*
D03*
X596000Y-439000D02*
D03*
X577000Y-438000D02*
D03*
X619875Y-370000D02*
D03*
X748125Y-367000D02*
D03*
Y-356000D02*
D03*
X772875Y-370000D02*
D03*
X770875Y-356000D02*
D03*
X757000Y-342125D02*
D03*
X650125Y-213500D02*
D03*
X651125Y-201500D02*
D03*
X689875Y-211500D02*
D03*
X782713Y-213508D02*
D03*
X781875Y-203000D02*
D03*
X744125Y-216000D02*
D03*
X743125Y-206000D02*
D03*
X797000Y-292125D02*
D03*
X888000Y-160125D02*
D03*
X765875Y-171125D02*
D03*
X675875Y-168625D02*
D03*
X585750Y-170125D02*
D03*
X405875Y-168625D02*
D03*
X225750Y-170125D02*
D03*
X573000Y-283000D02*
D03*
X438000Y-13000D02*
D03*
X437000Y5000D02*
D03*
X621000Y-283000D02*
D03*
X614000Y-273000D02*
D03*
X634000Y-288000D02*
D03*
X603000Y-476000D02*
D03*
X602000Y-413000D02*
D03*
X500000Y-268000D02*
D03*
X474000Y-327000D02*
D03*
X462000Y-476000D02*
D03*
X437000Y-454000D02*
D03*
X443700Y-447549D02*
D03*
X484000Y-441000D02*
D03*
X535000D02*
D03*
X337000Y-410570D02*
D03*
Y-475000D02*
D03*
X650000Y-496000D02*
D03*
X661965Y-473130D02*
D03*
X661000Y-440000D02*
D03*
X867683Y-406000D02*
D03*
X67000Y-466000D02*
D03*
X239000Y-153540D02*
D03*
X616000Y-225000D02*
D03*
X474570Y-371215D02*
D03*
X238000Y-511000D02*
D03*
X219000Y-491000D02*
D03*
X541000Y-264200D02*
D03*
X528000Y-299000D02*
D03*
X51000Y-191000D02*
D03*
X349000Y-423000D02*
D03*
X350000Y-464000D02*
D03*
X434000D02*
D03*
X400000Y-411000D02*
D03*
Y-315000D02*
D03*
X391000Y-344570D02*
D03*
X393935Y-423270D02*
D03*
X855000Y-167000D02*
D03*
X835000Y-173000D02*
D03*
X830000Y-179000D02*
D03*
X822000Y-185000D02*
D03*
X858000Y-228000D02*
D03*
X851000Y-284000D02*
D03*
X847000Y-161000D02*
D03*
X843000Y-310000D02*
D03*
X822092Y-302408D02*
D03*
X836000Y-343000D02*
D03*
X822592Y-419908D02*
D03*
X271000Y-27000D02*
D03*
X251000Y-33000D02*
D03*
X258000Y-39000D02*
D03*
X265000Y-45000D02*
D03*
X260393Y-347848D02*
D03*
X253864Y-350373D02*
D03*
X247000Y-349000D02*
D03*
X239000D02*
D03*
X387750Y-269700D02*
D03*
X387285Y-307570D02*
D03*
D91*
X809419Y-190581D02*
D03*
X781000Y-291000D02*
D03*
X279039Y-144435D02*
D03*
X278750Y-232000D02*
D03*
X473123Y-383269D02*
D03*
X924000Y-409000D02*
D03*
X928000Y-203000D02*
D03*
X518000Y-385000D02*
D03*
X436250Y-231130D02*
D03*
X444165Y-249730D02*
D03*
X178500Y-239500D02*
D03*
X379285Y-287070D02*
D03*
X526820Y-333965D02*
D03*
X486570Y-342715D02*
D03*
X525420Y-356065D02*
D03*
X544670Y-332715D02*
D03*
X548070Y-355215D02*
D03*
X537170Y-344315D02*
D03*
X119785Y-314570D02*
D03*
X190285Y-317570D02*
D03*
X117785Y-266070D02*
D03*
X188285Y-264570D02*
D03*
X241285Y-273570D02*
D03*
X286785Y-256070D02*
D03*
X366785Y-259070D02*
D03*
M02*
