G04*
G04 #@! TF.GenerationSoftware,Altium Limited,Altium Designer,26.5.1 (12)*
G04*
G04 Layer_Physical_Order=1*
G04 Layer_Color=255*
G04 Board_Origin=11460000|43560000*
%FSLAX44Y44*%
%MOMM*%
G71*
G04*
G04 #@! TF.SameCoordinates,403F51B2-EDFB-421F-B47B-56F750A890EC*
G04*
G04*
G04 #@! TF.FilePolarity,Positive*
G04*
G01*
G75*
%ADD18R,0.9000X0.6500*%
%ADD19R,0.8000X0.8000*%
%ADD20R,0.9600X1.4000*%
%ADD21R,0.7900X1.0000*%
%ADD22R,1.1200X1.2200*%
%ADD23R,0.6500X0.9000*%
%ADD24R,1.4000X0.9600*%
%ADD25R,0.7000X0.3000*%
%ADD26R,0.8000X0.8000*%
%ADD27R,0.8500X0.8500*%
%ADD28R,1.2200X1.1200*%
G04:AMPARAMS|DCode=29|XSize=0.9mm|YSize=1mm|CornerRadius=0.225mm|HoleSize=0mm|Usage=FLASHONLY|Rotation=270.000|XOffset=0mm|YOffset=0mm|HoleType=Round|Shape=RoundedRectangle|*
%AMROUNDEDRECTD29*
21,1,0.9000,0.5500,0,0,270.0*
21,1,0.4500,1.0000,0,0,270.0*
1,1,0.4500,-0.2750,-0.2250*
1,1,0.4500,-0.2750,0.2250*
1,1,0.4500,0.2750,0.2250*
1,1,0.4500,0.2750,-0.2250*
%
%ADD29ROUNDEDRECTD29*%
%ADD30R,3.3500X3.3500*%
%ADD31R,0.3000X1.0000*%
%ADD32R,1.0000X0.3000*%
%ADD33R,1.4500X3.2500*%
%ADD34R,1.4500X0.9500*%
G04:AMPARAMS|DCode=35|XSize=0.91mm|YSize=0.95mm|CornerRadius=0.2275mm|HoleSize=0mm|Usage=FLASHONLY|Rotation=0.000|XOffset=0mm|YOffset=0mm|HoleType=Round|Shape=RoundedRectangle|*
%AMROUNDEDRECTD35*
21,1,0.9100,0.4950,0,0,0.0*
21,1,0.4550,0.9500,0,0,0.0*
1,1,0.4550,0.2275,-0.2475*
1,1,0.4550,-0.2275,-0.2475*
1,1,0.4550,-0.2275,0.2475*
1,1,0.4550,0.2275,0.2475*
%
%ADD35ROUNDEDRECTD35*%
%ADD36R,0.3000X0.7000*%
%ADD37R,0.7000X0.6000*%
%ADD38R,0.8000X1.5000*%
%ADD39R,0.9000X1.2000*%
G04:AMPARAMS|DCode=40|XSize=0.91mm|YSize=0.95mm|CornerRadius=0.2275mm|HoleSize=0mm|Usage=FLASHONLY|Rotation=90.000|XOffset=0mm|YOffset=0mm|HoleType=Round|Shape=RoundedRectangle|*
%AMROUNDEDRECTD40*
21,1,0.9100,0.4950,0,0,90.0*
21,1,0.4550,0.9500,0,0,90.0*
1,1,0.4550,0.2475,0.2275*
1,1,0.4550,0.2475,-0.2275*
1,1,0.4550,-0.2475,-0.2275*
1,1,0.4550,-0.2475,0.2275*
%
%ADD40ROUNDEDRECTD40*%
%ADD41R,0.9000X1.3000*%
%ADD42R,1.3000X0.9000*%
%ADD43R,0.9000X1.5000*%
%ADD79C,1.0000*%
%ADD80C,0.3000*%
%ADD81C,0.4000*%
%ADD82C,0.5000*%
%ADD83C,0.2540*%
%ADD84C,0.2496*%
%ADD85C,0.6000*%
%ADD86C,1.0000*%
%ADD87C,1.7000*%
%ADD88C,1.5000*%
%ADD89C,1.8150*%
%ADD90R,1.6500X1.6500*%
%ADD91C,1.6500*%
%ADD92C,0.4500*%
%ADD93C,0.6000*%
G36*
X475719Y137834D02*
X483090Y136368D01*
X490207Y133952D01*
X496948Y130628D01*
X503196Y126452D01*
X508847Y121497D01*
X513802Y115847D01*
X517978Y109598D01*
X521302Y102857D01*
X523718Y95740D01*
X525184Y88369D01*
X525664Y81043D01*
X525630Y80870D01*
Y40459D01*
X489716D01*
X488725Y40262D01*
X487885Y39701D01*
X487323Y38861D01*
X487126Y37870D01*
Y-287131D01*
X487323Y-288121D01*
X487885Y-288962D01*
X488725Y-289523D01*
X489716Y-289720D01*
X525630D01*
Y-349131D01*
X525664Y-349304D01*
X525184Y-356630D01*
X523718Y-364001D01*
X521302Y-371118D01*
X517978Y-377859D01*
X513802Y-384108D01*
X508847Y-389758D01*
X503196Y-394713D01*
X496948Y-398889D01*
X490207Y-402213D01*
X483090Y-404629D01*
X475719Y-406095D01*
X468393Y-406575D01*
X468219Y-406541D01*
X280809D01*
Y-393130D01*
X280612Y-392139D01*
X280051Y-391299D01*
X279211Y-390738D01*
X278220Y-390541D01*
X228220D01*
X227229Y-390738D01*
X226388Y-391299D01*
X225827Y-392139D01*
X225630Y-393130D01*
Y-406541D01*
X38219D01*
X38046Y-406575D01*
X30720Y-406095D01*
X23349Y-404629D01*
X16232Y-402213D01*
X9492Y-398889D01*
X3243Y-394713D01*
X-2408Y-389758D01*
X-7363Y-384108D01*
X-11539Y-377859D01*
X-14863Y-371118D01*
X-17279Y-364001D01*
X-18745Y-356630D01*
X-19225Y-349304D01*
X-19191Y-349131D01*
Y-288700D01*
X54840Y-288120D01*
X55325Y-288020D01*
X55811Y-287923D01*
X55819Y-287917D01*
X55829Y-287915D01*
X56239Y-287637D01*
X56651Y-287362D01*
X56656Y-287353D01*
X56665Y-287347D01*
X56937Y-286933D01*
X57212Y-286522D01*
X57214Y-286511D01*
X57220Y-286503D01*
X57313Y-286016D01*
X57409Y-285530D01*
Y-22130D01*
X57212Y-21139D01*
X56651Y-20299D01*
X55811Y-19738D01*
X54819Y-19541D01*
X20828D01*
Y17780D01*
X-19191D01*
Y80870D01*
X-19225Y81043D01*
X-18745Y88369D01*
X-17279Y95740D01*
X-14863Y102857D01*
X-11539Y109598D01*
X-7363Y115847D01*
X-2408Y121497D01*
X3243Y126452D01*
X9492Y130628D01*
X16232Y133952D01*
X23349Y136368D01*
X30720Y137834D01*
X38046Y138314D01*
X38219Y138280D01*
X233630D01*
Y127254D01*
X233827Y126263D01*
X234388Y125423D01*
X235229Y124861D01*
X236220Y124664D01*
X290416D01*
Y108236D01*
X300956D01*
Y117236D01*
X307956D01*
Y124664D01*
X359416D01*
Y119512D01*
X358243Y119026D01*
X356496Y120773D01*
X355579Y121385D01*
X354499Y121600D01*
X354499Y121600D01*
X342175D01*
X342175Y121600D01*
X341094Y121385D01*
X340177Y120773D01*
X329025Y109621D01*
X327948Y110340D01*
X327956Y110358D01*
Y112654D01*
X327078Y114774D01*
X325454Y116398D01*
X323334Y117276D01*
X321038D01*
X318918Y116398D01*
X317294Y114774D01*
X316416Y112654D01*
Y110358D01*
X317294Y108238D01*
X318507Y107025D01*
X317960Y105776D01*
X306916D01*
Y91236D01*
X309088D01*
Y89238D01*
X309088Y89238D01*
X309303Y88157D01*
X309420Y87982D01*
Y86611D01*
X310070Y85041D01*
X311271Y83840D01*
X312841Y83190D01*
X314539D01*
X316109Y83840D01*
X317310Y85041D01*
X317960Y86611D01*
Y88309D01*
X317310Y89879D01*
X317223Y89966D01*
X317749Y91236D01*
X318456D01*
Y95682D01*
X321904D01*
X321905Y95682D01*
X322985Y95897D01*
X323902Y96509D01*
X338243Y110850D01*
X339416Y110364D01*
Y110358D01*
X340294Y108238D01*
X341918Y106614D01*
X344038Y105736D01*
X346334D01*
X347780Y106335D01*
X347898Y106384D01*
X348916Y105431D01*
X348916Y104711D01*
Y91236D01*
X352096D01*
Y78689D01*
X351838Y78065D01*
Y76367D01*
X352488Y74797D01*
X353689Y73596D01*
X355259Y72946D01*
X356957D01*
X358527Y73596D01*
X359728Y74797D01*
X360378Y76367D01*
Y78065D01*
X359728Y79635D01*
X358527Y80836D01*
X357276Y81354D01*
Y91236D01*
X360456D01*
Y105776D01*
X350048D01*
X349412Y105776D01*
X348865Y107025D01*
X350078Y108238D01*
X350956Y110358D01*
Y112654D01*
X350078Y114774D01*
X350074Y114778D01*
X350560Y115952D01*
X353329D01*
X369032Y100249D01*
X369948Y99637D01*
X371029Y99422D01*
X371029Y99422D01*
X391994D01*
Y97726D01*
X403534D01*
Y106766D01*
X391994D01*
Y105070D01*
X372198D01*
X370206Y107063D01*
X370692Y108236D01*
X376956D01*
Y124664D01*
X393219D01*
X394211Y124861D01*
X395051Y125423D01*
X395612Y126263D01*
X395809Y127254D01*
Y138280D01*
X468219D01*
X468393Y138314D01*
X475719Y137834D01*
D02*
G37*
%LPC*%
G36*
X130198Y133691D02*
X127474D01*
X124843Y132986D01*
X122484Y131624D01*
X120599Y129739D01*
X111266D01*
Y130198D01*
X99726D01*
Y125496D01*
X99590Y125292D01*
X99103Y122846D01*
Y122428D01*
X99590Y119982D01*
X99726Y119778D01*
Y114658D01*
X111266D01*
Y116953D01*
X120599D01*
X122484Y115068D01*
X124843Y113706D01*
X127474Y113001D01*
X130198D01*
X132829Y113706D01*
X135188Y115068D01*
X137114Y116994D01*
X138476Y119353D01*
X139181Y121984D01*
Y124708D01*
X138476Y127339D01*
X137114Y129698D01*
X135188Y131624D01*
X132829Y132986D01*
X130198Y133691D01*
D02*
G37*
G36*
X219998D02*
X217274D01*
X214643Y132986D01*
X212284Y131624D01*
X210358Y129698D01*
X208996Y127339D01*
X208291Y124708D01*
Y121984D01*
X208996Y119353D01*
X210358Y116994D01*
X212284Y115068D01*
X214643Y113706D01*
X217274Y113001D01*
X219998D01*
X222629Y113706D01*
X224988Y115068D01*
X226914Y116994D01*
X228276Y119353D01*
X228981Y121984D01*
Y124708D01*
X228276Y127339D01*
X226914Y129698D01*
X224988Y131624D01*
X222629Y132986D01*
X219998Y133691D01*
D02*
G37*
G36*
X242635Y121051D02*
X233595D01*
Y114244D01*
X233054Y113882D01*
X228441Y109270D01*
X205125D01*
X204095Y110300D01*
X202525Y110950D01*
X200827D01*
X199257Y110300D01*
X198056Y109099D01*
X197406Y107529D01*
Y105831D01*
X198056Y104261D01*
X199257Y103060D01*
X200827Y102410D01*
X202525D01*
X204095Y103060D01*
X205125Y104090D01*
X229514D01*
X230505Y104287D01*
X231345Y104849D01*
X235958Y109461D01*
X236135D01*
X236385Y109511D01*
X242635D01*
Y121051D01*
D02*
G37*
G36*
X469874Y94811D02*
X466565D01*
X466393Y94740D01*
X466209Y94765D01*
X463013Y93908D01*
X462865Y93795D01*
X462681Y93771D01*
X459816Y92116D01*
X459703Y91969D01*
X459531Y91898D01*
X457191Y89558D01*
X457120Y89386D01*
X456973Y89273D01*
X455318Y86408D01*
X455294Y86223D01*
X455181Y86076D01*
X454324Y82880D01*
X454349Y82696D01*
X454278Y82524D01*
Y79215D01*
X454349Y79043D01*
X454324Y78859D01*
X455181Y75663D01*
X455294Y75516D01*
X455318Y75331D01*
X456973Y72466D01*
X457120Y72353D01*
X457191Y72181D01*
X459531Y69841D01*
X459703Y69770D01*
X459816Y69623D01*
X462681Y67968D01*
X462865Y67944D01*
X463013Y67831D01*
X466209Y66974D01*
X466393Y66999D01*
X466565Y66928D01*
X469874D01*
X470046Y66999D01*
X470230Y66974D01*
X473426Y67831D01*
X473573Y67944D01*
X473758Y67968D01*
X476623Y69623D01*
X476736Y69770D01*
X476908Y69841D01*
X479248Y72181D01*
X479319Y72353D01*
X479466Y72466D01*
X481121Y75331D01*
X481145Y75515D01*
X481258Y75663D01*
X482115Y78859D01*
X482090Y79043D01*
X482161Y79215D01*
Y82524D01*
X482090Y82696D01*
X482115Y82880D01*
X481258Y86076D01*
X481145Y86223D01*
X481121Y86408D01*
X479466Y89273D01*
X479319Y89386D01*
X479248Y89558D01*
X476908Y91898D01*
X476736Y91969D01*
X476623Y92116D01*
X473758Y93771D01*
X473573Y93795D01*
X473426Y93908D01*
X470230Y94765D01*
X470046Y94740D01*
X469874Y94811D01*
D02*
G37*
G36*
X39874D02*
X36565D01*
X36393Y94740D01*
X36209Y94765D01*
X33013Y93908D01*
X32866Y93795D01*
X32681Y93771D01*
X29816Y92116D01*
X29703Y91969D01*
X29531Y91898D01*
X27191Y89558D01*
X27120Y89386D01*
X26973Y89273D01*
X25318Y86408D01*
X25294Y86223D01*
X25181Y86076D01*
X24324Y82880D01*
X24349Y82696D01*
X24278Y82524D01*
Y79215D01*
X24349Y79043D01*
X24324Y78859D01*
X25181Y75663D01*
X25294Y75516D01*
X25318Y75331D01*
X26973Y72466D01*
X27120Y72353D01*
X27191Y72181D01*
X29531Y69841D01*
X29703Y69770D01*
X29816Y69623D01*
X32681Y67968D01*
X32866Y67944D01*
X33013Y67831D01*
X36209Y66974D01*
X36393Y66999D01*
X36565Y66928D01*
X39874D01*
X40046Y66999D01*
X40230Y66974D01*
X43426Y67831D01*
X43573Y67944D01*
X43758Y67968D01*
X46623Y69623D01*
X46736Y69770D01*
X46908Y69841D01*
X49248Y72181D01*
X49319Y72353D01*
X49466Y72466D01*
X51121Y75331D01*
X51145Y75515D01*
X51258Y75663D01*
X52115Y78859D01*
X52090Y79043D01*
X52161Y79215D01*
Y82524D01*
X52090Y82696D01*
X52115Y82880D01*
X51258Y86076D01*
X51145Y86223D01*
X51121Y86408D01*
X49466Y89273D01*
X49319Y89386D01*
X49248Y89558D01*
X46908Y91898D01*
X46736Y91969D01*
X46623Y92116D01*
X43758Y93771D01*
X43573Y93795D01*
X43426Y93908D01*
X40230Y94765D01*
X40046Y94740D01*
X39874Y94811D01*
D02*
G37*
G36*
X403534Y92266D02*
X391994D01*
Y83226D01*
X403534D01*
Y83779D01*
X408750D01*
Y81210D01*
X419290D01*
Y91750D01*
X408750D01*
Y90447D01*
X403534D01*
Y92266D01*
D02*
G37*
G36*
X246395Y103855D02*
X232655D01*
Y100839D01*
X167569D01*
X165903Y100507D01*
X164491Y99564D01*
X155628Y90701D01*
X154684Y89289D01*
X154353Y87622D01*
Y74694D01*
X154684Y73028D01*
X155628Y71616D01*
X159382Y67861D01*
Y67785D01*
X159439Y67498D01*
X158634Y66516D01*
X150966D01*
Y56976D01*
X161048D01*
Y55565D01*
X159420Y53937D01*
X158864Y53104D01*
X158668Y52122D01*
Y49516D01*
X148466D01*
Y39976D01*
X168920D01*
Y39901D01*
X169116Y38918D01*
X169285Y38664D01*
Y27130D01*
X168823D01*
X167253Y26480D01*
X166052Y25279D01*
X165402Y23709D01*
Y22011D01*
X166052Y20441D01*
X167253Y19240D01*
X168823Y18590D01*
X169285D01*
Y3306D01*
X159754D01*
Y-11434D01*
X169285D01*
Y-15635D01*
X169481Y-16618D01*
X170037Y-17451D01*
X177980Y-25394D01*
X178813Y-25951D01*
X179796Y-26146D01*
X226223D01*
X256513Y-56435D01*
Y-182833D01*
X218867Y-220478D01*
X218311Y-221311D01*
X218115Y-222293D01*
Y-226954D01*
X210556D01*
X210446Y-226954D01*
X209286D01*
X209176Y-226954D01*
X199536D01*
X199050Y-225781D01*
X216773Y-208058D01*
X222339D01*
X222625Y-208344D01*
X224195Y-208994D01*
X225893D01*
X227463Y-208344D01*
X228664Y-207143D01*
X229314Y-205573D01*
Y-203875D01*
X229015Y-203152D01*
X229863Y-201882D01*
X230465D01*
X232035Y-201232D01*
X233236Y-200031D01*
X233886Y-198461D01*
Y-196763D01*
X233236Y-195193D01*
X232035Y-193992D01*
X230465Y-193342D01*
X228767D01*
X227197Y-193992D01*
X226911Y-194278D01*
X207629D01*
X206353Y-194532D01*
X205271Y-195254D01*
X177701Y-222824D01*
X176979Y-223906D01*
X176725Y-225182D01*
Y-226954D01*
X172456D01*
X172346Y-226954D01*
X171186D01*
X171076Y-226954D01*
X159756D01*
X159646Y-226954D01*
X158486D01*
X158376Y-226954D01*
X147056D01*
X146946Y-226954D01*
X145786D01*
X145676Y-226954D01*
X134356D01*
X134246Y-226954D01*
X133086D01*
X132976Y-226954D01*
X121656D01*
X121546Y-226954D01*
X120386D01*
X120276Y-226954D01*
X108956D01*
X108846Y-226954D01*
X107686D01*
X107576Y-226954D01*
X96256D01*
X96146Y-226954D01*
X94986D01*
X94876Y-226954D01*
X83446D01*
Y-226954D01*
X82286D01*
Y-226954D01*
X70746D01*
Y-244494D01*
X72672D01*
Y-257754D01*
X72672Y-257754D01*
X72965Y-259225D01*
X73798Y-260472D01*
X74366Y-261040D01*
Y-268144D01*
X77192D01*
Y-270114D01*
X76536D01*
Y-286654D01*
X78762D01*
Y-291394D01*
X78762Y-291394D01*
X79055Y-292865D01*
X79712Y-293849D01*
X80200Y-295027D01*
X81401Y-296228D01*
X82971Y-296878D01*
X84669D01*
X86239Y-296228D01*
X87269Y-295198D01*
X113284D01*
X114275Y-295001D01*
X115115Y-294439D01*
X120587Y-288967D01*
X121149Y-288127D01*
X121346Y-287136D01*
Y-282884D01*
X123276D01*
Y-272664D01*
X129809D01*
X142441Y-285295D01*
X143281Y-285857D01*
X144272Y-286054D01*
X289159D01*
X290189Y-287084D01*
X291759Y-287734D01*
X293457D01*
X295027Y-287084D01*
X296228Y-285883D01*
X296878Y-284313D01*
Y-282615D01*
X296228Y-281045D01*
X295027Y-279844D01*
X293457Y-279194D01*
X291759D01*
X290189Y-279844D01*
X289159Y-280874D01*
X208366D01*
Y-275204D01*
X360097D01*
X360801Y-275908D01*
X362371Y-276558D01*
X364069D01*
X365639Y-275908D01*
X366840Y-274707D01*
X367490Y-273137D01*
Y-271439D01*
X366840Y-269869D01*
X365639Y-268668D01*
X364069Y-268018D01*
X362371D01*
X360801Y-268668D01*
X359600Y-269869D01*
X359536Y-270024D01*
X206436D01*
Y-268144D01*
X209266D01*
Y-255604D01*
X206636D01*
Y-244494D01*
X209176D01*
X209286Y-244494D01*
X210446D01*
X210556Y-244494D01*
X221986D01*
Y-244494D01*
X223146D01*
Y-244494D01*
X234686D01*
Y-226954D01*
X227017D01*
Y-224917D01*
X264662Y-187272D01*
X265219Y-186439D01*
X265414Y-185456D01*
Y-53812D01*
X265219Y-52829D01*
X264662Y-51996D01*
X230662Y-17996D01*
X229829Y-17440D01*
X228846Y-17244D01*
X182419D01*
X178187Y-13012D01*
Y-11434D01*
X187974D01*
Y3306D01*
X178187D01*
Y18590D01*
X178649D01*
X180219Y19240D01*
X181420Y20441D01*
X182070Y22011D01*
Y23709D01*
X181420Y25279D01*
X180219Y26480D01*
X178649Y27130D01*
X178187D01*
Y31450D01*
X179234Y31848D01*
X179457Y31861D01*
X185334Y25984D01*
Y18106D01*
X194374D01*
Y29646D01*
X188997D01*
X183826Y34817D01*
Y39976D01*
X199006D01*
Y49516D01*
X188804D01*
Y51058D01*
X190431Y52686D01*
X190987Y53519D01*
X191183Y54501D01*
Y56976D01*
X201506D01*
Y66516D01*
X193838D01*
X193032Y67498D01*
X193090Y67785D01*
Y92132D01*
X232655D01*
Y89115D01*
X234996D01*
Y81124D01*
X234344Y80688D01*
X233561Y79515D01*
X233286Y78132D01*
Y73182D01*
X233561Y71799D01*
X234344Y70626D01*
X235517Y69843D01*
X236900Y69568D01*
X241450D01*
X242833Y69843D01*
X244006Y70626D01*
X244789Y71799D01*
X245064Y73182D01*
Y78132D01*
X244789Y79515D01*
X244006Y80688D01*
X243704Y80890D01*
Y89115D01*
X246395D01*
Y103855D01*
D02*
G37*
G36*
X274150Y81747D02*
X269600D01*
X268217Y81472D01*
X267044Y80688D01*
X266261Y79515D01*
X265986Y78132D01*
Y73182D01*
X266261Y71799D01*
X267044Y70626D01*
X268217Y69843D01*
X269600Y69568D01*
X274150D01*
X275533Y69843D01*
X276706Y70626D01*
X277158Y71304D01*
X307603D01*
X310670Y68237D01*
Y62046D01*
X307528D01*
X305862Y61714D01*
X304450Y60771D01*
X302571Y58892D01*
X291688D01*
Y46852D01*
X308728D01*
Y52735D01*
X309331Y53338D01*
X317224D01*
X317645Y53422D01*
X327294D01*
Y55138D01*
X371329D01*
X373982Y52485D01*
X375394Y51542D01*
X377060Y51210D01*
X385477D01*
X385739Y51102D01*
X387437D01*
X387699Y51210D01*
X422019D01*
X422337Y50733D01*
X423510Y49950D01*
X424893Y49675D01*
X429843D01*
X431226Y49950D01*
X432399Y50733D01*
X433182Y51906D01*
X433458Y53289D01*
Y57839D01*
X433182Y59222D01*
X432399Y60395D01*
X431226Y61178D01*
X429843Y61453D01*
X424893D01*
X423510Y61178D01*
X422337Y60395D01*
X422019Y59918D01*
X378863D01*
X376211Y62571D01*
X374798Y63514D01*
X373132Y63846D01*
X327294D01*
Y65562D01*
X319378D01*
Y70040D01*
X319046Y71706D01*
X318102Y73119D01*
X312485Y78736D01*
X311073Y79679D01*
X309407Y80011D01*
X277158D01*
X276706Y80688D01*
X275533Y81472D01*
X274150Y81747D01*
D02*
G37*
G36*
X216322Y73616D02*
X213750D01*
X211265Y72950D01*
X209037Y71664D01*
X207218Y69845D01*
X205932Y67617D01*
X205266Y65132D01*
Y62560D01*
X205932Y60075D01*
X207218Y57847D01*
X208121Y56944D01*
X207823Y55446D01*
X207176Y55178D01*
X205904Y53906D01*
X205216Y52245D01*
Y50447D01*
X205904Y48786D01*
X207176Y47514D01*
X208837Y46826D01*
X210635D01*
X212296Y47514D01*
X213568Y48786D01*
X214256Y50447D01*
Y52245D01*
X214024Y52806D01*
X214872Y54076D01*
X216322D01*
X218807Y54742D01*
X221035Y56028D01*
X222854Y57847D01*
X224140Y60075D01*
X224806Y62560D01*
Y65132D01*
X224140Y67617D01*
X222854Y69845D01*
X221035Y71664D01*
X218807Y72950D01*
X216322Y73616D01*
D02*
G37*
G36*
X133591Y72616D02*
X131281D01*
X129051Y72018D01*
X127051Y70864D01*
X125418Y69231D01*
X124264Y67231D01*
X123666Y65001D01*
Y62691D01*
X124264Y60461D01*
X125418Y58461D01*
X127051Y56828D01*
X129051Y55674D01*
X130446Y55300D01*
X131049Y54296D01*
X131145Y53880D01*
X131143Y53863D01*
X130716Y52270D01*
Y50422D01*
X131194Y48636D01*
X132119Y47036D01*
X133426Y45729D01*
X135026Y44804D01*
X136812Y44326D01*
X138660D01*
X140446Y44804D01*
X142046Y45729D01*
X143353Y47036D01*
X144278Y48636D01*
X144756Y50422D01*
Y52270D01*
X144278Y54056D01*
X143353Y55656D01*
X142046Y56963D01*
X140553Y57826D01*
X140426Y57945D01*
X139957Y59333D01*
X140608Y60461D01*
X141206Y62691D01*
Y65001D01*
X140608Y67231D01*
X139454Y69231D01*
X137821Y70864D01*
X135821Y72018D01*
X133591Y72616D01*
D02*
G37*
G36*
X308728Y35992D02*
X291688D01*
Y33816D01*
X274320D01*
X274320Y33816D01*
X272849Y33523D01*
X271602Y32690D01*
X260088Y21176D01*
X259255Y19929D01*
X258962Y18458D01*
X258962Y18458D01*
Y-5954D01*
X257526D01*
Y-22494D01*
X258962D01*
Y-24210D01*
X257586D01*
Y-36750D01*
X260412D01*
Y-39720D01*
X260412Y-39720D01*
X260705Y-41191D01*
X261538Y-42438D01*
X267936Y-48836D01*
Y-238760D01*
Y-253543D01*
X267259Y-254220D01*
X220318D01*
X219289Y-253794D01*
X217591D01*
X216021Y-254444D01*
X214820Y-255645D01*
X214170Y-257215D01*
Y-258913D01*
X214820Y-260483D01*
X216021Y-261684D01*
X217591Y-262334D01*
X219289D01*
X220318Y-261908D01*
X268851D01*
X268851Y-261908D01*
X270322Y-261615D01*
X271569Y-260782D01*
X274498Y-257853D01*
X274498Y-257853D01*
X275331Y-256606D01*
X275624Y-255135D01*
Y-242092D01*
X443021D01*
X443249Y-242943D01*
X444502Y-245113D01*
X446275Y-246886D01*
X448445Y-248139D01*
X450867Y-248788D01*
X453373D01*
X455795Y-248139D01*
X457965Y-246886D01*
X459738Y-245113D01*
X460991Y-242943D01*
X461640Y-240521D01*
Y-238015D01*
X460991Y-235593D01*
X459738Y-233423D01*
X457965Y-231650D01*
X455795Y-230397D01*
X453373Y-229748D01*
X450867D01*
X448445Y-230397D01*
X446275Y-231650D01*
X444502Y-233423D01*
X443249Y-235593D01*
X443021Y-236444D01*
X275624D01*
Y-223594D01*
X276894Y-223468D01*
X277007Y-224039D01*
X277569Y-224879D01*
X279057Y-226367D01*
X279897Y-226929D01*
X280888Y-227126D01*
X334264D01*
X335255Y-226929D01*
X336095Y-226367D01*
X340160Y-222302D01*
X340722Y-221462D01*
X340919Y-220471D01*
Y-219009D01*
X343849D01*
Y-207969D01*
X332809D01*
Y-219009D01*
X334333D01*
X334859Y-220279D01*
X333191Y-221946D01*
X281990D01*
Y-54249D01*
X283020Y-53219D01*
X283670Y-51649D01*
Y-49951D01*
X283020Y-48381D01*
X281819Y-47180D01*
X280249Y-46530D01*
X278551D01*
X277320Y-47040D01*
X276343Y-46588D01*
X276050Y-46315D01*
Y-45911D01*
X275400Y-44341D01*
X274199Y-43140D01*
X272629Y-42490D01*
X272462D01*
X268100Y-38128D01*
Y-31930D01*
X268026Y-31559D01*
Y-24210D01*
X266650D01*
Y-22494D01*
X269666D01*
Y-5954D01*
X266650D01*
Y16866D01*
X275912Y26128D01*
X291688D01*
Y23952D01*
X308728D01*
Y35992D01*
D02*
G37*
G36*
X455391Y29559D02*
X440651D01*
Y27218D01*
X432718D01*
X432399Y27695D01*
X431226Y28478D01*
X429843Y28753D01*
X424893D01*
X423510Y28478D01*
X422337Y27695D01*
X421554Y26522D01*
X421337Y25431D01*
X354725D01*
X353742Y25236D01*
X352909Y24679D01*
X320283Y-7947D01*
X314874D01*
Y-19487D01*
X323914D01*
Y-11578D01*
X355788Y20296D01*
X421337D01*
X421554Y19206D01*
X422337Y18033D01*
X423510Y17250D01*
X424893Y16975D01*
X429843D01*
X431226Y17250D01*
X432399Y18033D01*
X432718Y18510D01*
X440651D01*
Y15819D01*
X443668D01*
Y-23746D01*
X439214D01*
X436615Y-21147D01*
X435203Y-20204D01*
X433537Y-19872D01*
X423195D01*
X421529Y-20204D01*
X420116Y-21147D01*
X419225Y-22038D01*
X418052Y-21552D01*
Y-15330D01*
X408512D01*
Y-25412D01*
X407101D01*
X405473Y-23784D01*
X404640Y-23228D01*
X403658Y-23033D01*
X401052D01*
Y-12830D01*
X391512D01*
Y-23370D01*
Y-33284D01*
X391437D01*
X390454Y-33480D01*
X390200Y-33649D01*
X378666D01*
Y-33187D01*
X378016Y-31617D01*
X376815Y-30416D01*
X375245Y-29766D01*
X373547D01*
X371977Y-30416D01*
X370776Y-31617D01*
X370126Y-33187D01*
Y-33649D01*
X362825D01*
X361842Y-33845D01*
X361009Y-34401D01*
X358340Y-37070D01*
X345182D01*
Y-50810D01*
X356886D01*
Y-77379D01*
X350872Y-83393D01*
X347138D01*
Y-72574D01*
X335644D01*
X335138Y-72574D01*
X335138Y-72068D01*
Y-60574D01*
X334935D01*
Y-48943D01*
X339822D01*
Y-36403D01*
X336461D01*
Y-34219D01*
X338414D01*
Y-22679D01*
X336461D01*
Y-19487D01*
X338414D01*
Y-7947D01*
X329374D01*
Y-19487D01*
X331326D01*
Y-22679D01*
X329374D01*
Y-34219D01*
X331326D01*
Y-36403D01*
X329382D01*
Y-48943D01*
X329800D01*
Y-58788D01*
X328531Y-59314D01*
X318847Y-49630D01*
X318014Y-49074D01*
X317031Y-48878D01*
X312094D01*
Y-46926D01*
X300554D01*
Y-54309D01*
X299393Y-54544D01*
X299284Y-54520D01*
X298754Y-53727D01*
X297362Y-52335D01*
Y-46926D01*
X285822D01*
Y-55966D01*
X293731D01*
X294371Y-56606D01*
Y-57163D01*
X294567Y-58145D01*
X295123Y-58978D01*
X296889Y-60743D01*
X297722Y-61300D01*
X298704Y-61495D01*
X299598D01*
Y-72068D01*
X299598Y-72574D01*
X299092Y-72574D01*
X287598D01*
Y-78114D01*
Y-88114D01*
Y-98114D01*
Y-108114D01*
X299092D01*
X299598Y-108114D01*
X299598Y-108620D01*
Y-120114D01*
X309548D01*
Y-121420D01*
X305049Y-125920D01*
X304487Y-126760D01*
X304290Y-127751D01*
Y-155942D01*
X304487Y-156933D01*
X305049Y-157773D01*
X309795Y-162519D01*
Y-165267D01*
X307631D01*
X306640Y-165464D01*
X305800Y-166026D01*
X293978Y-177848D01*
X293416Y-178688D01*
X293219Y-179679D01*
Y-187969D01*
X290289D01*
Y-199009D01*
X301329D01*
Y-187969D01*
X298399D01*
Y-180752D01*
X308704Y-170447D01*
X312335D01*
X312585Y-170397D01*
X318835D01*
Y-158857D01*
X313457D01*
X309470Y-154869D01*
Y-152576D01*
X310740Y-151754D01*
X311571Y-152098D01*
X313269D01*
X314839Y-151448D01*
X316040Y-150247D01*
X316278Y-149673D01*
X316429Y-149564D01*
X317812Y-149287D01*
X318144Y-149509D01*
X318522Y-150927D01*
X318452Y-150997D01*
X317802Y-152567D01*
Y-154265D01*
X318452Y-155835D01*
X319653Y-157036D01*
X321223Y-157686D01*
X322921D01*
X324491Y-157036D01*
X325692Y-155835D01*
X326342Y-154265D01*
Y-152567D01*
X325775Y-151197D01*
X326022Y-150337D01*
X326291Y-149800D01*
X326703Y-149718D01*
X327868Y-148940D01*
X328646Y-147775D01*
X328919Y-146402D01*
Y-144452D01*
X330189Y-144068D01*
X330537Y-144589D01*
X335186Y-149238D01*
X334466Y-150315D01*
X334097Y-150162D01*
X332399D01*
X330829Y-150812D01*
X329628Y-152013D01*
X328978Y-153583D01*
Y-155040D01*
X328964Y-155054D01*
X328402Y-155894D01*
X328205Y-156885D01*
Y-158857D01*
X324295D01*
Y-170397D01*
X331459D01*
X331945Y-171570D01*
X329926Y-173589D01*
X324549D01*
Y-185129D01*
X326479D01*
Y-187969D01*
X323309D01*
Y-199009D01*
X334349D01*
Y-187969D01*
X331659D01*
Y-185129D01*
X333589D01*
Y-177251D01*
X342699Y-168141D01*
X343261Y-167301D01*
X343458Y-166310D01*
Y-158797D01*
X344728Y-158544D01*
X344868Y-158883D01*
X345898Y-159913D01*
Y-187969D01*
X342309D01*
Y-199009D01*
X353349D01*
Y-187969D01*
X351078D01*
Y-159913D01*
X352108Y-158883D01*
X352758Y-157313D01*
Y-155615D01*
X352108Y-154045D01*
X350907Y-152844D01*
X349337Y-152194D01*
X347639D01*
X346069Y-152844D01*
X344868Y-154045D01*
X344728Y-154384D01*
X343458Y-154131D01*
Y-151258D01*
X343261Y-150267D01*
X342699Y-149427D01*
X334958Y-141685D01*
Y-120114D01*
X335138D01*
Y-108620D01*
X335138Y-108114D01*
X335644Y-108114D01*
X347138D01*
Y-97574D01*
X334598D01*
Y-107068D01*
X334598Y-107574D01*
X334092Y-107574D01*
X300644D01*
X300138Y-107574D01*
X300138Y-107068D01*
Y-93114D01*
Y-83114D01*
Y-73620D01*
X300138Y-73114D01*
X300644Y-73114D01*
X334092D01*
X334598Y-73114D01*
X334598Y-73620D01*
Y-83114D01*
Y-93114D01*
X347138D01*
Y-92295D01*
X352802D01*
Y-101106D01*
X367542D01*
Y-87366D01*
X361147D01*
X360661Y-86193D01*
X365036Y-81818D01*
X365592Y-80985D01*
X365788Y-80002D01*
Y-42551D01*
X370126D01*
Y-43013D01*
X370776Y-44583D01*
X371977Y-45784D01*
X373547Y-46434D01*
X375245D01*
X376815Y-45784D01*
X378016Y-44583D01*
X378666Y-43013D01*
Y-42551D01*
X382986D01*
X383384Y-43598D01*
X383397Y-43821D01*
X377519Y-49698D01*
X369642D01*
Y-58738D01*
X381182D01*
Y-53361D01*
X386353Y-48190D01*
X391512D01*
Y-53370D01*
Y-63370D01*
X401052D01*
Y-53168D01*
X402594D01*
X404222Y-54795D01*
X405055Y-55352D01*
X406037Y-55547D01*
X408512D01*
Y-65870D01*
X418052D01*
Y-58202D01*
X419034Y-57397D01*
X419321Y-57454D01*
X419397D01*
X423152Y-61208D01*
X424564Y-62152D01*
X426230Y-62483D01*
X439159D01*
X440825Y-62152D01*
X442237Y-61208D01*
X451100Y-52345D01*
X452043Y-50933D01*
X452375Y-49267D01*
Y15819D01*
X455391D01*
Y29559D01*
D02*
G37*
G36*
X242728Y47492D02*
X225688D01*
Y12452D01*
X242728D01*
Y47492D01*
D02*
G37*
G36*
X416537Y11970D02*
X414227D01*
X411997Y11372D01*
X409997Y10218D01*
X408364Y8585D01*
X407210Y6585D01*
X406836Y5190D01*
X405832Y4586D01*
X405416Y4491D01*
X405399Y4493D01*
X403806Y4920D01*
X401958D01*
X400172Y4442D01*
X398572Y3517D01*
X397265Y2210D01*
X396340Y610D01*
X395862Y-1176D01*
Y-3024D01*
X396340Y-4810D01*
X397265Y-6410D01*
X398572Y-7717D01*
X400172Y-8642D01*
X401958Y-9120D01*
X403806D01*
X405592Y-8642D01*
X407192Y-7717D01*
X408499Y-6410D01*
X409362Y-4917D01*
X409481Y-4790D01*
X410869Y-4321D01*
X411997Y-4972D01*
X414227Y-5570D01*
X416537D01*
X418767Y-4972D01*
X420767Y-3818D01*
X422400Y-2185D01*
X423554Y-185D01*
X424152Y2045D01*
Y4355D01*
X423554Y6585D01*
X422400Y8585D01*
X420767Y10218D01*
X418767Y11372D01*
X416537Y11970D01*
D02*
G37*
G36*
X476244Y17145D02*
X473520D01*
X470889Y16440D01*
X468530Y15078D01*
X466604Y13152D01*
X465242Y10793D01*
X464537Y8162D01*
Y5438D01*
X465242Y2807D01*
X466604Y448D01*
X468530Y-1478D01*
X470889Y-2840D01*
X473520Y-3545D01*
X476244D01*
X478875Y-2840D01*
X481234Y-1478D01*
X483160Y448D01*
X484522Y2807D01*
X485227Y5438D01*
Y8162D01*
X484522Y10793D01*
X483160Y13152D01*
X481234Y15078D01*
X478875Y16440D01*
X476244Y17145D01*
D02*
G37*
G36*
X472622Y28766D02*
X461082D01*
Y22516D01*
X461032Y22266D01*
Y22089D01*
X457909Y18965D01*
X457347Y18125D01*
X457150Y17134D01*
Y-4171D01*
X456120Y-5201D01*
X455470Y-6771D01*
Y-8469D01*
X456120Y-10039D01*
X457321Y-11240D01*
X458891Y-11890D01*
X460589D01*
X462159Y-11240D01*
X463360Y-10039D01*
X464010Y-8469D01*
Y-6771D01*
X463360Y-5201D01*
X462330Y-4171D01*
Y16061D01*
X465453Y19185D01*
X465815Y19726D01*
X472622D01*
Y28766D01*
D02*
G37*
G36*
X308931Y-23995D02*
X307232D01*
X305663Y-24645D01*
X304462Y-25846D01*
X303812Y-27415D01*
Y-28786D01*
X303694Y-28962D01*
X303479Y-30043D01*
X303479Y-30043D01*
Y-32426D01*
X300554D01*
Y-41466D01*
X312094D01*
Y-32426D01*
X311755D01*
X311229Y-31156D01*
X311702Y-30684D01*
X312352Y-29114D01*
Y-27415D01*
X311702Y-25846D01*
X310500Y-24645D01*
X308931Y-23995D01*
D02*
G37*
G36*
X229493Y-38954D02*
X227795D01*
X226225Y-39604D01*
X225024Y-40805D01*
X224374Y-42375D01*
Y-44073D01*
X225024Y-45643D01*
X226054Y-46673D01*
Y-51954D01*
X223256D01*
X223146Y-51954D01*
X221986D01*
X221876Y-51954D01*
X210556D01*
X210446Y-51954D01*
X209286D01*
X209176Y-51954D01*
X197856D01*
X197746Y-51954D01*
X196586D01*
X196476Y-51954D01*
X185156D01*
X185046Y-51954D01*
X183886D01*
X183776Y-51954D01*
X172456D01*
X172346Y-51954D01*
X171186D01*
X171076Y-51954D01*
X159756D01*
X159646Y-51954D01*
X158486D01*
X158376Y-51954D01*
X147056D01*
X146946Y-51954D01*
X145786D01*
X145676Y-51954D01*
X134356D01*
X134246Y-51954D01*
X133086D01*
X132976Y-51954D01*
X121656D01*
X121546Y-51954D01*
X120386D01*
X120276Y-51954D01*
X108956D01*
X108846Y-51954D01*
X107686D01*
X107576Y-51954D01*
X96256D01*
X96146Y-51954D01*
X94986D01*
X94876Y-51954D01*
X83556D01*
X83446Y-51954D01*
X82286D01*
X82176Y-51954D01*
X70746D01*
Y-69494D01*
X82176D01*
X82286Y-69494D01*
X83446D01*
X83556Y-69494D01*
X94876D01*
X94986Y-69494D01*
X96146D01*
X96256Y-69494D01*
X101065D01*
Y-125561D01*
X100012Y-126613D01*
X99362Y-128183D01*
Y-129881D01*
X100012Y-131451D01*
X101213Y-132652D01*
X102783Y-133302D01*
X104481D01*
X106051Y-132652D01*
X107252Y-131451D01*
X107902Y-129881D01*
Y-128183D01*
X107252Y-126613D01*
X106200Y-125561D01*
Y-69494D01*
X107576D01*
X107686Y-69494D01*
X108846D01*
X108956Y-69494D01*
X111733D01*
Y-132673D01*
X110680Y-133725D01*
X110030Y-135295D01*
Y-136993D01*
X110680Y-138563D01*
X111881Y-139764D01*
X113451Y-140414D01*
X115149D01*
X116719Y-139764D01*
X117920Y-138563D01*
X118570Y-136993D01*
Y-135295D01*
X117920Y-133725D01*
X116868Y-132673D01*
Y-69494D01*
X120276D01*
X120386Y-69494D01*
X121546D01*
X121656Y-69494D01*
X132976D01*
X133086Y-69494D01*
X134246D01*
X134356Y-69494D01*
X145676D01*
X145786Y-69494D01*
X146946D01*
X147056Y-69494D01*
X158376D01*
X158486Y-69494D01*
X159646D01*
X159756Y-69494D01*
X171076D01*
X171186Y-69494D01*
X172346D01*
X172456Y-69494D01*
X183776D01*
X183886Y-69494D01*
X185046D01*
X185156Y-69494D01*
X196476D01*
X196586Y-69494D01*
X197746D01*
X197856Y-69494D01*
X209176D01*
X209286Y-69494D01*
X210446D01*
X210556Y-69494D01*
X221876D01*
X221986Y-69494D01*
X223146D01*
X223256Y-69494D01*
X234686D01*
Y-51954D01*
X231234D01*
Y-46673D01*
X232264Y-45643D01*
X232914Y-44073D01*
Y-42375D01*
X232264Y-40805D01*
X231063Y-39604D01*
X229493Y-38954D01*
D02*
G37*
G36*
X403781Y-69580D02*
X401983D01*
X400322Y-70268D01*
X399050Y-71540D01*
X398362Y-73201D01*
Y-74999D01*
X399050Y-76660D01*
X400322Y-77932D01*
X401983Y-78620D01*
X403781D01*
X404342Y-78388D01*
X405612Y-79236D01*
Y-80686D01*
X406278Y-83171D01*
X407564Y-85399D01*
X409383Y-87218D01*
X411611Y-88504D01*
X414096Y-89170D01*
X416668D01*
X419153Y-88504D01*
X421381Y-87218D01*
X423200Y-85399D01*
X424486Y-83171D01*
X425152Y-80686D01*
Y-78114D01*
X424486Y-75629D01*
X423200Y-73401D01*
X421381Y-71582D01*
X419153Y-70296D01*
X416668Y-69630D01*
X414096D01*
X411611Y-70296D01*
X409383Y-71582D01*
X408480Y-72485D01*
X406982Y-72187D01*
X406714Y-71540D01*
X405442Y-70268D01*
X403781Y-69580D01*
D02*
G37*
G36*
X476244Y-72655D02*
X473520D01*
X470889Y-73360D01*
X468530Y-74722D01*
X466604Y-76648D01*
X465242Y-79007D01*
X464537Y-81638D01*
Y-84362D01*
X465242Y-86993D01*
X466604Y-89352D01*
X466930Y-89678D01*
Y-98538D01*
X462130D01*
Y-110078D01*
X467250D01*
X467453Y-110214D01*
X469900Y-110701D01*
X470900D01*
X473346Y-110214D01*
X473550Y-110078D01*
X477670D01*
Y-106579D01*
X477843Y-106406D01*
X479229Y-104332D01*
X479715Y-101885D01*
Y-92155D01*
X481234Y-91278D01*
X483160Y-89352D01*
X484522Y-86993D01*
X485227Y-84362D01*
Y-81638D01*
X484522Y-79007D01*
X483160Y-76648D01*
X481234Y-74722D01*
X478875Y-73360D01*
X476244Y-72655D01*
D02*
G37*
G36*
X453540Y-152278D02*
X453390D01*
Y-161798D01*
X462910D01*
Y-161647D01*
X462175Y-158903D01*
X460754Y-156443D01*
X458745Y-154434D01*
X456285Y-153013D01*
X453540Y-152278D01*
D02*
G37*
G36*
X450850D02*
X450700D01*
X447955Y-153013D01*
X445495Y-154434D01*
X443486Y-156443D01*
X442065Y-158903D01*
X441330Y-161647D01*
Y-161798D01*
X450850D01*
Y-152278D01*
D02*
G37*
G36*
X462910Y-164338D02*
X453390D01*
Y-173858D01*
X453540D01*
X456285Y-173123D01*
X458745Y-171702D01*
X460754Y-169693D01*
X462175Y-167233D01*
X462910Y-164489D01*
Y-164338D01*
D02*
G37*
G36*
X450850D02*
X441330D01*
Y-164489D01*
X442065Y-167233D01*
X443486Y-169693D01*
X445495Y-171702D01*
X447955Y-173123D01*
X450700Y-173858D01*
X450850D01*
Y-164338D01*
D02*
G37*
G36*
X453373Y-178948D02*
X450867D01*
X448445Y-179597D01*
X446275Y-180850D01*
X444502Y-182623D01*
X443249Y-184793D01*
X442952Y-185900D01*
X367218D01*
X365458Y-184141D01*
Y-183047D01*
X364808Y-181477D01*
X363607Y-180276D01*
X362037Y-179626D01*
X360339D01*
X358769Y-180276D01*
X357568Y-181477D01*
X356918Y-183047D01*
Y-184745D01*
X357568Y-186315D01*
X358769Y-187516D01*
X360339Y-188166D01*
X362037D01*
X362167Y-188112D01*
X364339Y-190284D01*
X365172Y-190840D01*
X366154Y-191035D01*
X442952D01*
X443249Y-192143D01*
X444502Y-194313D01*
X446275Y-196086D01*
X448445Y-197339D01*
X450867Y-197988D01*
X453373D01*
X455795Y-197339D01*
X457965Y-196086D01*
X459738Y-194313D01*
X460991Y-192143D01*
X461640Y-189721D01*
Y-187215D01*
X460991Y-184793D01*
X459738Y-182623D01*
X457965Y-180850D01*
X455795Y-179597D01*
X453373Y-178948D01*
D02*
G37*
G36*
X319089Y-173589D02*
X310049D01*
Y-185129D01*
X311979D01*
Y-187969D01*
X309289D01*
Y-199009D01*
X320329D01*
Y-187969D01*
X317159D01*
Y-185129D01*
X319089D01*
Y-173589D01*
D02*
G37*
G36*
X453373Y-204348D02*
X450867D01*
X448445Y-204997D01*
X446275Y-206250D01*
X444502Y-208023D01*
X443249Y-210193D01*
X443020Y-211047D01*
X363327D01*
X363284Y-210941D01*
X362083Y-209740D01*
X360513Y-209090D01*
X358815D01*
X357245Y-209740D01*
X356044Y-210941D01*
X355394Y-212511D01*
Y-214209D01*
X356044Y-215779D01*
X357245Y-216980D01*
X358815Y-217630D01*
X360513D01*
X362083Y-216980D01*
X362881Y-216182D01*
X442884D01*
X443249Y-217543D01*
X444502Y-219713D01*
X446275Y-221486D01*
X448445Y-222739D01*
X450867Y-223388D01*
X453373D01*
X455795Y-222739D01*
X457965Y-221486D01*
X459738Y-219713D01*
X460991Y-217543D01*
X461640Y-215121D01*
Y-212615D01*
X460991Y-210193D01*
X459738Y-208023D01*
X457965Y-206250D01*
X455795Y-204997D01*
X453373Y-204348D01*
D02*
G37*
G36*
X310829Y-207969D02*
X299789D01*
Y-212198D01*
X298519Y-212724D01*
X298075Y-212280D01*
X296505Y-211630D01*
X294807D01*
X293237Y-212280D01*
X292036Y-213481D01*
X291386Y-215051D01*
Y-216749D01*
X292036Y-218319D01*
X293237Y-219520D01*
X294807Y-220170D01*
X296505D01*
X298075Y-219520D01*
X298538Y-219056D01*
X299789Y-219009D01*
Y-219009D01*
X310829D01*
Y-207969D01*
D02*
G37*
G36*
X461640Y-255148D02*
X442600D01*
Y-261844D01*
X378410D01*
X378158Y-261592D01*
Y-261279D01*
X377508Y-259709D01*
X376307Y-258508D01*
X374737Y-257858D01*
X373039D01*
X371469Y-258508D01*
X370268Y-259709D01*
X369618Y-261279D01*
Y-262977D01*
X370268Y-264547D01*
X371469Y-265748D01*
X373039Y-266398D01*
X374737D01*
X374906Y-266328D01*
X375243Y-266665D01*
X375243Y-266665D01*
X376159Y-267277D01*
X377240Y-267492D01*
X442600D01*
Y-274188D01*
X461640D01*
Y-255148D01*
D02*
G37*
G36*
X241641Y-288338D02*
X239943D01*
X238373Y-288988D01*
X237172Y-290189D01*
X236522Y-291759D01*
Y-293457D01*
X237172Y-295027D01*
X237841Y-295695D01*
Y-307254D01*
X236038D01*
Y-316294D01*
X247578D01*
Y-307254D01*
X244509D01*
Y-294793D01*
X245062Y-293457D01*
Y-291759D01*
X244412Y-290189D01*
X243211Y-288988D01*
X241641Y-288338D01*
D02*
G37*
G36*
X258405Y-288846D02*
X256707D01*
X255137Y-289496D01*
X253936Y-290697D01*
X253286Y-292267D01*
Y-293965D01*
X253936Y-295535D01*
X254222Y-295821D01*
Y-307762D01*
X251786D01*
Y-316802D01*
X263326D01*
Y-307762D01*
X260890D01*
Y-295821D01*
X261176Y-295535D01*
X261826Y-293965D01*
Y-292267D01*
X261176Y-290697D01*
X259975Y-289496D01*
X258405Y-288846D01*
D02*
G37*
G36*
X247578Y-321754D02*
X236038D01*
Y-322940D01*
X227446D01*
X226170Y-323194D01*
X225088Y-323917D01*
X213034Y-335970D01*
X212312Y-337052D01*
X212058Y-338328D01*
Y-358854D01*
X210146D01*
Y-369394D01*
X220686D01*
Y-358854D01*
X218726D01*
Y-339709D01*
X228827Y-329608D01*
X236038D01*
Y-330794D01*
X247578D01*
Y-321754D01*
D02*
G37*
G36*
X469874Y-335188D02*
X466565D01*
X466393Y-335260D01*
X466209Y-335235D01*
X463013Y-336092D01*
X462865Y-336205D01*
X462681Y-336229D01*
X459816Y-337884D01*
X459703Y-338031D01*
X459531Y-338102D01*
X457191Y-340442D01*
X457120Y-340614D01*
X456973Y-340727D01*
X455318Y-343592D01*
X455294Y-343777D01*
X455181Y-343924D01*
X454324Y-347120D01*
X454349Y-347304D01*
X454278Y-347476D01*
Y-350785D01*
X454349Y-350957D01*
X454324Y-351141D01*
X455181Y-354337D01*
X455294Y-354484D01*
X455318Y-354669D01*
X456973Y-357534D01*
X457120Y-357647D01*
X457191Y-357819D01*
X459531Y-360159D01*
X459703Y-360230D01*
X459816Y-360377D01*
X462681Y-362032D01*
X462865Y-362056D01*
X463013Y-362169D01*
X466209Y-363026D01*
X466393Y-363001D01*
X466565Y-363073D01*
X469874D01*
X470046Y-363001D01*
X470230Y-363026D01*
X473426Y-362169D01*
X473573Y-362056D01*
X473758Y-362032D01*
X476623Y-360377D01*
X476736Y-360230D01*
X476908Y-360159D01*
X479248Y-357819D01*
X479319Y-357647D01*
X479466Y-357534D01*
X481121Y-354669D01*
X481145Y-354484D01*
X481258Y-354337D01*
X482115Y-351141D01*
X482090Y-350957D01*
X482161Y-350785D01*
Y-347476D01*
X482090Y-347304D01*
X482115Y-347120D01*
X481258Y-343924D01*
X481145Y-343777D01*
X481121Y-343592D01*
X479466Y-340727D01*
X479319Y-340614D01*
X479248Y-340442D01*
X476908Y-338102D01*
X476736Y-338031D01*
X476623Y-337884D01*
X473758Y-336229D01*
X473573Y-336205D01*
X473426Y-336092D01*
X470230Y-335235D01*
X470046Y-335260D01*
X469874Y-335188D01*
D02*
G37*
G36*
X39874D02*
X36565D01*
X36393Y-335260D01*
X36209Y-335235D01*
X33013Y-336092D01*
X32866Y-336205D01*
X32681Y-336229D01*
X29816Y-337884D01*
X29703Y-338031D01*
X29531Y-338102D01*
X27191Y-340442D01*
X27120Y-340614D01*
X26973Y-340727D01*
X25318Y-343592D01*
X25294Y-343777D01*
X25181Y-343924D01*
X24324Y-347120D01*
X24349Y-347304D01*
X24278Y-347476D01*
Y-350785D01*
X24349Y-350957D01*
X24324Y-351141D01*
X25181Y-354337D01*
X25294Y-354484D01*
X25318Y-354669D01*
X26973Y-357534D01*
X27120Y-357647D01*
X27191Y-357819D01*
X29531Y-360159D01*
X29703Y-360230D01*
X29816Y-360377D01*
X32681Y-362032D01*
X32866Y-362056D01*
X33013Y-362169D01*
X36209Y-363026D01*
X36393Y-363001D01*
X36565Y-363073D01*
X39874D01*
X40046Y-363001D01*
X40230Y-363026D01*
X43426Y-362169D01*
X43573Y-362056D01*
X43758Y-362032D01*
X46623Y-360377D01*
X46736Y-360230D01*
X46908Y-360159D01*
X49248Y-357819D01*
X49319Y-357647D01*
X49466Y-357534D01*
X51121Y-354669D01*
X51145Y-354484D01*
X51258Y-354337D01*
X52115Y-351141D01*
X52090Y-350957D01*
X52161Y-350785D01*
Y-347476D01*
X52090Y-347304D01*
X52115Y-347120D01*
X51258Y-343924D01*
X51145Y-343777D01*
X51121Y-343592D01*
X49466Y-340727D01*
X49319Y-340614D01*
X49248Y-340442D01*
X46908Y-338102D01*
X46736Y-338031D01*
X46623Y-337884D01*
X43758Y-336229D01*
X43573Y-336205D01*
X43426Y-336092D01*
X40230Y-335235D01*
X40046Y-335260D01*
X39874Y-335188D01*
D02*
G37*
G36*
X429282Y-339688D02*
X427157D01*
X426986Y-339760D01*
X426802Y-339735D01*
X424750Y-340285D01*
X424603Y-340398D01*
X424418Y-340423D01*
X422579Y-341485D01*
X422466Y-341632D01*
X422294Y-341703D01*
X420792Y-343205D01*
X420721Y-343377D01*
X420574Y-343490D01*
X419511Y-345329D01*
X419487Y-345513D01*
X419374Y-345661D01*
X418824Y-347713D01*
X418849Y-347897D01*
X418778Y-348068D01*
Y-350193D01*
X418849Y-350364D01*
X418824Y-350548D01*
X419374Y-352600D01*
X419487Y-352748D01*
X419511Y-352932D01*
X420574Y-354771D01*
X420721Y-354884D01*
X420792Y-355056D01*
X422294Y-356558D01*
X422466Y-356629D01*
X422579Y-356777D01*
X424418Y-357839D01*
X424603Y-357863D01*
X424750Y-357976D01*
X426802Y-358526D01*
X426986Y-358501D01*
X427157Y-358573D01*
X429282D01*
X429453Y-358501D01*
X429637Y-358526D01*
X431689Y-357976D01*
X431837Y-357863D01*
X432021Y-357839D01*
X433860Y-356777D01*
X433973Y-356629D01*
X434145Y-356558D01*
X435647Y-355056D01*
X435718Y-354884D01*
X435865Y-354771D01*
X436927Y-352932D01*
X436952Y-352748D01*
X437065Y-352600D01*
X437615Y-350548D01*
X437590Y-350364D01*
X437662Y-350193D01*
Y-348068D01*
X437590Y-347897D01*
X437615Y-347713D01*
X437065Y-345661D01*
X436952Y-345513D01*
X436927Y-345329D01*
X435865Y-343490D01*
X435718Y-343377D01*
X435647Y-343205D01*
X434145Y-341703D01*
X433973Y-341632D01*
X433860Y-341485D01*
X432021Y-340423D01*
X431837Y-340398D01*
X431689Y-340285D01*
X429637Y-339735D01*
X429453Y-339760D01*
X429282Y-339688D01*
D02*
G37*
G36*
X79282D02*
X77157D01*
X76986Y-339760D01*
X76802Y-339735D01*
X74750Y-340285D01*
X74602Y-340398D01*
X74418Y-340423D01*
X72579Y-341485D01*
X72466Y-341632D01*
X72294Y-341703D01*
X70792Y-343205D01*
X70721Y-343377D01*
X70574Y-343490D01*
X69511Y-345329D01*
X69487Y-345513D01*
X69374Y-345661D01*
X68824Y-347713D01*
X68849Y-347897D01*
X68777Y-348068D01*
Y-350193D01*
X68849Y-350364D01*
X68824Y-350548D01*
X69374Y-352600D01*
X69487Y-352748D01*
X69511Y-352932D01*
X70574Y-354771D01*
X70721Y-354884D01*
X70792Y-355056D01*
X72294Y-356558D01*
X72466Y-356629D01*
X72579Y-356777D01*
X74418Y-357839D01*
X74602Y-357863D01*
X74750Y-357976D01*
X76802Y-358526D01*
X76986Y-358501D01*
X77157Y-358573D01*
X79282D01*
X79453Y-358501D01*
X79637Y-358526D01*
X81689Y-357976D01*
X81837Y-357863D01*
X82021Y-357839D01*
X83860Y-356777D01*
X83973Y-356629D01*
X84145Y-356558D01*
X85647Y-355056D01*
X85718Y-354884D01*
X85865Y-354771D01*
X86927Y-352932D01*
X86952Y-352748D01*
X87065Y-352600D01*
X87615Y-350548D01*
X87590Y-350364D01*
X87662Y-350193D01*
Y-348068D01*
X87590Y-347897D01*
X87615Y-347713D01*
X87065Y-345661D01*
X86952Y-345513D01*
X86927Y-345329D01*
X85865Y-343490D01*
X85718Y-343377D01*
X85647Y-343205D01*
X84145Y-341703D01*
X83973Y-341632D01*
X83860Y-341485D01*
X82021Y-340423D01*
X81837Y-340398D01*
X81689Y-340285D01*
X79637Y-339735D01*
X79453Y-339760D01*
X79282Y-339688D01*
D02*
G37*
G36*
X263326Y-322262D02*
X251786D01*
Y-331302D01*
X263326D01*
Y-330116D01*
X270029D01*
X271982Y-332069D01*
Y-358854D01*
X270046D01*
Y-369394D01*
X280586D01*
Y-358854D01*
X278650D01*
Y-330688D01*
X278396Y-329412D01*
X277673Y-328330D01*
X273768Y-324425D01*
X272686Y-323702D01*
X271410Y-323448D01*
X263326D01*
Y-322262D01*
D02*
G37*
%LPD*%
G36*
X201456Y-255604D02*
X198826D01*
Y-268144D01*
X201256D01*
Y-270074D01*
X199326D01*
Y-280874D01*
X145345D01*
X132713Y-268243D01*
X131873Y-267681D01*
X130882Y-267484D01*
X110046D01*
X109055Y-267681D01*
X108215Y-268243D01*
X105113Y-271344D01*
X103299D01*
X101566Y-269611D01*
Y-268144D01*
X104196D01*
Y-255604D01*
X97418D01*
X91806Y-249991D01*
Y-244494D01*
X94876D01*
X94986Y-244494D01*
X96146D01*
X96256Y-244494D01*
X107576D01*
X107686Y-244494D01*
X108846D01*
X108956Y-244494D01*
X120276D01*
X120386Y-244494D01*
X121546D01*
X121656Y-244494D01*
X132976D01*
X133086Y-244494D01*
X134246D01*
X134356Y-244494D01*
X145676D01*
X145786Y-244494D01*
X146946D01*
X147056Y-244494D01*
X158376D01*
X158486Y-244494D01*
X159646D01*
X159756Y-244494D01*
X171076D01*
X171186Y-244494D01*
X172346D01*
X172456Y-244494D01*
X183886D01*
Y-244494D01*
X185046D01*
Y-244494D01*
X196476D01*
X196586Y-244494D01*
Y-244494D01*
X197746D01*
Y-244494D01*
X201456D01*
Y-255604D01*
D02*
G37*
D18*
X397764Y87746D02*
D03*
Y102246D02*
D03*
X257556Y-312282D02*
D03*
Y-326782D02*
D03*
X241808Y-311774D02*
D03*
Y-326274D02*
D03*
X466852Y38746D02*
D03*
Y24246D02*
D03*
X375412Y-54218D02*
D03*
Y-68718D02*
D03*
X291592Y-36946D02*
D03*
Y-51446D02*
D03*
X306324Y-36946D02*
D03*
Y-51446D02*
D03*
D19*
X414020Y101480D02*
D03*
Y86480D02*
D03*
X133516Y-150774D02*
D03*
Y-163274D02*
D03*
X108516Y-150774D02*
D03*
X121016D02*
D03*
X108516Y-163274D02*
D03*
X121016Y-175774D02*
D03*
X133516D02*
D03*
X121016Y-163274D02*
D03*
X108516Y-175774D02*
D03*
D20*
X263596Y-14224D02*
D03*
X281996D02*
D03*
X64206Y-278384D02*
D03*
X82606D02*
D03*
D21*
X277706Y-30480D02*
D03*
X262806D02*
D03*
X319702Y-42673D02*
D03*
X334602D02*
D03*
X189146Y-261874D02*
D03*
X113876Y-261874D02*
D03*
X64686Y-261874D02*
D03*
X204046D02*
D03*
X98976Y-261874D02*
D03*
X79586Y-261874D02*
D03*
D22*
X181104Y-4064D02*
D03*
X213104D02*
D03*
X166624D02*
D03*
X134624D02*
D03*
X239525Y96485D02*
D03*
X271525D02*
D03*
D23*
X189854Y23876D02*
D03*
X204354D02*
D03*
X333894Y-13717D02*
D03*
X319394D02*
D03*
X319394Y-28449D02*
D03*
X333894D02*
D03*
X252615Y115281D02*
D03*
X238115D02*
D03*
X189346Y-275844D02*
D03*
X314569Y-179359D02*
D03*
X329069D02*
D03*
X328815Y-164627D02*
D03*
X314315D02*
D03*
X203846Y-275844D02*
D03*
X118756Y-277114D02*
D03*
X104256D02*
D03*
D24*
X319024Y59492D02*
D03*
Y41092D02*
D03*
D25*
X396282Y-65600D02*
D03*
Y-60600D02*
D03*
Y-55600D02*
D03*
Y-50600D02*
D03*
Y-45600D02*
D03*
Y-40600D02*
D03*
Y-35600D02*
D03*
Y-30600D02*
D03*
Y-25600D02*
D03*
Y-20600D02*
D03*
Y-15600D02*
D03*
Y-10600D02*
D03*
X413282Y-13100D02*
D03*
Y-18100D02*
D03*
Y-23100D02*
D03*
Y-28100D02*
D03*
Y-33100D02*
D03*
Y-38100D02*
D03*
Y-43100D02*
D03*
Y-48100D02*
D03*
Y-53100D02*
D03*
Y-58100D02*
D03*
Y-63100D02*
D03*
Y-68100D02*
D03*
D26*
X275316Y-364124D02*
D03*
X290316D02*
D03*
X215416D02*
D03*
X230416D02*
D03*
D27*
X305309Y-213489D02*
D03*
X295809Y-193489D02*
D03*
X314809D02*
D03*
X338329Y-213489D02*
D03*
X328829Y-193489D02*
D03*
X347829D02*
D03*
D28*
X360172Y-94236D02*
D03*
Y-126236D02*
D03*
X352552Y-43940D02*
D03*
Y-11940D02*
D03*
X448021Y22689D02*
D03*
Y54689D02*
D03*
D29*
X322580Y-144152D02*
D03*
Y-129152D02*
D03*
D30*
X317368Y-90344D02*
D03*
D31*
X332368Y-113844D02*
D03*
X327368D02*
D03*
X322368D02*
D03*
X317368D02*
D03*
X312368D02*
D03*
X307368D02*
D03*
X302368D02*
D03*
Y-66844D02*
D03*
X307368D02*
D03*
X312368D02*
D03*
X317368D02*
D03*
X322368D02*
D03*
X327368D02*
D03*
X332368D02*
D03*
D32*
X293868Y-105344D02*
D03*
Y-100344D02*
D03*
Y-95344D02*
D03*
Y-90344D02*
D03*
Y-85344D02*
D03*
Y-80344D02*
D03*
Y-75344D02*
D03*
X340868D02*
D03*
Y-80344D02*
D03*
Y-90344D02*
D03*
Y-95344D02*
D03*
Y-100344D02*
D03*
Y-105344D02*
D03*
Y-85344D02*
D03*
D33*
X234208Y29972D02*
D03*
D34*
X300208Y52872D02*
D03*
Y29972D02*
D03*
Y7072D02*
D03*
D35*
X239175Y75657D02*
D03*
X271875Y75657D02*
D03*
D36*
X201236Y44746D02*
D03*
X196236D02*
D03*
X191236D02*
D03*
X186236D02*
D03*
X181236D02*
D03*
X176236D02*
D03*
X171236D02*
D03*
X166236D02*
D03*
X161236D02*
D03*
X156236D02*
D03*
X151236D02*
D03*
X146236D02*
D03*
X148736Y61746D02*
D03*
X153736D02*
D03*
X158736D02*
D03*
X163736D02*
D03*
X168736D02*
D03*
X173736D02*
D03*
X178736D02*
D03*
X183736D02*
D03*
X188736D02*
D03*
X193736D02*
D03*
X198736D02*
D03*
X203736D02*
D03*
D37*
X364186Y121506D02*
D03*
X303186D02*
D03*
D38*
X295686Y117006D02*
D03*
X371686D02*
D03*
D39*
X312686Y98506D02*
D03*
X354686D02*
D03*
D40*
X427368Y22864D02*
D03*
X427368Y55564D02*
D03*
D41*
X105496Y122428D02*
D03*
X84496D02*
D03*
D42*
X469900Y-104308D02*
D03*
Y-125308D02*
D03*
D43*
X63816Y-60724D02*
D03*
Y-235724D02*
D03*
X76516Y-60724D02*
D03*
X89216D02*
D03*
X101916D02*
D03*
X114616D02*
D03*
X127316D02*
D03*
X140016D02*
D03*
X152716D02*
D03*
X165416D02*
D03*
X178116D02*
D03*
X190816D02*
D03*
X203516D02*
D03*
X216216D02*
D03*
X228916D02*
D03*
Y-235724D02*
D03*
X216216D02*
D03*
X203516D02*
D03*
X190816D02*
D03*
X178116D02*
D03*
X165416D02*
D03*
X152716D02*
D03*
X140016D02*
D03*
X127316D02*
D03*
X114616D02*
D03*
X101916D02*
D03*
X89216D02*
D03*
X76516D02*
D03*
D79*
X0Y0D02*
D03*
D80*
X413342Y101854D02*
X420116D01*
X421894Y103632D01*
X312686Y98506D02*
X321905D01*
X342175Y118776D01*
X354499D01*
X371029Y102246D01*
X397764D01*
X182300Y-275824D02*
X189074D01*
X180522Y-277602D02*
X182300Y-275824D01*
X189146Y-262384D02*
Y-261875D01*
X180594Y-264834D02*
X186696D01*
X189146Y-262384D01*
X113876Y-262084D02*
X116326Y-264534D01*
X122428D01*
X113876Y-262084D02*
Y-261874D01*
X271780Y-238760D02*
X272288Y-239268D01*
X452120D01*
X373888Y-262128D02*
X374700D01*
X377240Y-264668D01*
X452120D01*
X374070Y-77270D02*
Y-70060D01*
X375412Y-68718D01*
X311912Y89238D02*
X313690Y87460D01*
X311912Y89238D02*
Y96012D01*
X465074Y47298D02*
X466852Y45520D01*
Y38746D02*
Y45520D01*
X446243Y63241D02*
X448021Y61463D01*
Y54689D02*
Y61463D01*
X203533Y23876D02*
X210307D01*
X212085Y22098D01*
X252744Y115302D02*
X259518D01*
X261296Y117080D01*
X64516Y-57445D02*
Y-50671D01*
X62738Y-48893D02*
X64516Y-50671D01*
X216875Y-4572D02*
X223649D01*
X225427Y-2794D01*
X128399Y-4064D02*
X135173D01*
X126621Y-5842D02*
X128399Y-4064D01*
X271739Y102616D02*
X278513D01*
X280291Y104394D01*
X203736Y61197D02*
Y67971D01*
X201958Y69749D02*
X203736Y67971D01*
X148736Y61197D02*
Y67971D01*
X146958Y69749D02*
X148736Y67971D01*
X322539Y40640D02*
X329313D01*
X331091Y42418D01*
X303743Y8128D02*
X310517D01*
X312295Y9906D01*
X289982Y-6195D02*
X290794D01*
X288204Y-7973D02*
X289982Y-6195D01*
X282227Y-7973D02*
X288204D01*
X277706Y-36705D02*
Y-29931D01*
X275928Y-38483D02*
X277706Y-36705D01*
X291572Y-36817D02*
Y-30043D01*
X293350Y-28265D01*
X324308Y-50800D02*
X325120D01*
X320182Y-46674D02*
X324308Y-50800D01*
X318603Y-46674D02*
X320182D01*
X355092Y-9185D02*
Y-2411D01*
X356870Y-633D01*
X412733Y-13100D02*
X419507D01*
X421285Y-11322D01*
X412733Y-68100D02*
X419507D01*
X421285Y-66322D01*
X360172Y-135765D02*
Y-128991D01*
Y-135765D02*
X361950Y-137543D01*
X132967Y-163274D02*
X139741D01*
X141519Y-161496D01*
X102291Y-150774D02*
X109065D01*
X100513Y-152552D02*
X102291Y-150774D01*
Y-163274D02*
X109065D01*
X100513Y-165052D02*
X102291Y-163274D01*
X134112Y-184025D02*
Y-177251D01*
Y-184025D02*
X135890Y-185803D01*
X121920Y-184025D02*
Y-177251D01*
Y-184025D02*
X123698Y-185803D01*
X108204Y-184533D02*
Y-177759D01*
Y-184533D02*
X109982Y-186311D01*
X64008Y-232197D02*
Y-225423D01*
X62230Y-223645D02*
X64008Y-225423D01*
X306304Y-36817D02*
Y-30043D01*
X308082Y-28265D01*
D81*
X413387Y87113D02*
X414020Y86480D01*
X398397Y87113D02*
X413387D01*
X397764Y87746D02*
X398397Y87113D01*
X257556Y-312282D02*
Y-293116D01*
X241175Y-311141D02*
X241808Y-311774D01*
X241175Y-311141D02*
Y-292991D01*
X240792Y-292608D02*
X241175Y-292991D01*
X180059Y-233781D02*
Y-225182D01*
X178116Y-235724D02*
X180059Y-233781D01*
Y-225182D02*
X207629Y-197612D01*
X229616D01*
X193316Y-233224D02*
Y-226800D01*
X215392Y-204724D01*
X190816Y-235724D02*
X193316Y-233224D01*
X215392Y-204724D02*
X225044D01*
X275316Y-364124D02*
Y-330688D01*
X271410Y-326782D02*
X275316Y-330688D01*
X257556Y-326782D02*
X271410D01*
X215392Y-364100D02*
X215416Y-364124D01*
X215392Y-364100D02*
Y-338328D01*
X227446Y-326274D01*
X241808D01*
D82*
X262806Y-30480D02*
Y18458D01*
X268851Y-258064D02*
X271780Y-255135D01*
X218440Y-258064D02*
X268851D01*
X271780Y-255135D02*
Y-238760D01*
Y-47244D01*
X264256Y-39720D02*
X271780Y-47244D01*
X264256Y-39720D02*
Y-31930D01*
X262806Y-30480D02*
X264256Y-31930D01*
X262806Y18458D02*
X274320Y29972D01*
X300208D01*
X63816Y-235724D02*
X64011Y-235919D01*
Y-278189D02*
Y-235919D01*
X64206Y-278384D02*
X64516Y-278694D01*
Y-293116D02*
Y-278694D01*
X64011Y-278189D02*
X64206Y-278384D01*
X82606Y-291394D02*
X83820Y-292608D01*
X82606Y-291394D02*
Y-278384D01*
X81036Y-276814D02*
X82606Y-278384D01*
X81036Y-276814D02*
Y-263324D01*
X79586Y-261874D02*
X81036Y-263324D01*
X79586Y-261874D02*
Y-260824D01*
X76516Y-257754D02*
X79586Y-260824D01*
X76516Y-257754D02*
Y-235724D01*
D83*
X130882Y-270074D02*
X144272Y-283464D01*
X292608D01*
X203846Y-274594D02*
X205826Y-272614D01*
X203846Y-275844D02*
Y-262074D01*
X205826Y-272614D02*
X362894D01*
X363220Y-272288D01*
X279400Y-223048D02*
Y-50800D01*
X280888Y-224536D02*
X334264D01*
X279400Y-223048D02*
X280888Y-224536D01*
X228644Y-60452D02*
X228916Y-60724D01*
X228644Y-60452D02*
Y-43224D01*
X334264Y-224536D02*
X338329Y-220471D01*
Y-213489D01*
X104256Y-275864D02*
X110046Y-270074D01*
X130882D01*
X295656Y-215900D02*
X302898D01*
X305309Y-213489D01*
X347829Y-193489D02*
X348488Y-192830D01*
Y-156464D01*
X330795Y-156885D02*
X333248Y-154432D01*
X330795Y-162647D02*
Y-156885D01*
X328815Y-164627D02*
X330795Y-162647D01*
X340868Y-166310D02*
Y-151258D01*
X332368Y-142758D02*
X340868Y-151258D01*
X329069Y-178109D02*
X340868Y-166310D01*
X314569Y-193249D02*
Y-179359D01*
Y-193249D02*
X314809Y-193489D01*
X328829D02*
X329069Y-193249D01*
Y-179359D01*
X332368Y-142758D02*
Y-113844D01*
X312138Y-114074D02*
X312368Y-113844D01*
X312138Y-122493D02*
Y-114074D01*
X306880Y-127751D02*
X312138Y-122493D01*
X306880Y-155942D02*
Y-127751D01*
Y-155942D02*
X314315Y-163377D01*
Y-164627D02*
Y-163377D01*
Y-165877D02*
Y-164627D01*
X312335Y-167857D02*
X314315Y-165877D01*
X307631Y-167857D02*
X312335D01*
X295809Y-179679D02*
X307631Y-167857D01*
X295809Y-193489D02*
Y-179679D01*
X203516Y-235724D02*
X204046Y-236254D01*
Y-261874D02*
Y-236254D01*
X203846Y-262074D02*
X204046Y-261874D01*
X354686Y78638D02*
X356108Y77216D01*
X354686Y78638D02*
Y98506D01*
X465602Y24246D02*
X466852D01*
X463622Y22266D02*
X465602Y24246D01*
X463622Y21016D02*
Y22266D01*
X459740Y17134D02*
X463622Y21016D01*
X459740Y-7620D02*
Y17134D01*
X416998Y-33668D02*
X424120D01*
X416660Y-33330D02*
X416998Y-33668D01*
X413512Y-33330D02*
X416660D01*
X424120Y-33668D02*
X426292Y-31496D01*
X413282Y-33100D02*
X413512Y-33330D01*
X426292Y-31496D02*
X427228D01*
X238115Y114031D02*
Y115281D01*
X236135Y112051D02*
X238115Y114031D01*
X234885Y112051D02*
X236135D01*
X229514Y106680D02*
X234885Y112051D01*
X201676Y106680D02*
X229514D01*
X168148Y74756D02*
Y75692D01*
X169314Y65451D02*
Y73589D01*
X168148Y74756D02*
X169314Y73589D01*
X168966Y65103D02*
X169314Y65451D01*
X168966Y61976D02*
Y65103D01*
X168736Y61746D02*
X168966Y61976D01*
X181236Y33744D02*
Y44746D01*
Y33744D02*
X189854Y25126D01*
Y23876D02*
Y25126D01*
X375412Y-54218D02*
X376662D01*
X385280Y-45600D01*
X396282D01*
X83820Y-292608D02*
X113284D01*
X118756Y-287136D01*
Y-277114D01*
X104256D02*
Y-275864D01*
X102276Y-273884D02*
X104256Y-275864D01*
X102176Y-273884D02*
X102276D01*
X98976Y-270684D02*
X102176Y-273884D01*
X98976Y-270684D02*
Y-261874D01*
Y-260824D01*
X89216Y-251064D02*
X98976Y-260824D01*
X89216Y-251064D02*
Y-235724D01*
D84*
X366154Y-188468D02*
X452120D01*
X361582Y-183896D02*
X366154Y-188468D01*
X361188Y-183896D02*
X361582D01*
X359664Y-213360D02*
X359918Y-213614D01*
X451866D01*
X452120Y-213868D01*
X375344Y-34036D02*
X377525Y-36217D01*
X375344Y-42164D02*
X377525Y-39983D01*
X354725Y22864D02*
X427368D01*
X319394Y-12467D02*
X354725Y22864D01*
X319394Y-13717D02*
Y-12467D01*
X228846Y-19812D02*
X262846Y-53812D01*
Y-185456D02*
Y-53812D01*
X227286Y-23578D02*
X259080Y-55372D01*
X224449Y-223853D02*
X262846Y-185456D01*
X220683Y-222293D02*
X259080Y-183896D01*
Y-55372D01*
X413282Y-28100D02*
X419264D01*
X419293Y-28128D01*
X432039Y-42483D02*
X434220Y-44664D01*
X413534Y-42848D02*
X418128D01*
X418493Y-42483D01*
X418128Y-38352D02*
X418493Y-38717D01*
X418493Y-42483D02*
X432039D01*
X413282Y-38100D02*
X413534Y-38352D01*
X413282Y-43100D02*
X413534Y-42848D01*
X418493Y-38717D02*
X432039D01*
X413534Y-38352D02*
X418128D01*
X432039Y-38717D02*
X434220Y-36536D01*
X178484Y61998D02*
Y66592D01*
Y61998D02*
X178736Y61746D01*
X173988Y66592D02*
X174353Y66957D01*
X178119Y66957D02*
Y80503D01*
X173736Y61746D02*
X173988Y61998D01*
X178119Y66957D02*
X178484Y66592D01*
X174353Y66957D02*
Y80503D01*
X173988Y61998D02*
Y66592D01*
X344368Y-85344D02*
X344985Y-85961D01*
X351935D01*
X340868Y-85344D02*
X344368D01*
X351935Y-85961D02*
X359454Y-78442D01*
Y-39588D01*
X362825Y-36217D01*
X377525D02*
X391072D01*
X362825D02*
X371267D01*
X374396Y-34036D02*
X375344D01*
X371267Y-36217D02*
X373448Y-34036D01*
X374396D01*
X391072Y-36217D02*
X391437Y-35852D01*
X396030D01*
X396282Y-35600D01*
X413162Y-27979D02*
X413282Y-28100D01*
X406037Y-27979D02*
X413162D01*
X403658Y-25600D02*
X406037Y-27979D01*
X396282Y-25600D02*
X403658D01*
X413162Y-52979D02*
X413282Y-53100D01*
X406037Y-52979D02*
X413162D01*
X403658Y-50600D02*
X406037Y-52979D01*
X396282Y-50600D02*
X403658D01*
X340868Y-90344D02*
X344368D01*
X344985Y-89727D02*
X353495D01*
X344368Y-90344D02*
X344985Y-89727D01*
X353495D02*
X363220Y-80002D01*
Y-41446D01*
X371267Y-39983D02*
X373448Y-42164D01*
X374396D01*
X363220Y-41446D02*
X364682Y-39983D01*
X371267D01*
X374396Y-42164D02*
X375344D01*
X391437Y-40348D02*
X396030D01*
X396282Y-40600D01*
X377525Y-39983D02*
X391072D01*
X391437Y-40348D01*
X408782Y-10600D02*
X411282Y-13100D01*
X396282Y-10600D02*
X408782D01*
X411282Y-13100D02*
X413282D01*
X203615Y61625D02*
X203736Y61746D01*
X203615Y54501D02*
Y61625D01*
X201236Y52122D02*
X203615Y54501D01*
X201236Y44746D02*
Y52122D01*
X396282Y-65600D02*
X403658D01*
X406037Y-67979D01*
X413162D02*
X413282Y-68100D01*
X406037Y-67979D02*
X413162D01*
X148736Y59746D02*
Y61746D01*
X146236Y57246D02*
X148736Y59746D01*
X146236Y44746D02*
Y57246D01*
X114300Y-61040D02*
X114616Y-60724D01*
X114300Y-136144D02*
Y-61040D01*
X101916Y-60724D02*
X103632Y-62440D01*
Y-129032D02*
Y-62440D01*
X312420Y-147828D02*
Y-127569D01*
X317368Y-122620D01*
Y-113844D01*
X322072Y-153416D02*
X322580Y-152908D01*
Y-144152D01*
X322474Y-129046D02*
X322580Y-129152D01*
X322474Y-129046D02*
Y-113950D01*
X322368Y-113844D02*
X322474Y-113950D01*
X188615Y61625D02*
X188736Y61746D01*
X188615Y54501D02*
Y61625D01*
X186236Y52122D02*
X188615Y54501D01*
X186236Y44746D02*
Y52122D01*
X163615Y61625D02*
X163736Y61746D01*
X163615Y54501D02*
Y61625D01*
X161236Y52122D02*
X163615Y54501D01*
X161236Y44746D02*
Y52122D01*
X333894Y-41965D02*
Y-13717D01*
Y-41965D02*
X334602Y-42673D01*
X332368Y-44907D02*
X334602Y-42673D01*
X332368Y-66844D02*
Y-44907D01*
X306324Y-51446D02*
X317031D01*
X327116Y-61531D01*
Y-66592D02*
Y-61531D01*
Y-66592D02*
X327368Y-66844D01*
X291592Y-51446D02*
X292842D01*
X296939Y-55543D01*
Y-57163D02*
Y-55543D01*
Y-57163D02*
X298704Y-58928D01*
X314513D01*
X317116Y-61531D01*
Y-66592D02*
Y-61531D01*
Y-66592D02*
X317368Y-66844D01*
X171853Y-15635D02*
Y-2427D01*
Y-15635D02*
X179796Y-23578D01*
X227286D01*
X175619Y-14075D02*
Y19731D01*
Y-14075D02*
X181356Y-19812D01*
X171853Y-2427D02*
Y19731D01*
X216216Y-232724D02*
X220683Y-228257D01*
Y-222293D01*
X216216Y-235724D02*
Y-232724D01*
X178119Y80503D02*
X180300Y82684D01*
X171488Y39901D02*
X171853Y39536D01*
X171488Y39901D02*
Y44494D01*
X171236Y44746D02*
X171488Y44494D01*
X169672Y23808D02*
X171853Y25989D01*
X169672Y21912D02*
X171853Y19731D01*
Y25989D02*
Y39536D01*
X169672Y22860D02*
Y23808D01*
Y21912D02*
Y22860D01*
X228916Y-235724D02*
Y-232724D01*
X181356Y-19812D02*
X228846D01*
X224449Y-228257D02*
X228916Y-232724D01*
X224449Y-228257D02*
Y-223853D01*
X177800Y22860D02*
Y23808D01*
Y21912D02*
Y22860D01*
X175984Y44494D02*
X176236Y44746D01*
X175984Y39901D02*
Y44494D01*
X175619Y39536D02*
X175984Y39901D01*
X175619Y25989D02*
Y39536D01*
X172172Y82684D02*
X174353Y80503D01*
X175619Y25989D02*
X177800Y23808D01*
X175619Y19731D02*
X177800Y21912D01*
D85*
X316824Y59492D02*
X373132D01*
X377060Y55564D01*
X427368D01*
X419293Y-28128D02*
X423195Y-24226D01*
X433537D01*
X448021Y-49267D02*
Y22689D01*
X437411Y-28100D02*
X447753D01*
X433537Y-24226D02*
X437411Y-28100D01*
X427368Y22864D02*
X447846D01*
X439159Y-58130D02*
X448021Y-49267D01*
X426230Y-58130D02*
X439159D01*
X421201Y-53100D02*
X426230Y-58130D01*
X419321Y-53100D02*
X421201D01*
X188736Y67785D02*
Y96217D01*
X167569Y96485D02*
X239525D01*
X163736Y67785D02*
Y69665D01*
X158706Y74694D02*
X163736Y69665D01*
X158706Y74694D02*
Y87622D01*
X167569Y96485D01*
X300208Y52872D02*
X302708D01*
X307528Y57692D01*
X317224D01*
X315024Y61292D02*
X316824Y59492D01*
X315024Y61292D02*
Y70040D01*
X309407Y75657D02*
X315024Y70040D01*
X271875Y75657D02*
X309407D01*
X239175Y75657D02*
X239350Y75832D01*
Y96310D01*
X239525Y96485D01*
D86*
X105996Y123346D02*
X128836D01*
X105496Y122846D02*
X105996Y123346D01*
X105496Y122428D02*
Y122846D01*
X469900Y-104308D02*
X470900D01*
X473323Y-101885D01*
Y-84559D01*
X474882Y-83000D01*
D87*
X415382Y-79400D02*
D03*
X215036Y63846D02*
D03*
D88*
X415382Y3200D02*
D03*
X132436Y63846D02*
D03*
D89*
X474882Y-83000D02*
D03*
Y6800D02*
D03*
X218636Y123346D02*
D03*
X128836D02*
D03*
D90*
X452120Y-264668D02*
D03*
D91*
Y-239268D02*
D03*
Y-213868D02*
D03*
Y-188468D02*
D03*
Y-163068D02*
D03*
D92*
X322186Y111506D02*
D03*
X345186D02*
D03*
D93*
X488916Y93576D02*
D03*
X518916Y-326424D02*
D03*
X488916Y-386424D02*
D03*
X428916Y93576D02*
D03*
Y-146424D02*
D03*
X458916Y-326424D02*
D03*
X428916Y-386424D02*
D03*
X368916Y93576D02*
D03*
X398916Y33576D02*
D03*
Y-86424D02*
D03*
Y-206424D02*
D03*
Y-326424D02*
D03*
X368916Y-386424D02*
D03*
X338916Y33576D02*
D03*
X308916Y-266424D02*
D03*
X338916Y-326424D02*
D03*
X308916Y-386424D02*
D03*
X248916Y-26424D02*
D03*
Y-266424D02*
D03*
Y-386424D02*
D03*
X218916Y33576D02*
D03*
Y-86424D02*
D03*
X188916Y-386424D02*
D03*
X158916Y33576D02*
D03*
X128916Y-26424D02*
D03*
X158916Y-86424D02*
D03*
Y-206424D02*
D03*
Y-326424D02*
D03*
X128916Y-386424D02*
D03*
X68916Y93576D02*
D03*
X98916Y33576D02*
D03*
X68916Y-26424D02*
D03*
Y-146424D02*
D03*
X98916Y-206424D02*
D03*
Y-326424D02*
D03*
X68916Y-386424D02*
D03*
X8916Y93576D02*
D03*
X38916Y33576D02*
D03*
Y-326424D02*
D03*
X8916Y-386424D02*
D03*
X421894Y103632D02*
D03*
X257556Y-293116D02*
D03*
X240792Y-292608D02*
D03*
X229616Y-197612D02*
D03*
X225044Y-204724D02*
D03*
X180522Y-277602D02*
D03*
X180594Y-264834D02*
D03*
X122428Y-264534D02*
D03*
X218440Y-258064D02*
D03*
X361188Y-183896D02*
D03*
X359664Y-213360D02*
D03*
X373888Y-262128D02*
D03*
X374070Y-77270D02*
D03*
X374396Y-34036D02*
D03*
Y-42164D02*
D03*
X386588Y55372D02*
D03*
X271780Y-46760D02*
D03*
X279400Y-50800D02*
D03*
X228644Y-43224D02*
D03*
X292608Y-283464D02*
D03*
X295656Y-215900D02*
D03*
X348488Y-156464D02*
D03*
X333248Y-154432D02*
D03*
X363220Y-272288D02*
D03*
X356108Y77216D02*
D03*
X313690Y87460D02*
D03*
X465074Y47298D02*
D03*
X446243Y63241D02*
D03*
X459740Y-7620D02*
D03*
X427228Y-31496D02*
D03*
X201676Y106680D02*
D03*
X168148Y75692D02*
D03*
X212085Y22098D02*
D03*
X261296Y117080D02*
D03*
X435168Y-44664D02*
D03*
Y-36536D02*
D03*
X62738Y-48893D02*
D03*
X225427Y-2794D02*
D03*
X126621Y-5842D02*
D03*
X280291Y104394D02*
D03*
X201958Y69749D02*
D03*
X146958D02*
D03*
X331091Y42418D02*
D03*
X312295Y9906D02*
D03*
X290794Y-6195D02*
D03*
X275928Y-38483D02*
D03*
X293350Y-28265D02*
D03*
X325120Y-50800D02*
D03*
X356870Y-633D02*
D03*
X421285Y-11322D02*
D03*
Y-66322D02*
D03*
X361950Y-137543D02*
D03*
X141519Y-161496D02*
D03*
X100513Y-152552D02*
D03*
Y-165052D02*
D03*
X135890Y-185803D02*
D03*
X123698D02*
D03*
X109982Y-186311D02*
D03*
X62230Y-223645D02*
D03*
X64516Y-293116D02*
D03*
X308082Y-28265D02*
D03*
X83820Y-292608D02*
D03*
X103632Y-129032D02*
D03*
X114300Y-136144D02*
D03*
X312420Y-147828D02*
D03*
X322072Y-153416D02*
D03*
X180300Y83632D02*
D03*
X169672Y22860D02*
D03*
X177800D02*
D03*
X172172Y83632D02*
D03*
M02*
