G04*
G04 #@! TF.GenerationSoftware,Altium Limited,Altium Designer,26.5.1 (12)*
G04*
G04 Layer_Color=2752767*
G04 Board_Origin=11460000|43560000*
%FSLAX44Y44*%
%MOMM*%
G71*
G04*
G04 #@! TF.SameCoordinates,403F51B2-EDFB-421F-B47B-56F750A890EC*
G04*
G04*
G04 #@! TF.FilePolarity,Positive*
G04*
G01*
G75*
%ADD94C,0.1270*%
%ADD95C,0.1693*%
D94*
X415382Y-84480D02*
X410302Y-74320D01*
X420462D01*
X415382Y-84480D01*
Y-1880D02*
X410302Y8280D01*
X420462D01*
X415382Y-1880D01*
X474882Y-88080D02*
X469802Y-77920D01*
X479962D01*
X474882Y-88080D01*
Y1720D02*
X469802Y11880D01*
X479962D01*
X474882Y1720D01*
X397802Y-7180D02*
Y2980D01*
X407962D01*
Y-7180D01*
X397802D01*
X452120Y-269748D02*
X454660Y-267208D01*
X457200D01*
X454660Y-264668D01*
X457200Y-262128D01*
X454660D01*
X452120Y-259588D01*
X449580Y-262128D01*
X447040D01*
X449580Y-264668D01*
X447040Y-267208D01*
X449580D01*
X452120Y-269748D01*
Y-244348D02*
X454660Y-241808D01*
X457200D01*
X454660Y-239268D01*
X457200Y-236728D01*
X454660D01*
X452120Y-234188D01*
X449580Y-236728D01*
X447040D01*
X449580Y-239268D01*
X447040Y-241808D01*
X449580D01*
X452120Y-244348D01*
Y-218948D02*
X454660Y-216408D01*
X457200D01*
X454660Y-213868D01*
X457200Y-211328D01*
X454660D01*
X452120Y-208788D01*
X449580Y-211328D01*
X447040D01*
X449580Y-213868D01*
X447040Y-216408D01*
X449580D01*
X452120Y-218948D01*
Y-193548D02*
X454660Y-191008D01*
X457200D01*
X454660Y-188468D01*
X457200Y-185928D01*
X454660D01*
X452120Y-183388D01*
X449580Y-185928D01*
X447040D01*
X449580Y-188468D01*
X447040Y-191008D01*
X449580D01*
X452120Y-193548D01*
Y-168148D02*
X454660Y-165608D01*
X457200D01*
X454660Y-163068D01*
X457200Y-160528D01*
X454660D01*
X452120Y-157988D01*
X449580Y-160528D01*
X447040D01*
X449580Y-163068D01*
X447040Y-165608D01*
X449580D01*
X452120Y-168148D01*
X215036Y58766D02*
X209956Y68926D01*
X220116D01*
X215036Y58766D01*
X132436D02*
X127356Y68926D01*
X137516D01*
X132436Y58766D01*
X218636Y118266D02*
X213556Y128426D01*
X223716D01*
X218636Y118266D01*
X128836D02*
X123756Y128426D01*
X133916D01*
X128836Y118266D01*
X132656Y46266D02*
Y56426D01*
X142816D01*
Y46266D01*
X132656D01*
X317106Y106426D02*
X319646Y111506D01*
X317106Y116586D01*
X322186Y114046D01*
X327266Y116586D01*
X324726Y111506D01*
X327266Y106426D01*
X322186Y108966D01*
X317106Y106426D01*
X340106D02*
X342646Y111506D01*
X340106Y116586D01*
X345186Y114046D01*
X350266Y116586D01*
X347726Y111506D01*
X350266Y106426D01*
X345186Y108966D01*
X340106Y106426D01*
X486376Y91036D02*
Y88496D01*
X491456D01*
Y91036D01*
X493996D01*
Y96116D01*
X491456D01*
Y98656D01*
X486376D01*
Y96116D01*
X483836D01*
Y91036D01*
X486376D01*
X516376Y-328964D02*
Y-331504D01*
X521456D01*
Y-328964D01*
X523996D01*
Y-323884D01*
X521456D01*
Y-321344D01*
X516376D01*
Y-323884D01*
X513836D01*
Y-328964D01*
X516376D01*
X486376Y-388964D02*
Y-391504D01*
X491456D01*
Y-388964D01*
X493996D01*
Y-383884D01*
X491456D01*
Y-381344D01*
X486376D01*
Y-383884D01*
X483836D01*
Y-388964D01*
X486376D01*
X426376Y91036D02*
Y88496D01*
X431456D01*
Y91036D01*
X433996D01*
Y96116D01*
X431456D01*
Y98656D01*
X426376D01*
Y96116D01*
X423836D01*
Y91036D01*
X426376D01*
Y-148964D02*
Y-151504D01*
X431456D01*
Y-148964D01*
X433996D01*
Y-143884D01*
X431456D01*
Y-141344D01*
X426376D01*
Y-143884D01*
X423836D01*
Y-148964D01*
X426376D01*
X456376Y-328964D02*
Y-331504D01*
X461456D01*
Y-328964D01*
X463996D01*
Y-323884D01*
X461456D01*
Y-321344D01*
X456376D01*
Y-323884D01*
X453836D01*
Y-328964D01*
X456376D01*
X426376Y-388964D02*
Y-391504D01*
X431456D01*
Y-388964D01*
X433996D01*
Y-383884D01*
X431456D01*
Y-381344D01*
X426376D01*
Y-383884D01*
X423836D01*
Y-388964D01*
X426376D01*
X366376Y91036D02*
Y88496D01*
X371456D01*
Y91036D01*
X373996D01*
Y96116D01*
X371456D01*
Y98656D01*
X366376D01*
Y96116D01*
X363836D01*
Y91036D01*
X366376D01*
X396376Y31036D02*
Y28496D01*
X401456D01*
Y31036D01*
X403996D01*
Y36116D01*
X401456D01*
Y38656D01*
X396376D01*
Y36116D01*
X393836D01*
Y31036D01*
X396376D01*
Y-88964D02*
Y-91504D01*
X401456D01*
Y-88964D01*
X403996D01*
Y-83884D01*
X401456D01*
Y-81344D01*
X396376D01*
Y-83884D01*
X393836D01*
Y-88964D01*
X396376D01*
Y-208964D02*
Y-211504D01*
X401456D01*
Y-208964D01*
X403996D01*
Y-203884D01*
X401456D01*
Y-201344D01*
X396376D01*
Y-203884D01*
X393836D01*
Y-208964D01*
X396376D01*
Y-328964D02*
Y-331504D01*
X401456D01*
Y-328964D01*
X403996D01*
Y-323884D01*
X401456D01*
Y-321344D01*
X396376D01*
Y-323884D01*
X393836D01*
Y-328964D01*
X396376D01*
X366376Y-388964D02*
Y-391504D01*
X371456D01*
Y-388964D01*
X373996D01*
Y-383884D01*
X371456D01*
Y-381344D01*
X366376D01*
Y-383884D01*
X363836D01*
Y-388964D01*
X366376D01*
X336376Y31036D02*
Y28496D01*
X341456D01*
Y31036D01*
X343996D01*
Y36116D01*
X341456D01*
Y38656D01*
X336376D01*
Y36116D01*
X333836D01*
Y31036D01*
X336376D01*
X306376Y-268964D02*
Y-271504D01*
X311456D01*
Y-268964D01*
X313996D01*
Y-263884D01*
X311456D01*
Y-261344D01*
X306376D01*
Y-263884D01*
X303836D01*
Y-268964D01*
X306376D01*
X336376Y-328964D02*
Y-331504D01*
X341456D01*
Y-328964D01*
X343996D01*
Y-323884D01*
X341456D01*
Y-321344D01*
X336376D01*
Y-323884D01*
X333836D01*
Y-328964D01*
X336376D01*
X306376Y-388964D02*
Y-391504D01*
X311456D01*
Y-388964D01*
X313996D01*
Y-383884D01*
X311456D01*
Y-381344D01*
X306376D01*
Y-383884D01*
X303836D01*
Y-388964D01*
X306376D01*
X246376Y-28964D02*
Y-31504D01*
X251456D01*
Y-28964D01*
X253996D01*
Y-23884D01*
X251456D01*
Y-21344D01*
X246376D01*
Y-23884D01*
X243836D01*
Y-28964D01*
X246376D01*
Y-268964D02*
Y-271504D01*
X251456D01*
Y-268964D01*
X253996D01*
Y-263884D01*
X251456D01*
Y-261344D01*
X246376D01*
Y-263884D01*
X243836D01*
Y-268964D01*
X246376D01*
Y-388964D02*
Y-391504D01*
X251456D01*
Y-388964D01*
X253996D01*
Y-383884D01*
X251456D01*
Y-381344D01*
X246376D01*
Y-383884D01*
X243836D01*
Y-388964D01*
X246376D01*
X216376Y31036D02*
Y28496D01*
X221456D01*
Y31036D01*
X223996D01*
Y36116D01*
X221456D01*
Y38656D01*
X216376D01*
Y36116D01*
X213836D01*
Y31036D01*
X216376D01*
Y-88964D02*
Y-91504D01*
X221456D01*
Y-88964D01*
X223996D01*
Y-83884D01*
X221456D01*
Y-81344D01*
X216376D01*
Y-83884D01*
X213836D01*
Y-88964D01*
X216376D01*
X186376Y-388964D02*
Y-391504D01*
X191456D01*
Y-388964D01*
X193996D01*
Y-383884D01*
X191456D01*
Y-381344D01*
X186376D01*
Y-383884D01*
X183836D01*
Y-388964D01*
X186376D01*
X156376Y31036D02*
Y28496D01*
X161456D01*
Y31036D01*
X163996D01*
Y36116D01*
X161456D01*
Y38656D01*
X156376D01*
Y36116D01*
X153836D01*
Y31036D01*
X156376D01*
X126376Y-28964D02*
Y-31504D01*
X131456D01*
Y-28964D01*
X133996D01*
Y-23884D01*
X131456D01*
Y-21344D01*
X126376D01*
Y-23884D01*
X123836D01*
Y-28964D01*
X126376D01*
X156376Y-88964D02*
Y-91504D01*
X161456D01*
Y-88964D01*
X163996D01*
Y-83884D01*
X161456D01*
Y-81344D01*
X156376D01*
Y-83884D01*
X153836D01*
Y-88964D01*
X156376D01*
Y-208964D02*
Y-211504D01*
X161456D01*
Y-208964D01*
X163996D01*
Y-203884D01*
X161456D01*
Y-201344D01*
X156376D01*
Y-203884D01*
X153836D01*
Y-208964D01*
X156376D01*
Y-328964D02*
Y-331504D01*
X161456D01*
Y-328964D01*
X163996D01*
Y-323884D01*
X161456D01*
Y-321344D01*
X156376D01*
Y-323884D01*
X153836D01*
Y-328964D01*
X156376D01*
X126376Y-388964D02*
Y-391504D01*
X131456D01*
Y-388964D01*
X133996D01*
Y-383884D01*
X131456D01*
Y-381344D01*
X126376D01*
Y-383884D01*
X123836D01*
Y-388964D01*
X126376D01*
X66376Y91036D02*
Y88496D01*
X71456D01*
Y91036D01*
X73996D01*
Y96116D01*
X71456D01*
Y98656D01*
X66376D01*
Y96116D01*
X63836D01*
Y91036D01*
X66376D01*
X96376Y31036D02*
Y28496D01*
X101456D01*
Y31036D01*
X103996D01*
Y36116D01*
X101456D01*
Y38656D01*
X96376D01*
Y36116D01*
X93836D01*
Y31036D01*
X96376D01*
X66376Y-28964D02*
Y-31504D01*
X71456D01*
Y-28964D01*
X73996D01*
Y-23884D01*
X71456D01*
Y-21344D01*
X66376D01*
Y-23884D01*
X63836D01*
Y-28964D01*
X66376D01*
Y-148964D02*
Y-151504D01*
X71456D01*
Y-148964D01*
X73996D01*
Y-143884D01*
X71456D01*
Y-141344D01*
X66376D01*
Y-143884D01*
X63836D01*
Y-148964D01*
X66376D01*
X96376Y-208964D02*
Y-211504D01*
X101456D01*
Y-208964D01*
X103996D01*
Y-203884D01*
X101456D01*
Y-201344D01*
X96376D01*
Y-203884D01*
X93836D01*
Y-208964D01*
X96376D01*
Y-328964D02*
Y-331504D01*
X101456D01*
Y-328964D01*
X103996D01*
Y-323884D01*
X101456D01*
Y-321344D01*
X96376D01*
Y-323884D01*
X93836D01*
Y-328964D01*
X96376D01*
X66376Y-388964D02*
Y-391504D01*
X71456D01*
Y-388964D01*
X73996D01*
Y-383884D01*
X71456D01*
Y-381344D01*
X66376D01*
Y-383884D01*
X63836D01*
Y-388964D01*
X66376D01*
X6376Y91036D02*
Y88496D01*
X11456D01*
Y91036D01*
X13996D01*
Y96116D01*
X11456D01*
Y98656D01*
X6376D01*
Y96116D01*
X3836D01*
Y91036D01*
X6376D01*
X36376Y31036D02*
Y28496D01*
X41456D01*
Y31036D01*
X43996D01*
Y36116D01*
X41456D01*
Y38656D01*
X36376D01*
Y36116D01*
X33836D01*
Y31036D01*
X36376D01*
Y-328964D02*
Y-331504D01*
X41456D01*
Y-328964D01*
X43996D01*
Y-323884D01*
X41456D01*
Y-321344D01*
X36376D01*
Y-323884D01*
X33836D01*
Y-328964D01*
X36376D01*
X6376Y-388964D02*
Y-391504D01*
X11456D01*
Y-388964D01*
X13996D01*
Y-383884D01*
X11456D01*
Y-381344D01*
X6376D01*
Y-383884D01*
X3836D01*
Y-388964D01*
X6376D01*
X419354Y101092D02*
Y98552D01*
X424434D01*
Y101092D01*
X426974D01*
Y106172D01*
X424434D01*
Y108712D01*
X419354D01*
Y106172D01*
X416814D01*
Y101092D01*
X419354D01*
X255016Y-295656D02*
Y-298196D01*
X260096D01*
Y-295656D01*
X262636D01*
Y-290576D01*
X260096D01*
Y-288036D01*
X255016D01*
Y-290576D01*
X252476D01*
Y-295656D01*
X255016D01*
X238252Y-295148D02*
Y-297688D01*
X243332D01*
Y-295148D01*
X245872D01*
Y-290068D01*
X243332D01*
Y-287528D01*
X238252D01*
Y-290068D01*
X235712D01*
Y-295148D01*
X238252D01*
X227076Y-200152D02*
Y-202692D01*
X232156D01*
Y-200152D01*
X234696D01*
Y-195072D01*
X232156D01*
Y-192532D01*
X227076D01*
Y-195072D01*
X224536D01*
Y-200152D01*
X227076D01*
X222504Y-207264D02*
Y-209804D01*
X227584D01*
Y-207264D01*
X230124D01*
Y-202184D01*
X227584D01*
Y-199644D01*
X222504D01*
Y-202184D01*
X219964D01*
Y-207264D01*
X222504D01*
X177982Y-280142D02*
Y-282682D01*
X183062D01*
Y-280142D01*
X185602D01*
Y-275062D01*
X183062D01*
Y-272522D01*
X177982D01*
Y-275062D01*
X175442D01*
Y-280142D01*
X177982D01*
X178054Y-267374D02*
Y-269914D01*
X183134D01*
Y-267374D01*
X185674D01*
Y-262294D01*
X183134D01*
Y-259754D01*
X178054D01*
Y-262294D01*
X175514D01*
Y-267374D01*
X178054D01*
X119888Y-267074D02*
Y-269614D01*
X124968D01*
Y-267074D01*
X127508D01*
Y-261994D01*
X124968D01*
Y-259454D01*
X119888D01*
Y-261994D01*
X117348D01*
Y-267074D01*
X119888D01*
X215900Y-260604D02*
Y-263144D01*
X220980D01*
Y-260604D01*
X223520D01*
Y-255524D01*
X220980D01*
Y-252984D01*
X215900D01*
Y-255524D01*
X213360D01*
Y-260604D01*
X215900D01*
X358648Y-186436D02*
Y-188976D01*
X363728D01*
Y-186436D01*
X366268D01*
Y-181356D01*
X363728D01*
Y-178816D01*
X358648D01*
Y-181356D01*
X356108D01*
Y-186436D01*
X358648D01*
X357124Y-215900D02*
Y-218440D01*
X362204D01*
Y-215900D01*
X364744D01*
Y-210820D01*
X362204D01*
Y-208280D01*
X357124D01*
Y-210820D01*
X354584D01*
Y-215900D01*
X357124D01*
X371348Y-264668D02*
Y-267208D01*
X376428D01*
Y-264668D01*
X378968D01*
Y-259588D01*
X376428D01*
Y-257048D01*
X371348D01*
Y-259588D01*
X368808D01*
Y-264668D01*
X371348D01*
X371530Y-79810D02*
Y-82350D01*
X376610D01*
Y-79810D01*
X379150D01*
Y-74730D01*
X376610D01*
Y-72190D01*
X371530D01*
Y-74730D01*
X368990D01*
Y-79810D01*
X371530D01*
X371856Y-36576D02*
Y-39116D01*
X376936D01*
Y-36576D01*
X379476D01*
Y-31496D01*
X376936D01*
Y-28956D01*
X371856D01*
Y-31496D01*
X369316D01*
Y-36576D01*
X371856D01*
Y-44704D02*
Y-47244D01*
X376936D01*
Y-44704D01*
X379476D01*
Y-39624D01*
X376936D01*
Y-37084D01*
X371856D01*
Y-39624D01*
X369316D01*
Y-44704D01*
X371856D01*
X384048Y52832D02*
Y50292D01*
X389128D01*
Y52832D01*
X391668D01*
Y57912D01*
X389128D01*
Y60452D01*
X384048D01*
Y57912D01*
X381508D01*
Y52832D01*
X384048D01*
X269240Y-49300D02*
Y-51840D01*
X274320D01*
Y-49300D01*
X276860D01*
Y-44220D01*
X274320D01*
Y-41680D01*
X269240D01*
Y-44220D01*
X266700D01*
Y-49300D01*
X269240D01*
X276860Y-53340D02*
Y-55880D01*
X281940D01*
Y-53340D01*
X284480D01*
Y-48260D01*
X281940D01*
Y-45720D01*
X276860D01*
Y-48260D01*
X274320D01*
Y-53340D01*
X276860D01*
X226104Y-45764D02*
Y-48304D01*
X231184D01*
Y-45764D01*
X233724D01*
Y-40684D01*
X231184D01*
Y-38144D01*
X226104D01*
Y-40684D01*
X223564D01*
Y-45764D01*
X226104D01*
X290068Y-286004D02*
Y-288544D01*
X295148D01*
Y-286004D01*
X297688D01*
Y-280924D01*
X295148D01*
Y-278384D01*
X290068D01*
Y-280924D01*
X287528D01*
Y-286004D01*
X290068D01*
X293116Y-218440D02*
Y-220980D01*
X298196D01*
Y-218440D01*
X300736D01*
Y-213360D01*
X298196D01*
Y-210820D01*
X293116D01*
Y-213360D01*
X290576D01*
Y-218440D01*
X293116D01*
X345948Y-159004D02*
Y-161544D01*
X351028D01*
Y-159004D01*
X353568D01*
Y-153924D01*
X351028D01*
Y-151384D01*
X345948D01*
Y-153924D01*
X343408D01*
Y-159004D01*
X345948D01*
X330708Y-156972D02*
Y-159512D01*
X335788D01*
Y-156972D01*
X338328D01*
Y-151892D01*
X335788D01*
Y-149352D01*
X330708D01*
Y-151892D01*
X328168D01*
Y-156972D01*
X330708D01*
X360680Y-274828D02*
Y-277368D01*
X365760D01*
Y-274828D01*
X368300D01*
Y-269748D01*
X365760D01*
Y-267208D01*
X360680D01*
Y-269748D01*
X358140D01*
Y-274828D01*
X360680D01*
X353568Y74676D02*
Y72136D01*
X358648D01*
Y74676D01*
X361188D01*
Y79756D01*
X358648D01*
Y82296D01*
X353568D01*
Y79756D01*
X351028D01*
Y74676D01*
X353568D01*
X311150Y84920D02*
Y82380D01*
X316230D01*
Y84920D01*
X318770D01*
Y90000D01*
X316230D01*
Y92540D01*
X311150D01*
Y90000D01*
X308610D01*
Y84920D01*
X311150D01*
X462534Y44758D02*
Y42218D01*
X467614D01*
Y44758D01*
X470154D01*
Y49838D01*
X467614D01*
Y52378D01*
X462534D01*
Y49838D01*
X459994D01*
Y44758D01*
X462534D01*
X443703Y60701D02*
Y58161D01*
X448783D01*
Y60701D01*
X451323D01*
Y65781D01*
X448783D01*
Y68321D01*
X443703D01*
Y65781D01*
X441163D01*
Y60701D01*
X443703D01*
X457200Y-10160D02*
Y-12700D01*
X462280D01*
Y-10160D01*
X464820D01*
Y-5080D01*
X462280D01*
Y-2540D01*
X457200D01*
Y-5080D01*
X454660D01*
Y-10160D01*
X457200D01*
X424688Y-34036D02*
Y-36576D01*
X429768D01*
Y-34036D01*
X432308D01*
Y-28956D01*
X429768D01*
Y-26416D01*
X424688D01*
Y-28956D01*
X422148D01*
Y-34036D01*
X424688D01*
X199136Y104140D02*
Y101600D01*
X204216D01*
Y104140D01*
X206756D01*
Y109220D01*
X204216D01*
Y111760D01*
X199136D01*
Y109220D01*
X196596D01*
Y104140D01*
X199136D01*
X165608Y73152D02*
Y70612D01*
X170688D01*
Y73152D01*
X173228D01*
Y78232D01*
X170688D01*
Y80772D01*
X165608D01*
Y78232D01*
X163068D01*
Y73152D01*
X165608D01*
X209545Y19558D02*
Y17018D01*
X214625D01*
Y19558D01*
X217165D01*
Y24638D01*
X214625D01*
Y27178D01*
X209545D01*
Y24638D01*
X207005D01*
Y19558D01*
X209545D01*
X258756Y114540D02*
Y112000D01*
X263836D01*
Y114540D01*
X266376D01*
Y119620D01*
X263836D01*
Y122160D01*
X258756D01*
Y119620D01*
X256216D01*
Y114540D01*
X258756D01*
X432628Y-47204D02*
Y-49744D01*
X437708D01*
Y-47204D01*
X440248D01*
Y-42124D01*
X437708D01*
Y-39584D01*
X432628D01*
Y-42124D01*
X430088D01*
Y-47204D01*
X432628D01*
Y-39076D02*
Y-41616D01*
X437708D01*
Y-39076D01*
X440248D01*
Y-33996D01*
X437708D01*
Y-31456D01*
X432628D01*
Y-33996D01*
X430088D01*
Y-39076D01*
X432628D01*
X60198Y-51433D02*
Y-53973D01*
X65278D01*
Y-51433D01*
X67818D01*
Y-46353D01*
X65278D01*
Y-43813D01*
X60198D01*
Y-46353D01*
X57658D01*
Y-51433D01*
X60198D01*
X222887Y-5334D02*
Y-7874D01*
X227967D01*
Y-5334D01*
X230507D01*
Y-254D01*
X227967D01*
Y2286D01*
X222887D01*
Y-254D01*
X220347D01*
Y-5334D01*
X222887D01*
X124081Y-8382D02*
Y-10922D01*
X129161D01*
Y-8382D01*
X131701D01*
Y-3302D01*
X129161D01*
Y-762D01*
X124081D01*
Y-3302D01*
X121541D01*
Y-8382D01*
X124081D01*
X277751Y101854D02*
Y99314D01*
X282831D01*
Y101854D01*
X285371D01*
Y106934D01*
X282831D01*
Y109474D01*
X277751D01*
Y106934D01*
X275211D01*
Y101854D01*
X277751D01*
X199418Y67209D02*
Y64669D01*
X204498D01*
Y67209D01*
X207038D01*
Y72289D01*
X204498D01*
Y74829D01*
X199418D01*
Y72289D01*
X196878D01*
Y67209D01*
X199418D01*
X144418D02*
Y64669D01*
X149498D01*
Y67209D01*
X152038D01*
Y72289D01*
X149498D01*
Y74829D01*
X144418D01*
Y72289D01*
X141878D01*
Y67209D01*
X144418D01*
X328551Y39878D02*
Y37338D01*
X333631D01*
Y39878D01*
X336171D01*
Y44958D01*
X333631D01*
Y47498D01*
X328551D01*
Y44958D01*
X326011D01*
Y39878D01*
X328551D01*
X309755Y7366D02*
Y4826D01*
X314835D01*
Y7366D01*
X317375D01*
Y12446D01*
X314835D01*
Y14986D01*
X309755D01*
Y12446D01*
X307215D01*
Y7366D01*
X309755D01*
X288254Y-8735D02*
Y-11276D01*
X293334D01*
Y-8735D01*
X295874D01*
Y-3656D01*
X293334D01*
Y-1116D01*
X288254D01*
Y-3656D01*
X285714D01*
Y-8735D01*
X288254D01*
X273388Y-41023D02*
Y-43563D01*
X278468D01*
Y-41023D01*
X281008D01*
Y-35943D01*
X278468D01*
Y-33403D01*
X273388D01*
Y-35943D01*
X270848D01*
Y-41023D01*
X273388D01*
X290810Y-30805D02*
Y-33345D01*
X295890D01*
Y-30805D01*
X298430D01*
Y-25725D01*
X295890D01*
Y-23185D01*
X290810D01*
Y-25725D01*
X288270D01*
Y-30805D01*
X290810D01*
X322580Y-53340D02*
Y-55880D01*
X327660D01*
Y-53340D01*
X330200D01*
Y-48260D01*
X327660D01*
Y-45720D01*
X322580D01*
Y-48260D01*
X320040D01*
Y-53340D01*
X322580D01*
X354330Y-3173D02*
Y-5713D01*
X359410D01*
Y-3173D01*
X361950D01*
Y1907D01*
X359410D01*
Y4447D01*
X354330D01*
Y1907D01*
X351790D01*
Y-3173D01*
X354330D01*
X418745Y-13862D02*
Y-16402D01*
X423825D01*
Y-13862D01*
X426365D01*
Y-8782D01*
X423825D01*
Y-6242D01*
X418745D01*
Y-8782D01*
X416205D01*
Y-13862D01*
X418745D01*
Y-68862D02*
Y-71402D01*
X423825D01*
Y-68862D01*
X426365D01*
Y-63782D01*
X423825D01*
Y-61242D01*
X418745D01*
Y-63782D01*
X416205D01*
Y-68862D01*
X418745D01*
X359410Y-140083D02*
Y-142623D01*
X364490D01*
Y-140083D01*
X367030D01*
Y-135003D01*
X364490D01*
Y-132463D01*
X359410D01*
Y-135003D01*
X356870D01*
Y-140083D01*
X359410D01*
X138979Y-164036D02*
Y-166576D01*
X144059D01*
Y-164036D01*
X146599D01*
Y-158956D01*
X144059D01*
Y-156416D01*
X138979D01*
Y-158956D01*
X136439D01*
Y-164036D01*
X138979D01*
X97973Y-155092D02*
Y-157632D01*
X103053D01*
Y-155092D01*
X105593D01*
Y-150012D01*
X103053D01*
Y-147472D01*
X97973D01*
Y-150012D01*
X95433D01*
Y-155092D01*
X97973D01*
Y-167592D02*
Y-170132D01*
X103053D01*
Y-167592D01*
X105593D01*
Y-162512D01*
X103053D01*
Y-159972D01*
X97973D01*
Y-162512D01*
X95433D01*
Y-167592D01*
X97973D01*
X133350Y-188343D02*
Y-190883D01*
X138430D01*
Y-188343D01*
X140970D01*
Y-183263D01*
X138430D01*
Y-180723D01*
X133350D01*
Y-183263D01*
X130810D01*
Y-188343D01*
X133350D01*
X121158D02*
Y-190883D01*
X126238D01*
Y-188343D01*
X128778D01*
Y-183263D01*
X126238D01*
Y-180723D01*
X121158D01*
Y-183263D01*
X118618D01*
Y-188343D01*
X121158D01*
X107442Y-188851D02*
Y-191391D01*
X112522D01*
Y-188851D01*
X115062D01*
Y-183771D01*
X112522D01*
Y-181231D01*
X107442D01*
Y-183771D01*
X104902D01*
Y-188851D01*
X107442D01*
X59690Y-226185D02*
Y-228725D01*
X64770D01*
Y-226185D01*
X67310D01*
Y-221105D01*
X64770D01*
Y-218565D01*
X59690D01*
Y-221105D01*
X57150D01*
Y-226185D01*
X59690D01*
X61976Y-295656D02*
Y-298196D01*
X67056D01*
Y-295656D01*
X69596D01*
Y-290576D01*
X67056D01*
Y-288036D01*
X61976D01*
Y-290576D01*
X59436D01*
Y-295656D01*
X61976D01*
X305542Y-30805D02*
Y-33345D01*
X310622D01*
Y-30805D01*
X313162D01*
Y-25725D01*
X310622D01*
Y-23185D01*
X305542D01*
Y-25725D01*
X303002D01*
Y-30805D01*
X305542D01*
X81280Y-295148D02*
Y-297688D01*
X86360D01*
Y-295148D01*
X88900D01*
Y-290068D01*
X86360D01*
Y-287528D01*
X81280D01*
Y-290068D01*
X78740D01*
Y-295148D01*
X81280D01*
X101092Y-131572D02*
Y-134112D01*
X106172D01*
Y-131572D01*
X108712D01*
Y-126492D01*
X106172D01*
Y-123952D01*
X101092D01*
Y-126492D01*
X98552D01*
Y-131572D01*
X101092D01*
X111760Y-138684D02*
Y-141224D01*
X116840D01*
Y-138684D01*
X119380D01*
Y-133604D01*
X116840D01*
Y-131064D01*
X111760D01*
Y-133604D01*
X109220D01*
Y-138684D01*
X111760D01*
X309880Y-150368D02*
Y-152908D01*
X314960D01*
Y-150368D01*
X317500D01*
Y-145288D01*
X314960D01*
Y-142748D01*
X309880D01*
Y-145288D01*
X307340D01*
Y-150368D01*
X309880D01*
X319532Y-155956D02*
Y-158496D01*
X324612D01*
Y-155956D01*
X327152D01*
Y-150876D01*
X324612D01*
Y-148336D01*
X319532D01*
Y-150876D01*
X316992D01*
Y-155956D01*
X319532D01*
X177760Y81092D02*
Y78552D01*
X182840D01*
Y81092D01*
X185380D01*
Y86172D01*
X182840D01*
Y88712D01*
X177760D01*
Y86172D01*
X175220D01*
Y81092D01*
X177760D01*
X167132Y20320D02*
Y17780D01*
X172212D01*
Y20320D01*
X174752D01*
Y25400D01*
X172212D01*
Y27940D01*
X167132D01*
Y25400D01*
X164592D01*
Y20320D01*
X167132D01*
X175260D02*
Y17780D01*
X180340D01*
Y20320D01*
X182880D01*
Y25400D01*
X180340D01*
Y27940D01*
X175260D01*
Y25400D01*
X172720D01*
Y20320D01*
X175260D01*
X169632Y81092D02*
Y78552D01*
X174712D01*
Y81092D01*
X177252D01*
Y86172D01*
X174712D01*
Y88712D01*
X169632D01*
Y86172D01*
X167092D01*
Y81092D01*
X169632D01*
D95*
X407962Y-74100D02*
G03*
X407962Y-74100I-5080J0D01*
G01*
X214816Y51346D02*
G03*
X214816Y51346I-5080J0D01*
G01*
M02*
