G04*
G04 #@! TF.GenerationSoftware,Altium Limited,Altium Designer,26.5.1 (12)*
G04*
G04 Layer_Color=8388736*
G04 Board_Origin=86215166|373809532*
%FSLAX44Y44*%
%MOMM*%
G71*
G04*
G04 #@! TF.SameCoordinates,C941381F-4326-489C-B6A4-9E12FBC03EC8*
G04*
G04*
G04 #@! TF.FilePolarity,Negative*
G04*
G01*
G75*
%ADD11C,0.2540*%
G04:AMPARAMS|DCode=37|XSize=1mm|YSize=1.05mm|CornerRadius=0.1625mm|HoleSize=0mm|Usage=FLASHONLY|Rotation=270.000|XOffset=0mm|YOffset=0mm|HoleType=Round|Shape=RoundedRectangle|*
%AMROUNDEDRECTD37*
21,1,1.0000,0.7250,0,0,270.0*
21,1,0.6750,1.0500,0,0,270.0*
1,1,0.3250,-0.3625,-0.3375*
1,1,0.3250,-0.3625,0.3375*
1,1,0.3250,0.3625,0.3375*
1,1,0.3250,0.3625,-0.3375*
%
%ADD37ROUNDEDRECTD37*%
G04:AMPARAMS|DCode=38|XSize=0.9mm|YSize=1.05mm|CornerRadius=0.15mm|HoleSize=0mm|Usage=FLASHONLY|Rotation=180.000|XOffset=0mm|YOffset=0mm|HoleType=Round|Shape=RoundedRectangle|*
%AMROUNDEDRECTD38*
21,1,0.9000,0.7500,0,0,180.0*
21,1,0.6000,1.0500,0,0,180.0*
1,1,0.3000,-0.3000,0.3750*
1,1,0.3000,0.3000,0.3750*
1,1,0.3000,0.3000,-0.3750*
1,1,0.3000,-0.3000,-0.3750*
%
%ADD38ROUNDEDRECTD38*%
G04:AMPARAMS|DCode=39|XSize=0.975mm|YSize=1.05mm|CornerRadius=0.1594mm|HoleSize=0mm|Usage=FLASHONLY|Rotation=180.000|XOffset=0mm|YOffset=0mm|HoleType=Round|Shape=RoundedRectangle|*
%AMROUNDEDRECTD39*
21,1,0.9750,0.7313,0,0,180.0*
21,1,0.6563,1.0500,0,0,180.0*
1,1,0.3188,-0.3281,0.3656*
1,1,0.3188,0.3281,0.3656*
1,1,0.3188,0.3281,-0.3656*
1,1,0.3188,-0.3281,-0.3656*
%
%ADD39ROUNDEDRECTD39*%
%ADD40C,3.5000*%
%ADD41R,3.4020X3.4020*%
%ADD42R,0.3540X0.9128*%
%ADD43R,0.9128X0.3540*%
G04:AMPARAMS|DCode=44|XSize=1.125mm|YSize=1.5mm|CornerRadius=0.173mm|HoleSize=0mm|Usage=FLASHONLY|Rotation=90.000|XOffset=0mm|YOffset=0mm|HoleType=Round|Shape=RoundedRectangle|*
%AMROUNDEDRECTD44*
21,1,1.1250,1.1540,0,0,90.0*
21,1,0.7790,1.5000,0,0,90.0*
1,1,0.3460,0.5770,0.3895*
1,1,0.3460,0.5770,-0.3895*
1,1,0.3460,-0.5770,-0.3895*
1,1,0.3460,-0.5770,0.3895*
%
%ADD44ROUNDEDRECTD44*%
G04:AMPARAMS|DCode=45|XSize=1.1mm|YSize=1.55mm|CornerRadius=0.175mm|HoleSize=0mm|Usage=FLASHONLY|Rotation=270.000|XOffset=0mm|YOffset=0mm|HoleType=Round|Shape=RoundedRectangle|*
%AMROUNDEDRECTD45*
21,1,1.1000,1.2000,0,0,270.0*
21,1,0.7500,1.5500,0,0,270.0*
1,1,0.3500,-0.6000,-0.3750*
1,1,0.3500,-0.6000,0.3750*
1,1,0.3500,0.6000,0.3750*
1,1,0.3500,0.6000,-0.3750*
%
%ADD45ROUNDEDRECTD45*%
G04:AMPARAMS|DCode=46|XSize=0.9mm|YSize=1.05mm|CornerRadius=0.15mm|HoleSize=0mm|Usage=FLASHONLY|Rotation=90.000|XOffset=0mm|YOffset=0mm|HoleType=Round|Shape=RoundedRectangle|*
%AMROUNDEDRECTD46*
21,1,0.9000,0.7500,0,0,90.0*
21,1,0.6000,1.0500,0,0,90.0*
1,1,0.3000,0.3750,0.3000*
1,1,0.3000,0.3750,-0.3000*
1,1,0.3000,-0.3750,-0.3000*
1,1,0.3000,-0.3750,0.3000*
%
%ADD46ROUNDEDRECTD46*%
G04:AMPARAMS|DCode=47|XSize=3.6mm|YSize=2.6mm|CornerRadius=0.175mm|HoleSize=0mm|Usage=FLASHONLY|Rotation=90.000|XOffset=0mm|YOffset=0mm|HoleType=Round|Shape=RoundedRectangle|*
%AMROUNDEDRECTD47*
21,1,3.6000,2.2500,0,0,90.0*
21,1,3.2500,2.6000,0,0,90.0*
1,1,0.3500,1.1250,1.6250*
1,1,0.3500,1.1250,-1.6250*
1,1,0.3500,-1.1250,-1.6250*
1,1,0.3500,-1.1250,1.6250*
%
%ADD47ROUNDEDRECTD47*%
G04:AMPARAMS|DCode=48|XSize=1mm|YSize=1.05mm|CornerRadius=0.1625mm|HoleSize=0mm|Usage=FLASHONLY|Rotation=0.000|XOffset=0mm|YOffset=0mm|HoleType=Round|Shape=RoundedRectangle|*
%AMROUNDEDRECTD48*
21,1,1.0000,0.7250,0,0,0.0*
21,1,0.6750,1.0500,0,0,0.0*
1,1,0.3250,0.3375,-0.3625*
1,1,0.3250,-0.3375,-0.3625*
1,1,0.3250,-0.3375,0.3625*
1,1,0.3250,0.3375,0.3625*
%
%ADD48ROUNDEDRECTD48*%
G04:AMPARAMS|DCode=49|XSize=1.1mm|YSize=1.55mm|CornerRadius=0.175mm|HoleSize=0mm|Usage=FLASHONLY|Rotation=0.000|XOffset=0mm|YOffset=0mm|HoleType=Round|Shape=RoundedRectangle|*
%AMROUNDEDRECTD49*
21,1,1.1000,1.2000,0,0,0.0*
21,1,0.7500,1.5500,0,0,0.0*
1,1,0.3500,0.3750,-0.6000*
1,1,0.3500,-0.3750,-0.6000*
1,1,0.3500,-0.3750,0.6000*
1,1,0.3500,0.3750,0.6000*
%
%ADD49ROUNDEDRECTD49*%
G04:AMPARAMS|DCode=50|XSize=3.1mm|YSize=1.3mm|CornerRadius=0.17mm|HoleSize=0mm|Usage=FLASHONLY|Rotation=90.000|XOffset=0mm|YOffset=0mm|HoleType=Round|Shape=RoundedRectangle|*
%AMROUNDEDRECTD50*
21,1,3.1000,0.9600,0,0,90.0*
21,1,2.7600,1.3000,0,0,90.0*
1,1,0.3400,0.4800,1.3800*
1,1,0.3400,0.4800,-1.3800*
1,1,0.3400,-0.4800,-1.3800*
1,1,0.3400,-0.4800,1.3800*
%
%ADD50ROUNDEDRECTD50*%
G04:AMPARAMS|DCode=51|XSize=1.8mm|YSize=5.8mm|CornerRadius=0.1775mm|HoleSize=0mm|Usage=FLASHONLY|Rotation=0.000|XOffset=0mm|YOffset=0mm|HoleType=Round|Shape=RoundedRectangle|*
%AMROUNDEDRECTD51*
21,1,1.8000,5.4450,0,0,0.0*
21,1,1.4450,5.8000,0,0,0.0*
1,1,0.3550,0.7225,-2.7225*
1,1,0.3550,-0.7225,-2.7225*
1,1,0.3550,-0.7225,2.7225*
1,1,0.3550,0.7225,2.7225*
%
%ADD51ROUNDEDRECTD51*%
%ADD52R,1.5000X1.7000*%
%ADD53R,1.6000X1.6000*%
G04:AMPARAMS|DCode=54|XSize=1.65mm|YSize=0.4mm|CornerRadius=0.0875mm|HoleSize=0mm|Usage=FLASHONLY|Rotation=0.000|XOffset=0mm|YOffset=0mm|HoleType=Round|Shape=RoundedRectangle|*
%AMROUNDEDRECTD54*
21,1,1.6500,0.2250,0,0,0.0*
21,1,1.4750,0.4000,0,0,0.0*
1,1,0.1750,0.7375,-0.1125*
1,1,0.1750,-0.7375,-0.1125*
1,1,0.1750,-0.7375,0.1125*
1,1,0.1750,0.7375,0.1125*
%
%ADD54ROUNDEDRECTD54*%
G04:AMPARAMS|DCode=55|XSize=0.4mm|YSize=1.65mm|CornerRadius=0.0875mm|HoleSize=0mm|Usage=FLASHONLY|Rotation=0.000|XOffset=0mm|YOffset=0mm|HoleType=Round|Shape=RoundedRectangle|*
%AMROUNDEDRECTD55*
21,1,0.4000,1.4750,0,0,0.0*
21,1,0.2250,1.6500,0,0,0.0*
1,1,0.1750,0.1125,-0.7375*
1,1,0.1750,-0.1125,-0.7375*
1,1,0.1750,-0.1125,0.7375*
1,1,0.1750,0.1125,0.7375*
%
%ADD55ROUNDEDRECTD55*%
%ADD56C,0.8874*%
G04:AMPARAMS|DCode=57|XSize=1.5mm|YSize=4.3mm|CornerRadius=0.176mm|HoleSize=0mm|Usage=FLASHONLY|Rotation=270.000|XOffset=0mm|YOffset=0mm|HoleType=Round|Shape=RoundedRectangle|*
%AMROUNDEDRECTD57*
21,1,1.5000,3.9480,0,0,270.0*
21,1,1.1480,4.3000,0,0,270.0*
1,1,0.3520,-1.9740,-0.5740*
1,1,0.3520,-1.9740,0.5740*
1,1,0.3520,1.9740,0.5740*
1,1,0.3520,1.9740,-0.5740*
%
%ADD57ROUNDEDRECTD57*%
%ADD58R,1.3000X1.5000*%
%ADD59R,0.4000X0.4000*%
G04:AMPARAMS|DCode=60|XSize=1.325mm|YSize=3.45mm|CornerRadius=0.1725mm|HoleSize=0mm|Usage=FLASHONLY|Rotation=270.000|XOffset=0mm|YOffset=0mm|HoleType=Round|Shape=RoundedRectangle|*
%AMROUNDEDRECTD60*
21,1,1.3250,3.1050,0,0,270.0*
21,1,0.9800,3.4500,0,0,270.0*
1,1,0.3450,-1.5525,-0.4900*
1,1,0.3450,-1.5525,0.4900*
1,1,0.3450,1.5525,0.4900*
1,1,0.3450,1.5525,-0.4900*
%
%ADD60ROUNDEDRECTD60*%
%ADD61R,1.5000X1.3000*%
G04:AMPARAMS|DCode=62|XSize=2.6mm|YSize=1.9mm|CornerRadius=0.176mm|HoleSize=0mm|Usage=FLASHONLY|Rotation=270.000|XOffset=0mm|YOffset=0mm|HoleType=Round|Shape=RoundedRectangle|*
%AMROUNDEDRECTD62*
21,1,2.6000,1.5480,0,0,270.0*
21,1,2.2480,1.9000,0,0,270.0*
1,1,0.3520,-0.7740,-1.1240*
1,1,0.3520,-0.7740,1.1240*
1,1,0.3520,0.7740,1.1240*
1,1,0.3520,0.7740,-1.1240*
%
%ADD62ROUNDEDRECTD62*%
G04:AMPARAMS|DCode=63|XSize=1.575mm|YSize=0.5mm|CornerRadius=0.1mm|HoleSize=0mm|Usage=FLASHONLY|Rotation=90.000|XOffset=0mm|YOffset=0mm|HoleType=Round|Shape=RoundedRectangle|*
%AMROUNDEDRECTD63*
21,1,1.5750,0.3000,0,0,90.0*
21,1,1.3750,0.5000,0,0,90.0*
1,1,0.2000,0.1500,0.6875*
1,1,0.2000,0.1500,-0.6875*
1,1,0.2000,-0.1500,-0.6875*
1,1,0.2000,-0.1500,0.6875*
%
%ADD63ROUNDEDRECTD63*%
%ADD64R,1.8000X1.8000*%
%ADD65C,1.6000*%
%ADD66C,1.8000*%
%ADD67C,1.0906*%
%ADD68R,1.8000X1.8000*%
%ADD69R,1.9000X1.9000*%
%ADD70C,1.9000*%
%ADD71R,2.9000X2.9000*%
%ADD72C,2.9000*%
%ADD73C,3.1000*%
G36*
X228535Y-363070D02*
X217035D01*
X222035Y-355570D01*
X217035Y-348070D01*
X228535D01*
Y-363070D01*
D02*
G37*
G36*
X219035Y-355570D02*
X214035Y-363070D01*
X204035D01*
Y-348070D01*
X214035D01*
X219035Y-355570D01*
D02*
G37*
D11*
X204035Y-363070D02*
Y-348070D01*
Y-363070D02*
X228535D01*
Y-348070D01*
X204035D02*
X228535D01*
D37*
X344000Y-151250D02*
D03*
Y-166750D02*
D03*
X325000Y-151250D02*
D03*
Y-166750D02*
D03*
X610000Y-354250D02*
D03*
X487470Y-385265D02*
D03*
X542000Y-427750D02*
D03*
X610000Y-369750D02*
D03*
X590000Y-427750D02*
D03*
X476000D02*
D03*
Y-412250D02*
D03*
X590000D02*
D03*
X453000Y-10750D02*
D03*
Y4750D02*
D03*
X365085Y-286620D02*
D03*
Y-271120D02*
D03*
X346685Y-286320D02*
D03*
Y-270820D02*
D03*
X542000Y-412250D02*
D03*
X592000Y-347500D02*
D03*
Y-363000D02*
D03*
X487470Y-369765D02*
D03*
D38*
X126250Y-152000D02*
D03*
X109750D02*
D03*
X419250Y-232000D02*
D03*
X605250Y-291000D02*
D03*
X419250Y-250000D02*
D03*
Y-268000D02*
D03*
Y-286000D02*
D03*
X605250Y-272000D02*
D03*
X274035Y-355570D02*
D03*
X290535D02*
D03*
X559750Y-152000D02*
D03*
X576250D02*
D03*
X39765Y-193330D02*
D03*
X23265D02*
D03*
X289750Y-152000D02*
D03*
X306250D02*
D03*
X402750Y-232000D02*
D03*
X739750Y-152000D02*
D03*
X756250D02*
D03*
X588750Y-291000D02*
D03*
X199750Y-152000D02*
D03*
X216250D02*
D03*
X290435Y-391570D02*
D03*
X273935D02*
D03*
X402750Y-250000D02*
D03*
X469750Y-152000D02*
D03*
X486250D02*
D03*
X677715Y-499430D02*
D03*
X661215D02*
D03*
X649750Y-152000D02*
D03*
X666250D02*
D03*
X379750D02*
D03*
X396250D02*
D03*
X402750Y-268000D02*
D03*
X588750Y-272000D02*
D03*
X402750Y-286000D02*
D03*
X23465Y-211430D02*
D03*
X39965D02*
D03*
X251750Y-492000D02*
D03*
X268250D02*
D03*
D39*
X110125Y-170125D02*
D03*
X125875D02*
D03*
X290125D02*
D03*
X305875D02*
D03*
X470125D02*
D03*
X485875D02*
D03*
X740125D02*
D03*
X755875D02*
D03*
X560125D02*
D03*
X575875D02*
D03*
X200125D02*
D03*
X215875D02*
D03*
X380125D02*
D03*
X395875D02*
D03*
X650125D02*
D03*
X665875D02*
D03*
D40*
X920000Y-600000D02*
D03*
X0Y0D02*
D03*
D41*
X537170Y-344315D02*
D03*
D42*
X559670Y-373271D02*
D03*
X554670D02*
D03*
X549670D02*
D03*
X544670D02*
D03*
X539670D02*
D03*
X534670D02*
D03*
X529670D02*
D03*
X524670D02*
D03*
X519670D02*
D03*
X514670D02*
D03*
Y-315359D02*
D03*
X519670D02*
D03*
X524670D02*
D03*
X529670D02*
D03*
X534670D02*
D03*
X539670D02*
D03*
X544670D02*
D03*
X549670D02*
D03*
X554670D02*
D03*
X559670D02*
D03*
D43*
X508214Y-366815D02*
D03*
Y-361815D02*
D03*
Y-356815D02*
D03*
Y-351815D02*
D03*
Y-346815D02*
D03*
Y-341815D02*
D03*
Y-336815D02*
D03*
Y-331815D02*
D03*
Y-326815D02*
D03*
Y-321815D02*
D03*
X566126D02*
D03*
Y-326815D02*
D03*
Y-331815D02*
D03*
Y-336815D02*
D03*
Y-341815D02*
D03*
Y-346815D02*
D03*
Y-351815D02*
D03*
Y-356815D02*
D03*
Y-361815D02*
D03*
Y-366815D02*
D03*
D44*
X602000Y-234875D02*
D03*
X488000Y-307875D02*
D03*
Y-326125D02*
D03*
X602000Y-253125D02*
D03*
D45*
Y-216500D02*
D03*
Y-197500D02*
D03*
D46*
X571970Y-411965D02*
D03*
X181000Y-205250D02*
D03*
Y-188750D02*
D03*
X145000Y-205250D02*
D03*
Y-188750D02*
D03*
X571970Y-428465D02*
D03*
X163000Y-188750D02*
D03*
Y-205250D02*
D03*
X777000Y-318250D02*
D03*
Y-301750D02*
D03*
X523000Y-287250D02*
D03*
Y-270750D02*
D03*
X888000Y-408000D02*
D03*
Y-424500D02*
D03*
X541000Y-270750D02*
D03*
Y-287250D02*
D03*
X611500Y-527950D02*
D03*
Y-511450D02*
D03*
X888000Y-169750D02*
D03*
Y-186250D02*
D03*
X908000D02*
D03*
Y-169750D02*
D03*
X127000Y-188750D02*
D03*
Y-205250D02*
D03*
X908000Y-424500D02*
D03*
Y-408000D02*
D03*
X797000Y-301750D02*
D03*
Y-318250D02*
D03*
D47*
X764000Y-204500D02*
D03*
Y-269500D02*
D03*
X673000Y-204000D02*
D03*
Y-269000D02*
D03*
D48*
X643750Y-299000D02*
D03*
X628250D02*
D03*
X607750Y-309000D02*
D03*
X274250Y-373000D02*
D03*
X289750D02*
D03*
X269750Y-164000D02*
D03*
X254250D02*
D03*
X178750Y-331000D02*
D03*
X163250D02*
D03*
X160750Y-231000D02*
D03*
X145250D02*
D03*
Y-313000D02*
D03*
X160750D02*
D03*
X835250Y-128000D02*
D03*
X850750D02*
D03*
X208250Y-380000D02*
D03*
X223750D02*
D03*
X661965Y-480430D02*
D03*
X677465D02*
D03*
X607750Y-327000D02*
D03*
X592250D02*
D03*
X269935Y-182370D02*
D03*
X254435D02*
D03*
X145250Y-249000D02*
D03*
X160750D02*
D03*
X835250Y-363000D02*
D03*
X850750D02*
D03*
X592250Y-309000D02*
D03*
X835250Y-243000D02*
D03*
X850750D02*
D03*
D49*
X482500Y-283000D02*
D03*
X501500D02*
D03*
D50*
X758500Y-362500D02*
D03*
X733500Y-437500D02*
D03*
X758500D02*
D03*
X733500Y-362500D02*
D03*
D51*
X532500Y-229000D02*
D03*
X577500D02*
D03*
X462500D02*
D03*
X507500D02*
D03*
D52*
X647900Y-607000D02*
D03*
Y-527000D02*
D03*
X692900Y-607000D02*
D03*
Y-527000D02*
D03*
D53*
X552000Y-545000D02*
D03*
X474000D02*
D03*
D54*
X207385Y-235770D02*
D03*
Y-240770D02*
D03*
Y-245770D02*
D03*
Y-250770D02*
D03*
Y-255770D02*
D03*
Y-260770D02*
D03*
Y-265770D02*
D03*
Y-270770D02*
D03*
Y-275770D02*
D03*
Y-280770D02*
D03*
Y-285770D02*
D03*
Y-290770D02*
D03*
Y-295770D02*
D03*
Y-300770D02*
D03*
Y-305770D02*
D03*
Y-310770D02*
D03*
X320885D02*
D03*
Y-305770D02*
D03*
Y-300770D02*
D03*
Y-295770D02*
D03*
Y-290770D02*
D03*
Y-285770D02*
D03*
Y-280770D02*
D03*
Y-275770D02*
D03*
Y-270770D02*
D03*
Y-265770D02*
D03*
Y-260770D02*
D03*
Y-255770D02*
D03*
Y-250770D02*
D03*
Y-245770D02*
D03*
Y-240770D02*
D03*
Y-235770D02*
D03*
D55*
X226635Y-330020D02*
D03*
X231635D02*
D03*
X236635D02*
D03*
X241635D02*
D03*
X246635D02*
D03*
X251635D02*
D03*
X256635D02*
D03*
X261635D02*
D03*
X266635D02*
D03*
X271635D02*
D03*
X276635D02*
D03*
X281635D02*
D03*
X286635D02*
D03*
X291635D02*
D03*
X296635D02*
D03*
X301635D02*
D03*
Y-216520D02*
D03*
X296635D02*
D03*
X291635D02*
D03*
X286635D02*
D03*
X281635D02*
D03*
X276635D02*
D03*
X271635D02*
D03*
X266635D02*
D03*
X261635D02*
D03*
X256635D02*
D03*
X251635D02*
D03*
X246635D02*
D03*
X241635D02*
D03*
X236635D02*
D03*
X231635D02*
D03*
X226635D02*
D03*
D56*
X367585Y-410570D02*
D03*
X380285D02*
D03*
X367585Y-423270D02*
D03*
X380285D02*
D03*
X367585Y-435970D02*
D03*
X380285D02*
D03*
D57*
X90085Y-266170D02*
D03*
Y-303170D02*
D03*
D58*
X145085Y-270020D02*
D03*
X161085Y-292020D02*
D03*
X145085D02*
D03*
X161085Y-270020D02*
D03*
D59*
X209035Y-355570D02*
D03*
X223535D02*
D03*
D60*
X641570Y-318090D02*
D03*
Y-377340D02*
D03*
D61*
X521070Y-410715D02*
D03*
X497070D02*
D03*
Y-429715D02*
D03*
X521070D02*
D03*
D62*
X684000Y-327000D02*
D03*
Y-367000D02*
D03*
X743000Y-478000D02*
D03*
Y-518000D02*
D03*
D63*
X470250Y625D02*
D03*
X476750D02*
D03*
X483250D02*
D03*
X489750D02*
D03*
X496250D02*
D03*
X502750D02*
D03*
X509250D02*
D03*
X515750D02*
D03*
Y-56625D02*
D03*
X509250D02*
D03*
X502750D02*
D03*
X496250D02*
D03*
X489750D02*
D03*
X483250D02*
D03*
X476750D02*
D03*
X470250D02*
D03*
D64*
X29857Y-336037D02*
D03*
X900357D02*
D03*
D65*
X822183Y-147669D02*
D03*
Y-212670D02*
D03*
X867184Y-147669D02*
D03*
Y-212670D02*
D03*
Y-330170D02*
D03*
Y-265170D02*
D03*
X822183Y-330170D02*
D03*
Y-265170D02*
D03*
X867683Y-447670D02*
D03*
Y-382669D02*
D03*
X822683Y-447670D02*
D03*
Y-382669D02*
D03*
D66*
X900357Y-310637D02*
D03*
Y-285237D02*
D03*
Y-259837D02*
D03*
X29857D02*
D03*
Y-285237D02*
D03*
Y-310637D02*
D03*
X358085Y-544570D02*
D03*
X383485D02*
D03*
X408885D02*
D03*
X434285D02*
D03*
D67*
X373935Y-397870D02*
D03*
X384095Y-448670D02*
D03*
X363775D02*
D03*
D68*
X332685Y-544570D02*
D03*
D69*
X611500Y-578700D02*
D03*
D70*
Y-553300D02*
D03*
D71*
X783700Y-577000D02*
D03*
D72*
X834500D02*
D03*
D73*
X108000Y-548000D02*
D03*
X808000Y-498000D02*
D03*
X108000Y-48000D02*
D03*
X808000D02*
D03*
M02*
