G04*
G04 #@! TF.GenerationSoftware,Altium Limited,Altium Designer,26.5.1 (12)*
G04*
G04 Layer_Color=8421504*
G04 Board_Origin=86215166|373809532*
%FSLAX44Y44*%
%MOMM*%
G71*
G04*
G04 #@! TF.SameCoordinates,C941381F-4326-489C-B6A4-9E12FBC03EC8*
G04*
G04*
G04 #@! TF.FilePolarity,Positive*
G04*
G01*
G75*
G04:AMPARAMS|DCode=12|XSize=0.9mm|YSize=0.95mm|CornerRadius=0.1125mm|HoleSize=0mm|Usage=FLASHONLY|Rotation=270.000|XOffset=0mm|YOffset=0mm|HoleType=Round|Shape=RoundedRectangle|*
%AMROUNDEDRECTD12*
21,1,0.9000,0.7250,0,0,270.0*
21,1,0.6750,0.9500,0,0,270.0*
1,1,0.2250,-0.3625,-0.3375*
1,1,0.2250,-0.3625,0.3375*
1,1,0.2250,0.3625,0.3375*
1,1,0.2250,0.3625,-0.3375*
%
%ADD12ROUNDEDRECTD12*%
G04:AMPARAMS|DCode=13|XSize=0.8mm|YSize=0.95mm|CornerRadius=0.1mm|HoleSize=0mm|Usage=FLASHONLY|Rotation=180.000|XOffset=0mm|YOffset=0mm|HoleType=Round|Shape=RoundedRectangle|*
%AMROUNDEDRECTD13*
21,1,0.8000,0.7500,0,0,180.0*
21,1,0.6000,0.9500,0,0,180.0*
1,1,0.2000,-0.3000,0.3750*
1,1,0.2000,0.3000,0.3750*
1,1,0.2000,0.3000,-0.3750*
1,1,0.2000,-0.3000,-0.3750*
%
%ADD13ROUNDEDRECTD13*%
G04:AMPARAMS|DCode=14|XSize=0.875mm|YSize=0.95mm|CornerRadius=0.1094mm|HoleSize=0mm|Usage=FLASHONLY|Rotation=180.000|XOffset=0mm|YOffset=0mm|HoleType=Round|Shape=RoundedRectangle|*
%AMROUNDEDRECTD14*
21,1,0.8750,0.7313,0,0,180.0*
21,1,0.6563,0.9500,0,0,180.0*
1,1,0.2188,-0.3281,0.3656*
1,1,0.2188,0.3281,0.3656*
1,1,0.2188,0.3281,-0.3656*
1,1,0.2188,-0.3281,-0.3656*
%
%ADD14ROUNDEDRECTD14*%
%ADD15C,1.5000*%
%ADD16R,3.3020X3.3020*%
%ADD17R,0.2540X0.8128*%
%ADD18R,0.8128X0.2540*%
G04:AMPARAMS|DCode=19|XSize=1.025mm|YSize=1.4mm|CornerRadius=0.123mm|HoleSize=0mm|Usage=FLASHONLY|Rotation=90.000|XOffset=0mm|YOffset=0mm|HoleType=Round|Shape=RoundedRectangle|*
%AMROUNDEDRECTD19*
21,1,1.0250,1.1540,0,0,90.0*
21,1,0.7790,1.4000,0,0,90.0*
1,1,0.2460,0.5770,0.3895*
1,1,0.2460,0.5770,-0.3895*
1,1,0.2460,-0.5770,-0.3895*
1,1,0.2460,-0.5770,0.3895*
%
%ADD19ROUNDEDRECTD19*%
G04:AMPARAMS|DCode=20|XSize=1mm|YSize=1.45mm|CornerRadius=0.125mm|HoleSize=0mm|Usage=FLASHONLY|Rotation=270.000|XOffset=0mm|YOffset=0mm|HoleType=Round|Shape=RoundedRectangle|*
%AMROUNDEDRECTD20*
21,1,1.0000,1.2000,0,0,270.0*
21,1,0.7500,1.4500,0,0,270.0*
1,1,0.2500,-0.6000,-0.3750*
1,1,0.2500,-0.6000,0.3750*
1,1,0.2500,0.6000,0.3750*
1,1,0.2500,0.6000,-0.3750*
%
%ADD20ROUNDEDRECTD20*%
G04:AMPARAMS|DCode=21|XSize=0.8mm|YSize=0.95mm|CornerRadius=0.1mm|HoleSize=0mm|Usage=FLASHONLY|Rotation=90.000|XOffset=0mm|YOffset=0mm|HoleType=Round|Shape=RoundedRectangle|*
%AMROUNDEDRECTD21*
21,1,0.8000,0.7500,0,0,90.0*
21,1,0.6000,0.9500,0,0,90.0*
1,1,0.2000,0.3750,0.3000*
1,1,0.2000,0.3750,-0.3000*
1,1,0.2000,-0.3750,-0.3000*
1,1,0.2000,-0.3750,0.3000*
%
%ADD21ROUNDEDRECTD21*%
G04:AMPARAMS|DCode=22|XSize=3.5mm|YSize=2.5mm|CornerRadius=0.125mm|HoleSize=0mm|Usage=FLASHONLY|Rotation=90.000|XOffset=0mm|YOffset=0mm|HoleType=Round|Shape=RoundedRectangle|*
%AMROUNDEDRECTD22*
21,1,3.5000,2.2500,0,0,90.0*
21,1,3.2500,2.5000,0,0,90.0*
1,1,0.2500,1.1250,1.6250*
1,1,0.2500,1.1250,-1.6250*
1,1,0.2500,-1.1250,-1.6250*
1,1,0.2500,-1.1250,1.6250*
%
%ADD22ROUNDEDRECTD22*%
G04:AMPARAMS|DCode=23|XSize=0.9mm|YSize=0.95mm|CornerRadius=0.1125mm|HoleSize=0mm|Usage=FLASHONLY|Rotation=0.000|XOffset=0mm|YOffset=0mm|HoleType=Round|Shape=RoundedRectangle|*
%AMROUNDEDRECTD23*
21,1,0.9000,0.7250,0,0,0.0*
21,1,0.6750,0.9500,0,0,0.0*
1,1,0.2250,0.3375,-0.3625*
1,1,0.2250,-0.3375,-0.3625*
1,1,0.2250,-0.3375,0.3625*
1,1,0.2250,0.3375,0.3625*
%
%ADD23ROUNDEDRECTD23*%
G04:AMPARAMS|DCode=24|XSize=1mm|YSize=1.45mm|CornerRadius=0.125mm|HoleSize=0mm|Usage=FLASHONLY|Rotation=0.000|XOffset=0mm|YOffset=0mm|HoleType=Round|Shape=RoundedRectangle|*
%AMROUNDEDRECTD24*
21,1,1.0000,1.2000,0,0,0.0*
21,1,0.7500,1.4500,0,0,0.0*
1,1,0.2500,0.3750,-0.6000*
1,1,0.2500,-0.3750,-0.6000*
1,1,0.2500,-0.3750,0.6000*
1,1,0.2500,0.3750,0.6000*
%
%ADD24ROUNDEDRECTD24*%
G04:AMPARAMS|DCode=25|XSize=3mm|YSize=1.2mm|CornerRadius=0.12mm|HoleSize=0mm|Usage=FLASHONLY|Rotation=90.000|XOffset=0mm|YOffset=0mm|HoleType=Round|Shape=RoundedRectangle|*
%AMROUNDEDRECTD25*
21,1,3.0000,0.9600,0,0,90.0*
21,1,2.7600,1.2000,0,0,90.0*
1,1,0.2400,0.4800,1.3800*
1,1,0.2400,0.4800,-1.3800*
1,1,0.2400,-0.4800,-1.3800*
1,1,0.2400,-0.4800,1.3800*
%
%ADD25ROUNDEDRECTD25*%
G04:AMPARAMS|DCode=26|XSize=1.7mm|YSize=5.7mm|CornerRadius=0.1275mm|HoleSize=0mm|Usage=FLASHONLY|Rotation=0.000|XOffset=0mm|YOffset=0mm|HoleType=Round|Shape=RoundedRectangle|*
%AMROUNDEDRECTD26*
21,1,1.7000,5.4450,0,0,0.0*
21,1,1.4450,5.7000,0,0,0.0*
1,1,0.2550,0.7225,-2.7225*
1,1,0.2550,-0.7225,-2.7225*
1,1,0.2550,-0.7225,2.7225*
1,1,0.2550,0.7225,2.7225*
%
%ADD26ROUNDEDRECTD26*%
%ADD27R,1.4000X1.6000*%
%ADD28R,1.5000X1.5000*%
G04:AMPARAMS|DCode=29|XSize=1.55mm|YSize=0.3mm|CornerRadius=0.0375mm|HoleSize=0mm|Usage=FLASHONLY|Rotation=0.000|XOffset=0mm|YOffset=0mm|HoleType=Round|Shape=RoundedRectangle|*
%AMROUNDEDRECTD29*
21,1,1.5500,0.2250,0,0,0.0*
21,1,1.4750,0.3000,0,0,0.0*
1,1,0.0750,0.7375,-0.1125*
1,1,0.0750,-0.7375,-0.1125*
1,1,0.0750,-0.7375,0.1125*
1,1,0.0750,0.7375,0.1125*
%
%ADD29ROUNDEDRECTD29*%
G04:AMPARAMS|DCode=30|XSize=0.3mm|YSize=1.55mm|CornerRadius=0.0375mm|HoleSize=0mm|Usage=FLASHONLY|Rotation=0.000|XOffset=0mm|YOffset=0mm|HoleType=Round|Shape=RoundedRectangle|*
%AMROUNDEDRECTD30*
21,1,0.3000,1.4750,0,0,0.0*
21,1,0.2250,1.5500,0,0,0.0*
1,1,0.0750,0.1125,-0.7375*
1,1,0.0750,-0.1125,-0.7375*
1,1,0.0750,-0.1125,0.7375*
1,1,0.0750,0.1125,0.7375*
%
%ADD30ROUNDEDRECTD30*%
G04:AMPARAMS|DCode=31|XSize=1.4mm|YSize=4.2mm|CornerRadius=0.126mm|HoleSize=0mm|Usage=FLASHONLY|Rotation=270.000|XOffset=0mm|YOffset=0mm|HoleType=Round|Shape=RoundedRectangle|*
%AMROUNDEDRECTD31*
21,1,1.4000,3.9480,0,0,270.0*
21,1,1.1480,4.2000,0,0,270.0*
1,1,0.2520,-1.9740,-0.5740*
1,1,0.2520,-1.9740,0.5740*
1,1,0.2520,1.9740,0.5740*
1,1,0.2520,1.9740,-0.5740*
%
%ADD31ROUNDEDRECTD31*%
%ADD32R,1.2000X1.4000*%
G04:AMPARAMS|DCode=33|XSize=1.225mm|YSize=3.35mm|CornerRadius=0.1225mm|HoleSize=0mm|Usage=FLASHONLY|Rotation=270.000|XOffset=0mm|YOffset=0mm|HoleType=Round|Shape=RoundedRectangle|*
%AMROUNDEDRECTD33*
21,1,1.2250,3.1050,0,0,270.0*
21,1,0.9800,3.3500,0,0,270.0*
1,1,0.2450,-1.5525,-0.4900*
1,1,0.2450,-1.5525,0.4900*
1,1,0.2450,1.5525,0.4900*
1,1,0.2450,1.5525,-0.4900*
%
%ADD33ROUNDEDRECTD33*%
%ADD34R,1.4000X1.2000*%
G04:AMPARAMS|DCode=35|XSize=2.5mm|YSize=1.8mm|CornerRadius=0.126mm|HoleSize=0mm|Usage=FLASHONLY|Rotation=270.000|XOffset=0mm|YOffset=0mm|HoleType=Round|Shape=RoundedRectangle|*
%AMROUNDEDRECTD35*
21,1,2.5000,1.5480,0,0,270.0*
21,1,2.2480,1.8000,0,0,270.0*
1,1,0.2520,-0.7740,-1.1240*
1,1,0.2520,-0.7740,1.1240*
1,1,0.2520,0.7740,1.1240*
1,1,0.2520,0.7740,-1.1240*
%
%ADD35ROUNDEDRECTD35*%
G04:AMPARAMS|DCode=36|XSize=1.475mm|YSize=0.4mm|CornerRadius=0.05mm|HoleSize=0mm|Usage=FLASHONLY|Rotation=90.000|XOffset=0mm|YOffset=0mm|HoleType=Round|Shape=RoundedRectangle|*
%AMROUNDEDRECTD36*
21,1,1.4750,0.3000,0,0,90.0*
21,1,1.3750,0.4000,0,0,90.0*
1,1,0.1000,0.1500,0.6875*
1,1,0.1000,0.1500,-0.6875*
1,1,0.1000,-0.1500,-0.6875*
1,1,0.1000,-0.1500,0.6875*
%
%ADD36ROUNDEDRECTD36*%
G36*
X521660Y-345315D02*
X536170D01*
Y-359825D01*
X521660D01*
Y-345315D01*
D02*
G37*
G36*
Y-328805D02*
X536170D01*
Y-343315D01*
X521660D01*
Y-328805D01*
D02*
G37*
G36*
X538170Y-345315D02*
X552680D01*
Y-359825D01*
X538170D01*
Y-345315D01*
D02*
G37*
G36*
Y-328805D02*
X552680D01*
Y-343315D01*
X538170D01*
Y-328805D01*
D02*
G37*
D12*
X344000Y-151250D02*
D03*
Y-166750D02*
D03*
X325000Y-151250D02*
D03*
Y-166750D02*
D03*
X610000Y-354250D02*
D03*
X487470Y-385265D02*
D03*
X542000Y-427750D02*
D03*
X610000Y-369750D02*
D03*
X590000Y-427750D02*
D03*
X476000D02*
D03*
Y-412250D02*
D03*
X590000D02*
D03*
X453000Y-10750D02*
D03*
Y4750D02*
D03*
X365085Y-286620D02*
D03*
Y-271120D02*
D03*
X346685Y-286320D02*
D03*
Y-270820D02*
D03*
X542000Y-412250D02*
D03*
X592000Y-347500D02*
D03*
Y-363000D02*
D03*
X487470Y-369765D02*
D03*
D13*
X126250Y-152000D02*
D03*
X109750D02*
D03*
X419250Y-232000D02*
D03*
X605250Y-291000D02*
D03*
X419250Y-250000D02*
D03*
Y-268000D02*
D03*
Y-286000D02*
D03*
X605250Y-272000D02*
D03*
X274035Y-355570D02*
D03*
X290535D02*
D03*
X559750Y-152000D02*
D03*
X576250D02*
D03*
X39765Y-193330D02*
D03*
X23265D02*
D03*
X289750Y-152000D02*
D03*
X306250D02*
D03*
X402750Y-232000D02*
D03*
X739750Y-152000D02*
D03*
X756250D02*
D03*
X588750Y-291000D02*
D03*
X199750Y-152000D02*
D03*
X216250D02*
D03*
X290435Y-391570D02*
D03*
X273935D02*
D03*
X402750Y-250000D02*
D03*
X469750Y-152000D02*
D03*
X486250D02*
D03*
X677715Y-499430D02*
D03*
X661215D02*
D03*
X649750Y-152000D02*
D03*
X666250D02*
D03*
X379750D02*
D03*
X396250D02*
D03*
X402750Y-268000D02*
D03*
X588750Y-272000D02*
D03*
X402750Y-286000D02*
D03*
X23465Y-211430D02*
D03*
X39965D02*
D03*
X251750Y-492000D02*
D03*
X268250D02*
D03*
D14*
X110125Y-170125D02*
D03*
X125875D02*
D03*
X290125D02*
D03*
X305875D02*
D03*
X470125D02*
D03*
X485875D02*
D03*
X740125D02*
D03*
X755875D02*
D03*
X560125D02*
D03*
X575875D02*
D03*
X200125D02*
D03*
X215875D02*
D03*
X380125D02*
D03*
X395875D02*
D03*
X650125D02*
D03*
X665875D02*
D03*
D15*
X920000Y-600000D02*
D03*
X0Y0D02*
D03*
D16*
X537170Y-344315D02*
D03*
D17*
X559670Y-373271D02*
D03*
X554670D02*
D03*
X549670D02*
D03*
X544670D02*
D03*
X539670D02*
D03*
X534670D02*
D03*
X529670D02*
D03*
X524670D02*
D03*
X519670D02*
D03*
X514670D02*
D03*
Y-315359D02*
D03*
X519670D02*
D03*
X524670D02*
D03*
X529670D02*
D03*
X534670D02*
D03*
X539670D02*
D03*
X544670D02*
D03*
X549670D02*
D03*
X554670D02*
D03*
X559670D02*
D03*
D18*
X508214Y-366815D02*
D03*
Y-361815D02*
D03*
Y-356815D02*
D03*
Y-351815D02*
D03*
Y-346815D02*
D03*
Y-341815D02*
D03*
Y-336815D02*
D03*
Y-331815D02*
D03*
Y-326815D02*
D03*
Y-321815D02*
D03*
X566126D02*
D03*
Y-326815D02*
D03*
Y-331815D02*
D03*
Y-336815D02*
D03*
Y-341815D02*
D03*
Y-346815D02*
D03*
Y-351815D02*
D03*
Y-356815D02*
D03*
Y-361815D02*
D03*
Y-366815D02*
D03*
D19*
X602000Y-234875D02*
D03*
X488000Y-307875D02*
D03*
Y-326125D02*
D03*
X602000Y-253125D02*
D03*
D20*
Y-216500D02*
D03*
Y-197500D02*
D03*
D21*
X571970Y-411965D02*
D03*
X181000Y-205250D02*
D03*
Y-188750D02*
D03*
X145000Y-205250D02*
D03*
Y-188750D02*
D03*
X571970Y-428465D02*
D03*
X163000Y-188750D02*
D03*
Y-205250D02*
D03*
X777000Y-318250D02*
D03*
Y-301750D02*
D03*
X523000Y-287250D02*
D03*
Y-270750D02*
D03*
X888000Y-408000D02*
D03*
Y-424500D02*
D03*
X541000Y-270750D02*
D03*
Y-287250D02*
D03*
X611500Y-527950D02*
D03*
Y-511450D02*
D03*
X888000Y-169750D02*
D03*
Y-186250D02*
D03*
X908000D02*
D03*
Y-169750D02*
D03*
X127000Y-188750D02*
D03*
Y-205250D02*
D03*
X908000Y-424500D02*
D03*
Y-408000D02*
D03*
X797000Y-301750D02*
D03*
Y-318250D02*
D03*
D22*
X764000Y-204500D02*
D03*
Y-269500D02*
D03*
X673000Y-204000D02*
D03*
Y-269000D02*
D03*
D23*
X643750Y-299000D02*
D03*
X628250D02*
D03*
X607750Y-309000D02*
D03*
X274250Y-373000D02*
D03*
X289750D02*
D03*
X269750Y-164000D02*
D03*
X254250D02*
D03*
X178750Y-331000D02*
D03*
X163250D02*
D03*
X160750Y-231000D02*
D03*
X145250D02*
D03*
Y-313000D02*
D03*
X160750D02*
D03*
X835250Y-128000D02*
D03*
X850750D02*
D03*
X208250Y-380000D02*
D03*
X223750D02*
D03*
X661965Y-480430D02*
D03*
X677465D02*
D03*
X607750Y-327000D02*
D03*
X592250D02*
D03*
X269935Y-182370D02*
D03*
X254435D02*
D03*
X145250Y-249000D02*
D03*
X160750D02*
D03*
X835250Y-363000D02*
D03*
X850750D02*
D03*
X592250Y-309000D02*
D03*
X835250Y-243000D02*
D03*
X850750D02*
D03*
D24*
X482500Y-283000D02*
D03*
X501500D02*
D03*
D25*
X758500Y-362500D02*
D03*
X733500Y-437500D02*
D03*
X758500D02*
D03*
X733500Y-362500D02*
D03*
D26*
X532500Y-229000D02*
D03*
X577500D02*
D03*
X462500D02*
D03*
X507500D02*
D03*
D27*
X647900Y-607000D02*
D03*
Y-527000D02*
D03*
X692900Y-607000D02*
D03*
Y-527000D02*
D03*
D28*
X552000Y-545000D02*
D03*
X474000D02*
D03*
D29*
X207385Y-235770D02*
D03*
Y-240770D02*
D03*
Y-245770D02*
D03*
Y-250770D02*
D03*
Y-255770D02*
D03*
Y-260770D02*
D03*
Y-265770D02*
D03*
Y-270770D02*
D03*
Y-275770D02*
D03*
Y-280770D02*
D03*
Y-285770D02*
D03*
Y-290770D02*
D03*
Y-295770D02*
D03*
Y-300770D02*
D03*
Y-305770D02*
D03*
Y-310770D02*
D03*
X320885D02*
D03*
Y-305770D02*
D03*
Y-300770D02*
D03*
Y-295770D02*
D03*
Y-290770D02*
D03*
Y-285770D02*
D03*
Y-280770D02*
D03*
Y-275770D02*
D03*
Y-270770D02*
D03*
Y-265770D02*
D03*
Y-260770D02*
D03*
Y-255770D02*
D03*
Y-250770D02*
D03*
Y-245770D02*
D03*
Y-240770D02*
D03*
Y-235770D02*
D03*
D30*
X226635Y-330020D02*
D03*
X231635D02*
D03*
X236635D02*
D03*
X241635D02*
D03*
X246635D02*
D03*
X251635D02*
D03*
X256635D02*
D03*
X261635D02*
D03*
X266635D02*
D03*
X271635D02*
D03*
X276635D02*
D03*
X281635D02*
D03*
X286635D02*
D03*
X291635D02*
D03*
X296635D02*
D03*
X301635D02*
D03*
Y-216520D02*
D03*
X296635D02*
D03*
X291635D02*
D03*
X286635D02*
D03*
X281635D02*
D03*
X276635D02*
D03*
X271635D02*
D03*
X266635D02*
D03*
X261635D02*
D03*
X256635D02*
D03*
X251635D02*
D03*
X246635D02*
D03*
X241635D02*
D03*
X236635D02*
D03*
X231635D02*
D03*
X226635D02*
D03*
D31*
X90085Y-266170D02*
D03*
Y-303170D02*
D03*
D32*
X145085Y-270020D02*
D03*
X161085Y-292020D02*
D03*
X145085D02*
D03*
X161085Y-270020D02*
D03*
D33*
X641570Y-318090D02*
D03*
Y-377340D02*
D03*
D34*
X521070Y-410715D02*
D03*
X497070D02*
D03*
Y-429715D02*
D03*
X521070D02*
D03*
D35*
X684000Y-327000D02*
D03*
Y-367000D02*
D03*
X743000Y-478000D02*
D03*
Y-518000D02*
D03*
D36*
X470250Y625D02*
D03*
X476750D02*
D03*
X483250D02*
D03*
X489750D02*
D03*
X496250D02*
D03*
X502750D02*
D03*
X509250D02*
D03*
X515750D02*
D03*
Y-56625D02*
D03*
X509250D02*
D03*
X502750D02*
D03*
X496250D02*
D03*
X489750D02*
D03*
X483250D02*
D03*
X476750D02*
D03*
X470250D02*
D03*
M02*
