M48
;Layer_Color=9474304
;FILE_FORMAT=4:3
METRIC,LZ
;TYPE=PLATED
T01F00S00C0.300
T02F00S00C0.350
T03F00S00C0.500
T04F00S00C0.900
T05F00S00C0.991
T06F00S00C1.000
T07F00S00C1.060
T08F00S00C1.100
T09F00S00C3.000
%
T01
X00067Y-00466
X00204
X00219Y-00491
X00238Y-00511
X00332Y-0052913
X00333Y-0055887
X00337Y-00475
X0035Y-00464
X0035771Y-0043597
X00349Y-00423
X00337Y-0041057
X004Y-00411
X0039393Y-0042327
X00437Y-00454
X00434Y-00464
X004437Y-0044755
X00462Y-00476
X00484Y-00441
X00535
X00577Y-00438
X0056487Y-00545
X0047457Y-0037122
X0029987Y-00373
X00227Y-00392
X00205Y-00391
X00602Y-00413
X00596Y-00439
X00603Y-00476
X0066197Y-0047313
X00661Y-0044
X0065Y-00496
X0061987Y-0037
X0074813Y-00367
X0077287Y-0037
X0082259Y-0041991
X0086768Y-00406
X00895Y-00399
X00836Y-00343
X00843Y-0031
X0082209Y-0030241
X00797Y-0029212
X00851Y-00284
X00858Y-00228
X00855Y-00167
X00847Y-00161
X00835Y-00173
X0083Y-00179
X00822Y-00185
X0078187Y-00203
X0078271Y-0021351
X0074413Y-00216
X0074313Y-00206
X0074413Y-00194
X0076588Y-0017112
X00758Y-00143
X00757Y-00067
X00666Y-00076
Y-00143
X0067588Y-0016862
X0068987Y-001985
Y-002115
X0065013Y-002135
X0065113Y-002015
X00602Y-0019375
X00616Y-00225
X00614Y-00273
X00621Y-00283
X00634Y-00288
X00757Y-0034213
X0074813Y-00356
X0077087
X00888Y-0016013
X00613Y-0011125
X00577Y-00143
X0058575Y-0017013
X00536Y-0017775
X0049285Y-0017013
X00489Y-00143
X0048975Y-0008375
X00576Y-0008
X00397Y-00076
Y-00143
X0040588Y-0016862
X00335Y-00172
X00299Y-00181
X0029163Y-0019987
X00313Y-00202
X00309Y-00143
X00322Y-00102
X00309Y-00068
X00265Y-00045
X00258Y-00039
X00251Y-00033
X00271Y-00027
X00216Y-00058
X00239Y-0011
Y-0015354
X0024473Y-0015854
Y-00171
X0022575Y-0017013
X00215Y-00142
X00237Y-0023002
X0026Y-00229
X00221Y-00252
X0022675Y-00342
X00239Y-00349
X00247
X0025386Y-0035037
X0026039Y-0034785
X0036185Y-00357
X00391Y-0034457
X004Y-00315
X0038728Y-0030757
X0038775Y-002697
X00473Y-00277
X005Y-00268
X00541Y-002642
X00528Y-00299
X00573Y-00283
X00474Y-00327
X00438Y-00013
X00437Y00005
X00127Y-00087
Y-0014
X0013587Y-0017013
X00132Y-00223
X00134Y-00244
X00136Y-00308
X001562Y-003383
X00017Y-00281
X0001692Y-0021873
X00051Y-00191
Y-00103
X00063Y-00111
X00005Y-00097
T02
X0047312Y-0038327
X00518Y-00385
X00924Y-00409
X00928Y-00203
X0080942Y-0019058
X00781Y-00291
X0054467Y-0033272
X0053717Y-0034432
X0052682Y-0033397
X0052542Y-0035607
X0054807Y-0035522
X0048657Y-0034272
X0044417Y-0024973
X0043625Y-0023113
X0036678Y-0025907
X0037928Y-0028707
X0028678Y-0025607
X0027875Y-00232
X0024128Y-0027357
X0027904Y-0014444
X001785Y-002395
X0018828Y-0026457
X0019028Y-0031757
X0011978Y-0031457
X0011778Y-0026607
T03
X0003013Y-0055476
X0006014Y-0049476
X0012014
X0018014
X0015014Y-0043476
X0009014
X0003013
X0012014Y-0037476
X0018014
X0015014Y-0055476
X0021014
X0027014
Y-0043476
X0036014Y-0037476
X0042014
X0045014Y-0055476
X0051014
X0057014
X0063014
Y-0043476
X0069014
X0081014
X0084014Y-0037476
X0090014
Y-0049476
X0084014
X0078014
X0087014Y-0055476
X0075014Y-0031476
X0072014Y-0025476
X0063014Y-0019476
X0066014Y-0001476
X0072014
X0078014
X0084014
X0090014
X0087014Y-0007476
X0081014
X0090014Y-0013476
X0060014Y-0001476
X0054014
X0048014Y-0025476
X0030014
X0027014Y-0031476
X0018014Y-0025476
X0012014
X0009014Y-0019476
Y-0007476
X0003013
X0006014Y-0001476
X0012014
X0018014
T04
X006115Y-005787
Y-005533
T05
X0036377Y-0044867
X0038409
X0037393Y-0039787
T06
X0033268Y-0054457
X0035808
X0038348
X0040888
X0043428
X0090036Y-0033604
Y-0031064
Y-0028524
Y-0025984
X0002986
Y-0028524
Y-0031064
Y-0033604
T07
X0082268Y-0044767
X0086768
Y-0038267
X0082268
X0082218Y-0033017
X0086718
Y-0026517
X0082218
Y-0021267
X0086718
Y-0014767
X0082218
T08
X007837Y-00577
X008345
T09
X00108Y-00548
X00808Y-00498
Y-00048
X00108
M30
