M48
;Layer_Color=9474304
;FILE_FORMAT=4:3
METRIC,LZ
;TYPE=PLATED
T01F00S00C0.300
T02F00S00C0.350
T03F00S00C0.400
T04F00S00C1.000
T05F00S00C1.200
T06F00S00C1.400
T07F00S00C3.000
%
T01
X00345Y001064
X00351Y001439
X005055Y001299
X005445Y001374
X00401Y00279
X004335Y004534
X004315Y005184
X004715Y005029
X00455Y005684
X004515Y005844
X004535Y006349
X0045Y006504
X00457Y007024
X00458Y007179
Y007764
X0047025Y007689
Y008294
X004675Y008474
X005455Y009049
X00538Y009279
X0053869Y009904
X0053415Y010059
X0052961Y010539
X0052507Y010759
X0052053Y011204
X0051599Y011469
X005075Y012809
X005285Y012779
X005335Y012919
X005395Y013159
Y013289
X0054Y013519
X00546Y013479
X00553Y013509
X0053305Y0134787
X00527Y013514
X005205Y013474
X005135Y013519
X0049458Y0135111
X0048769Y0134984
X00481Y013519
X004745Y013484
X00468Y013524
X0043983Y013488
X0043167
X0042355
X004155Y013494
X00409Y013529
X004025Y013489
X0042633Y013289
X00422Y013154
X0045328Y0131628
X0046223Y0131736
X0048065Y013164
Y013289
X0050173Y013229
X005135Y0131736
X0050725Y013054
X004615Y012949
X004045Y0129069
X00462Y013819
X0050127Y013954
X00573Y013824
X0056723Y013204
X005725Y013059
X005565Y012774
X0039205Y012689
Y012514
X0039001Y012259
X0039608Y0129519
X0038508Y0133467
X00382Y013429
X00376Y013504
X00369Y013534
X003625Y013499
X0035577Y013529
X0035Y013489
X0034303Y0135141
X003365Y013489
X003245Y013604
Y013264
X0033604Y0128472
X003335Y012779
X0033833Y0127173
X00396Y013529
T02
X003245Y000744
X003425Y000864
X003725Y000664
X003785Y001644
X003675Y001924
X003345Y001734
X003155Y001914
X003115Y002304
X003175Y002604
X003185Y002954
X003075Y002924
X003105Y003224
X003205Y003494
X003075Y003774
X003195Y003954
X003815Y003324
X003835Y003044
X003225Y001404
X0048Y00145
X005295Y001514
X005265Y001844
X005575Y001784
X005885Y001904
X005845Y002294
X005905Y002594
X005915Y002944
X005805Y002914
X005545Y002904
X005535Y003044
X005295Y003064
X0053Y0027
X005235Y002364
X005565Y002374
X00497Y00282
X004765Y0028077
X00473Y00305
X00456Y00289
X004415Y002984
X004255Y003064
X00419Y00269
X00456Y00265
X004035Y003354
X005245Y003394
X005275Y003734
X005545Y003544
X005935Y003484
X005835Y003214
X005805Y003764
X005925Y003944
X005665Y001374
X005825Y000964
X005635Y000714
X005005Y000634
X004555Y000664
X004085Y000634
Y004154
X004095Y004734
Y005474
X004065Y006064
Y006814
X004095Y007324
Y007794
X005235Y007804
X005355Y007584
X005215Y007424
Y007134
X005335Y006954
X005225Y006764
X005235Y006454
X005525Y006434
Y006144
X005355Y006164
X005205Y005944
X00497Y006074
X005315Y005644
X005255Y005444
X005525Y005484
Y005784
X005795Y005694
X005915Y006004
X005795Y006264
X005905Y006564
X005805Y006824
X005515Y006804
Y007144
X005535Y007434
Y007734
X005915Y007664
X005815Y007324
X005925Y007074
X005935Y005394
X005815Y005144
X005925Y004944
X005835Y004754
X005915Y004504
X005795Y004264
X005545Y004114
X005185Y004134
X005335Y004304
X005535Y004494
X005145Y004534
X005325Y004774
X005315Y005044
X005535Y004984
X003895Y005104
X003905Y005864
X003185Y006014
X003065Y006274
X003175Y006574
X003075Y006834
X003195Y007084
X003085Y007334
X003185Y007674
X003925Y007794
X003935Y007444
X003915Y007204
X003925Y006824
X003065Y005704
X003205Y005404
X003085Y005154
X003195Y004954
X003105Y004764
X003185Y004514
X003065Y004274
X003845Y004284
X003965Y008144
X003925Y008534
X003945Y008714
X003915Y009104
X003945Y009494
X003905Y009854
Y010074
X003885Y010454
X003905Y010834
Y011224
X003935Y011434
X003905Y011794
X003195Y011824
X003075Y011554
X003185Y011294
X00311Y011029
X003185Y010714
X003085Y010444
X003195Y010144
X003075Y009794
X003195Y009564
X003075Y009224
X003205Y008944
X003065Y008654
X003185Y008374
X003075Y008064
X004105Y008174
Y008554
Y008764
X004075Y009154
X004115Y009474
X004085Y009884
X004115Y010094
X004075Y010494
X004095Y010834
X004065Y011274
X004085Y011434
X004055Y011834
X004965Y011804
X005075
X005195Y011104
Y010984
X005785Y011024
X005915Y011284
X005805Y011544
X005925Y011814
X005915Y010704
X005815Y010434
X005925Y010134
X005805Y009784
X00592Y00954
X005805Y009214
X005935Y008934
X005795Y008644
X005535Y008544
X005225Y008474
X005335Y008254
X005545Y008164
X005805Y008054
X005915Y008364
X005215Y008074
X005245Y008794
X005195Y009574
X005325Y009724
X005205Y010224
X005265Y010314
X005075Y012184
X004965
X005795Y012084
X005915Y012304
X005825Y012484
X0060335Y0142065
X0062035
X0063735Y0141965
X0063835Y0145765
X0061635
X0059935
X00537Y014049
X005075Y014054
X004025
X00305Y013209
X003095Y012494
X003185Y012314
X003095Y012089
T03
X000805Y0020357
X00077Y0021757
X000945Y0028535
X00112
X001285
X001485Y0027757
Y0026307
Y0025207
Y0023757
X001989Y0023957
Y0025307
Y0026507
Y0027807
X0019625Y0034232
X0018575Y0033182
X00168Y0032707
X001505
X001235
X001015
X000805Y0033907
X00077Y0035307
X001485Y0037307
Y0038757
X001989Y0038857
Y0037507
X0019625Y0020682
X0018575Y0019632
X00357Y002314
X00368Y002549
X0036831Y002729
X0033Y00264
X0037285Y003164
X0037739Y003554
X005665Y003954
X00567Y00259
X007071Y0025483
Y0026683
Y0028033
X0070975Y0031308
X0072025Y0032358
X00738Y0032833
X007555
X007825
X007775Y0037005
X007575Y0037783
Y0039233
X007071Y0039033
Y0037733
Y0024183
X007575Y0024233
Y0025683
Y0026783
Y0028233
X007775Y0023455
X00794
X008115
X00829Y0030233
X008255Y0031633
X008045Y0032833
X008115Y0037005
X00794
X00829Y0043783
X008255Y0045183
X008045Y0046383
X008115Y0050406
X00794
X00829Y0057184
X008255Y0058584
X008045Y0059784
X008115Y0063808
X00794
X00829Y0070586
X008255Y0071986
X008045Y0073186
X008115Y0077209
X00794
X007775
X007575Y0077987
X007555Y0073186
X00738
X0072025Y0072711
X0070975Y0071661
X007071Y0068386
Y0067036
Y0065836
Y0064536
X007575Y0064586
Y0066036
Y0067136
Y0068586
X007775Y0063808
X007825Y0059784
X007555
X00738
X0072025Y0059309
X0070975Y0058259
X007071Y0054984
Y0053634
Y0052434
Y0051134
X007575Y0051184
Y0052634
Y0053734
Y0055184
X007775Y0050406
X007825Y0046383
X007555
X00738
X0072025Y0045908
X0070975Y0044858
X007071Y0041583
Y0040233
X007575Y0040333
Y0041783
X005665Y0052941
Y0066343
X007071Y0077937
Y0079237
X007825Y0073186
X003305Y0066353
Y0052951
Y004124
X0038193Y004024
X003875Y004514
X0019625Y0047634
X0018575Y0046584
X00168Y0046109
X001505
X001235
X001015
X000805Y0047309
X00077Y0048709
X000945Y0042085
X00112
X001285
X001485Y0041307
Y0039857
X001989Y0040057
Y0041357
Y0050909
Y0052259
Y0053459
Y0054759
X001485Y0054709
Y0053259
Y0052159
Y0050709
X001285Y0055486
X00112
X000945
X001015Y005951
X001235
X001505
X00168
X0018575Y0059985
X0019625Y0061035
X001989Y006431
Y006566
Y006686
Y006816
X001485Y006811
Y006666
Y006556
Y006411
X001285Y0068888
X00112
X000945
X001015Y0072912
X001235
X001505
X00168
X0018575Y0073387
X0019625Y0074437
X001989Y0077712
Y0079062
X001485Y0078962
Y0077512
X00077Y0075512
X000805Y0074112
X00077Y006211
X000805Y006071
X000945Y0082289
X00112
X001285
X001485Y0081512
Y0080062
X001989Y0080262
Y0081562
X0018575Y0086788
X0019625Y0087838
X001989Y0091113
Y0092463
Y0093663
Y0094963
X001485Y0094913
Y0093463
Y0092363
Y0090913
X001505Y0086313
X00168
X001235
X001015
X000805Y0087513
X00077Y0088913
X000945Y0095691
X00112
X001285
X001235Y0099715
X001015
X000805Y0100915
X00077Y0102315
X000945Y0109092
X00112
X001285
X001485Y0108315
Y0106865
Y0105765
Y0104315
X001505Y0099715
X00168
X0018575Y010019
X0019625Y010124
X001989Y0104515
Y0105865
Y0107065
Y0108365
X0019625Y0114677
X0018575Y0113627
X00168Y0113152
X001505
X001235
X001015
X000805Y0114352
X00077Y0115752
X001485Y0117752
X001989Y0117952
X003305Y0106557
Y0093156
Y0079754
X005665Y0079744
X007071Y0080437
Y0081787
X0070975Y0085062
X0072025Y0086112
X00738Y0086587
X007555
X007825
X007775Y0090611
X007575Y0091389
Y0092839
Y0093939
Y0095389
X007555Y0099989
X00738
X0072025Y0099514
X0070975Y0098464
X007071Y0095189
Y0093839
Y0092639
Y0091339
Y010474
Y010604
Y010724
Y010859
X0070975Y0111865
X0072025Y0112915
X00738Y011339
X007555
X007825
X007775Y011745
X007575Y0118228
X007071Y0118178
X007575Y010879
Y010734
Y010624
Y010479
X007775Y0104012
X007825Y0099989
X007575Y0081987
Y0080537
Y0079437
X005665Y009474
Y0106547
X00794Y0104012
X008115
X008045Y0099989
X008255Y0098789
X00829Y0097389
X008115Y0090611
X00794
X008045Y0086587
X008255Y0085387
X00829Y0083987
Y011079
X008255Y011219
X008045Y011339
X008115Y011745
X00794
X00829Y0124228
X008255Y0125628
X008045Y0126828
X007825
X007555
X00738
X0072025Y0126353
X0070975Y0125303
X007071Y0122028
Y0120678
Y0119478
X007575Y0119678
Y0120778
Y0122228
X005665Y011999
X005741Y0140115
X0061827Y014379
X005911Y0149015
X005165Y015044
X004685Y015079
X004395
X0041285Y014629
X004325Y014214
X00451Y014054
X0047985Y014159
X00502Y014294
X004175Y013854
X003371Y0139831
X0032885
X0032085Y013984
X003185Y013484
X003305Y0119995
X001989Y0120502
Y0119302
Y0121802
X001485Y0121752
Y0120302
Y0119202
X001285Y012253
X00112
X000945
X003335Y015079
X0038935Y0150765
X0036885Y0147865
T04
X004149Y000939
X004403
X004657
X004911
X004913Y014874
X004659
X004405
X004151
T05
X0055419Y014379
X0060419
X00329Y01423
Y01473
T06
X00077Y0023455
Y0028535
X001482Y002975
X001986
X002486
Y00358
X001986
X001482
X00077Y0037005
X001482Y002225
X001986
X002486
X004016
Y0026
Y002975
Y00358
Y003955
X005041Y003954
Y003579
Y002974
Y002599
Y002224
X006571
X007071
X007575
Y002974
X007071
X006571
Y003579
X007071
X007575
X00829Y0037005
Y0028535
Y0023455
Y0042085
Y0050406
Y0055486
Y0063808
Y0068888
Y0077209
X007575Y0075994
X007071
X006571
Y0070093
X007071
X007575
Y0062593
X007071
X006571
Y0056691
X007071
X007575
Y0049191
X007071
X006571
Y004329
X007071
X007575
X005041
Y0049191
Y0052941
Y0056691
Y0062593
Y0066343
Y0070093
Y0075994
X004016Y0076004
Y0070103
Y0066353
Y0062603
Y0056701
Y0052951
Y0049201
Y00433
X002486
X001986
X001482
Y0049201
X001986
X002486
Y0056701
X001986
X001482
Y0062603
X001986
X002486
Y0070103
X001986
X001482
Y0076004
X001986
X002486
X00077Y0077209
Y0068888
Y0063808
Y0055486
Y0050406
Y0042085
Y0082289
Y0090611
Y0095691
Y0104012
Y0109092
X001482Y0110307
X001986
X002486
Y0116245
X001986
X001482
X00077Y011745
X001482Y0102807
X001986
X002486
Y0096906
X001986
X001482
Y0089406
X001986
X002486
Y0083504
X001986
X001482
X004016
Y0079754
Y0089406
Y0093156
Y0096906
Y0102807
Y0106557
Y0110307
Y0116245
X0050369Y011624
X005041Y0110297
Y0106547
Y0102797
Y0096896
Y0093146
Y0089396
Y0083494
Y0079744
X006571Y0083494
X007071
X007575
Y0089396
X007071
X006571
Y0096896
X007071
X007575
Y0102797
X007071
X006571
Y0110297
X007071
X007575
X0075709Y011624
X0070669
X0065669
X00829Y011745
Y0109092
Y0104012
Y0095691
Y0090611
Y0082289
Y012253
X0075709Y012374
X0070669
X0065669
X0050369
Y011999
X004016Y0119995
Y0123745
X002486
X001986
X001482
X00077Y012253
T07
X00233Y001479
X00673
Y012979
X00233
M30
