G04*
G04 #@! TF.GenerationSoftware,Altium Limited,Altium Designer,26.5.1 (12)*
G04*
G04 Layer_Color=8421504*
G04 Board_Origin=0|0*
%FSLAX44Y44*%
%MOMM*%
G71*
G04*
G04 #@! TF.SameCoordinates,F9DE173E-AD32-4170-81DE-BFE943D2D91D*
G04*
G04*
G04 #@! TF.FilePolarity,Positive*
G04*
G01*
G75*
G04:AMPARAMS|DCode=11|XSize=0.8mm|YSize=0.95mm|CornerRadius=0.1mm|HoleSize=0mm|Usage=FLASHONLY|Rotation=90.000|XOffset=0mm|YOffset=0mm|HoleType=Round|Shape=RoundedRectangle|*
%AMROUNDEDRECTD11*
21,1,0.8000,0.7500,0,0,90.0*
21,1,0.6000,0.9500,0,0,90.0*
1,1,0.2000,0.3750,0.3000*
1,1,0.2000,0.3750,-0.3000*
1,1,0.2000,-0.3750,-0.3000*
1,1,0.2000,-0.3750,0.3000*
%
%ADD11ROUNDEDRECTD11*%
G04:AMPARAMS|DCode=12|XSize=0.9mm|YSize=0.95mm|CornerRadius=0.1125mm|HoleSize=0mm|Usage=FLASHONLY|Rotation=180.000|XOffset=0mm|YOffset=0mm|HoleType=Round|Shape=RoundedRectangle|*
%AMROUNDEDRECTD12*
21,1,0.9000,0.7250,0,0,180.0*
21,1,0.6750,0.9500,0,0,180.0*
1,1,0.2250,-0.3375,0.3625*
1,1,0.2250,0.3375,0.3625*
1,1,0.2250,0.3375,-0.3625*
1,1,0.2250,-0.3375,-0.3625*
%
%ADD12ROUNDEDRECTD12*%
D11*
X463500Y837650D02*
D03*
Y821150D02*
D03*
X440500Y667150D02*
D03*
Y650650D02*
D03*
X454000Y767150D02*
D03*
Y750650D02*
D03*
X450000Y734650D02*
D03*
Y718150D02*
D03*
X458500Y800650D02*
D03*
Y784150D02*
D03*
X445000Y701150D02*
D03*
Y684650D02*
D03*
X439500Y535150D02*
D03*
Y518650D02*
D03*
X468000Y869150D02*
D03*
Y852650D02*
D03*
X436000Y634650D02*
D03*
Y618150D02*
D03*
X439500Y551150D02*
D03*
Y567650D02*
D03*
Y600650D02*
D03*
Y584150D02*
D03*
X456000Y469650D02*
D03*
Y453150D02*
D03*
Y519650D02*
D03*
Y503150D02*
D03*
D12*
X388750Y1385400D02*
D03*
X404250D02*
D03*
X450750Y1393400D02*
D03*
X466250D02*
D03*
M02*
