G04*
G04 #@! TF.GenerationSoftware,Altium Limited,Altium Designer,26.5.1 (12)*
G04*
G04 Layer_Color=8388736*
G04 Board_Origin=0|0*
%FSLAX44Y44*%
%MOMM*%
G71*
G04*
G04 #@! TF.SameCoordinates,F9DE173E-AD32-4170-81DE-BFE943D2D91D*
G04*
G04*
G04 #@! TF.FilePolarity,Negative*
G04*
G01*
G75*
G04:AMPARAMS|DCode=11|XSize=0.8mm|YSize=0.95mm|CornerRadius=0.1mm|HoleSize=0mm|Usage=FLASHONLY|Rotation=90.000|XOffset=0mm|YOffset=0mm|HoleType=Round|Shape=RoundedRectangle|*
%AMROUNDEDRECTD11*
21,1,0.8000,0.7500,0,0,90.0*
21,1,0.6000,0.9500,0,0,90.0*
1,1,0.2000,0.3750,0.3000*
1,1,0.2000,0.3750,-0.3000*
1,1,0.2000,-0.3750,-0.3000*
1,1,0.2000,-0.3750,0.3000*
%
%ADD11ROUNDEDRECTD11*%
G04:AMPARAMS|DCode=12|XSize=0.9mm|YSize=0.95mm|CornerRadius=0.1125mm|HoleSize=0mm|Usage=FLASHONLY|Rotation=180.000|XOffset=0mm|YOffset=0mm|HoleType=Round|Shape=RoundedRectangle|*
%AMROUNDEDRECTD12*
21,1,0.9000,0.7250,0,0,180.0*
21,1,0.6750,0.9500,0,0,180.0*
1,1,0.2250,-0.3375,0.3625*
1,1,0.2250,0.3375,0.3625*
1,1,0.2250,0.3375,-0.3625*
1,1,0.2250,-0.3375,-0.3625*
%
%ADD12ROUNDEDRECTD12*%
G04:AMPARAMS|DCode=13|XSize=2.4mm|YSize=2.4mm|CornerRadius=0.12mm|HoleSize=0mm|Usage=FLASHONLY|Rotation=270.000|XOffset=0mm|YOffset=0mm|HoleType=Round|Shape=RoundedRectangle|*
%AMROUNDEDRECTD13*
21,1,2.4000,2.1600,0,0,270.0*
21,1,2.1600,2.4000,0,0,270.0*
1,1,0.2400,-1.0800,-1.0800*
1,1,0.2400,-1.0800,1.0800*
1,1,0.2400,1.0800,1.0800*
1,1,0.2400,1.0800,-1.0800*
%
%ADD13ROUNDEDRECTD13*%
%ADD14C,2.4000*%
%ADD15C,2.0000*%
%ADD16R,1.7000X1.7000*%
G04:AMPARAMS|DCode=17|XSize=2.4mm|YSize=2.4mm|CornerRadius=0.12mm|HoleSize=0mm|Usage=FLASHONLY|Rotation=180.000|XOffset=0mm|YOffset=0mm|HoleType=Round|Shape=RoundedRectangle|*
%AMROUNDEDRECTD17*
21,1,2.4000,2.1600,0,0,180.0*
21,1,2.1600,2.4000,0,0,180.0*
1,1,0.2400,-1.0800,1.0800*
1,1,0.2400,1.0800,1.0800*
1,1,0.2400,1.0800,-1.0800*
1,1,0.2400,-1.0800,-1.0800*
%
%ADD17ROUNDEDRECTD17*%
%ADD18C,3.0000*%
G04:AMPARAMS|DCode=19|XSize=2.1mm|YSize=3.6mm|CornerRadius=0.126mm|HoleSize=0mm|Usage=FLASHONLY|Rotation=90.000|XOffset=0mm|YOffset=0mm|HoleType=Round|Shape=RoundedRectangle|*
%AMROUNDEDRECTD19*
21,1,2.1000,3.3480,0,0,90.0*
21,1,1.8480,3.6000,0,0,90.0*
1,1,0.2520,1.6740,0.9240*
1,1,0.2520,1.6740,-0.9240*
1,1,0.2520,-1.6740,-0.9240*
1,1,0.2520,-1.6740,0.9240*
%
%ADD19ROUNDEDRECTD19*%
G04:AMPARAMS|DCode=20|XSize=2.1mm|YSize=3.6mm|CornerRadius=1.05mm|HoleSize=0mm|Usage=FLASHONLY|Rotation=90.000|XOffset=0mm|YOffset=0mm|HoleType=Round|Shape=RoundedRectangle|*
%AMROUNDEDRECTD20*
21,1,2.1000,1.5000,0,0,90.0*
21,1,0.0000,3.6000,0,0,90.0*
1,1,2.1000,0.7500,0.0000*
1,1,2.1000,0.7500,0.0000*
1,1,2.1000,-0.7500,0.0000*
1,1,2.1000,-0.7500,0.0000*
%
%ADD20ROUNDEDRECTD20*%
%ADD21C,1.7000*%
D11*
X463500Y837650D02*
D03*
Y821150D02*
D03*
X440500Y667150D02*
D03*
Y650650D02*
D03*
X454000Y767150D02*
D03*
Y750650D02*
D03*
X450000Y734650D02*
D03*
Y718150D02*
D03*
X458500Y800650D02*
D03*
Y784150D02*
D03*
X445000Y701150D02*
D03*
Y684650D02*
D03*
X439500Y535150D02*
D03*
Y518650D02*
D03*
X468000Y869150D02*
D03*
Y852650D02*
D03*
X436000Y634650D02*
D03*
Y618150D02*
D03*
X439500Y551150D02*
D03*
Y567650D02*
D03*
Y600650D02*
D03*
Y584150D02*
D03*
X456000Y469650D02*
D03*
Y453150D02*
D03*
Y519650D02*
D03*
Y503150D02*
D03*
D12*
X388750Y1385400D02*
D03*
X404250D02*
D03*
X450750Y1393400D02*
D03*
X466250D02*
D03*
D13*
X329000Y1473000D02*
D03*
D14*
Y1423000D02*
D03*
X554190Y1437900D02*
D03*
D15*
X504100Y259900D02*
D03*
Y395400D02*
D03*
Y529415D02*
D03*
Y663429D02*
D03*
Y797444D02*
D03*
Y931459D02*
D03*
Y1065473D02*
D03*
X503688Y1199900D02*
D03*
X401600Y260000D02*
D03*
Y395500D02*
D03*
Y529515D02*
D03*
Y663529D02*
D03*
Y797544D02*
D03*
Y931559D02*
D03*
Y1065573D02*
D03*
Y1199950D02*
D03*
X198600Y222500D02*
D03*
Y297500D02*
D03*
X248600Y222500D02*
D03*
Y297500D02*
D03*
X148200Y222500D02*
D03*
Y297500D02*
D03*
X401600D02*
D03*
Y222500D02*
D03*
X707100Y297400D02*
D03*
Y222400D02*
D03*
X657100Y297400D02*
D03*
Y222400D02*
D03*
X757500Y297400D02*
D03*
Y222400D02*
D03*
X504100D02*
D03*
Y297400D02*
D03*
Y432900D02*
D03*
Y357900D02*
D03*
X757500D02*
D03*
Y432900D02*
D03*
X657100Y357900D02*
D03*
Y432900D02*
D03*
X707100Y357900D02*
D03*
Y432900D02*
D03*
X401600Y894059D02*
D03*
Y969059D02*
D03*
X148200D02*
D03*
Y894059D02*
D03*
X248600Y969059D02*
D03*
Y894059D02*
D03*
X198600Y969059D02*
D03*
Y894059D02*
D03*
X401600Y492015D02*
D03*
Y567015D02*
D03*
X148200D02*
D03*
Y492015D02*
D03*
X248600Y567015D02*
D03*
Y492015D02*
D03*
X198600Y567015D02*
D03*
Y492015D02*
D03*
X401600Y1028073D02*
D03*
Y1103073D02*
D03*
X148200D02*
D03*
Y1028073D02*
D03*
X248600Y1103073D02*
D03*
Y1028073D02*
D03*
X198600Y1103073D02*
D03*
Y1028073D02*
D03*
X401600Y358000D02*
D03*
Y433000D02*
D03*
X148200D02*
D03*
Y358000D02*
D03*
X248600Y433000D02*
D03*
Y358000D02*
D03*
X198600Y433000D02*
D03*
Y358000D02*
D03*
X504100Y700929D02*
D03*
Y625929D02*
D03*
X757500D02*
D03*
Y700929D02*
D03*
X657100Y625929D02*
D03*
Y700929D02*
D03*
X707100Y625929D02*
D03*
Y700929D02*
D03*
X504100Y968959D02*
D03*
Y893959D02*
D03*
X757500D02*
D03*
Y968959D02*
D03*
X657100Y893959D02*
D03*
Y968959D02*
D03*
X707100Y893959D02*
D03*
Y968959D02*
D03*
X504100Y566915D02*
D03*
Y491915D02*
D03*
X757500D02*
D03*
Y566915D02*
D03*
X657100Y491915D02*
D03*
Y566915D02*
D03*
X707100Y491915D02*
D03*
Y566915D02*
D03*
X504100Y1102973D02*
D03*
Y1027973D02*
D03*
X757500D02*
D03*
Y1102973D02*
D03*
X657100Y1027973D02*
D03*
Y1102973D02*
D03*
X707100Y1027973D02*
D03*
Y1102973D02*
D03*
X401600Y626029D02*
D03*
Y701029D02*
D03*
X148200D02*
D03*
Y626029D02*
D03*
X248600Y701029D02*
D03*
Y626029D02*
D03*
X198600Y701029D02*
D03*
Y626029D02*
D03*
X401600Y1162450D02*
D03*
Y1237450D02*
D03*
X148200D02*
D03*
Y1162450D02*
D03*
X248600Y1237450D02*
D03*
Y1162450D02*
D03*
X198600Y1237450D02*
D03*
Y1162450D02*
D03*
X401600Y760044D02*
D03*
Y835044D02*
D03*
X148200D02*
D03*
Y760044D02*
D03*
X248600Y835044D02*
D03*
Y760044D02*
D03*
X198600Y835044D02*
D03*
Y760044D02*
D03*
X504100Y834944D02*
D03*
Y759944D02*
D03*
X757500D02*
D03*
Y834944D02*
D03*
X657100Y759944D02*
D03*
Y834944D02*
D03*
X707100Y759944D02*
D03*
Y834944D02*
D03*
X503688Y1237400D02*
D03*
Y1162400D02*
D03*
X757088D02*
D03*
Y1237400D02*
D03*
X656688Y1162400D02*
D03*
Y1237400D02*
D03*
X706688Y1162400D02*
D03*
Y1237400D02*
D03*
D16*
X415100Y1487400D02*
D03*
X414900Y93900D02*
D03*
D17*
X604190Y1437900D02*
D03*
D18*
X233000Y1297900D02*
D03*
X673000Y147900D02*
D03*
X233000D02*
D03*
X673000Y1297900D02*
D03*
D19*
X829000Y234550D02*
D03*
X77000Y285350D02*
D03*
X829000Y370050D02*
D03*
Y772094D02*
D03*
X77000Y1225300D02*
D03*
X829000Y1174500D02*
D03*
Y906109D02*
D03*
X77000Y822894D02*
D03*
Y1090923D02*
D03*
Y554865D02*
D03*
Y688879D02*
D03*
X829000Y504065D02*
D03*
X77000Y956909D02*
D03*
X829000Y1040123D02*
D03*
X77000Y420850D02*
D03*
X829000Y638079D02*
D03*
D20*
Y285350D02*
D03*
X77000Y234550D02*
D03*
X829000Y420850D02*
D03*
Y822894D02*
D03*
X77000Y1174500D02*
D03*
X829000Y1225300D02*
D03*
Y956909D02*
D03*
X77000Y772094D02*
D03*
Y1040123D02*
D03*
Y504065D02*
D03*
Y638079D02*
D03*
X829000Y554865D02*
D03*
X77000Y906109D02*
D03*
X829000Y1090923D02*
D03*
X77000Y370050D02*
D03*
X829000Y688879D02*
D03*
D21*
X491100Y93900D02*
D03*
X465700D02*
D03*
X440300D02*
D03*
X491300Y1487400D02*
D03*
X465900D02*
D03*
X440500D02*
D03*
M02*
