M48
;Layer_Color=9474304
;FILE_FORMAT=4:3
METRIC,LZ
;TYPE=PLATED
T01F00S00C0.300
T02F00S00C0.350
T03F00S00C0.500
T04F00S00C0.900
T05F00S00C0.991
T06F00S00C1.000
T07F00S00C1.060
T08F00S00C1.100
T09F00S00C3.000
%
T01
X0006294Y-0046706
X0014018Y-0042574
X0014025Y-00406
X0023003Y-0042559
X0032028
X0041028
X0050003
X0059103
X012978Y-00392
X013198Y-00393
X0139268Y-00374
X014298Y-0041157
X014418Y-00424
X0145051Y-0043697
X014428Y-00465
X014298Y-00476
X014248Y-0053013
X014258Y-0055987
X013308Y-00512
X013118Y-00492
X012968Y-00467
X015268Y-00465
X015298Y-00455
X015365Y-0044855
X015548Y-00477
X015768Y-00442
X016278
X016698Y-00439
X0165768Y-00546
X0156737Y-0037222
X014928Y-00412
X0148673Y-0042427
X016888Y-0044
X016948Y-00414
X0171268Y-00371
X017538Y-00441
X0175477Y-0047413
X017428Y-00497
X016958Y-00477
X0184093Y-00368
X0186568Y-00371
X0191539Y-0042091
X0196048Y-00407
X019878Y-004
X019288Y-00344
X019358Y-00311
X0191489Y-0030341
X018898Y-0029312
X019438Y-00285
X019508Y-00229
X019478Y-00168
X019398Y-00162
X019278Y-00174
X019228Y-0018
X019148Y-00186
X0187467Y-00204
X0187551Y-0021451
X0183693Y-00217
X0183593Y-00207
X0183693Y-00195
X0178268Y-001995
Y-002125
X0174293Y-002145
X0174393Y-002025
X016948Y-0019475
X017088Y-00226
X017068Y-00274
X017138Y-00284
X017268Y-00289
X018498Y-0034312
X0184093Y-00357
X0186367
X019808Y-0016113
X017018Y-00111
X016288Y-0017875
X016338Y-002652
X015928Y-00269
X015658Y-00278
X015668Y-00328
X016208Y-003
X016658Y-00284
X0148055Y-002707
X0148008Y-0030857
X014928Y-00316
X014838Y-0034557
X0145465Y-00358
X0135319Y-0034885
X0134666Y-0035137
X0133878Y-0035019
X0133178Y-0035
X0131975Y-00343
X01314Y-00253
X0132962Y-0023102
X013528Y-0023
X0138443Y-0020087
X014058Y-00203
X01415Y-0010812
X01357Y-0008113
X01349Y-0007412
X01341Y-0006713
X01364Y-0005812
X013318Y-00111
X012248Y-00224
X012268Y-00245
X012288Y-00309
X01249Y-003393
X0059078Y-0034059
X0059Y-0025481
X0059078Y-0016888
X0059085Y-0015085
X0049985
X0049978Y-0017059
Y-0025559
Y-0034059
X00705Y-0001212
X00723Y-0001112
X00414Y-0006963
X004101Y-0015085
X0041003Y-0017059
Y-0025559
Y-0034059
X0032003
Y-0025559
Y-0017059
X003201Y-0015085
X0022985
X0022978Y-0017059
X0022985Y-0023585
X0022978Y-0025559
Y-0034059
X0013993Y-0034074
X0014Y-00321
X0013993Y-0025574
X0014Y-00236
X0013993Y-0017074
X0014Y-00151
X00186Y-0004
X00236Y-00055
X00323Y-00063
X000583Y-0011932
X000463Y-0011333
X000133Y-0010432
X0004694Y-0019206
X000193Y-0022433
T02
X00709Y-003963
X00749Y-003903
X00758Y-003843
X007645Y-003743
X0156592Y-0038427
X016108Y-00386
X020168Y-0041
X020208Y-00204
X0190222Y-0019158
X018738Y-00292
X016528Y-00282
X0163747Y-0033372
X0162997Y-0034532
X0161962Y-0033497
X0161822Y-0035707
X0164087Y-0035622
X0157937Y-0034372
X01552Y-00318
X01508Y-00339
X01438Y-00328
X0147208Y-0028807
X0145958Y-0026007
X01457Y-00224
X01485Y-00222
X0152905Y-0023213
X0153697Y-0025073
X01501Y-0016
X0145Y-00161
X0142Y-0018112
X0137184Y-0014544
X013318Y-0014712
X01353Y-00202
X0137155Y-00233
X0137958Y-0025707
X01353Y-00259
Y-00276
Y-00295
Y-0031
X01333Y-00316
Y-00297
X0133408Y-0027457
X01579Y-00158
X01663Y-00156
X012713Y-002405
X0128108Y-0026557
X0128308Y-0031857
X0123034Y-0032196
X01227Y-002621
X00758Y-0020513
X00749Y-0021112
X007369Y-002212
X00709Y-0021712
X0074Y-0018812
X00763Y-0019513
X00736Y-0015512
Y-0011113
X00741Y-0009113
X00749Y-0008212
X00756Y-0007412
X00763Y-0006812
X00712Y-0008312
X00648Y-00091
X0059Y-0007963
X00504Y-0007613
X00665Y-00237
X00736Y-003343
X0074Y-003673
X0025Y-000915
X00172Y-00089
T03
X0007293Y-0058576
Y-0040576
X0016293
X0025293
X0034293
X0043293
X0047793Y-0049576
X0038793
X0029793
X0020793
X0011793
X0016293Y-0058576
X0025293
X0034293
X0043293
X0052293
X0061293
X0070293
X0079293
X0088293
X0083793Y-0049576
X0074793
X0065793
X0056793
X0052293Y-0040576
X0061293
X0070293
X0079293
X0088293
X0097293
X0106293
X0115293
X0124293
X0119793Y-0049576
X0110793
X0101793
X0092793
X0097293Y-0058576
X0106293
X0115293
X0124293
X0133293
X0142293
X0151293
X0160293
X0151293Y-0040576
X0128793Y-0049576
X0182793
X0200793
X0196293Y-0058576
X0182793Y-0031576
X0178293Y-0004576
X0187293
X0169293
X0200793Y-0013576
X0160293Y-0004576
X0151293
X0142293
X0133293
X0142293Y-0022576
X0137793Y-0031576
X0110793
X0101793
X0092793
X0097293Y-0022576
X0106293
X0115293
X0119793Y-0013576
X0110793
X0101793
X0092793
X0097293Y-0004576
X0106293
X0115293
X0124293
X0088293
X0079293
X0083793Y-0013576
X0079293Y-0022576
X0088293
X0083793Y-0031576
X0065793
X0061293Y-0022576
X0070293
X0065793Y-0013576
X0056793
X0052293Y-0022576
X0043293
X0034293
X0025293
X0016293
X0020793Y-0013576
X0029793
X0038793
X0047793
X0011793
X0007293Y-0004576
Y-0022576
T04
X017043Y-005797
Y-005543
T05
X0145657Y-0044967
X0147689
X0146673Y-0039887
T06
X0142548Y-0054557
X0145088
X0147628
X0150168
X0152708
X020086Y-003375
Y-003121
Y-002867
Y-002613
X000258Y-002609
Y-002863
Y-003117
Y-003371
T07
X0191548Y-0044867
X0196048
Y-0038367
X0191548
X0191498Y-0033117
X0195998
Y-0026617
X0191498
Y-0021367
X0195998
Y-0014867
X0191498
T08
X018765Y-00578
X019273
T09
X000508Y-00549
X018558Y-00519
X019608Y-00049
X001558
M30
