M48
;Layer_Color=9474304
;FILE_FORMAT=4:3
METRIC,LZ
;TYPE=PLATED
T01F00S00C0.300
T02F00S00C0.350
T03F00S00C0.400
T04F00S00C1.000
T05F00S00C1.200
T06F00S00C1.400
T07F00S00C3.000
%
T01
X0081288Y0150487
X0083248Y0148527
X0073318Y0150487
X0060098Y014339
X0051398Y014524
X0049498
X0048798Y014889
X0051598Y014874
X0051498Y015269
X0048698Y015289
X0049298Y015599
X0051298Y015619
X0050798Y014159
X0049148Y013779
X0049248Y013604
X0045648Y013579
X0040598Y013739
X0041248Y014014
X0062948Y013569
X0063898Y013489
X0064298Y013309
X0063248Y012959
X0063698Y012839
X0060448Y012814
X0060948Y012764
X0056198Y012744
X0039248Y013569
X0016628Y0146993
X0008658
X0006698Y0148953
X0006718Y016352
X0008678Y016156
X0016648
X0018918Y016383
X0016578Y0176203
X0008608
X0006648Y0178163
X0008648Y0190733
X0006688Y0192693
X0016618Y0190733
X0018888Y0193003
X0037785Y019129
X0042698Y018859
X0043698Y018534
X0049048Y018484
X0048848Y018694
X0049148Y018894
X0051298Y018899
X0051148Y018534
X0051648Y018199
X0048698Y018229
Y017834
X0048548Y017734
X0049748Y017759
X0051398Y017804
X0051548Y017439
X0048998Y017494
X0048948Y017319
X0049048Y017064
X0051298Y017079
X0051598Y016749
X0048598Y016769
Y016374
X0048998Y016279
X0051498Y016339
X0051248Y015999
X0049048Y015974
X00425Y01595
X0042898Y016359
X0042598Y017409
Y017819
X0049198Y019199
X0048598Y019269
X0049298Y019679
X0051598Y019649
X0073338Y0194327
Y0179727
X0073368Y0165137
X0081338
X0083298Y0163177
X0083268Y0177767
X0081308Y0179727
Y0194327
X0083268Y0192367
X0083308Y0206897
X0081348Y0208857
X0083238Y022154
X0081278Y02235
X0083288Y0236197
X0071088Y0235887
X0073308Y02235
X0073378Y0208857
X0052227Y020839
X0051198Y020739
X0049098Y020744
X0045998Y020729
X0049098Y020414
X0048948Y020164
X0048998Y019929
X0051298Y019994
X0051448Y020364
X0052598Y021009
X0052548Y021144
X0052448Y021449
X0049098
X0046048Y021444
X0048948Y021819
X0052248Y021839
X0052348Y022199
X0053135Y022299
X0053498Y022459
X0049348Y022174
X0045998Y022199
Y022904
X0045898Y023634
X0054043Y023779
X0045998Y019984
X0037398Y020449
X0036998Y020609
X0038348Y021434
X0036498Y021909
X0036098Y022069
X0036998Y022399
X0036898Y022804
X0035698Y023359
X0035098Y023509
X0037248Y023744
X0018908Y023685
X0016638Y023458
X0008668
X0006708Y023654
X0006658Y0221883
X0008618Y0219923
X0016588
X0018858Y0222193
X0018888Y0207603
X0016618Y0205333
X0008648
X0006688Y0207293
X0008598Y0249223
X0006638Y0251183
X0016568Y0249223
X00187Y02512
X0016608Y0263753
X0018878Y0266023
X0008638Y0263753
X0006678Y0265713
X0033498Y026449
X0033798Y026289
X0036348Y026039
X0035498Y025619
X0036848Y025194
X0034153Y024989
X0034698Y024829
X0036948Y024504
X0036148Y024134
X0036398Y026679
X0034548Y027069
X0036598Y027469
X0032998Y027739
X0045898Y027304
X0045848Y026554
X0045948Y025834
X0046048Y025084
X0045898Y024364
X0054497Y023929
X0054951Y025229
X0055405Y025389
X0055859Y026669
X0056313Y026829
X0071058Y0265077
X0073328Y0267347
Y0252747
X0071058Y0250477
X0073358Y0238157
X0081328
X0083258Y0250787
X0081298Y0252747
X0083258Y0265387
X0081298Y0267347
X0083298Y0279917
X0081338Y0281877
X0083228Y029456
X0081268Y029652
X0083248Y0309127
X0081288Y0311087
X0073318
X0073298Y029652
X0073368Y0281877
X0056767Y028139
X0057221Y028299
X0057767Y029609
X0058221Y029779
X0058721Y0312432
X0057998Y031444
X0056298Y031374
X0053948Y031454
X0051498Y031409
X0048398Y031554
X0046198Y031619
X0043998Y031544
X0044448Y031089
X0046048Y031099
X0044898Y030219
X0044698Y029499
X0045948Y028774
X0045798Y028044
X0053148Y031744
X0059298Y031579
X0036298Y031679
X0036698Y031234
X0032198Y031084
X0031898Y031429
X0030398Y030839
X0030975Y030679
X0034048Y030334
X0036198Y029959
X0033898Y029534
X0031429Y029339
X0031883Y029189
X0034298Y028874
X0036598Y028564
X0034048Y028194
X0032598Y027899
X0018878Y0280622
X0016608Y0278353
X0008638
X0006678Y0280312
X0008608Y0292943
X0006648Y0294902
X0016578Y0292943
X0018848Y0295213
X0016628Y0307592
X0018898Y0309863
X0006698Y0309553
X0008658Y0307592
X0031948Y031964
X0031598Y032304
X0033048Y032499
X0035648Y032539
X0034998Y032714
X0036548Y032934
X0033348Y032994
X0031048Y032844
X0030448Y032554
X0036748Y032224
X0040048Y032324
X0042648Y032424
X0044298Y032274
X0045798Y032464
X0049648Y032234
X0052148Y032174
X0055098Y032279
X0055748Y032044
X0055248Y031814
X0058698Y031874
X0050898Y031879
X0042048Y032089
T02
X0040448Y013489
X0041948Y013724
X0043348Y013819
X0043998Y013884
X0044648Y013834
X0045298Y013904
X0045948Y013844
X0046606Y0138895
X0047248Y013829
X0047148Y013489
X0046598Y0133115
X0045945Y0132488
X0045298Y0133765
X0048523Y013084
X0052486Y0130727
X0053823Y013089
X0054473Y0131538
X0053748Y0132167
X0057098Y013294
X0056648Y013389
X0057848Y013414
X0058556Y0133708
X0059198Y0134185
X005985Y0133721
X0060541Y0134124
X0060473Y013154
X0059823Y013089
X0059173Y0132167
X0061948Y0131465
X0061098Y013639
X0056948Y013604
X0055148Y013644
X005445Y0137337
X0053797Y0136789
X005317Y0137341
X0051867Y0137322
X0052494Y013659
X0051223Y013629
X0050596Y0136893
X0060098Y015799
X0038848Y013909
X0038202Y013849
X0037575Y013904
X00369Y013839
X0036298Y013929
X0035598Y013879
X0034948Y013829
X0034923Y0135915
X0031998Y013489
X0030873Y0133115
X0030223Y0132488
X0029598Y0133765
X0027486Y0135827
X0026198Y013709
X0026148Y013829
X0027623Y0138365
X0028273Y0138865
X0028936Y0138381
X0029573Y0138865
X0030223Y013839
X0030873Y0138865
X0031523Y013829
X0024223Y013619
X0023596Y0135665
X0022923Y0136165
X0022248Y0135665
X0021621Y013624
X0020048Y013584
X0017698Y013629
X0017398Y013819
X0018798Y013769
X0020323Y013874
X0022152Y0138452
X0022273Y0133765
X0022923Y0132465
X0023623Y0133115
X0024648Y013489
X0024298Y013004
X0021648Y012939
X0019148Y012999
X0017748Y013164
X0017648Y013374
X0017848Y012819
X0020398Y012754
X0027098Y012769
X0028548
X0030748Y012764
X0029948Y012954
X0033548Y012894
X0036873Y0130065
X0037573Y0132488
X0038223Y0133115
X0036898Y0133765
X0026957Y0144143
X00273Y01452
X0060098Y017259
Y018729
Y020179
Y021649
Y023099
Y024559
X0054198Y024399
X0052598Y024329
X0049298Y024369
X0049098Y024739
X0048998Y025099
X0053298Y025019
X0053098Y024739
X0053898Y024079
X0053298Y025569
X0052898Y025849
X0054698Y025789
X0053198Y026189
X0052998Y026499
X0054698Y026389
X0053898Y026989
X0052998Y027289
X0055398Y027239
X0054098Y027609
X0048998Y027679
X0049198Y027279
X0048998Y026539
Y026229
X0049098Y025839
X0060098Y026019
Y027479
X0055798Y027919
X0052998Y027949
X0049098Y028009
Y028749
X0048998Y029109
X0048898Y029499
X0049198Y030209
Y030589
X0053798Y030599
X0053698Y031079
X0056898Y030819
X0056798Y030209
X0057098Y029899
X0053998Y029979
X0056298Y029429
X0056498Y029089
X0056298Y028689
X0052998Y028769
X0054698Y028429
X0053698Y029229
X0060098Y028939
Y030399
X0064598Y031859
X0064198Y032014
X0063498Y032209
X0066298Y032289
X0067098Y032149
X0067298Y031949
X0070598Y031909
X0071198Y032309
X0072598Y032369
X00747Y03235
X0077298Y0321614
X0078198Y032159
X0078898
X0078198Y031889
X00452Y03209
X0082798Y032049
X0081198Y031879
T03
X0079488Y014084
X0081478
X0082388Y0149387
X0081528Y015549
X0079538
X0077798Y0155497
X0076138Y0156207
Y0157847
X0071098Y0158017
Y0156967
Y0155887
X0071988Y0149157
X0074788Y0150487
X0076798
X0079028
X0076088Y0145637
Y0144267
Y0143197
Y0141557
X0077748Y0140847
X0071048Y0141237
Y0142317
Y0143367
Y0144467
Y0145737
X0036358Y014128
X003347Y0140318
X0017958Y0148323
X0015158Y0146993
X0013148
X0010918
X0007558Y0148093
X0008468Y015664
X0010458
X0012198Y0156633
X0013858Y0155923
Y0154283
Y0153213
Y0151843
X0018898Y0151743
Y0153013
Y0154113
Y0155163
Y0156243
X0017978Y016289
X0015178Y016156
X0013168
X0010938
X0007578Y016266
X0008488Y0171207
X0010478
X0012218Y01712
X0013878Y017049
Y016885
Y016778
Y016641
X0018918Y016631
Y016758
Y016868
Y016973
Y017081
X0017908Y0177533
X0015108Y0176203
X0013098
X0010868
X0007508Y0177303
X0008418Y018585
X0010408
X0012148Y0185843
X0013808Y0185133
Y0183493
Y0182423
Y0181053
X0018848Y0180953
Y0182223
Y0183323
Y0184373
Y0185453
X0017948Y0192063
X0015148Y0190733
X0013138
X0010908
X0007548Y0191833
X0013848Y0195583
Y0196953
Y0198023
X0018888Y0197853
Y0196753
Y0195483
X0072008Y0192997
X0074808Y0194327
X0076818
X0079048
X0076108Y0189477
Y0188107
Y0187037
Y0185397
X0077768Y0184687
X0076818Y0179727
X0074808
X0072008Y0178397
X0071068Y0174977
Y0173707
Y0172607
Y0171557
Y0170477
X0076108Y0170797
Y0172437
Y0173507
Y0174877
X0077768Y0170087
X0076848Y0165137
X0074838
X0072038Y0163807
X0071098Y0160387
Y0159117
X0076138Y0158917
Y0160287
X0079078Y0165137
X0079048Y0179727
X0071068Y0185077
Y0186157
Y0187207
Y0188307
Y0189577
X0079508Y018468
X0081498
X0082408Y0178627
X0081498Y017008
X0079508
X0082438Y0164037
X0082408Y0193227
X0081538Y019921
X0079548
X0082448Y0207757
X0081468Y0213853
X0079478
X0082378Y02224
X0081518Y022851
X0079528
X0082428Y0237057
X0076128Y0233307
Y0231937
Y0230867
Y0229227
X0077788Y0228517
X0076788Y02235
X0074778
X0071978Y022217
X0071038Y021875
Y021748
Y021638
Y021533
Y021425
X0076078Y021457
Y021621
Y021728
Y021865
X0077738Y021386
X0076858Y0208857
X0074848
X0072048Y0207527
X0071108Y0204107
Y0202837
Y0201737
Y0200687
Y0199607
X0076148Y0199927
Y0201567
Y0202637
Y0204007
X0077808Y0199217
X0079088Y0208857
X0079018Y02235
X0071088Y0228907
Y0229987
Y0231037
Y0232137
Y0233407
X0072028Y0236827
X0017968Y023591
X0015168Y023458
X0013158
X0010928
X0007568Y023568
X0008428Y022957
X0010418
X0012158Y0229563
X0013818Y0228853
Y0227213
Y0226143
Y0224773
X0018858Y0224673
Y0225943
Y0227043
Y0228093
Y0229173
X0017918Y0221253
X0015118Y0219923
X0013108
X0010878
X0007518Y0221023
X0008458Y021498
X0010448
X0012188Y0214973
X0013848Y0214263
Y0212623
Y0211553
Y0210183
X0018888Y0210083
Y0211353
Y0212453
Y0213503
Y0214583
X0017948Y0206663
X0015148Y0205333
X0013138
X0010908
X0007548Y0206433
X0008458Y020038
X0010448
X0012188Y0200373
X0013848Y0199663
X0018888Y0199983
Y0198903
X0018908Y023933
Y02406
Y02417
Y024275
Y024383
X0013868Y024351
Y024187
Y02408
Y023943
X0012208Y024422
X0010468Y0244227
X0008478
X0007498Y0250323
X0010858Y0249223
X0013088
X0015098
X0017898Y0250553
X0018838Y0253973
Y0255243
Y0256342
Y0257393
Y0258473
X0013798Y0258152
Y0256513
Y0255443
Y0254073
X0012138Y0258863
X0010398Y025887
X0008408
X0007538Y0264853
X0010898Y0263753
X0013128
X0015138
X0017938Y0265083
X0018878Y0268503
Y0269773
Y0270872
Y0271923
Y0273003
X0013838Y0272682
Y0271043
Y0269973
Y0268603
X0012178Y0273393
X0010438Y02734
X0008448
X0071098Y0273707
Y0274757
Y0275857
Y0277127
Y0272627
X0076138Y0272947
Y0274587
Y0275657
Y0277027
X0077798Y0272237
X0076808Y0267347
X0074798
X0071998Y0266017
X0071058Y0262597
Y0261327
Y0260227
Y0259177
Y0258097
X0076098Y0258417
Y0260057
Y0261127
Y0262497
X0077758Y0257707
X0076808Y0252747
X0074798
X0071998Y0251417
X0071058Y0247997
Y0246727
Y0245627
Y0244577
Y0243497
X0076098Y0243817
Y0245457
Y0246527
Y0247897
X0077758Y0243107
X0076838Y0238157
X0074828
X0079068
X0079038Y0252747
Y0267347
X0082398Y0266247
X0081528Y027223
X0079538
X0079498Y02577
X0081488
X0082398Y0251647
X0081488Y02431
X0079498
X0082438Y0280777
X0081458Y0286872
X0079468
X0082368Y029542
X0081478Y030144
X0079488
X0082388Y0309987
X0079028Y0311087
X0076798
X0074788
X0071988Y0309757
X0071048Y0306337
Y0305067
Y0303967
Y0302917
Y0301837
X0076088Y0302157
Y0303797
Y0304867
Y0306237
X0077748Y0301447
X0076778Y029652
X0074768
X0071968Y029519
X0071028Y029177
Y02905
Y02894
Y028835
Y028727
X0076068Y028759
Y028923
Y02903
Y029167
X0077728Y028688
X0076848Y0281877
X0074838
X0072038Y0280547
X0079078Y0281877
X0079008Y029652
X0018848Y0297693
Y0298963
Y0300062
Y0301113
Y0302193
X0013808Y0301872
Y0300233
Y0299163
Y0297793
X0013098Y0292943
X0015108
X0017908Y0294273
X0018878Y0287603
Y0286523
Y0285473
Y0284372
Y0283103
X0017938Y0279682
X0015138Y0278353
X0013128
X0010898
X0007538Y0279453
X0008448Y0288
X0010438
X0012178Y0287993
X0013838Y0287283
Y0285643
Y0284573
Y0283203
X0010868Y0292943
X0007508Y0294043
X0008418Y030259
X0010408
X0012148Y0302583
X0013148Y0307592
X0015158
X0017958Y0308923
X0018898Y0312342
Y0313613
Y0314713
Y0315763
Y0316842
X0013858Y0316523
Y0314883
Y0313812
Y0312443
X0012198Y0317233
X0010458Y031724
X0008468
X0007558Y0308693
X0010918Y0307592
X0062898Y032519
X0066798Y032799
X0073698Y032809
X0071598Y032579
X0076498Y032589
X0082998Y032559
X0082598Y032829
T04
X0041148Y012886
X0043688
X0046228
X0048768
X0048808Y032714
X0046268
X0043728
X0041188
T05
X0059728Y0321614
Y0326614
X0079928
Y0321614
T06
X0083228Y01409
Y014598
Y0155497
X0076068Y0154287
X0071028
X0066028
Y014719
X0071028
X0076068
Y013969
X0071028
X0066028
X0050728
Y014344
Y014719
Y0154287
Y0158037
X0039298Y015785
Y01541
Y015035
X0023998
X0018998
X0013958
Y015785
X0018998
X0023998
X0006778Y015664
Y015156
Y0166163
Y0171243
X0013958Y0172453
X0018998
X0023998
Y0179557
X0018998
X0013958
Y0187057
X0018998
X0023998
Y0194161
X0018998
X0013958
X0006778Y0195371
Y0185847
Y0180767
X0013958Y0164953
X0018998
X0023998
X0039298
Y0168703
Y0172453
Y0179557
Y0183307
Y0187057
Y0194161
Y0197911
X0050728Y0198079
Y0190982
Y0187232
Y0183482
Y0176384
Y0172634
Y0168884
Y0161787
X0066028
X0071028
X0076068
Y0168884
X0071028
X0066028
Y0176384
X0071028
X0076068
Y0183482
X0071028
X0066028
Y0190982
X0071028
X0076068
Y0198079
X0071028
X0066028
X0083228Y0189772
Y0184692
Y0175174
Y0170094
Y0160577
Y0199289
Y0204369
Y0213886
Y0218966
Y0228483
Y0233563
X0076068Y0234773
X0071028
X0066028
Y0227273
X0071028
X0076068
Y0220176
X0071028
X0066028
Y0212676
X0071028
X0076068
Y0205579
X0071028
X0066028
X0050728
Y0201829
Y0212676
Y0216426
Y0220176
Y0227273
Y0231023
Y0234773
X0039298Y0237972
Y0230868
Y0227118
Y0223368
Y0216264
Y0212514
Y0208764
Y0201661
X0023998
X0018998
X0013958
Y0208764
X0018998
X0023998
Y0216264
X0018998
X0013958
Y0223368
X0018998
X0023998
Y0230868
X0018998
X0013958
Y0237972
X0018998
X0023998
X0006778Y0229658
Y0224578
Y0215054
Y0209974
Y0200451
Y0239182
Y0244262
X0013958Y0245472
X0018998
X0023998
Y0252575
X0018998
X0013958
Y0260075
X0018998
X0023998
Y0267179
X0018998
X0013958
Y0274679
X0018998
X0023998
X0039298
Y0270929
Y0267179
Y0260075
Y0256325
Y0252575
Y0245472
Y0241722
X0006778Y0253785
Y0258865
Y0268389
Y0273469
X0050728Y0274815
Y0271065
Y0263968
Y0260218
Y0256468
Y0249371
Y0245621
Y0241871
X0066028
X0071028
X0076068
Y0249371
X0071028
X0066028
Y0256468
X0071028
X0076068
Y0263968
X0071028
X0066028
Y0271065
X0071028
X0076068
X0083228Y0272275
Y0277355
Y0262758
Y0257678
Y0248161
Y0243081
Y0286872
Y0291953
Y030147
Y030655
X0076068Y030776
X0071028
X0066028
Y030026
X0071028
X0076068
Y0293163
X0071028
X0066028
Y0285663
X0071028
X0076068
Y0278565
X0071028
X0066028
X0050728
Y0285663
Y0289413
Y0293163
Y030026
Y030401
Y030776
X0039298Y031099
Y031474
Y0303886
Y0300136
Y0296386
Y0289283
Y0285533
Y0281783
X0023998
X0018998
X0013958
Y0289283
X0018998
X0023998
Y0296386
X0018998
X0013958
Y0303886
X0018998
X0023998
Y031099
X0018998
X0013958
X0006778Y03122
Y031728
Y0302676
Y0297596
Y0288073
Y0282993
X0013958Y031849
X0018998
X0023998
X0039298
T07
X0069998Y013364
X0022998Y014414
X0069998Y031414
X0019998Y032464
M30
