G04*
G04 #@! TF.GenerationSoftware,Altium Limited,Altium Designer,26.5.1 (12)*
G04*
G04 Layer_Physical_Order=2*
G04 Layer_Color=16711680*
G04 Board_Origin=0|0*
%FSLAX44Y44*%
%MOMM*%
G71*
G04*
G04 #@! TF.SameCoordinates,F9DE173E-AD32-4170-81DE-BFE943D2D91D*
G04*
G04*
G04 #@! TF.FilePolarity,Positive*
G04*
G01*
G75*
%ADD10C,0.2540*%
G04:AMPARAMS|DCode=11|XSize=0.8mm|YSize=0.95mm|CornerRadius=0.1mm|HoleSize=0mm|Usage=FLASHONLY|Rotation=90.000|XOffset=0mm|YOffset=0mm|HoleType=Round|Shape=RoundedRectangle|*
%AMROUNDEDRECTD11*
21,1,0.8000,0.7500,0,0,90.0*
21,1,0.6000,0.9500,0,0,90.0*
1,1,0.2000,0.3750,0.3000*
1,1,0.2000,0.3750,-0.3000*
1,1,0.2000,-0.3750,-0.3000*
1,1,0.2000,-0.3750,0.3000*
%
%ADD11ROUNDEDRECTD11*%
G04:AMPARAMS|DCode=13|XSize=2.4mm|YSize=2.4mm|CornerRadius=0.12mm|HoleSize=0mm|Usage=FLASHONLY|Rotation=270.000|XOffset=0mm|YOffset=0mm|HoleType=Round|Shape=RoundedRectangle|*
%AMROUNDEDRECTD13*
21,1,2.4000,2.1600,0,0,270.0*
21,1,2.1600,2.4000,0,0,270.0*
1,1,0.2400,-1.0800,-1.0800*
1,1,0.2400,-1.0800,1.0800*
1,1,0.2400,1.0800,1.0800*
1,1,0.2400,1.0800,-1.0800*
%
%ADD13ROUNDEDRECTD13*%
%ADD14C,2.4000*%
%ADD15C,2.0000*%
%ADD16R,1.7000X1.7000*%
G04:AMPARAMS|DCode=17|XSize=2.4mm|YSize=2.4mm|CornerRadius=0.12mm|HoleSize=0mm|Usage=FLASHONLY|Rotation=180.000|XOffset=0mm|YOffset=0mm|HoleType=Round|Shape=RoundedRectangle|*
%AMROUNDEDRECTD17*
21,1,2.4000,2.1600,0,0,180.0*
21,1,2.1600,2.4000,0,0,180.0*
1,1,0.2400,-1.0800,1.0800*
1,1,0.2400,1.0800,1.0800*
1,1,0.2400,1.0800,-1.0800*
1,1,0.2400,-1.0800,-1.0800*
%
%ADD17ROUNDEDRECTD17*%
%ADD18C,3.0000*%
G04:AMPARAMS|DCode=19|XSize=2.1mm|YSize=3.6mm|CornerRadius=0.126mm|HoleSize=0mm|Usage=FLASHONLY|Rotation=90.000|XOffset=0mm|YOffset=0mm|HoleType=Round|Shape=RoundedRectangle|*
%AMROUNDEDRECTD19*
21,1,2.1000,3.3480,0,0,90.0*
21,1,1.8480,3.6000,0,0,90.0*
1,1,0.2520,1.6740,0.9240*
1,1,0.2520,1.6740,-0.9240*
1,1,0.2520,-1.6740,-0.9240*
1,1,0.2520,-1.6740,0.9240*
%
%ADD19ROUNDEDRECTD19*%
G04:AMPARAMS|DCode=20|XSize=2.1mm|YSize=3.6mm|CornerRadius=1.05mm|HoleSize=0mm|Usage=FLASHONLY|Rotation=90.000|XOffset=0mm|YOffset=0mm|HoleType=Round|Shape=RoundedRectangle|*
%AMROUNDEDRECTD20*
21,1,2.1000,1.5000,0,0,90.0*
21,1,0.0000,3.6000,0,0,90.0*
1,1,2.1000,0.7500,0.0000*
1,1,2.1000,0.7500,0.0000*
1,1,2.1000,-0.7500,0.0000*
1,1,2.1000,-0.7500,0.0000*
%
%ADD20ROUNDEDRECTD20*%
%ADD21C,1.7000*%
%ADD22C,0.3000*%
%ADD23C,0.8000*%
%ADD24C,1.0000*%
%ADD25C,2.5000*%
%ADD26C,3.0000*%
%ADD28C,0.6000*%
%ADD29C,0.5000*%
%ADD30C,0.6000*%
%ADD31C,0.7000*%
G04:AMPARAMS|DCode=32|XSize=1.475mm|YSize=0.6mm|CornerRadius=0.075mm|HoleSize=0mm|Usage=FLASHONLY|Rotation=180.000|XOffset=0mm|YOffset=0mm|HoleType=Round|Shape=RoundedRectangle|*
%AMROUNDEDRECTD32*
21,1,1.4750,0.4500,0,0,180.0*
21,1,1.3250,0.6000,0,0,180.0*
1,1,0.1500,-0.6625,0.2250*
1,1,0.1500,0.6625,0.2250*
1,1,0.1500,0.6625,-0.2250*
1,1,0.1500,-0.6625,-0.2250*
%
%ADD32ROUNDEDRECTD32*%
G04:AMPARAMS|DCode=33|XSize=1.3mm|YSize=1.7mm|CornerRadius=0.1235mm|HoleSize=0mm|Usage=FLASHONLY|Rotation=180.000|XOffset=0mm|YOffset=0mm|HoleType=Round|Shape=RoundedRectangle|*
%AMROUNDEDRECTD33*
21,1,1.3000,1.4530,0,0,180.0*
21,1,1.0530,1.7000,0,0,180.0*
1,1,0.2470,-0.5265,0.7265*
1,1,0.2470,0.5265,0.7265*
1,1,0.2470,0.5265,-0.7265*
1,1,0.2470,-0.5265,-0.7265*
%
%ADD33ROUNDEDRECTD33*%
G04:AMPARAMS|DCode=34|XSize=0.8mm|YSize=0.95mm|CornerRadius=0.1mm|HoleSize=0mm|Usage=FLASHONLY|Rotation=180.000|XOffset=0mm|YOffset=0mm|HoleType=Round|Shape=RoundedRectangle|*
%AMROUNDEDRECTD34*
21,1,0.8000,0.7500,0,0,180.0*
21,1,0.6000,0.9500,0,0,180.0*
1,1,0.2000,-0.3000,0.3750*
1,1,0.2000,0.3000,0.3750*
1,1,0.2000,0.3000,-0.3750*
1,1,0.2000,-0.3000,-0.3750*
%
%ADD34ROUNDEDRECTD34*%
G04:AMPARAMS|DCode=35|XSize=0.9mm|YSize=0.95mm|CornerRadius=0.1125mm|HoleSize=0mm|Usage=FLASHONLY|Rotation=270.000|XOffset=0mm|YOffset=0mm|HoleType=Round|Shape=RoundedRectangle|*
%AMROUNDEDRECTD35*
21,1,0.9000,0.7250,0,0,270.0*
21,1,0.6750,0.9500,0,0,270.0*
1,1,0.2250,-0.3625,-0.3375*
1,1,0.2250,-0.3625,0.3375*
1,1,0.2250,0.3625,0.3375*
1,1,0.2250,0.3625,-0.3375*
%
%ADD35ROUNDEDRECTD35*%
G04:AMPARAMS|DCode=36|XSize=1.475mm|YSize=0.4mm|CornerRadius=0.05mm|HoleSize=0mm|Usage=FLASHONLY|Rotation=270.000|XOffset=0mm|YOffset=0mm|HoleType=Round|Shape=RoundedRectangle|*
%AMROUNDEDRECTD36*
21,1,1.4750,0.3000,0,0,270.0*
21,1,1.3750,0.4000,0,0,270.0*
1,1,0.1000,-0.1500,-0.6875*
1,1,0.1000,-0.1500,0.6875*
1,1,0.1000,0.1500,0.6875*
1,1,0.1000,0.1500,-0.6875*
%
%ADD36ROUNDEDRECTD36*%
%ADD37C,0.5000*%
G36*
X427393Y1510837D02*
X426807Y1498424D01*
X426140Y1498440D01*
Y1498440D01*
X416370D01*
Y1487400D01*
Y1476360D01*
X423953D01*
X425678Y1474551D01*
X423659Y1431822D01*
X419072Y1428055D01*
X399614Y1430964D01*
X396252Y1434312D01*
X393195Y1454181D01*
X389447Y1457567D01*
X345489Y1459825D01*
X343613Y1462200D01*
Y1471730D01*
X329000D01*
Y1473000D01*
X327730D01*
Y1487613D01*
X318200D01*
X316741Y1487323D01*
X316505Y1487165D01*
X314023Y1488439D01*
X314383Y1512731D01*
X314540Y1513066D01*
X426437D01*
X427393Y1510837D01*
D02*
G37*
G36*
X601357Y1511268D02*
X601264Y1475850D01*
X598916Y1474881D01*
X583873Y1489923D01*
X582716Y1490697D01*
X581350Y1490969D01*
X557759D01*
Y1491150D01*
X557526Y1492321D01*
X556863Y1493313D01*
X555871Y1493976D01*
X554700Y1494209D01*
X548700D01*
X547529Y1493976D01*
X546537Y1493313D01*
X545874Y1492321D01*
X545641Y1491150D01*
Y1483650D01*
X545874Y1482480D01*
X546537Y1481487D01*
X547529Y1480824D01*
X548700Y1480591D01*
X554700D01*
X555871Y1480824D01*
X556863Y1481487D01*
X557526Y1482480D01*
X557759Y1483650D01*
Y1483831D01*
X579872D01*
X590953Y1472750D01*
X589901Y1470210D01*
X474100D01*
X472273Y1469970D01*
X470570Y1469264D01*
X469108Y1468142D01*
X449925Y1448960D01*
X428350D01*
X426597Y1450798D01*
X427715Y1474455D01*
X427712Y1474479D01*
X427717Y1474503D01*
X427653Y1474872D01*
X427597Y1475242D01*
X427584Y1475262D01*
X427580Y1475287D01*
X427380Y1475602D01*
X427187Y1475923D01*
X427167Y1475938D01*
X427154Y1475959D01*
X425600Y1477588D01*
Y1494063D01*
X426759Y1496386D01*
X427128Y1496450D01*
X427497Y1496506D01*
X427518Y1496518D01*
X427542Y1496522D01*
X427859Y1496723D01*
X428179Y1496916D01*
X428194Y1496935D01*
X428214Y1496949D01*
X428430Y1497255D01*
X428652Y1497556D01*
X428658Y1497580D01*
X428672Y1497600D01*
X428753Y1497965D01*
X428844Y1498328D01*
X429430Y1510741D01*
X429481Y1510934D01*
X430407Y1512303D01*
X430830Y1512752D01*
X431218Y1513066D01*
X599564D01*
X601357Y1511268D01*
D02*
G37*
G36*
X643061Y1459073D02*
X646725Y1454715D01*
X643468Y1419711D01*
X639137Y1416096D01*
X598700Y1419632D01*
X597979Y1420787D01*
X599353Y1423287D01*
X602920D01*
Y1437900D01*
Y1452513D01*
X598139D01*
X596437Y1454344D01*
X596763Y1458785D01*
X601067Y1462433D01*
X643061Y1459073D01*
D02*
G37*
G36*
X309921Y1513064D02*
X312311Y1510526D01*
X311984Y1488469D01*
X312044Y1488143D01*
X312082Y1487814D01*
X312116Y1487754D01*
X312128Y1487686D01*
X312308Y1487408D01*
X312469Y1487118D01*
X312523Y1487076D01*
X312560Y1487018D01*
X312833Y1486830D01*
X313093Y1486624D01*
X315035Y1485627D01*
X315186Y1485049D01*
X314937Y1483800D01*
Y1462200D01*
X315186Y1460951D01*
X315893Y1459893D01*
X316951Y1459186D01*
X318200Y1458937D01*
X339800D01*
X341049Y1459186D01*
X341971Y1459802D01*
X343957Y1458473D01*
X343975Y1458459D01*
X344242Y1458260D01*
X344494Y1458045D01*
X344559Y1458024D01*
X344613Y1457984D01*
X344935Y1457902D01*
X345251Y1457800D01*
X345319Y1457805D01*
X345384Y1457789D01*
X368850Y1456583D01*
X370122Y1454090D01*
X369208Y1452460D01*
X359350D01*
X357523Y1452220D01*
X355820Y1451514D01*
X355747Y1451459D01*
X355600D01*
X354430Y1451226D01*
X353437Y1450563D01*
X352774Y1449570D01*
X352541Y1448400D01*
Y1447254D01*
X352530Y1447227D01*
X352290Y1445400D01*
X352530Y1443573D01*
X352541Y1443546D01*
Y1442400D01*
X352774Y1441230D01*
X353437Y1440237D01*
X354430Y1439574D01*
X355600Y1439341D01*
X355747D01*
X355820Y1439285D01*
X357523Y1438580D01*
X359350Y1438340D01*
X370637D01*
Y1437885D01*
X370888Y1436623D01*
X371603Y1435553D01*
X372140Y1435194D01*
Y1426218D01*
X371874Y1425820D01*
X371641Y1424650D01*
Y1423504D01*
X371630Y1423477D01*
X371390Y1421650D01*
X371630Y1419823D01*
X371641Y1419796D01*
Y1418650D01*
X371874Y1417480D01*
X372537Y1416487D01*
X373530Y1415824D01*
X374700Y1415591D01*
X374847D01*
X374920Y1415535D01*
X376623Y1414830D01*
X378450Y1414590D01*
X380277Y1414830D01*
X381980Y1415536D01*
X382053Y1415591D01*
X382200D01*
X383371Y1415824D01*
X384363Y1416487D01*
X385026Y1417480D01*
X385259Y1418650D01*
Y1418797D01*
X385314Y1418870D01*
X386020Y1420573D01*
X386260Y1422400D01*
Y1435194D01*
X386797Y1435553D01*
X387512Y1436623D01*
X387763Y1437885D01*
Y1451904D01*
X388951Y1452911D01*
X390155Y1453413D01*
X391364Y1452672D01*
X394236Y1434002D01*
X394321Y1433770D01*
X394370Y1433528D01*
X394456Y1433399D01*
X394509Y1433254D01*
X394675Y1433072D01*
X394813Y1432867D01*
X398175Y1429519D01*
X398381Y1429382D01*
X398563Y1429216D01*
X398709Y1429164D01*
X398838Y1429079D01*
X399080Y1429031D01*
X399312Y1428947D01*
X418770Y1426038D01*
X418823Y1426040D01*
X418873Y1426025D01*
X419218Y1426059D01*
X419565Y1426076D01*
X419612Y1426098D01*
X419664Y1426104D01*
X419971Y1426267D01*
X420285Y1426415D01*
X420320Y1426454D01*
X420366Y1426479D01*
X424953Y1430246D01*
X424986Y1430286D01*
X425031Y1430313D01*
X425238Y1430593D01*
X425458Y1430861D01*
X425473Y1430911D01*
X425504Y1430953D01*
X425588Y1431290D01*
X425689Y1431623D01*
X425683Y1431675D01*
X425696Y1431726D01*
X425843Y1434840D01*
X452850D01*
X454677Y1435080D01*
X456380Y1435786D01*
X457842Y1436908D01*
X477024Y1456090D01*
X590101D01*
X591928Y1454262D01*
X591980Y1453638D01*
X591387Y1451211D01*
X591082Y1451007D01*
X590375Y1449949D01*
X590127Y1448700D01*
Y1427100D01*
X590375Y1425851D01*
X591082Y1424793D01*
X592141Y1424086D01*
X593390Y1423837D01*
X594865D01*
X595674Y1422316D01*
X596015Y1421297D01*
X595992Y1421246D01*
X595988Y1421125D01*
X595952Y1421011D01*
X595976Y1420731D01*
X595967Y1420451D01*
X596010Y1420338D01*
X596021Y1420218D01*
X596150Y1419969D01*
X596249Y1419707D01*
X596970Y1418552D01*
X597069Y1418447D01*
X597138Y1418321D01*
X597339Y1418160D01*
X597515Y1417972D01*
X597646Y1417913D01*
X597758Y1417823D01*
X598006Y1417751D01*
X598241Y1417645D01*
X598384Y1417641D01*
X598522Y1417600D01*
X598665Y1417588D01*
X598687Y1417534D01*
X600234Y1415987D01*
X601104Y1415627D01*
X597511Y57944D01*
X596485Y56934D01*
X372898D01*
X304578Y57857D01*
X300632Y61878D01*
X303933Y1315852D01*
X304006Y1315900D01*
X305995D01*
X306968Y1316303D01*
X307431Y1316056D01*
X308122Y1315022D01*
X309156Y1314331D01*
X310375Y1314089D01*
X310431D01*
Y1311400D01*
X310703Y1310034D01*
X311477Y1308877D01*
X317477Y1302877D01*
X318634Y1302103D01*
X320000Y1301831D01*
X332701D01*
Y1298525D01*
X332895Y1297550D01*
X333448Y1296723D01*
X334275Y1296170D01*
X334432Y1296139D01*
X335523Y1293638D01*
X333683Y1291797D01*
X332960Y1290716D01*
X332706Y1289440D01*
Y1287751D01*
X332225Y1287270D01*
X331540Y1285616D01*
Y1283826D01*
X332200Y1282232D01*
X330951Y1281715D01*
X329685Y1280449D01*
X329000Y1278795D01*
Y1277005D01*
X329685Y1275351D01*
X330951Y1274085D01*
X332605Y1273400D01*
X333312D01*
X333830Y1272625D01*
Y1270835D01*
X334515Y1269181D01*
X335781Y1267915D01*
X337435Y1267230D01*
X339225D01*
X340879Y1267915D01*
X340950Y1267986D01*
X355420D01*
X356696Y1268240D01*
X357777Y1268962D01*
X367127Y1278313D01*
X367850Y1279394D01*
X368104Y1280670D01*
X369520Y1281586D01*
X382883D01*
X384246Y1279582D01*
X384370Y1279046D01*
X384191Y1278150D01*
Y1270650D01*
X384424Y1269480D01*
X385087Y1268487D01*
X386079Y1267824D01*
X386371Y1266956D01*
X386079Y1264476D01*
X385087Y1263813D01*
X384424Y1262821D01*
X384191Y1261650D01*
Y1254150D01*
X384424Y1252980D01*
X385087Y1251987D01*
X386079Y1251324D01*
X387250Y1251091D01*
X387550D01*
Y1250505D01*
X388235Y1248851D01*
X389501Y1247585D01*
X390683Y1247095D01*
X391322Y1245988D01*
X391430Y1245693D01*
X391733Y1244360D01*
X390418Y1242082D01*
X389600Y1239030D01*
Y1235870D01*
X390385Y1232940D01*
X390408Y1232801D01*
X389174Y1230509D01*
X388926Y1230322D01*
X387461Y1229715D01*
X386195Y1228449D01*
X385510Y1226795D01*
Y1225005D01*
X385751Y1224423D01*
X385587Y1224313D01*
X384924Y1223320D01*
X384691Y1222150D01*
Y1214650D01*
X384924Y1213480D01*
X385587Y1212487D01*
X386580Y1211824D01*
X387750Y1211591D01*
X392838D01*
X393148Y1211137D01*
X393731Y1209051D01*
X391998Y1207318D01*
X390687Y1205048D01*
X332565D01*
X331594Y1205450D01*
X329406D01*
X327384Y1204613D01*
X325837Y1203065D01*
X325000Y1201044D01*
Y1198856D01*
X325837Y1196834D01*
X327384Y1195287D01*
X329406Y1194450D01*
X331594D01*
X332565Y1194852D01*
X390687D01*
X391998Y1192582D01*
X394232Y1190348D01*
X396968Y1188768D01*
X400020Y1187950D01*
X403180D01*
X406232Y1188768D01*
X408968Y1190348D01*
X411202Y1192582D01*
X412782Y1195318D01*
X413600Y1198370D01*
Y1201530D01*
X412782Y1204582D01*
X411202Y1207318D01*
X409971Y1208550D01*
X410579Y1211132D01*
X410978Y1211289D01*
X412713Y1211472D01*
X424066Y1200119D01*
X423014Y1197579D01*
X419000D01*
X417927Y1197365D01*
X417017Y1196758D01*
X416410Y1195848D01*
X416196Y1194775D01*
Y1190275D01*
X416410Y1189202D01*
X417017Y1188292D01*
X417328Y1185577D01*
X417253Y1185313D01*
X405712Y1173772D01*
X403180Y1174450D01*
X400020D01*
X396968Y1173632D01*
X394232Y1172052D01*
X391998Y1169818D01*
X390418Y1167082D01*
X389600Y1164030D01*
Y1160870D01*
X390418Y1157818D01*
X391998Y1155082D01*
X394232Y1152848D01*
X396968Y1151268D01*
X400020Y1150450D01*
X403180D01*
X406232Y1151268D01*
X408968Y1152848D01*
X411202Y1155082D01*
X412782Y1157818D01*
X413600Y1160870D01*
Y1164030D01*
X412922Y1166562D01*
X429230Y1182870D01*
X430335Y1184524D01*
X430723Y1186475D01*
Y1187471D01*
X432250D01*
X433323Y1187685D01*
X434233Y1188292D01*
X434841Y1189202D01*
X435054Y1190275D01*
Y1194775D01*
X434953Y1195282D01*
X436203Y1196661D01*
X436979Y1197124D01*
X437750Y1196971D01*
X451000D01*
X452073Y1197185D01*
X452983Y1197792D01*
X453332Y1198316D01*
X457689D01*
Y1197775D01*
X457931Y1196556D01*
X458622Y1195522D01*
X459656Y1194831D01*
X460875Y1194589D01*
X468125D01*
X469344Y1194831D01*
X470378Y1195522D01*
X471069Y1196556D01*
X471311Y1197775D01*
Y1198316D01*
X474558D01*
X474724Y1197479D01*
X475387Y1196487D01*
X476380Y1195824D01*
X477550Y1195591D01*
X485050D01*
X486221Y1195824D01*
X487213Y1196487D01*
X487876Y1197479D01*
X488109Y1198650D01*
Y1204650D01*
X487876Y1205820D01*
X487213Y1206813D01*
X486221Y1207476D01*
X485050Y1207709D01*
X477550D01*
X476380Y1207476D01*
X475387Y1206813D01*
X474724Y1205820D01*
X474558Y1204984D01*
X471220D01*
X471069Y1205744D01*
X470378Y1206778D01*
X469344Y1207469D01*
X468125Y1207711D01*
X460875D01*
X459656Y1207469D01*
X458622Y1206778D01*
X457931Y1205744D01*
X457780Y1204984D01*
X453663D01*
X453590Y1205348D01*
X452983Y1206258D01*
X452073Y1206865D01*
X451000Y1207079D01*
X437750D01*
X436677Y1206865D01*
X435767Y1206258D01*
X435160Y1205348D01*
X435087Y1204984D01*
X428631D01*
X413309Y1220306D01*
Y1222150D01*
X413076Y1223320D01*
X412413Y1224313D01*
X411421Y1224976D01*
X410250Y1225209D01*
X409478D01*
X408797Y1227749D01*
X408968Y1227848D01*
X411202Y1230082D01*
X411690Y1230927D01*
X416396D01*
Y1227275D01*
X416610Y1226202D01*
X417217Y1225292D01*
X418127Y1224685D01*
X419200Y1224471D01*
X425603D01*
X425825Y1224427D01*
X426047Y1224471D01*
X432450D01*
X433523Y1224685D01*
X434433Y1225292D01*
X435041Y1226202D01*
X435254Y1227275D01*
Y1231775D01*
X435153Y1232282D01*
X436403Y1233661D01*
X437179Y1234125D01*
X437950Y1233971D01*
X451200D01*
X452273Y1234185D01*
X453183Y1234792D01*
X453532Y1235316D01*
X457889D01*
Y1234775D01*
X458131Y1233556D01*
X458822Y1232522D01*
X459856Y1231831D01*
X461075Y1231589D01*
X468325D01*
X469544Y1231831D01*
X470578Y1232522D01*
X471269Y1233556D01*
X471511Y1234775D01*
Y1235316D01*
X474758D01*
X474924Y1234479D01*
X475587Y1233487D01*
X476580Y1232824D01*
X477750Y1232591D01*
X485250D01*
X486421Y1232824D01*
X487413Y1233487D01*
X488076Y1234479D01*
X488309Y1235650D01*
Y1241650D01*
X488076Y1242821D01*
X487413Y1243813D01*
X486421Y1244476D01*
X485250Y1244709D01*
X477750D01*
X476580Y1244476D01*
X475587Y1243813D01*
X474924Y1242821D01*
X474758Y1241984D01*
X471420D01*
X471269Y1242744D01*
X470578Y1243778D01*
X469544Y1244469D01*
X468325Y1244711D01*
X461075D01*
X459856Y1244469D01*
X458822Y1243778D01*
X458131Y1242744D01*
X457980Y1241984D01*
X453863D01*
X453790Y1242348D01*
X453183Y1243258D01*
X452273Y1243865D01*
X451200Y1244079D01*
X437950D01*
X436877Y1243865D01*
X435967Y1243258D01*
X435360Y1242348D01*
X435287Y1241984D01*
X429881D01*
X422622Y1249243D01*
X424080Y1251324D01*
X425250Y1251091D01*
X432750D01*
X433921Y1251324D01*
X434913Y1251987D01*
X435576Y1252980D01*
X435696Y1253581D01*
X440027D01*
X440131Y1253056D01*
X440822Y1252022D01*
X441856Y1251331D01*
X443075Y1251089D01*
X450325D01*
X451544Y1251331D01*
X452578Y1252022D01*
X453235Y1253005D01*
X453475Y1253047D01*
X455836Y1252945D01*
X455910Y1252577D01*
X456517Y1251667D01*
X457427Y1251060D01*
X458500Y1250846D01*
X471750D01*
X472823Y1251060D01*
X473733Y1251667D01*
X474341Y1252577D01*
X474554Y1253650D01*
Y1258150D01*
X474453Y1258657D01*
X475703Y1260036D01*
X476479Y1260499D01*
X477250Y1260346D01*
X483653D01*
X483875Y1260302D01*
X491888D01*
X498590Y1253600D01*
Y1248313D01*
X496320Y1247002D01*
X494086Y1244768D01*
X492506Y1242032D01*
X491688Y1238980D01*
Y1235820D01*
X492506Y1232768D01*
X494086Y1230032D01*
X496320Y1227798D01*
X499056Y1226218D01*
X502108Y1225400D01*
X505268D01*
X508320Y1226218D01*
X511056Y1227798D01*
X513290Y1230032D01*
X514870Y1232768D01*
X515688Y1235820D01*
Y1238980D01*
X514870Y1242032D01*
X513290Y1244768D01*
X511056Y1247002D01*
X508786Y1248313D01*
Y1255712D01*
X508398Y1257663D01*
X507293Y1259317D01*
X497605Y1269005D01*
X495951Y1270110D01*
X494000Y1270498D01*
X483875D01*
X483653Y1270454D01*
X477250D01*
X476177Y1270240D01*
X475267Y1269633D01*
X474660Y1268723D01*
X474446Y1267650D01*
Y1263150D01*
X474547Y1262643D01*
X473297Y1261264D01*
X472521Y1260800D01*
X471750Y1260954D01*
X458500D01*
X457427Y1260740D01*
X457394Y1260719D01*
X453511D01*
Y1261025D01*
X453269Y1262244D01*
X452578Y1263278D01*
X451544Y1263969D01*
X450325Y1264211D01*
X443075D01*
X441856Y1263969D01*
X440822Y1263278D01*
X440131Y1262244D01*
X439889Y1261025D01*
Y1260719D01*
X435696D01*
X435576Y1261320D01*
X434913Y1262313D01*
X433921Y1262976D01*
X432750Y1263209D01*
X425250D01*
X424823Y1263124D01*
X412809Y1275138D01*
Y1278150D01*
X412631Y1279046D01*
X412754Y1279582D01*
X414117Y1281586D01*
X493099D01*
X503143Y1271543D01*
X504224Y1270820D01*
X505500Y1270566D01*
X524500D01*
X525776Y1270820D01*
X526857Y1271543D01*
X528715Y1273400D01*
X529395D01*
X531049Y1274085D01*
X532315Y1275351D01*
X533000Y1277005D01*
Y1278795D01*
X534809Y1281066D01*
X548119D01*
X552000Y1277185D01*
Y1276505D01*
X552685Y1274851D01*
X553951Y1273585D01*
X555605Y1272900D01*
X557395D01*
X559049Y1273585D01*
X560315Y1274851D01*
X561000Y1276505D01*
Y1278295D01*
X560315Y1279949D01*
X559049Y1281215D01*
X557395Y1281900D01*
X556715D01*
X551857Y1286758D01*
X550776Y1287480D01*
X549500Y1287734D01*
X539185D01*
X538879Y1287998D01*
X537697Y1290274D01*
X538000Y1291005D01*
Y1292795D01*
X537711Y1293493D01*
X537818Y1293987D01*
X538982Y1295783D01*
X539222Y1295976D01*
X541250D01*
X542225Y1296170D01*
X543000Y1296688D01*
X543775Y1296170D01*
X544750Y1295976D01*
X547750D01*
X548725Y1296170D01*
X549500Y1296688D01*
X550275Y1296170D01*
X551250Y1295976D01*
X554250D01*
X555225Y1296170D01*
X556000Y1296688D01*
X556775Y1296170D01*
X557750Y1295976D01*
X560750D01*
X561725Y1296170D01*
X562552Y1296723D01*
X563105Y1297550D01*
X563299Y1298525D01*
Y1302566D01*
X569470D01*
X569951Y1302085D01*
X571605Y1301400D01*
X573395D01*
X575049Y1302085D01*
X576315Y1303351D01*
X577000Y1305005D01*
Y1306795D01*
X576315Y1308449D01*
X575049Y1309715D01*
X573395Y1310400D01*
X571605D01*
X569951Y1309715D01*
X569470Y1309234D01*
X563299D01*
Y1312275D01*
X563105Y1313250D01*
X563868Y1315756D01*
X564076Y1316021D01*
X565185Y1316376D01*
X566335Y1315900D01*
X568125D01*
X569779Y1316585D01*
X571045Y1317851D01*
X571730Y1319505D01*
Y1319853D01*
X573466Y1321589D01*
X576125D01*
X577344Y1321831D01*
X578378Y1322522D01*
X579069Y1323556D01*
X579311Y1324775D01*
Y1331525D01*
X579069Y1332744D01*
X578378Y1333778D01*
X577344Y1334469D01*
X576125Y1334711D01*
X568875D01*
X567656Y1334469D01*
X566622Y1333778D01*
X565931Y1332744D01*
X565689Y1331525D01*
Y1324775D01*
X563344Y1323969D01*
X555500D01*
X554134Y1323697D01*
X552977Y1322923D01*
X551930Y1321877D01*
X551116Y1321892D01*
X548952Y1322491D01*
X548607Y1323008D01*
X546128Y1325488D01*
X545046Y1326210D01*
X544000Y1328005D01*
Y1329795D01*
X543315Y1331449D01*
X542049Y1332715D01*
X540395Y1333400D01*
X538605D01*
X536951Y1332715D01*
X536470Y1332234D01*
X483680D01*
X483199Y1332715D01*
X481545Y1333400D01*
X479755D01*
X478101Y1332715D01*
X477620Y1332234D01*
X454562D01*
X453510Y1334774D01*
X464108Y1345372D01*
X464830Y1346454D01*
X467105Y1347900D01*
X468895D01*
X470671Y1345886D01*
X470685Y1345851D01*
X471951Y1344585D01*
X473605Y1343900D01*
X475395D01*
X477049Y1344585D01*
X478315Y1345851D01*
X480105Y1347400D01*
X481895D01*
X483548Y1348085D01*
X483876Y1347292D01*
X485141Y1346026D01*
X486795Y1345341D01*
X488586D01*
X490239Y1346026D01*
X491505Y1347292D01*
X493686Y1346611D01*
X495476D01*
X497130Y1347296D01*
X498396Y1348562D01*
X499081Y1350216D01*
Y1352006D01*
X498396Y1353660D01*
X497765Y1354291D01*
X498105Y1354800D01*
X498299Y1355775D01*
Y1369525D01*
X498105Y1370500D01*
X497552Y1371327D01*
X496725Y1371880D01*
X495750Y1372074D01*
X492750D01*
X491775Y1371880D01*
X491000Y1371362D01*
X490225Y1371880D01*
X489250Y1372074D01*
X486250D01*
X485275Y1371880D01*
X484500Y1371362D01*
X483725Y1371880D01*
X482750Y1372074D01*
X479750D01*
X478775Y1371880D01*
X478000Y1371362D01*
X477225Y1371880D01*
X476250Y1372074D01*
X473250D01*
X472275Y1371880D01*
X471500Y1371362D01*
X470725Y1371880D01*
X469750Y1372074D01*
X466750D01*
X465775Y1371880D01*
X465000Y1371362D01*
X464225Y1371880D01*
X463250Y1372074D01*
X460250D01*
X459275Y1371880D01*
X458500Y1371362D01*
X457725Y1371880D01*
X456750Y1372074D01*
X453750D01*
X452775Y1371880D01*
X451948Y1371327D01*
X451395Y1370500D01*
X451201Y1369525D01*
Y1355775D01*
X451395Y1354800D01*
X451916Y1354020D01*
Y1349031D01*
X449248Y1346363D01*
X445360D01*
X444330Y1347903D01*
Y1349694D01*
X443645Y1351348D01*
X442379Y1352613D01*
X440725Y1353298D01*
X440185Y1353700D01*
X438810Y1355327D01*
X438899Y1355775D01*
Y1369525D01*
X438705Y1370500D01*
X438152Y1371327D01*
X437326Y1371880D01*
X436350Y1372074D01*
X433350D01*
X432375Y1371880D01*
X431600Y1371362D01*
X430826Y1371880D01*
X429850Y1372074D01*
X426850D01*
X425875Y1371880D01*
X425100Y1371362D01*
X424325Y1371880D01*
X423350Y1372074D01*
X420350D01*
X419375Y1371880D01*
X418600Y1371362D01*
X417826Y1371880D01*
X416850Y1372074D01*
X413850D01*
X412875Y1371880D01*
X412100Y1371362D01*
X411325Y1371880D01*
X410350Y1372074D01*
X407350D01*
X406375Y1371880D01*
X405600Y1371362D01*
X404826Y1371880D01*
X403850Y1372074D01*
X400850D01*
X399875Y1371880D01*
X399100Y1371362D01*
X398326Y1371880D01*
X397350Y1372074D01*
X394350D01*
X393375Y1371880D01*
X392548Y1371327D01*
X391995Y1370500D01*
X391801Y1369525D01*
Y1355775D01*
X391969Y1354928D01*
X391500Y1353795D01*
Y1352005D01*
X392185Y1350351D01*
X393451Y1349085D01*
X393892Y1348903D01*
X393386Y1346363D01*
X388871D01*
X388871Y1346362D01*
X388871Y1346362D01*
X388225Y1346234D01*
X385030D01*
X384549Y1346715D01*
X382895Y1347400D01*
X382377D01*
X380588Y1349407D01*
X380500Y1349747D01*
Y1351295D01*
X379815Y1352949D01*
X379334Y1353430D01*
Y1354394D01*
X379605Y1354800D01*
X379799Y1355775D01*
Y1369525D01*
X379605Y1370500D01*
X379052Y1371327D01*
X378226Y1371880D01*
X377250Y1372074D01*
X374250D01*
X374000Y1372024D01*
X372938Y1372657D01*
X372382Y1375566D01*
X388881Y1392066D01*
X498240D01*
X498721Y1391585D01*
X500375Y1390900D01*
X502165D01*
X503819Y1391585D01*
X505085Y1392851D01*
X505770Y1394505D01*
Y1396295D01*
X505085Y1397949D01*
X506324Y1400302D01*
X535035D01*
X536006Y1399900D01*
X537995D01*
X539832Y1400661D01*
X540507Y1401336D01*
X541194Y1401795D01*
X542299Y1403449D01*
X542688Y1405400D01*
X542299Y1407351D01*
X541194Y1409005D01*
X539540Y1410110D01*
X537590Y1410498D01*
X453065D01*
X452094Y1410900D01*
X449906D01*
X448935Y1410498D01*
X402500D01*
X402007Y1410400D01*
X401505D01*
X401042Y1410208D01*
X400549Y1410110D01*
X400132Y1409831D01*
X399668Y1409639D01*
X399313Y1409284D01*
X398895Y1409005D01*
X398616Y1408587D01*
X398261Y1408232D01*
X398069Y1407768D01*
X397790Y1407351D01*
X397692Y1406858D01*
X397500Y1406395D01*
Y1405892D01*
X397402Y1405400D01*
X397500Y1404908D01*
Y1404405D01*
X397692Y1403942D01*
X397790Y1403449D01*
X398069Y1403032D01*
X398261Y1402568D01*
X398616Y1402213D01*
X398895Y1401795D01*
X399313Y1401516D01*
X399555Y1401274D01*
X399519Y1400695D01*
X398890Y1398734D01*
X387500D01*
X386224Y1398480D01*
X385143Y1397758D01*
X367119Y1379734D01*
X331500D01*
X330224Y1379480D01*
X329142Y1378757D01*
X322142Y1371758D01*
X321420Y1370676D01*
X321166Y1369400D01*
Y1363430D01*
X320685Y1362949D01*
X320000Y1361295D01*
Y1359505D01*
X320685Y1357851D01*
X321951Y1356585D01*
X323605Y1355900D01*
X325395D01*
X327049Y1356585D01*
X328315Y1357851D01*
X329000Y1359505D01*
Y1361295D01*
X328315Y1362949D01*
X327834Y1363430D01*
Y1368019D01*
X330303Y1370488D01*
X332166Y1369740D01*
X332701Y1369294D01*
Y1355775D01*
X332895Y1354800D01*
X333166Y1354394D01*
Y1351930D01*
X332685Y1351449D01*
X332000Y1349795D01*
Y1348005D01*
X332685Y1346351D01*
X333951Y1345085D01*
X335605Y1344400D01*
X337395D01*
X339049Y1345085D01*
X340315Y1346351D01*
X340781Y1347475D01*
X342138Y1346913D01*
X343928D01*
X346185Y1346351D01*
X347451Y1345085D01*
X349105Y1344400D01*
X350895D01*
X352549Y1345085D01*
X353815Y1346351D01*
X354500Y1348005D01*
Y1348149D01*
X354875Y1348400D01*
X356665D01*
X358018Y1348961D01*
X358685Y1347351D01*
X359951Y1346085D01*
X361605Y1345400D01*
X363395D01*
X365049Y1346085D01*
X366315Y1347351D01*
X368105Y1348900D01*
X369895D01*
X372185Y1347851D01*
X373451Y1346585D01*
X375105Y1345900D01*
X375623D01*
X377412Y1343893D01*
X377500Y1343553D01*
Y1342005D01*
X378185Y1340351D01*
X379451Y1339085D01*
X379513Y1339059D01*
X380979Y1337520D01*
X380761Y1336002D01*
X380580Y1335565D01*
Y1333775D01*
X379550Y1332234D01*
X327000D01*
X325724Y1331980D01*
X324642Y1331257D01*
X324285Y1330900D01*
X323605D01*
X321951Y1330215D01*
X320685Y1328949D01*
X320635Y1328827D01*
X319129Y1327264D01*
X317625Y1327211D01*
X310375D01*
X309156Y1326969D01*
X308122Y1326278D01*
X305351Y1326701D01*
X303966Y1328424D01*
X304452Y1513066D01*
X309902D01*
X309921Y1513064D01*
D02*
G37*
%LPC*%
G36*
X413830Y1498440D02*
X404060D01*
Y1488670D01*
X413830D01*
Y1498440D01*
D02*
G37*
G36*
Y1486130D02*
X404060D01*
Y1476360D01*
X413830D01*
Y1486130D01*
D02*
G37*
G36*
X339800Y1487613D02*
X330270D01*
Y1474270D01*
X343613D01*
Y1483800D01*
X343323Y1485259D01*
X342496Y1486496D01*
X341259Y1487323D01*
X339800Y1487613D01*
D02*
G37*
G36*
X467353Y1498440D02*
X467170D01*
Y1488670D01*
X476940D01*
Y1488853D01*
X476188Y1491661D01*
X474734Y1494179D01*
X472679Y1496234D01*
X470161Y1497688D01*
X467353Y1498440D01*
D02*
G37*
G36*
X464630D02*
X464447D01*
X461639Y1497688D01*
X459121Y1496234D01*
X457066Y1494179D01*
X455612Y1491661D01*
X454860Y1488853D01*
Y1488670D01*
X464630D01*
Y1498440D01*
D02*
G37*
G36*
X492682Y1497900D02*
X489918D01*
X487247Y1497184D01*
X484853Y1495802D01*
X482898Y1493847D01*
X481516Y1491453D01*
X480800Y1488782D01*
Y1486018D01*
X481516Y1483347D01*
X482898Y1480953D01*
X484853Y1478998D01*
X487247Y1477616D01*
X489918Y1476900D01*
X492682D01*
X495353Y1477616D01*
X497747Y1478998D01*
X499702Y1480953D01*
X501084Y1483347D01*
X501214Y1483831D01*
X529141D01*
Y1483650D01*
X529374Y1482480D01*
X530037Y1481487D01*
X531030Y1480824D01*
X532200Y1480591D01*
X538200D01*
X539370Y1480824D01*
X540363Y1481487D01*
X541026Y1482480D01*
X541259Y1483650D01*
Y1491150D01*
X541026Y1492321D01*
X540363Y1493313D01*
X539370Y1493976D01*
X538200Y1494209D01*
X532200D01*
X531030Y1493976D01*
X530037Y1493313D01*
X529374Y1492321D01*
X529141Y1491150D01*
Y1490969D01*
X501214D01*
X501084Y1491453D01*
X499702Y1493847D01*
X497747Y1495802D01*
X495353Y1497184D01*
X492682Y1497900D01*
D02*
G37*
G36*
X441882D02*
X439118D01*
X436447Y1497184D01*
X434053Y1495802D01*
X432098Y1493847D01*
X430716Y1491453D01*
X430000Y1488782D01*
Y1486018D01*
X430716Y1483347D01*
X432098Y1480953D01*
X434053Y1478998D01*
X436447Y1477616D01*
X439118Y1476900D01*
X441882D01*
X444553Y1477616D01*
X446947Y1478998D01*
X448902Y1480953D01*
X450284Y1483347D01*
X451000Y1486018D01*
Y1488782D01*
X450284Y1491453D01*
X448902Y1493847D01*
X446947Y1495802D01*
X444553Y1497184D01*
X441882Y1497900D01*
D02*
G37*
G36*
X476940Y1486130D02*
X467170D01*
Y1476360D01*
X467353D01*
X470161Y1477112D01*
X472679Y1478566D01*
X474734Y1480621D01*
X476188Y1483139D01*
X476940Y1485947D01*
Y1486130D01*
D02*
G37*
G36*
X464630D02*
X454860D01*
Y1485947D01*
X455612Y1483139D01*
X457066Y1480621D01*
X459121Y1478566D01*
X461639Y1477112D01*
X464447Y1476360D01*
X464630D01*
Y1486130D01*
D02*
G37*
G36*
X614990Y1452513D02*
X605460D01*
Y1439170D01*
X618803D01*
Y1448700D01*
X618513Y1450159D01*
X617686Y1451396D01*
X616449Y1452223D01*
X614990Y1452513D01*
D02*
G37*
G36*
X618803Y1436630D02*
X605460D01*
Y1423287D01*
X614990D01*
X616449Y1423577D01*
X617686Y1424404D01*
X618513Y1425641D01*
X618803Y1427100D01*
Y1436630D01*
D02*
G37*
G36*
X556104Y1452440D02*
X555460D01*
Y1439170D01*
X568730D01*
Y1439814D01*
X567739Y1443512D01*
X565825Y1446828D01*
X563117Y1449535D01*
X559802Y1451449D01*
X556104Y1452440D01*
D02*
G37*
G36*
X552920D02*
X552275D01*
X548577Y1451449D01*
X545262Y1449535D01*
X542555Y1446828D01*
X540640Y1443512D01*
X539650Y1439814D01*
Y1439170D01*
X552920D01*
Y1452440D01*
D02*
G37*
G36*
X568730Y1436630D02*
X555460D01*
Y1423360D01*
X556104D01*
X559802Y1424351D01*
X563117Y1426265D01*
X565825Y1428972D01*
X567739Y1432288D01*
X568730Y1435986D01*
Y1436630D01*
D02*
G37*
G36*
X552920D02*
X539650D01*
Y1435986D01*
X540640Y1432288D01*
X542555Y1428972D01*
X545262Y1426265D01*
X548577Y1424351D01*
X552275Y1423360D01*
X552920D01*
Y1436630D01*
D02*
G37*
G36*
X330843Y1437000D02*
X327157D01*
X323596Y1436046D01*
X320404Y1434203D01*
X317797Y1431596D01*
X315954Y1428404D01*
X315000Y1424843D01*
Y1421157D01*
X315954Y1417596D01*
X317797Y1414404D01*
X320404Y1411797D01*
X323596Y1409954D01*
X327157Y1409000D01*
X330843D01*
X334404Y1409954D01*
X337596Y1411797D01*
X340203Y1414404D01*
X342046Y1417596D01*
X343000Y1421157D01*
Y1424843D01*
X342046Y1428404D01*
X340203Y1431596D01*
X337596Y1434203D01*
X334404Y1436046D01*
X330843Y1437000D01*
D02*
G37*
G36*
X359350Y1435018D02*
X359054Y1434959D01*
X355600D01*
X354430Y1434726D01*
X353437Y1434063D01*
X352774Y1433071D01*
X352541Y1431900D01*
Y1425900D01*
X352774Y1424729D01*
X353232Y1424043D01*
Y1410079D01*
X352750D01*
X351677Y1409865D01*
X350767Y1409258D01*
X350160Y1408348D01*
X349946Y1407275D01*
Y1402775D01*
X350047Y1402268D01*
X348797Y1400889D01*
X348021Y1400426D01*
X347250Y1400579D01*
X345781D01*
X343060Y1403300D01*
X341598Y1404422D01*
X339895Y1405127D01*
X338068Y1405368D01*
X321553D01*
X320850Y1405460D01*
X319023Y1405220D01*
X317320Y1404514D01*
X315858Y1403392D01*
X314736Y1401930D01*
X314030Y1400227D01*
X313790Y1398400D01*
X314030Y1396573D01*
X314736Y1394870D01*
X315858Y1393408D01*
X315950Y1393315D01*
X317412Y1392193D01*
X319115Y1391488D01*
X320942Y1391247D01*
X332085D01*
X332927Y1390685D01*
X334000Y1390471D01*
X335919D01*
X335983Y1390408D01*
X337445Y1389285D01*
X339148Y1388580D01*
X340975Y1388340D01*
X342802Y1388580D01*
X344505Y1389285D01*
X345967Y1390408D01*
X346016Y1390471D01*
X347250D01*
X348323Y1390685D01*
X349233Y1391292D01*
X349840Y1392202D01*
X350054Y1393275D01*
Y1397775D01*
X349953Y1398282D01*
X351203Y1399661D01*
X351979Y1400125D01*
X352750Y1399971D01*
X356302D01*
X357384Y1399248D01*
X359725Y1398783D01*
X362066Y1399248D01*
X363148Y1399971D01*
X366000D01*
X367073Y1400185D01*
X367983Y1400792D01*
X368590Y1401702D01*
X368804Y1402775D01*
Y1407275D01*
X368590Y1408348D01*
X367983Y1409258D01*
X367073Y1409865D01*
X366000Y1410079D01*
X365467D01*
Y1424043D01*
X365926Y1424729D01*
X366159Y1425900D01*
Y1431900D01*
X365926Y1433071D01*
X365263Y1434063D01*
X364271Y1434726D01*
X363100Y1434959D01*
X359646D01*
X359350Y1435018D01*
D02*
G37*
G36*
X573895Y1386900D02*
X572105D01*
X570451Y1386215D01*
X569470Y1385234D01*
X465030D01*
X464549Y1385715D01*
X462895Y1386400D01*
X461105D01*
X459451Y1385715D01*
X458185Y1384449D01*
X457500Y1382795D01*
Y1381005D01*
X458185Y1379351D01*
X459451Y1378085D01*
X461105Y1377400D01*
X462895D01*
X464549Y1378085D01*
X465030Y1378566D01*
X570497D01*
X572105Y1377900D01*
X573895D01*
X575549Y1378585D01*
X576815Y1379851D01*
X577500Y1381505D01*
Y1383295D01*
X576815Y1384949D01*
X575549Y1386215D01*
X573895Y1386900D01*
D02*
G37*
G36*
X554250Y1372074D02*
X551250D01*
X550275Y1371880D01*
X549500Y1371362D01*
X548725Y1371880D01*
X547750Y1372074D01*
X544750D01*
X543775Y1371880D01*
X543000Y1371362D01*
X542225Y1371880D01*
X541250Y1372074D01*
X538250D01*
X537275Y1371880D01*
X536500Y1371362D01*
X535725Y1371880D01*
X534750Y1372074D01*
X531750D01*
X530775Y1371880D01*
X530000Y1371362D01*
X529226Y1371880D01*
X528250Y1372074D01*
X525250D01*
X524275Y1371880D01*
X523500Y1371362D01*
X522725Y1371880D01*
X521750Y1372074D01*
X518750D01*
X517775Y1371880D01*
X517000Y1371362D01*
X516226Y1371880D01*
X515250Y1372074D01*
X512250D01*
X511275Y1371880D01*
X510448Y1371327D01*
X509895Y1370500D01*
X509701Y1369525D01*
Y1355775D01*
X509895Y1354800D01*
X509951Y1354715D01*
X509685Y1354449D01*
X509000Y1352795D01*
Y1351005D01*
X509685Y1349351D01*
X510951Y1348085D01*
X512605Y1347400D01*
X514395D01*
X516421Y1345490D01*
X516685Y1344851D01*
X517951Y1343585D01*
X519605Y1342900D01*
X521395D01*
X523049Y1343585D01*
X524315Y1344851D01*
X524329Y1344886D01*
X525611Y1346339D01*
X528387Y1346320D01*
X529232Y1345324D01*
X530497Y1344058D01*
X532151Y1343373D01*
X533942D01*
X535596Y1344058D01*
X536861Y1345324D01*
X537547Y1346978D01*
X538480Y1347601D01*
X538698Y1347569D01*
X539105Y1347400D01*
X539815D01*
X541009Y1347220D01*
X542185Y1345351D01*
X543451Y1344085D01*
X545105Y1343400D01*
X546895D01*
X548549Y1344085D01*
X549815Y1345351D01*
X552105Y1346400D01*
X553895D01*
X555549Y1347085D01*
X556815Y1348351D01*
X557500Y1350005D01*
Y1351795D01*
X556815Y1353449D01*
X556334Y1353930D01*
Y1354394D01*
X556605Y1354800D01*
X556799Y1355775D01*
Y1369525D01*
X556605Y1370500D01*
X556052Y1371327D01*
X555225Y1371880D01*
X554250Y1372074D01*
D02*
G37*
G36*
X505268Y1211900D02*
X502108D01*
X499056Y1211082D01*
X496320Y1209502D01*
X494086Y1207268D01*
X492506Y1204532D01*
X491688Y1201480D01*
Y1198320D01*
X492506Y1195268D01*
X494086Y1192532D01*
X496320Y1190298D01*
X499056Y1188718D01*
X502108Y1187900D01*
X505268D01*
X508320Y1188718D01*
X511056Y1190298D01*
X513290Y1192532D01*
X514601Y1194802D01*
X564435D01*
X565406Y1194400D01*
X567594D01*
X569616Y1195237D01*
X571163Y1196785D01*
X572000Y1198806D01*
Y1200994D01*
X571163Y1203016D01*
X569616Y1204563D01*
X567594Y1205400D01*
X565406D01*
X564435Y1204998D01*
X514601D01*
X513290Y1207268D01*
X511056Y1209502D01*
X508320Y1211082D01*
X505268Y1211900D01*
D02*
G37*
G36*
Y1174400D02*
X502108D01*
X499056Y1173582D01*
X496320Y1172002D01*
X494086Y1169768D01*
X492506Y1167032D01*
X491688Y1163980D01*
Y1160820D01*
X490673Y1159498D01*
X482875D01*
X482653Y1159454D01*
X476250D01*
X475177Y1159240D01*
X474267Y1158633D01*
X473660Y1157723D01*
X473446Y1156650D01*
Y1152150D01*
X473547Y1151643D01*
X472297Y1150264D01*
X471521Y1149800D01*
X470750Y1149954D01*
X457500D01*
X456427Y1149740D01*
X456043Y1149484D01*
X452511D01*
Y1150025D01*
X452269Y1151244D01*
X451578Y1152278D01*
X450544Y1152969D01*
X449325Y1153211D01*
X442075D01*
X440856Y1152969D01*
X439822Y1152278D01*
X439131Y1151244D01*
X438889Y1150025D01*
Y1149484D01*
X434742D01*
X434576Y1150321D01*
X433913Y1151313D01*
X432920Y1151976D01*
X431750Y1152209D01*
X424250D01*
X423079Y1151976D01*
X422087Y1151313D01*
X421424Y1150321D01*
X421191Y1149150D01*
Y1143150D01*
X421424Y1141980D01*
X422087Y1140987D01*
X423079Y1140324D01*
X424250Y1140091D01*
X431750D01*
X432920Y1140324D01*
X433913Y1140987D01*
X434576Y1141980D01*
X434742Y1142816D01*
X438980D01*
X439131Y1142056D01*
X439822Y1141022D01*
X440856Y1140331D01*
X442075Y1140089D01*
X449325D01*
X450544Y1140331D01*
X451578Y1141022D01*
X452235Y1142005D01*
X452476Y1142047D01*
X454836Y1141945D01*
X454910Y1141577D01*
X455517Y1140667D01*
X456427Y1140060D01*
X457500Y1139846D01*
X469936D01*
X470724Y1139320D01*
X472000Y1139066D01*
X494691D01*
Y1136150D01*
X494924Y1134979D01*
X495587Y1133987D01*
X495007Y1131375D01*
X494651Y1130859D01*
X487968D01*
X487876Y1131320D01*
X487213Y1132313D01*
X486221Y1132976D01*
X485050Y1133209D01*
X477550D01*
X476380Y1132976D01*
X475387Y1132313D01*
X474724Y1131320D01*
X474632Y1130859D01*
X471145D01*
X471069Y1131244D01*
X470378Y1132278D01*
X469344Y1132969D01*
X468125Y1133211D01*
X460875D01*
X459656Y1132969D01*
X458622Y1132278D01*
X457931Y1131244D01*
X457855Y1130859D01*
X453583D01*
X452983Y1131758D01*
X452073Y1132365D01*
X451000Y1132579D01*
X437750D01*
X436677Y1132365D01*
X435767Y1131758D01*
X435160Y1130848D01*
X434946Y1129775D01*
Y1125275D01*
X435047Y1124768D01*
X433797Y1123389D01*
X433021Y1122925D01*
X432250Y1123079D01*
X425847D01*
X425625Y1123123D01*
X416552D01*
X414601Y1122735D01*
X412947Y1121630D01*
X405712Y1114395D01*
X403180Y1115073D01*
X400020D01*
X396968Y1114256D01*
X394232Y1112676D01*
X391998Y1110442D01*
X390418Y1107705D01*
X389600Y1104653D01*
Y1101494D01*
X390418Y1098441D01*
X391998Y1095705D01*
X394232Y1093471D01*
X396968Y1091891D01*
X400020Y1091073D01*
X403180D01*
X406232Y1091891D01*
X408968Y1093471D01*
X411202Y1095705D01*
X412782Y1098441D01*
X413600Y1101494D01*
Y1104653D01*
X412922Y1107185D01*
X418663Y1112927D01*
X425625D01*
X425847Y1112971D01*
X432250D01*
X433323Y1113185D01*
X434233Y1113792D01*
X434841Y1114702D01*
X435054Y1115775D01*
Y1120275D01*
X434953Y1120782D01*
X436203Y1122161D01*
X436979Y1122625D01*
X437750Y1122471D01*
X451000D01*
X452073Y1122685D01*
X452983Y1123292D01*
X453583Y1124191D01*
X457689D01*
Y1123275D01*
X457931Y1122056D01*
X458622Y1121022D01*
X459656Y1120331D01*
X460875Y1120089D01*
X468125D01*
X469344Y1120331D01*
X470378Y1121022D01*
X471069Y1122056D01*
X471311Y1123275D01*
Y1124191D01*
X474491D01*
Y1124150D01*
X474724Y1122980D01*
X475387Y1121987D01*
X476380Y1121324D01*
X477550Y1121091D01*
X485050D01*
X486221Y1121324D01*
X487213Y1121987D01*
X487876Y1122980D01*
X488109Y1124150D01*
Y1124191D01*
X494691D01*
Y1120650D01*
X494924Y1119479D01*
X495587Y1118487D01*
X496580Y1117824D01*
X497750Y1117591D01*
X503750D01*
X504921Y1117824D01*
X505913Y1118487D01*
X506576Y1119479D01*
X506809Y1120650D01*
Y1128150D01*
X506576Y1129321D01*
X505913Y1130313D01*
X505199Y1130790D01*
X505050Y1132150D01*
X505199Y1133510D01*
X505913Y1133987D01*
X506576Y1134979D01*
X506809Y1136150D01*
Y1143650D01*
X506576Y1144820D01*
X505913Y1145813D01*
X504921Y1146476D01*
X503750Y1146709D01*
X497750D01*
X496580Y1146476D01*
X495587Y1145813D01*
X495535Y1145734D01*
X474877D01*
X474284Y1147476D01*
X476182Y1149360D01*
X476250Y1149346D01*
X482653D01*
X482875Y1149302D01*
X495688D01*
X497639Y1149690D01*
X499293Y1150795D01*
X499576Y1151078D01*
X502108Y1150400D01*
X505268D01*
X508320Y1151218D01*
X511056Y1152798D01*
X513290Y1155032D01*
X514870Y1157768D01*
X515688Y1160820D01*
Y1163980D01*
X514870Y1167032D01*
X513290Y1169768D01*
X511056Y1172002D01*
X508320Y1173582D01*
X505268Y1174400D01*
D02*
G37*
G36*
X516885Y1151400D02*
X515095D01*
X513441Y1150715D01*
X512175Y1149449D01*
X511490Y1147795D01*
Y1146005D01*
X511768Y1145335D01*
X511424Y1144820D01*
X511191Y1143650D01*
Y1136150D01*
X511424Y1134979D01*
X512087Y1133987D01*
X512801Y1133510D01*
X512950Y1132150D01*
X512801Y1130790D01*
X512087Y1130313D01*
X511424Y1129321D01*
X511191Y1128150D01*
Y1120650D01*
X511424Y1119479D01*
X512087Y1118487D01*
X513079Y1117824D01*
X514250Y1117591D01*
X516975D01*
X517981Y1116585D01*
X519635Y1115900D01*
X521425D01*
X523079Y1116585D01*
X524345Y1117851D01*
X525030Y1119505D01*
Y1121295D01*
X524345Y1122949D01*
X523309Y1123985D01*
Y1128150D01*
X523076Y1129321D01*
X522413Y1130313D01*
X521699Y1130790D01*
X521550Y1132150D01*
X521699Y1133510D01*
X522413Y1133987D01*
X523076Y1134979D01*
X523309Y1136150D01*
Y1143650D01*
X523076Y1144820D01*
X522413Y1145813D01*
X521421Y1146476D01*
X520490Y1146661D01*
Y1147795D01*
X519805Y1149449D01*
X518539Y1150715D01*
X516885Y1151400D01*
D02*
G37*
G36*
X505680Y1114973D02*
X502520D01*
X499468Y1114156D01*
X496732Y1112576D01*
X494498Y1110341D01*
X492918Y1107605D01*
X492100Y1104553D01*
Y1101394D01*
X492918Y1098342D01*
X494154Y1096201D01*
X485701Y1087748D01*
X482875D01*
X482653Y1087704D01*
X476250D01*
X475177Y1087490D01*
X474267Y1086883D01*
X473660Y1085973D01*
X473446Y1084900D01*
Y1080400D01*
X473547Y1079893D01*
X472297Y1078514D01*
X471521Y1078051D01*
X470750Y1078204D01*
X463689D01*
X462901Y1078730D01*
X461625Y1078984D01*
X452511D01*
Y1080025D01*
X452269Y1081244D01*
X451578Y1082278D01*
X450544Y1082969D01*
X449325Y1083211D01*
X442075D01*
X440856Y1082969D01*
X439822Y1082278D01*
X439131Y1081244D01*
X438889Y1080025D01*
Y1078984D01*
X434742D01*
X434576Y1079820D01*
X433913Y1080813D01*
X432920Y1081476D01*
X431750Y1081709D01*
X424250D01*
X423079Y1081476D01*
X422087Y1080813D01*
X421424Y1079820D01*
X421191Y1078650D01*
Y1072650D01*
X421424Y1071479D01*
X422087Y1070487D01*
X423079Y1069824D01*
X424250Y1069591D01*
X431750D01*
X432920Y1069824D01*
X433913Y1070487D01*
X434576Y1071479D01*
X434742Y1072316D01*
X439080D01*
X439131Y1072056D01*
X439822Y1071022D01*
X440856Y1070331D01*
X442075Y1070089D01*
X449325D01*
X450544Y1070331D01*
X451578Y1071022D01*
X452156Y1071887D01*
X452342Y1071912D01*
X454696Y1070900D01*
X454910Y1069827D01*
X455517Y1068917D01*
X456427Y1068309D01*
X457500Y1068096D01*
X470750D01*
X471823Y1068309D01*
X472733Y1068917D01*
X473333Y1069816D01*
X490211D01*
X491463Y1068706D01*
X492225Y1067520D01*
X492100Y1067053D01*
Y1063894D01*
X492918Y1060842D01*
X494498Y1058105D01*
X496732Y1055871D01*
X499468Y1054291D01*
X501883Y1053644D01*
X503032Y1051974D01*
X503388Y1050933D01*
X503291Y1050734D01*
X492381D01*
X488733Y1054382D01*
X488074Y1054822D01*
X487876Y1055820D01*
X487213Y1056813D01*
X486221Y1057476D01*
X485050Y1057709D01*
X477550D01*
X476380Y1057476D01*
X475387Y1056813D01*
X474724Y1055820D01*
X474632Y1055359D01*
X471145D01*
X471069Y1055744D01*
X470378Y1056778D01*
X469344Y1057469D01*
X468125Y1057711D01*
X460875D01*
X459656Y1057469D01*
X458622Y1056778D01*
X457931Y1055744D01*
X457855Y1055359D01*
X453583D01*
X452983Y1056258D01*
X452073Y1056865D01*
X451000Y1057079D01*
X437750D01*
X436677Y1056865D01*
X435767Y1056258D01*
X435160Y1055348D01*
X434946Y1054275D01*
Y1049775D01*
X435047Y1049268D01*
X433797Y1047889D01*
X433021Y1047426D01*
X432250Y1047579D01*
X425847D01*
X425625Y1047623D01*
X416052D01*
X414101Y1047235D01*
X412447Y1046130D01*
X405712Y1039395D01*
X403180Y1040073D01*
X400020D01*
X396968Y1039256D01*
X394232Y1037676D01*
X391998Y1035442D01*
X390418Y1032705D01*
X389600Y1029653D01*
Y1026494D01*
X390418Y1023441D01*
X391998Y1020705D01*
X394232Y1018471D01*
X396968Y1016891D01*
X400020Y1016073D01*
X403180D01*
X406232Y1016891D01*
X408968Y1018471D01*
X411202Y1020705D01*
X412782Y1023441D01*
X413600Y1026494D01*
Y1029653D01*
X412922Y1032185D01*
X418163Y1037427D01*
X425625D01*
X425847Y1037471D01*
X432250D01*
X433323Y1037685D01*
X434233Y1038292D01*
X434841Y1039202D01*
X435054Y1040275D01*
Y1044775D01*
X434953Y1045282D01*
X436203Y1046661D01*
X436979Y1047124D01*
X437750Y1046971D01*
X451000D01*
X452073Y1047185D01*
X452983Y1047792D01*
X453583Y1048691D01*
X457689D01*
Y1047775D01*
X457931Y1046556D01*
X458622Y1045522D01*
X459656Y1044831D01*
X460875Y1044589D01*
X468125D01*
X469344Y1044831D01*
X470378Y1045522D01*
X471069Y1046556D01*
X471311Y1047775D01*
Y1048691D01*
X474491D01*
Y1048650D01*
X474724Y1047479D01*
X475387Y1046487D01*
X476380Y1045824D01*
X477550Y1045591D01*
X485050D01*
X486221Y1045824D01*
X487204Y1046481D01*
X488643Y1045042D01*
X489724Y1044320D01*
X491000Y1044066D01*
X504836D01*
X505826Y1042225D01*
X504395Y1039973D01*
X502520D01*
X499468Y1039156D01*
X496732Y1037576D01*
X494498Y1035341D01*
X492918Y1032605D01*
X492100Y1029553D01*
Y1026394D01*
X492918Y1023342D01*
X493719Y1021954D01*
X480719Y1008954D01*
X476250D01*
X475177Y1008740D01*
X474267Y1008133D01*
X473660Y1007223D01*
X473446Y1006150D01*
Y1001650D01*
X473547Y1001143D01*
X472297Y999764D01*
X471521Y999301D01*
X470750Y999454D01*
X457500D01*
X456427Y999240D01*
X455517Y998633D01*
X454917Y997734D01*
X452511D01*
Y999525D01*
X452269Y1000744D01*
X451578Y1001778D01*
X450544Y1002469D01*
X449325Y1002711D01*
X442075D01*
X440856Y1002469D01*
X439822Y1001778D01*
X439131Y1000744D01*
X438889Y999525D01*
Y997734D01*
X434809D01*
Y998650D01*
X434576Y999820D01*
X433913Y1000813D01*
X432920Y1001476D01*
X431750Y1001709D01*
X424250D01*
X423079Y1001476D01*
X422087Y1000813D01*
X421424Y999820D01*
X421191Y998650D01*
Y992650D01*
X421424Y991479D01*
X422087Y990487D01*
X423079Y989824D01*
X424250Y989591D01*
X431750D01*
X432920Y989824D01*
X433913Y990487D01*
X434300Y991066D01*
X439459D01*
X439822Y990522D01*
X440856Y989831D01*
X442075Y989589D01*
X449325D01*
X450544Y989831D01*
X451578Y990522D01*
X451941Y991066D01*
X454917D01*
X455517Y990167D01*
X456427Y989560D01*
X457500Y989346D01*
X470750D01*
X471823Y989560D01*
X472733Y990167D01*
X473340Y991077D01*
X473446Y991606D01*
X487172D01*
X488144Y989259D01*
X483594Y984709D01*
X477550D01*
X476380Y984476D01*
X475387Y983813D01*
X474724Y982821D01*
X474632Y982359D01*
X471145D01*
X471069Y982744D01*
X470378Y983778D01*
X469344Y984469D01*
X468125Y984711D01*
X460875D01*
X459656Y984469D01*
X458622Y983778D01*
X457931Y982744D01*
X457855Y982359D01*
X453583D01*
X452983Y983258D01*
X452073Y983865D01*
X451000Y984079D01*
X437750D01*
X436677Y983865D01*
X435767Y983258D01*
X435160Y982348D01*
X434946Y981275D01*
Y976775D01*
X435047Y976268D01*
X433797Y974889D01*
X433021Y974426D01*
X432250Y974579D01*
X425847D01*
X425625Y974623D01*
X412244D01*
X411202Y976427D01*
X408968Y978661D01*
X406232Y980241D01*
X403180Y981059D01*
X400020D01*
X396968Y980241D01*
X394232Y978661D01*
X391998Y976427D01*
X390418Y973690D01*
X389600Y970639D01*
Y967479D01*
X390418Y964427D01*
X391998Y961691D01*
X394232Y959456D01*
X396968Y957876D01*
X400020Y957059D01*
X403180D01*
X406232Y957876D01*
X408968Y959456D01*
X411202Y961691D01*
X412782Y964427D01*
X412782Y964427D01*
X425625D01*
X425847Y964471D01*
X432250D01*
X433323Y964685D01*
X434233Y965292D01*
X434841Y966202D01*
X435054Y967275D01*
Y971775D01*
X434953Y972282D01*
X436203Y973661D01*
X436979Y974125D01*
X437750Y973971D01*
X451000D01*
X452073Y974185D01*
X452983Y974792D01*
X453583Y975691D01*
X457689D01*
Y974775D01*
X457931Y973556D01*
X458622Y972522D01*
X459656Y971831D01*
X460875Y971589D01*
X468125D01*
X469344Y971831D01*
X470378Y972522D01*
X471069Y973556D01*
X471311Y974775D01*
Y975691D01*
X474491D01*
Y975650D01*
X474724Y974480D01*
X475387Y973487D01*
X476380Y972824D01*
X477550Y972591D01*
X485050D01*
X486221Y972824D01*
X487213Y973487D01*
X487876Y974480D01*
X488109Y975650D01*
Y979794D01*
X495381Y987066D01*
X506191D01*
Y986650D01*
X506424Y985480D01*
X507087Y984487D01*
X508079Y983824D01*
X509250Y983591D01*
X515250D01*
X516421Y983824D01*
X517413Y984487D01*
X518076Y985480D01*
X518309Y986650D01*
Y994150D01*
X518076Y995321D01*
X517413Y996313D01*
X516699Y996790D01*
X516550Y998150D01*
X516699Y999510D01*
X517413Y999987D01*
X518076Y1000980D01*
X518309Y1002150D01*
Y1009650D01*
X518076Y1010820D01*
X517413Y1011813D01*
X516421Y1012476D01*
X515250Y1012709D01*
X509250D01*
X508079Y1012476D01*
X507087Y1011813D01*
X506424Y1010820D01*
X506191Y1009650D01*
Y1004556D01*
X499909Y998274D01*
X493606D01*
X492202Y1000407D01*
X492138Y1000814D01*
X492304Y1001650D01*
Y1006119D01*
X502234Y1016050D01*
X502520Y1015973D01*
X505680D01*
X508732Y1016791D01*
X511468Y1018371D01*
X513702Y1020605D01*
X515282Y1023342D01*
X516100Y1026394D01*
Y1029553D01*
X515282Y1032605D01*
X513702Y1035341D01*
X511468Y1037576D01*
X510645Y1038051D01*
X511325Y1040591D01*
X515250D01*
X516421Y1040824D01*
X517413Y1041487D01*
X518076Y1042479D01*
X518309Y1043650D01*
Y1051150D01*
X518076Y1052320D01*
X517413Y1053313D01*
X516421Y1053976D01*
X515250Y1054209D01*
X513398D01*
X512346Y1056749D01*
X513702Y1058105D01*
X515013Y1060375D01*
X526847D01*
X527352Y1057835D01*
X527061Y1057715D01*
X525795Y1056449D01*
X525110Y1054795D01*
Y1054081D01*
X524580Y1053976D01*
X523587Y1053313D01*
X522924Y1052320D01*
X522691Y1051150D01*
Y1043650D01*
X522924Y1042479D01*
X523587Y1041487D01*
X524580Y1040824D01*
X525750Y1040591D01*
X531750D01*
X532920Y1040824D01*
X533913Y1041487D01*
X534576Y1042479D01*
X534809Y1043650D01*
Y1051150D01*
X534576Y1052320D01*
X534110Y1053018D01*
Y1054795D01*
X533425Y1056449D01*
X532159Y1057715D01*
X531868Y1057835D01*
X532374Y1060375D01*
X564435D01*
X565406Y1059973D01*
X567594D01*
X569616Y1060811D01*
X571163Y1062358D01*
X572000Y1064379D01*
Y1066567D01*
X571163Y1068589D01*
X569616Y1070136D01*
X567594Y1070973D01*
X565406D01*
X564435Y1070571D01*
X529697D01*
X528645Y1073111D01*
X528885Y1073351D01*
X529570Y1075005D01*
Y1075685D01*
X531107Y1077223D01*
X531354Y1077591D01*
X531750D01*
X532920Y1077824D01*
X533913Y1078487D01*
X534576Y1079480D01*
X534809Y1080650D01*
Y1088150D01*
X534576Y1089321D01*
X533913Y1090313D01*
X532920Y1090976D01*
X531750Y1091209D01*
X525750D01*
X524580Y1090976D01*
X523587Y1090313D01*
X522924Y1089321D01*
X522691Y1088150D01*
Y1080650D01*
X522850Y1079851D01*
X522521Y1079715D01*
X521255Y1078449D01*
X520570Y1076795D01*
Y1075005D01*
X521255Y1073351D01*
X521495Y1073111D01*
X520443Y1070571D01*
X515013D01*
X513702Y1072841D01*
X511493Y1075051D01*
X511494Y1075166D01*
X512191Y1077591D01*
X515250D01*
X516421Y1077824D01*
X517413Y1078487D01*
X518076Y1079480D01*
X518309Y1080650D01*
Y1088150D01*
X518076Y1089321D01*
X517413Y1090313D01*
X516421Y1090976D01*
X515250Y1091209D01*
X512767D01*
X512172Y1092199D01*
X511846Y1093749D01*
X513702Y1095605D01*
X515282Y1098342D01*
X516100Y1101394D01*
Y1104553D01*
X515282Y1107605D01*
X513702Y1110341D01*
X511468Y1112576D01*
X508732Y1114156D01*
X505680Y1114973D01*
D02*
G37*
G36*
X403180Y1077573D02*
X400020D01*
X396968Y1076756D01*
X394232Y1075176D01*
X391998Y1072942D01*
X390687Y1070671D01*
X332565D01*
X331594Y1071073D01*
X329406D01*
X327384Y1070236D01*
X325837Y1068689D01*
X325000Y1066667D01*
Y1064479D01*
X325837Y1062458D01*
X327384Y1060911D01*
X329406Y1060073D01*
X331594D01*
X332565Y1060475D01*
X390687D01*
X391998Y1058205D01*
X394232Y1055971D01*
X396968Y1054391D01*
X400020Y1053573D01*
X403180D01*
X406232Y1054391D01*
X408968Y1055971D01*
X411202Y1058205D01*
X412782Y1060941D01*
X413600Y1063994D01*
Y1067153D01*
X412782Y1070205D01*
X411202Y1072942D01*
X408968Y1075176D01*
X406232Y1076756D01*
X403180Y1077573D01*
D02*
G37*
G36*
X531750Y1012709D02*
X525750D01*
X524580Y1012476D01*
X523587Y1011813D01*
X522924Y1010820D01*
X522691Y1009650D01*
Y1002150D01*
X522924Y1000980D01*
X523587Y999987D01*
X524301Y999510D01*
X524450Y998150D01*
X524301Y996790D01*
X523587Y996313D01*
X522924Y995321D01*
X522691Y994150D01*
Y986650D01*
X522924Y985480D01*
X523587Y984487D01*
X524580Y983824D01*
X525750Y983591D01*
X531750D01*
X532920Y983824D01*
X533913Y984487D01*
X534207Y984927D01*
X534953Y985567D01*
X537291Y986109D01*
X537795Y985900D01*
X539585D01*
X541239Y986585D01*
X542505Y987851D01*
X543190Y989505D01*
Y991295D01*
X542505Y992949D01*
X541239Y994215D01*
X539585Y994900D01*
X537795D01*
X537291Y994691D01*
X534953Y995233D01*
X534207Y995873D01*
X533913Y996313D01*
X533199Y996790D01*
X533050Y998150D01*
X533199Y999510D01*
X533913Y999987D01*
X534576Y1000980D01*
X534660Y1001400D01*
X535045D01*
X536699Y1002085D01*
X537965Y1003351D01*
X538650Y1005005D01*
Y1006795D01*
X537965Y1008449D01*
X536699Y1009715D01*
X535045Y1010400D01*
X534660D01*
X534576Y1010820D01*
X533913Y1011813D01*
X532920Y1012476D01*
X531750Y1012709D01*
D02*
G37*
G36*
X505680Y980959D02*
X502520D01*
X499468Y980141D01*
X496732Y978561D01*
X494498Y976327D01*
X492918Y973590D01*
X492100Y970538D01*
Y967379D01*
X492918Y964327D01*
X494498Y961590D01*
X496732Y959356D01*
X497010Y957244D01*
X480719Y940954D01*
X476250D01*
X475177Y940740D01*
X474267Y940133D01*
X473660Y939223D01*
X473446Y938150D01*
Y933650D01*
X473547Y933143D01*
X472297Y931764D01*
X471521Y931301D01*
X470750Y931454D01*
X457500D01*
X456427Y931240D01*
X455517Y930633D01*
X454917Y929734D01*
X452311D01*
Y930525D01*
X452069Y931744D01*
X451378Y932778D01*
X450344Y933469D01*
X449125Y933711D01*
X441875D01*
X440656Y933469D01*
X439622Y932778D01*
X438931Y931744D01*
X438880Y931484D01*
X433933D01*
X433713Y931813D01*
X432720Y932476D01*
X431550Y932709D01*
X424050D01*
X422879Y932476D01*
X421887Y931813D01*
X421224Y930820D01*
X420991Y929650D01*
Y923650D01*
X421224Y922479D01*
X421887Y921487D01*
X422879Y920824D01*
X424050Y920591D01*
X431550D01*
X432720Y920824D01*
X433713Y921487D01*
X434376Y922479D01*
X434609Y923650D01*
Y924816D01*
X438689D01*
Y923775D01*
X438931Y922556D01*
X439622Y921522D01*
X440656Y920831D01*
X441875Y920589D01*
X449125D01*
X450344Y920831D01*
X451378Y921522D01*
X452069Y922556D01*
X452170Y923066D01*
X454917D01*
X455517Y922167D01*
X456427Y921560D01*
X457500Y921346D01*
X470750D01*
X471823Y921560D01*
X472004Y921681D01*
X478936Y914749D01*
X477884Y912209D01*
X477550D01*
X476380Y911976D01*
X475387Y911313D01*
X474724Y910321D01*
X474558Y909484D01*
X471120D01*
X471069Y909744D01*
X470378Y910778D01*
X469344Y911469D01*
X468125Y911711D01*
X460875D01*
X459656Y911469D01*
X458622Y910778D01*
X457931Y909744D01*
X457880Y909484D01*
X453804D01*
Y910900D01*
X453590Y911973D01*
X452983Y912883D01*
X452073Y913490D01*
X451000Y913704D01*
X437750D01*
X436677Y913490D01*
X435767Y912883D01*
X435160Y911973D01*
X434946Y910900D01*
Y906400D01*
X435047Y905893D01*
X433797Y904514D01*
X433021Y904051D01*
X432250Y904204D01*
X425847D01*
X425625Y904248D01*
X407952D01*
X406232Y905241D01*
X403180Y906059D01*
X400020D01*
X396968Y905241D01*
X394232Y903661D01*
X391998Y901427D01*
X390418Y898690D01*
X389600Y895639D01*
Y892479D01*
X390418Y889427D01*
X391998Y886691D01*
X394232Y884456D01*
X396968Y882876D01*
X400020Y882059D01*
X403180D01*
X406232Y882876D01*
X408968Y884456D01*
X411202Y886691D01*
X412782Y889427D01*
X413600Y892479D01*
Y894052D01*
X425625D01*
X425847Y894096D01*
X432250D01*
X433323Y894310D01*
X434233Y894917D01*
X434841Y895827D01*
X435054Y896900D01*
Y901400D01*
X434953Y901907D01*
X436203Y903286D01*
X436979Y903749D01*
X437750Y903596D01*
X444811D01*
X445599Y903070D01*
X446875Y902816D01*
X457689D01*
Y901775D01*
X457931Y900556D01*
X458622Y899522D01*
X459656Y898831D01*
X460875Y898589D01*
X468125D01*
X469344Y898831D01*
X470378Y899522D01*
X471069Y900556D01*
X471311Y901775D01*
Y902816D01*
X474558D01*
X474724Y901980D01*
X475387Y900987D01*
X476380Y900324D01*
X477550Y900091D01*
X485050D01*
X486221Y900324D01*
X487213Y900987D01*
X487876Y901980D01*
X488109Y903150D01*
Y905566D01*
X495312D01*
X495533Y905255D01*
X496197Y903026D01*
X494498Y901327D01*
X492918Y898590D01*
X492100Y895538D01*
Y892379D01*
X492918Y889327D01*
X494498Y886590D01*
X496732Y884356D01*
X499002Y883046D01*
Y880137D01*
X485319Y866454D01*
X480850D01*
X479777Y866240D01*
X478867Y865633D01*
X478260Y864723D01*
X478046Y863650D01*
Y859150D01*
X478147Y858643D01*
X476897Y857264D01*
X476121Y856801D01*
X475350Y856954D01*
X462100D01*
X461027Y856740D01*
X460994Y856719D01*
X449811D01*
Y857025D01*
X449569Y858244D01*
X448878Y859278D01*
X447844Y859969D01*
X446625Y860211D01*
X439375D01*
X438156Y859969D01*
X437122Y859278D01*
X436431Y858244D01*
X436189Y857025D01*
Y856719D01*
X431996D01*
X431876Y857320D01*
X431213Y858313D01*
X430221Y858976D01*
X429050Y859209D01*
X421550D01*
X420379Y858976D01*
X419387Y858313D01*
X418724Y857320D01*
X418491Y856150D01*
Y850150D01*
X418724Y848979D01*
X419387Y847987D01*
X420379Y847324D01*
X421550Y847091D01*
X429050D01*
X430221Y847324D01*
X431213Y847987D01*
X431876Y848979D01*
X431996Y849581D01*
X436327D01*
X436431Y849056D01*
X437122Y848022D01*
X438156Y847331D01*
X439375Y847089D01*
X446625D01*
X447844Y847331D01*
X448878Y848022D01*
X449569Y849056D01*
X449673Y849581D01*
X459310D01*
X459510Y848577D01*
X460117Y847667D01*
X461027Y847059D01*
X461986Y846869D01*
X462409Y846233D01*
X463130Y844807D01*
X461869Y842586D01*
X460875D01*
X459656Y842344D01*
X458622Y841653D01*
X457931Y840619D01*
X457901Y840469D01*
X453426D01*
X452983Y841133D01*
X452073Y841740D01*
X451000Y841954D01*
X437750D01*
X436677Y841740D01*
X435767Y841133D01*
X435160Y840223D01*
X434946Y839150D01*
Y834650D01*
X435047Y834143D01*
X433797Y832764D01*
X433021Y832300D01*
X432250Y832454D01*
X425847D01*
X425625Y832498D01*
X414341D01*
X413600Y833464D01*
Y836624D01*
X412782Y839676D01*
X411202Y842412D01*
X408968Y844646D01*
X406232Y846226D01*
X403180Y847044D01*
X400020D01*
X396968Y846226D01*
X394232Y844646D01*
X391998Y842412D01*
X390418Y839676D01*
X389600Y836624D01*
Y833464D01*
X390418Y830412D01*
X391998Y827676D01*
X394232Y825442D01*
X396968Y823862D01*
X400020Y823044D01*
X403180D01*
X405738Y823729D01*
X407293Y822690D01*
X409244Y822302D01*
X425625D01*
X425847Y822346D01*
X432250D01*
X433323Y822560D01*
X434233Y823167D01*
X434841Y824077D01*
X435054Y825150D01*
Y829650D01*
X434953Y830157D01*
X436203Y831536D01*
X436979Y832000D01*
X437750Y831846D01*
X451000D01*
X452073Y832060D01*
X452983Y832667D01*
X453426Y833331D01*
X457689D01*
Y832650D01*
X457931Y831431D01*
X458622Y830397D01*
X459656Y829706D01*
X460875Y829464D01*
X465750D01*
Y828505D01*
X466435Y826851D01*
X467701Y825585D01*
X469355Y824900D01*
X471145D01*
X472799Y825585D01*
X474065Y826851D01*
X474750Y828505D01*
Y828733D01*
X475164Y829232D01*
X477189Y830538D01*
X477550Y830466D01*
X485050D01*
X486221Y830699D01*
X487213Y831362D01*
X487876Y832355D01*
X488109Y833525D01*
Y839525D01*
X487876Y840695D01*
X487213Y841688D01*
X486221Y842351D01*
X485050Y842584D01*
X477550D01*
X476380Y842351D01*
X475387Y841688D01*
X474724Y840695D01*
X474679Y840469D01*
X472194D01*
X470576Y842792D01*
X470854Y844390D01*
X471315Y844851D01*
X472000Y846505D01*
Y846846D01*
X475350D01*
X476423Y847059D01*
X477333Y847667D01*
X477940Y848577D01*
X478154Y849650D01*
Y854150D01*
X478053Y854657D01*
X479303Y856036D01*
X480079Y856499D01*
X480850Y856346D01*
X487253D01*
X487475Y856302D01*
X487697Y856346D01*
X494100D01*
X495173Y856560D01*
X496083Y857167D01*
X496690Y858077D01*
X496904Y859150D01*
Y863619D01*
X507705Y874420D01*
X508810Y876074D01*
X509198Y878025D01*
Y883046D01*
X511468Y884356D01*
X513702Y886590D01*
X515282Y889327D01*
X516100Y892379D01*
Y895538D01*
X515865Y896415D01*
X516668Y897309D01*
X518006Y898239D01*
X518750Y898091D01*
X524750D01*
X525920Y898324D01*
X526913Y898987D01*
X527576Y899979D01*
X527809Y901150D01*
Y908650D01*
X527576Y909820D01*
X526913Y910813D01*
X526199Y911290D01*
X526050Y912650D01*
X526199Y914010D01*
X526913Y914487D01*
X527576Y915479D01*
X527809Y916650D01*
Y924150D01*
X527576Y925321D01*
X526913Y926313D01*
X525920Y926976D01*
X524750Y927209D01*
X518750D01*
X517973Y927054D01*
X516687Y927935D01*
X515827Y928860D01*
X516100Y929879D01*
Y933038D01*
X515421Y935571D01*
X522153Y942302D01*
X564435D01*
X565406Y941900D01*
X567594D01*
X569616Y942737D01*
X571163Y944285D01*
X572000Y946306D01*
Y948494D01*
X571163Y950516D01*
X569616Y952063D01*
X567594Y952900D01*
X565406D01*
X564435Y952498D01*
X520041D01*
X518091Y952110D01*
X516437Y951005D01*
X508212Y942780D01*
X505680Y943459D01*
X502520D01*
X500765Y942988D01*
X499450Y945266D01*
X507705Y953520D01*
X508810Y955174D01*
X509198Y957125D01*
Y958046D01*
X511468Y959356D01*
X513702Y961590D01*
X515282Y964327D01*
X516100Y967379D01*
Y970538D01*
X515282Y973590D01*
X513702Y976327D01*
X511468Y978561D01*
X508732Y980141D01*
X505680Y980959D01*
D02*
G37*
G36*
X403180Y943559D02*
X400020D01*
X396968Y942741D01*
X394232Y941161D01*
X391998Y938927D01*
X390687Y936657D01*
X332565D01*
X331594Y937059D01*
X329406D01*
X327384Y936221D01*
X325837Y934674D01*
X325000Y932653D01*
Y930465D01*
X325837Y928443D01*
X327384Y926896D01*
X329406Y926059D01*
X331594D01*
X332565Y926461D01*
X390687D01*
X391998Y924191D01*
X394232Y921956D01*
X396968Y920376D01*
X400020Y919559D01*
X403180D01*
X406232Y920376D01*
X408968Y921956D01*
X411202Y924191D01*
X412782Y926927D01*
X413600Y929979D01*
Y933139D01*
X412782Y936190D01*
X411202Y938927D01*
X408968Y941161D01*
X406232Y942741D01*
X403180Y943559D01*
D02*
G37*
G36*
X538895Y932400D02*
X537105D01*
X535451Y931715D01*
X534185Y930449D01*
X533500Y928795D01*
Y927005D01*
X533635Y926679D01*
X533087Y926313D01*
X532424Y925321D01*
X532191Y924150D01*
Y916650D01*
X532424Y915479D01*
X533087Y914487D01*
X533801Y914010D01*
X533950Y912650D01*
X533801Y911290D01*
X533087Y910813D01*
X532424Y909820D01*
X532191Y908650D01*
Y901150D01*
X532424Y899979D01*
X533087Y898987D01*
X534080Y898324D01*
X535250Y898091D01*
X541250D01*
X542421Y898324D01*
X543413Y898987D01*
X544076Y899979D01*
X544107Y900134D01*
X544605Y900400D01*
X546395D01*
X548049Y901085D01*
X549315Y902351D01*
X550000Y904005D01*
Y905795D01*
X549315Y907449D01*
X548049Y908715D01*
X546395Y909400D01*
X544605D01*
X544107Y909666D01*
X544076Y909820D01*
X543413Y910813D01*
X542699Y911290D01*
X542550Y912650D01*
X542699Y914010D01*
X543413Y914487D01*
X544076Y915479D01*
X544309Y916650D01*
Y924150D01*
X544076Y925321D01*
X543413Y926313D01*
X542473Y926941D01*
X542500Y927005D01*
Y928795D01*
X541815Y930449D01*
X540549Y931715D01*
X538895Y932400D01*
D02*
G37*
G36*
X403180Y809544D02*
X400020D01*
X396968Y808726D01*
X394232Y807146D01*
X391998Y804912D01*
X390687Y802642D01*
X332565D01*
X331594Y803044D01*
X329406D01*
X327384Y802207D01*
X325837Y800659D01*
X325000Y798638D01*
Y796450D01*
X325837Y794428D01*
X327384Y792881D01*
X329406Y792044D01*
X331594D01*
X332565Y792446D01*
X390687D01*
X391998Y790176D01*
X394232Y787942D01*
X396968Y786362D01*
X400020Y785544D01*
X403180D01*
X406232Y786362D01*
X408968Y787942D01*
X411202Y790176D01*
X412782Y792912D01*
X413600Y795964D01*
Y799124D01*
X412782Y802176D01*
X411202Y804912D01*
X408968Y807146D01*
X406232Y808726D01*
X403180Y809544D01*
D02*
G37*
G36*
X505680Y846944D02*
X502520D01*
X499468Y846126D01*
X496732Y844546D01*
X494498Y842312D01*
X492918Y839576D01*
X492100Y836524D01*
Y833364D01*
X492918Y830312D01*
X494498Y827576D01*
X496732Y825342D01*
X497144Y825104D01*
X497476Y822585D01*
X481270Y806380D01*
X480165Y804726D01*
X479777Y802775D01*
Y799454D01*
X474750D01*
X473677Y799240D01*
X472767Y798633D01*
X472160Y797723D01*
X471946Y796650D01*
Y792150D01*
X472047Y791643D01*
X470797Y790264D01*
X470021Y789800D01*
X469250Y789954D01*
X456000D01*
X454927Y789740D01*
X454894Y789719D01*
X447211D01*
Y790025D01*
X446969Y791244D01*
X446278Y792278D01*
X445244Y792969D01*
X444025Y793211D01*
X436775D01*
X435556Y792969D01*
X434522Y792278D01*
X433831Y791244D01*
X433589Y790025D01*
Y789719D01*
X429396D01*
X429276Y790321D01*
X428613Y791313D01*
X427621Y791976D01*
X426450Y792209D01*
X418950D01*
X417780Y791976D01*
X416787Y791313D01*
X416124Y790321D01*
X415891Y789150D01*
Y783150D01*
X416124Y781980D01*
X416787Y780987D01*
X417780Y780324D01*
X418950Y780091D01*
X426450D01*
X427621Y780324D01*
X428613Y780987D01*
X429276Y781980D01*
X429396Y782581D01*
X433727D01*
X433831Y782056D01*
X434522Y781022D01*
X435556Y780331D01*
X436775Y780089D01*
X441914D01*
X445578Y776425D01*
X444606Y774079D01*
X437750D01*
X436677Y773865D01*
X435767Y773258D01*
X435160Y772348D01*
X434946Y771275D01*
Y766775D01*
X435047Y766268D01*
X433797Y764889D01*
X433021Y764426D01*
X432250Y764579D01*
X427319D01*
X427057Y764754D01*
X425106Y765142D01*
X412513D01*
X411202Y767412D01*
X408968Y769646D01*
X406232Y771226D01*
X403180Y772044D01*
X400020D01*
X396968Y771226D01*
X394232Y769646D01*
X391998Y767412D01*
X390418Y764676D01*
X389600Y761624D01*
Y758464D01*
X390418Y755412D01*
X391998Y752676D01*
X394232Y750442D01*
X396968Y748862D01*
X400020Y748044D01*
X403180D01*
X406232Y748862D01*
X408968Y750442D01*
X411202Y752676D01*
X412513Y754946D01*
X417536D01*
X417927Y754685D01*
X419000Y754471D01*
X425403D01*
X425625Y754427D01*
X425847Y754471D01*
X432250D01*
X433323Y754685D01*
X434233Y755292D01*
X434841Y756202D01*
X435054Y757275D01*
Y761775D01*
X434953Y762282D01*
X436203Y763661D01*
X436979Y764125D01*
X437750Y763971D01*
X451000D01*
X452073Y764185D01*
X452983Y764792D01*
X453176Y765081D01*
X457689D01*
Y764775D01*
X457931Y763556D01*
X458622Y762522D01*
X459656Y761831D01*
X460875Y761589D01*
X468125D01*
X469344Y761831D01*
X470378Y762522D01*
X471069Y763556D01*
X471245Y764441D01*
X472160Y764820D01*
X474724Y764479D01*
X475387Y763487D01*
X476380Y762824D01*
X477550Y762591D01*
X485050D01*
X486221Y762824D01*
X487213Y763487D01*
X487876Y764479D01*
X488109Y765650D01*
Y771650D01*
X487876Y772821D01*
X487213Y773813D01*
X486221Y774476D01*
X485050Y774709D01*
X477550D01*
X476380Y774476D01*
X475387Y773813D01*
X475256Y773617D01*
X473321Y772906D01*
X472165Y772977D01*
X471145Y773400D01*
X470631D01*
X470378Y773778D01*
X469344Y774469D01*
X468125Y774711D01*
X463030D01*
X462500Y775505D01*
Y777295D01*
X462495Y777306D01*
X464193Y779846D01*
X469250D01*
X470323Y780060D01*
X471233Y780667D01*
X471841Y781577D01*
X472054Y782650D01*
Y787150D01*
X471953Y787657D01*
X473203Y789036D01*
X473979Y789500D01*
X474750Y789346D01*
X484653D01*
X484875Y789302D01*
X485097Y789346D01*
X488000D01*
X489073Y789560D01*
X489983Y790167D01*
X490590Y791077D01*
X490704Y791648D01*
X492204Y792125D01*
X493326Y792106D01*
X494498Y790076D01*
X496732Y787842D01*
X499468Y786262D01*
X502520Y785444D01*
X505680D01*
X508732Y786262D01*
X511468Y787842D01*
X513702Y790076D01*
X515013Y792346D01*
X564435D01*
X565406Y791944D01*
X567594D01*
X569616Y792781D01*
X571163Y794329D01*
X572000Y796350D01*
Y798538D01*
X571163Y800559D01*
X569616Y802107D01*
X567594Y802944D01*
X565406D01*
X564435Y802542D01*
X515013D01*
X513702Y804812D01*
X511468Y807046D01*
X508732Y808626D01*
X505680Y809444D01*
X502520D01*
X502282Y809380D01*
X500967Y811657D01*
X507705Y818395D01*
X508810Y820049D01*
X509198Y822000D01*
Y824031D01*
X511468Y825342D01*
X513702Y827576D01*
X515282Y830312D01*
X516100Y833364D01*
Y836524D01*
X515282Y839576D01*
X513702Y842312D01*
X511468Y844546D01*
X508732Y846126D01*
X505680Y846944D01*
D02*
G37*
G36*
Y771944D02*
X502520D01*
X499468Y771126D01*
X496732Y769546D01*
X494498Y767312D01*
X492918Y764576D01*
X492100Y761524D01*
Y758364D01*
X492918Y755312D01*
X494498Y752576D01*
X496732Y750342D01*
X499002Y749031D01*
Y745237D01*
X486219Y732454D01*
X481750D01*
X480677Y732240D01*
X479767Y731633D01*
X479160Y730723D01*
X478946Y729650D01*
Y725150D01*
X479047Y724643D01*
X477797Y723264D01*
X477021Y722801D01*
X476250Y722954D01*
X463000D01*
X461927Y722740D01*
X461017Y722133D01*
X460752Y721735D01*
X460549Y721715D01*
X458895Y722400D01*
X457105D01*
X455451Y721715D01*
X455205Y721469D01*
X450711D01*
Y723025D01*
X450469Y724244D01*
X449778Y725278D01*
X448744Y725969D01*
X447525Y726211D01*
X440275D01*
X439056Y725969D01*
X438022Y725278D01*
X437331Y724244D01*
X437089Y723025D01*
Y721469D01*
X433009D01*
Y722150D01*
X432776Y723320D01*
X432113Y724313D01*
X431120Y724976D01*
X429950Y725209D01*
X422450D01*
X421279Y724976D01*
X420287Y724313D01*
X419624Y723320D01*
X419391Y722150D01*
Y716150D01*
X419624Y714979D01*
X420287Y713987D01*
X421279Y713324D01*
X422450Y713091D01*
X429950D01*
X431120Y713324D01*
X432113Y713987D01*
X432343Y714331D01*
X437815D01*
X438022Y714022D01*
X439056Y713331D01*
X440275Y713089D01*
X447525D01*
X448744Y713331D01*
X449778Y714022D01*
X449985Y714331D01*
X455205D01*
X455451Y714085D01*
X457105Y713400D01*
X458895D01*
X460549Y714085D01*
X460752Y714065D01*
X461017Y713667D01*
X461927Y713060D01*
X463000Y712846D01*
X476250D01*
X477323Y713060D01*
X478233Y713667D01*
X478840Y714577D01*
X479054Y715650D01*
Y720150D01*
X478953Y720657D01*
X480203Y722036D01*
X480979Y722499D01*
X481750Y722346D01*
X488153D01*
X488375Y722302D01*
X488597Y722346D01*
X495000D01*
X496073Y722560D01*
X496983Y723167D01*
X497590Y724077D01*
X497804Y725150D01*
Y729619D01*
X507705Y739520D01*
X508810Y741174D01*
X509198Y743125D01*
Y749031D01*
X511468Y750342D01*
X513702Y752576D01*
X515282Y755312D01*
X516100Y758364D01*
Y761524D01*
X515282Y764576D01*
X513702Y767312D01*
X511468Y769546D01*
X508732Y771126D01*
X505680Y771944D01*
D02*
G37*
G36*
X403180Y713029D02*
X400020D01*
X396968Y712212D01*
X394232Y710632D01*
X391998Y708398D01*
X390418Y705661D01*
X389600Y702609D01*
Y699449D01*
X390418Y696397D01*
X391998Y693661D01*
X394232Y691427D01*
X396968Y689847D01*
X400020Y689029D01*
X403180D01*
X405743Y689716D01*
X407278Y688690D01*
X409229Y688302D01*
X425625D01*
X425847Y688346D01*
X432250D01*
X433323Y688560D01*
X434233Y689167D01*
X434841Y690077D01*
X435054Y691150D01*
Y695650D01*
X434953Y696157D01*
X436203Y697536D01*
X436979Y697999D01*
X437750Y697846D01*
X451000D01*
X452073Y698060D01*
X452983Y698667D01*
X454451Y698585D01*
X456105Y697900D01*
X457838D01*
X457931Y697431D01*
X458622Y696397D01*
X459656Y695706D01*
X460875Y695464D01*
X468125D01*
X469344Y695706D01*
X470378Y696397D01*
X471069Y697431D01*
X471311Y698650D01*
Y698956D01*
X474604D01*
X474724Y698354D01*
X475387Y697362D01*
X476380Y696699D01*
X477550Y696466D01*
X485050D01*
X486221Y696699D01*
X487213Y697362D01*
X487876Y698354D01*
X488109Y699525D01*
Y705525D01*
X487876Y706695D01*
X487213Y707688D01*
X486221Y708351D01*
X485050Y708584D01*
X477550D01*
X476380Y708351D01*
X475387Y707688D01*
X474724Y706695D01*
X474604Y706094D01*
X471173D01*
X471069Y706619D01*
X470378Y707653D01*
X469344Y708344D01*
X468125Y708586D01*
X460875D01*
X459656Y708344D01*
X458622Y707653D01*
X458070Y706827D01*
X457895Y706900D01*
X456105D01*
X455992Y706853D01*
X454187Y706380D01*
X452983Y707133D01*
X452073Y707740D01*
X451000Y707954D01*
X437750D01*
X436677Y707740D01*
X435767Y707133D01*
X435160Y706223D01*
X434946Y705150D01*
Y700650D01*
X435047Y700143D01*
X433797Y698764D01*
X433021Y698300D01*
X432250Y698454D01*
X425847D01*
X425625Y698498D01*
X414330D01*
X413600Y699449D01*
Y702609D01*
X412782Y705661D01*
X411202Y708398D01*
X408968Y710632D01*
X406232Y712212D01*
X403180Y713029D01*
D02*
G37*
G36*
Y675529D02*
X400020D01*
X396968Y674712D01*
X394232Y673132D01*
X391998Y670898D01*
X390687Y668627D01*
X332565D01*
X331594Y669029D01*
X329406D01*
X327384Y668192D01*
X325837Y666645D01*
X325000Y664623D01*
Y662435D01*
X325837Y660414D01*
X327384Y658867D01*
X329406Y658029D01*
X331594D01*
X332565Y658431D01*
X390687D01*
X391998Y656161D01*
X394232Y653927D01*
X396968Y652347D01*
X400020Y651529D01*
X403180D01*
X406232Y652347D01*
X408968Y653927D01*
X411202Y656161D01*
X412782Y658897D01*
X413600Y661949D01*
Y665109D01*
X412782Y668161D01*
X411202Y670898D01*
X408968Y673132D01*
X406232Y674712D01*
X403180Y675529D01*
D02*
G37*
G36*
X505680Y712929D02*
X502520D01*
X499468Y712112D01*
X496732Y710532D01*
X494498Y708298D01*
X492918Y705561D01*
X492100Y702509D01*
Y699350D01*
X492918Y696298D01*
X494498Y693561D01*
X496732Y691327D01*
X497021Y689130D01*
X480770Y672880D01*
X479665Y671226D01*
X479277Y669275D01*
Y664954D01*
X474750D01*
X473677Y664740D01*
X472767Y664133D01*
X472160Y663223D01*
X471946Y662150D01*
Y657650D01*
X472047Y657143D01*
X470797Y655764D01*
X470021Y655301D01*
X469250Y655454D01*
X456000D01*
X454927Y655240D01*
X454017Y654633D01*
X452549Y654215D01*
X450895Y654900D01*
X449105D01*
X448759Y654990D01*
X446503Y656572D01*
X446469Y656744D01*
X445778Y657778D01*
X444744Y658469D01*
X443525Y658711D01*
X436275D01*
X435056Y658469D01*
X434022Y657778D01*
X433331Y656744D01*
X433089Y655525D01*
Y653969D01*
X429009D01*
Y654650D01*
X428776Y655820D01*
X428113Y656813D01*
X427121Y657476D01*
X425950Y657709D01*
X418450D01*
X417280Y657476D01*
X416287Y656813D01*
X415624Y655820D01*
X415391Y654650D01*
Y648650D01*
X415624Y647479D01*
X416287Y646487D01*
X417280Y645824D01*
X418450Y645591D01*
X425950D01*
X427121Y645824D01*
X428113Y646487D01*
X428343Y646831D01*
X433815D01*
X434022Y646522D01*
X435056Y645831D01*
X436275Y645589D01*
X443525D01*
X444744Y645831D01*
X445778Y646522D01*
X447451Y646585D01*
X449105Y645900D01*
X450895D01*
X452549Y646585D01*
X454017Y646167D01*
X454927Y645560D01*
X456000Y645346D01*
X469250D01*
X470323Y645560D01*
X471233Y646167D01*
X471841Y647077D01*
X472054Y648150D01*
Y652650D01*
X471953Y653157D01*
X473203Y654536D01*
X473979Y654999D01*
X474750Y654846D01*
X484153D01*
X484375Y654802D01*
X484597Y654846D01*
X488000D01*
X489073Y655060D01*
X489983Y655667D01*
X490590Y656577D01*
X490764Y657448D01*
X491272Y657726D01*
X493344Y658059D01*
X494498Y656061D01*
X496732Y653827D01*
X499468Y652247D01*
X502520Y651429D01*
X505680D01*
X508732Y652247D01*
X511468Y653827D01*
X513702Y656061D01*
X515013Y658331D01*
X564435D01*
X565406Y657929D01*
X567594D01*
X569616Y658767D01*
X571163Y660314D01*
X572000Y662335D01*
Y664523D01*
X571163Y666545D01*
X569616Y668092D01*
X567594Y668929D01*
X565406D01*
X564435Y668527D01*
X515013D01*
X513702Y670798D01*
X511468Y673032D01*
X508732Y674612D01*
X505680Y675429D01*
X502520D01*
X500896Y674994D01*
X499581Y677271D01*
X507705Y685395D01*
X508810Y687049D01*
X509198Y689000D01*
Y690016D01*
X511468Y691327D01*
X513702Y693561D01*
X515282Y696298D01*
X516100Y699350D01*
Y702509D01*
X515282Y705561D01*
X513702Y708298D01*
X511468Y710532D01*
X508732Y712112D01*
X505680Y712929D01*
D02*
G37*
G36*
X451000Y639954D02*
X437750D01*
X436677Y639740D01*
X435767Y639133D01*
X435160Y638223D01*
X434946Y637150D01*
Y632650D01*
X435047Y632143D01*
X433797Y630764D01*
X433021Y630300D01*
X432250Y630454D01*
X427374D01*
X426947Y630739D01*
X426947Y630739D01*
X424996Y631127D01*
X412513D01*
X411202Y633397D01*
X408968Y635632D01*
X406232Y637212D01*
X403180Y638029D01*
X400020D01*
X396968Y637212D01*
X394232Y635632D01*
X391998Y633397D01*
X390418Y630661D01*
X389600Y627609D01*
Y624450D01*
X390418Y621398D01*
X391998Y618661D01*
X394232Y616427D01*
X396968Y614847D01*
X400020Y614029D01*
X403180D01*
X406232Y614847D01*
X408968Y616427D01*
X411202Y618661D01*
X412513Y620931D01*
X417371D01*
X417927Y620560D01*
X419000Y620346D01*
X425403D01*
X425625Y620302D01*
X425846Y620346D01*
X432250D01*
X433323Y620560D01*
X434233Y621167D01*
X434841Y622077D01*
X435054Y623150D01*
Y627650D01*
X434953Y628157D01*
X436203Y629536D01*
X436979Y630000D01*
X437750Y629846D01*
X451000D01*
X452073Y630060D01*
X452591Y630406D01*
X452605Y630400D01*
X454395D01*
X455738Y630956D01*
X458389D01*
Y629775D01*
X458631Y628556D01*
X459322Y627522D01*
X460356Y626831D01*
X461575Y626589D01*
X468825D01*
X470044Y626831D01*
X471078Y627522D01*
X471769Y628556D01*
X472011Y629775D01*
Y630956D01*
X475191D01*
Y630650D01*
X475424Y629479D01*
X476087Y628487D01*
X477080Y627824D01*
X478250Y627591D01*
X485750D01*
X486921Y627824D01*
X487913Y628487D01*
X488576Y629479D01*
X488809Y630650D01*
Y636650D01*
X488576Y637821D01*
X487913Y638813D01*
X486921Y639476D01*
X485750Y639709D01*
X478250D01*
X477080Y639476D01*
X476087Y638813D01*
X475606Y638094D01*
X471535D01*
X471078Y638778D01*
X470044Y639469D01*
X468825Y639711D01*
X461575D01*
X460356Y639469D01*
X459322Y638778D01*
X459078Y638413D01*
X456505Y638259D01*
X456049Y638715D01*
X454395Y639400D01*
X452605D01*
X452591Y639394D01*
X452073Y639740D01*
X451000Y639954D01*
D02*
G37*
G36*
X505680Y637929D02*
X502520D01*
X499468Y637112D01*
X496732Y635532D01*
X494498Y633298D01*
X492918Y630561D01*
X492100Y627509D01*
Y624350D01*
X492918Y621297D01*
X494498Y618561D01*
X496732Y616327D01*
X499468Y614747D01*
X502402Y613961D01*
Y603512D01*
X496388Y597498D01*
X485375D01*
X485153Y597454D01*
X478750D01*
X477677Y597240D01*
X476767Y596633D01*
X476160Y595723D01*
X475946Y594650D01*
Y590150D01*
X476047Y589643D01*
X474797Y588264D01*
X474021Y587800D01*
X473250Y587954D01*
X460000D01*
X458927Y587740D01*
X458894Y587719D01*
X454545D01*
X454049Y588215D01*
X452395Y588900D01*
X450605D01*
X450163Y588717D01*
X447864Y589167D01*
X447036Y589892D01*
X446778Y590278D01*
X445744Y590969D01*
X444525Y591211D01*
X437275D01*
X436056Y590969D01*
X435022Y590278D01*
X434331Y589244D01*
X434089Y588025D01*
Y587719D01*
X429896D01*
X429776Y588321D01*
X429113Y589313D01*
X428121Y589976D01*
X426950Y590209D01*
X419450D01*
X418279Y589976D01*
X417287Y589313D01*
X416624Y588321D01*
X416391Y587150D01*
Y581150D01*
X416624Y579980D01*
X417287Y578987D01*
X418279Y578324D01*
X419450Y578091D01*
X426950D01*
X428121Y578324D01*
X429113Y578987D01*
X429776Y579980D01*
X429896Y580581D01*
X434227D01*
X434331Y580056D01*
X435022Y579022D01*
X436056Y578331D01*
X437275Y578089D01*
X444525D01*
X445744Y578331D01*
X446778Y579022D01*
X447469Y580056D01*
X450056Y580127D01*
X450605Y579900D01*
X452395D01*
X454040Y580581D01*
X457210D01*
X457410Y579577D01*
X458017Y578667D01*
X458927Y578060D01*
X460000Y577846D01*
X473250D01*
X474323Y578060D01*
X475233Y578667D01*
X475840Y579577D01*
X476054Y580650D01*
Y585150D01*
X475953Y585657D01*
X477203Y587036D01*
X477979Y587500D01*
X478750Y587346D01*
X485153D01*
X485375Y587302D01*
X498500D01*
X500451Y587690D01*
X502105Y588795D01*
X511105Y597795D01*
X512210Y599449D01*
X512598Y601400D01*
Y617457D01*
X513702Y618561D01*
X515282Y621297D01*
X516100Y624350D01*
Y627509D01*
X515282Y630561D01*
X513702Y633298D01*
X511468Y635532D01*
X508732Y637112D01*
X505680Y637929D01*
D02*
G37*
G36*
X403180Y579015D02*
X400020D01*
X396968Y578197D01*
X394232Y576617D01*
X391998Y574383D01*
X390418Y571646D01*
X389600Y568595D01*
Y565435D01*
X390418Y562383D01*
X391998Y559646D01*
X394232Y557412D01*
X396968Y555832D01*
X400020Y555015D01*
X403180D01*
X405712Y555693D01*
X405860Y555545D01*
X407514Y554440D01*
X409465Y554052D01*
X425625D01*
X425847Y554096D01*
X432250D01*
X433323Y554310D01*
X434233Y554917D01*
X434841Y555827D01*
X435054Y556900D01*
Y561400D01*
X434953Y561907D01*
X436203Y563286D01*
X436979Y563750D01*
X437750Y563596D01*
X451000D01*
X452073Y563810D01*
X452934Y564385D01*
X454105Y563900D01*
X455895D01*
X457931Y563181D01*
X458622Y562147D01*
X459656Y561456D01*
X460875Y561214D01*
X468125D01*
X469344Y561456D01*
X470378Y562147D01*
X471069Y563181D01*
X471311Y564400D01*
Y565081D01*
X474530D01*
X474724Y564104D01*
X475387Y563112D01*
X476380Y562449D01*
X477550Y562216D01*
X485050D01*
X486221Y562449D01*
X487213Y563112D01*
X487876Y564104D01*
X488109Y565275D01*
Y571275D01*
X487876Y572445D01*
X487213Y573438D01*
X486221Y574101D01*
X485050Y574334D01*
X477550D01*
X476380Y574101D01*
X475387Y573438D01*
X474724Y572445D01*
X474679Y572219D01*
X471099D01*
X471069Y572369D01*
X470378Y573403D01*
X469344Y574094D01*
X468125Y574336D01*
X460875D01*
X459656Y574094D01*
X458622Y573403D01*
X457931Y572369D01*
X455895Y572900D01*
X454105D01*
X453217Y572532D01*
X452983Y572883D01*
X452073Y573490D01*
X451000Y573704D01*
X437750D01*
X436677Y573490D01*
X435767Y572883D01*
X435160Y571973D01*
X434946Y570900D01*
Y566400D01*
X435047Y565893D01*
X433797Y564514D01*
X433021Y564050D01*
X432250Y564204D01*
X425847D01*
X425625Y564248D01*
X414511D01*
X413600Y565435D01*
Y568595D01*
X412782Y571646D01*
X411202Y574383D01*
X408968Y576617D01*
X406232Y578197D01*
X403180Y579015D01*
D02*
G37*
G36*
Y541515D02*
X400020D01*
X396968Y540697D01*
X394232Y539117D01*
X391998Y536883D01*
X390687Y534613D01*
X332565D01*
X331594Y535015D01*
X329406D01*
X327384Y534177D01*
X325837Y532630D01*
X325000Y530609D01*
Y528421D01*
X325837Y526399D01*
X327384Y524852D01*
X329406Y524015D01*
X331594D01*
X332565Y524417D01*
X390687D01*
X391998Y522146D01*
X394232Y519912D01*
X396968Y518332D01*
X400020Y517515D01*
X403180D01*
X406232Y518332D01*
X408968Y519912D01*
X411202Y522146D01*
X412782Y524883D01*
X413600Y527935D01*
Y531095D01*
X412782Y534146D01*
X411202Y536883D01*
X408968Y539117D01*
X406232Y540697D01*
X403180Y541515D01*
D02*
G37*
G36*
X505680Y578915D02*
X502520D01*
X499468Y578097D01*
X496732Y576517D01*
X494498Y574283D01*
X492918Y571547D01*
X492100Y568494D01*
Y565335D01*
X492918Y562283D01*
X494498Y559547D01*
X496732Y557312D01*
X497019Y555129D01*
X483395Y541505D01*
X482290Y539851D01*
X481902Y537900D01*
Y532137D01*
X481719Y531954D01*
X477250D01*
X476177Y531740D01*
X475267Y531133D01*
X474660Y530223D01*
X474446Y529150D01*
Y524650D01*
X474547Y524143D01*
X473297Y522764D01*
X472521Y522300D01*
X471750Y522454D01*
X458500D01*
X457427Y522240D01*
X457394Y522219D01*
X446211D01*
Y522525D01*
X445969Y523744D01*
X445278Y524778D01*
X444244Y525469D01*
X443025Y525711D01*
X435775D01*
X434556Y525469D01*
X433522Y524778D01*
X432831Y523744D01*
X432695Y523060D01*
X432395Y522900D01*
X430605D01*
X428276Y522821D01*
X427613Y523813D01*
X426621Y524476D01*
X425450Y524709D01*
X417950D01*
X416780Y524476D01*
X415787Y523813D01*
X415124Y522821D01*
X414891Y521650D01*
Y515650D01*
X415124Y514479D01*
X415787Y513487D01*
X416780Y512824D01*
X417950Y512591D01*
X425450D01*
X426621Y512824D01*
X427613Y513487D01*
X428695Y514375D01*
X430605Y513900D01*
X432395D01*
X433080Y514184D01*
X433522Y513522D01*
X434556Y512831D01*
X435775Y512589D01*
X443025D01*
X444244Y512831D01*
X445278Y513522D01*
X445969Y514556D01*
X446073Y515081D01*
X455710D01*
X455910Y514077D01*
X456517Y513167D01*
X457427Y512560D01*
X458500Y512346D01*
X471750D01*
X472823Y512560D01*
X473733Y513167D01*
X474341Y514077D01*
X474554Y515150D01*
Y519650D01*
X474453Y520157D01*
X475703Y521536D01*
X476479Y522000D01*
X477250Y521846D01*
X483653D01*
X483875Y521802D01*
X484097Y521846D01*
X490500D01*
X491573Y522060D01*
X493967Y522049D01*
X494872Y521672D01*
X496732Y519812D01*
X499468Y518232D01*
X502520Y517415D01*
X505680D01*
X508732Y518232D01*
X511468Y519812D01*
X513702Y522047D01*
X515013Y524317D01*
X564435D01*
X565406Y523915D01*
X567594D01*
X569616Y524752D01*
X571163Y526299D01*
X572000Y528321D01*
Y530509D01*
X571163Y532530D01*
X569616Y534077D01*
X567594Y534915D01*
X565406D01*
X564435Y534513D01*
X515013D01*
X513702Y536783D01*
X511468Y539017D01*
X508732Y540597D01*
X505680Y541415D01*
X502520D01*
X500876Y540974D01*
X499561Y543251D01*
X507705Y551395D01*
X508810Y553049D01*
X509198Y555000D01*
Y556002D01*
X511468Y557312D01*
X513702Y559547D01*
X515282Y562283D01*
X516100Y565335D01*
Y568494D01*
X515282Y571547D01*
X513702Y574283D01*
X511468Y576517D01*
X508732Y578097D01*
X505680Y578915D01*
D02*
G37*
G36*
X468825Y508586D02*
X461575D01*
X460356Y508344D01*
X459322Y507653D01*
X458631Y506619D01*
X458527Y506094D01*
X453616D01*
X453590Y506223D01*
X452983Y507133D01*
X452073Y507740D01*
X451000Y507954D01*
X437750D01*
X436677Y507740D01*
X435767Y507133D01*
X435160Y506223D01*
X434946Y505150D01*
Y500650D01*
X435047Y500143D01*
X433797Y498764D01*
X433021Y498301D01*
X432250Y498454D01*
X425847D01*
X425625Y498498D01*
X411713D01*
X411202Y499383D01*
X408968Y501617D01*
X406232Y503197D01*
X403180Y504015D01*
X400020D01*
X396968Y503197D01*
X394232Y501617D01*
X391998Y499383D01*
X390418Y496646D01*
X389600Y493595D01*
Y490435D01*
X390418Y487383D01*
X391998Y484646D01*
X394232Y482412D01*
X396968Y480832D01*
X400020Y480015D01*
X403180D01*
X406232Y480832D01*
X408968Y482412D01*
X411202Y484646D01*
X412782Y487383D01*
X413028Y488302D01*
X425625D01*
X425847Y488346D01*
X432250D01*
X433323Y488560D01*
X434233Y489167D01*
X434841Y490077D01*
X435054Y491150D01*
Y495650D01*
X434953Y496157D01*
X436203Y497536D01*
X436979Y497999D01*
X437750Y497846D01*
X451000D01*
X452073Y498060D01*
X452983Y498667D01*
X453176Y498956D01*
X458389D01*
Y498650D01*
X458631Y497431D01*
X459322Y496397D01*
X460356Y495706D01*
X461575Y495464D01*
X468825D01*
X470044Y495706D01*
X471078Y496397D01*
X471769Y497431D01*
X471962Y498400D01*
X472395D01*
X472837Y498583D01*
X475424Y498354D01*
X476087Y497362D01*
X477080Y496699D01*
X478250Y496466D01*
X485750D01*
X486921Y496699D01*
X487913Y497362D01*
X488576Y498354D01*
X488809Y499525D01*
Y505525D01*
X488576Y506696D01*
X487913Y507688D01*
X486921Y508351D01*
X485750Y508584D01*
X478250D01*
X477080Y508351D01*
X476087Y507688D01*
X474417Y506890D01*
X472930Y507178D01*
X472395Y507400D01*
X471247D01*
X471078Y507653D01*
X470044Y508344D01*
X468825Y508586D01*
D02*
G37*
G36*
X505680Y503915D02*
X502520D01*
X499468Y503097D01*
X496732Y501517D01*
X494498Y499283D01*
X492918Y496547D01*
X492100Y493494D01*
Y490335D01*
X492918Y487283D01*
X494498Y484547D01*
X496732Y482312D01*
X499002Y481002D01*
Y475112D01*
X490388Y466498D01*
X480375D01*
X480153Y466454D01*
X473750D01*
X472677Y466240D01*
X471767Y465633D01*
X471160Y464723D01*
X470946Y463650D01*
Y459150D01*
X471047Y458643D01*
X469797Y457264D01*
X469021Y456800D01*
X468250Y456954D01*
X455000D01*
X453927Y456740D01*
X453894Y456719D01*
X448811D01*
Y457025D01*
X448569Y458244D01*
X447878Y459278D01*
X446844Y459969D01*
X445625Y460211D01*
X438375D01*
X437156Y459969D01*
X436122Y459278D01*
X435431Y458244D01*
X434616Y457808D01*
X434395Y457900D01*
X432605D01*
X431133Y457290D01*
X431076Y457321D01*
X430413Y458313D01*
X429421Y458976D01*
X428250Y459209D01*
X420750D01*
X419580Y458976D01*
X418587Y458313D01*
X417924Y457321D01*
X417691Y456150D01*
Y450848D01*
X415947Y449855D01*
X415215Y449731D01*
X411309Y453638D01*
Y460150D01*
X411076Y461320D01*
X410413Y462313D01*
X409421Y462976D01*
X408250Y463209D01*
X402250D01*
X401079Y462976D01*
X400087Y462313D01*
X399424Y461320D01*
X399191Y460150D01*
Y452650D01*
X399424Y451479D01*
X400087Y450487D01*
X401079Y449824D01*
X402250Y449591D01*
X405262D01*
X409796Y445058D01*
X408236Y443025D01*
X406232Y444182D01*
X403180Y445000D01*
X400020D01*
X396968Y444182D01*
X394232Y442602D01*
X391998Y440368D01*
X390418Y437632D01*
X389600Y434580D01*
Y431420D01*
X390418Y428368D01*
X391998Y425632D01*
X394232Y423398D01*
X396968Y421818D01*
X400020Y421000D01*
X403180D01*
X406232Y421818D01*
X407937Y422802D01*
X425625D01*
X425847Y422846D01*
X432250D01*
X433323Y423060D01*
X434233Y423667D01*
X434841Y424577D01*
X435054Y425650D01*
Y430150D01*
X434953Y430657D01*
X436203Y432036D01*
X436979Y432500D01*
X437750Y432346D01*
X451000D01*
X452073Y432560D01*
X452983Y433167D01*
X453176Y433456D01*
X457689D01*
Y433150D01*
X457931Y431931D01*
X458622Y430897D01*
X459656Y430206D01*
X460875Y429964D01*
X468125D01*
X469344Y430206D01*
X470378Y430897D01*
X471069Y431931D01*
X471311Y433150D01*
Y433456D01*
X474604D01*
X474724Y432854D01*
X475387Y431862D01*
X476380Y431199D01*
X477550Y430966D01*
X485050D01*
X486221Y431199D01*
X487213Y431862D01*
X487876Y432854D01*
X488109Y434025D01*
Y440025D01*
X487876Y441195D01*
X487213Y442188D01*
X486221Y442851D01*
X485050Y443084D01*
X477550D01*
X476380Y442851D01*
X475387Y442188D01*
X474724Y441195D01*
X474604Y440594D01*
X471173D01*
X471069Y441119D01*
X470378Y442153D01*
X469344Y442844D01*
X468125Y443086D01*
X460875D01*
X459656Y442844D01*
X458622Y442153D01*
X457931Y441119D01*
X457827Y440594D01*
X453616D01*
X453590Y440723D01*
X452983Y441633D01*
X452073Y442240D01*
X451000Y442454D01*
X437750D01*
X436677Y442240D01*
X435767Y441633D01*
X435324Y440969D01*
X423978D01*
X420331Y444615D01*
X420455Y445347D01*
X421448Y447091D01*
X428250D01*
X429421Y447324D01*
X430413Y447987D01*
X431076Y448979D01*
X431660Y449291D01*
X432605Y448900D01*
X434395D01*
X435143Y449210D01*
X435431Y449056D01*
X436122Y448022D01*
X437156Y447331D01*
X438375Y447089D01*
X445625D01*
X446844Y447331D01*
X447878Y448022D01*
X448569Y449056D01*
X448673Y449581D01*
X452210D01*
X452410Y448577D01*
X453017Y447667D01*
X453927Y447060D01*
X455000Y446846D01*
X468250D01*
X469323Y447060D01*
X470233Y447667D01*
X470840Y448577D01*
X471054Y449650D01*
Y454150D01*
X470953Y454657D01*
X472203Y456036D01*
X472979Y456499D01*
X473750Y456346D01*
X480153D01*
X480375Y456302D01*
X492500D01*
X494451Y456690D01*
X496105Y457795D01*
X507705Y469395D01*
X508810Y471049D01*
X509198Y473000D01*
Y481002D01*
X511468Y482312D01*
X513702Y484547D01*
X515282Y487283D01*
X516100Y490335D01*
Y493494D01*
X515282Y496547D01*
X513702Y499283D01*
X511468Y501517D01*
X508732Y503097D01*
X505680Y503915D01*
D02*
G37*
G36*
X391750Y463209D02*
X385750D01*
X384580Y462976D01*
X383587Y462313D01*
X382924Y461320D01*
X382691Y460150D01*
Y454163D01*
X382000Y452494D01*
Y450306D01*
X382837Y448284D01*
X384384Y446737D01*
X386406Y445900D01*
X388594D01*
X390616Y446737D01*
X392163Y448284D01*
X392790Y449798D01*
X392921Y449824D01*
X393913Y450487D01*
X394576Y451479D01*
X394809Y452650D01*
Y460150D01*
X394576Y461320D01*
X393913Y462313D01*
X392921Y462976D01*
X391750Y463209D01*
D02*
G37*
G36*
X505680Y444900D02*
X502520D01*
X499468Y444082D01*
X496732Y442502D01*
X494498Y440268D01*
X492918Y437532D01*
X492100Y434480D01*
Y431320D01*
X492918Y428268D01*
X494498Y425532D01*
X496732Y423298D01*
X496901Y422011D01*
X476770Y401880D01*
X475665Y400226D01*
X475412Y398954D01*
X473750D01*
X472677Y398740D01*
X471767Y398133D01*
X471160Y397223D01*
X470946Y396150D01*
Y391650D01*
X471047Y391143D01*
X469797Y389764D01*
X469021Y389300D01*
X468250Y389454D01*
X455000D01*
X453927Y389240D01*
X453017Y388633D01*
X452574Y387969D01*
X448811D01*
Y389025D01*
X448569Y390244D01*
X447878Y391278D01*
X446844Y391969D01*
X445625Y392211D01*
X438375D01*
X437156Y391969D01*
X436122Y391278D01*
X435431Y390244D01*
X435189Y389025D01*
Y387969D01*
X431309D01*
Y388150D01*
X431076Y389320D01*
X430413Y390313D01*
X429421Y390976D01*
X428250Y391209D01*
X420750D01*
X419580Y390976D01*
X418587Y390313D01*
X417924Y389320D01*
X417691Y388150D01*
Y383138D01*
X417522Y382969D01*
X408975D01*
X408294Y385509D01*
X408968Y385898D01*
X411202Y388132D01*
X412782Y390868D01*
X413600Y393920D01*
Y397080D01*
X412782Y400132D01*
X411202Y402868D01*
X408968Y405102D01*
X406560Y406493D01*
X406310Y407751D01*
X405205Y409405D01*
X398605Y416005D01*
X396951Y417110D01*
X395000Y417498D01*
X332565D01*
X331594Y417900D01*
X329406D01*
X327384Y417063D01*
X325837Y415516D01*
X325000Y413494D01*
Y411306D01*
X325837Y409285D01*
X327384Y407737D01*
X329406Y406900D01*
X331594D01*
X332565Y407302D01*
X375467D01*
X375979Y406794D01*
X376955Y404762D01*
X376430Y403494D01*
Y401615D01*
X366524Y391709D01*
X363250D01*
X362080Y391476D01*
X361087Y390813D01*
X360424Y389821D01*
X360191Y388650D01*
Y381150D01*
X360424Y379980D01*
X361087Y378987D01*
X361801Y378510D01*
X361950Y377150D01*
X361801Y375790D01*
X361087Y375313D01*
X360424Y374320D01*
X360191Y373150D01*
Y365650D01*
X360424Y364479D01*
X361087Y363487D01*
X362080Y362824D01*
X363250Y362591D01*
X365484D01*
X371890Y356185D01*
Y354306D01*
X372727Y352285D01*
X374274Y350737D01*
X376296Y349900D01*
X378484D01*
X380505Y350737D01*
X382053Y352285D01*
X382890Y354306D01*
Y356494D01*
X382053Y358516D01*
X380517Y360051D01*
X380517Y360119D01*
X381038Y362591D01*
X385750D01*
X386875Y362815D01*
X386921Y362824D01*
X386921Y362824D01*
X387293Y363073D01*
X387919Y363487D01*
X388108Y363476D01*
X389980Y360999D01*
X389600Y359580D01*
Y356420D01*
X390418Y353368D01*
X391998Y350632D01*
X394232Y348398D01*
X396968Y346818D01*
X400020Y346000D01*
X403180D01*
X406232Y346818D01*
X408968Y348398D01*
X411202Y350632D01*
X412782Y353368D01*
X412932Y353927D01*
X425625D01*
X425847Y353971D01*
X432250D01*
X433323Y354185D01*
X434233Y354792D01*
X434841Y355702D01*
X435054Y356775D01*
Y361275D01*
X434953Y361782D01*
X436203Y363161D01*
X436979Y363624D01*
X437750Y363471D01*
X451000D01*
X452073Y363685D01*
X452983Y364292D01*
X453176Y364581D01*
X456789D01*
Y364275D01*
X457031Y363056D01*
X457722Y362022D01*
X458756Y361331D01*
X459975Y361089D01*
X467225D01*
X468444Y361331D01*
X469478Y362022D01*
X470169Y363056D01*
X470411Y364275D01*
Y364581D01*
X474604D01*
X474724Y363979D01*
X475387Y362987D01*
X476380Y362324D01*
X477550Y362091D01*
X485050D01*
X486221Y362324D01*
X487213Y362987D01*
X487876Y363979D01*
X488109Y365150D01*
Y371150D01*
X487876Y372321D01*
X487213Y373313D01*
X486221Y373976D01*
X485050Y374209D01*
X477550D01*
X476380Y373976D01*
X475387Y373313D01*
X474724Y372321D01*
X474604Y371719D01*
X470273D01*
X470169Y372244D01*
X469478Y373278D01*
X468444Y373969D01*
X467225Y374211D01*
X459975D01*
X458756Y373969D01*
X457722Y373278D01*
X457031Y372244D01*
X456927Y371719D01*
X453616D01*
X453590Y371848D01*
X452983Y372758D01*
X452073Y373365D01*
X451000Y373579D01*
X437750D01*
X436677Y373365D01*
X435767Y372758D01*
X435324Y372094D01*
X416776D01*
X415860Y373291D01*
X417114Y375831D01*
X419000D01*
X420366Y376103D01*
X421523Y376877D01*
X423738Y379091D01*
X428250D01*
X429421Y379324D01*
X430413Y379987D01*
X430977Y380831D01*
X435581D01*
X436122Y380022D01*
X437156Y379331D01*
X438375Y379089D01*
X445625D01*
X446844Y379331D01*
X447878Y380022D01*
X448419Y380831D01*
X452574D01*
X453017Y380167D01*
X453927Y379560D01*
X455000Y379346D01*
X468250D01*
X469323Y379560D01*
X470233Y380167D01*
X470840Y381077D01*
X471054Y382150D01*
Y386650D01*
X470953Y387157D01*
X472203Y388536D01*
X472979Y388999D01*
X473750Y388846D01*
X480153D01*
X480375Y388802D01*
X480597Y388846D01*
X487000D01*
X488073Y389060D01*
X488983Y389667D01*
X489590Y390577D01*
X489804Y391650D01*
Y392576D01*
X492344Y392910D01*
X492918Y390768D01*
X494498Y388032D01*
X496732Y385798D01*
X499468Y384218D01*
X502520Y383400D01*
X505680D01*
X508732Y384218D01*
X511468Y385798D01*
X513702Y388032D01*
X515013Y390302D01*
X564435D01*
X565406Y389900D01*
X567594D01*
X569616Y390737D01*
X571163Y392285D01*
X572000Y394306D01*
Y396494D01*
X571163Y398516D01*
X569616Y400063D01*
X567594Y400900D01*
X565406D01*
X564435Y400498D01*
X515013D01*
X513702Y402768D01*
X511468Y405002D01*
X508732Y406582D01*
X505680Y407400D01*
X502520D01*
X499468Y406582D01*
X497946Y408636D01*
X507705Y418395D01*
X508810Y420049D01*
X509195Y421985D01*
X511468Y423298D01*
X513702Y425532D01*
X515282Y428268D01*
X516100Y431320D01*
Y434480D01*
X515282Y437532D01*
X513702Y440268D01*
X511468Y442502D01*
X508732Y444082D01*
X505680Y444900D01*
D02*
G37*
G36*
Y369900D02*
X502520D01*
X499468Y369082D01*
X496732Y367502D01*
X494498Y365268D01*
X492918Y362532D01*
X492100Y359480D01*
Y356320D01*
X492918Y353268D01*
X494498Y350532D01*
X496732Y348298D01*
X499002Y346987D01*
Y335612D01*
X492388Y328998D01*
X486375D01*
X486153Y328954D01*
X479750D01*
X478677Y328740D01*
X477767Y328133D01*
X477160Y327223D01*
X476946Y326150D01*
Y321650D01*
X477047Y321143D01*
X475797Y319764D01*
X475021Y319300D01*
X474250Y319454D01*
X461000D01*
X459927Y319240D01*
X459520Y318969D01*
X448711D01*
Y319525D01*
X448469Y320744D01*
X447778Y321778D01*
X446744Y322469D01*
X445525Y322711D01*
X438275D01*
X437056Y322469D01*
X436022Y321778D01*
X435331Y320744D01*
X435089Y319525D01*
Y318969D01*
X430945D01*
X430776Y319820D01*
X430113Y320813D01*
X429121Y321476D01*
X427950Y321709D01*
X420450D01*
X419280Y321476D01*
X418287Y320813D01*
X417624Y319820D01*
X417455Y318969D01*
X412309D01*
Y319150D01*
X412076Y320321D01*
X411413Y321313D01*
X410420Y321976D01*
X409250Y322209D01*
X403250D01*
X402080Y321976D01*
X401087Y321313D01*
X400424Y320321D01*
X400191Y319150D01*
Y311650D01*
X400133Y310919D01*
X397879Y309423D01*
X396158Y310017D01*
X395650Y310854D01*
X395809Y311650D01*
Y319150D01*
X395576Y320321D01*
X394913Y321313D01*
X393921Y321976D01*
X392750Y322209D01*
X386750D01*
X385579Y321976D01*
X384587Y321313D01*
X383924Y320321D01*
X383691Y319150D01*
Y318734D01*
X377836D01*
X377513Y319515D01*
X375965Y321063D01*
X373944Y321900D01*
X371756D01*
X369734Y321063D01*
X368187Y319515D01*
X367350Y317494D01*
Y315306D01*
X368187Y313284D01*
X369734Y311737D01*
X371756Y310900D01*
X373944D01*
X375965Y311737D01*
X376294Y312066D01*
X383691D01*
Y311650D01*
X383924Y310479D01*
X384587Y309487D01*
X385579Y308824D01*
X386750Y308591D01*
X392128D01*
X393041Y307087D01*
X393232Y306103D01*
X391998Y304868D01*
X390418Y302132D01*
X389600Y299080D01*
Y295920D01*
X390418Y292868D01*
X391998Y290132D01*
X394232Y287898D01*
X395312Y287274D01*
X394631Y284734D01*
X391809D01*
Y285150D01*
X391576Y286320D01*
X390913Y287313D01*
X389921Y287976D01*
X388750Y288209D01*
X382750D01*
X381580Y287976D01*
X380587Y287313D01*
X379924Y286320D01*
X379691Y285150D01*
Y277650D01*
X379924Y276479D01*
X380587Y275487D01*
X381580Y274824D01*
X382750Y274591D01*
X388750D01*
X389921Y274824D01*
X390913Y275487D01*
X391576Y276479D01*
X391809Y277650D01*
Y278066D01*
X396516D01*
X397185Y276451D01*
X398451Y275185D01*
X399488Y274756D01*
X400105Y274500D01*
X400020Y272000D01*
X399607Y271889D01*
X396968Y271182D01*
X394232Y269602D01*
X393727Y269098D01*
X375438D01*
X373740Y271638D01*
X373810Y271806D01*
Y273994D01*
X373456Y274848D01*
X374413Y275487D01*
X375076Y276479D01*
X375309Y277650D01*
Y285150D01*
X375076Y286320D01*
X374413Y287313D01*
X373420Y287976D01*
X372250Y288209D01*
X366250D01*
X365079Y287976D01*
X364087Y287313D01*
X363424Y286320D01*
X363191Y285150D01*
Y277650D01*
X363424Y276479D01*
X363699Y276068D01*
X363647Y276015D01*
X362810Y273994D01*
Y271806D01*
X362880Y271638D01*
X361182Y269098D01*
X332065D01*
X331094Y269500D01*
X328906D01*
X326884Y268663D01*
X325337Y267115D01*
X324500Y265094D01*
Y262906D01*
X325337Y260884D01*
X326884Y259337D01*
X328906Y258500D01*
X331094D01*
X332065Y258902D01*
X360955D01*
X362653Y256362D01*
X362500Y255994D01*
Y253806D01*
X362979Y252651D01*
X362424Y251821D01*
X362191Y250650D01*
Y243150D01*
X362424Y241979D01*
X363087Y240987D01*
X364080Y240324D01*
X364729Y240195D01*
Y237605D01*
X364080Y237476D01*
X363087Y236813D01*
X363035Y236735D01*
X360284Y236101D01*
X359900Y236152D01*
X358094Y236900D01*
X355906D01*
X353885Y236063D01*
X352337Y234515D01*
X351500Y232494D01*
Y230306D01*
X352337Y228284D01*
X353885Y226737D01*
X355906Y225900D01*
X358094D01*
X359716Y226572D01*
X361335Y226218D01*
X362635Y225664D01*
X363087Y224987D01*
X364080Y224324D01*
X365250Y224091D01*
X371250D01*
X372421Y224324D01*
X373413Y224987D01*
X374076Y225979D01*
X374309Y227150D01*
Y234650D01*
X374076Y235821D01*
X373413Y236813D01*
X372421Y237476D01*
X371771Y237605D01*
Y240195D01*
X372421Y240324D01*
X373413Y240987D01*
X374076Y241979D01*
X374309Y243150D01*
Y250650D01*
X374076Y251821D01*
X373413Y252813D01*
X373159Y252983D01*
X373500Y253806D01*
Y255994D01*
X373348Y256362D01*
X375045Y258902D01*
X389600D01*
Y258420D01*
X390365Y255566D01*
X389642Y254520D01*
X388533Y253553D01*
X387750Y253709D01*
X381750D01*
X380579Y253476D01*
X379587Y252813D01*
X378924Y251821D01*
X378691Y250650D01*
Y243150D01*
X378924Y241979D01*
X379587Y240987D01*
X380579Y240324D01*
X381229Y240195D01*
Y237605D01*
X380579Y237476D01*
X379587Y236813D01*
X378924Y235821D01*
X378691Y234650D01*
Y227150D01*
X378924Y225979D01*
X379587Y224987D01*
X380579Y224324D01*
X381750Y224091D01*
X387232D01*
X387752Y224089D01*
X389600Y221956D01*
Y220920D01*
X390418Y217868D01*
X391998Y215132D01*
X394232Y212898D01*
X396968Y211318D01*
X400020Y210500D01*
X403180D01*
X406232Y211318D01*
X408968Y212898D01*
X409003Y212932D01*
X413196Y208739D01*
Y206150D01*
X413410Y205077D01*
X414017Y204167D01*
X414927Y203560D01*
X416000Y203346D01*
X429250D01*
X430323Y203560D01*
X431233Y204167D01*
X431841Y205077D01*
X432054Y206150D01*
Y210650D01*
X431953Y211157D01*
X433203Y212536D01*
X433979Y212999D01*
X434750Y212846D01*
X448000D01*
X449073Y213060D01*
X449983Y213667D01*
X450176Y213956D01*
X455189D01*
Y213775D01*
X455431Y212556D01*
X456122Y211522D01*
X457156Y210831D01*
X458375Y210589D01*
X465625D01*
X466844Y210831D01*
X467878Y211522D01*
X468569Y212556D01*
X468811Y213775D01*
Y213956D01*
X472804D01*
X472924Y213354D01*
X473587Y212362D01*
X474580Y211699D01*
X475750Y211466D01*
X483250D01*
X484421Y211699D01*
X485413Y212362D01*
X486076Y213354D01*
X486309Y214525D01*
Y220525D01*
X486076Y221695D01*
X485413Y222688D01*
X484421Y223351D01*
X483250Y223584D01*
X475750D01*
X474580Y223351D01*
X473587Y222688D01*
X472924Y221695D01*
X472804Y221094D01*
X468698D01*
X468569Y221744D01*
X467878Y222778D01*
X466844Y223469D01*
X465625Y223711D01*
X458375D01*
X457156Y223469D01*
X456122Y222778D01*
X455431Y221744D01*
X455302Y221094D01*
X450616D01*
X450590Y221223D01*
X449983Y222133D01*
X449073Y222740D01*
X448000Y222954D01*
X434750D01*
X433677Y222740D01*
X432767Y222133D01*
X430221Y222894D01*
X425064Y228051D01*
X426116Y230591D01*
X430075D01*
X431245Y230824D01*
X432238Y231487D01*
X432468Y231831D01*
X437940D01*
X438147Y231522D01*
X439181Y230831D01*
X440400Y230589D01*
X447650D01*
X448869Y230831D01*
X449903Y231522D01*
X450110Y231831D01*
X457074D01*
X457517Y231167D01*
X458427Y230560D01*
X459500Y230346D01*
X472750D01*
X473823Y230560D01*
X474733Y231167D01*
X475340Y232077D01*
X475554Y233150D01*
Y237650D01*
X475453Y238157D01*
X476703Y239536D01*
X477479Y240000D01*
X478250Y239846D01*
X491500D01*
X492573Y240060D01*
X493483Y240667D01*
X494090Y241577D01*
X494304Y242650D01*
Y247150D01*
X494090Y248223D01*
X493483Y249133D01*
X492573Y249740D01*
X491500Y249954D01*
X488444D01*
Y257423D01*
X489576Y258280D01*
X490033Y258288D01*
X492369Y257318D01*
X492918Y255268D01*
X494498Y252532D01*
X496732Y250298D01*
X499468Y248718D01*
X502520Y247900D01*
X505680D01*
X508732Y248718D01*
X511468Y250298D01*
X513702Y252532D01*
X515282Y255268D01*
X515321Y255412D01*
X562810D01*
X563885Y254337D01*
X565906Y253500D01*
X568094D01*
X570116Y254337D01*
X571663Y255884D01*
X572500Y257906D01*
Y260094D01*
X571663Y262115D01*
X570116Y263663D01*
X568094Y264500D01*
X565906D01*
X565905Y264499D01*
X565459Y264588D01*
X515250D01*
X513702Y267268D01*
X511468Y269502D01*
X508732Y271082D01*
X505680Y271900D01*
X505426D01*
X504374Y274440D01*
X506623Y276689D01*
X507397Y277847D01*
X507669Y279212D01*
Y285933D01*
X508732Y286218D01*
X511468Y287798D01*
X513702Y290032D01*
X515282Y292768D01*
X516100Y295820D01*
Y298980D01*
X515282Y302032D01*
X513702Y304768D01*
X511468Y307002D01*
X508732Y308582D01*
X505680Y309400D01*
X502520D01*
X499468Y308582D01*
X496732Y307002D01*
X494498Y304768D01*
X492918Y302032D01*
X492100Y298980D01*
Y295820D01*
X492273Y295175D01*
X492383Y294763D01*
X490043Y293703D01*
X489713Y294188D01*
X489713Y294188D01*
X489611Y294256D01*
X488721Y294851D01*
X487550Y295084D01*
X480050D01*
X478880Y294851D01*
X477887Y294188D01*
X477224Y293195D01*
X477179Y292969D01*
X472699D01*
X472669Y293119D01*
X471978Y294153D01*
X470944Y294844D01*
X469725Y295086D01*
X462475D01*
X461256Y294844D01*
X460222Y294153D01*
X458951Y293317D01*
X457232Y293902D01*
X456995Y294000D01*
X455005D01*
X453168Y293239D01*
X451483Y293633D01*
X450573Y294240D01*
X449500Y294454D01*
X436250D01*
X435177Y294240D01*
X434267Y293633D01*
X433660Y292723D01*
X433446Y291650D01*
Y287150D01*
X433547Y286643D01*
X432297Y285264D01*
X431521Y284800D01*
X430750Y284954D01*
X419411D01*
X412312Y292053D01*
X412782Y292868D01*
X413600Y295920D01*
Y299080D01*
X412782Y302132D01*
X411202Y304868D01*
X409933Y306137D01*
X410361Y308494D01*
X410621Y308958D01*
X411413Y309487D01*
X412076Y310479D01*
X412309Y311650D01*
Y311831D01*
X417554D01*
X417624Y311479D01*
X418287Y310487D01*
X419280Y309824D01*
X420450Y309591D01*
X427950D01*
X429121Y309824D01*
X430113Y310487D01*
X430776Y311479D01*
X430846Y311831D01*
X435276D01*
X435331Y311556D01*
X436022Y310522D01*
X437056Y309831D01*
X438275Y309589D01*
X445525D01*
X446744Y309831D01*
X447778Y310522D01*
X448469Y311556D01*
X448523Y311831D01*
X458260D01*
X458410Y311077D01*
X459017Y310167D01*
X459927Y309560D01*
X461000Y309346D01*
X474250D01*
X475323Y309560D01*
X476233Y310167D01*
X476840Y311077D01*
X477054Y312150D01*
Y316650D01*
X476953Y317157D01*
X478203Y318536D01*
X478979Y319000D01*
X479750Y318846D01*
X486153D01*
X486375Y318802D01*
X494500D01*
X496451Y319190D01*
X498105Y320295D01*
X507705Y329895D01*
X508810Y331549D01*
X509198Y333500D01*
Y346987D01*
X511468Y348298D01*
X513702Y350532D01*
X515282Y353268D01*
X516100Y356320D01*
Y359480D01*
X515282Y362532D01*
X513702Y365268D01*
X511468Y367502D01*
X508732Y369082D01*
X505680Y369900D01*
D02*
G37*
G36*
Y234400D02*
X502520D01*
X499468Y233582D01*
X496732Y232002D01*
X494498Y229768D01*
X492918Y227032D01*
X492100Y223980D01*
Y220820D01*
X492918Y217768D01*
X494498Y215032D01*
X496732Y212798D01*
X499468Y211218D01*
X500766Y210870D01*
Y207746D01*
X481818Y188798D01*
X481095Y187716D01*
X480841Y186440D01*
Y178454D01*
X477550D01*
X476477Y178240D01*
X475567Y177633D01*
X474960Y176723D01*
X474746Y175650D01*
Y171150D01*
X474847Y170643D01*
X473597Y169264D01*
X472821Y168801D01*
X472050Y168954D01*
X458800D01*
X457727Y168740D01*
X456817Y168133D01*
X456635Y167859D01*
X449011D01*
Y169025D01*
X448769Y170244D01*
X448078Y171278D01*
X447044Y171969D01*
X445825Y172211D01*
X438575D01*
X437356Y171969D01*
X436322Y171278D01*
X435631Y170244D01*
X435389Y169025D01*
Y167859D01*
X431309D01*
Y168150D01*
X431076Y169321D01*
X430413Y170313D01*
X429421Y170976D01*
X428250Y171209D01*
X420750D01*
X419580Y170976D01*
X418587Y170313D01*
X417924Y169321D01*
X417691Y168150D01*
Y162150D01*
X417924Y160979D01*
X418587Y159987D01*
X419580Y159324D01*
X420750Y159091D01*
X428250D01*
X429421Y159324D01*
X430413Y159987D01*
X431076Y160979D01*
X431118Y161191D01*
X435604D01*
X435631Y161056D01*
X436322Y160022D01*
X437356Y159331D01*
X438575Y159089D01*
X443416D01*
Y153642D01*
X442579Y153476D01*
X441587Y152813D01*
X440924Y151820D01*
X440691Y150650D01*
Y143150D01*
X440924Y141980D01*
X441587Y140987D01*
X442579Y140324D01*
X443750Y140091D01*
X449750D01*
X450920Y140324D01*
X451913Y140987D01*
X452576Y141980D01*
X452809Y143150D01*
Y150650D01*
X452576Y151820D01*
X451913Y152813D01*
X450920Y153476D01*
X450084Y153642D01*
Y161191D01*
X456087D01*
X456210Y160577D01*
X456817Y159667D01*
X457727Y159060D01*
X458800Y158846D01*
X472050D01*
X473123Y159060D01*
X474033Y159667D01*
X474641Y160577D01*
X474854Y161650D01*
Y166150D01*
X474753Y166657D01*
X476003Y168036D01*
X476779Y168500D01*
X477550Y168346D01*
X490800D01*
X491873Y168560D01*
X492783Y169167D01*
X493390Y170077D01*
X493604Y171150D01*
Y175650D01*
X493390Y176723D01*
X492783Y177633D01*
X491873Y178240D01*
X490800Y178454D01*
X487509D01*
Y185059D01*
X506457Y204008D01*
X507180Y205089D01*
X507434Y206365D01*
Y210870D01*
X508732Y211218D01*
X511468Y212798D01*
X513702Y215032D01*
X515282Y217768D01*
X516100Y220820D01*
Y223980D01*
X515282Y227032D01*
X513702Y229768D01*
X511468Y232002D01*
X508732Y233582D01*
X505680Y234400D01*
D02*
G37*
G36*
X466250Y153709D02*
X460250D01*
X459080Y153476D01*
X458087Y152813D01*
X457424Y151820D01*
X457191Y150650D01*
Y143150D01*
X457424Y141980D01*
X458087Y140987D01*
X459080Y140324D01*
X460250Y140091D01*
X466250D01*
X467421Y140324D01*
X468413Y140987D01*
X469076Y141980D01*
X469309Y143150D01*
Y143566D01*
X475182D01*
X475761Y142168D01*
X477168Y140761D01*
X479005Y140000D01*
X480995D01*
X482832Y140761D01*
X484239Y142168D01*
X485000Y144005D01*
Y145995D01*
X484239Y147832D01*
X482832Y149239D01*
X480995Y150000D01*
X479005D01*
X478638Y149848D01*
X478440Y149980D01*
X477164Y150234D01*
X469309D01*
Y150650D01*
X469076Y151820D01*
X468413Y152813D01*
X467421Y153476D01*
X466250Y153709D01*
D02*
G37*
G36*
X545395Y141900D02*
X543605D01*
X541951Y141215D01*
X540685Y139949D01*
X540000Y138295D01*
Y136505D01*
X540685Y134851D01*
X541166Y134370D01*
Y108209D01*
X540750D01*
X539580Y107976D01*
X538587Y107313D01*
X537924Y106320D01*
X537691Y105150D01*
Y99150D01*
X537924Y97979D01*
X538587Y96987D01*
X539580Y96324D01*
X540750Y96091D01*
X548250D01*
X549421Y96324D01*
X550413Y96987D01*
X551076Y97979D01*
X551309Y99150D01*
Y105150D01*
X551076Y106320D01*
X550413Y107313D01*
X549421Y107976D01*
X548250Y108209D01*
X547834D01*
Y134370D01*
X548315Y134851D01*
X549000Y136505D01*
Y138295D01*
X548315Y139949D01*
X547049Y141215D01*
X545395Y141900D01*
D02*
G37*
G36*
X506395Y134400D02*
X504605D01*
X502951Y133715D01*
X501685Y132449D01*
X501000Y130795D01*
Y129005D01*
X501685Y127351D01*
X502951Y126085D01*
X504605Y125400D01*
X505285D01*
X519166Y111519D01*
Y108209D01*
X518750D01*
X517579Y107976D01*
X516587Y107313D01*
X515924Y106320D01*
X515691Y105150D01*
Y99150D01*
X515924Y97979D01*
X516587Y96987D01*
X517579Y96324D01*
X518750Y96091D01*
X526250D01*
X527421Y96324D01*
X528413Y96987D01*
X529076Y97979D01*
X529309Y99150D01*
Y105150D01*
X529076Y106320D01*
X528413Y107313D01*
X527421Y107976D01*
X526250Y108209D01*
X525834D01*
Y112900D01*
X525580Y114176D01*
X524857Y115258D01*
X510000Y130115D01*
Y130795D01*
X509315Y132449D01*
X508049Y133715D01*
X506395Y134400D01*
D02*
G37*
G36*
X351895Y148400D02*
X350105D01*
X348451Y147715D01*
X347185Y146449D01*
X346500Y144795D01*
Y143005D01*
X347185Y141351D01*
X348451Y140085D01*
X350105Y139400D01*
X351895D01*
X353549Y140085D01*
X353574Y140111D01*
X372142Y121542D01*
X372143Y121542D01*
X380291Y113394D01*
Y108209D01*
X379750D01*
X378579Y107976D01*
X377587Y107313D01*
X376924Y106320D01*
X376691Y105150D01*
Y99150D01*
X376924Y97979D01*
X377587Y96987D01*
X378579Y96324D01*
X379750Y96091D01*
X387250D01*
X388421Y96324D01*
X389413Y96987D01*
X390076Y97979D01*
X390309Y99150D01*
Y105150D01*
X390076Y106320D01*
X389413Y107313D01*
X388421Y107976D01*
X387250Y108209D01*
X386959D01*
Y114775D01*
X386705Y116051D01*
X385983Y117133D01*
X376858Y126257D01*
X376858Y126257D01*
X356857Y146257D01*
X355776Y146980D01*
X354500Y147234D01*
X354030D01*
X353549Y147715D01*
X351895Y148400D01*
D02*
G37*
G36*
X345895Y110900D02*
X344105D01*
X342451Y110215D01*
X341185Y108949D01*
X340500Y107295D01*
Y105505D01*
X341185Y103851D01*
X342451Y102585D01*
X344105Y101900D01*
X345895D01*
X347549Y102585D01*
X348030Y103066D01*
X357619D01*
X357691Y102994D01*
Y99150D01*
X357924Y97979D01*
X358587Y96987D01*
X359580Y96324D01*
X360750Y96091D01*
X368250D01*
X369421Y96324D01*
X370413Y96987D01*
X371076Y97979D01*
X371309Y99150D01*
Y105150D01*
X371076Y106320D01*
X370413Y107313D01*
X369421Y107976D01*
X368250Y108209D01*
X361906D01*
X361357Y108757D01*
X360276Y109480D01*
X359000Y109734D01*
X348030D01*
X347549Y110215D01*
X345895Y110900D01*
D02*
G37*
G36*
X441682Y104400D02*
X438918D01*
X436247Y103684D01*
X433853Y102302D01*
X431898Y100347D01*
X430516Y97953D01*
X429800Y95282D01*
Y92518D01*
X430516Y89847D01*
X431898Y87453D01*
X432072Y87279D01*
X432078Y83693D01*
X427619Y79234D01*
X393839D01*
X392302Y81774D01*
X392575Y82294D01*
X392619Y82316D01*
X406650D01*
X407926Y82570D01*
X409007Y83293D01*
X409115Y83400D01*
X425400D01*
Y104400D01*
X404400D01*
Y88984D01*
X390242D01*
X390076Y89820D01*
X389413Y90813D01*
X388421Y91476D01*
X387250Y91709D01*
X379750D01*
X378579Y91476D01*
X377587Y90813D01*
X376924Y89820D01*
X376691Y88650D01*
Y82650D01*
X376866Y81774D01*
X376699Y81155D01*
X375370Y79234D01*
X372631D01*
X371301Y81155D01*
X371134Y81774D01*
X371309Y82650D01*
Y88650D01*
X371076Y89820D01*
X370413Y90813D01*
X369421Y91476D01*
X368250Y91709D01*
X360750D01*
X359580Y91476D01*
X358587Y90813D01*
X357924Y89820D01*
X357691Y88650D01*
Y82650D01*
X357924Y81480D01*
X358587Y80487D01*
X359580Y79824D01*
X360750Y79591D01*
X361327D01*
X361420Y79124D01*
X362142Y78042D01*
X366642Y73542D01*
X367724Y72820D01*
X369000Y72566D01*
X429000D01*
X430276Y72820D01*
X431357Y73542D01*
X441215Y83400D01*
X441682D01*
X444353Y84116D01*
X446747Y85498D01*
X448702Y87453D01*
X450084Y89847D01*
X450800Y92518D01*
Y95282D01*
X450084Y97953D01*
X448702Y100347D01*
X446747Y102302D01*
X444353Y103684D01*
X441682Y104400D01*
D02*
G37*
G36*
X492482D02*
X489718D01*
X487047Y103684D01*
X484653Y102302D01*
X482698Y100347D01*
X481316Y97953D01*
X480600Y95282D01*
Y92518D01*
X481316Y89847D01*
X482698Y87453D01*
X484653Y85498D01*
X487047Y84116D01*
X489718Y83400D01*
X492482D01*
X495153Y84116D01*
X495797Y84488D01*
X496992Y83293D01*
X498074Y82570D01*
X499350Y82316D01*
X513775D01*
X514453Y81274D01*
X513075Y78734D01*
X473381D01*
X470434Y81681D01*
X470338Y82025D01*
X470919Y84789D01*
X472147Y85498D01*
X474102Y87453D01*
X475484Y89847D01*
X476200Y92518D01*
Y95282D01*
X475484Y97953D01*
X474102Y100347D01*
X472147Y102302D01*
X469753Y103684D01*
X467082Y104400D01*
X464318D01*
X461647Y103684D01*
X459253Y102302D01*
X457298Y100347D01*
X455916Y97953D01*
X455200Y95282D01*
Y92518D01*
X455916Y89847D01*
X457298Y87453D01*
X459253Y85498D01*
X461647Y84116D01*
X462366Y83923D01*
Y81700D01*
X462620Y80424D01*
X463343Y79342D01*
X469642Y73042D01*
X470724Y72320D01*
X472000Y72066D01*
X534250D01*
X535526Y72320D01*
X536608Y73042D01*
X543156Y79591D01*
X548250D01*
X549421Y79824D01*
X550413Y80487D01*
X551076Y81480D01*
X551309Y82650D01*
Y88650D01*
X551076Y89820D01*
X550413Y90813D01*
X549421Y91476D01*
X548250Y91709D01*
X540750D01*
X539580Y91476D01*
X538587Y90813D01*
X537924Y89820D01*
X537691Y88650D01*
Y83556D01*
X532869Y78734D01*
X530064D01*
X529972Y78832D01*
X528939Y81274D01*
X529076Y81480D01*
X529309Y82650D01*
Y88650D01*
X529076Y89820D01*
X528413Y90813D01*
X527421Y91476D01*
X526250Y91709D01*
X518750D01*
X517579Y91476D01*
X516587Y90813D01*
X515924Y89820D01*
X515758Y88984D01*
X503180D01*
X501334Y91524D01*
X501600Y92518D01*
Y95282D01*
X500884Y97953D01*
X499502Y100347D01*
X497547Y102302D01*
X495153Y103684D01*
X492482Y104400D01*
D02*
G37*
%LPD*%
G36*
X493170Y292331D02*
X494498Y290032D01*
X496732Y287798D01*
X499468Y286218D01*
X500531Y285933D01*
Y280691D01*
X482352Y262511D01*
X481578Y261353D01*
X481306Y259987D01*
Y249954D01*
X478250D01*
X477177Y249740D01*
X476267Y249133D01*
X475660Y248223D01*
X475446Y247150D01*
Y242650D01*
X475547Y242143D01*
X474297Y240764D01*
X473521Y240301D01*
X472750Y240454D01*
X459500D01*
X458427Y240240D01*
X457517Y239633D01*
X457074Y238969D01*
X450836D01*
Y240525D01*
X450594Y241744D01*
X449903Y242778D01*
X448869Y243469D01*
X447650Y243711D01*
X440400D01*
X439181Y243469D01*
X438147Y242778D01*
X437456Y241744D01*
X437214Y240525D01*
Y238969D01*
X433134D01*
Y239650D01*
X432901Y240821D01*
X432238Y241813D01*
X431245Y242476D01*
X430075Y242709D01*
X422575D01*
X421600Y242515D01*
X418358Y245758D01*
X417276Y246480D01*
X416000Y246734D01*
X407703D01*
X407022Y249274D01*
X408968Y250398D01*
X411202Y252632D01*
X412782Y255368D01*
X413600Y258420D01*
Y261580D01*
X412782Y264632D01*
X411202Y267368D01*
X408968Y269602D01*
X406232Y271182D01*
X403180Y272000D01*
X402562D01*
X402306Y272153D01*
X402313Y274673D01*
X403549Y275185D01*
X404815Y276451D01*
X405500Y278105D01*
Y279895D01*
X404815Y281549D01*
X403549Y282815D01*
X403189Y282964D01*
X403183Y284756D01*
X403498Y285585D01*
X406232Y286318D01*
X407744Y287191D01*
X414696Y280239D01*
Y277650D01*
X414910Y276577D01*
X415517Y275667D01*
X416427Y275060D01*
X417500Y274846D01*
X430750D01*
X431823Y275060D01*
X432733Y275667D01*
X433340Y276577D01*
X433554Y277650D01*
Y282150D01*
X433453Y282657D01*
X434703Y284036D01*
X435479Y284499D01*
X436250Y284346D01*
X449500D01*
X450573Y284560D01*
X451483Y285167D01*
X453168Y284761D01*
X455005Y284000D01*
X456995D01*
X459450Y283933D01*
X460222Y282897D01*
X461256Y282206D01*
X462475Y281964D01*
X469725D01*
X470944Y282206D01*
X471978Y282897D01*
X472669Y283931D01*
X472911Y285150D01*
Y285831D01*
X477030D01*
X477224Y284855D01*
X477887Y283862D01*
X478880Y283199D01*
X480050Y282966D01*
X487550D01*
X488721Y283199D01*
X489713Y283862D01*
X490376Y284855D01*
X490609Y286025D01*
Y291372D01*
X490609Y292025D01*
X492918Y292768D01*
X493170Y292331D01*
D02*
G37*
D10*
X465200Y603325D02*
X466625Y601900D01*
X465200Y603325D02*
Y617650D01*
X464500Y537025D02*
X465125Y536400D01*
X464500Y537025D02*
Y552275D01*
X398600Y281400D02*
X401000Y279000D01*
X385750Y281400D02*
X398600D01*
X401600Y297500D02*
X402150D01*
X419750Y279900D01*
X424125D01*
X504100Y206365D02*
Y222400D01*
X484175Y186440D02*
X504100Y206365D01*
X484175Y173400D02*
Y186440D01*
X544500Y102150D02*
Y137400D01*
X401600Y222500D02*
X404150D01*
X418250Y208400D01*
X422625D01*
X444963Y163137D02*
Y164525D01*
Y163137D02*
X446750Y161350D01*
Y146900D02*
Y161350D01*
X444963Y164525D02*
X464800D01*
X465425Y163900D01*
X425125Y164525D02*
X442200D01*
X424500Y165150D02*
X425125Y164525D01*
X479064Y145000D02*
X480000D01*
X477164Y146900D02*
X479064Y145000D01*
X463250Y146900D02*
X477164D01*
X546250Y1305400D02*
Y1320650D01*
X543770Y1323130D02*
X546250Y1320650D01*
X428350Y1305400D02*
Y1320980D01*
X430500Y1323130D01*
X369250Y1305400D02*
Y1319400D01*
X369270D01*
X373000Y1323130D01*
X494415Y1351276D02*
X494581Y1351111D01*
X494415Y1351276D02*
Y1362485D01*
X494250Y1362650D02*
X494415Y1362485D01*
X354500Y143900D02*
X374500Y123900D01*
X351000Y143900D02*
X354500D01*
X374500Y123900D02*
X383625Y114775D01*
X368250Y246900D02*
Y254650D01*
X357500Y230900D02*
X368250D01*
X357000Y231400D02*
X357500Y230900D01*
X368000Y254900D02*
X368250Y254650D01*
X368310Y272900D02*
X369250Y273840D01*
Y281400D01*
X384750Y230900D02*
X385000D01*
X391500Y237400D01*
X411000D01*
X416000Y243400D02*
X422750Y236650D01*
X388250Y243400D02*
X416000D01*
X384750Y246900D02*
X388250Y243400D01*
X430500Y217900D02*
X441375D01*
X411000Y237400D02*
X430500Y217900D01*
X422750Y236650D02*
X426325D01*
X515500Y914900D02*
X521000Y920400D01*
X428000Y927650D02*
X428500Y928150D01*
X447450Y926400D02*
X464125D01*
X428500Y928150D02*
X445700D01*
X483500Y914900D02*
X515500D01*
X464125Y926400D02*
X472000D01*
X445700Y928150D02*
X447450Y926400D01*
X472000D02*
X483500Y914900D01*
X521000Y920400D02*
X521750D01*
X343250Y1305400D02*
X343500Y1305150D01*
Y1296900D02*
Y1305150D01*
X336040Y1289440D02*
X343500Y1296900D01*
X336040Y1284721D02*
Y1289440D01*
X500750Y1305400D02*
X507250D01*
X324500Y1360400D02*
Y1369400D01*
X333500Y1277900D02*
X345160D01*
X387500Y1395400D02*
X501270D01*
X345160Y1277900D02*
X349750Y1282490D01*
X368500Y1376400D02*
X387500Y1395400D01*
X331500Y1376400D02*
X368500D01*
X324500Y1369400D02*
X331500Y1376400D01*
X349750Y1282490D02*
Y1305400D01*
Y1362650D02*
X350000Y1362400D01*
X373850Y315400D02*
X389750D01*
X372850Y316400D02*
X373850Y315400D01*
X350000Y1348900D02*
Y1362400D01*
X343033Y1351413D02*
Y1362433D01*
X343250Y1362650D01*
X366250Y386720D02*
X381930Y402400D01*
X366250Y384900D02*
Y386720D01*
X362500Y1362400D02*
X362750Y1362650D01*
X362500Y1349900D02*
Y1362400D01*
X461750Y1347729D02*
Y1362650D01*
X448690Y1334670D02*
X461750Y1347729D01*
X390250Y1255200D02*
X392050Y1253400D01*
Y1251400D02*
Y1253400D01*
X390250Y1255200D02*
Y1260400D01*
X385080Y1334670D02*
X448690D01*
X405500Y1318400D02*
X408850Y1315050D01*
X387000Y1318400D02*
X405500D01*
X408850Y1305400D02*
Y1315050D01*
X382250Y1305400D02*
Y1313650D01*
X387000Y1318400D01*
X369000Y1353400D02*
Y1362400D01*
X369250Y1362650D01*
X355770Y1362170D02*
X356250Y1362650D01*
X366250Y366540D02*
X377390Y355400D01*
X355770Y1352900D02*
Y1362170D01*
X366250Y366540D02*
Y369400D01*
X517250Y1139900D02*
Y1145640D01*
X508000Y1281400D02*
X511500D01*
X520000Y1289900D02*
Y1305150D01*
X507500Y1280900D02*
X508000Y1281400D01*
X511500D02*
X520000Y1289900D01*
Y1305150D02*
X520250Y1305400D01*
X515990Y1146900D02*
X517250Y1145640D01*
X549500Y1284400D02*
X556500Y1277400D01*
X530500Y1284400D02*
X549500D01*
X526750Y1288150D02*
X530500Y1284400D01*
X526750Y1288150D02*
Y1305400D01*
X355420Y1271320D02*
X364770Y1280670D01*
X338330Y1271730D02*
X338740Y1271320D01*
X413500Y1284920D02*
X471500D01*
X533000Y1292400D02*
Y1305150D01*
X369520Y1284920D02*
X413500D01*
X471500D02*
X494480D01*
X338740Y1271320D02*
X355420D01*
X356250Y1298190D02*
Y1305400D01*
X474750Y1288170D02*
Y1305400D01*
X415350Y1286770D02*
Y1305400D01*
X533000Y1305150D02*
X533250Y1305400D01*
X356250Y1298190D02*
X364770Y1289670D01*
X524500Y1273900D02*
X528500Y1277900D01*
X413500Y1284920D02*
X415350Y1286770D01*
X364770Y1280670D02*
Y1289670D01*
X471500Y1284920D02*
X474750Y1288170D01*
X383500Y102150D02*
X383625Y102275D01*
Y114775D01*
X533000Y1292400D02*
X533500Y1291900D01*
X364770Y1289670D02*
X369520Y1284920D01*
X494480D02*
X505500Y1273900D01*
X524500D01*
X363250Y102150D02*
X364500D01*
X421500Y1328900D02*
X426330D01*
X539500Y1305650D02*
Y1315900D01*
X481250Y1305400D02*
Y1315800D01*
X360500Y1328900D02*
X362750Y1326650D01*
X359000Y106400D02*
X363250Y102150D01*
X324500Y1326400D02*
X327000Y1328900D01*
X362750Y1305400D02*
Y1326650D01*
X345000Y106400D02*
X359000D01*
X480650Y1316400D02*
X481250Y1315800D01*
X539500Y1305650D02*
X539750Y1305400D01*
X327000Y1328900D02*
X360500D01*
X539500D01*
X421850Y1315250D02*
X422000Y1315400D01*
X421850Y1305400D02*
Y1315250D01*
X522500Y102150D02*
Y112900D01*
X487750Y1305400D02*
Y1320880D01*
X490000Y1323130D02*
X501500D01*
X501730Y1322900D02*
X501960Y1323130D01*
X487750Y1320880D02*
X490000Y1323130D01*
X501960D02*
X543770D01*
X430500D02*
X490000D01*
X505500Y129900D02*
X522500Y112900D01*
X501500Y1323130D02*
X501730Y1322900D01*
X373000Y1323130D02*
X430500D01*
X462230Y1317360D02*
X463665D01*
X468250Y1305400D02*
Y1312775D01*
X572500Y1381900D02*
X573000Y1382400D01*
X462000Y1381900D02*
X572500D01*
X463665Y1317360D02*
X468250Y1312775D01*
X559750Y1305900D02*
X572500D01*
X559250Y1305400D02*
X559750Y1305900D01*
X553000Y1350900D02*
Y1362400D01*
X538250Y904900D02*
X545500D01*
X552750Y1362650D02*
X553000Y1362400D01*
X546000D02*
X546250Y1362650D01*
X546000Y1347900D02*
Y1362400D01*
X538250Y920400D02*
Y927650D01*
X538000Y927900D02*
X538250Y927650D01*
X539750Y1362650D02*
X540000Y1362400D01*
Y1351900D02*
Y1362400D01*
X528750Y990400D02*
X538690D01*
X533046Y1362446D02*
X533250Y1362650D01*
X533046Y1347873D02*
Y1362446D01*
X528750Y1005900D02*
X534150D01*
X527000Y1351400D02*
Y1362400D01*
X526750Y1362650D02*
X527000Y1362400D01*
X528750Y1053040D02*
X529610Y1053900D01*
X528750Y1047400D02*
Y1053040D01*
Y1079580D02*
Y1084400D01*
X520500Y1347400D02*
Y1362400D01*
X520250Y1362650D02*
X520500Y1362400D01*
X525070Y1075900D02*
X528750Y1079580D01*
X517250Y1123680D02*
X520530Y1120400D01*
X513500Y1362400D02*
X513750Y1362650D01*
X517250Y1123680D02*
Y1124400D01*
X513500Y1351900D02*
Y1362400D01*
X406750Y1260400D02*
X428500Y1238650D01*
X481500D01*
X390250Y1276900D02*
X392050Y1275100D01*
Y1268900D02*
Y1275100D01*
X388871Y1343029D02*
X450629D01*
X455250Y1347650D01*
Y1362650D01*
X388743Y1342900D02*
X388871Y1343029D01*
X382000Y1342900D02*
X388743D01*
X336500Y1362400D02*
X336750Y1362650D01*
X336500Y1348900D02*
Y1362400D01*
X461625Y1075650D02*
X464125Y1073150D01*
X428000Y1075650D02*
X461625D01*
X490750Y1073150D02*
X502000Y1084400D01*
X464125Y1073150D02*
X490750D01*
X502000Y1084400D02*
X512250D01*
X464125Y994400D02*
X464665Y994940D01*
X429250Y994400D02*
X464125D01*
X464665Y994940D02*
X501290D01*
X428000Y995650D02*
X429250Y994400D01*
X501290Y994940D02*
X512250Y1005900D01*
X444375Y1052025D02*
X486375D01*
X491000Y1047400D01*
X512250D01*
X494000Y990400D02*
X512250D01*
X481300Y978650D02*
X482250D01*
X480925Y979025D02*
X481300Y978650D01*
X482250D02*
X494000Y990400D01*
X444375Y979025D02*
X480925D01*
X390750Y1218400D02*
Y1225160D01*
X390010Y1225900D02*
X390750Y1225160D01*
X376000Y1350400D02*
Y1362400D01*
X375750Y1362650D02*
X376000Y1362400D01*
X427250Y1201650D02*
X481300D01*
X407250Y1218400D02*
X410500D01*
X427250Y1201650D01*
X517750Y908900D02*
X521750Y904900D01*
X484050Y908900D02*
X517750D01*
X481300Y906150D02*
X484050Y908900D01*
X446875Y906150D02*
X481300D01*
X444375Y908650D02*
X446875Y906150D01*
X444375Y1127525D02*
X497625D01*
X500750Y1124400D01*
X472000Y1142400D02*
X498250D01*
X468250Y1146150D02*
X472000Y1142400D01*
X498250D02*
X500750Y1139900D01*
X428000Y1146150D02*
X468250D01*
X468000Y1362400D02*
X468250Y1362650D01*
X468000Y1352400D02*
Y1362400D01*
X415500Y1349400D02*
Y1362500D01*
X415350Y1362650D02*
X415500Y1362500D01*
X435000Y1353629D02*
X439830Y1348799D01*
X435000Y1353629D02*
Y1362500D01*
X434850Y1362650D02*
X435000Y1362500D01*
X428003Y1362303D02*
X428350Y1362650D01*
X428003Y1352466D02*
Y1362303D01*
Y1352466D02*
X431670Y1348799D01*
X491100Y93900D02*
X499350Y85650D01*
X522500D01*
X465700Y81700D02*
X472000Y75400D01*
X465700Y81700D02*
Y93900D01*
X472000Y75400D02*
X534250D01*
X544500Y85650D01*
X364500Y80400D02*
Y85650D01*
Y80400D02*
X369000Y75900D01*
X429000D01*
X440300Y87200D01*
Y93900D01*
X388000Y85650D02*
X406650D01*
X414900Y93900D01*
X461500Y1305150D02*
X461750Y1305400D01*
X461500Y1294900D02*
Y1305150D01*
X422000Y1350347D02*
Y1362500D01*
X421850Y1362650D02*
X422000Y1362500D01*
Y1350347D02*
X423548Y1348799D01*
X402350Y1292840D02*
Y1305400D01*
Y1292840D02*
X404500Y1290690D01*
X474500Y1362400D02*
X474750Y1362650D01*
X474500Y1348400D02*
Y1362400D01*
X409000Y1352900D02*
Y1362500D01*
X408850Y1362650D02*
X409000Y1362500D01*
X395850Y1362650D02*
X396000Y1362500D01*
Y1352900D02*
Y1362500D01*
X402350Y1362650D02*
X402500Y1362500D01*
Y1348900D02*
Y1362500D01*
X453279Y1316281D02*
X455250Y1314310D01*
Y1305400D02*
Y1314310D01*
X487691Y1362590D02*
X487750Y1362650D01*
X487691Y1349841D02*
Y1362590D01*
X481000Y1362400D02*
X481250Y1362650D01*
X481000Y1351900D02*
Y1362400D01*
D11*
X483800Y272525D02*
D03*
Y289025D02*
D03*
X479500Y201025D02*
D03*
Y217525D02*
D03*
X424500Y181650D02*
D03*
Y165150D02*
D03*
X426325Y253150D02*
D03*
Y236650D02*
D03*
X424200Y315650D02*
D03*
Y332150D02*
D03*
X422200Y651650D02*
D03*
Y668150D02*
D03*
X482000Y502525D02*
D03*
Y486025D02*
D03*
X481300Y836525D02*
D03*
Y820025D02*
D03*
X544500Y102150D02*
D03*
Y85650D02*
D03*
X481300Y978650D02*
D03*
Y962150D02*
D03*
X481500Y1238650D02*
D03*
Y1222150D02*
D03*
X427800Y926650D02*
D03*
Y943150D02*
D03*
X482000Y633650D02*
D03*
Y617150D02*
D03*
X359350Y1445400D02*
D03*
Y1428900D02*
D03*
X481300Y437025D02*
D03*
Y420525D02*
D03*
Y1051650D02*
D03*
Y1035150D02*
D03*
X429000Y1257150D02*
D03*
Y1273650D02*
D03*
X428000Y1075650D02*
D03*
Y1092150D02*
D03*
X423200Y584150D02*
D03*
Y600650D02*
D03*
X426200Y719150D02*
D03*
Y735650D02*
D03*
X428000Y995650D02*
D03*
Y1012150D02*
D03*
X378450Y1421650D02*
D03*
Y1405150D02*
D03*
X481300Y368150D02*
D03*
Y351650D02*
D03*
Y1201650D02*
D03*
Y1185150D02*
D03*
Y906150D02*
D03*
Y889650D02*
D03*
X383500Y102150D02*
D03*
Y85650D02*
D03*
X522500Y102150D02*
D03*
Y85650D02*
D03*
X481300Y1127150D02*
D03*
Y1110650D02*
D03*
X424500Y385150D02*
D03*
Y401650D02*
D03*
X425300Y853150D02*
D03*
Y869650D02*
D03*
X421700Y518650D02*
D03*
Y535150D02*
D03*
X364500Y102150D02*
D03*
Y85650D02*
D03*
X481300Y702525D02*
D03*
Y686025D02*
D03*
X422700Y786150D02*
D03*
Y802650D02*
D03*
X424500Y453150D02*
D03*
Y469650D02*
D03*
X481300Y568275D02*
D03*
Y551775D02*
D03*
Y768650D02*
D03*
Y752150D02*
D03*
X428000Y1146150D02*
D03*
Y1162650D02*
D03*
D13*
X329000Y1473000D02*
D03*
D14*
Y1423000D02*
D03*
X554190Y1437900D02*
D03*
D15*
X504100Y259900D02*
D03*
Y395400D02*
D03*
Y529415D02*
D03*
Y663429D02*
D03*
Y797444D02*
D03*
Y931459D02*
D03*
Y1065473D02*
D03*
X503688Y1199900D02*
D03*
X401600Y260000D02*
D03*
Y395500D02*
D03*
Y529515D02*
D03*
Y663529D02*
D03*
Y797544D02*
D03*
Y931559D02*
D03*
Y1065573D02*
D03*
Y1199950D02*
D03*
X198600Y222500D02*
D03*
Y297500D02*
D03*
X248600Y222500D02*
D03*
Y297500D02*
D03*
X148200Y222500D02*
D03*
Y297500D02*
D03*
X401600D02*
D03*
Y222500D02*
D03*
X707100Y297400D02*
D03*
Y222400D02*
D03*
X657100Y297400D02*
D03*
Y222400D02*
D03*
X757500Y297400D02*
D03*
Y222400D02*
D03*
X504100D02*
D03*
Y297400D02*
D03*
Y432900D02*
D03*
Y357900D02*
D03*
X757500D02*
D03*
Y432900D02*
D03*
X657100Y357900D02*
D03*
Y432900D02*
D03*
X707100Y357900D02*
D03*
Y432900D02*
D03*
X401600Y894059D02*
D03*
Y969059D02*
D03*
X148200D02*
D03*
Y894059D02*
D03*
X248600Y969059D02*
D03*
Y894059D02*
D03*
X198600Y969059D02*
D03*
Y894059D02*
D03*
X401600Y492015D02*
D03*
Y567015D02*
D03*
X148200D02*
D03*
Y492015D02*
D03*
X248600Y567015D02*
D03*
Y492015D02*
D03*
X198600Y567015D02*
D03*
Y492015D02*
D03*
X401600Y1028073D02*
D03*
Y1103073D02*
D03*
X148200D02*
D03*
Y1028073D02*
D03*
X248600Y1103073D02*
D03*
Y1028073D02*
D03*
X198600Y1103073D02*
D03*
Y1028073D02*
D03*
X401600Y358000D02*
D03*
Y433000D02*
D03*
X148200D02*
D03*
Y358000D02*
D03*
X248600Y433000D02*
D03*
Y358000D02*
D03*
X198600Y433000D02*
D03*
Y358000D02*
D03*
X504100Y700929D02*
D03*
Y625929D02*
D03*
X757500D02*
D03*
Y700929D02*
D03*
X657100Y625929D02*
D03*
Y700929D02*
D03*
X707100Y625929D02*
D03*
Y700929D02*
D03*
X504100Y968959D02*
D03*
Y893959D02*
D03*
X757500D02*
D03*
Y968959D02*
D03*
X657100Y893959D02*
D03*
Y968959D02*
D03*
X707100Y893959D02*
D03*
Y968959D02*
D03*
X504100Y566915D02*
D03*
Y491915D02*
D03*
X757500D02*
D03*
Y566915D02*
D03*
X657100Y491915D02*
D03*
Y566915D02*
D03*
X707100Y491915D02*
D03*
Y566915D02*
D03*
X504100Y1102973D02*
D03*
Y1027973D02*
D03*
X757500D02*
D03*
Y1102973D02*
D03*
X657100Y1027973D02*
D03*
Y1102973D02*
D03*
X707100Y1027973D02*
D03*
Y1102973D02*
D03*
X401600Y626029D02*
D03*
Y701029D02*
D03*
X148200D02*
D03*
Y626029D02*
D03*
X248600Y701029D02*
D03*
Y626029D02*
D03*
X198600Y701029D02*
D03*
Y626029D02*
D03*
X401600Y1162450D02*
D03*
Y1237450D02*
D03*
X148200D02*
D03*
Y1162450D02*
D03*
X248600Y1237450D02*
D03*
Y1162450D02*
D03*
X198600Y1237450D02*
D03*
Y1162450D02*
D03*
X401600Y760044D02*
D03*
Y835044D02*
D03*
X148200D02*
D03*
Y760044D02*
D03*
X248600Y835044D02*
D03*
Y760044D02*
D03*
X198600Y835044D02*
D03*
Y760044D02*
D03*
X504100Y834944D02*
D03*
Y759944D02*
D03*
X757500D02*
D03*
Y834944D02*
D03*
X657100Y759944D02*
D03*
Y834944D02*
D03*
X707100Y759944D02*
D03*
Y834944D02*
D03*
X503688Y1237400D02*
D03*
Y1162400D02*
D03*
X757088D02*
D03*
Y1237400D02*
D03*
X656688Y1162400D02*
D03*
Y1237400D02*
D03*
X706688Y1162400D02*
D03*
Y1237400D02*
D03*
D16*
X415100Y1487400D02*
D03*
X414900Y93900D02*
D03*
D17*
X604190Y1437900D02*
D03*
D18*
X233000Y1297900D02*
D03*
X673000Y147900D02*
D03*
X233000D02*
D03*
X673000Y1297900D02*
D03*
D19*
X829000Y234550D02*
D03*
X77000Y285350D02*
D03*
X829000Y370050D02*
D03*
Y772094D02*
D03*
X77000Y1225300D02*
D03*
X829000Y1174500D02*
D03*
Y906109D02*
D03*
X77000Y822894D02*
D03*
Y1090923D02*
D03*
Y554865D02*
D03*
Y688879D02*
D03*
X829000Y504065D02*
D03*
X77000Y956909D02*
D03*
X829000Y1040123D02*
D03*
X77000Y420850D02*
D03*
X829000Y638079D02*
D03*
D20*
Y285350D02*
D03*
X77000Y234550D02*
D03*
X829000Y420850D02*
D03*
Y822894D02*
D03*
X77000Y1174500D02*
D03*
X829000Y1225300D02*
D03*
Y956909D02*
D03*
X77000Y772094D02*
D03*
Y1040123D02*
D03*
Y504065D02*
D03*
Y638079D02*
D03*
X829000Y554865D02*
D03*
X77000Y906109D02*
D03*
X829000Y1090923D02*
D03*
X77000Y370050D02*
D03*
X829000Y688879D02*
D03*
D21*
X491100Y93900D02*
D03*
X465700D02*
D03*
X440300D02*
D03*
X491300Y1487400D02*
D03*
X465900D02*
D03*
X440500D02*
D03*
D22*
X469867Y829783D02*
X470250Y829400D01*
X469867Y829783D02*
Y830908D01*
X464750Y836025D02*
X469867Y830908D01*
X464500Y836025D02*
X464750D01*
X464500Y836900D02*
X480925D01*
X444375D02*
X464500D01*
X395850Y1298025D02*
Y1305400D01*
Y1295417D02*
Y1298025D01*
X392265Y1294440D02*
X395850Y1298025D01*
X504100Y279212D02*
Y297400D01*
X484875Y259987D02*
X504100Y279212D01*
X484875Y244900D02*
Y259987D01*
X483425Y289400D02*
X483800Y289025D01*
X442875Y289400D02*
X483425D01*
X599350Y1457650D02*
Y1469400D01*
X581350Y1487400D02*
X599350Y1469400D01*
X551700Y1487400D02*
X581350D01*
X441375Y217900D02*
X441750Y217525D01*
X426325Y236650D02*
X427575Y235400D01*
X441750Y217525D02*
X479500D01*
X427575Y235400D02*
X466125D01*
X388750Y452650D02*
Y456400D01*
X387500Y451400D02*
X388750Y452650D01*
X405250Y454650D02*
Y456400D01*
X444375Y437400D02*
X444750Y437025D01*
X405250Y454650D02*
X422500Y437400D01*
X444750Y437025D02*
X481300D01*
X422500Y437400D02*
X444375D01*
X466625Y315400D02*
X467625Y314400D01*
X406250Y315400D02*
X466625D01*
X424500Y385650D02*
X425750Y384400D01*
X388250Y379400D02*
X419000D01*
X424500Y384900D02*
Y385650D01*
X425750Y384400D02*
X461625D01*
X382750Y384900D02*
X388250Y379400D01*
X419000D02*
X424500Y384900D01*
X463875Y1257150D02*
X465125Y1255900D01*
X406750Y1276150D02*
Y1276900D01*
Y1276150D02*
X425750Y1257150D01*
X429000D02*
X463875D01*
X425750D02*
X429000D01*
X444750Y368150D02*
X481300D01*
X414375Y368525D02*
X444375D01*
X444750Y368150D01*
X385750Y372400D02*
X410500D01*
X382750Y369400D02*
X385750Y372400D01*
X410500D02*
X414375Y368525D01*
X480925Y836900D02*
X481300Y836525D01*
X422200Y651650D02*
X423450Y650400D01*
X465625D01*
X444750Y768650D02*
X481300D01*
X444375Y769025D02*
X444750Y768650D01*
X427450Y717900D02*
X469625D01*
X426200Y719150D02*
X427450Y717900D01*
X464875Y786150D02*
X466125Y784900D01*
X440400Y786650D02*
X450650Y776400D01*
X422700Y786150D02*
X464875D01*
X450650Y776400D02*
X458000D01*
X444750Y702525D02*
X481300D01*
X444375Y702900D02*
X444750Y702525D01*
X446000Y518650D02*
X463875D01*
X465125Y517400D01*
X421700Y518650D02*
X446000D01*
X491300Y1487400D02*
X535200D01*
X467500Y850675D02*
X468725Y851900D01*
X467475Y853150D02*
X468725Y851900D01*
X425300Y853150D02*
X467475D01*
X467500Y847400D02*
Y850675D01*
X444750Y634525D02*
X481300D01*
X444375Y634900D02*
X444750Y634525D01*
X444375Y568650D02*
X480925D01*
X481300Y568275D01*
X465375Y584150D02*
X466625Y582900D01*
X423200Y584150D02*
X465375D01*
X513750Y1292650D02*
Y1305400D01*
X375750Y1296650D02*
X377960Y1294440D01*
X555500Y1320400D02*
X567230D01*
X510000Y1288900D02*
X513750Y1292650D01*
X552750Y1305400D02*
Y1317650D01*
X494250Y1293150D02*
Y1305400D01*
X513500Y1317360D02*
X513750Y1317110D01*
X552750Y1317650D02*
X555500Y1320400D01*
X498500Y1288900D02*
X510000D01*
X513750Y1305400D02*
Y1317110D01*
X314000Y1311400D02*
Y1320650D01*
X375750Y1296650D02*
Y1305400D01*
X434850Y1315750D02*
X437460Y1318360D01*
X451200D02*
X453279Y1316281D01*
X437460Y1318360D02*
X451200D01*
X494250Y1293150D02*
X498500Y1288900D01*
X395850Y1295417D02*
X396080Y1295187D01*
X567230Y1320400D02*
X572500Y1325670D01*
X305250Y1320650D02*
X314000D01*
X572500Y1325670D02*
Y1328150D01*
X305000Y1320900D02*
X305250Y1320650D01*
X320000Y1305400D02*
X336750D01*
X314000Y1311400D02*
X320000Y1305400D01*
X434850D02*
Y1315750D01*
X377960Y1294440D02*
X392265D01*
X447000Y820525D02*
X464500D01*
X447000Y752650D02*
X464500D01*
X446700Y1273150D02*
X447250D01*
X462625Y803900D02*
X464500Y805775D01*
X447250Y1273150D02*
X454000Y1266400D01*
X457000D01*
X464500Y805775D02*
Y820525D01*
X444375Y817900D02*
X447000Y820525D01*
X444375Y750025D02*
X447000Y752650D01*
X444375Y483900D02*
X447000Y486525D01*
X465200D01*
X424500Y453150D02*
X436500D01*
X433500Y453400D02*
X436250D01*
X460375Y453150D02*
X461625Y451900D01*
X436250Y453400D02*
X436500Y453150D01*
X460375D01*
X444750Y502525D02*
X481300D01*
X444375Y502900D02*
X444750Y502525D01*
X480925Y502900D02*
X481300Y502525D01*
X471500Y502900D02*
X480925D01*
D23*
X359350Y1405275D02*
Y1428900D01*
Y1405275D02*
X359725Y1404900D01*
X443750Y470900D02*
X461625D01*
X442000Y469150D02*
X443750Y470900D01*
D24*
X593025Y1463150D02*
X618275Y1437900D01*
X320850Y1398400D02*
X320942Y1398307D01*
X328850D01*
X337100D02*
X338068D01*
X328850D02*
X337100D01*
X338068D02*
X340975Y1395400D01*
X414200Y1445150D02*
X417450Y1441900D01*
X452850D01*
X474100Y1463150D01*
X593025D01*
X359350Y1445400D02*
X378950D01*
X379200Y1422400D02*
Y1445150D01*
X378950Y1445400D02*
X379200Y1445150D01*
X378450Y1421650D02*
X379200Y1422400D01*
D25*
X92500Y191573D02*
X181000D01*
X198900Y209473D01*
X148500Y222500D02*
Y285073D01*
Y297500D01*
X77000Y207073D02*
X92500Y191573D01*
X757500Y222400D02*
Y234827D01*
Y297400D01*
X707100Y310427D02*
X725000Y328327D01*
X813500D02*
X829000Y312827D01*
X725000Y328327D02*
X813500D01*
X757500Y370327D02*
Y432900D01*
Y357900D02*
Y370327D01*
X725000Y463827D02*
X813500D01*
X707100Y445927D02*
X725000Y463827D01*
X813500D02*
X829000Y448327D01*
X92500Y997147D02*
X181000D01*
X198900Y1015047D01*
X77000Y1012647D02*
X92500Y997147D01*
X148500Y1028073D02*
Y1090647D01*
Y1103073D01*
X757500Y893959D02*
Y906385D01*
Y968959D01*
X813500Y999885D02*
X829000Y984385D01*
X725000Y999885D02*
X813500D01*
X707100Y981985D02*
X725000Y999885D01*
X77000Y476588D02*
X92500Y461088D01*
X181000D02*
X198900Y478988D01*
X92500Y461088D02*
X181000D01*
X148500Y554588D02*
Y567015D01*
Y492015D02*
Y554588D01*
X181000Y595103D02*
X198900Y613003D01*
X77000Y610603D02*
X92500Y595103D01*
X181000D01*
X148500Y626029D02*
Y688603D01*
Y701029D01*
X725000Y597841D02*
X813500D01*
X829000Y582341D01*
X707100Y579941D02*
X725000Y597841D01*
X757500Y504341D02*
Y566915D01*
Y491915D02*
Y504341D01*
X77000Y878632D02*
X92500Y863132D01*
X181000D02*
X198900Y881032D01*
X92500Y863132D02*
X181000D01*
X148500Y956632D02*
Y969059D01*
Y894059D02*
Y956632D01*
X813500Y1133900D02*
X829000Y1118400D01*
X725000Y1133900D02*
X813500D01*
X707100Y1116000D02*
X725000Y1133900D01*
X757500Y1040400D02*
Y1102973D01*
Y1027973D02*
Y1040400D01*
X148500Y1225023D02*
Y1237450D01*
Y1162450D02*
Y1225023D01*
X92500Y1131523D02*
X181000D01*
X77000Y1147023D02*
X92500Y1131523D01*
X181000D02*
X198900Y1149423D01*
X92500Y327073D02*
X181000D01*
X198900Y344973D01*
X77000Y342573D02*
X92500Y327073D01*
X148500Y420573D02*
Y433000D01*
Y358000D02*
Y420573D01*
Y822617D02*
Y835044D01*
Y760044D02*
Y822617D01*
X92500Y729117D02*
X181000D01*
X77000Y744617D02*
X92500Y729117D01*
X181000D02*
X198900Y747017D01*
X725000Y731856D02*
X813500D01*
X829000Y716356D01*
X707100Y713956D02*
X725000Y731856D01*
X757500Y638356D02*
Y700929D01*
Y625929D02*
Y638356D01*
Y772371D02*
Y834944D01*
Y759944D02*
Y772371D01*
X813500Y865871D02*
X829000Y850371D01*
X707100Y847971D02*
X725000Y865871D01*
X813500D01*
X757500Y1162350D02*
Y1174777D01*
Y1237350D01*
X813500Y1268277D02*
X829000Y1252777D01*
X707100Y1250377D02*
X725000Y1268277D01*
X813500D01*
D26*
X198900Y209473D02*
Y222500D01*
Y297500D01*
X148223Y285350D02*
X148500Y285073D01*
X77000Y285350D02*
X148223D01*
X77000Y207073D02*
Y234550D01*
X707100Y222400D02*
Y297400D01*
X757777Y234550D02*
X829000D01*
X757500Y234827D02*
X757777Y234550D01*
X829000Y285350D02*
Y312827D01*
X707100Y297400D02*
Y310427D01*
X757777Y370050D02*
X829000D01*
X757500Y370327D02*
X757777Y370050D01*
X707100Y432900D02*
Y445927D01*
X829000Y420850D02*
Y448327D01*
X707100Y357900D02*
Y432900D01*
X198900Y1015047D02*
Y1028073D01*
Y1103073D01*
X77000Y1012647D02*
Y1040123D01*
Y1090923D02*
X148223D01*
X148500Y1090647D01*
X757500Y906385D02*
X757777Y906109D01*
X829000D01*
X707100Y893959D02*
Y968959D01*
Y981985D01*
X829000Y956909D02*
Y984385D01*
X77000Y476588D02*
Y504065D01*
X198900Y492015D02*
Y567015D01*
Y478988D02*
Y492015D01*
X77000Y554865D02*
X148223D01*
X148500Y554588D01*
X198900Y613003D02*
Y626029D01*
Y701029D01*
X77000Y610603D02*
Y638079D01*
X148223Y688879D02*
X148500Y688603D01*
X77000Y688879D02*
X148223D01*
X707100Y566915D02*
Y579941D01*
X829000Y554865D02*
Y582341D01*
X707100Y491915D02*
Y566915D01*
X757500Y504341D02*
X757777Y504065D01*
X829000D01*
X198900Y894059D02*
Y969059D01*
Y881032D02*
Y894059D01*
X77000Y878632D02*
Y906109D01*
Y956909D02*
X148223D01*
X148500Y956632D01*
X829000Y1090923D02*
Y1118400D01*
X707100Y1027973D02*
Y1102973D01*
Y1116000D01*
X757777Y1040123D02*
X829000D01*
X757500Y1040400D02*
X757777Y1040123D01*
X148223Y1225300D02*
X148500Y1225023D01*
X77000Y1225300D02*
X148223D01*
X77000Y1147023D02*
Y1174500D01*
X198900Y1162450D02*
Y1237450D01*
Y1149423D02*
Y1162450D01*
Y344973D02*
Y358000D01*
X77000Y342573D02*
Y370050D01*
X198900Y358000D02*
Y433000D01*
X148223Y420850D02*
X148500Y420573D01*
X77000Y420850D02*
X148223D01*
Y822894D02*
X148500Y822617D01*
X77000Y822894D02*
X148223D01*
X77000Y744617D02*
Y772094D01*
X198900Y760044D02*
Y835044D01*
Y747017D02*
Y760044D01*
X707100Y700929D02*
Y713956D01*
Y625929D02*
Y700929D01*
X829000Y688879D02*
Y716356D01*
X757777Y638079D02*
X829000D01*
X757500Y638356D02*
X757777Y638079D01*
Y772094D02*
X829000D01*
X757500Y772371D02*
X757777Y772094D01*
X707100Y759944D02*
Y834944D01*
X829000Y822894D02*
Y850371D01*
X707100Y834944D02*
Y847971D01*
X757777Y1174500D02*
X829000D01*
X757500Y1174777D02*
X757777Y1174500D01*
X829000Y1225300D02*
Y1252777D01*
X707100Y1162350D02*
Y1237350D01*
Y1250377D01*
D28*
X507500Y1405400D02*
X537590D01*
X451000D02*
X507500D01*
X330000Y264000D02*
X396000D01*
X248600Y222500D02*
Y297500D01*
X657100Y222400D02*
Y297400D01*
X504100Y422000D02*
Y432900D01*
X480375Y398275D02*
X504100Y422000D01*
X480375Y393900D02*
Y398275D01*
X486375Y323900D02*
X494500D01*
X504100Y333500D02*
Y357900D01*
X494500Y323900D02*
X504100Y333500D01*
X657100Y357900D02*
Y432900D01*
X401600Y894059D02*
X406691Y899150D01*
X425625D01*
X402066Y969525D02*
X425625D01*
X401600Y969059D02*
X402066Y969525D01*
X248600Y894059D02*
Y969059D01*
X402985Y493400D02*
X425625D01*
X401600Y492015D02*
X402985Y493400D01*
X409465Y559150D02*
X425625D01*
X401600Y567015D02*
X409465Y559150D01*
X248600Y492015D02*
Y567015D01*
X416052Y1042525D02*
X425625D01*
X401600Y1028073D02*
X416052Y1042525D01*
X401600Y1103073D02*
X416552Y1118025D01*
X425625D01*
X248600Y1028073D02*
Y1103073D01*
X401600Y358000D02*
X402625Y359025D01*
X425625D01*
X406700Y427900D02*
X425625D01*
X401600Y433000D02*
X406700Y427900D01*
X248600Y358000D02*
Y433000D01*
X484375Y659900D02*
Y669275D01*
X504100Y689000D01*
Y700929D01*
Y625929D02*
X507500Y622529D01*
X498500Y592400D02*
X507500Y601400D01*
X485375Y592400D02*
X498500D01*
X507500Y601400D02*
Y622529D01*
X657100Y625929D02*
Y700929D01*
X504100Y957125D02*
Y968959D01*
X482875Y935900D02*
X504100Y957125D01*
Y878025D02*
Y893959D01*
X487475Y861400D02*
X504100Y878025D01*
X657100Y893959D02*
Y968959D01*
X487000Y537900D02*
X504100Y555000D01*
Y566915D01*
X487000Y530025D02*
Y537900D01*
X483875Y526900D02*
X487000Y530025D01*
X504100Y473000D02*
Y491915D01*
X492500Y461400D02*
X504100Y473000D01*
X480375Y461400D02*
X492500D01*
X657100Y491915D02*
Y566915D01*
X482875Y1082650D02*
X487812D01*
X504100Y1098938D02*
Y1102973D01*
X487812Y1082650D02*
X504100Y1098938D01*
Y1025125D02*
Y1027973D01*
X482875Y1003900D02*
X504100Y1025125D01*
X657100Y1027973D02*
Y1102973D01*
X424996Y626029D02*
X425625Y625400D01*
X401600Y626029D02*
X424996D01*
X401600Y701029D02*
X409229Y693400D01*
X425625D01*
X248600Y626029D02*
Y701029D01*
X402500Y1405400D02*
X451000D01*
X401600Y1162450D02*
X425625Y1186475D01*
Y1192525D01*
X401600Y1237450D02*
X403025Y1236025D01*
X419325D02*
X425825Y1229525D01*
X403025Y1236025D02*
X419325D01*
X248600Y1162450D02*
Y1237450D01*
X425106Y760044D02*
X425625Y759525D01*
X401600Y760044D02*
X425106D01*
X409244Y827400D02*
X425625D01*
X401600Y835044D02*
X409244Y827400D01*
X248600Y760044D02*
Y835044D01*
X484875Y802775D02*
X504100Y822000D01*
Y834944D01*
X484875Y794400D02*
Y802775D01*
X504100Y743125D02*
Y759944D01*
X488375Y727400D02*
X504100Y743125D01*
X657100Y759944D02*
Y834944D01*
X395000Y412400D02*
X401600Y405800D01*
X504100Y529415D02*
X566500D01*
X503688Y1199900D02*
X566500D01*
X330500Y412400D02*
X395000D01*
X330500Y797544D02*
X401600D01*
X504100Y395400D02*
X566500D01*
X401600Y395500D02*
Y405800D01*
X330500Y1065573D02*
X401600D01*
X330500Y1199950D02*
X401600D01*
X504100Y1065473D02*
X566500D01*
X504100Y663429D02*
X566500D01*
X330500Y529515D02*
X401600D01*
X520041Y947400D02*
X566500D01*
X504100Y797444D02*
X566500D01*
X330500Y931559D02*
X401600D01*
X504100Y931459D02*
X520041Y947400D01*
X330500Y663529D02*
X401600D01*
X483875Y1265400D02*
X494000D01*
X503688Y1255712D01*
Y1237400D02*
Y1255712D01*
X495688Y1154400D02*
X503688Y1162400D01*
X482875Y1154400D02*
X495688D01*
X656688Y1162400D02*
Y1237400D01*
D29*
X470250Y829400D02*
D03*
X401000Y279000D02*
D03*
X505500Y129900D02*
D03*
X494581Y1351111D02*
D03*
X351000Y143900D02*
D03*
X544500Y137400D02*
D03*
X336040Y1284721D02*
D03*
X324500Y1360400D02*
D03*
X501270Y1395400D02*
D03*
X507250Y1305400D02*
D03*
X333500Y1277900D02*
D03*
X350000Y1348900D02*
D03*
X343033Y1351413D02*
D03*
X362500Y1349900D02*
D03*
X392050Y1251400D02*
D03*
X385080Y1334670D02*
D03*
X369000Y1353400D02*
D03*
X355770Y1352900D02*
D03*
X507500Y1280900D02*
D03*
X515990Y1146900D02*
D03*
X556500Y1277400D02*
D03*
X533500Y1291900D02*
D03*
X338330Y1271730D02*
D03*
X528500Y1277900D02*
D03*
X345000Y106400D02*
D03*
X480650Y1328900D02*
D03*
X539500D02*
D03*
X480650Y1316400D02*
D03*
X426330Y1328900D02*
D03*
X422000Y1315400D02*
D03*
X539500Y1315900D02*
D03*
X324500Y1326400D02*
D03*
X501730Y1322900D02*
D03*
X573000Y1382400D02*
D03*
X462000Y1381900D02*
D03*
X572500Y1305900D02*
D03*
X462230Y1317360D02*
D03*
X553000Y1350900D02*
D03*
X545500Y904900D02*
D03*
X546000Y1347900D02*
D03*
X538000Y927900D02*
D03*
X540000Y1351900D02*
D03*
X538690Y990400D02*
D03*
X533046Y1347873D02*
D03*
X534150Y1005900D02*
D03*
X527000Y1351400D02*
D03*
X529610Y1053900D02*
D03*
X520500Y1347400D02*
D03*
X525070Y1075900D02*
D03*
X513500Y1351900D02*
D03*
X520530Y1120400D02*
D03*
X392050Y1268900D02*
D03*
X382000Y1342900D02*
D03*
X336500Y1348900D02*
D03*
X376000Y1350400D02*
D03*
X390010Y1225900D02*
D03*
X468000Y1352400D02*
D03*
X415500Y1349400D02*
D03*
X450000Y650400D02*
D03*
X439830Y1348799D02*
D03*
X470250Y768900D02*
D03*
X431670Y1348799D02*
D03*
X458000Y717900D02*
D03*
X461500Y1294900D02*
D03*
X458000Y776400D02*
D03*
X423548Y1348799D02*
D03*
X457000Y702400D02*
D03*
X404500Y1290690D02*
D03*
X431500Y518400D02*
D03*
X474500Y1348400D02*
D03*
X467500Y847400D02*
D03*
X409000Y1352900D02*
D03*
X453500Y634900D02*
D03*
X396000Y1352900D02*
D03*
X455000Y568400D02*
D03*
X402500Y1348900D02*
D03*
X451500Y584400D02*
D03*
X396080Y1295187D02*
D03*
X567230Y1320400D02*
D03*
X513500Y1317360D02*
D03*
X453279Y1316281D02*
D03*
X487691Y1349841D02*
D03*
X433500Y453400D02*
D03*
X481000Y1351900D02*
D03*
X471500Y502900D02*
D03*
D30*
X476500Y280775D02*
D03*
X497000Y282000D02*
D03*
X456000Y265000D02*
D03*
X419000Y269000D02*
D03*
X530000Y270000D02*
D03*
X456000Y289000D02*
D03*
X480000Y145000D02*
D03*
X367500Y192400D02*
D03*
X378500Y164400D02*
D03*
X383500Y304400D02*
D03*
X425500Y306400D02*
D03*
X307500Y292400D02*
D03*
X311500Y230400D02*
D03*
X315500Y191400D02*
D03*
X317500Y260400D02*
D03*
X322500Y140400D02*
D03*
X334500Y173400D02*
D03*
X473000Y305000D02*
D03*
X523500Y236400D02*
D03*
X526500Y184400D02*
D03*
X529500Y151400D02*
D03*
X554500Y290400D02*
D03*
X556500Y237400D02*
D03*
X557500Y178400D02*
D03*
X566500Y137400D02*
D03*
X580500Y291400D02*
D03*
X584500Y229400D02*
D03*
X588500Y190400D02*
D03*
X590500Y259400D02*
D03*
X537000Y1404900D02*
D03*
X305000Y1320900D02*
D03*
X402500Y1405400D02*
D03*
X507500D02*
D03*
X553500Y773400D02*
D03*
X320500Y894400D02*
D03*
X405500Y1183400D02*
D03*
X393500Y1143400D02*
D03*
X403500Y335400D02*
D03*
X309500Y1208900D02*
D03*
X394500Y949400D02*
D03*
X521500Y713400D02*
D03*
X408500Y63400D02*
D03*
X579500Y1208400D02*
D03*
X394500Y871400D02*
D03*
X406500Y1127400D02*
D03*
X579500Y626400D02*
D03*
X590500Y656400D02*
D03*
X319500Y495400D02*
D03*
Y956400D02*
D03*
X409500Y1083400D02*
D03*
X390500Y1122400D02*
D03*
X527500Y373400D02*
D03*
X388500Y1045400D02*
D03*
X381500Y332400D02*
D03*
X592500Y394400D02*
D03*
X582500Y1248400D02*
D03*
X390500Y1179400D02*
D03*
X520500Y1022400D02*
D03*
X319500Y1014400D02*
D03*
X390500Y985400D02*
D03*
X580500Y805400D02*
D03*
X533500Y825400D02*
D03*
X441500Y298400D02*
D03*
X391500Y720400D02*
D03*
X531500Y504400D02*
D03*
X532500Y477400D02*
D03*
X522500Y847400D02*
D03*
X582500Y96400D02*
D03*
X591500Y766400D02*
D03*
X553500Y854400D02*
D03*
Y449400D02*
D03*
X306500Y427400D02*
D03*
X384500Y428400D02*
D03*
X319500Y395400D02*
D03*
X507500Y1180400D02*
D03*
X591500Y294400D02*
D03*
X320500Y349400D02*
D03*
X324500Y74400D02*
D03*
X520500Y594400D02*
D03*
X551500Y680400D02*
D03*
X519500Y1098400D02*
D03*
X307500Y683400D02*
D03*
X579500Y569400D02*
D03*
X554500Y354400D02*
D03*
X535500Y758400D02*
D03*
X318500Y1129400D02*
D03*
X500500Y63400D02*
D03*
X496500Y1218400D02*
D03*
X318500Y837400D02*
D03*
X532500Y972400D02*
D03*
X392500Y779400D02*
D03*
X592500Y707400D02*
D03*
X580500Y376400D02*
D03*
X519500Y957400D02*
D03*
X410500Y855400D02*
D03*
X308500Y515400D02*
D03*
X407500Y1049400D02*
D03*
X525500Y544400D02*
D03*
X554500Y816400D02*
D03*
X372500Y66400D02*
D03*
X310500Y476400D02*
D03*
X455500Y66400D02*
D03*
X410500Y876400D02*
D03*
X307500Y377400D02*
D03*
X563500Y71400D02*
D03*
X523500Y780400D02*
D03*
X507500Y1218400D02*
D03*
X581500Y514400D02*
D03*
X592500Y1181400D02*
D03*
X578500Y1102400D02*
D03*
X580500Y978400D02*
D03*
X308500Y1044400D02*
D03*
X319500Y1182400D02*
D03*
X591500Y600400D02*
D03*
X524500Y339400D02*
D03*
Y879400D02*
D03*
X580500Y682400D02*
D03*
X579500Y864400D02*
D03*
X311000Y1102900D02*
D03*
X393500Y744400D02*
D03*
X592000Y954000D02*
D03*
X390500Y1083400D02*
D03*
X591500Y450400D02*
D03*
X320500Y540400D02*
D03*
X390500Y586400D02*
D03*
X407500Y915400D02*
D03*
X408500Y415400D02*
D03*
X533500Y695400D02*
D03*
X583500Y321400D02*
D03*
X411500Y947400D02*
D03*
X317500Y657400D02*
D03*
X514500Y453400D02*
D03*
X318500Y601400D02*
D03*
X391500Y910400D02*
D03*
X497000Y607400D02*
D03*
X409500Y547400D02*
D03*
X319500Y708400D02*
D03*
X580500Y921400D02*
D03*
X408500Y988400D02*
D03*
X592500Y494400D02*
D03*
X533500Y430400D02*
D03*
X518500Y413400D02*
D03*
X531500Y564400D02*
D03*
X521500Y742400D02*
D03*
X406500Y681400D02*
D03*
X408500Y1143400D02*
D03*
X519500Y1110400D02*
D03*
X406500Y606400D02*
D03*
X307500Y806400D02*
D03*
X522500Y676400D02*
D03*
X553500Y743400D02*
D03*
X552500Y548400D02*
D03*
X591500Y1128400D02*
D03*
X552500Y578400D02*
D03*
X554500Y411400D02*
D03*
X581500Y1043400D02*
D03*
X392500Y682400D02*
D03*
X310500Y322400D02*
D03*
X389500Y510400D02*
D03*
X552500Y614400D02*
D03*
X593500Y348400D02*
D03*
X306500Y865400D02*
D03*
X553500Y304400D02*
D03*
X409500Y732400D02*
D03*
X593500Y893400D02*
D03*
X342500Y86400D02*
D03*
X306500Y570400D02*
D03*
X318500Y1231400D02*
D03*
X591500Y1230400D02*
D03*
X583500Y475400D02*
D03*
X307500Y979400D02*
D03*
X306500Y627400D02*
D03*
X308500Y733400D02*
D03*
X552500Y643400D02*
D03*
X409500Y779400D02*
D03*
X579500Y426400D02*
D03*
X390500Y1007400D02*
D03*
X580500Y1154400D02*
D03*
X523500Y645400D02*
D03*
X551500Y714400D02*
D03*
X591500Y1070400D02*
D03*
X318500Y451400D02*
D03*
X392500Y853400D02*
D03*
X521500Y807400D02*
D03*
X553500Y498400D02*
D03*
X411500Y1009400D02*
D03*
X526500Y1031400D02*
D03*
X410500Y817400D02*
D03*
X581500Y732400D02*
D03*
X535500Y616400D02*
D03*
X591500Y836400D02*
D03*
X496500Y1180400D02*
D03*
X307500Y1155400D02*
D03*
X593500Y539400D02*
D03*
X318500Y1071400D02*
D03*
X409500Y473400D02*
D03*
X396500Y814400D02*
D03*
X309500Y1249400D02*
D03*
X529500Y306400D02*
D03*
X307500Y922400D02*
D03*
X318500Y295400D02*
D03*
Y767400D02*
D03*
X592500Y1013400D02*
D03*
D31*
X567000Y259000D02*
D03*
X330000Y264000D02*
D03*
X328850Y1398307D02*
D03*
X320850Y1398400D02*
D03*
X337100Y1398307D02*
D03*
X618275Y1437900D02*
D03*
X599350Y1457650D02*
D03*
X757500Y256827D02*
D03*
X777500Y234550D02*
D03*
X782500Y328327D02*
D03*
X794000Y234550D02*
D03*
X804500Y328327D02*
D03*
X811500Y234550D02*
D03*
X825500Y316327D02*
D03*
X829000Y302327D02*
D03*
X757500Y282327D02*
D03*
X707100Y241827D02*
D03*
Y280327D02*
D03*
Y266827D02*
D03*
Y254827D02*
D03*
X709750Y313077D02*
D03*
X720250Y323577D02*
D03*
X738000Y328327D02*
D03*
X755500D02*
D03*
X757500Y267827D02*
D03*
Y242327D02*
D03*
X368000Y254900D02*
D03*
X368310Y272900D02*
D03*
X77000Y217573D02*
D03*
X80500Y203573D02*
D03*
X94500Y285350D02*
D03*
X112000D02*
D03*
X128500D02*
D03*
X148500Y252073D02*
D03*
Y237573D02*
D03*
X196250Y206823D02*
D03*
X198900Y239573D02*
D03*
Y253073D02*
D03*
Y265073D02*
D03*
Y278073D02*
D03*
X357000Y231400D02*
D03*
X148500Y263073D02*
D03*
Y277573D02*
D03*
X185750Y196323D02*
D03*
X372850Y316400D02*
D03*
X381930Y402400D02*
D03*
X387500Y451400D02*
D03*
X377390Y355400D02*
D03*
X794000Y370050D02*
D03*
X757500Y417827D02*
D03*
Y403327D02*
D03*
X777500Y370050D02*
D03*
X811500D02*
D03*
X757500Y392327D02*
D03*
Y377827D02*
D03*
X829000Y437827D02*
D03*
X804500Y463827D02*
D03*
X738000D02*
D03*
X707100Y390327D02*
D03*
X825500Y451827D02*
D03*
X707100Y415827D02*
D03*
X782500Y463827D02*
D03*
X720250Y459077D02*
D03*
X709750Y448577D02*
D03*
X707100Y402327D02*
D03*
Y377327D02*
D03*
X755500Y463827D02*
D03*
X101500Y997147D02*
D03*
X196250Y1012397D02*
D03*
X123500Y997147D02*
D03*
X198900Y1045147D02*
D03*
Y1058647D02*
D03*
X185750Y1001897D02*
D03*
X150500Y997147D02*
D03*
X80500Y1009147D02*
D03*
X198900Y1070647D02*
D03*
X168000Y997147D02*
D03*
X77000Y1023147D02*
D03*
X198900Y1083647D02*
D03*
X112000Y1090923D02*
D03*
X148500Y1083147D02*
D03*
X94500Y1090923D02*
D03*
X148500Y1068647D02*
D03*
Y1057647D02*
D03*
X128500Y1090923D02*
D03*
X148500Y1043147D02*
D03*
X794000Y906109D02*
D03*
X757500Y928385D02*
D03*
X777500Y906109D02*
D03*
X757500Y913885D02*
D03*
Y939385D02*
D03*
Y953885D02*
D03*
X811500Y906109D02*
D03*
X720250Y995135D02*
D03*
X755500Y999885D02*
D03*
X707100Y938385D02*
D03*
Y913385D02*
D03*
Y951885D02*
D03*
Y926385D02*
D03*
X804500Y999885D02*
D03*
X825500Y987885D02*
D03*
X709750Y984635D02*
D03*
X738000Y999885D02*
D03*
X782500D02*
D03*
X829000Y973885D02*
D03*
X77000Y487088D02*
D03*
X101500Y461088D02*
D03*
X196250Y476338D02*
D03*
X198900Y547588D02*
D03*
X150500Y461088D02*
D03*
X80500Y473088D02*
D03*
X198900Y534588D02*
D03*
X185750Y465838D02*
D03*
X168000Y461088D02*
D03*
X123500D02*
D03*
X198900Y509088D02*
D03*
Y522588D02*
D03*
X148500Y547088D02*
D03*
Y532588D02*
D03*
Y521588D02*
D03*
X112000Y554865D02*
D03*
X148500Y507088D02*
D03*
X128500Y554865D02*
D03*
X94500D02*
D03*
X77000Y621103D02*
D03*
X198900Y668603D02*
D03*
Y656603D02*
D03*
X101500Y595103D02*
D03*
X168000D02*
D03*
X80500Y607103D02*
D03*
X196250Y610353D02*
D03*
X185750Y599853D02*
D03*
X123500Y595103D02*
D03*
X198900Y643103D02*
D03*
Y681603D02*
D03*
X150500Y595103D02*
D03*
X148500Y666603D02*
D03*
Y641103D02*
D03*
Y655603D02*
D03*
X128500Y688879D02*
D03*
X148500Y681103D02*
D03*
X112000Y688879D02*
D03*
X94500D02*
D03*
X709750Y582591D02*
D03*
X707100Y524341D02*
D03*
Y549841D02*
D03*
Y511341D02*
D03*
X782500Y597841D02*
D03*
X804500D02*
D03*
X755500D02*
D03*
X707100Y536341D02*
D03*
X829000Y571841D02*
D03*
X825500Y585841D02*
D03*
X720250Y593091D02*
D03*
X738000Y597841D02*
D03*
X757500Y511841D02*
D03*
Y526341D02*
D03*
X777500Y504065D02*
D03*
X757500Y551841D02*
D03*
Y537341D02*
D03*
X794000Y504065D02*
D03*
X811500D02*
D03*
X185750Y867882D02*
D03*
X101500Y863132D02*
D03*
X80500Y875132D02*
D03*
X123500Y863132D02*
D03*
X77000Y889132D02*
D03*
X198900Y949632D02*
D03*
X196250Y878382D02*
D03*
X198900Y924632D02*
D03*
Y911132D02*
D03*
Y936632D02*
D03*
X168000Y863132D02*
D03*
X150500D02*
D03*
X148500Y909132D02*
D03*
X112000Y956909D02*
D03*
X128500D02*
D03*
X148500Y949132D02*
D03*
Y934632D02*
D03*
X94500Y956909D02*
D03*
X148500Y923632D02*
D03*
X451000Y1405400D02*
D03*
X591100Y1490150D02*
D03*
X318500Y1348400D02*
D03*
X439500Y1507900D02*
D03*
X468500D02*
D03*
X502000Y1429400D02*
D03*
X417500Y1385400D02*
D03*
X574100Y1401150D02*
D03*
X432500Y1421400D02*
D03*
X479850Y1415900D02*
D03*
X516500Y1504400D02*
D03*
X709750Y1118650D02*
D03*
X707100Y1047400D02*
D03*
X738000Y1133900D02*
D03*
X707100Y1072400D02*
D03*
X720250Y1129150D02*
D03*
X755500Y1133900D02*
D03*
X804500D02*
D03*
X782500D02*
D03*
X829000Y1107900D02*
D03*
X707100Y1085900D02*
D03*
X825500Y1121900D02*
D03*
X707100Y1060400D02*
D03*
X757500Y1047900D02*
D03*
Y1087900D02*
D03*
Y1062400D02*
D03*
X777500Y1040123D02*
D03*
X757500Y1073400D02*
D03*
X794000Y1040123D02*
D03*
X811500D02*
D03*
X148500Y1217523D02*
D03*
Y1203023D02*
D03*
X112000Y1225300D02*
D03*
X128500D02*
D03*
X94500D02*
D03*
X148500Y1177523D02*
D03*
Y1192023D02*
D03*
X198900Y1179523D02*
D03*
X123500Y1131523D02*
D03*
X196250Y1146773D02*
D03*
X101500Y1131523D02*
D03*
X198900Y1218023D02*
D03*
X168000Y1131523D02*
D03*
X185750Y1136273D02*
D03*
X80500Y1143523D02*
D03*
X77000Y1157523D02*
D03*
X198900Y1205023D02*
D03*
Y1193023D02*
D03*
X150500Y1131523D02*
D03*
X77000Y353073D02*
D03*
X196250Y342323D02*
D03*
X198900Y413573D02*
D03*
Y375073D02*
D03*
X80500Y339073D02*
D03*
X168000Y327073D02*
D03*
X198900Y388573D02*
D03*
Y400573D02*
D03*
X185750Y331823D02*
D03*
X123500Y327073D02*
D03*
X150500D02*
D03*
X101500D02*
D03*
X148500Y413073D02*
D03*
Y387573D02*
D03*
X94500Y420850D02*
D03*
X128500D02*
D03*
X112000D02*
D03*
X148500Y398573D02*
D03*
Y373073D02*
D03*
Y775117D02*
D03*
X112000Y822894D02*
D03*
X94500D02*
D03*
X148500Y789617D02*
D03*
Y815117D02*
D03*
Y800617D02*
D03*
X128500Y822894D02*
D03*
X198900Y802617D02*
D03*
Y790617D02*
D03*
X101500Y729117D02*
D03*
X185750Y733867D02*
D03*
X168000Y729117D02*
D03*
X198900Y815617D02*
D03*
Y777117D02*
D03*
X150500Y729117D02*
D03*
X77000Y755117D02*
D03*
X196250Y744367D02*
D03*
X80500Y741117D02*
D03*
X123500Y729117D02*
D03*
X709750Y716606D02*
D03*
X804500Y731856D02*
D03*
X755500D02*
D03*
X782500D02*
D03*
X707100Y670356D02*
D03*
Y645356D02*
D03*
X829000Y705856D02*
D03*
X738000Y731856D02*
D03*
X707100Y683856D02*
D03*
X720250Y727106D02*
D03*
X825500Y719856D02*
D03*
X707100Y658356D02*
D03*
X794000Y638079D02*
D03*
X811500D02*
D03*
X757500Y685856D02*
D03*
Y660356D02*
D03*
Y671356D02*
D03*
Y645856D02*
D03*
X777500Y638079D02*
D03*
X757500Y794371D02*
D03*
Y819871D02*
D03*
Y805371D02*
D03*
X794000Y772094D02*
D03*
X757500Y779871D02*
D03*
X777500Y772094D02*
D03*
X811500D02*
D03*
X720250Y861121D02*
D03*
X738000Y865871D02*
D03*
X709750Y850621D02*
D03*
X707100Y779371D02*
D03*
X782500Y865871D02*
D03*
X707100Y817871D02*
D03*
X804500Y865871D02*
D03*
X825500Y853871D02*
D03*
X707100Y792371D02*
D03*
X829000Y839871D02*
D03*
X707100Y804371D02*
D03*
X755500Y865871D02*
D03*
X603350Y1420650D02*
D03*
X637350Y1419650D02*
D03*
X566500Y395400D02*
D03*
Y1199900D02*
D03*
X330500Y1199950D02*
D03*
X566500Y529415D02*
D03*
X616350Y1457650D02*
D03*
X412850Y1462900D02*
D03*
X566500Y797444D02*
D03*
X330500Y1065573D02*
D03*
X368850Y1478650D02*
D03*
X389350Y1507650D02*
D03*
X566500Y1065473D02*
D03*
X330500Y529515D02*
D03*
Y412400D02*
D03*
Y931559D02*
D03*
X566500Y663429D02*
D03*
X638350Y1457650D02*
D03*
X330500Y663529D02*
D03*
X333500Y1507900D02*
D03*
X566500Y947400D02*
D03*
X620350Y1420650D02*
D03*
X330500Y797544D02*
D03*
X757500Y1222277D02*
D03*
Y1207777D02*
D03*
X794000Y1174500D02*
D03*
X777500D02*
D03*
X757500Y1196777D02*
D03*
X811500Y1174500D02*
D03*
X757500Y1182277D02*
D03*
X829000Y1242277D02*
D03*
X709750Y1253027D02*
D03*
X707100Y1220277D02*
D03*
X720250Y1263527D02*
D03*
X825500Y1256277D02*
D03*
X707100Y1206777D02*
D03*
X755500Y1268277D02*
D03*
X707100Y1194777D02*
D03*
X804500Y1268277D02*
D03*
X738000D02*
D03*
X707100Y1181777D02*
D03*
X782500Y1268277D02*
D03*
D32*
X340625Y1395525D02*
D03*
X442875Y289400D02*
D03*
Y270400D02*
D03*
X424125Y279900D02*
D03*
X465425Y163900D02*
D03*
Y182900D02*
D03*
X484175Y173400D02*
D03*
X466125Y235400D02*
D03*
Y254400D02*
D03*
X484875Y244900D02*
D03*
X441375Y217900D02*
D03*
Y198900D02*
D03*
X422625Y208400D02*
D03*
X425625Y693400D02*
D03*
X444375Y683900D02*
D03*
Y702900D02*
D03*
X425625Y559150D02*
D03*
X444375Y549650D02*
D03*
Y568650D02*
D03*
X425625Y1192525D02*
D03*
X444375Y1183025D02*
D03*
Y1202025D02*
D03*
X359375Y1386025D02*
D03*
Y1405025D02*
D03*
X425625Y493400D02*
D03*
X444375Y483900D02*
D03*
Y502900D02*
D03*
X482875Y935900D02*
D03*
X464125Y945400D02*
D03*
Y926400D02*
D03*
X425625Y899150D02*
D03*
X444375Y889650D02*
D03*
Y908650D02*
D03*
X485375Y592400D02*
D03*
X466625Y601900D02*
D03*
Y582900D02*
D03*
X486375Y323900D02*
D03*
X467625Y333400D02*
D03*
Y314400D02*
D03*
X425625Y427900D02*
D03*
X444375Y418400D02*
D03*
Y437400D02*
D03*
X480375Y461400D02*
D03*
X461625Y470900D02*
D03*
Y451900D02*
D03*
X487475Y861400D02*
D03*
X468725Y870900D02*
D03*
Y851900D02*
D03*
X425625Y625400D02*
D03*
X444375Y615900D02*
D03*
Y634900D02*
D03*
X481375Y794400D02*
D03*
X462625Y803900D02*
D03*
Y784900D02*
D03*
X481375Y659900D02*
D03*
X462625Y669400D02*
D03*
Y650400D02*
D03*
X483875Y526900D02*
D03*
X465125Y536400D02*
D03*
Y517400D02*
D03*
X425625Y969525D02*
D03*
X444375Y960025D02*
D03*
Y979025D02*
D03*
X482875Y1154400D02*
D03*
X464125Y1163900D02*
D03*
Y1144900D02*
D03*
X482875Y1003900D02*
D03*
X464125Y1013400D02*
D03*
Y994400D02*
D03*
X425625Y1042525D02*
D03*
X444375Y1033025D02*
D03*
Y1052025D02*
D03*
X480375Y393900D02*
D03*
X461625Y403400D02*
D03*
Y384400D02*
D03*
X425825Y1229525D02*
D03*
X444575Y1220025D02*
D03*
Y1239025D02*
D03*
X483875Y1265400D02*
D03*
X465125Y1274900D02*
D03*
Y1255900D02*
D03*
X425625Y359025D02*
D03*
X444375Y349525D02*
D03*
Y368525D02*
D03*
X482875Y1082650D02*
D03*
X464125Y1092150D02*
D03*
Y1073150D02*
D03*
X425625Y827400D02*
D03*
X444375Y817900D02*
D03*
Y836900D02*
D03*
X425625Y1118025D02*
D03*
X444375Y1108525D02*
D03*
Y1127525D02*
D03*
X425625Y759525D02*
D03*
X444375Y750025D02*
D03*
Y769025D02*
D03*
X488375Y727400D02*
D03*
X469625Y736900D02*
D03*
Y717900D02*
D03*
D33*
X414200Y1445150D02*
D03*
X379200D02*
D03*
D34*
X551700Y1487400D02*
D03*
X384750Y230900D02*
D03*
X368250D02*
D03*
X446750Y146900D02*
D03*
X463250D02*
D03*
X384750Y246900D02*
D03*
X368250D02*
D03*
X385750Y281400D02*
D03*
X369250D02*
D03*
X528750Y1084400D02*
D03*
X512250D02*
D03*
X538250Y904900D02*
D03*
X521750D02*
D03*
X528750Y1047400D02*
D03*
X512250D02*
D03*
X538250Y920400D02*
D03*
X521750D02*
D03*
X389750Y315400D02*
D03*
X406250D02*
D03*
X517250Y1139900D02*
D03*
X500750D02*
D03*
X528750Y990400D02*
D03*
X512250D02*
D03*
X366250Y384900D02*
D03*
X382750D02*
D03*
X535200Y1487400D02*
D03*
X528750Y1005900D02*
D03*
X512250D02*
D03*
X390250Y1257900D02*
D03*
X406750D02*
D03*
X388750Y456400D02*
D03*
X405250D02*
D03*
X366250Y369400D02*
D03*
X382750D02*
D03*
X517250Y1124400D02*
D03*
X500750D02*
D03*
X390250Y1274400D02*
D03*
X406750D02*
D03*
X390750Y1218400D02*
D03*
X407250D02*
D03*
D35*
X442200Y181150D02*
D03*
Y165650D02*
D03*
X444025Y252650D02*
D03*
Y237150D02*
D03*
X462000Y201650D02*
D03*
Y217150D02*
D03*
X466100Y273025D02*
D03*
Y288525D02*
D03*
X440900Y584650D02*
D03*
Y600150D02*
D03*
X464500Y1126650D02*
D03*
Y1111150D02*
D03*
X445500Y927150D02*
D03*
Y942650D02*
D03*
X440400Y786650D02*
D03*
Y802150D02*
D03*
X464500Y768150D02*
D03*
Y752650D02*
D03*
X445700Y1146650D02*
D03*
Y1162150D02*
D03*
X464500Y436525D02*
D03*
Y421025D02*
D03*
X572500Y1328150D02*
D03*
Y1343650D02*
D03*
X445700Y1076650D02*
D03*
Y1092150D02*
D03*
X464500Y567775D02*
D03*
Y552275D02*
D03*
Y836025D02*
D03*
Y820525D02*
D03*
X465200Y633150D02*
D03*
Y617650D02*
D03*
X439400Y519150D02*
D03*
Y534650D02*
D03*
X446700Y1257650D02*
D03*
Y1273150D02*
D03*
X464500Y1201150D02*
D03*
Y1185650D02*
D03*
X443000Y853650D02*
D03*
Y869150D02*
D03*
X442000Y385650D02*
D03*
Y401150D02*
D03*
X464500Y702025D02*
D03*
Y686525D02*
D03*
X441900Y316150D02*
D03*
Y331650D02*
D03*
X464700Y1238150D02*
D03*
Y1222650D02*
D03*
X465200Y502025D02*
D03*
Y486525D02*
D03*
X442000Y453650D02*
D03*
Y469150D02*
D03*
X443900Y719650D02*
D03*
Y735150D02*
D03*
X439900Y652150D02*
D03*
Y667650D02*
D03*
X463600Y367650D02*
D03*
Y352150D02*
D03*
X445700Y996150D02*
D03*
Y1011650D02*
D03*
X464500Y1051150D02*
D03*
Y1035650D02*
D03*
Y978150D02*
D03*
Y962650D02*
D03*
X314000Y1320650D02*
D03*
Y1336150D02*
D03*
X464500Y905150D02*
D03*
Y889650D02*
D03*
D36*
X455250Y1305400D02*
D03*
X461750D02*
D03*
X468250D02*
D03*
X474750D02*
D03*
X481250D02*
D03*
X487750D02*
D03*
X494250D02*
D03*
X500750D02*
D03*
Y1362650D02*
D03*
X494250D02*
D03*
X487750D02*
D03*
X481250D02*
D03*
X474750D02*
D03*
X468250D02*
D03*
X461750D02*
D03*
X455250D02*
D03*
X336750Y1305400D02*
D03*
X343250D02*
D03*
X349750D02*
D03*
X356250D02*
D03*
X362750D02*
D03*
X369250D02*
D03*
X375750D02*
D03*
X382250D02*
D03*
Y1362650D02*
D03*
X375750D02*
D03*
X369250D02*
D03*
X362750D02*
D03*
X356250D02*
D03*
X349750D02*
D03*
X343250D02*
D03*
X336750D02*
D03*
X395850Y1305400D02*
D03*
X402350D02*
D03*
X408850D02*
D03*
X415350D02*
D03*
X421850D02*
D03*
X428350D02*
D03*
X434850D02*
D03*
X441350D02*
D03*
Y1362650D02*
D03*
X434850D02*
D03*
X428350D02*
D03*
X421850D02*
D03*
X415350D02*
D03*
X408850D02*
D03*
X402350D02*
D03*
X395850D02*
D03*
X513750Y1305400D02*
D03*
X520250D02*
D03*
X526750D02*
D03*
X533250D02*
D03*
X539750D02*
D03*
X546250D02*
D03*
X552750D02*
D03*
X559250D02*
D03*
Y1362650D02*
D03*
X552750D02*
D03*
X546250D02*
D03*
X539750D02*
D03*
X533250D02*
D03*
X526750D02*
D03*
X520250D02*
D03*
X513750D02*
D03*
D37*
X566459Y259000D02*
X567000D01*
X504200Y260000D02*
X565459D01*
X566459Y259000D01*
X504100Y259900D02*
X504200Y260000D01*
X442000Y469150D02*
X444375Y471525D01*
Y483900D01*
X448450Y1274900D02*
X465125D01*
X446700Y1273150D02*
X448450Y1274900D01*
M02*
