G04*
G04 #@! TF.GenerationSoftware,Altium Limited,Altium Designer,26.5.1 (12)*
G04*
G04 Layer_Color=16711935*
G04 Board_Origin=0|0*
%FSLAX44Y44*%
%MOMM*%
G71*
G04*
G04 #@! TF.SameCoordinates,F9DE173E-AD32-4170-81DE-BFE943D2D91D*
G04*
G04*
G04 #@! TF.FilePolarity,Negative*
G04*
G01*
G75*
G04:AMPARAMS|DCode=11|XSize=0.8mm|YSize=0.95mm|CornerRadius=0.1mm|HoleSize=0mm|Usage=FLASHONLY|Rotation=90.000|XOffset=0mm|YOffset=0mm|HoleType=Round|Shape=RoundedRectangle|*
%AMROUNDEDRECTD11*
21,1,0.8000,0.7500,0,0,90.0*
21,1,0.6000,0.9500,0,0,90.0*
1,1,0.2000,0.3750,0.3000*
1,1,0.2000,0.3750,-0.3000*
1,1,0.2000,-0.3750,-0.3000*
1,1,0.2000,-0.3750,0.3000*
%
%ADD11ROUNDEDRECTD11*%
G04:AMPARAMS|DCode=13|XSize=2.4mm|YSize=2.4mm|CornerRadius=0.12mm|HoleSize=0mm|Usage=FLASHONLY|Rotation=270.000|XOffset=0mm|YOffset=0mm|HoleType=Round|Shape=RoundedRectangle|*
%AMROUNDEDRECTD13*
21,1,2.4000,2.1600,0,0,270.0*
21,1,2.1600,2.4000,0,0,270.0*
1,1,0.2400,-1.0800,-1.0800*
1,1,0.2400,-1.0800,1.0800*
1,1,0.2400,1.0800,1.0800*
1,1,0.2400,1.0800,-1.0800*
%
%ADD13ROUNDEDRECTD13*%
%ADD14C,2.4000*%
%ADD15C,2.0000*%
%ADD16R,1.7000X1.7000*%
G04:AMPARAMS|DCode=17|XSize=2.4mm|YSize=2.4mm|CornerRadius=0.12mm|HoleSize=0mm|Usage=FLASHONLY|Rotation=180.000|XOffset=0mm|YOffset=0mm|HoleType=Round|Shape=RoundedRectangle|*
%AMROUNDEDRECTD17*
21,1,2.4000,2.1600,0,0,180.0*
21,1,2.1600,2.4000,0,0,180.0*
1,1,0.2400,-1.0800,1.0800*
1,1,0.2400,1.0800,1.0800*
1,1,0.2400,1.0800,-1.0800*
1,1,0.2400,-1.0800,-1.0800*
%
%ADD17ROUNDEDRECTD17*%
%ADD18C,3.0000*%
G04:AMPARAMS|DCode=19|XSize=2.1mm|YSize=3.6mm|CornerRadius=0.126mm|HoleSize=0mm|Usage=FLASHONLY|Rotation=90.000|XOffset=0mm|YOffset=0mm|HoleType=Round|Shape=RoundedRectangle|*
%AMROUNDEDRECTD19*
21,1,2.1000,3.3480,0,0,90.0*
21,1,1.8480,3.6000,0,0,90.0*
1,1,0.2520,1.6740,0.9240*
1,1,0.2520,1.6740,-0.9240*
1,1,0.2520,-1.6740,-0.9240*
1,1,0.2520,-1.6740,0.9240*
%
%ADD19ROUNDEDRECTD19*%
G04:AMPARAMS|DCode=20|XSize=2.1mm|YSize=3.6mm|CornerRadius=1.05mm|HoleSize=0mm|Usage=FLASHONLY|Rotation=90.000|XOffset=0mm|YOffset=0mm|HoleType=Round|Shape=RoundedRectangle|*
%AMROUNDEDRECTD20*
21,1,2.1000,1.5000,0,0,90.0*
21,1,0.0000,3.6000,0,0,90.0*
1,1,2.1000,0.7500,0.0000*
1,1,2.1000,0.7500,0.0000*
1,1,2.1000,-0.7500,0.0000*
1,1,2.1000,-0.7500,0.0000*
%
%ADD20ROUNDEDRECTD20*%
%ADD21C,1.7000*%
G04:AMPARAMS|DCode=32|XSize=1.475mm|YSize=0.6mm|CornerRadius=0.075mm|HoleSize=0mm|Usage=FLASHONLY|Rotation=180.000|XOffset=0mm|YOffset=0mm|HoleType=Round|Shape=RoundedRectangle|*
%AMROUNDEDRECTD32*
21,1,1.4750,0.4500,0,0,180.0*
21,1,1.3250,0.6000,0,0,180.0*
1,1,0.1500,-0.6625,0.2250*
1,1,0.1500,0.6625,0.2250*
1,1,0.1500,0.6625,-0.2250*
1,1,0.1500,-0.6625,-0.2250*
%
%ADD32ROUNDEDRECTD32*%
G04:AMPARAMS|DCode=33|XSize=1.3mm|YSize=1.7mm|CornerRadius=0.1235mm|HoleSize=0mm|Usage=FLASHONLY|Rotation=180.000|XOffset=0mm|YOffset=0mm|HoleType=Round|Shape=RoundedRectangle|*
%AMROUNDEDRECTD33*
21,1,1.3000,1.4530,0,0,180.0*
21,1,1.0530,1.7000,0,0,180.0*
1,1,0.2470,-0.5265,0.7265*
1,1,0.2470,0.5265,0.7265*
1,1,0.2470,0.5265,-0.7265*
1,1,0.2470,-0.5265,-0.7265*
%
%ADD33ROUNDEDRECTD33*%
G04:AMPARAMS|DCode=34|XSize=0.8mm|YSize=0.95mm|CornerRadius=0.1mm|HoleSize=0mm|Usage=FLASHONLY|Rotation=180.000|XOffset=0mm|YOffset=0mm|HoleType=Round|Shape=RoundedRectangle|*
%AMROUNDEDRECTD34*
21,1,0.8000,0.7500,0,0,180.0*
21,1,0.6000,0.9500,0,0,180.0*
1,1,0.2000,-0.3000,0.3750*
1,1,0.2000,0.3000,0.3750*
1,1,0.2000,0.3000,-0.3750*
1,1,0.2000,-0.3000,-0.3750*
%
%ADD34ROUNDEDRECTD34*%
G04:AMPARAMS|DCode=35|XSize=0.9mm|YSize=0.95mm|CornerRadius=0.1125mm|HoleSize=0mm|Usage=FLASHONLY|Rotation=270.000|XOffset=0mm|YOffset=0mm|HoleType=Round|Shape=RoundedRectangle|*
%AMROUNDEDRECTD35*
21,1,0.9000,0.7250,0,0,270.0*
21,1,0.6750,0.9500,0,0,270.0*
1,1,0.2250,-0.3625,-0.3375*
1,1,0.2250,-0.3625,0.3375*
1,1,0.2250,0.3625,0.3375*
1,1,0.2250,0.3625,-0.3375*
%
%ADD35ROUNDEDRECTD35*%
G04:AMPARAMS|DCode=36|XSize=1.475mm|YSize=0.4mm|CornerRadius=0.05mm|HoleSize=0mm|Usage=FLASHONLY|Rotation=270.000|XOffset=0mm|YOffset=0mm|HoleType=Round|Shape=RoundedRectangle|*
%AMROUNDEDRECTD36*
21,1,1.4750,0.3000,0,0,270.0*
21,1,1.3750,0.4000,0,0,270.0*
1,1,0.1000,-0.1500,-0.6875*
1,1,0.1000,-0.1500,0.6875*
1,1,0.1000,0.1500,0.6875*
1,1,0.1000,0.1500,-0.6875*
%
%ADD36ROUNDEDRECTD36*%
D11*
X483800Y272525D02*
D03*
Y289025D02*
D03*
X479500Y201025D02*
D03*
Y217525D02*
D03*
X424500Y181650D02*
D03*
Y165150D02*
D03*
X426325Y253150D02*
D03*
Y236650D02*
D03*
X424200Y315650D02*
D03*
Y332150D02*
D03*
X422200Y651650D02*
D03*
Y668150D02*
D03*
X482000Y502525D02*
D03*
Y486025D02*
D03*
X481300Y836525D02*
D03*
Y820025D02*
D03*
X544500Y102150D02*
D03*
Y85650D02*
D03*
X481300Y978650D02*
D03*
Y962150D02*
D03*
X481500Y1238650D02*
D03*
Y1222150D02*
D03*
X427800Y926650D02*
D03*
Y943150D02*
D03*
X482000Y633650D02*
D03*
Y617150D02*
D03*
X359350Y1445400D02*
D03*
Y1428900D02*
D03*
X481300Y437025D02*
D03*
Y420525D02*
D03*
Y1051650D02*
D03*
Y1035150D02*
D03*
X429000Y1257150D02*
D03*
Y1273650D02*
D03*
X428000Y1075650D02*
D03*
Y1092150D02*
D03*
X423200Y584150D02*
D03*
Y600650D02*
D03*
X426200Y719150D02*
D03*
Y735650D02*
D03*
X428000Y995650D02*
D03*
Y1012150D02*
D03*
X378450Y1421650D02*
D03*
Y1405150D02*
D03*
X481300Y368150D02*
D03*
Y351650D02*
D03*
Y1201650D02*
D03*
Y1185150D02*
D03*
Y906150D02*
D03*
Y889650D02*
D03*
X383500Y102150D02*
D03*
Y85650D02*
D03*
X522500Y102150D02*
D03*
Y85650D02*
D03*
X481300Y1127150D02*
D03*
Y1110650D02*
D03*
X424500Y385150D02*
D03*
Y401650D02*
D03*
X425300Y853150D02*
D03*
Y869650D02*
D03*
X421700Y518650D02*
D03*
Y535150D02*
D03*
X364500Y102150D02*
D03*
Y85650D02*
D03*
X481300Y702525D02*
D03*
Y686025D02*
D03*
X422700Y786150D02*
D03*
Y802650D02*
D03*
X424500Y453150D02*
D03*
Y469650D02*
D03*
X481300Y568275D02*
D03*
Y551775D02*
D03*
Y768650D02*
D03*
Y752150D02*
D03*
X428000Y1146150D02*
D03*
Y1162650D02*
D03*
D13*
X329000Y1473000D02*
D03*
D14*
Y1423000D02*
D03*
X554190Y1437900D02*
D03*
D15*
X504100Y259900D02*
D03*
Y395400D02*
D03*
Y529415D02*
D03*
Y663429D02*
D03*
Y797444D02*
D03*
Y931459D02*
D03*
Y1065473D02*
D03*
X503688Y1199900D02*
D03*
X401600Y260000D02*
D03*
Y395500D02*
D03*
Y529515D02*
D03*
Y663529D02*
D03*
Y797544D02*
D03*
Y931559D02*
D03*
Y1065573D02*
D03*
Y1199950D02*
D03*
X198600Y222500D02*
D03*
Y297500D02*
D03*
X248600Y222500D02*
D03*
Y297500D02*
D03*
X148200Y222500D02*
D03*
Y297500D02*
D03*
X401600D02*
D03*
Y222500D02*
D03*
X707100Y297400D02*
D03*
Y222400D02*
D03*
X657100Y297400D02*
D03*
Y222400D02*
D03*
X757500Y297400D02*
D03*
Y222400D02*
D03*
X504100D02*
D03*
Y297400D02*
D03*
Y432900D02*
D03*
Y357900D02*
D03*
X757500D02*
D03*
Y432900D02*
D03*
X657100Y357900D02*
D03*
Y432900D02*
D03*
X707100Y357900D02*
D03*
Y432900D02*
D03*
X401600Y894059D02*
D03*
Y969059D02*
D03*
X148200D02*
D03*
Y894059D02*
D03*
X248600Y969059D02*
D03*
Y894059D02*
D03*
X198600Y969059D02*
D03*
Y894059D02*
D03*
X401600Y492015D02*
D03*
Y567015D02*
D03*
X148200D02*
D03*
Y492015D02*
D03*
X248600Y567015D02*
D03*
Y492015D02*
D03*
X198600Y567015D02*
D03*
Y492015D02*
D03*
X401600Y1028073D02*
D03*
Y1103073D02*
D03*
X148200D02*
D03*
Y1028073D02*
D03*
X248600Y1103073D02*
D03*
Y1028073D02*
D03*
X198600Y1103073D02*
D03*
Y1028073D02*
D03*
X401600Y358000D02*
D03*
Y433000D02*
D03*
X148200D02*
D03*
Y358000D02*
D03*
X248600Y433000D02*
D03*
Y358000D02*
D03*
X198600Y433000D02*
D03*
Y358000D02*
D03*
X504100Y700929D02*
D03*
Y625929D02*
D03*
X757500D02*
D03*
Y700929D02*
D03*
X657100Y625929D02*
D03*
Y700929D02*
D03*
X707100Y625929D02*
D03*
Y700929D02*
D03*
X504100Y968959D02*
D03*
Y893959D02*
D03*
X757500D02*
D03*
Y968959D02*
D03*
X657100Y893959D02*
D03*
Y968959D02*
D03*
X707100Y893959D02*
D03*
Y968959D02*
D03*
X504100Y566915D02*
D03*
Y491915D02*
D03*
X757500D02*
D03*
Y566915D02*
D03*
X657100Y491915D02*
D03*
Y566915D02*
D03*
X707100Y491915D02*
D03*
Y566915D02*
D03*
X504100Y1102973D02*
D03*
Y1027973D02*
D03*
X757500D02*
D03*
Y1102973D02*
D03*
X657100Y1027973D02*
D03*
Y1102973D02*
D03*
X707100Y1027973D02*
D03*
Y1102973D02*
D03*
X401600Y626029D02*
D03*
Y701029D02*
D03*
X148200D02*
D03*
Y626029D02*
D03*
X248600Y701029D02*
D03*
Y626029D02*
D03*
X198600Y701029D02*
D03*
Y626029D02*
D03*
X401600Y1162450D02*
D03*
Y1237450D02*
D03*
X148200D02*
D03*
Y1162450D02*
D03*
X248600Y1237450D02*
D03*
Y1162450D02*
D03*
X198600Y1237450D02*
D03*
Y1162450D02*
D03*
X401600Y760044D02*
D03*
Y835044D02*
D03*
X148200D02*
D03*
Y760044D02*
D03*
X248600Y835044D02*
D03*
Y760044D02*
D03*
X198600Y835044D02*
D03*
Y760044D02*
D03*
X504100Y834944D02*
D03*
Y759944D02*
D03*
X757500D02*
D03*
Y834944D02*
D03*
X657100Y759944D02*
D03*
Y834944D02*
D03*
X707100Y759944D02*
D03*
Y834944D02*
D03*
X503688Y1237400D02*
D03*
Y1162400D02*
D03*
X757088D02*
D03*
Y1237400D02*
D03*
X656688Y1162400D02*
D03*
Y1237400D02*
D03*
X706688Y1162400D02*
D03*
Y1237400D02*
D03*
D16*
X415100Y1487400D02*
D03*
X414900Y93900D02*
D03*
D17*
X604190Y1437900D02*
D03*
D18*
X233000Y1297900D02*
D03*
X673000Y147900D02*
D03*
X233000D02*
D03*
X673000Y1297900D02*
D03*
D19*
X829000Y234550D02*
D03*
X77000Y285350D02*
D03*
X829000Y370050D02*
D03*
Y772094D02*
D03*
X77000Y1225300D02*
D03*
X829000Y1174500D02*
D03*
Y906109D02*
D03*
X77000Y822894D02*
D03*
Y1090923D02*
D03*
Y554865D02*
D03*
Y688879D02*
D03*
X829000Y504065D02*
D03*
X77000Y956909D02*
D03*
X829000Y1040123D02*
D03*
X77000Y420850D02*
D03*
X829000Y638079D02*
D03*
D20*
Y285350D02*
D03*
X77000Y234550D02*
D03*
X829000Y420850D02*
D03*
Y822894D02*
D03*
X77000Y1174500D02*
D03*
X829000Y1225300D02*
D03*
Y956909D02*
D03*
X77000Y772094D02*
D03*
Y1040123D02*
D03*
Y504065D02*
D03*
Y638079D02*
D03*
X829000Y554865D02*
D03*
X77000Y906109D02*
D03*
X829000Y1090923D02*
D03*
X77000Y370050D02*
D03*
X829000Y688879D02*
D03*
D21*
X491100Y93900D02*
D03*
X465700D02*
D03*
X440300D02*
D03*
X491300Y1487400D02*
D03*
X465900D02*
D03*
X440500D02*
D03*
D32*
X340625Y1395525D02*
D03*
X442875Y289400D02*
D03*
Y270400D02*
D03*
X424125Y279900D02*
D03*
X465425Y163900D02*
D03*
Y182900D02*
D03*
X484175Y173400D02*
D03*
X466125Y235400D02*
D03*
Y254400D02*
D03*
X484875Y244900D02*
D03*
X441375Y217900D02*
D03*
Y198900D02*
D03*
X422625Y208400D02*
D03*
X425625Y693400D02*
D03*
X444375Y683900D02*
D03*
Y702900D02*
D03*
X425625Y559150D02*
D03*
X444375Y549650D02*
D03*
Y568650D02*
D03*
X425625Y1192525D02*
D03*
X444375Y1183025D02*
D03*
Y1202025D02*
D03*
X359375Y1386025D02*
D03*
Y1405025D02*
D03*
X425625Y493400D02*
D03*
X444375Y483900D02*
D03*
Y502900D02*
D03*
X482875Y935900D02*
D03*
X464125Y945400D02*
D03*
Y926400D02*
D03*
X425625Y899150D02*
D03*
X444375Y889650D02*
D03*
Y908650D02*
D03*
X485375Y592400D02*
D03*
X466625Y601900D02*
D03*
Y582900D02*
D03*
X486375Y323900D02*
D03*
X467625Y333400D02*
D03*
Y314400D02*
D03*
X425625Y427900D02*
D03*
X444375Y418400D02*
D03*
Y437400D02*
D03*
X480375Y461400D02*
D03*
X461625Y470900D02*
D03*
Y451900D02*
D03*
X487475Y861400D02*
D03*
X468725Y870900D02*
D03*
Y851900D02*
D03*
X425625Y625400D02*
D03*
X444375Y615900D02*
D03*
Y634900D02*
D03*
X481375Y794400D02*
D03*
X462625Y803900D02*
D03*
Y784900D02*
D03*
X481375Y659900D02*
D03*
X462625Y669400D02*
D03*
Y650400D02*
D03*
X483875Y526900D02*
D03*
X465125Y536400D02*
D03*
Y517400D02*
D03*
X425625Y969525D02*
D03*
X444375Y960025D02*
D03*
Y979025D02*
D03*
X482875Y1154400D02*
D03*
X464125Y1163900D02*
D03*
Y1144900D02*
D03*
X482875Y1003900D02*
D03*
X464125Y1013400D02*
D03*
Y994400D02*
D03*
X425625Y1042525D02*
D03*
X444375Y1033025D02*
D03*
Y1052025D02*
D03*
X480375Y393900D02*
D03*
X461625Y403400D02*
D03*
Y384400D02*
D03*
X425825Y1229525D02*
D03*
X444575Y1220025D02*
D03*
Y1239025D02*
D03*
X483875Y1265400D02*
D03*
X465125Y1274900D02*
D03*
Y1255900D02*
D03*
X425625Y359025D02*
D03*
X444375Y349525D02*
D03*
Y368525D02*
D03*
X482875Y1082650D02*
D03*
X464125Y1092150D02*
D03*
Y1073150D02*
D03*
X425625Y827400D02*
D03*
X444375Y817900D02*
D03*
Y836900D02*
D03*
X425625Y1118025D02*
D03*
X444375Y1108525D02*
D03*
Y1127525D02*
D03*
X425625Y759525D02*
D03*
X444375Y750025D02*
D03*
Y769025D02*
D03*
X488375Y727400D02*
D03*
X469625Y736900D02*
D03*
Y717900D02*
D03*
D33*
X414200Y1445150D02*
D03*
X379200D02*
D03*
D34*
X551700Y1487400D02*
D03*
X384750Y230900D02*
D03*
X368250D02*
D03*
X446750Y146900D02*
D03*
X463250D02*
D03*
X384750Y246900D02*
D03*
X368250D02*
D03*
X385750Y281400D02*
D03*
X369250D02*
D03*
X528750Y1084400D02*
D03*
X512250D02*
D03*
X538250Y904900D02*
D03*
X521750D02*
D03*
X528750Y1047400D02*
D03*
X512250D02*
D03*
X538250Y920400D02*
D03*
X521750D02*
D03*
X389750Y315400D02*
D03*
X406250D02*
D03*
X517250Y1139900D02*
D03*
X500750D02*
D03*
X528750Y990400D02*
D03*
X512250D02*
D03*
X366250Y384900D02*
D03*
X382750D02*
D03*
X535200Y1487400D02*
D03*
X528750Y1005900D02*
D03*
X512250D02*
D03*
X390250Y1257900D02*
D03*
X406750D02*
D03*
X388750Y456400D02*
D03*
X405250D02*
D03*
X366250Y369400D02*
D03*
X382750D02*
D03*
X517250Y1124400D02*
D03*
X500750D02*
D03*
X390250Y1274400D02*
D03*
X406750D02*
D03*
X390750Y1218400D02*
D03*
X407250D02*
D03*
D35*
X442200Y181150D02*
D03*
Y165650D02*
D03*
X444025Y252650D02*
D03*
Y237150D02*
D03*
X462000Y201650D02*
D03*
Y217150D02*
D03*
X466100Y273025D02*
D03*
Y288525D02*
D03*
X440900Y584650D02*
D03*
Y600150D02*
D03*
X464500Y1126650D02*
D03*
Y1111150D02*
D03*
X445500Y927150D02*
D03*
Y942650D02*
D03*
X440400Y786650D02*
D03*
Y802150D02*
D03*
X464500Y768150D02*
D03*
Y752650D02*
D03*
X445700Y1146650D02*
D03*
Y1162150D02*
D03*
X464500Y436525D02*
D03*
Y421025D02*
D03*
X572500Y1328150D02*
D03*
Y1343650D02*
D03*
X445700Y1076650D02*
D03*
Y1092150D02*
D03*
X464500Y567775D02*
D03*
Y552275D02*
D03*
Y836025D02*
D03*
Y820525D02*
D03*
X465200Y633150D02*
D03*
Y617650D02*
D03*
X439400Y519150D02*
D03*
Y534650D02*
D03*
X446700Y1257650D02*
D03*
Y1273150D02*
D03*
X464500Y1201150D02*
D03*
Y1185650D02*
D03*
X443000Y853650D02*
D03*
Y869150D02*
D03*
X442000Y385650D02*
D03*
Y401150D02*
D03*
X464500Y702025D02*
D03*
Y686525D02*
D03*
X441900Y316150D02*
D03*
Y331650D02*
D03*
X464700Y1238150D02*
D03*
Y1222650D02*
D03*
X465200Y502025D02*
D03*
Y486525D02*
D03*
X442000Y453650D02*
D03*
Y469150D02*
D03*
X443900Y719650D02*
D03*
Y735150D02*
D03*
X439900Y652150D02*
D03*
Y667650D02*
D03*
X463600Y367650D02*
D03*
Y352150D02*
D03*
X445700Y996150D02*
D03*
Y1011650D02*
D03*
X464500Y1051150D02*
D03*
Y1035650D02*
D03*
Y978150D02*
D03*
Y962650D02*
D03*
X314000Y1320650D02*
D03*
Y1336150D02*
D03*
X464500Y905150D02*
D03*
Y889650D02*
D03*
D36*
X455250Y1305400D02*
D03*
X461750D02*
D03*
X468250D02*
D03*
X474750D02*
D03*
X481250D02*
D03*
X487750D02*
D03*
X494250D02*
D03*
X500750D02*
D03*
Y1362650D02*
D03*
X494250D02*
D03*
X487750D02*
D03*
X481250D02*
D03*
X474750D02*
D03*
X468250D02*
D03*
X461750D02*
D03*
X455250D02*
D03*
X336750Y1305400D02*
D03*
X343250D02*
D03*
X349750D02*
D03*
X356250D02*
D03*
X362750D02*
D03*
X369250D02*
D03*
X375750D02*
D03*
X382250D02*
D03*
Y1362650D02*
D03*
X375750D02*
D03*
X369250D02*
D03*
X362750D02*
D03*
X356250D02*
D03*
X349750D02*
D03*
X343250D02*
D03*
X336750D02*
D03*
X395850Y1305400D02*
D03*
X402350D02*
D03*
X408850D02*
D03*
X415350D02*
D03*
X421850D02*
D03*
X428350D02*
D03*
X434850D02*
D03*
X441350D02*
D03*
Y1362650D02*
D03*
X434850D02*
D03*
X428350D02*
D03*
X421850D02*
D03*
X415350D02*
D03*
X408850D02*
D03*
X402350D02*
D03*
X395850D02*
D03*
X513750Y1305400D02*
D03*
X520250D02*
D03*
X526750D02*
D03*
X533250D02*
D03*
X539750D02*
D03*
X546250D02*
D03*
X552750D02*
D03*
X559250D02*
D03*
Y1362650D02*
D03*
X552750D02*
D03*
X546250D02*
D03*
X539750D02*
D03*
X533250D02*
D03*
X526750D02*
D03*
X520250D02*
D03*
X513750D02*
D03*
M02*
