%TF.GenerationSoftware,KiCad,Pcbnew,8.0.2*%
%TF.CreationDate,2024-09-20T16:52:27+03:00*%
%TF.ProjectId,OE0113-WiFi_QR_Mifare_Reader,4f453031-3133-42d5-9769-46695f51525f,rev?*%
%TF.SameCoordinates,Original*%
%TF.FileFunction,Drillmap*%
%TF.FilePolarity,Positive*%
%FSLAX45Y45*%
G04 Gerber Fmt 4.5, Leading zero omitted, Abs format (unit mm)*
G04 Created by KiCad (PCBNEW 8.0.2) date 2024-09-20 16:52:27*
%MOMM*%
%LPD*%
G01*
G04 APERTURE LIST*
%ADD10C,0.050000*%
%ADD11C,0.100000*%
%ADD12C,0.200000*%
%ADD13C,0.101600*%
G04 APERTURE END LIST*
D10*
X3200000Y-9100000D02*
X3550000Y-9100000D01*
X5550269Y-7550000D02*
G75*
G02*
X3969131Y-7550000I-790569J0D01*
G01*
X3969131Y-7550000D02*
G75*
G02*
X5550269Y-7550000I790569J0D01*
G01*
X6490000Y-2000000D02*
X6490000Y-8900000D01*
X3920000Y-10600000D02*
X5940000Y-10600000D01*
X3550000Y-9570000D02*
X3920000Y-9570000D01*
X3920000Y-9570000D02*
X3920000Y-10600000D01*
X3000000Y-2000000D02*
X6490000Y-2000000D01*
X6290000Y-9100000D02*
X5940000Y-9100000D01*
X6490000Y-8900000D02*
X6290000Y-9100000D01*
D11*
X3000000Y-8900000D02*
X3200000Y-9100000D01*
D10*
X3550000Y-9100000D02*
X3550000Y-9570000D01*
X3000000Y-2000000D02*
X3000000Y-8900000D01*
X5940000Y-10600000D02*
X5940000Y-9100000D01*
D12*
D11*
X5040000Y-2300000D02*
X5070000Y-2330000D01*
X5070000Y-2300000D02*
X5040000Y-2330000D01*
X5040000Y-2445000D02*
X5070000Y-2475000D01*
X5070000Y-2445000D02*
X5040000Y-2475000D01*
X5040000Y-2590000D02*
X5070000Y-2620000D01*
X5070000Y-2590000D02*
X5040000Y-2620000D01*
X5185000Y-2300000D02*
X5215000Y-2330000D01*
X5215000Y-2300000D02*
X5185000Y-2330000D01*
X5185000Y-2445000D02*
X5215000Y-2475000D01*
X5215000Y-2445000D02*
X5185000Y-2475000D01*
X5185000Y-2590000D02*
X5215000Y-2620000D01*
X5215000Y-2590000D02*
X5185000Y-2620000D01*
X5330000Y-2300000D02*
X5360000Y-2330000D01*
X5360000Y-2300000D02*
X5330000Y-2330000D01*
X5330000Y-2445000D02*
X5360000Y-2475000D01*
X5360000Y-2445000D02*
X5330000Y-2475000D01*
X5330000Y-2590000D02*
X5360000Y-2620000D01*
X5360000Y-2590000D02*
X5330000Y-2620000D01*
X3117500Y-2170000D02*
G75*
G02*
X3082500Y-2170000I-17500J0D01*
G01*
X3082500Y-2170000D02*
G75*
G02*
X3117500Y-2170000I17500J0D01*
G01*
X3187500Y-2550000D02*
G75*
G02*
X3152500Y-2550000I-17500J0D01*
G01*
X3152500Y-2550000D02*
G75*
G02*
X3187500Y-2550000I17500J0D01*
G01*
X3237500Y-6350000D02*
G75*
G02*
X3202500Y-6350000I-17500J0D01*
G01*
X3202500Y-6350000D02*
G75*
G02*
X3237500Y-6350000I17500J0D01*
G01*
X3247500Y-7530000D02*
G75*
G02*
X3212500Y-7530000I-17500J0D01*
G01*
X3212500Y-7530000D02*
G75*
G02*
X3247500Y-7530000I17500J0D01*
G01*
X3257500Y-7980000D02*
G75*
G02*
X3222500Y-7980000I-17500J0D01*
G01*
X3222500Y-7980000D02*
G75*
G02*
X3257500Y-7980000I17500J0D01*
G01*
X3277500Y-5860000D02*
G75*
G02*
X3242500Y-5860000I-17500J0D01*
G01*
X3242500Y-5860000D02*
G75*
G02*
X3277500Y-5860000I17500J0D01*
G01*
X3287500Y-2830000D02*
G75*
G02*
X3252500Y-2830000I-17500J0D01*
G01*
X3252500Y-2830000D02*
G75*
G02*
X3287500Y-2830000I17500J0D01*
G01*
X3287500Y-5580000D02*
G75*
G02*
X3252500Y-5580000I-17500J0D01*
G01*
X3252500Y-5580000D02*
G75*
G02*
X3287500Y-5580000I17500J0D01*
G01*
X3317500Y-6710000D02*
G75*
G02*
X3282500Y-6710000I-17500J0D01*
G01*
X3282500Y-6710000D02*
G75*
G02*
X3317500Y-6710000I17500J0D01*
G01*
X3347500Y-3800000D02*
G75*
G02*
X3312500Y-3800000I-17500J0D01*
G01*
X3312500Y-3800000D02*
G75*
G02*
X3347500Y-3800000I17500J0D01*
G01*
X3397500Y-2840000D02*
G75*
G02*
X3362500Y-2840000I-17500J0D01*
G01*
X3362500Y-2840000D02*
G75*
G02*
X3397500Y-2840000I17500J0D01*
G01*
X3397500Y-3280000D02*
G75*
G02*
X3362500Y-3280000I-17500J0D01*
G01*
X3362500Y-3280000D02*
G75*
G02*
X3397500Y-3280000I17500J0D01*
G01*
X3407500Y-4340000D02*
G75*
G02*
X3372500Y-4340000I-17500J0D01*
G01*
X3372500Y-4340000D02*
G75*
G02*
X3407500Y-4340000I17500J0D01*
G01*
X3427500Y-3050000D02*
G75*
G02*
X3392500Y-3050000I-17500J0D01*
G01*
X3392500Y-3050000D02*
G75*
G02*
X3427500Y-3050000I17500J0D01*
G01*
X3437500Y-7700000D02*
G75*
G02*
X3402500Y-7700000I-17500J0D01*
G01*
X3402500Y-7700000D02*
G75*
G02*
X3437500Y-7700000I17500J0D01*
G01*
X3467500Y-4790000D02*
G75*
G02*
X3432500Y-4790000I-17500J0D01*
G01*
X3432500Y-4790000D02*
G75*
G02*
X3467500Y-4790000I17500J0D01*
G01*
X3477500Y-2970000D02*
G75*
G02*
X3442500Y-2970000I-17500J0D01*
G01*
X3442500Y-2970000D02*
G75*
G02*
X3477500Y-2970000I17500J0D01*
G01*
X3507500Y-6420000D02*
G75*
G02*
X3472500Y-6420000I-17500J0D01*
G01*
X3472500Y-6420000D02*
G75*
G02*
X3507500Y-6420000I17500J0D01*
G01*
X3547500Y-3170000D02*
G75*
G02*
X3512500Y-3170000I-17500J0D01*
G01*
X3512500Y-3170000D02*
G75*
G02*
X3547500Y-3170000I17500J0D01*
G01*
X3547500Y-5470000D02*
G75*
G02*
X3512500Y-5470000I-17500J0D01*
G01*
X3512500Y-5470000D02*
G75*
G02*
X3547500Y-5470000I17500J0D01*
G01*
X3547500Y-5670000D02*
G75*
G02*
X3512500Y-5670000I-17500J0D01*
G01*
X3512500Y-5670000D02*
G75*
G02*
X3547500Y-5670000I17500J0D01*
G01*
X3547500Y-5940000D02*
G75*
G02*
X3512500Y-5940000I-17500J0D01*
G01*
X3512500Y-5940000D02*
G75*
G02*
X3547500Y-5940000I17500J0D01*
G01*
X3567500Y-2470000D02*
G75*
G02*
X3532500Y-2470000I-17500J0D01*
G01*
X3532500Y-2470000D02*
G75*
G02*
X3567500Y-2470000I17500J0D01*
G01*
X3627500Y-3610000D02*
G75*
G02*
X3592500Y-3610000I-17500J0D01*
G01*
X3592500Y-3610000D02*
G75*
G02*
X3627500Y-3610000I17500J0D01*
G01*
X3627500Y-4020000D02*
G75*
G02*
X3592500Y-4020000I-17500J0D01*
G01*
X3592500Y-4020000D02*
G75*
G02*
X3627500Y-4020000I17500J0D01*
G01*
X3647500Y-2300000D02*
G75*
G02*
X3612500Y-2300000I-17500J0D01*
G01*
X3612500Y-2300000D02*
G75*
G02*
X3647500Y-2300000I17500J0D01*
G01*
X3657500Y-3280000D02*
G75*
G02*
X3622500Y-3280000I-17500J0D01*
G01*
X3622500Y-3280000D02*
G75*
G02*
X3657500Y-3280000I17500J0D01*
G01*
X3667500Y-5010000D02*
G75*
G02*
X3632500Y-5010000I-17500J0D01*
G01*
X3632500Y-5010000D02*
G75*
G02*
X3667500Y-5010000I17500J0D01*
G01*
X3717500Y-2405000D02*
G75*
G02*
X3682500Y-2405000I-17500J0D01*
G01*
X3682500Y-2405000D02*
G75*
G02*
X3717500Y-2405000I17500J0D01*
G01*
X3737500Y-2700000D02*
G75*
G02*
X3702500Y-2700000I-17500J0D01*
G01*
X3702500Y-2700000D02*
G75*
G02*
X3737500Y-2700000I17500J0D01*
G01*
X3737500Y-2840000D02*
G75*
G02*
X3702500Y-2840000I-17500J0D01*
G01*
X3702500Y-2840000D02*
G75*
G02*
X3737500Y-2840000I17500J0D01*
G01*
X3747500Y-4500000D02*
G75*
G02*
X3712500Y-4500000I-17500J0D01*
G01*
X3712500Y-4500000D02*
G75*
G02*
X3747500Y-4500000I17500J0D01*
G01*
X3777500Y-3890000D02*
G75*
G02*
X3742500Y-3890000I-17500J0D01*
G01*
X3742500Y-3890000D02*
G75*
G02*
X3777500Y-3890000I17500J0D01*
G01*
X3807500Y-8250000D02*
G75*
G02*
X3772500Y-8250000I-17500J0D01*
G01*
X3772500Y-8250000D02*
G75*
G02*
X3807500Y-8250000I17500J0D01*
G01*
X3817500Y-4090000D02*
G75*
G02*
X3782500Y-4090000I-17500J0D01*
G01*
X3782500Y-4090000D02*
G75*
G02*
X3817500Y-4090000I17500J0D01*
G01*
X3817500Y-7730000D02*
G75*
G02*
X3782500Y-7730000I-17500J0D01*
G01*
X3782500Y-7730000D02*
G75*
G02*
X3817500Y-7730000I17500J0D01*
G01*
X3867500Y-5000000D02*
G75*
G02*
X3832500Y-5000000I-17500J0D01*
G01*
X3832500Y-5000000D02*
G75*
G02*
X3867500Y-5000000I17500J0D01*
G01*
X3887500Y-2700000D02*
G75*
G02*
X3852500Y-2700000I-17500J0D01*
G01*
X3852500Y-2700000D02*
G75*
G02*
X3887500Y-2700000I17500J0D01*
G01*
X3887500Y-2840000D02*
G75*
G02*
X3852500Y-2840000I-17500J0D01*
G01*
X3852500Y-2840000D02*
G75*
G02*
X3887500Y-2840000I17500J0D01*
G01*
X3892500Y-4640000D02*
G75*
G02*
X3857500Y-4640000I-17500J0D01*
G01*
X3857500Y-4640000D02*
G75*
G02*
X3892500Y-4640000I17500J0D01*
G01*
X3917500Y-8860000D02*
G75*
G02*
X3882500Y-8860000I-17500J0D01*
G01*
X3882500Y-8860000D02*
G75*
G02*
X3917500Y-8860000I17500J0D01*
G01*
X3927500Y-5160000D02*
G75*
G02*
X3892500Y-5160000I-17500J0D01*
G01*
X3892500Y-5160000D02*
G75*
G02*
X3927500Y-5160000I17500J0D01*
G01*
X3927500Y-8360000D02*
G75*
G02*
X3892500Y-8360000I-17500J0D01*
G01*
X3892500Y-8360000D02*
G75*
G02*
X3927500Y-8360000I17500J0D01*
G01*
X3967500Y-9510000D02*
G75*
G02*
X3932500Y-9510000I-17500J0D01*
G01*
X3932500Y-9510000D02*
G75*
G02*
X3967500Y-9510000I17500J0D01*
G01*
X3977500Y-4590000D02*
G75*
G02*
X3942500Y-4590000I-17500J0D01*
G01*
X3942500Y-4590000D02*
G75*
G02*
X3977500Y-4590000I17500J0D01*
G01*
X4007500Y-6980000D02*
G75*
G02*
X3972500Y-6980000I-17500J0D01*
G01*
X3972500Y-6980000D02*
G75*
G02*
X4007500Y-6980000I17500J0D01*
G01*
X4027500Y-4490000D02*
G75*
G02*
X3992500Y-4490000I-17500J0D01*
G01*
X3992500Y-4490000D02*
G75*
G02*
X4027500Y-4490000I17500J0D01*
G01*
X4027500Y-9960000D02*
G75*
G02*
X3992500Y-9960000I-17500J0D01*
G01*
X3992500Y-9960000D02*
G75*
G02*
X4027500Y-9960000I17500J0D01*
G01*
X4057500Y-10340000D02*
G75*
G02*
X4022500Y-10340000I-17500J0D01*
G01*
X4022500Y-10340000D02*
G75*
G02*
X4057500Y-10340000I17500J0D01*
G01*
X4067500Y-3120000D02*
G75*
G02*
X4032500Y-3120000I-17500J0D01*
G01*
X4032500Y-3120000D02*
G75*
G02*
X4067500Y-3120000I17500J0D01*
G01*
X4067500Y-3600000D02*
G75*
G02*
X4032500Y-3600000I-17500J0D01*
G01*
X4032500Y-3600000D02*
G75*
G02*
X4067500Y-3600000I17500J0D01*
G01*
X4067500Y-4260000D02*
G75*
G02*
X4032500Y-4260000I-17500J0D01*
G01*
X4032500Y-4260000D02*
G75*
G02*
X4067500Y-4260000I17500J0D01*
G01*
X4107500Y-8840000D02*
G75*
G02*
X4072500Y-8840000I-17500J0D01*
G01*
X4072500Y-8840000D02*
G75*
G02*
X4107500Y-8840000I17500J0D01*
G01*
X4117500Y-2180000D02*
G75*
G02*
X4082500Y-2180000I-17500J0D01*
G01*
X4082500Y-2180000D02*
G75*
G02*
X4117500Y-2180000I17500J0D01*
G01*
X4127500Y-2457500D02*
G75*
G02*
X4092500Y-2457500I-17500J0D01*
G01*
X4092500Y-2457500D02*
G75*
G02*
X4127500Y-2457500I17500J0D01*
G01*
X4147500Y-5350000D02*
G75*
G02*
X4112500Y-5350000I-17500J0D01*
G01*
X4112500Y-5350000D02*
G75*
G02*
X4147500Y-5350000I17500J0D01*
G01*
X4157500Y-4832700D02*
G75*
G02*
X4122500Y-4832700I-17500J0D01*
G01*
X4122500Y-4832700D02*
G75*
G02*
X4157500Y-4832700I17500J0D01*
G01*
X4237500Y-5200000D02*
G75*
G02*
X4202500Y-5200000I-17500J0D01*
G01*
X4202500Y-5200000D02*
G75*
G02*
X4237500Y-5200000I17500J0D01*
G01*
X4277500Y-2620000D02*
G75*
G02*
X4242500Y-2620000I-17500J0D01*
G01*
X4242500Y-2620000D02*
G75*
G02*
X4277500Y-2620000I17500J0D01*
G01*
X4287500Y-4840000D02*
G75*
G02*
X4252500Y-4840000I-17500J0D01*
G01*
X4252500Y-4840000D02*
G75*
G02*
X4287500Y-4840000I17500J0D01*
G01*
X4287500Y-9560000D02*
G75*
G02*
X4252500Y-9560000I-17500J0D01*
G01*
X4252500Y-9560000D02*
G75*
G02*
X4287500Y-9560000I17500J0D01*
G01*
X4357500Y-2570000D02*
G75*
G02*
X4322500Y-2570000I-17500J0D01*
G01*
X4322500Y-2570000D02*
G75*
G02*
X4357500Y-2570000I17500J0D01*
G01*
X4437500Y-9800000D02*
G75*
G02*
X4402500Y-9800000I-17500J0D01*
G01*
X4402500Y-9800000D02*
G75*
G02*
X4437500Y-9800000I17500J0D01*
G01*
X4477500Y-4680000D02*
G75*
G02*
X4442500Y-4680000I-17500J0D01*
G01*
X4442500Y-4680000D02*
G75*
G02*
X4477500Y-4680000I17500J0D01*
G01*
X4497500Y-2800000D02*
G75*
G02*
X4462500Y-2800000I-17500J0D01*
G01*
X4462500Y-2800000D02*
G75*
G02*
X4497500Y-2800000I17500J0D01*
G01*
X4557500Y-9670000D02*
G75*
G02*
X4522500Y-9670000I-17500J0D01*
G01*
X4522500Y-9670000D02*
G75*
G02*
X4557500Y-9670000I17500J0D01*
G01*
X4567500Y-9040000D02*
G75*
G02*
X4532500Y-9040000I-17500J0D01*
G01*
X4532500Y-9040000D02*
G75*
G02*
X4567500Y-9040000I17500J0D01*
G01*
X4597500Y-2060000D02*
G75*
G02*
X4562500Y-2060000I-17500J0D01*
G01*
X4562500Y-2060000D02*
G75*
G02*
X4597500Y-2060000I17500J0D01*
G01*
X4637500Y-3220000D02*
G75*
G02*
X4602500Y-3220000I-17500J0D01*
G01*
X4602500Y-3220000D02*
G75*
G02*
X4637500Y-3220000I17500J0D01*
G01*
X4687500Y-4770000D02*
G75*
G02*
X4652500Y-4770000I-17500J0D01*
G01*
X4652500Y-4770000D02*
G75*
G02*
X4687500Y-4770000I17500J0D01*
G01*
X4697500Y-2090000D02*
G75*
G02*
X4662500Y-2090000I-17500J0D01*
G01*
X4662500Y-2090000D02*
G75*
G02*
X4697500Y-2090000I17500J0D01*
G01*
X4717500Y-9110000D02*
G75*
G02*
X4682500Y-9110000I-17500J0D01*
G01*
X4682500Y-9110000D02*
G75*
G02*
X4717500Y-9110000I17500J0D01*
G01*
X4727500Y-9830000D02*
G75*
G02*
X4692500Y-9830000I-17500J0D01*
G01*
X4692500Y-9830000D02*
G75*
G02*
X4727500Y-9830000I17500J0D01*
G01*
X4777500Y-10390000D02*
G75*
G02*
X4742500Y-10390000I-17500J0D01*
G01*
X4742500Y-10390000D02*
G75*
G02*
X4777500Y-10390000I17500J0D01*
G01*
X4887500Y-2890000D02*
G75*
G02*
X4852500Y-2890000I-17500J0D01*
G01*
X4852500Y-2890000D02*
G75*
G02*
X4887500Y-2890000I17500J0D01*
G01*
X4897500Y-2800000D02*
G75*
G02*
X4862500Y-2800000I-17500J0D01*
G01*
X4862500Y-2800000D02*
G75*
G02*
X4897500Y-2800000I17500J0D01*
G01*
X4947500Y-2190000D02*
G75*
G02*
X4912500Y-2190000I-17500J0D01*
G01*
X4912500Y-2190000D02*
G75*
G02*
X4947500Y-2190000I17500J0D01*
G01*
X4977500Y-2870000D02*
G75*
G02*
X4942500Y-2870000I-17500J0D01*
G01*
X4942500Y-2870000D02*
G75*
G02*
X4977500Y-2870000I17500J0D01*
G01*
X5037500Y-5900000D02*
G75*
G02*
X5002500Y-5900000I-17500J0D01*
G01*
X5002500Y-5900000D02*
G75*
G02*
X5037500Y-5900000I17500J0D01*
G01*
X5037500Y-6020000D02*
G75*
G02*
X5002500Y-6020000I-17500J0D01*
G01*
X5002500Y-6020000D02*
G75*
G02*
X5037500Y-6020000I17500J0D01*
G01*
X5037500Y-6140000D02*
G75*
G02*
X5002500Y-6140000I-17500J0D01*
G01*
X5002500Y-6140000D02*
G75*
G02*
X5037500Y-6140000I17500J0D01*
G01*
X5037500Y-6240000D02*
G75*
G02*
X5002500Y-6240000I-17500J0D01*
G01*
X5002500Y-6240000D02*
G75*
G02*
X5037500Y-6240000I17500J0D01*
G01*
X5037500Y-6340000D02*
G75*
G02*
X5002500Y-6340000I-17500J0D01*
G01*
X5002500Y-6340000D02*
G75*
G02*
X5037500Y-6340000I17500J0D01*
G01*
X5077500Y-4630000D02*
G75*
G02*
X5042500Y-4630000I-17500J0D01*
G01*
X5042500Y-4630000D02*
G75*
G02*
X5077500Y-4630000I17500J0D01*
G01*
X5087500Y-3710000D02*
G75*
G02*
X5052500Y-3710000I-17500J0D01*
G01*
X5052500Y-3710000D02*
G75*
G02*
X5087500Y-3710000I17500J0D01*
G01*
X5089500Y-5190000D02*
G75*
G02*
X5054500Y-5190000I-17500J0D01*
G01*
X5054500Y-5190000D02*
G75*
G02*
X5089500Y-5190000I17500J0D01*
G01*
X5117500Y-2810000D02*
G75*
G02*
X5082500Y-2810000I-17500J0D01*
G01*
X5082500Y-2810000D02*
G75*
G02*
X5117500Y-2810000I17500J0D01*
G01*
X5137500Y-3230000D02*
G75*
G02*
X5102500Y-3230000I-17500J0D01*
G01*
X5102500Y-3230000D02*
G75*
G02*
X5137500Y-3230000I17500J0D01*
G01*
X5257500Y-2820000D02*
G75*
G02*
X5222500Y-2820000I-17500J0D01*
G01*
X5222500Y-2820000D02*
G75*
G02*
X5257500Y-2820000I17500J0D01*
G01*
X5289500Y-3630000D02*
G75*
G02*
X5254500Y-3630000I-17500J0D01*
G01*
X5254500Y-3630000D02*
G75*
G02*
X5289500Y-3630000I17500J0D01*
G01*
X5297500Y-2120000D02*
G75*
G02*
X5262500Y-2120000I-17500J0D01*
G01*
X5262500Y-2120000D02*
G75*
G02*
X5297500Y-2120000I17500J0D01*
G01*
X5337500Y-10350000D02*
G75*
G02*
X5302500Y-10350000I-17500J0D01*
G01*
X5302500Y-10350000D02*
G75*
G02*
X5337500Y-10350000I17500J0D01*
G01*
X5357500Y-2050000D02*
G75*
G02*
X5322500Y-2050000I-17500J0D01*
G01*
X5322500Y-2050000D02*
G75*
G02*
X5357500Y-2050000I17500J0D01*
G01*
X5387500Y-5427300D02*
G75*
G02*
X5352500Y-5427300I-17500J0D01*
G01*
X5352500Y-5427300D02*
G75*
G02*
X5387500Y-5427300I17500J0D01*
G01*
X5397500Y-2990000D02*
G75*
G02*
X5362500Y-2990000I-17500J0D01*
G01*
X5362500Y-2990000D02*
G75*
G02*
X5397500Y-2990000I17500J0D01*
G01*
X5397500Y-3170000D02*
G75*
G02*
X5362500Y-3170000I-17500J0D01*
G01*
X5362500Y-3170000D02*
G75*
G02*
X5397500Y-3170000I17500J0D01*
G01*
X5407500Y-4720000D02*
G75*
G02*
X5372500Y-4720000I-17500J0D01*
G01*
X5372500Y-4720000D02*
G75*
G02*
X5407500Y-4720000I17500J0D01*
G01*
X5437500Y-2080000D02*
G75*
G02*
X5402500Y-2080000I-17500J0D01*
G01*
X5402500Y-2080000D02*
G75*
G02*
X5437500Y-2080000I17500J0D01*
G01*
X5467500Y-2220000D02*
G75*
G02*
X5432500Y-2220000I-17500J0D01*
G01*
X5432500Y-2220000D02*
G75*
G02*
X5467500Y-2220000I17500J0D01*
G01*
X5467500Y-3900000D02*
G75*
G02*
X5432500Y-3900000I-17500J0D01*
G01*
X5432500Y-3900000D02*
G75*
G02*
X5467500Y-3900000I17500J0D01*
G01*
X5477500Y-4310000D02*
G75*
G02*
X5442500Y-4310000I-17500J0D01*
G01*
X5442500Y-4310000D02*
G75*
G02*
X5477500Y-4310000I17500J0D01*
G01*
X5477500Y-4510000D02*
G75*
G02*
X5442500Y-4510000I-17500J0D01*
G01*
X5442500Y-4510000D02*
G75*
G02*
X5477500Y-4510000I17500J0D01*
G01*
X5487500Y-4090000D02*
G75*
G02*
X5452500Y-4090000I-17500J0D01*
G01*
X5452500Y-4090000D02*
G75*
G02*
X5487500Y-4090000I17500J0D01*
G01*
X5507500Y-6000000D02*
G75*
G02*
X5472500Y-6000000I-17500J0D01*
G01*
X5472500Y-6000000D02*
G75*
G02*
X5507500Y-6000000I17500J0D01*
G01*
X5527500Y-3180000D02*
G75*
G02*
X5492500Y-3180000I-17500J0D01*
G01*
X5492500Y-3180000D02*
G75*
G02*
X5527500Y-3180000I17500J0D01*
G01*
X5577500Y-2150000D02*
G75*
G02*
X5542500Y-2150000I-17500J0D01*
G01*
X5542500Y-2150000D02*
G75*
G02*
X5577500Y-2150000I17500J0D01*
G01*
X5577500Y-9840000D02*
G75*
G02*
X5542500Y-9840000I-17500J0D01*
G01*
X5542500Y-9840000D02*
G75*
G02*
X5577500Y-9840000I17500J0D01*
G01*
X5587500Y-2470000D02*
G75*
G02*
X5552500Y-2470000I-17500J0D01*
G01*
X5552500Y-2470000D02*
G75*
G02*
X5587500Y-2470000I17500J0D01*
G01*
X5607500Y-2660000D02*
G75*
G02*
X5572500Y-2660000I-17500J0D01*
G01*
X5572500Y-2660000D02*
G75*
G02*
X5607500Y-2660000I17500J0D01*
G01*
X5637500Y-3580000D02*
G75*
G02*
X5602500Y-3580000I-17500J0D01*
G01*
X5602500Y-3580000D02*
G75*
G02*
X5637500Y-3580000I17500J0D01*
G01*
X5657500Y-6550000D02*
G75*
G02*
X5622500Y-6550000I-17500J0D01*
G01*
X5622500Y-6550000D02*
G75*
G02*
X5657500Y-6550000I17500J0D01*
G01*
X5657500Y-8780000D02*
G75*
G02*
X5622500Y-8780000I-17500J0D01*
G01*
X5622500Y-8780000D02*
G75*
G02*
X5657500Y-8780000I17500J0D01*
G01*
X5687500Y-9620000D02*
G75*
G02*
X5652500Y-9620000I-17500J0D01*
G01*
X5652500Y-9620000D02*
G75*
G02*
X5687500Y-9620000I17500J0D01*
G01*
X5717500Y-6460000D02*
G75*
G02*
X5682500Y-6460000I-17500J0D01*
G01*
X5682500Y-6460000D02*
G75*
G02*
X5717500Y-6460000I17500J0D01*
G01*
X5717500Y-6960000D02*
G75*
G02*
X5682500Y-6960000I-17500J0D01*
G01*
X5682500Y-6960000D02*
G75*
G02*
X5717500Y-6960000I17500J0D01*
G01*
X5737500Y-5120000D02*
G75*
G02*
X5702500Y-5120000I-17500J0D01*
G01*
X5702500Y-5120000D02*
G75*
G02*
X5737500Y-5120000I17500J0D01*
G01*
X5747500Y-3330000D02*
G75*
G02*
X5712500Y-3330000I-17500J0D01*
G01*
X5712500Y-3330000D02*
G75*
G02*
X5747500Y-3330000I17500J0D01*
G01*
X5757500Y-6550000D02*
G75*
G02*
X5722500Y-6550000I-17500J0D01*
G01*
X5722500Y-6550000D02*
G75*
G02*
X5757500Y-6550000I17500J0D01*
G01*
X5797500Y-4980000D02*
G75*
G02*
X5762500Y-4980000I-17500J0D01*
G01*
X5762500Y-4980000D02*
G75*
G02*
X5797500Y-4980000I17500J0D01*
G01*
X5797500Y-5430000D02*
G75*
G02*
X5762500Y-5430000I-17500J0D01*
G01*
X5762500Y-5430000D02*
G75*
G02*
X5797500Y-5430000I17500J0D01*
G01*
X5807500Y-6440000D02*
G75*
G02*
X5772500Y-6440000I-17500J0D01*
G01*
X5772500Y-6440000D02*
G75*
G02*
X5807500Y-6440000I17500J0D01*
G01*
X5817500Y-5650000D02*
G75*
G02*
X5782500Y-5650000I-17500J0D01*
G01*
X5782500Y-5650000D02*
G75*
G02*
X5817500Y-5650000I17500J0D01*
G01*
X5837500Y-6180000D02*
G75*
G02*
X5802500Y-6180000I-17500J0D01*
G01*
X5802500Y-6180000D02*
G75*
G02*
X5837500Y-6180000I17500J0D01*
G01*
X5857500Y-2570000D02*
G75*
G02*
X5822500Y-2570000I-17500J0D01*
G01*
X5822500Y-2570000D02*
G75*
G02*
X5857500Y-2570000I17500J0D01*
G01*
X5887500Y-8320000D02*
G75*
G02*
X5852500Y-8320000I-17500J0D01*
G01*
X5852500Y-8320000D02*
G75*
G02*
X5887500Y-8320000I17500J0D01*
G01*
X5897500Y-6340000D02*
G75*
G02*
X5862500Y-6340000I-17500J0D01*
G01*
X5862500Y-6340000D02*
G75*
G02*
X5897500Y-6340000I17500J0D01*
G01*
X5917500Y-8730000D02*
G75*
G02*
X5882500Y-8730000I-17500J0D01*
G01*
X5882500Y-8730000D02*
G75*
G02*
X5917500Y-8730000I17500J0D01*
G01*
X5927500Y-5930000D02*
G75*
G02*
X5892500Y-5930000I-17500J0D01*
G01*
X5892500Y-5930000D02*
G75*
G02*
X5927500Y-5930000I17500J0D01*
G01*
X5927500Y-8410000D02*
G75*
G02*
X5892500Y-8410000I-17500J0D01*
G01*
X5892500Y-8410000D02*
G75*
G02*
X5927500Y-8410000I17500J0D01*
G01*
X5937500Y-3100000D02*
G75*
G02*
X5902500Y-3100000I-17500J0D01*
G01*
X5902500Y-3100000D02*
G75*
G02*
X5937500Y-3100000I17500J0D01*
G01*
X5977500Y-3330000D02*
G75*
G02*
X5942500Y-3330000I-17500J0D01*
G01*
X5942500Y-3330000D02*
G75*
G02*
X5977500Y-3330000I17500J0D01*
G01*
X5987500Y-7890000D02*
G75*
G02*
X5952500Y-7890000I-17500J0D01*
G01*
X5952500Y-7890000D02*
G75*
G02*
X5987500Y-7890000I17500J0D01*
G01*
X6047500Y-7200000D02*
G75*
G02*
X6012500Y-7200000I-17500J0D01*
G01*
X6012500Y-7200000D02*
G75*
G02*
X6047500Y-7200000I17500J0D01*
G01*
X6067500Y-4530000D02*
G75*
G02*
X6032500Y-4530000I-17500J0D01*
G01*
X6032500Y-4530000D02*
G75*
G02*
X6067500Y-4530000I17500J0D01*
G01*
X6070000Y-4020000D02*
G75*
G02*
X6035000Y-4020000I-17500J0D01*
G01*
X6035000Y-4020000D02*
G75*
G02*
X6070000Y-4020000I17500J0D01*
G01*
X6097500Y-5000000D02*
G75*
G02*
X6062500Y-5000000I-17500J0D01*
G01*
X6062500Y-5000000D02*
G75*
G02*
X6097500Y-5000000I17500J0D01*
G01*
X6107500Y-7140000D02*
G75*
G02*
X6072500Y-7140000I-17500J0D01*
G01*
X6072500Y-7140000D02*
G75*
G02*
X6107500Y-7140000I17500J0D01*
G01*
X6207500Y-7000000D02*
G75*
G02*
X6172500Y-7000000I-17500J0D01*
G01*
X6172500Y-7000000D02*
G75*
G02*
X6207500Y-7000000I17500J0D01*
G01*
X6242500Y-5710000D02*
G75*
G02*
X6207500Y-5710000I-17500J0D01*
G01*
X6207500Y-5710000D02*
G75*
G02*
X6242500Y-5710000I17500J0D01*
G01*
X6287500Y-8140000D02*
G75*
G02*
X6252500Y-8140000I-17500J0D01*
G01*
X6252500Y-8140000D02*
G75*
G02*
X6287500Y-8140000I17500J0D01*
G01*
X6307500Y-8240000D02*
G75*
G02*
X6272500Y-8240000I-17500J0D01*
G01*
X6272500Y-8240000D02*
G75*
G02*
X6307500Y-8240000I17500J0D01*
G01*
X6314800Y-7390000D02*
G75*
G02*
X6279800Y-7390000I-17500J0D01*
G01*
X6279800Y-7390000D02*
G75*
G02*
X6314800Y-7390000I17500J0D01*
G01*
X6317500Y-4610000D02*
G75*
G02*
X6282500Y-4610000I-17500J0D01*
G01*
X6282500Y-4610000D02*
G75*
G02*
X6317500Y-4610000I17500J0D01*
G01*
X6327500Y-3460000D02*
G75*
G02*
X6292500Y-3460000I-17500J0D01*
G01*
X6292500Y-3460000D02*
G75*
G02*
X6327500Y-3460000I17500J0D01*
G01*
X6427500Y-5390000D02*
G75*
G02*
X6392500Y-5390000I-17500J0D01*
G01*
X6392500Y-5390000D02*
G75*
G02*
X6427500Y-5390000I17500J0D01*
G01*
X6437500Y-3380000D02*
G75*
G02*
X6402500Y-3380000I-17500J0D01*
G01*
X6402500Y-3380000D02*
G75*
G02*
X6437500Y-3380000I17500J0D01*
G01*
X6437500Y-3560000D02*
G75*
G02*
X6402500Y-3560000I-17500J0D01*
G01*
X6402500Y-3560000D02*
G75*
G02*
X6437500Y-3560000I17500J0D01*
G01*
X6447500Y-4020000D02*
G75*
G02*
X6412500Y-4020000I-17500J0D01*
G01*
X6412500Y-4020000D02*
G75*
G02*
X6447500Y-4020000I17500J0D01*
G01*
X5940000Y-2130000D02*
X5940000Y-2170000D01*
X5920000Y-2150000D02*
X5960000Y-2150000D01*
X3903199Y-8562749D02*
X3903199Y-8513251D01*
X3853701Y-8513251D01*
X3853701Y-8562749D01*
X3903199Y-8562749D01*
X3903199Y-9324749D02*
X3903199Y-9275251D01*
X3853701Y-9275251D01*
X3853701Y-9324749D01*
X3903199Y-9324749D01*
X4411199Y-8562749D02*
X4411199Y-8513251D01*
X4361701Y-8513251D01*
X4361701Y-8562749D01*
X4411199Y-8562749D01*
X4411199Y-9324749D02*
X4411199Y-9275251D01*
X4361701Y-9275251D01*
X4361701Y-9324749D01*
X4411199Y-9324749D01*
X4919199Y-8562749D02*
X4919199Y-8513251D01*
X4869701Y-8513251D01*
X4869701Y-8562749D01*
X4919199Y-8562749D01*
X4919199Y-9324749D02*
X4919199Y-9275251D01*
X4869701Y-9275251D01*
X4869701Y-9324749D01*
X4919199Y-9324749D01*
X5681199Y-8562749D02*
X5681199Y-8513251D01*
X5631701Y-8513251D01*
X5631701Y-8562749D01*
X5681199Y-8562749D01*
X5681199Y-9324749D02*
X5681199Y-9275251D01*
X5631701Y-9275251D01*
X5631701Y-9324749D01*
X5681199Y-9324749D01*
X3010000Y-2380000D02*
X3050000Y-2340000D01*
X3010000Y-2300000D01*
X2970000Y-2340000D01*
X3010000Y-2380000D01*
X3010000Y-2620000D02*
X3050000Y-2580000D01*
X3010000Y-2540000D01*
X2970000Y-2580000D01*
X3010000Y-2620000D01*
X3010000Y-2860000D02*
X3050000Y-2820000D01*
X3010000Y-2780000D01*
X2970000Y-2820000D01*
X3010000Y-2860000D01*
X3010000Y-3100000D02*
X3050000Y-3060000D01*
X3010000Y-3020000D01*
X2970000Y-3060000D01*
X3010000Y-3100000D01*
X3010000Y-3340000D02*
X3050000Y-3300000D01*
X3010000Y-3260000D01*
X2970000Y-3300000D01*
X3010000Y-3340000D01*
X3010000Y-3600000D02*
X3050000Y-3560000D01*
X3010000Y-3520000D01*
X2970000Y-3560000D01*
X3010000Y-3600000D01*
X3221700Y-2060000D02*
X3261700Y-2020000D01*
X3221700Y-1980000D01*
X3181700Y-2020000D01*
X3221700Y-2060000D01*
X3461700Y-2060000D02*
X3501700Y-2020000D01*
X3461700Y-1980000D01*
X3421700Y-2020000D01*
X3461700Y-2060000D01*
X3701700Y-2060000D02*
X3741700Y-2020000D01*
X3701700Y-1980000D01*
X3661700Y-2020000D01*
X3701700Y-2060000D01*
X3941700Y-2060000D02*
X3981700Y-2020000D01*
X3941700Y-1980000D01*
X3901700Y-2020000D01*
X3941700Y-2060000D01*
X4181700Y-2060000D02*
X4221700Y-2020000D01*
X4181700Y-1980000D01*
X4141700Y-2020000D01*
X4181700Y-2060000D01*
X4421700Y-2060000D02*
X4461700Y-2020000D01*
X4421700Y-1980000D01*
X4381700Y-2020000D01*
X4421700Y-2060000D01*
X6470000Y-2380000D02*
X6510000Y-2340000D01*
X6470000Y-2300000D01*
X6430000Y-2340000D01*
X6470000Y-2380000D01*
X6470000Y-2620000D02*
X6510000Y-2580000D01*
X6470000Y-2540000D01*
X6430000Y-2580000D01*
X6470000Y-2620000D01*
X6470000Y-2860000D02*
X6510000Y-2820000D01*
X6470000Y-2780000D01*
X6430000Y-2820000D01*
X6470000Y-2860000D01*
D13*
X4059200Y-10109200D02*
X4160800Y-10210800D01*
X4160800Y-10109200D02*
X4059200Y-10210800D01*
X4160800Y-10160000D02*
G75*
G02*
X4059200Y-10160000I-50800J0D01*
G01*
X4059200Y-10160000D02*
G75*
G02*
X4160800Y-10160000I50800J0D01*
G01*
X4313200Y-10109200D02*
X4414800Y-10210800D01*
X4414800Y-10109200D02*
X4313200Y-10210800D01*
X4414800Y-10160000D02*
G75*
G02*
X4313200Y-10160000I-50800J0D01*
G01*
X4313200Y-10160000D02*
G75*
G02*
X4414800Y-10160000I50800J0D01*
G01*
X4567200Y-10109200D02*
X4668800Y-10210800D01*
X4668800Y-10109200D02*
X4567200Y-10210800D01*
X4668800Y-10160000D02*
G75*
G02*
X4567200Y-10160000I-50800J0D01*
G01*
X4567200Y-10160000D02*
G75*
G02*
X4668800Y-10160000I50800J0D01*
G01*
X4821200Y-10109200D02*
X4922800Y-10210800D01*
X4922800Y-10109200D02*
X4821200Y-10210800D01*
X4922800Y-10160000D02*
G75*
G02*
X4821200Y-10160000I-50800J0D01*
G01*
X4821200Y-10160000D02*
G75*
G02*
X4922800Y-10160000I50800J0D01*
G01*
X5075200Y-10109200D02*
X5176800Y-10210800D01*
X5176800Y-10109200D02*
X5075200Y-10210800D01*
X5176800Y-10160000D02*
G75*
G02*
X5075200Y-10160000I-50800J0D01*
G01*
X5075200Y-10160000D02*
G75*
G02*
X5176800Y-10160000I50800J0D01*
G01*
X5329200Y-10109200D02*
X5430800Y-10210800D01*
X5430800Y-10109200D02*
X5329200Y-10210800D01*
X5430800Y-10160000D02*
G75*
G02*
X5329200Y-10160000I-50800J0D01*
G01*
X5329200Y-10160000D02*
G75*
G02*
X5430800Y-10160000I50800J0D01*
G01*
D12*
X3255777Y-10913984D02*
X3255777Y-10713984D01*
X3255777Y-10713984D02*
X3303396Y-10713984D01*
X3303396Y-10713984D02*
X3331967Y-10723508D01*
X3331967Y-10723508D02*
X3351015Y-10742555D01*
X3351015Y-10742555D02*
X3360539Y-10761603D01*
X3360539Y-10761603D02*
X3370062Y-10799698D01*
X3370062Y-10799698D02*
X3370062Y-10828270D01*
X3370062Y-10828270D02*
X3360539Y-10866365D01*
X3360539Y-10866365D02*
X3351015Y-10885412D01*
X3351015Y-10885412D02*
X3331967Y-10904460D01*
X3331967Y-10904460D02*
X3303396Y-10913984D01*
X3303396Y-10913984D02*
X3255777Y-10913984D01*
X3455777Y-10913984D02*
X3455777Y-10780650D01*
X3455777Y-10818746D02*
X3465301Y-10799698D01*
X3465301Y-10799698D02*
X3474824Y-10790174D01*
X3474824Y-10790174D02*
X3493872Y-10780650D01*
X3493872Y-10780650D02*
X3512920Y-10780650D01*
X3579586Y-10913984D02*
X3579586Y-10780650D01*
X3579586Y-10713984D02*
X3570062Y-10723508D01*
X3570062Y-10723508D02*
X3579586Y-10733031D01*
X3579586Y-10733031D02*
X3589110Y-10723508D01*
X3589110Y-10723508D02*
X3579586Y-10713984D01*
X3579586Y-10713984D02*
X3579586Y-10733031D01*
X3703396Y-10913984D02*
X3684348Y-10904460D01*
X3684348Y-10904460D02*
X3674824Y-10885412D01*
X3674824Y-10885412D02*
X3674824Y-10713984D01*
X3808158Y-10913984D02*
X3789110Y-10904460D01*
X3789110Y-10904460D02*
X3779586Y-10885412D01*
X3779586Y-10885412D02*
X3779586Y-10713984D01*
X4036729Y-10913984D02*
X4036729Y-10713984D01*
X4036729Y-10713984D02*
X4103396Y-10856841D01*
X4103396Y-10856841D02*
X4170062Y-10713984D01*
X4170062Y-10713984D02*
X4170062Y-10913984D01*
X4351015Y-10913984D02*
X4351015Y-10809222D01*
X4351015Y-10809222D02*
X4341491Y-10790174D01*
X4341491Y-10790174D02*
X4322444Y-10780650D01*
X4322444Y-10780650D02*
X4284348Y-10780650D01*
X4284348Y-10780650D02*
X4265301Y-10790174D01*
X4351015Y-10904460D02*
X4331967Y-10913984D01*
X4331967Y-10913984D02*
X4284348Y-10913984D01*
X4284348Y-10913984D02*
X4265301Y-10904460D01*
X4265301Y-10904460D02*
X4255777Y-10885412D01*
X4255777Y-10885412D02*
X4255777Y-10866365D01*
X4255777Y-10866365D02*
X4265301Y-10847317D01*
X4265301Y-10847317D02*
X4284348Y-10837793D01*
X4284348Y-10837793D02*
X4331967Y-10837793D01*
X4331967Y-10837793D02*
X4351015Y-10828270D01*
X4446253Y-10780650D02*
X4446253Y-10980650D01*
X4446253Y-10790174D02*
X4465301Y-10780650D01*
X4465301Y-10780650D02*
X4503396Y-10780650D01*
X4503396Y-10780650D02*
X4522444Y-10790174D01*
X4522444Y-10790174D02*
X4531967Y-10799698D01*
X4531967Y-10799698D02*
X4541491Y-10818746D01*
X4541491Y-10818746D02*
X4541491Y-10875889D01*
X4541491Y-10875889D02*
X4531967Y-10894936D01*
X4531967Y-10894936D02*
X4522444Y-10904460D01*
X4522444Y-10904460D02*
X4503396Y-10913984D01*
X4503396Y-10913984D02*
X4465301Y-10913984D01*
X4465301Y-10913984D02*
X4446253Y-10904460D01*
X4627205Y-10894936D02*
X4636729Y-10904460D01*
X4636729Y-10904460D02*
X4627205Y-10913984D01*
X4627205Y-10913984D02*
X4617682Y-10904460D01*
X4617682Y-10904460D02*
X4627205Y-10894936D01*
X4627205Y-10894936D02*
X4627205Y-10913984D01*
X4627205Y-10790174D02*
X4636729Y-10799698D01*
X4636729Y-10799698D02*
X4627205Y-10809222D01*
X4627205Y-10809222D02*
X4617682Y-10799698D01*
X4617682Y-10799698D02*
X4627205Y-10790174D01*
X4627205Y-10790174D02*
X4627205Y-10809222D01*
D11*
X2965000Y-11227500D02*
X2995000Y-11257500D01*
X2995000Y-11227500D02*
X2965000Y-11257500D01*
D12*
X3293872Y-11133984D02*
X3312920Y-11133984D01*
X3312920Y-11133984D02*
X3331967Y-11143508D01*
X3331967Y-11143508D02*
X3341491Y-11153031D01*
X3341491Y-11153031D02*
X3351015Y-11172079D01*
X3351015Y-11172079D02*
X3360539Y-11210174D01*
X3360539Y-11210174D02*
X3360539Y-11257793D01*
X3360539Y-11257793D02*
X3351015Y-11295888D01*
X3351015Y-11295888D02*
X3341491Y-11314936D01*
X3341491Y-11314936D02*
X3331967Y-11324460D01*
X3331967Y-11324460D02*
X3312920Y-11333984D01*
X3312920Y-11333984D02*
X3293872Y-11333984D01*
X3293872Y-11333984D02*
X3274824Y-11324460D01*
X3274824Y-11324460D02*
X3265301Y-11314936D01*
X3265301Y-11314936D02*
X3255777Y-11295888D01*
X3255777Y-11295888D02*
X3246253Y-11257793D01*
X3246253Y-11257793D02*
X3246253Y-11210174D01*
X3246253Y-11210174D02*
X3255777Y-11172079D01*
X3255777Y-11172079D02*
X3265301Y-11153031D01*
X3265301Y-11153031D02*
X3274824Y-11143508D01*
X3274824Y-11143508D02*
X3293872Y-11133984D01*
X3446253Y-11314936D02*
X3455777Y-11324460D01*
X3455777Y-11324460D02*
X3446253Y-11333984D01*
X3446253Y-11333984D02*
X3436729Y-11324460D01*
X3436729Y-11324460D02*
X3446253Y-11314936D01*
X3446253Y-11314936D02*
X3446253Y-11333984D01*
X3522443Y-11133984D02*
X3646253Y-11133984D01*
X3646253Y-11133984D02*
X3579586Y-11210174D01*
X3579586Y-11210174D02*
X3608158Y-11210174D01*
X3608158Y-11210174D02*
X3627205Y-11219698D01*
X3627205Y-11219698D02*
X3636729Y-11229222D01*
X3636729Y-11229222D02*
X3646253Y-11248269D01*
X3646253Y-11248269D02*
X3646253Y-11295888D01*
X3646253Y-11295888D02*
X3636729Y-11314936D01*
X3636729Y-11314936D02*
X3627205Y-11324460D01*
X3627205Y-11324460D02*
X3608158Y-11333984D01*
X3608158Y-11333984D02*
X3551015Y-11333984D01*
X3551015Y-11333984D02*
X3531967Y-11324460D01*
X3531967Y-11324460D02*
X3522443Y-11314936D01*
X3770062Y-11133984D02*
X3789110Y-11133984D01*
X3789110Y-11133984D02*
X3808158Y-11143508D01*
X3808158Y-11143508D02*
X3817682Y-11153031D01*
X3817682Y-11153031D02*
X3827205Y-11172079D01*
X3827205Y-11172079D02*
X3836729Y-11210174D01*
X3836729Y-11210174D02*
X3836729Y-11257793D01*
X3836729Y-11257793D02*
X3827205Y-11295888D01*
X3827205Y-11295888D02*
X3817682Y-11314936D01*
X3817682Y-11314936D02*
X3808158Y-11324460D01*
X3808158Y-11324460D02*
X3789110Y-11333984D01*
X3789110Y-11333984D02*
X3770062Y-11333984D01*
X3770062Y-11333984D02*
X3751015Y-11324460D01*
X3751015Y-11324460D02*
X3741491Y-11314936D01*
X3741491Y-11314936D02*
X3731967Y-11295888D01*
X3731967Y-11295888D02*
X3722443Y-11257793D01*
X3722443Y-11257793D02*
X3722443Y-11210174D01*
X3722443Y-11210174D02*
X3731967Y-11172079D01*
X3731967Y-11172079D02*
X3741491Y-11153031D01*
X3741491Y-11153031D02*
X3751015Y-11143508D01*
X3751015Y-11143508D02*
X3770062Y-11133984D01*
X3960539Y-11133984D02*
X3979586Y-11133984D01*
X3979586Y-11133984D02*
X3998634Y-11143508D01*
X3998634Y-11143508D02*
X4008158Y-11153031D01*
X4008158Y-11153031D02*
X4017682Y-11172079D01*
X4017682Y-11172079D02*
X4027205Y-11210174D01*
X4027205Y-11210174D02*
X4027205Y-11257793D01*
X4027205Y-11257793D02*
X4017682Y-11295888D01*
X4017682Y-11295888D02*
X4008158Y-11314936D01*
X4008158Y-11314936D02*
X3998634Y-11324460D01*
X3998634Y-11324460D02*
X3979586Y-11333984D01*
X3979586Y-11333984D02*
X3960539Y-11333984D01*
X3960539Y-11333984D02*
X3941491Y-11324460D01*
X3941491Y-11324460D02*
X3931967Y-11314936D01*
X3931967Y-11314936D02*
X3922443Y-11295888D01*
X3922443Y-11295888D02*
X3912920Y-11257793D01*
X3912920Y-11257793D02*
X3912920Y-11210174D01*
X3912920Y-11210174D02*
X3922443Y-11172079D01*
X3922443Y-11172079D02*
X3931967Y-11153031D01*
X3931967Y-11153031D02*
X3941491Y-11143508D01*
X3941491Y-11143508D02*
X3960539Y-11133984D01*
X4112920Y-11333984D02*
X4112920Y-11200650D01*
X4112920Y-11219698D02*
X4122443Y-11210174D01*
X4122443Y-11210174D02*
X4141491Y-11200650D01*
X4141491Y-11200650D02*
X4170063Y-11200650D01*
X4170063Y-11200650D02*
X4189110Y-11210174D01*
X4189110Y-11210174D02*
X4198634Y-11229222D01*
X4198634Y-11229222D02*
X4198634Y-11333984D01*
X4198634Y-11229222D02*
X4208158Y-11210174D01*
X4208158Y-11210174D02*
X4227205Y-11200650D01*
X4227205Y-11200650D02*
X4255777Y-11200650D01*
X4255777Y-11200650D02*
X4274825Y-11210174D01*
X4274825Y-11210174D02*
X4284348Y-11229222D01*
X4284348Y-11229222D02*
X4284348Y-11333984D01*
X4379586Y-11333984D02*
X4379586Y-11200650D01*
X4379586Y-11219698D02*
X4389110Y-11210174D01*
X4389110Y-11210174D02*
X4408158Y-11200650D01*
X4408158Y-11200650D02*
X4436729Y-11200650D01*
X4436729Y-11200650D02*
X4455777Y-11210174D01*
X4455777Y-11210174D02*
X4465301Y-11229222D01*
X4465301Y-11229222D02*
X4465301Y-11333984D01*
X4465301Y-11229222D02*
X4474825Y-11210174D01*
X4474825Y-11210174D02*
X4493872Y-11200650D01*
X4493872Y-11200650D02*
X4522444Y-11200650D01*
X4522444Y-11200650D02*
X4541491Y-11210174D01*
X4541491Y-11210174D02*
X4551015Y-11229222D01*
X4551015Y-11229222D02*
X4551015Y-11333984D01*
X4941491Y-11124460D02*
X4770063Y-11381603D01*
X5198634Y-11133984D02*
X5217682Y-11133984D01*
X5217682Y-11133984D02*
X5236729Y-11143508D01*
X5236729Y-11143508D02*
X5246253Y-11153031D01*
X5246253Y-11153031D02*
X5255777Y-11172079D01*
X5255777Y-11172079D02*
X5265301Y-11210174D01*
X5265301Y-11210174D02*
X5265301Y-11257793D01*
X5265301Y-11257793D02*
X5255777Y-11295888D01*
X5255777Y-11295888D02*
X5246253Y-11314936D01*
X5246253Y-11314936D02*
X5236729Y-11324460D01*
X5236729Y-11324460D02*
X5217682Y-11333984D01*
X5217682Y-11333984D02*
X5198634Y-11333984D01*
X5198634Y-11333984D02*
X5179587Y-11324460D01*
X5179587Y-11324460D02*
X5170063Y-11314936D01*
X5170063Y-11314936D02*
X5160539Y-11295888D01*
X5160539Y-11295888D02*
X5151015Y-11257793D01*
X5151015Y-11257793D02*
X5151015Y-11210174D01*
X5151015Y-11210174D02*
X5160539Y-11172079D01*
X5160539Y-11172079D02*
X5170063Y-11153031D01*
X5170063Y-11153031D02*
X5179587Y-11143508D01*
X5179587Y-11143508D02*
X5198634Y-11133984D01*
X5351015Y-11314936D02*
X5360539Y-11324460D01*
X5360539Y-11324460D02*
X5351015Y-11333984D01*
X5351015Y-11333984D02*
X5341491Y-11324460D01*
X5341491Y-11324460D02*
X5351015Y-11314936D01*
X5351015Y-11314936D02*
X5351015Y-11333984D01*
X5484348Y-11133984D02*
X5503396Y-11133984D01*
X5503396Y-11133984D02*
X5522444Y-11143508D01*
X5522444Y-11143508D02*
X5531968Y-11153031D01*
X5531968Y-11153031D02*
X5541491Y-11172079D01*
X5541491Y-11172079D02*
X5551015Y-11210174D01*
X5551015Y-11210174D02*
X5551015Y-11257793D01*
X5551015Y-11257793D02*
X5541491Y-11295888D01*
X5541491Y-11295888D02*
X5531968Y-11314936D01*
X5531968Y-11314936D02*
X5522444Y-11324460D01*
X5522444Y-11324460D02*
X5503396Y-11333984D01*
X5503396Y-11333984D02*
X5484348Y-11333984D01*
X5484348Y-11333984D02*
X5465301Y-11324460D01*
X5465301Y-11324460D02*
X5455777Y-11314936D01*
X5455777Y-11314936D02*
X5446253Y-11295888D01*
X5446253Y-11295888D02*
X5436729Y-11257793D01*
X5436729Y-11257793D02*
X5436729Y-11210174D01*
X5436729Y-11210174D02*
X5446253Y-11172079D01*
X5446253Y-11172079D02*
X5455777Y-11153031D01*
X5455777Y-11153031D02*
X5465301Y-11143508D01*
X5465301Y-11143508D02*
X5484348Y-11133984D01*
X5741491Y-11333984D02*
X5627206Y-11333984D01*
X5684348Y-11333984D02*
X5684348Y-11133984D01*
X5684348Y-11133984D02*
X5665301Y-11162555D01*
X5665301Y-11162555D02*
X5646253Y-11181603D01*
X5646253Y-11181603D02*
X5627206Y-11191127D01*
X5931967Y-11333984D02*
X5817682Y-11333984D01*
X5874825Y-11333984D02*
X5874825Y-11133984D01*
X5874825Y-11133984D02*
X5855777Y-11162555D01*
X5855777Y-11162555D02*
X5836729Y-11181603D01*
X5836729Y-11181603D02*
X5817682Y-11191127D01*
X6046253Y-11219698D02*
X6027206Y-11210174D01*
X6027206Y-11210174D02*
X6017682Y-11200650D01*
X6017682Y-11200650D02*
X6008158Y-11181603D01*
X6008158Y-11181603D02*
X6008158Y-11172079D01*
X6008158Y-11172079D02*
X6017682Y-11153031D01*
X6017682Y-11153031D02*
X6027206Y-11143508D01*
X6027206Y-11143508D02*
X6046253Y-11133984D01*
X6046253Y-11133984D02*
X6084348Y-11133984D01*
X6084348Y-11133984D02*
X6103396Y-11143508D01*
X6103396Y-11143508D02*
X6112920Y-11153031D01*
X6112920Y-11153031D02*
X6122444Y-11172079D01*
X6122444Y-11172079D02*
X6122444Y-11181603D01*
X6122444Y-11181603D02*
X6112920Y-11200650D01*
X6112920Y-11200650D02*
X6103396Y-11210174D01*
X6103396Y-11210174D02*
X6084348Y-11219698D01*
X6084348Y-11219698D02*
X6046253Y-11219698D01*
X6046253Y-11219698D02*
X6027206Y-11229222D01*
X6027206Y-11229222D02*
X6017682Y-11238746D01*
X6017682Y-11238746D02*
X6008158Y-11257793D01*
X6008158Y-11257793D02*
X6008158Y-11295888D01*
X6008158Y-11295888D02*
X6017682Y-11314936D01*
X6017682Y-11314936D02*
X6027206Y-11324460D01*
X6027206Y-11324460D02*
X6046253Y-11333984D01*
X6046253Y-11333984D02*
X6084348Y-11333984D01*
X6084348Y-11333984D02*
X6103396Y-11324460D01*
X6103396Y-11324460D02*
X6112920Y-11314936D01*
X6112920Y-11314936D02*
X6122444Y-11295888D01*
X6122444Y-11295888D02*
X6122444Y-11257793D01*
X6122444Y-11257793D02*
X6112920Y-11238746D01*
X6112920Y-11238746D02*
X6103396Y-11229222D01*
X6103396Y-11229222D02*
X6084348Y-11219698D01*
X6198634Y-11133984D02*
X6198634Y-11172079D01*
X6274825Y-11133984D02*
X6274825Y-11172079D01*
X6570063Y-11410174D02*
X6560539Y-11400650D01*
X6560539Y-11400650D02*
X6541491Y-11372079D01*
X6541491Y-11372079D02*
X6531968Y-11353031D01*
X6531968Y-11353031D02*
X6522444Y-11324460D01*
X6522444Y-11324460D02*
X6512920Y-11276841D01*
X6512920Y-11276841D02*
X6512920Y-11238746D01*
X6512920Y-11238746D02*
X6522444Y-11191127D01*
X6522444Y-11191127D02*
X6531968Y-11162555D01*
X6531968Y-11162555D02*
X6541491Y-11143508D01*
X6541491Y-11143508D02*
X6560539Y-11114936D01*
X6560539Y-11114936D02*
X6570063Y-11105412D01*
X6655777Y-11333984D02*
X6693872Y-11333984D01*
X6693872Y-11333984D02*
X6712920Y-11324460D01*
X6712920Y-11324460D02*
X6722444Y-11314936D01*
X6722444Y-11314936D02*
X6741491Y-11286365D01*
X6741491Y-11286365D02*
X6751015Y-11248269D01*
X6751015Y-11248269D02*
X6751015Y-11172079D01*
X6751015Y-11172079D02*
X6741491Y-11153031D01*
X6741491Y-11153031D02*
X6731968Y-11143508D01*
X6731968Y-11143508D02*
X6712920Y-11133984D01*
X6712920Y-11133984D02*
X6674825Y-11133984D01*
X6674825Y-11133984D02*
X6655777Y-11143508D01*
X6655777Y-11143508D02*
X6646253Y-11153031D01*
X6646253Y-11153031D02*
X6636729Y-11172079D01*
X6636729Y-11172079D02*
X6636729Y-11219698D01*
X6636729Y-11219698D02*
X6646253Y-11238746D01*
X6646253Y-11238746D02*
X6655777Y-11248269D01*
X6655777Y-11248269D02*
X6674825Y-11257793D01*
X6674825Y-11257793D02*
X6712920Y-11257793D01*
X6712920Y-11257793D02*
X6731968Y-11248269D01*
X6731968Y-11248269D02*
X6741491Y-11238746D01*
X6741491Y-11238746D02*
X6751015Y-11219698D01*
X6989110Y-11333984D02*
X6989110Y-11133984D01*
X7074825Y-11333984D02*
X7074825Y-11229222D01*
X7074825Y-11229222D02*
X7065301Y-11210174D01*
X7065301Y-11210174D02*
X7046253Y-11200650D01*
X7046253Y-11200650D02*
X7017682Y-11200650D01*
X7017682Y-11200650D02*
X6998634Y-11210174D01*
X6998634Y-11210174D02*
X6989110Y-11219698D01*
X7198634Y-11333984D02*
X7179587Y-11324460D01*
X7179587Y-11324460D02*
X7170063Y-11314936D01*
X7170063Y-11314936D02*
X7160539Y-11295888D01*
X7160539Y-11295888D02*
X7160539Y-11238746D01*
X7160539Y-11238746D02*
X7170063Y-11219698D01*
X7170063Y-11219698D02*
X7179587Y-11210174D01*
X7179587Y-11210174D02*
X7198634Y-11200650D01*
X7198634Y-11200650D02*
X7227206Y-11200650D01*
X7227206Y-11200650D02*
X7246253Y-11210174D01*
X7246253Y-11210174D02*
X7255777Y-11219698D01*
X7255777Y-11219698D02*
X7265301Y-11238746D01*
X7265301Y-11238746D02*
X7265301Y-11295888D01*
X7265301Y-11295888D02*
X7255777Y-11314936D01*
X7255777Y-11314936D02*
X7246253Y-11324460D01*
X7246253Y-11324460D02*
X7227206Y-11333984D01*
X7227206Y-11333984D02*
X7198634Y-11333984D01*
X7379587Y-11333984D02*
X7360539Y-11324460D01*
X7360539Y-11324460D02*
X7351015Y-11305412D01*
X7351015Y-11305412D02*
X7351015Y-11133984D01*
X7531968Y-11324460D02*
X7512920Y-11333984D01*
X7512920Y-11333984D02*
X7474825Y-11333984D01*
X7474825Y-11333984D02*
X7455777Y-11324460D01*
X7455777Y-11324460D02*
X7446253Y-11305412D01*
X7446253Y-11305412D02*
X7446253Y-11229222D01*
X7446253Y-11229222D02*
X7455777Y-11210174D01*
X7455777Y-11210174D02*
X7474825Y-11200650D01*
X7474825Y-11200650D02*
X7512920Y-11200650D01*
X7512920Y-11200650D02*
X7531968Y-11210174D01*
X7531968Y-11210174D02*
X7541491Y-11229222D01*
X7541491Y-11229222D02*
X7541491Y-11248269D01*
X7541491Y-11248269D02*
X7446253Y-11267317D01*
X7617682Y-11324460D02*
X7636730Y-11333984D01*
X7636730Y-11333984D02*
X7674825Y-11333984D01*
X7674825Y-11333984D02*
X7693872Y-11324460D01*
X7693872Y-11324460D02*
X7703396Y-11305412D01*
X7703396Y-11305412D02*
X7703396Y-11295888D01*
X7703396Y-11295888D02*
X7693872Y-11276841D01*
X7693872Y-11276841D02*
X7674825Y-11267317D01*
X7674825Y-11267317D02*
X7646253Y-11267317D01*
X7646253Y-11267317D02*
X7627206Y-11257793D01*
X7627206Y-11257793D02*
X7617682Y-11238746D01*
X7617682Y-11238746D02*
X7617682Y-11229222D01*
X7617682Y-11229222D02*
X7627206Y-11210174D01*
X7627206Y-11210174D02*
X7646253Y-11200650D01*
X7646253Y-11200650D02*
X7674825Y-11200650D01*
X7674825Y-11200650D02*
X7693872Y-11210174D01*
X7770063Y-11410174D02*
X7779587Y-11400650D01*
X7779587Y-11400650D02*
X7798634Y-11372079D01*
X7798634Y-11372079D02*
X7808158Y-11353031D01*
X7808158Y-11353031D02*
X7817682Y-11324460D01*
X7817682Y-11324460D02*
X7827206Y-11276841D01*
X7827206Y-11276841D02*
X7827206Y-11238746D01*
X7827206Y-11238746D02*
X7817682Y-11191127D01*
X7817682Y-11191127D02*
X7808158Y-11162555D01*
X7808158Y-11162555D02*
X7798634Y-11143508D01*
X7798634Y-11143508D02*
X7779587Y-11114936D01*
X7779587Y-11114936D02*
X7770063Y-11105412D01*
D11*
X2995000Y-11506500D02*
G75*
G02*
X2960000Y-11506500I-17500J0D01*
G01*
X2960000Y-11506500D02*
G75*
G02*
X2995000Y-11506500I17500J0D01*
G01*
D12*
X3293872Y-11397984D02*
X3312920Y-11397984D01*
X3312920Y-11397984D02*
X3331967Y-11407508D01*
X3331967Y-11407508D02*
X3341491Y-11417031D01*
X3341491Y-11417031D02*
X3351015Y-11436079D01*
X3351015Y-11436079D02*
X3360539Y-11474174D01*
X3360539Y-11474174D02*
X3360539Y-11521793D01*
X3360539Y-11521793D02*
X3351015Y-11559888D01*
X3351015Y-11559888D02*
X3341491Y-11578936D01*
X3341491Y-11578936D02*
X3331967Y-11588460D01*
X3331967Y-11588460D02*
X3312920Y-11597984D01*
X3312920Y-11597984D02*
X3293872Y-11597984D01*
X3293872Y-11597984D02*
X3274824Y-11588460D01*
X3274824Y-11588460D02*
X3265301Y-11578936D01*
X3265301Y-11578936D02*
X3255777Y-11559888D01*
X3255777Y-11559888D02*
X3246253Y-11521793D01*
X3246253Y-11521793D02*
X3246253Y-11474174D01*
X3246253Y-11474174D02*
X3255777Y-11436079D01*
X3255777Y-11436079D02*
X3265301Y-11417031D01*
X3265301Y-11417031D02*
X3274824Y-11407508D01*
X3274824Y-11407508D02*
X3293872Y-11397984D01*
X3446253Y-11578936D02*
X3455777Y-11588460D01*
X3455777Y-11588460D02*
X3446253Y-11597984D01*
X3446253Y-11597984D02*
X3436729Y-11588460D01*
X3436729Y-11588460D02*
X3446253Y-11578936D01*
X3446253Y-11578936D02*
X3446253Y-11597984D01*
X3522443Y-11397984D02*
X3646253Y-11397984D01*
X3646253Y-11397984D02*
X3579586Y-11474174D01*
X3579586Y-11474174D02*
X3608158Y-11474174D01*
X3608158Y-11474174D02*
X3627205Y-11483698D01*
X3627205Y-11483698D02*
X3636729Y-11493222D01*
X3636729Y-11493222D02*
X3646253Y-11512269D01*
X3646253Y-11512269D02*
X3646253Y-11559888D01*
X3646253Y-11559888D02*
X3636729Y-11578936D01*
X3636729Y-11578936D02*
X3627205Y-11588460D01*
X3627205Y-11588460D02*
X3608158Y-11597984D01*
X3608158Y-11597984D02*
X3551015Y-11597984D01*
X3551015Y-11597984D02*
X3531967Y-11588460D01*
X3531967Y-11588460D02*
X3522443Y-11578936D01*
X3827205Y-11397984D02*
X3731967Y-11397984D01*
X3731967Y-11397984D02*
X3722443Y-11493222D01*
X3722443Y-11493222D02*
X3731967Y-11483698D01*
X3731967Y-11483698D02*
X3751015Y-11474174D01*
X3751015Y-11474174D02*
X3798634Y-11474174D01*
X3798634Y-11474174D02*
X3817682Y-11483698D01*
X3817682Y-11483698D02*
X3827205Y-11493222D01*
X3827205Y-11493222D02*
X3836729Y-11512269D01*
X3836729Y-11512269D02*
X3836729Y-11559888D01*
X3836729Y-11559888D02*
X3827205Y-11578936D01*
X3827205Y-11578936D02*
X3817682Y-11588460D01*
X3817682Y-11588460D02*
X3798634Y-11597984D01*
X3798634Y-11597984D02*
X3751015Y-11597984D01*
X3751015Y-11597984D02*
X3731967Y-11588460D01*
X3731967Y-11588460D02*
X3722443Y-11578936D01*
X3960539Y-11397984D02*
X3979586Y-11397984D01*
X3979586Y-11397984D02*
X3998634Y-11407508D01*
X3998634Y-11407508D02*
X4008158Y-11417031D01*
X4008158Y-11417031D02*
X4017682Y-11436079D01*
X4017682Y-11436079D02*
X4027205Y-11474174D01*
X4027205Y-11474174D02*
X4027205Y-11521793D01*
X4027205Y-11521793D02*
X4017682Y-11559888D01*
X4017682Y-11559888D02*
X4008158Y-11578936D01*
X4008158Y-11578936D02*
X3998634Y-11588460D01*
X3998634Y-11588460D02*
X3979586Y-11597984D01*
X3979586Y-11597984D02*
X3960539Y-11597984D01*
X3960539Y-11597984D02*
X3941491Y-11588460D01*
X3941491Y-11588460D02*
X3931967Y-11578936D01*
X3931967Y-11578936D02*
X3922443Y-11559888D01*
X3922443Y-11559888D02*
X3912920Y-11521793D01*
X3912920Y-11521793D02*
X3912920Y-11474174D01*
X3912920Y-11474174D02*
X3922443Y-11436079D01*
X3922443Y-11436079D02*
X3931967Y-11417031D01*
X3931967Y-11417031D02*
X3941491Y-11407508D01*
X3941491Y-11407508D02*
X3960539Y-11397984D01*
X4112920Y-11597984D02*
X4112920Y-11464650D01*
X4112920Y-11483698D02*
X4122443Y-11474174D01*
X4122443Y-11474174D02*
X4141491Y-11464650D01*
X4141491Y-11464650D02*
X4170063Y-11464650D01*
X4170063Y-11464650D02*
X4189110Y-11474174D01*
X4189110Y-11474174D02*
X4198634Y-11493222D01*
X4198634Y-11493222D02*
X4198634Y-11597984D01*
X4198634Y-11493222D02*
X4208158Y-11474174D01*
X4208158Y-11474174D02*
X4227205Y-11464650D01*
X4227205Y-11464650D02*
X4255777Y-11464650D01*
X4255777Y-11464650D02*
X4274825Y-11474174D01*
X4274825Y-11474174D02*
X4284348Y-11493222D01*
X4284348Y-11493222D02*
X4284348Y-11597984D01*
X4379586Y-11597984D02*
X4379586Y-11464650D01*
X4379586Y-11483698D02*
X4389110Y-11474174D01*
X4389110Y-11474174D02*
X4408158Y-11464650D01*
X4408158Y-11464650D02*
X4436729Y-11464650D01*
X4436729Y-11464650D02*
X4455777Y-11474174D01*
X4455777Y-11474174D02*
X4465301Y-11493222D01*
X4465301Y-11493222D02*
X4465301Y-11597984D01*
X4465301Y-11493222D02*
X4474825Y-11474174D01*
X4474825Y-11474174D02*
X4493872Y-11464650D01*
X4493872Y-11464650D02*
X4522444Y-11464650D01*
X4522444Y-11464650D02*
X4541491Y-11474174D01*
X4541491Y-11474174D02*
X4551015Y-11493222D01*
X4551015Y-11493222D02*
X4551015Y-11597984D01*
X4941491Y-11388460D02*
X4770063Y-11645603D01*
X5198634Y-11397984D02*
X5217682Y-11397984D01*
X5217682Y-11397984D02*
X5236729Y-11407508D01*
X5236729Y-11407508D02*
X5246253Y-11417031D01*
X5246253Y-11417031D02*
X5255777Y-11436079D01*
X5255777Y-11436079D02*
X5265301Y-11474174D01*
X5265301Y-11474174D02*
X5265301Y-11521793D01*
X5265301Y-11521793D02*
X5255777Y-11559888D01*
X5255777Y-11559888D02*
X5246253Y-11578936D01*
X5246253Y-11578936D02*
X5236729Y-11588460D01*
X5236729Y-11588460D02*
X5217682Y-11597984D01*
X5217682Y-11597984D02*
X5198634Y-11597984D01*
X5198634Y-11597984D02*
X5179587Y-11588460D01*
X5179587Y-11588460D02*
X5170063Y-11578936D01*
X5170063Y-11578936D02*
X5160539Y-11559888D01*
X5160539Y-11559888D02*
X5151015Y-11521793D01*
X5151015Y-11521793D02*
X5151015Y-11474174D01*
X5151015Y-11474174D02*
X5160539Y-11436079D01*
X5160539Y-11436079D02*
X5170063Y-11417031D01*
X5170063Y-11417031D02*
X5179587Y-11407508D01*
X5179587Y-11407508D02*
X5198634Y-11397984D01*
X5351015Y-11578936D02*
X5360539Y-11588460D01*
X5360539Y-11588460D02*
X5351015Y-11597984D01*
X5351015Y-11597984D02*
X5341491Y-11588460D01*
X5341491Y-11588460D02*
X5351015Y-11578936D01*
X5351015Y-11578936D02*
X5351015Y-11597984D01*
X5484348Y-11397984D02*
X5503396Y-11397984D01*
X5503396Y-11397984D02*
X5522444Y-11407508D01*
X5522444Y-11407508D02*
X5531968Y-11417031D01*
X5531968Y-11417031D02*
X5541491Y-11436079D01*
X5541491Y-11436079D02*
X5551015Y-11474174D01*
X5551015Y-11474174D02*
X5551015Y-11521793D01*
X5551015Y-11521793D02*
X5541491Y-11559888D01*
X5541491Y-11559888D02*
X5531968Y-11578936D01*
X5531968Y-11578936D02*
X5522444Y-11588460D01*
X5522444Y-11588460D02*
X5503396Y-11597984D01*
X5503396Y-11597984D02*
X5484348Y-11597984D01*
X5484348Y-11597984D02*
X5465301Y-11588460D01*
X5465301Y-11588460D02*
X5455777Y-11578936D01*
X5455777Y-11578936D02*
X5446253Y-11559888D01*
X5446253Y-11559888D02*
X5436729Y-11521793D01*
X5436729Y-11521793D02*
X5436729Y-11474174D01*
X5436729Y-11474174D02*
X5446253Y-11436079D01*
X5446253Y-11436079D02*
X5455777Y-11417031D01*
X5455777Y-11417031D02*
X5465301Y-11407508D01*
X5465301Y-11407508D02*
X5484348Y-11397984D01*
X5741491Y-11597984D02*
X5627206Y-11597984D01*
X5684348Y-11597984D02*
X5684348Y-11397984D01*
X5684348Y-11397984D02*
X5665301Y-11426555D01*
X5665301Y-11426555D02*
X5646253Y-11445603D01*
X5646253Y-11445603D02*
X5627206Y-11455127D01*
X5808158Y-11397984D02*
X5931967Y-11397984D01*
X5931967Y-11397984D02*
X5865301Y-11474174D01*
X5865301Y-11474174D02*
X5893872Y-11474174D01*
X5893872Y-11474174D02*
X5912920Y-11483698D01*
X5912920Y-11483698D02*
X5922444Y-11493222D01*
X5922444Y-11493222D02*
X5931967Y-11512269D01*
X5931967Y-11512269D02*
X5931967Y-11559888D01*
X5931967Y-11559888D02*
X5922444Y-11578936D01*
X5922444Y-11578936D02*
X5912920Y-11588460D01*
X5912920Y-11588460D02*
X5893872Y-11597984D01*
X5893872Y-11597984D02*
X5836729Y-11597984D01*
X5836729Y-11597984D02*
X5817682Y-11588460D01*
X5817682Y-11588460D02*
X5808158Y-11578936D01*
X6046253Y-11483698D02*
X6027206Y-11474174D01*
X6027206Y-11474174D02*
X6017682Y-11464650D01*
X6017682Y-11464650D02*
X6008158Y-11445603D01*
X6008158Y-11445603D02*
X6008158Y-11436079D01*
X6008158Y-11436079D02*
X6017682Y-11417031D01*
X6017682Y-11417031D02*
X6027206Y-11407508D01*
X6027206Y-11407508D02*
X6046253Y-11397984D01*
X6046253Y-11397984D02*
X6084348Y-11397984D01*
X6084348Y-11397984D02*
X6103396Y-11407508D01*
X6103396Y-11407508D02*
X6112920Y-11417031D01*
X6112920Y-11417031D02*
X6122444Y-11436079D01*
X6122444Y-11436079D02*
X6122444Y-11445603D01*
X6122444Y-11445603D02*
X6112920Y-11464650D01*
X6112920Y-11464650D02*
X6103396Y-11474174D01*
X6103396Y-11474174D02*
X6084348Y-11483698D01*
X6084348Y-11483698D02*
X6046253Y-11483698D01*
X6046253Y-11483698D02*
X6027206Y-11493222D01*
X6027206Y-11493222D02*
X6017682Y-11502746D01*
X6017682Y-11502746D02*
X6008158Y-11521793D01*
X6008158Y-11521793D02*
X6008158Y-11559888D01*
X6008158Y-11559888D02*
X6017682Y-11578936D01*
X6017682Y-11578936D02*
X6027206Y-11588460D01*
X6027206Y-11588460D02*
X6046253Y-11597984D01*
X6046253Y-11597984D02*
X6084348Y-11597984D01*
X6084348Y-11597984D02*
X6103396Y-11588460D01*
X6103396Y-11588460D02*
X6112920Y-11578936D01*
X6112920Y-11578936D02*
X6122444Y-11559888D01*
X6122444Y-11559888D02*
X6122444Y-11521793D01*
X6122444Y-11521793D02*
X6112920Y-11502746D01*
X6112920Y-11502746D02*
X6103396Y-11493222D01*
X6103396Y-11493222D02*
X6084348Y-11483698D01*
X6198634Y-11397984D02*
X6198634Y-11436079D01*
X6274825Y-11397984D02*
X6274825Y-11436079D01*
X6570063Y-11674174D02*
X6560539Y-11664650D01*
X6560539Y-11664650D02*
X6541491Y-11636079D01*
X6541491Y-11636079D02*
X6531968Y-11617031D01*
X6531968Y-11617031D02*
X6522444Y-11588460D01*
X6522444Y-11588460D02*
X6512920Y-11540841D01*
X6512920Y-11540841D02*
X6512920Y-11502746D01*
X6512920Y-11502746D02*
X6522444Y-11455127D01*
X6522444Y-11455127D02*
X6531968Y-11426555D01*
X6531968Y-11426555D02*
X6541491Y-11407508D01*
X6541491Y-11407508D02*
X6560539Y-11378936D01*
X6560539Y-11378936D02*
X6570063Y-11369412D01*
X6751015Y-11597984D02*
X6636729Y-11597984D01*
X6693872Y-11597984D02*
X6693872Y-11397984D01*
X6693872Y-11397984D02*
X6674825Y-11426555D01*
X6674825Y-11426555D02*
X6655777Y-11445603D01*
X6655777Y-11445603D02*
X6636729Y-11455127D01*
X6922444Y-11464650D02*
X6922444Y-11597984D01*
X6874825Y-11388460D02*
X6827206Y-11531317D01*
X6827206Y-11531317D02*
X6951015Y-11531317D01*
X7055777Y-11483698D02*
X7036729Y-11474174D01*
X7036729Y-11474174D02*
X7027206Y-11464650D01*
X7027206Y-11464650D02*
X7017682Y-11445603D01*
X7017682Y-11445603D02*
X7017682Y-11436079D01*
X7017682Y-11436079D02*
X7027206Y-11417031D01*
X7027206Y-11417031D02*
X7036729Y-11407508D01*
X7036729Y-11407508D02*
X7055777Y-11397984D01*
X7055777Y-11397984D02*
X7093872Y-11397984D01*
X7093872Y-11397984D02*
X7112920Y-11407508D01*
X7112920Y-11407508D02*
X7122444Y-11417031D01*
X7122444Y-11417031D02*
X7131968Y-11436079D01*
X7131968Y-11436079D02*
X7131968Y-11445603D01*
X7131968Y-11445603D02*
X7122444Y-11464650D01*
X7122444Y-11464650D02*
X7112920Y-11474174D01*
X7112920Y-11474174D02*
X7093872Y-11483698D01*
X7093872Y-11483698D02*
X7055777Y-11483698D01*
X7055777Y-11483698D02*
X7036729Y-11493222D01*
X7036729Y-11493222D02*
X7027206Y-11502746D01*
X7027206Y-11502746D02*
X7017682Y-11521793D01*
X7017682Y-11521793D02*
X7017682Y-11559888D01*
X7017682Y-11559888D02*
X7027206Y-11578936D01*
X7027206Y-11578936D02*
X7036729Y-11588460D01*
X7036729Y-11588460D02*
X7055777Y-11597984D01*
X7055777Y-11597984D02*
X7093872Y-11597984D01*
X7093872Y-11597984D02*
X7112920Y-11588460D01*
X7112920Y-11588460D02*
X7122444Y-11578936D01*
X7122444Y-11578936D02*
X7131968Y-11559888D01*
X7131968Y-11559888D02*
X7131968Y-11521793D01*
X7131968Y-11521793D02*
X7122444Y-11502746D01*
X7122444Y-11502746D02*
X7112920Y-11493222D01*
X7112920Y-11493222D02*
X7093872Y-11483698D01*
X7370063Y-11597984D02*
X7370063Y-11397984D01*
X7455777Y-11597984D02*
X7455777Y-11493222D01*
X7455777Y-11493222D02*
X7446253Y-11474174D01*
X7446253Y-11474174D02*
X7427206Y-11464650D01*
X7427206Y-11464650D02*
X7398634Y-11464650D01*
X7398634Y-11464650D02*
X7379587Y-11474174D01*
X7379587Y-11474174D02*
X7370063Y-11483698D01*
X7579587Y-11597984D02*
X7560539Y-11588460D01*
X7560539Y-11588460D02*
X7551015Y-11578936D01*
X7551015Y-11578936D02*
X7541491Y-11559888D01*
X7541491Y-11559888D02*
X7541491Y-11502746D01*
X7541491Y-11502746D02*
X7551015Y-11483698D01*
X7551015Y-11483698D02*
X7560539Y-11474174D01*
X7560539Y-11474174D02*
X7579587Y-11464650D01*
X7579587Y-11464650D02*
X7608158Y-11464650D01*
X7608158Y-11464650D02*
X7627206Y-11474174D01*
X7627206Y-11474174D02*
X7636730Y-11483698D01*
X7636730Y-11483698D02*
X7646253Y-11502746D01*
X7646253Y-11502746D02*
X7646253Y-11559888D01*
X7646253Y-11559888D02*
X7636730Y-11578936D01*
X7636730Y-11578936D02*
X7627206Y-11588460D01*
X7627206Y-11588460D02*
X7608158Y-11597984D01*
X7608158Y-11597984D02*
X7579587Y-11597984D01*
X7760539Y-11597984D02*
X7741491Y-11588460D01*
X7741491Y-11588460D02*
X7731968Y-11569412D01*
X7731968Y-11569412D02*
X7731968Y-11397984D01*
X7912920Y-11588460D02*
X7893872Y-11597984D01*
X7893872Y-11597984D02*
X7855777Y-11597984D01*
X7855777Y-11597984D02*
X7836730Y-11588460D01*
X7836730Y-11588460D02*
X7827206Y-11569412D01*
X7827206Y-11569412D02*
X7827206Y-11493222D01*
X7827206Y-11493222D02*
X7836730Y-11474174D01*
X7836730Y-11474174D02*
X7855777Y-11464650D01*
X7855777Y-11464650D02*
X7893872Y-11464650D01*
X7893872Y-11464650D02*
X7912920Y-11474174D01*
X7912920Y-11474174D02*
X7922444Y-11493222D01*
X7922444Y-11493222D02*
X7922444Y-11512269D01*
X7922444Y-11512269D02*
X7827206Y-11531317D01*
X7998634Y-11588460D02*
X8017682Y-11597984D01*
X8017682Y-11597984D02*
X8055777Y-11597984D01*
X8055777Y-11597984D02*
X8074825Y-11588460D01*
X8074825Y-11588460D02*
X8084349Y-11569412D01*
X8084349Y-11569412D02*
X8084349Y-11559888D01*
X8084349Y-11559888D02*
X8074825Y-11540841D01*
X8074825Y-11540841D02*
X8055777Y-11531317D01*
X8055777Y-11531317D02*
X8027206Y-11531317D01*
X8027206Y-11531317D02*
X8008158Y-11521793D01*
X8008158Y-11521793D02*
X7998634Y-11502746D01*
X7998634Y-11502746D02*
X7998634Y-11493222D01*
X7998634Y-11493222D02*
X8008158Y-11474174D01*
X8008158Y-11474174D02*
X8027206Y-11464650D01*
X8027206Y-11464650D02*
X8055777Y-11464650D01*
X8055777Y-11464650D02*
X8074825Y-11474174D01*
X8151015Y-11674174D02*
X8160539Y-11664650D01*
X8160539Y-11664650D02*
X8179587Y-11636079D01*
X8179587Y-11636079D02*
X8189111Y-11617031D01*
X8189111Y-11617031D02*
X8198634Y-11588460D01*
X8198634Y-11588460D02*
X8208158Y-11540841D01*
X8208158Y-11540841D02*
X8208158Y-11502746D01*
X8208158Y-11502746D02*
X8198634Y-11455127D01*
X8198634Y-11455127D02*
X8189111Y-11426555D01*
X8189111Y-11426555D02*
X8179587Y-11407508D01*
X8179587Y-11407508D02*
X8160539Y-11378936D01*
X8160539Y-11378936D02*
X8151015Y-11369412D01*
D11*
X2975000Y-11750500D02*
X2975000Y-11790500D01*
X2955000Y-11770500D02*
X2995000Y-11770500D01*
D12*
X3293872Y-11661984D02*
X3312920Y-11661984D01*
X3312920Y-11661984D02*
X3331967Y-11671508D01*
X3331967Y-11671508D02*
X3341491Y-11681031D01*
X3341491Y-11681031D02*
X3351015Y-11700079D01*
X3351015Y-11700079D02*
X3360539Y-11738174D01*
X3360539Y-11738174D02*
X3360539Y-11785793D01*
X3360539Y-11785793D02*
X3351015Y-11823888D01*
X3351015Y-11823888D02*
X3341491Y-11842936D01*
X3341491Y-11842936D02*
X3331967Y-11852460D01*
X3331967Y-11852460D02*
X3312920Y-11861984D01*
X3312920Y-11861984D02*
X3293872Y-11861984D01*
X3293872Y-11861984D02*
X3274824Y-11852460D01*
X3274824Y-11852460D02*
X3265301Y-11842936D01*
X3265301Y-11842936D02*
X3255777Y-11823888D01*
X3255777Y-11823888D02*
X3246253Y-11785793D01*
X3246253Y-11785793D02*
X3246253Y-11738174D01*
X3246253Y-11738174D02*
X3255777Y-11700079D01*
X3255777Y-11700079D02*
X3265301Y-11681031D01*
X3265301Y-11681031D02*
X3274824Y-11671508D01*
X3274824Y-11671508D02*
X3293872Y-11661984D01*
X3446253Y-11842936D02*
X3455777Y-11852460D01*
X3455777Y-11852460D02*
X3446253Y-11861984D01*
X3446253Y-11861984D02*
X3436729Y-11852460D01*
X3436729Y-11852460D02*
X3446253Y-11842936D01*
X3446253Y-11842936D02*
X3446253Y-11861984D01*
X3627205Y-11728650D02*
X3627205Y-11861984D01*
X3579586Y-11652460D02*
X3531967Y-11795317D01*
X3531967Y-11795317D02*
X3655777Y-11795317D01*
X3770062Y-11661984D02*
X3789110Y-11661984D01*
X3789110Y-11661984D02*
X3808158Y-11671508D01*
X3808158Y-11671508D02*
X3817682Y-11681031D01*
X3817682Y-11681031D02*
X3827205Y-11700079D01*
X3827205Y-11700079D02*
X3836729Y-11738174D01*
X3836729Y-11738174D02*
X3836729Y-11785793D01*
X3836729Y-11785793D02*
X3827205Y-11823888D01*
X3827205Y-11823888D02*
X3817682Y-11842936D01*
X3817682Y-11842936D02*
X3808158Y-11852460D01*
X3808158Y-11852460D02*
X3789110Y-11861984D01*
X3789110Y-11861984D02*
X3770062Y-11861984D01*
X3770062Y-11861984D02*
X3751015Y-11852460D01*
X3751015Y-11852460D02*
X3741491Y-11842936D01*
X3741491Y-11842936D02*
X3731967Y-11823888D01*
X3731967Y-11823888D02*
X3722443Y-11785793D01*
X3722443Y-11785793D02*
X3722443Y-11738174D01*
X3722443Y-11738174D02*
X3731967Y-11700079D01*
X3731967Y-11700079D02*
X3741491Y-11681031D01*
X3741491Y-11681031D02*
X3751015Y-11671508D01*
X3751015Y-11671508D02*
X3770062Y-11661984D01*
X3960539Y-11661984D02*
X3979586Y-11661984D01*
X3979586Y-11661984D02*
X3998634Y-11671508D01*
X3998634Y-11671508D02*
X4008158Y-11681031D01*
X4008158Y-11681031D02*
X4017682Y-11700079D01*
X4017682Y-11700079D02*
X4027205Y-11738174D01*
X4027205Y-11738174D02*
X4027205Y-11785793D01*
X4027205Y-11785793D02*
X4017682Y-11823888D01*
X4017682Y-11823888D02*
X4008158Y-11842936D01*
X4008158Y-11842936D02*
X3998634Y-11852460D01*
X3998634Y-11852460D02*
X3979586Y-11861984D01*
X3979586Y-11861984D02*
X3960539Y-11861984D01*
X3960539Y-11861984D02*
X3941491Y-11852460D01*
X3941491Y-11852460D02*
X3931967Y-11842936D01*
X3931967Y-11842936D02*
X3922443Y-11823888D01*
X3922443Y-11823888D02*
X3912920Y-11785793D01*
X3912920Y-11785793D02*
X3912920Y-11738174D01*
X3912920Y-11738174D02*
X3922443Y-11700079D01*
X3922443Y-11700079D02*
X3931967Y-11681031D01*
X3931967Y-11681031D02*
X3941491Y-11671508D01*
X3941491Y-11671508D02*
X3960539Y-11661984D01*
X4112920Y-11861984D02*
X4112920Y-11728650D01*
X4112920Y-11747698D02*
X4122443Y-11738174D01*
X4122443Y-11738174D02*
X4141491Y-11728650D01*
X4141491Y-11728650D02*
X4170063Y-11728650D01*
X4170063Y-11728650D02*
X4189110Y-11738174D01*
X4189110Y-11738174D02*
X4198634Y-11757222D01*
X4198634Y-11757222D02*
X4198634Y-11861984D01*
X4198634Y-11757222D02*
X4208158Y-11738174D01*
X4208158Y-11738174D02*
X4227205Y-11728650D01*
X4227205Y-11728650D02*
X4255777Y-11728650D01*
X4255777Y-11728650D02*
X4274825Y-11738174D01*
X4274825Y-11738174D02*
X4284348Y-11757222D01*
X4284348Y-11757222D02*
X4284348Y-11861984D01*
X4379586Y-11861984D02*
X4379586Y-11728650D01*
X4379586Y-11747698D02*
X4389110Y-11738174D01*
X4389110Y-11738174D02*
X4408158Y-11728650D01*
X4408158Y-11728650D02*
X4436729Y-11728650D01*
X4436729Y-11728650D02*
X4455777Y-11738174D01*
X4455777Y-11738174D02*
X4465301Y-11757222D01*
X4465301Y-11757222D02*
X4465301Y-11861984D01*
X4465301Y-11757222D02*
X4474825Y-11738174D01*
X4474825Y-11738174D02*
X4493872Y-11728650D01*
X4493872Y-11728650D02*
X4522444Y-11728650D01*
X4522444Y-11728650D02*
X4541491Y-11738174D01*
X4541491Y-11738174D02*
X4551015Y-11757222D01*
X4551015Y-11757222D02*
X4551015Y-11861984D01*
X4941491Y-11652460D02*
X4770063Y-11909603D01*
X5198634Y-11661984D02*
X5217682Y-11661984D01*
X5217682Y-11661984D02*
X5236729Y-11671508D01*
X5236729Y-11671508D02*
X5246253Y-11681031D01*
X5246253Y-11681031D02*
X5255777Y-11700079D01*
X5255777Y-11700079D02*
X5265301Y-11738174D01*
X5265301Y-11738174D02*
X5265301Y-11785793D01*
X5265301Y-11785793D02*
X5255777Y-11823888D01*
X5255777Y-11823888D02*
X5246253Y-11842936D01*
X5246253Y-11842936D02*
X5236729Y-11852460D01*
X5236729Y-11852460D02*
X5217682Y-11861984D01*
X5217682Y-11861984D02*
X5198634Y-11861984D01*
X5198634Y-11861984D02*
X5179587Y-11852460D01*
X5179587Y-11852460D02*
X5170063Y-11842936D01*
X5170063Y-11842936D02*
X5160539Y-11823888D01*
X5160539Y-11823888D02*
X5151015Y-11785793D01*
X5151015Y-11785793D02*
X5151015Y-11738174D01*
X5151015Y-11738174D02*
X5160539Y-11700079D01*
X5160539Y-11700079D02*
X5170063Y-11681031D01*
X5170063Y-11681031D02*
X5179587Y-11671508D01*
X5179587Y-11671508D02*
X5198634Y-11661984D01*
X5351015Y-11842936D02*
X5360539Y-11852460D01*
X5360539Y-11852460D02*
X5351015Y-11861984D01*
X5351015Y-11861984D02*
X5341491Y-11852460D01*
X5341491Y-11852460D02*
X5351015Y-11842936D01*
X5351015Y-11842936D02*
X5351015Y-11861984D01*
X5484348Y-11661984D02*
X5503396Y-11661984D01*
X5503396Y-11661984D02*
X5522444Y-11671508D01*
X5522444Y-11671508D02*
X5531968Y-11681031D01*
X5531968Y-11681031D02*
X5541491Y-11700079D01*
X5541491Y-11700079D02*
X5551015Y-11738174D01*
X5551015Y-11738174D02*
X5551015Y-11785793D01*
X5551015Y-11785793D02*
X5541491Y-11823888D01*
X5541491Y-11823888D02*
X5531968Y-11842936D01*
X5531968Y-11842936D02*
X5522444Y-11852460D01*
X5522444Y-11852460D02*
X5503396Y-11861984D01*
X5503396Y-11861984D02*
X5484348Y-11861984D01*
X5484348Y-11861984D02*
X5465301Y-11852460D01*
X5465301Y-11852460D02*
X5455777Y-11842936D01*
X5455777Y-11842936D02*
X5446253Y-11823888D01*
X5446253Y-11823888D02*
X5436729Y-11785793D01*
X5436729Y-11785793D02*
X5436729Y-11738174D01*
X5436729Y-11738174D02*
X5446253Y-11700079D01*
X5446253Y-11700079D02*
X5455777Y-11681031D01*
X5455777Y-11681031D02*
X5465301Y-11671508D01*
X5465301Y-11671508D02*
X5484348Y-11661984D01*
X5741491Y-11861984D02*
X5627206Y-11861984D01*
X5684348Y-11861984D02*
X5684348Y-11661984D01*
X5684348Y-11661984D02*
X5665301Y-11690555D01*
X5665301Y-11690555D02*
X5646253Y-11709603D01*
X5646253Y-11709603D02*
X5627206Y-11719127D01*
X5922444Y-11661984D02*
X5827206Y-11661984D01*
X5827206Y-11661984D02*
X5817682Y-11757222D01*
X5817682Y-11757222D02*
X5827206Y-11747698D01*
X5827206Y-11747698D02*
X5846253Y-11738174D01*
X5846253Y-11738174D02*
X5893872Y-11738174D01*
X5893872Y-11738174D02*
X5912920Y-11747698D01*
X5912920Y-11747698D02*
X5922444Y-11757222D01*
X5922444Y-11757222D02*
X5931967Y-11776269D01*
X5931967Y-11776269D02*
X5931967Y-11823888D01*
X5931967Y-11823888D02*
X5922444Y-11842936D01*
X5922444Y-11842936D02*
X5912920Y-11852460D01*
X5912920Y-11852460D02*
X5893872Y-11861984D01*
X5893872Y-11861984D02*
X5846253Y-11861984D01*
X5846253Y-11861984D02*
X5827206Y-11852460D01*
X5827206Y-11852460D02*
X5817682Y-11842936D01*
X5998634Y-11661984D02*
X6131967Y-11661984D01*
X6131967Y-11661984D02*
X6046253Y-11861984D01*
X6198634Y-11661984D02*
X6198634Y-11700079D01*
X6274825Y-11661984D02*
X6274825Y-11700079D01*
X6570063Y-11938174D02*
X6560539Y-11928650D01*
X6560539Y-11928650D02*
X6541491Y-11900079D01*
X6541491Y-11900079D02*
X6531968Y-11881031D01*
X6531968Y-11881031D02*
X6522444Y-11852460D01*
X6522444Y-11852460D02*
X6512920Y-11804841D01*
X6512920Y-11804841D02*
X6512920Y-11766746D01*
X6512920Y-11766746D02*
X6522444Y-11719127D01*
X6522444Y-11719127D02*
X6531968Y-11690555D01*
X6531968Y-11690555D02*
X6541491Y-11671508D01*
X6541491Y-11671508D02*
X6560539Y-11642936D01*
X6560539Y-11642936D02*
X6570063Y-11633412D01*
X6751015Y-11861984D02*
X6636729Y-11861984D01*
X6693872Y-11861984D02*
X6693872Y-11661984D01*
X6693872Y-11661984D02*
X6674825Y-11690555D01*
X6674825Y-11690555D02*
X6655777Y-11709603D01*
X6655777Y-11709603D02*
X6636729Y-11719127D01*
X6989110Y-11861984D02*
X6989110Y-11661984D01*
X7074825Y-11861984D02*
X7074825Y-11757222D01*
X7074825Y-11757222D02*
X7065301Y-11738174D01*
X7065301Y-11738174D02*
X7046253Y-11728650D01*
X7046253Y-11728650D02*
X7017682Y-11728650D01*
X7017682Y-11728650D02*
X6998634Y-11738174D01*
X6998634Y-11738174D02*
X6989110Y-11747698D01*
X7198634Y-11861984D02*
X7179587Y-11852460D01*
X7179587Y-11852460D02*
X7170063Y-11842936D01*
X7170063Y-11842936D02*
X7160539Y-11823888D01*
X7160539Y-11823888D02*
X7160539Y-11766746D01*
X7160539Y-11766746D02*
X7170063Y-11747698D01*
X7170063Y-11747698D02*
X7179587Y-11738174D01*
X7179587Y-11738174D02*
X7198634Y-11728650D01*
X7198634Y-11728650D02*
X7227206Y-11728650D01*
X7227206Y-11728650D02*
X7246253Y-11738174D01*
X7246253Y-11738174D02*
X7255777Y-11747698D01*
X7255777Y-11747698D02*
X7265301Y-11766746D01*
X7265301Y-11766746D02*
X7265301Y-11823888D01*
X7265301Y-11823888D02*
X7255777Y-11842936D01*
X7255777Y-11842936D02*
X7246253Y-11852460D01*
X7246253Y-11852460D02*
X7227206Y-11861984D01*
X7227206Y-11861984D02*
X7198634Y-11861984D01*
X7379587Y-11861984D02*
X7360539Y-11852460D01*
X7360539Y-11852460D02*
X7351015Y-11833412D01*
X7351015Y-11833412D02*
X7351015Y-11661984D01*
X7531968Y-11852460D02*
X7512920Y-11861984D01*
X7512920Y-11861984D02*
X7474825Y-11861984D01*
X7474825Y-11861984D02*
X7455777Y-11852460D01*
X7455777Y-11852460D02*
X7446253Y-11833412D01*
X7446253Y-11833412D02*
X7446253Y-11757222D01*
X7446253Y-11757222D02*
X7455777Y-11738174D01*
X7455777Y-11738174D02*
X7474825Y-11728650D01*
X7474825Y-11728650D02*
X7512920Y-11728650D01*
X7512920Y-11728650D02*
X7531968Y-11738174D01*
X7531968Y-11738174D02*
X7541491Y-11757222D01*
X7541491Y-11757222D02*
X7541491Y-11776269D01*
X7541491Y-11776269D02*
X7446253Y-11795317D01*
X7608158Y-11938174D02*
X7617682Y-11928650D01*
X7617682Y-11928650D02*
X7636730Y-11900079D01*
X7636730Y-11900079D02*
X7646253Y-11881031D01*
X7646253Y-11881031D02*
X7655777Y-11852460D01*
X7655777Y-11852460D02*
X7665301Y-11804841D01*
X7665301Y-11804841D02*
X7665301Y-11766746D01*
X7665301Y-11766746D02*
X7655777Y-11719127D01*
X7655777Y-11719127D02*
X7646253Y-11690555D01*
X7646253Y-11690555D02*
X7636730Y-11671508D01*
X7636730Y-11671508D02*
X7617682Y-11642936D01*
X7617682Y-11642936D02*
X7608158Y-11633412D01*
D11*
X2984749Y-12059249D02*
X2984749Y-12009751D01*
X2935251Y-12009751D01*
X2935251Y-12059249D01*
X2984749Y-12059249D01*
D12*
X3293872Y-11925984D02*
X3312920Y-11925984D01*
X3312920Y-11925984D02*
X3331967Y-11935508D01*
X3331967Y-11935508D02*
X3341491Y-11945031D01*
X3341491Y-11945031D02*
X3351015Y-11964079D01*
X3351015Y-11964079D02*
X3360539Y-12002174D01*
X3360539Y-12002174D02*
X3360539Y-12049793D01*
X3360539Y-12049793D02*
X3351015Y-12087888D01*
X3351015Y-12087888D02*
X3341491Y-12106936D01*
X3341491Y-12106936D02*
X3331967Y-12116460D01*
X3331967Y-12116460D02*
X3312920Y-12125984D01*
X3312920Y-12125984D02*
X3293872Y-12125984D01*
X3293872Y-12125984D02*
X3274824Y-12116460D01*
X3274824Y-12116460D02*
X3265301Y-12106936D01*
X3265301Y-12106936D02*
X3255777Y-12087888D01*
X3255777Y-12087888D02*
X3246253Y-12049793D01*
X3246253Y-12049793D02*
X3246253Y-12002174D01*
X3246253Y-12002174D02*
X3255777Y-11964079D01*
X3255777Y-11964079D02*
X3265301Y-11945031D01*
X3265301Y-11945031D02*
X3274824Y-11935508D01*
X3274824Y-11935508D02*
X3293872Y-11925984D01*
X3446253Y-12106936D02*
X3455777Y-12116460D01*
X3455777Y-12116460D02*
X3446253Y-12125984D01*
X3446253Y-12125984D02*
X3436729Y-12116460D01*
X3436729Y-12116460D02*
X3446253Y-12106936D01*
X3446253Y-12106936D02*
X3446253Y-12125984D01*
X3522443Y-11925984D02*
X3655777Y-11925984D01*
X3655777Y-11925984D02*
X3570062Y-12125984D01*
X3770062Y-11925984D02*
X3789110Y-11925984D01*
X3789110Y-11925984D02*
X3808158Y-11935508D01*
X3808158Y-11935508D02*
X3817682Y-11945031D01*
X3817682Y-11945031D02*
X3827205Y-11964079D01*
X3827205Y-11964079D02*
X3836729Y-12002174D01*
X3836729Y-12002174D02*
X3836729Y-12049793D01*
X3836729Y-12049793D02*
X3827205Y-12087888D01*
X3827205Y-12087888D02*
X3817682Y-12106936D01*
X3817682Y-12106936D02*
X3808158Y-12116460D01*
X3808158Y-12116460D02*
X3789110Y-12125984D01*
X3789110Y-12125984D02*
X3770062Y-12125984D01*
X3770062Y-12125984D02*
X3751015Y-12116460D01*
X3751015Y-12116460D02*
X3741491Y-12106936D01*
X3741491Y-12106936D02*
X3731967Y-12087888D01*
X3731967Y-12087888D02*
X3722443Y-12049793D01*
X3722443Y-12049793D02*
X3722443Y-12002174D01*
X3722443Y-12002174D02*
X3731967Y-11964079D01*
X3731967Y-11964079D02*
X3741491Y-11945031D01*
X3741491Y-11945031D02*
X3751015Y-11935508D01*
X3751015Y-11935508D02*
X3770062Y-11925984D01*
X3960539Y-11925984D02*
X3979586Y-11925984D01*
X3979586Y-11925984D02*
X3998634Y-11935508D01*
X3998634Y-11935508D02*
X4008158Y-11945031D01*
X4008158Y-11945031D02*
X4017682Y-11964079D01*
X4017682Y-11964079D02*
X4027205Y-12002174D01*
X4027205Y-12002174D02*
X4027205Y-12049793D01*
X4027205Y-12049793D02*
X4017682Y-12087888D01*
X4017682Y-12087888D02*
X4008158Y-12106936D01*
X4008158Y-12106936D02*
X3998634Y-12116460D01*
X3998634Y-12116460D02*
X3979586Y-12125984D01*
X3979586Y-12125984D02*
X3960539Y-12125984D01*
X3960539Y-12125984D02*
X3941491Y-12116460D01*
X3941491Y-12116460D02*
X3931967Y-12106936D01*
X3931967Y-12106936D02*
X3922443Y-12087888D01*
X3922443Y-12087888D02*
X3912920Y-12049793D01*
X3912920Y-12049793D02*
X3912920Y-12002174D01*
X3912920Y-12002174D02*
X3922443Y-11964079D01*
X3922443Y-11964079D02*
X3931967Y-11945031D01*
X3931967Y-11945031D02*
X3941491Y-11935508D01*
X3941491Y-11935508D02*
X3960539Y-11925984D01*
X4112920Y-12125984D02*
X4112920Y-11992650D01*
X4112920Y-12011698D02*
X4122443Y-12002174D01*
X4122443Y-12002174D02*
X4141491Y-11992650D01*
X4141491Y-11992650D02*
X4170063Y-11992650D01*
X4170063Y-11992650D02*
X4189110Y-12002174D01*
X4189110Y-12002174D02*
X4198634Y-12021222D01*
X4198634Y-12021222D02*
X4198634Y-12125984D01*
X4198634Y-12021222D02*
X4208158Y-12002174D01*
X4208158Y-12002174D02*
X4227205Y-11992650D01*
X4227205Y-11992650D02*
X4255777Y-11992650D01*
X4255777Y-11992650D02*
X4274825Y-12002174D01*
X4274825Y-12002174D02*
X4284348Y-12021222D01*
X4284348Y-12021222D02*
X4284348Y-12125984D01*
X4379586Y-12125984D02*
X4379586Y-11992650D01*
X4379586Y-12011698D02*
X4389110Y-12002174D01*
X4389110Y-12002174D02*
X4408158Y-11992650D01*
X4408158Y-11992650D02*
X4436729Y-11992650D01*
X4436729Y-11992650D02*
X4455777Y-12002174D01*
X4455777Y-12002174D02*
X4465301Y-12021222D01*
X4465301Y-12021222D02*
X4465301Y-12125984D01*
X4465301Y-12021222D02*
X4474825Y-12002174D01*
X4474825Y-12002174D02*
X4493872Y-11992650D01*
X4493872Y-11992650D02*
X4522444Y-11992650D01*
X4522444Y-11992650D02*
X4541491Y-12002174D01*
X4541491Y-12002174D02*
X4551015Y-12021222D01*
X4551015Y-12021222D02*
X4551015Y-12125984D01*
X4941491Y-11916460D02*
X4770063Y-12173603D01*
X5198634Y-11925984D02*
X5217682Y-11925984D01*
X5217682Y-11925984D02*
X5236729Y-11935508D01*
X5236729Y-11935508D02*
X5246253Y-11945031D01*
X5246253Y-11945031D02*
X5255777Y-11964079D01*
X5255777Y-11964079D02*
X5265301Y-12002174D01*
X5265301Y-12002174D02*
X5265301Y-12049793D01*
X5265301Y-12049793D02*
X5255777Y-12087888D01*
X5255777Y-12087888D02*
X5246253Y-12106936D01*
X5246253Y-12106936D02*
X5236729Y-12116460D01*
X5236729Y-12116460D02*
X5217682Y-12125984D01*
X5217682Y-12125984D02*
X5198634Y-12125984D01*
X5198634Y-12125984D02*
X5179587Y-12116460D01*
X5179587Y-12116460D02*
X5170063Y-12106936D01*
X5170063Y-12106936D02*
X5160539Y-12087888D01*
X5160539Y-12087888D02*
X5151015Y-12049793D01*
X5151015Y-12049793D02*
X5151015Y-12002174D01*
X5151015Y-12002174D02*
X5160539Y-11964079D01*
X5160539Y-11964079D02*
X5170063Y-11945031D01*
X5170063Y-11945031D02*
X5179587Y-11935508D01*
X5179587Y-11935508D02*
X5198634Y-11925984D01*
X5351015Y-12106936D02*
X5360539Y-12116460D01*
X5360539Y-12116460D02*
X5351015Y-12125984D01*
X5351015Y-12125984D02*
X5341491Y-12116460D01*
X5341491Y-12116460D02*
X5351015Y-12106936D01*
X5351015Y-12106936D02*
X5351015Y-12125984D01*
X5484348Y-11925984D02*
X5503396Y-11925984D01*
X5503396Y-11925984D02*
X5522444Y-11935508D01*
X5522444Y-11935508D02*
X5531968Y-11945031D01*
X5531968Y-11945031D02*
X5541491Y-11964079D01*
X5541491Y-11964079D02*
X5551015Y-12002174D01*
X5551015Y-12002174D02*
X5551015Y-12049793D01*
X5551015Y-12049793D02*
X5541491Y-12087888D01*
X5541491Y-12087888D02*
X5531968Y-12106936D01*
X5531968Y-12106936D02*
X5522444Y-12116460D01*
X5522444Y-12116460D02*
X5503396Y-12125984D01*
X5503396Y-12125984D02*
X5484348Y-12125984D01*
X5484348Y-12125984D02*
X5465301Y-12116460D01*
X5465301Y-12116460D02*
X5455777Y-12106936D01*
X5455777Y-12106936D02*
X5446253Y-12087888D01*
X5446253Y-12087888D02*
X5436729Y-12049793D01*
X5436729Y-12049793D02*
X5436729Y-12002174D01*
X5436729Y-12002174D02*
X5446253Y-11964079D01*
X5446253Y-11964079D02*
X5455777Y-11945031D01*
X5455777Y-11945031D02*
X5465301Y-11935508D01*
X5465301Y-11935508D02*
X5484348Y-11925984D01*
X5627206Y-11945031D02*
X5636729Y-11935508D01*
X5636729Y-11935508D02*
X5655777Y-11925984D01*
X5655777Y-11925984D02*
X5703396Y-11925984D01*
X5703396Y-11925984D02*
X5722444Y-11935508D01*
X5722444Y-11935508D02*
X5731967Y-11945031D01*
X5731967Y-11945031D02*
X5741491Y-11964079D01*
X5741491Y-11964079D02*
X5741491Y-11983127D01*
X5741491Y-11983127D02*
X5731967Y-12011698D01*
X5731967Y-12011698D02*
X5617682Y-12125984D01*
X5617682Y-12125984D02*
X5741491Y-12125984D01*
X5808158Y-11925984D02*
X5941491Y-11925984D01*
X5941491Y-11925984D02*
X5855777Y-12125984D01*
X6103396Y-11925984D02*
X6065301Y-11925984D01*
X6065301Y-11925984D02*
X6046253Y-11935508D01*
X6046253Y-11935508D02*
X6036729Y-11945031D01*
X6036729Y-11945031D02*
X6017682Y-11973603D01*
X6017682Y-11973603D02*
X6008158Y-12011698D01*
X6008158Y-12011698D02*
X6008158Y-12087888D01*
X6008158Y-12087888D02*
X6017682Y-12106936D01*
X6017682Y-12106936D02*
X6027206Y-12116460D01*
X6027206Y-12116460D02*
X6046253Y-12125984D01*
X6046253Y-12125984D02*
X6084348Y-12125984D01*
X6084348Y-12125984D02*
X6103396Y-12116460D01*
X6103396Y-12116460D02*
X6112920Y-12106936D01*
X6112920Y-12106936D02*
X6122444Y-12087888D01*
X6122444Y-12087888D02*
X6122444Y-12040269D01*
X6122444Y-12040269D02*
X6112920Y-12021222D01*
X6112920Y-12021222D02*
X6103396Y-12011698D01*
X6103396Y-12011698D02*
X6084348Y-12002174D01*
X6084348Y-12002174D02*
X6046253Y-12002174D01*
X6046253Y-12002174D02*
X6027206Y-12011698D01*
X6027206Y-12011698D02*
X6017682Y-12021222D01*
X6017682Y-12021222D02*
X6008158Y-12040269D01*
X6198634Y-11925984D02*
X6198634Y-11964079D01*
X6274825Y-11925984D02*
X6274825Y-11964079D01*
X6570063Y-12202174D02*
X6560539Y-12192650D01*
X6560539Y-12192650D02*
X6541491Y-12164079D01*
X6541491Y-12164079D02*
X6531968Y-12145031D01*
X6531968Y-12145031D02*
X6522444Y-12116460D01*
X6522444Y-12116460D02*
X6512920Y-12068841D01*
X6512920Y-12068841D02*
X6512920Y-12030746D01*
X6512920Y-12030746D02*
X6522444Y-11983127D01*
X6522444Y-11983127D02*
X6531968Y-11954555D01*
X6531968Y-11954555D02*
X6541491Y-11935508D01*
X6541491Y-11935508D02*
X6560539Y-11906936D01*
X6560539Y-11906936D02*
X6570063Y-11897412D01*
X6674825Y-12011698D02*
X6655777Y-12002174D01*
X6655777Y-12002174D02*
X6646253Y-11992650D01*
X6646253Y-11992650D02*
X6636729Y-11973603D01*
X6636729Y-11973603D02*
X6636729Y-11964079D01*
X6636729Y-11964079D02*
X6646253Y-11945031D01*
X6646253Y-11945031D02*
X6655777Y-11935508D01*
X6655777Y-11935508D02*
X6674825Y-11925984D01*
X6674825Y-11925984D02*
X6712920Y-11925984D01*
X6712920Y-11925984D02*
X6731968Y-11935508D01*
X6731968Y-11935508D02*
X6741491Y-11945031D01*
X6741491Y-11945031D02*
X6751015Y-11964079D01*
X6751015Y-11964079D02*
X6751015Y-11973603D01*
X6751015Y-11973603D02*
X6741491Y-11992650D01*
X6741491Y-11992650D02*
X6731968Y-12002174D01*
X6731968Y-12002174D02*
X6712920Y-12011698D01*
X6712920Y-12011698D02*
X6674825Y-12011698D01*
X6674825Y-12011698D02*
X6655777Y-12021222D01*
X6655777Y-12021222D02*
X6646253Y-12030746D01*
X6646253Y-12030746D02*
X6636729Y-12049793D01*
X6636729Y-12049793D02*
X6636729Y-12087888D01*
X6636729Y-12087888D02*
X6646253Y-12106936D01*
X6646253Y-12106936D02*
X6655777Y-12116460D01*
X6655777Y-12116460D02*
X6674825Y-12125984D01*
X6674825Y-12125984D02*
X6712920Y-12125984D01*
X6712920Y-12125984D02*
X6731968Y-12116460D01*
X6731968Y-12116460D02*
X6741491Y-12106936D01*
X6741491Y-12106936D02*
X6751015Y-12087888D01*
X6751015Y-12087888D02*
X6751015Y-12049793D01*
X6751015Y-12049793D02*
X6741491Y-12030746D01*
X6741491Y-12030746D02*
X6731968Y-12021222D01*
X6731968Y-12021222D02*
X6712920Y-12011698D01*
X6989110Y-12125984D02*
X6989110Y-11925984D01*
X7074825Y-12125984D02*
X7074825Y-12021222D01*
X7074825Y-12021222D02*
X7065301Y-12002174D01*
X7065301Y-12002174D02*
X7046253Y-11992650D01*
X7046253Y-11992650D02*
X7017682Y-11992650D01*
X7017682Y-11992650D02*
X6998634Y-12002174D01*
X6998634Y-12002174D02*
X6989110Y-12011698D01*
X7198634Y-12125984D02*
X7179587Y-12116460D01*
X7179587Y-12116460D02*
X7170063Y-12106936D01*
X7170063Y-12106936D02*
X7160539Y-12087888D01*
X7160539Y-12087888D02*
X7160539Y-12030746D01*
X7160539Y-12030746D02*
X7170063Y-12011698D01*
X7170063Y-12011698D02*
X7179587Y-12002174D01*
X7179587Y-12002174D02*
X7198634Y-11992650D01*
X7198634Y-11992650D02*
X7227206Y-11992650D01*
X7227206Y-11992650D02*
X7246253Y-12002174D01*
X7246253Y-12002174D02*
X7255777Y-12011698D01*
X7255777Y-12011698D02*
X7265301Y-12030746D01*
X7265301Y-12030746D02*
X7265301Y-12087888D01*
X7265301Y-12087888D02*
X7255777Y-12106936D01*
X7255777Y-12106936D02*
X7246253Y-12116460D01*
X7246253Y-12116460D02*
X7227206Y-12125984D01*
X7227206Y-12125984D02*
X7198634Y-12125984D01*
X7379587Y-12125984D02*
X7360539Y-12116460D01*
X7360539Y-12116460D02*
X7351015Y-12097412D01*
X7351015Y-12097412D02*
X7351015Y-11925984D01*
X7531968Y-12116460D02*
X7512920Y-12125984D01*
X7512920Y-12125984D02*
X7474825Y-12125984D01*
X7474825Y-12125984D02*
X7455777Y-12116460D01*
X7455777Y-12116460D02*
X7446253Y-12097412D01*
X7446253Y-12097412D02*
X7446253Y-12021222D01*
X7446253Y-12021222D02*
X7455777Y-12002174D01*
X7455777Y-12002174D02*
X7474825Y-11992650D01*
X7474825Y-11992650D02*
X7512920Y-11992650D01*
X7512920Y-11992650D02*
X7531968Y-12002174D01*
X7531968Y-12002174D02*
X7541491Y-12021222D01*
X7541491Y-12021222D02*
X7541491Y-12040269D01*
X7541491Y-12040269D02*
X7446253Y-12059317D01*
X7617682Y-12116460D02*
X7636730Y-12125984D01*
X7636730Y-12125984D02*
X7674825Y-12125984D01*
X7674825Y-12125984D02*
X7693872Y-12116460D01*
X7693872Y-12116460D02*
X7703396Y-12097412D01*
X7703396Y-12097412D02*
X7703396Y-12087888D01*
X7703396Y-12087888D02*
X7693872Y-12068841D01*
X7693872Y-12068841D02*
X7674825Y-12059317D01*
X7674825Y-12059317D02*
X7646253Y-12059317D01*
X7646253Y-12059317D02*
X7627206Y-12049793D01*
X7627206Y-12049793D02*
X7617682Y-12030746D01*
X7617682Y-12030746D02*
X7617682Y-12021222D01*
X7617682Y-12021222D02*
X7627206Y-12002174D01*
X7627206Y-12002174D02*
X7646253Y-11992650D01*
X7646253Y-11992650D02*
X7674825Y-11992650D01*
X7674825Y-11992650D02*
X7693872Y-12002174D01*
X7770063Y-12202174D02*
X7779587Y-12192650D01*
X7779587Y-12192650D02*
X7798634Y-12164079D01*
X7798634Y-12164079D02*
X7808158Y-12145031D01*
X7808158Y-12145031D02*
X7817682Y-12116460D01*
X7817682Y-12116460D02*
X7827206Y-12068841D01*
X7827206Y-12068841D02*
X7827206Y-12030746D01*
X7827206Y-12030746D02*
X7817682Y-11983127D01*
X7817682Y-11983127D02*
X7808158Y-11954555D01*
X7808158Y-11954555D02*
X7798634Y-11935508D01*
X7798634Y-11935508D02*
X7779587Y-11906936D01*
X7779587Y-11906936D02*
X7770063Y-11897412D01*
D11*
X2955000Y-12338500D02*
X2995000Y-12298500D01*
X2955000Y-12258500D01*
X2915000Y-12298500D01*
X2955000Y-12338500D01*
D12*
X3293872Y-12189984D02*
X3312920Y-12189984D01*
X3312920Y-12189984D02*
X3331967Y-12199508D01*
X3331967Y-12199508D02*
X3341491Y-12209031D01*
X3341491Y-12209031D02*
X3351015Y-12228079D01*
X3351015Y-12228079D02*
X3360539Y-12266174D01*
X3360539Y-12266174D02*
X3360539Y-12313793D01*
X3360539Y-12313793D02*
X3351015Y-12351888D01*
X3351015Y-12351888D02*
X3341491Y-12370936D01*
X3341491Y-12370936D02*
X3331967Y-12380460D01*
X3331967Y-12380460D02*
X3312920Y-12389984D01*
X3312920Y-12389984D02*
X3293872Y-12389984D01*
X3293872Y-12389984D02*
X3274824Y-12380460D01*
X3274824Y-12380460D02*
X3265301Y-12370936D01*
X3265301Y-12370936D02*
X3255777Y-12351888D01*
X3255777Y-12351888D02*
X3246253Y-12313793D01*
X3246253Y-12313793D02*
X3246253Y-12266174D01*
X3246253Y-12266174D02*
X3255777Y-12228079D01*
X3255777Y-12228079D02*
X3265301Y-12209031D01*
X3265301Y-12209031D02*
X3274824Y-12199508D01*
X3274824Y-12199508D02*
X3293872Y-12189984D01*
X3446253Y-12370936D02*
X3455777Y-12380460D01*
X3455777Y-12380460D02*
X3446253Y-12389984D01*
X3446253Y-12389984D02*
X3436729Y-12380460D01*
X3436729Y-12380460D02*
X3446253Y-12370936D01*
X3446253Y-12370936D02*
X3446253Y-12389984D01*
X3570062Y-12275698D02*
X3551015Y-12266174D01*
X3551015Y-12266174D02*
X3541491Y-12256650D01*
X3541491Y-12256650D02*
X3531967Y-12237603D01*
X3531967Y-12237603D02*
X3531967Y-12228079D01*
X3531967Y-12228079D02*
X3541491Y-12209031D01*
X3541491Y-12209031D02*
X3551015Y-12199508D01*
X3551015Y-12199508D02*
X3570062Y-12189984D01*
X3570062Y-12189984D02*
X3608158Y-12189984D01*
X3608158Y-12189984D02*
X3627205Y-12199508D01*
X3627205Y-12199508D02*
X3636729Y-12209031D01*
X3636729Y-12209031D02*
X3646253Y-12228079D01*
X3646253Y-12228079D02*
X3646253Y-12237603D01*
X3646253Y-12237603D02*
X3636729Y-12256650D01*
X3636729Y-12256650D02*
X3627205Y-12266174D01*
X3627205Y-12266174D02*
X3608158Y-12275698D01*
X3608158Y-12275698D02*
X3570062Y-12275698D01*
X3570062Y-12275698D02*
X3551015Y-12285222D01*
X3551015Y-12285222D02*
X3541491Y-12294746D01*
X3541491Y-12294746D02*
X3531967Y-12313793D01*
X3531967Y-12313793D02*
X3531967Y-12351888D01*
X3531967Y-12351888D02*
X3541491Y-12370936D01*
X3541491Y-12370936D02*
X3551015Y-12380460D01*
X3551015Y-12380460D02*
X3570062Y-12389984D01*
X3570062Y-12389984D02*
X3608158Y-12389984D01*
X3608158Y-12389984D02*
X3627205Y-12380460D01*
X3627205Y-12380460D02*
X3636729Y-12370936D01*
X3636729Y-12370936D02*
X3646253Y-12351888D01*
X3646253Y-12351888D02*
X3646253Y-12313793D01*
X3646253Y-12313793D02*
X3636729Y-12294746D01*
X3636729Y-12294746D02*
X3627205Y-12285222D01*
X3627205Y-12285222D02*
X3608158Y-12275698D01*
X3770062Y-12189984D02*
X3789110Y-12189984D01*
X3789110Y-12189984D02*
X3808158Y-12199508D01*
X3808158Y-12199508D02*
X3817682Y-12209031D01*
X3817682Y-12209031D02*
X3827205Y-12228079D01*
X3827205Y-12228079D02*
X3836729Y-12266174D01*
X3836729Y-12266174D02*
X3836729Y-12313793D01*
X3836729Y-12313793D02*
X3827205Y-12351888D01*
X3827205Y-12351888D02*
X3817682Y-12370936D01*
X3817682Y-12370936D02*
X3808158Y-12380460D01*
X3808158Y-12380460D02*
X3789110Y-12389984D01*
X3789110Y-12389984D02*
X3770062Y-12389984D01*
X3770062Y-12389984D02*
X3751015Y-12380460D01*
X3751015Y-12380460D02*
X3741491Y-12370936D01*
X3741491Y-12370936D02*
X3731967Y-12351888D01*
X3731967Y-12351888D02*
X3722443Y-12313793D01*
X3722443Y-12313793D02*
X3722443Y-12266174D01*
X3722443Y-12266174D02*
X3731967Y-12228079D01*
X3731967Y-12228079D02*
X3741491Y-12209031D01*
X3741491Y-12209031D02*
X3751015Y-12199508D01*
X3751015Y-12199508D02*
X3770062Y-12189984D01*
X3960539Y-12189984D02*
X3979586Y-12189984D01*
X3979586Y-12189984D02*
X3998634Y-12199508D01*
X3998634Y-12199508D02*
X4008158Y-12209031D01*
X4008158Y-12209031D02*
X4017682Y-12228079D01*
X4017682Y-12228079D02*
X4027205Y-12266174D01*
X4027205Y-12266174D02*
X4027205Y-12313793D01*
X4027205Y-12313793D02*
X4017682Y-12351888D01*
X4017682Y-12351888D02*
X4008158Y-12370936D01*
X4008158Y-12370936D02*
X3998634Y-12380460D01*
X3998634Y-12380460D02*
X3979586Y-12389984D01*
X3979586Y-12389984D02*
X3960539Y-12389984D01*
X3960539Y-12389984D02*
X3941491Y-12380460D01*
X3941491Y-12380460D02*
X3931967Y-12370936D01*
X3931967Y-12370936D02*
X3922443Y-12351888D01*
X3922443Y-12351888D02*
X3912920Y-12313793D01*
X3912920Y-12313793D02*
X3912920Y-12266174D01*
X3912920Y-12266174D02*
X3922443Y-12228079D01*
X3922443Y-12228079D02*
X3931967Y-12209031D01*
X3931967Y-12209031D02*
X3941491Y-12199508D01*
X3941491Y-12199508D02*
X3960539Y-12189984D01*
X4112920Y-12389984D02*
X4112920Y-12256650D01*
X4112920Y-12275698D02*
X4122443Y-12266174D01*
X4122443Y-12266174D02*
X4141491Y-12256650D01*
X4141491Y-12256650D02*
X4170063Y-12256650D01*
X4170063Y-12256650D02*
X4189110Y-12266174D01*
X4189110Y-12266174D02*
X4198634Y-12285222D01*
X4198634Y-12285222D02*
X4198634Y-12389984D01*
X4198634Y-12285222D02*
X4208158Y-12266174D01*
X4208158Y-12266174D02*
X4227205Y-12256650D01*
X4227205Y-12256650D02*
X4255777Y-12256650D01*
X4255777Y-12256650D02*
X4274825Y-12266174D01*
X4274825Y-12266174D02*
X4284348Y-12285222D01*
X4284348Y-12285222D02*
X4284348Y-12389984D01*
X4379586Y-12389984D02*
X4379586Y-12256650D01*
X4379586Y-12275698D02*
X4389110Y-12266174D01*
X4389110Y-12266174D02*
X4408158Y-12256650D01*
X4408158Y-12256650D02*
X4436729Y-12256650D01*
X4436729Y-12256650D02*
X4455777Y-12266174D01*
X4455777Y-12266174D02*
X4465301Y-12285222D01*
X4465301Y-12285222D02*
X4465301Y-12389984D01*
X4465301Y-12285222D02*
X4474825Y-12266174D01*
X4474825Y-12266174D02*
X4493872Y-12256650D01*
X4493872Y-12256650D02*
X4522444Y-12256650D01*
X4522444Y-12256650D02*
X4541491Y-12266174D01*
X4541491Y-12266174D02*
X4551015Y-12285222D01*
X4551015Y-12285222D02*
X4551015Y-12389984D01*
X4941491Y-12180460D02*
X4770063Y-12437603D01*
X5198634Y-12189984D02*
X5217682Y-12189984D01*
X5217682Y-12189984D02*
X5236729Y-12199508D01*
X5236729Y-12199508D02*
X5246253Y-12209031D01*
X5246253Y-12209031D02*
X5255777Y-12228079D01*
X5255777Y-12228079D02*
X5265301Y-12266174D01*
X5265301Y-12266174D02*
X5265301Y-12313793D01*
X5265301Y-12313793D02*
X5255777Y-12351888D01*
X5255777Y-12351888D02*
X5246253Y-12370936D01*
X5246253Y-12370936D02*
X5236729Y-12380460D01*
X5236729Y-12380460D02*
X5217682Y-12389984D01*
X5217682Y-12389984D02*
X5198634Y-12389984D01*
X5198634Y-12389984D02*
X5179587Y-12380460D01*
X5179587Y-12380460D02*
X5170063Y-12370936D01*
X5170063Y-12370936D02*
X5160539Y-12351888D01*
X5160539Y-12351888D02*
X5151015Y-12313793D01*
X5151015Y-12313793D02*
X5151015Y-12266174D01*
X5151015Y-12266174D02*
X5160539Y-12228079D01*
X5160539Y-12228079D02*
X5170063Y-12209031D01*
X5170063Y-12209031D02*
X5179587Y-12199508D01*
X5179587Y-12199508D02*
X5198634Y-12189984D01*
X5351015Y-12370936D02*
X5360539Y-12380460D01*
X5360539Y-12380460D02*
X5351015Y-12389984D01*
X5351015Y-12389984D02*
X5341491Y-12380460D01*
X5341491Y-12380460D02*
X5351015Y-12370936D01*
X5351015Y-12370936D02*
X5351015Y-12389984D01*
X5484348Y-12189984D02*
X5503396Y-12189984D01*
X5503396Y-12189984D02*
X5522444Y-12199508D01*
X5522444Y-12199508D02*
X5531968Y-12209031D01*
X5531968Y-12209031D02*
X5541491Y-12228079D01*
X5541491Y-12228079D02*
X5551015Y-12266174D01*
X5551015Y-12266174D02*
X5551015Y-12313793D01*
X5551015Y-12313793D02*
X5541491Y-12351888D01*
X5541491Y-12351888D02*
X5531968Y-12370936D01*
X5531968Y-12370936D02*
X5522444Y-12380460D01*
X5522444Y-12380460D02*
X5503396Y-12389984D01*
X5503396Y-12389984D02*
X5484348Y-12389984D01*
X5484348Y-12389984D02*
X5465301Y-12380460D01*
X5465301Y-12380460D02*
X5455777Y-12370936D01*
X5455777Y-12370936D02*
X5446253Y-12351888D01*
X5446253Y-12351888D02*
X5436729Y-12313793D01*
X5436729Y-12313793D02*
X5436729Y-12266174D01*
X5436729Y-12266174D02*
X5446253Y-12228079D01*
X5446253Y-12228079D02*
X5455777Y-12209031D01*
X5455777Y-12209031D02*
X5465301Y-12199508D01*
X5465301Y-12199508D02*
X5484348Y-12189984D01*
X5617682Y-12189984D02*
X5741491Y-12189984D01*
X5741491Y-12189984D02*
X5674825Y-12266174D01*
X5674825Y-12266174D02*
X5703396Y-12266174D01*
X5703396Y-12266174D02*
X5722444Y-12275698D01*
X5722444Y-12275698D02*
X5731967Y-12285222D01*
X5731967Y-12285222D02*
X5741491Y-12304269D01*
X5741491Y-12304269D02*
X5741491Y-12351888D01*
X5741491Y-12351888D02*
X5731967Y-12370936D01*
X5731967Y-12370936D02*
X5722444Y-12380460D01*
X5722444Y-12380460D02*
X5703396Y-12389984D01*
X5703396Y-12389984D02*
X5646253Y-12389984D01*
X5646253Y-12389984D02*
X5627206Y-12380460D01*
X5627206Y-12380460D02*
X5617682Y-12370936D01*
X5931967Y-12389984D02*
X5817682Y-12389984D01*
X5874825Y-12389984D02*
X5874825Y-12189984D01*
X5874825Y-12189984D02*
X5855777Y-12218555D01*
X5855777Y-12218555D02*
X5836729Y-12237603D01*
X5836729Y-12237603D02*
X5817682Y-12247127D01*
X6112920Y-12189984D02*
X6017682Y-12189984D01*
X6017682Y-12189984D02*
X6008158Y-12285222D01*
X6008158Y-12285222D02*
X6017682Y-12275698D01*
X6017682Y-12275698D02*
X6036729Y-12266174D01*
X6036729Y-12266174D02*
X6084348Y-12266174D01*
X6084348Y-12266174D02*
X6103396Y-12275698D01*
X6103396Y-12275698D02*
X6112920Y-12285222D01*
X6112920Y-12285222D02*
X6122444Y-12304269D01*
X6122444Y-12304269D02*
X6122444Y-12351888D01*
X6122444Y-12351888D02*
X6112920Y-12370936D01*
X6112920Y-12370936D02*
X6103396Y-12380460D01*
X6103396Y-12380460D02*
X6084348Y-12389984D01*
X6084348Y-12389984D02*
X6036729Y-12389984D01*
X6036729Y-12389984D02*
X6017682Y-12380460D01*
X6017682Y-12380460D02*
X6008158Y-12370936D01*
X6198634Y-12189984D02*
X6198634Y-12228079D01*
X6274825Y-12189984D02*
X6274825Y-12228079D01*
X6570063Y-12466174D02*
X6560539Y-12456650D01*
X6560539Y-12456650D02*
X6541491Y-12428079D01*
X6541491Y-12428079D02*
X6531968Y-12409031D01*
X6531968Y-12409031D02*
X6522444Y-12380460D01*
X6522444Y-12380460D02*
X6512920Y-12332841D01*
X6512920Y-12332841D02*
X6512920Y-12294746D01*
X6512920Y-12294746D02*
X6522444Y-12247127D01*
X6522444Y-12247127D02*
X6531968Y-12218555D01*
X6531968Y-12218555D02*
X6541491Y-12199508D01*
X6541491Y-12199508D02*
X6560539Y-12170936D01*
X6560539Y-12170936D02*
X6570063Y-12161412D01*
X6751015Y-12389984D02*
X6636729Y-12389984D01*
X6693872Y-12389984D02*
X6693872Y-12189984D01*
X6693872Y-12189984D02*
X6674825Y-12218555D01*
X6674825Y-12218555D02*
X6655777Y-12237603D01*
X6655777Y-12237603D02*
X6636729Y-12247127D01*
X6931968Y-12189984D02*
X6836729Y-12189984D01*
X6836729Y-12189984D02*
X6827206Y-12285222D01*
X6827206Y-12285222D02*
X6836729Y-12275698D01*
X6836729Y-12275698D02*
X6855777Y-12266174D01*
X6855777Y-12266174D02*
X6903396Y-12266174D01*
X6903396Y-12266174D02*
X6922444Y-12275698D01*
X6922444Y-12275698D02*
X6931968Y-12285222D01*
X6931968Y-12285222D02*
X6941491Y-12304269D01*
X6941491Y-12304269D02*
X6941491Y-12351888D01*
X6941491Y-12351888D02*
X6931968Y-12370936D01*
X6931968Y-12370936D02*
X6922444Y-12380460D01*
X6922444Y-12380460D02*
X6903396Y-12389984D01*
X6903396Y-12389984D02*
X6855777Y-12389984D01*
X6855777Y-12389984D02*
X6836729Y-12380460D01*
X6836729Y-12380460D02*
X6827206Y-12370936D01*
X7179587Y-12389984D02*
X7179587Y-12189984D01*
X7265301Y-12389984D02*
X7265301Y-12285222D01*
X7265301Y-12285222D02*
X7255777Y-12266174D01*
X7255777Y-12266174D02*
X7236730Y-12256650D01*
X7236730Y-12256650D02*
X7208158Y-12256650D01*
X7208158Y-12256650D02*
X7189110Y-12266174D01*
X7189110Y-12266174D02*
X7179587Y-12275698D01*
X7389110Y-12389984D02*
X7370063Y-12380460D01*
X7370063Y-12380460D02*
X7360539Y-12370936D01*
X7360539Y-12370936D02*
X7351015Y-12351888D01*
X7351015Y-12351888D02*
X7351015Y-12294746D01*
X7351015Y-12294746D02*
X7360539Y-12275698D01*
X7360539Y-12275698D02*
X7370063Y-12266174D01*
X7370063Y-12266174D02*
X7389110Y-12256650D01*
X7389110Y-12256650D02*
X7417682Y-12256650D01*
X7417682Y-12256650D02*
X7436730Y-12266174D01*
X7436730Y-12266174D02*
X7446253Y-12275698D01*
X7446253Y-12275698D02*
X7455777Y-12294746D01*
X7455777Y-12294746D02*
X7455777Y-12351888D01*
X7455777Y-12351888D02*
X7446253Y-12370936D01*
X7446253Y-12370936D02*
X7436730Y-12380460D01*
X7436730Y-12380460D02*
X7417682Y-12389984D01*
X7417682Y-12389984D02*
X7389110Y-12389984D01*
X7570063Y-12389984D02*
X7551015Y-12380460D01*
X7551015Y-12380460D02*
X7541491Y-12361412D01*
X7541491Y-12361412D02*
X7541491Y-12189984D01*
X7722444Y-12380460D02*
X7703396Y-12389984D01*
X7703396Y-12389984D02*
X7665301Y-12389984D01*
X7665301Y-12389984D02*
X7646253Y-12380460D01*
X7646253Y-12380460D02*
X7636730Y-12361412D01*
X7636730Y-12361412D02*
X7636730Y-12285222D01*
X7636730Y-12285222D02*
X7646253Y-12266174D01*
X7646253Y-12266174D02*
X7665301Y-12256650D01*
X7665301Y-12256650D02*
X7703396Y-12256650D01*
X7703396Y-12256650D02*
X7722444Y-12266174D01*
X7722444Y-12266174D02*
X7731968Y-12285222D01*
X7731968Y-12285222D02*
X7731968Y-12304269D01*
X7731968Y-12304269D02*
X7636730Y-12323317D01*
X7808158Y-12380460D02*
X7827206Y-12389984D01*
X7827206Y-12389984D02*
X7865301Y-12389984D01*
X7865301Y-12389984D02*
X7884349Y-12380460D01*
X7884349Y-12380460D02*
X7893872Y-12361412D01*
X7893872Y-12361412D02*
X7893872Y-12351888D01*
X7893872Y-12351888D02*
X7884349Y-12332841D01*
X7884349Y-12332841D02*
X7865301Y-12323317D01*
X7865301Y-12323317D02*
X7836730Y-12323317D01*
X7836730Y-12323317D02*
X7817682Y-12313793D01*
X7817682Y-12313793D02*
X7808158Y-12294746D01*
X7808158Y-12294746D02*
X7808158Y-12285222D01*
X7808158Y-12285222D02*
X7817682Y-12266174D01*
X7817682Y-12266174D02*
X7836730Y-12256650D01*
X7836730Y-12256650D02*
X7865301Y-12256650D01*
X7865301Y-12256650D02*
X7884349Y-12266174D01*
X7960539Y-12466174D02*
X7970063Y-12456650D01*
X7970063Y-12456650D02*
X7989111Y-12428079D01*
X7989111Y-12428079D02*
X7998634Y-12409031D01*
X7998634Y-12409031D02*
X8008158Y-12380460D01*
X8008158Y-12380460D02*
X8017682Y-12332841D01*
X8017682Y-12332841D02*
X8017682Y-12294746D01*
X8017682Y-12294746D02*
X8008158Y-12247127D01*
X8008158Y-12247127D02*
X7998634Y-12218555D01*
X7998634Y-12218555D02*
X7989111Y-12199508D01*
X7989111Y-12199508D02*
X7970063Y-12170936D01*
X7970063Y-12170936D02*
X7960539Y-12161412D01*
D13*
X2893400Y-12511700D02*
X2995000Y-12613300D01*
X2995000Y-12511700D02*
X2893400Y-12613300D01*
X2995000Y-12562500D02*
G75*
G02*
X2893400Y-12562500I-50800J0D01*
G01*
X2893400Y-12562500D02*
G75*
G02*
X2995000Y-12562500I50800J0D01*
G01*
D12*
X3360539Y-12653984D02*
X3246253Y-12653984D01*
X3303396Y-12653984D02*
X3303396Y-12453984D01*
X3303396Y-12453984D02*
X3284348Y-12482555D01*
X3284348Y-12482555D02*
X3265301Y-12501603D01*
X3265301Y-12501603D02*
X3246253Y-12511127D01*
X3446253Y-12634936D02*
X3455777Y-12644460D01*
X3455777Y-12644460D02*
X3446253Y-12653984D01*
X3446253Y-12653984D02*
X3436729Y-12644460D01*
X3436729Y-12644460D02*
X3446253Y-12634936D01*
X3446253Y-12634936D02*
X3446253Y-12653984D01*
X3579586Y-12453984D02*
X3598634Y-12453984D01*
X3598634Y-12453984D02*
X3617682Y-12463508D01*
X3617682Y-12463508D02*
X3627205Y-12473031D01*
X3627205Y-12473031D02*
X3636729Y-12492079D01*
X3636729Y-12492079D02*
X3646253Y-12530174D01*
X3646253Y-12530174D02*
X3646253Y-12577793D01*
X3646253Y-12577793D02*
X3636729Y-12615888D01*
X3636729Y-12615888D02*
X3627205Y-12634936D01*
X3627205Y-12634936D02*
X3617682Y-12644460D01*
X3617682Y-12644460D02*
X3598634Y-12653984D01*
X3598634Y-12653984D02*
X3579586Y-12653984D01*
X3579586Y-12653984D02*
X3560539Y-12644460D01*
X3560539Y-12644460D02*
X3551015Y-12634936D01*
X3551015Y-12634936D02*
X3541491Y-12615888D01*
X3541491Y-12615888D02*
X3531967Y-12577793D01*
X3531967Y-12577793D02*
X3531967Y-12530174D01*
X3531967Y-12530174D02*
X3541491Y-12492079D01*
X3541491Y-12492079D02*
X3551015Y-12473031D01*
X3551015Y-12473031D02*
X3560539Y-12463508D01*
X3560539Y-12463508D02*
X3579586Y-12453984D01*
X3836729Y-12653984D02*
X3722443Y-12653984D01*
X3779586Y-12653984D02*
X3779586Y-12453984D01*
X3779586Y-12453984D02*
X3760539Y-12482555D01*
X3760539Y-12482555D02*
X3741491Y-12501603D01*
X3741491Y-12501603D02*
X3722443Y-12511127D01*
X4008158Y-12453984D02*
X3970062Y-12453984D01*
X3970062Y-12453984D02*
X3951015Y-12463508D01*
X3951015Y-12463508D02*
X3941491Y-12473031D01*
X3941491Y-12473031D02*
X3922443Y-12501603D01*
X3922443Y-12501603D02*
X3912920Y-12539698D01*
X3912920Y-12539698D02*
X3912920Y-12615888D01*
X3912920Y-12615888D02*
X3922443Y-12634936D01*
X3922443Y-12634936D02*
X3931967Y-12644460D01*
X3931967Y-12644460D02*
X3951015Y-12653984D01*
X3951015Y-12653984D02*
X3989110Y-12653984D01*
X3989110Y-12653984D02*
X4008158Y-12644460D01*
X4008158Y-12644460D02*
X4017682Y-12634936D01*
X4017682Y-12634936D02*
X4027205Y-12615888D01*
X4027205Y-12615888D02*
X4027205Y-12568269D01*
X4027205Y-12568269D02*
X4017682Y-12549222D01*
X4017682Y-12549222D02*
X4008158Y-12539698D01*
X4008158Y-12539698D02*
X3989110Y-12530174D01*
X3989110Y-12530174D02*
X3951015Y-12530174D01*
X3951015Y-12530174D02*
X3931967Y-12539698D01*
X3931967Y-12539698D02*
X3922443Y-12549222D01*
X3922443Y-12549222D02*
X3912920Y-12568269D01*
X4112920Y-12653984D02*
X4112920Y-12520650D01*
X4112920Y-12539698D02*
X4122443Y-12530174D01*
X4122443Y-12530174D02*
X4141491Y-12520650D01*
X4141491Y-12520650D02*
X4170063Y-12520650D01*
X4170063Y-12520650D02*
X4189110Y-12530174D01*
X4189110Y-12530174D02*
X4198634Y-12549222D01*
X4198634Y-12549222D02*
X4198634Y-12653984D01*
X4198634Y-12549222D02*
X4208158Y-12530174D01*
X4208158Y-12530174D02*
X4227205Y-12520650D01*
X4227205Y-12520650D02*
X4255777Y-12520650D01*
X4255777Y-12520650D02*
X4274825Y-12530174D01*
X4274825Y-12530174D02*
X4284348Y-12549222D01*
X4284348Y-12549222D02*
X4284348Y-12653984D01*
X4379586Y-12653984D02*
X4379586Y-12520650D01*
X4379586Y-12539698D02*
X4389110Y-12530174D01*
X4389110Y-12530174D02*
X4408158Y-12520650D01*
X4408158Y-12520650D02*
X4436729Y-12520650D01*
X4436729Y-12520650D02*
X4455777Y-12530174D01*
X4455777Y-12530174D02*
X4465301Y-12549222D01*
X4465301Y-12549222D02*
X4465301Y-12653984D01*
X4465301Y-12549222D02*
X4474825Y-12530174D01*
X4474825Y-12530174D02*
X4493872Y-12520650D01*
X4493872Y-12520650D02*
X4522444Y-12520650D01*
X4522444Y-12520650D02*
X4541491Y-12530174D01*
X4541491Y-12530174D02*
X4551015Y-12549222D01*
X4551015Y-12549222D02*
X4551015Y-12653984D01*
X4941491Y-12444460D02*
X4770063Y-12701603D01*
X5198634Y-12453984D02*
X5217682Y-12453984D01*
X5217682Y-12453984D02*
X5236729Y-12463508D01*
X5236729Y-12463508D02*
X5246253Y-12473031D01*
X5246253Y-12473031D02*
X5255777Y-12492079D01*
X5255777Y-12492079D02*
X5265301Y-12530174D01*
X5265301Y-12530174D02*
X5265301Y-12577793D01*
X5265301Y-12577793D02*
X5255777Y-12615888D01*
X5255777Y-12615888D02*
X5246253Y-12634936D01*
X5246253Y-12634936D02*
X5236729Y-12644460D01*
X5236729Y-12644460D02*
X5217682Y-12653984D01*
X5217682Y-12653984D02*
X5198634Y-12653984D01*
X5198634Y-12653984D02*
X5179587Y-12644460D01*
X5179587Y-12644460D02*
X5170063Y-12634936D01*
X5170063Y-12634936D02*
X5160539Y-12615888D01*
X5160539Y-12615888D02*
X5151015Y-12577793D01*
X5151015Y-12577793D02*
X5151015Y-12530174D01*
X5151015Y-12530174D02*
X5160539Y-12492079D01*
X5160539Y-12492079D02*
X5170063Y-12473031D01*
X5170063Y-12473031D02*
X5179587Y-12463508D01*
X5179587Y-12463508D02*
X5198634Y-12453984D01*
X5351015Y-12634936D02*
X5360539Y-12644460D01*
X5360539Y-12644460D02*
X5351015Y-12653984D01*
X5351015Y-12653984D02*
X5341491Y-12644460D01*
X5341491Y-12644460D02*
X5351015Y-12634936D01*
X5351015Y-12634936D02*
X5351015Y-12653984D01*
X5484348Y-12453984D02*
X5503396Y-12453984D01*
X5503396Y-12453984D02*
X5522444Y-12463508D01*
X5522444Y-12463508D02*
X5531968Y-12473031D01*
X5531968Y-12473031D02*
X5541491Y-12492079D01*
X5541491Y-12492079D02*
X5551015Y-12530174D01*
X5551015Y-12530174D02*
X5551015Y-12577793D01*
X5551015Y-12577793D02*
X5541491Y-12615888D01*
X5541491Y-12615888D02*
X5531968Y-12634936D01*
X5531968Y-12634936D02*
X5522444Y-12644460D01*
X5522444Y-12644460D02*
X5503396Y-12653984D01*
X5503396Y-12653984D02*
X5484348Y-12653984D01*
X5484348Y-12653984D02*
X5465301Y-12644460D01*
X5465301Y-12644460D02*
X5455777Y-12634936D01*
X5455777Y-12634936D02*
X5446253Y-12615888D01*
X5446253Y-12615888D02*
X5436729Y-12577793D01*
X5436729Y-12577793D02*
X5436729Y-12530174D01*
X5436729Y-12530174D02*
X5446253Y-12492079D01*
X5446253Y-12492079D02*
X5455777Y-12473031D01*
X5455777Y-12473031D02*
X5465301Y-12463508D01*
X5465301Y-12463508D02*
X5484348Y-12453984D01*
X5722444Y-12520650D02*
X5722444Y-12653984D01*
X5674825Y-12444460D02*
X5627206Y-12587317D01*
X5627206Y-12587317D02*
X5751015Y-12587317D01*
X5865301Y-12453984D02*
X5884348Y-12453984D01*
X5884348Y-12453984D02*
X5903396Y-12463508D01*
X5903396Y-12463508D02*
X5912920Y-12473031D01*
X5912920Y-12473031D02*
X5922444Y-12492079D01*
X5922444Y-12492079D02*
X5931967Y-12530174D01*
X5931967Y-12530174D02*
X5931967Y-12577793D01*
X5931967Y-12577793D02*
X5922444Y-12615888D01*
X5922444Y-12615888D02*
X5912920Y-12634936D01*
X5912920Y-12634936D02*
X5903396Y-12644460D01*
X5903396Y-12644460D02*
X5884348Y-12653984D01*
X5884348Y-12653984D02*
X5865301Y-12653984D01*
X5865301Y-12653984D02*
X5846253Y-12644460D01*
X5846253Y-12644460D02*
X5836729Y-12634936D01*
X5836729Y-12634936D02*
X5827206Y-12615888D01*
X5827206Y-12615888D02*
X5817682Y-12577793D01*
X5817682Y-12577793D02*
X5817682Y-12530174D01*
X5817682Y-12530174D02*
X5827206Y-12492079D01*
X5827206Y-12492079D02*
X5836729Y-12473031D01*
X5836729Y-12473031D02*
X5846253Y-12463508D01*
X5846253Y-12463508D02*
X5865301Y-12453984D01*
X6055777Y-12453984D02*
X6074825Y-12453984D01*
X6074825Y-12453984D02*
X6093872Y-12463508D01*
X6093872Y-12463508D02*
X6103396Y-12473031D01*
X6103396Y-12473031D02*
X6112920Y-12492079D01*
X6112920Y-12492079D02*
X6122444Y-12530174D01*
X6122444Y-12530174D02*
X6122444Y-12577793D01*
X6122444Y-12577793D02*
X6112920Y-12615888D01*
X6112920Y-12615888D02*
X6103396Y-12634936D01*
X6103396Y-12634936D02*
X6093872Y-12644460D01*
X6093872Y-12644460D02*
X6074825Y-12653984D01*
X6074825Y-12653984D02*
X6055777Y-12653984D01*
X6055777Y-12653984D02*
X6036729Y-12644460D01*
X6036729Y-12644460D02*
X6027206Y-12634936D01*
X6027206Y-12634936D02*
X6017682Y-12615888D01*
X6017682Y-12615888D02*
X6008158Y-12577793D01*
X6008158Y-12577793D02*
X6008158Y-12530174D01*
X6008158Y-12530174D02*
X6017682Y-12492079D01*
X6017682Y-12492079D02*
X6027206Y-12473031D01*
X6027206Y-12473031D02*
X6036729Y-12463508D01*
X6036729Y-12463508D02*
X6055777Y-12453984D01*
X6198634Y-12453984D02*
X6198634Y-12492079D01*
X6274825Y-12453984D02*
X6274825Y-12492079D01*
X6570063Y-12730174D02*
X6560539Y-12720650D01*
X6560539Y-12720650D02*
X6541491Y-12692079D01*
X6541491Y-12692079D02*
X6531968Y-12673031D01*
X6531968Y-12673031D02*
X6522444Y-12644460D01*
X6522444Y-12644460D02*
X6512920Y-12596841D01*
X6512920Y-12596841D02*
X6512920Y-12558746D01*
X6512920Y-12558746D02*
X6522444Y-12511127D01*
X6522444Y-12511127D02*
X6531968Y-12482555D01*
X6531968Y-12482555D02*
X6541491Y-12463508D01*
X6541491Y-12463508D02*
X6560539Y-12434936D01*
X6560539Y-12434936D02*
X6570063Y-12425412D01*
X6731968Y-12453984D02*
X6693872Y-12453984D01*
X6693872Y-12453984D02*
X6674825Y-12463508D01*
X6674825Y-12463508D02*
X6665301Y-12473031D01*
X6665301Y-12473031D02*
X6646253Y-12501603D01*
X6646253Y-12501603D02*
X6636729Y-12539698D01*
X6636729Y-12539698D02*
X6636729Y-12615888D01*
X6636729Y-12615888D02*
X6646253Y-12634936D01*
X6646253Y-12634936D02*
X6655777Y-12644460D01*
X6655777Y-12644460D02*
X6674825Y-12653984D01*
X6674825Y-12653984D02*
X6712920Y-12653984D01*
X6712920Y-12653984D02*
X6731968Y-12644460D01*
X6731968Y-12644460D02*
X6741491Y-12634936D01*
X6741491Y-12634936D02*
X6751015Y-12615888D01*
X6751015Y-12615888D02*
X6751015Y-12568269D01*
X6751015Y-12568269D02*
X6741491Y-12549222D01*
X6741491Y-12549222D02*
X6731968Y-12539698D01*
X6731968Y-12539698D02*
X6712920Y-12530174D01*
X6712920Y-12530174D02*
X6674825Y-12530174D01*
X6674825Y-12530174D02*
X6655777Y-12539698D01*
X6655777Y-12539698D02*
X6646253Y-12549222D01*
X6646253Y-12549222D02*
X6636729Y-12568269D01*
X6989110Y-12653984D02*
X6989110Y-12453984D01*
X7074825Y-12653984D02*
X7074825Y-12549222D01*
X7074825Y-12549222D02*
X7065301Y-12530174D01*
X7065301Y-12530174D02*
X7046253Y-12520650D01*
X7046253Y-12520650D02*
X7017682Y-12520650D01*
X7017682Y-12520650D02*
X6998634Y-12530174D01*
X6998634Y-12530174D02*
X6989110Y-12539698D01*
X7198634Y-12653984D02*
X7179587Y-12644460D01*
X7179587Y-12644460D02*
X7170063Y-12634936D01*
X7170063Y-12634936D02*
X7160539Y-12615888D01*
X7160539Y-12615888D02*
X7160539Y-12558746D01*
X7160539Y-12558746D02*
X7170063Y-12539698D01*
X7170063Y-12539698D02*
X7179587Y-12530174D01*
X7179587Y-12530174D02*
X7198634Y-12520650D01*
X7198634Y-12520650D02*
X7227206Y-12520650D01*
X7227206Y-12520650D02*
X7246253Y-12530174D01*
X7246253Y-12530174D02*
X7255777Y-12539698D01*
X7255777Y-12539698D02*
X7265301Y-12558746D01*
X7265301Y-12558746D02*
X7265301Y-12615888D01*
X7265301Y-12615888D02*
X7255777Y-12634936D01*
X7255777Y-12634936D02*
X7246253Y-12644460D01*
X7246253Y-12644460D02*
X7227206Y-12653984D01*
X7227206Y-12653984D02*
X7198634Y-12653984D01*
X7379587Y-12653984D02*
X7360539Y-12644460D01*
X7360539Y-12644460D02*
X7351015Y-12625412D01*
X7351015Y-12625412D02*
X7351015Y-12453984D01*
X7531968Y-12644460D02*
X7512920Y-12653984D01*
X7512920Y-12653984D02*
X7474825Y-12653984D01*
X7474825Y-12653984D02*
X7455777Y-12644460D01*
X7455777Y-12644460D02*
X7446253Y-12625412D01*
X7446253Y-12625412D02*
X7446253Y-12549222D01*
X7446253Y-12549222D02*
X7455777Y-12530174D01*
X7455777Y-12530174D02*
X7474825Y-12520650D01*
X7474825Y-12520650D02*
X7512920Y-12520650D01*
X7512920Y-12520650D02*
X7531968Y-12530174D01*
X7531968Y-12530174D02*
X7541491Y-12549222D01*
X7541491Y-12549222D02*
X7541491Y-12568269D01*
X7541491Y-12568269D02*
X7446253Y-12587317D01*
X7617682Y-12644460D02*
X7636730Y-12653984D01*
X7636730Y-12653984D02*
X7674825Y-12653984D01*
X7674825Y-12653984D02*
X7693872Y-12644460D01*
X7693872Y-12644460D02*
X7703396Y-12625412D01*
X7703396Y-12625412D02*
X7703396Y-12615888D01*
X7703396Y-12615888D02*
X7693872Y-12596841D01*
X7693872Y-12596841D02*
X7674825Y-12587317D01*
X7674825Y-12587317D02*
X7646253Y-12587317D01*
X7646253Y-12587317D02*
X7627206Y-12577793D01*
X7627206Y-12577793D02*
X7617682Y-12558746D01*
X7617682Y-12558746D02*
X7617682Y-12549222D01*
X7617682Y-12549222D02*
X7627206Y-12530174D01*
X7627206Y-12530174D02*
X7646253Y-12520650D01*
X7646253Y-12520650D02*
X7674825Y-12520650D01*
X7674825Y-12520650D02*
X7693872Y-12530174D01*
X7770063Y-12730174D02*
X7779587Y-12720650D01*
X7779587Y-12720650D02*
X7798634Y-12692079D01*
X7798634Y-12692079D02*
X7808158Y-12673031D01*
X7808158Y-12673031D02*
X7817682Y-12644460D01*
X7817682Y-12644460D02*
X7827206Y-12596841D01*
X7827206Y-12596841D02*
X7827206Y-12558746D01*
X7827206Y-12558746D02*
X7817682Y-12511127D01*
X7817682Y-12511127D02*
X7808158Y-12482555D01*
X7808158Y-12482555D02*
X7798634Y-12463508D01*
X7798634Y-12463508D02*
X7779587Y-12434936D01*
X7779587Y-12434936D02*
X7770063Y-12425412D01*
M02*
