G04*
G04 #@! TF.GenerationSoftware,Altium Limited,Altium Designer,26.5.1 (12)*
G04*
G04 Layer_Color=32896*
G04 Board_Origin=43191543|373848902*
%FSLAX44Y44*%
%MOMM*%
G71*
G04*
G04 #@! TF.SameCoordinates,B701C1AE-6192-4D81-B682-5187BBF0BD92*
G04*
G04*
G04 #@! TF.FilePolarity,Positive*
G04*
G01*
G75*
%ADD10C,0.2540*%
G36*
X1944672Y20796D02*
X1945097Y20721D01*
X1945497Y20621D01*
X1945871Y20521D01*
X1946171Y20421D01*
X1946421Y20321D01*
X1946521Y20271D01*
X1946596Y20246D01*
X1946621Y20221D01*
X1946646D01*
Y17996D01*
X1946221Y18171D01*
X1945871Y18321D01*
X1945547Y18421D01*
X1945271Y18471D01*
X1945072Y18521D01*
X1944922Y18546D01*
X1944797D01*
X1944447Y18521D01*
X1944147Y18421D01*
X1943872Y18296D01*
X1943647Y18171D01*
X1943472Y18021D01*
X1943322Y17896D01*
X1943247Y17796D01*
X1943222Y17772D01*
X1943022Y17471D01*
X1942872Y17147D01*
X1942772Y16797D01*
X1942697Y16472D01*
X1942647Y16197D01*
X1942622Y15947D01*
Y15797D01*
Y15772D01*
Y15747D01*
Y15347D01*
X1942672Y14922D01*
X1942797Y14047D01*
X1943022Y13148D01*
X1943297Y12198D01*
X1943647Y11248D01*
X1943997Y10298D01*
X1944397Y9374D01*
X1944797Y8474D01*
X1945222Y7624D01*
X1945621Y6849D01*
X1945971Y6124D01*
X1946146Y5824D01*
X1946321Y5525D01*
X1946471Y5250D01*
X1946596Y5025D01*
X1946696Y4825D01*
X1946796Y4650D01*
X1946896Y4500D01*
X1946946Y4400D01*
X1946971Y4350D01*
X1946996Y4325D01*
Y4000D01*
X1940073D01*
Y6124D01*
X1943972D01*
X1943622Y6799D01*
X1943297Y7449D01*
X1942997Y8074D01*
X1942722Y8649D01*
X1942497Y9174D01*
X1942272Y9649D01*
X1942072Y10098D01*
X1941897Y10498D01*
X1941723Y10873D01*
X1941597Y11173D01*
X1941497Y11448D01*
X1941398Y11673D01*
X1941323Y11848D01*
X1941273Y11973D01*
X1941248Y12048D01*
Y12073D01*
X1940973Y12873D01*
X1940773Y13648D01*
X1940623Y14322D01*
X1940573Y14647D01*
X1940523Y14947D01*
X1940498Y15197D01*
X1940473Y15447D01*
X1940448Y15647D01*
X1940423Y15822D01*
Y15972D01*
Y16072D01*
Y16122D01*
Y16147D01*
X1940473Y16922D01*
X1940573Y17596D01*
X1940748Y18196D01*
X1940848Y18446D01*
X1940923Y18671D01*
X1941023Y18871D01*
X1941123Y19071D01*
X1941198Y19221D01*
X1941298Y19346D01*
X1941348Y19446D01*
X1941398Y19521D01*
X1941447Y19546D01*
Y19571D01*
X1941647Y19796D01*
X1941872Y19996D01*
X1942097Y20146D01*
X1942322Y20296D01*
X1942772Y20521D01*
X1943222Y20671D01*
X1943622Y20746D01*
X1943797Y20796D01*
X1943947D01*
X1944072Y20821D01*
X1944247D01*
X1944672Y20796D01*
D02*
G37*
G36*
X1873765D02*
X1874190Y20721D01*
X1874590Y20621D01*
X1874965Y20521D01*
X1875264Y20421D01*
X1875514Y20321D01*
X1875614Y20271D01*
X1875689Y20246D01*
X1875714Y20221D01*
X1875739D01*
Y17996D01*
X1875314Y18171D01*
X1874965Y18321D01*
X1874640Y18421D01*
X1874365Y18471D01*
X1874165Y18521D01*
X1874015Y18546D01*
X1873890D01*
X1873540Y18521D01*
X1873240Y18421D01*
X1872965Y18296D01*
X1872740Y18171D01*
X1872565Y18021D01*
X1872415Y17896D01*
X1872340Y17796D01*
X1872315Y17772D01*
X1872115Y17471D01*
X1871965Y17147D01*
X1871865Y16797D01*
X1871790Y16472D01*
X1871740Y16197D01*
X1871715Y15947D01*
Y15797D01*
Y15772D01*
Y15747D01*
Y15347D01*
X1871765Y14922D01*
X1871890Y14047D01*
X1872115Y13148D01*
X1872390Y12198D01*
X1872740Y11248D01*
X1873090Y10298D01*
X1873490Y9374D01*
X1873890Y8474D01*
X1874315Y7624D01*
X1874715Y6849D01*
X1875065Y6124D01*
X1875240Y5824D01*
X1875414Y5525D01*
X1875564Y5250D01*
X1875689Y5025D01*
X1875789Y4825D01*
X1875889Y4650D01*
X1875989Y4500D01*
X1876039Y4400D01*
X1876064Y4350D01*
X1876089Y4325D01*
Y4000D01*
X1869166D01*
Y6124D01*
X1873065D01*
X1872715Y6799D01*
X1872390Y7449D01*
X1872090Y8074D01*
X1871815Y8649D01*
X1871590Y9174D01*
X1871366Y9649D01*
X1871165Y10098D01*
X1870991Y10498D01*
X1870816Y10873D01*
X1870691Y11173D01*
X1870591Y11448D01*
X1870491Y11673D01*
X1870416Y11848D01*
X1870366Y11973D01*
X1870341Y12048D01*
Y12073D01*
X1870066Y12873D01*
X1869866Y13648D01*
X1869716Y14322D01*
X1869666Y14647D01*
X1869616Y14947D01*
X1869591Y15197D01*
X1869566Y15447D01*
X1869541Y15647D01*
X1869516Y15822D01*
Y15972D01*
Y16072D01*
Y16122D01*
Y16147D01*
X1869566Y16922D01*
X1869666Y17596D01*
X1869841Y18196D01*
X1869941Y18446D01*
X1870016Y18671D01*
X1870116Y18871D01*
X1870216Y19071D01*
X1870291Y19221D01*
X1870391Y19346D01*
X1870441Y19446D01*
X1870491Y19521D01*
X1870541Y19546D01*
Y19571D01*
X1870741Y19796D01*
X1870966Y19996D01*
X1871190Y20146D01*
X1871416Y20296D01*
X1871865Y20521D01*
X1872315Y20671D01*
X1872715Y20746D01*
X1872890Y20796D01*
X1873040D01*
X1873165Y20821D01*
X1873340D01*
X1873765Y20796D01*
D02*
G37*
G36*
X2008330Y12848D02*
X2011255Y4000D01*
X2009005D01*
X2007106Y10223D01*
X2007056D01*
X2005106Y4000D01*
X2002832D01*
X2005781Y12848D01*
X2003257Y20646D01*
X2005531D01*
X2007056Y15097D01*
X2007106D01*
X2008580Y20646D01*
X2010830D01*
X2008330Y12848D01*
D02*
G37*
G36*
X1988760Y4000D02*
X1986661D01*
X1986811Y16022D01*
X1986736Y16072D01*
X1984662Y10598D01*
X1984262D01*
X1982187Y16072D01*
X1982112Y16022D01*
X1982237Y4000D01*
X1980138D01*
Y20646D01*
X1981987D01*
X1984462Y14522D01*
X1986936Y20646D01*
X1988760D01*
Y4000D01*
D02*
G37*
G36*
X1919878Y4000D02*
X1917754D01*
Y11323D01*
X1914554D01*
Y4000D01*
X1912430D01*
Y20646D01*
X1914554D01*
Y13323D01*
X1917754D01*
Y20646D01*
X1919878D01*
Y4000D01*
D02*
G37*
G36*
X2020377Y4000D02*
X2018428D01*
Y14347D01*
X2018403Y14372D01*
X2014654Y4000D01*
X2012929D01*
Y20646D01*
X2014879D01*
Y10373D01*
X2014929Y10298D01*
X2018678Y20646D01*
X2020377D01*
Y4000D01*
D02*
G37*
G36*
X1895209Y3775D02*
X1893735D01*
X1890661Y20646D01*
X1892910D01*
X1894460Y9424D01*
X1896009Y20646D01*
X1898259D01*
X1895209Y3775D01*
D02*
G37*
G36*
X1973814Y20846D02*
X1974189Y20771D01*
X1974539Y20671D01*
X1974864Y20521D01*
X1975164Y20346D01*
X1975439Y20146D01*
X1975689Y19946D01*
X1975914Y19721D01*
X1976114Y19496D01*
X1976289Y19296D01*
X1976439Y19096D01*
X1976564Y18921D01*
X1976664Y18796D01*
X1976738Y18671D01*
X1976763Y18596D01*
X1976788Y18571D01*
X1976988Y18121D01*
X1977163Y17646D01*
X1977463Y16622D01*
X1977663Y15547D01*
X1977738Y15047D01*
X1977788Y14547D01*
X1977838Y14072D01*
X1977888Y13623D01*
X1977913Y13223D01*
Y12898D01*
X1977938Y12623D01*
Y12398D01*
Y12273D01*
Y12223D01*
X1977913Y11473D01*
X1977888Y10773D01*
X1977838Y10123D01*
X1977763Y9524D01*
X1977663Y8974D01*
X1977563Y8449D01*
X1977463Y7974D01*
X1977363Y7549D01*
X1977263Y7174D01*
X1977163Y6849D01*
X1977063Y6574D01*
X1976963Y6349D01*
X1976888Y6174D01*
X1976839Y6050D01*
X1976788Y5975D01*
Y5950D01*
X1976564Y5575D01*
X1976314Y5225D01*
X1976039Y4950D01*
X1975764Y4700D01*
X1975489Y4475D01*
X1975214Y4300D01*
X1974939Y4175D01*
X1974689Y4050D01*
X1974439Y3950D01*
X1974214Y3900D01*
X1973989Y3850D01*
X1973814Y3800D01*
X1973664D01*
X1973564Y3775D01*
X1973464D01*
X1972964Y3825D01*
X1972515Y3925D01*
X1972065Y4075D01*
X1971690Y4250D01*
X1971365Y4400D01*
X1971115Y4550D01*
X1971040Y4625D01*
X1970965Y4650D01*
X1970940Y4700D01*
X1970915D01*
Y6974D01*
X1971165Y6774D01*
X1971390Y6574D01*
X1971840Y6274D01*
X1972215Y6075D01*
X1972565Y5925D01*
X1972814Y5849D01*
X1973014Y5800D01*
X1973139Y5775D01*
X1973189D01*
X1973439Y5800D01*
X1973664Y5849D01*
X1973864Y5925D01*
X1974064Y6025D01*
X1974389Y6249D01*
X1974664Y6549D01*
X1974864Y6824D01*
X1975014Y7074D01*
X1975039Y7149D01*
X1975089Y7224D01*
X1975114Y7274D01*
Y7299D01*
X1975214Y7599D01*
X1975314Y7949D01*
X1975389Y8324D01*
X1975439Y8724D01*
X1975539Y9549D01*
X1975614Y10373D01*
X1975639Y10773D01*
X1975664Y11148D01*
Y11473D01*
X1975689Y11748D01*
Y11998D01*
Y12173D01*
Y12273D01*
Y12323D01*
Y12948D01*
X1975664Y13548D01*
X1975639Y14097D01*
X1975589Y14597D01*
X1975564Y15047D01*
X1975514Y15447D01*
X1975464Y15822D01*
X1975389Y16147D01*
X1975339Y16422D01*
X1975289Y16672D01*
X1975239Y16897D01*
X1975214Y17047D01*
X1975164Y17172D01*
X1975139Y17272D01*
X1975114Y17322D01*
Y17347D01*
X1974989Y17622D01*
X1974864Y17846D01*
X1974739Y18046D01*
X1974589Y18221D01*
X1974439Y18371D01*
X1974264Y18496D01*
X1973964Y18671D01*
X1973689Y18796D01*
X1973464Y18846D01*
X1973314Y18871D01*
X1973264D01*
X1972865Y18821D01*
X1972465Y18721D01*
X1972115Y18546D01*
X1971790Y18371D01*
X1971515Y18171D01*
X1971290Y17996D01*
X1971165Y17896D01*
X1971115Y17846D01*
Y19996D01*
X1971590Y20296D01*
X1972015Y20496D01*
X1972390Y20646D01*
X1972740Y20771D01*
X1973014Y20821D01*
X1973239Y20846D01*
X1973364Y20871D01*
X1973414D01*
X1973814Y20846D01*
D02*
G37*
G36*
X1969090Y8099D02*
X1969041Y7424D01*
X1968916Y6799D01*
X1968766Y6274D01*
X1968566Y5825D01*
X1968366Y5450D01*
X1968291Y5325D01*
X1968216Y5200D01*
X1968141Y5100D01*
X1968091Y5025D01*
X1968041Y5000D01*
Y4975D01*
X1967841Y4775D01*
X1967616Y4575D01*
X1967191Y4275D01*
X1966741Y4075D01*
X1966316Y3925D01*
X1965941Y3850D01*
X1965666Y3800D01*
X1965541Y3775D01*
X1965391D01*
X1965116Y3800D01*
X1964841Y3825D01*
X1964342Y3950D01*
X1963917Y4150D01*
X1963517Y4350D01*
X1963217Y4550D01*
X1962992Y4750D01*
X1962842Y4875D01*
X1962792Y4925D01*
X1962592Y5150D01*
X1962417Y5400D01*
X1962142Y5925D01*
X1961942Y6499D01*
X1961817Y7024D01*
X1961717Y7524D01*
X1961692Y7724D01*
Y7924D01*
X1961667Y8074D01*
Y8174D01*
Y8249D01*
Y8274D01*
Y20646D01*
X1963817D01*
Y8024D01*
X1963842Y7649D01*
X1963892Y7299D01*
X1963967Y7024D01*
X1964042Y6774D01*
X1964117Y6599D01*
X1964192Y6449D01*
X1964242Y6374D01*
X1964267Y6349D01*
X1964442Y6150D01*
X1964617Y6025D01*
X1964816Y5925D01*
X1964991Y5849D01*
X1965141Y5800D01*
X1965266Y5775D01*
X1965391D01*
X1965666Y5800D01*
X1965891Y5875D01*
X1966116Y6000D01*
X1966291Y6150D01*
X1966441Y6324D01*
X1966566Y6524D01*
X1966741Y6949D01*
X1966866Y7374D01*
X1966891Y7574D01*
X1966916Y7749D01*
X1966941Y7899D01*
Y8024D01*
Y8099D01*
Y8124D01*
Y20646D01*
X1969090D01*
Y8099D01*
D02*
G37*
G36*
X1924727Y20846D02*
X1925102Y20771D01*
X1925452Y20671D01*
X1925777Y20521D01*
X1926077Y20346D01*
X1926351Y20146D01*
X1926601Y19946D01*
X1926826Y19721D01*
X1927026Y19496D01*
X1927201Y19296D01*
X1927351Y19096D01*
X1927476Y18921D01*
X1927576Y18796D01*
X1927651Y18671D01*
X1927676Y18596D01*
X1927701Y18571D01*
X1927901Y18121D01*
X1928076Y17646D01*
X1928376Y16622D01*
X1928576Y15547D01*
X1928651Y15047D01*
X1928701Y14547D01*
X1928751Y14072D01*
X1928801Y13622D01*
X1928826Y13223D01*
Y12898D01*
X1928851Y12623D01*
Y12398D01*
Y12273D01*
Y12223D01*
X1928826Y11473D01*
X1928801Y10773D01*
X1928751Y10123D01*
X1928676Y9524D01*
X1928576Y8974D01*
X1928476Y8449D01*
X1928376Y7974D01*
X1928276Y7549D01*
X1928176Y7174D01*
X1928076Y6849D01*
X1927976Y6574D01*
X1927876Y6349D01*
X1927801Y6174D01*
X1927751Y6050D01*
X1927701Y5975D01*
Y5950D01*
X1927476Y5575D01*
X1927226Y5225D01*
X1926951Y4950D01*
X1926676Y4700D01*
X1926401Y4475D01*
X1926126Y4300D01*
X1925851Y4175D01*
X1925602Y4050D01*
X1925352Y3950D01*
X1925127Y3900D01*
X1924902Y3850D01*
X1924727Y3800D01*
X1924577D01*
X1924477Y3775D01*
X1924377D01*
X1923877Y3825D01*
X1923427Y3925D01*
X1922977Y4075D01*
X1922602Y4250D01*
X1922277Y4400D01*
X1922027Y4550D01*
X1921953Y4625D01*
X1921877Y4650D01*
X1921853Y4700D01*
X1921828D01*
Y6974D01*
X1922077Y6774D01*
X1922302Y6574D01*
X1922752Y6274D01*
X1923127Y6075D01*
X1923477Y5925D01*
X1923727Y5849D01*
X1923927Y5799D01*
X1924052Y5774D01*
X1924102D01*
X1924352Y5799D01*
X1924577Y5849D01*
X1924777Y5925D01*
X1924977Y6025D01*
X1925302Y6249D01*
X1925577Y6549D01*
X1925777Y6824D01*
X1925927Y7074D01*
X1925952Y7149D01*
X1926001Y7224D01*
X1926026Y7274D01*
Y7299D01*
X1926126Y7599D01*
X1926226Y7949D01*
X1926301Y8324D01*
X1926351Y8724D01*
X1926451Y9549D01*
X1926526Y10373D01*
X1926551Y10773D01*
X1926576Y11148D01*
Y11473D01*
X1926601Y11748D01*
Y11998D01*
Y12173D01*
Y12273D01*
Y12323D01*
Y12948D01*
X1926576Y13548D01*
X1926551Y14097D01*
X1926501Y14597D01*
X1926476Y15047D01*
X1926426Y15447D01*
X1926376Y15822D01*
X1926301Y16147D01*
X1926251Y16422D01*
X1926201Y16672D01*
X1926151Y16897D01*
X1926126Y17047D01*
X1926077Y17172D01*
X1926051Y17272D01*
X1926026Y17322D01*
Y17347D01*
X1925901Y17622D01*
X1925777Y17846D01*
X1925652Y18046D01*
X1925502Y18221D01*
X1925352Y18371D01*
X1925177Y18496D01*
X1924877Y18671D01*
X1924602Y18796D01*
X1924377Y18846D01*
X1924227Y18871D01*
X1924177D01*
X1923777Y18821D01*
X1923377Y18721D01*
X1923027Y18546D01*
X1922702Y18371D01*
X1922427Y18171D01*
X1922202Y17996D01*
X1922077Y17896D01*
X1922027Y17846D01*
Y19996D01*
X1922502Y20296D01*
X1922927Y20496D01*
X1923302Y20646D01*
X1923652Y20771D01*
X1923927Y20821D01*
X1924152Y20846D01*
X1924277Y20871D01*
X1924327D01*
X1924727Y20846D01*
D02*
G37*
G36*
X2029200Y4000D02*
X2027051D01*
Y20646D01*
X2029200D01*
Y4000D01*
D02*
G37*
G36*
X2026976Y12423D02*
X2024001Y4000D01*
X2021777D01*
X2025076Y12723D01*
X2022427Y20646D01*
X2024626D01*
X2026976Y12423D01*
D02*
G37*
G36*
X1938073Y10498D02*
Y8574D01*
X1933725D01*
Y4000D01*
X1931575D01*
Y8574D01*
X1930650D01*
Y10098D01*
X1931575D01*
Y20821D01*
X1933600D01*
X1938073Y10498D01*
D02*
G37*
G36*
X1886962Y4000D02*
X1884812D01*
Y20646D01*
X1886962D01*
Y4000D01*
D02*
G37*
G36*
X1879338Y6499D02*
X1879513Y6449D01*
X1879688Y6399D01*
X1879813Y6324D01*
X1879938Y6224D01*
X1880013Y6174D01*
X1880063Y6124D01*
X1880088Y6100D01*
X1880213Y5950D01*
X1880313Y5774D01*
X1880388Y5625D01*
X1880438Y5475D01*
X1880463Y5350D01*
X1880488Y5250D01*
Y5175D01*
Y5150D01*
X1880463Y4950D01*
X1880413Y4750D01*
X1880363Y4600D01*
X1880288Y4450D01*
X1880213Y4325D01*
X1880138Y4250D01*
X1880113Y4200D01*
X1880088Y4175D01*
X1879938Y4050D01*
X1879763Y3950D01*
X1879613Y3875D01*
X1879463Y3825D01*
X1879338Y3800D01*
X1879238Y3775D01*
X1879138D01*
X1878938Y3800D01*
X1878739Y3850D01*
X1878589Y3900D01*
X1878439Y3975D01*
X1878314Y4050D01*
X1878239Y4125D01*
X1878189Y4150D01*
X1878164Y4175D01*
X1878039Y4325D01*
X1877939Y4500D01*
X1877864Y4650D01*
X1877814Y4825D01*
X1877789Y4950D01*
X1877764Y5050D01*
Y5125D01*
Y5150D01*
X1877789Y5350D01*
X1877814Y5525D01*
X1877889Y5700D01*
X1877964Y5824D01*
X1878039Y5950D01*
X1878089Y6025D01*
X1878139Y6075D01*
X1878164Y6100D01*
X1878314Y6249D01*
X1878489Y6349D01*
X1878639Y6424D01*
X1878789Y6474D01*
X1878938Y6499D01*
X1879039Y6524D01*
X1879138D01*
X1879338Y6499D01*
D02*
G37*
G36*
X2002782Y901D02*
X1990035D01*
Y2125D01*
X2002782D01*
Y901D01*
D02*
G37*
G36*
X1960468D02*
X1947721Y901D01*
Y2125D01*
X1960468Y2125D01*
Y901D01*
D02*
G37*
G36*
X1911105Y901D02*
X1898359D01*
Y2125D01*
X1911105D01*
Y901D01*
D02*
G37*
G36*
X1920650Y-803D02*
X1920934Y-853D01*
X1921200Y-919D01*
X1921450Y-986D01*
X1921650Y-1053D01*
X1921817Y-1119D01*
X1921884Y-1153D01*
X1921933Y-1169D01*
X1921950Y-1186D01*
X1921967D01*
Y-2669D01*
X1921684Y-2552D01*
X1921450Y-2452D01*
X1921234Y-2386D01*
X1921050Y-2352D01*
X1920917Y-2319D01*
X1920817Y-2303D01*
X1920734D01*
X1920500Y-2319D01*
X1920301Y-2386D01*
X1920117Y-2469D01*
X1919967Y-2552D01*
X1919851Y-2652D01*
X1919751Y-2736D01*
X1919701Y-2802D01*
X1919684Y-2819D01*
X1919551Y-3019D01*
X1919451Y-3236D01*
X1919384Y-3469D01*
X1919334Y-3685D01*
X1919301Y-3869D01*
X1919284Y-4035D01*
Y-4135D01*
Y-4152D01*
Y-4169D01*
Y-4435D01*
X1919317Y-4719D01*
X1919401Y-5302D01*
X1919551Y-5901D01*
X1919734Y-6535D01*
X1919967Y-7168D01*
X1920201Y-7801D01*
X1920467Y-8418D01*
X1920734Y-9017D01*
X1921017Y-9584D01*
X1921284Y-10101D01*
X1921517Y-10584D01*
X1921633Y-10784D01*
X1921750Y-10984D01*
X1921850Y-11167D01*
X1921933Y-11317D01*
X1922000Y-11450D01*
X1922067Y-11567D01*
X1922133Y-11667D01*
X1922167Y-11733D01*
X1922183Y-11767D01*
X1922200Y-11783D01*
Y-12000D01*
X1917585D01*
Y-10584D01*
X1920184D01*
X1919951Y-10134D01*
X1919734Y-9701D01*
X1919534Y-9284D01*
X1919351Y-8901D01*
X1919201Y-8551D01*
X1919051Y-8234D01*
X1918918Y-7934D01*
X1918801Y-7668D01*
X1918684Y-7418D01*
X1918601Y-7218D01*
X1918534Y-7035D01*
X1918468Y-6885D01*
X1918418Y-6768D01*
X1918384Y-6685D01*
X1918368Y-6635D01*
Y-6618D01*
X1918184Y-6085D01*
X1918051Y-5568D01*
X1917951Y-5118D01*
X1917918Y-4902D01*
X1917885Y-4702D01*
X1917868Y-4535D01*
X1917851Y-4369D01*
X1917834Y-4235D01*
X1917818Y-4119D01*
Y-4019D01*
Y-3952D01*
Y-3919D01*
Y-3902D01*
X1917851Y-3386D01*
X1917918Y-2936D01*
X1918035Y-2536D01*
X1918101Y-2369D01*
X1918151Y-2219D01*
X1918218Y-2086D01*
X1918284Y-1953D01*
X1918334Y-1853D01*
X1918401Y-1769D01*
X1918434Y-1703D01*
X1918468Y-1653D01*
X1918501Y-1636D01*
Y-1619D01*
X1918634Y-1469D01*
X1918784Y-1336D01*
X1918934Y-1236D01*
X1919084Y-1136D01*
X1919384Y-986D01*
X1919684Y-886D01*
X1919951Y-836D01*
X1920067Y-803D01*
X1920167D01*
X1920251Y-786D01*
X1920367D01*
X1920650Y-803D01*
D02*
G37*
G36*
X1890525D02*
X1890808Y-853D01*
X1891075Y-919D01*
X1891325Y-986D01*
X1891525Y-1053D01*
X1891691Y-1119D01*
X1891758Y-1153D01*
X1891808Y-1169D01*
X1891824Y-1186D01*
X1891841D01*
Y-2669D01*
X1891558Y-2552D01*
X1891325Y-2452D01*
X1891108Y-2386D01*
X1890925Y-2352D01*
X1890791Y-2319D01*
X1890692Y-2303D01*
X1890608D01*
X1890375Y-2319D01*
X1890175Y-2386D01*
X1889992Y-2469D01*
X1889842Y-2552D01*
X1889725Y-2652D01*
X1889625Y-2736D01*
X1889575Y-2802D01*
X1889558Y-2819D01*
X1889425Y-3019D01*
X1889325Y-3236D01*
X1889259Y-3469D01*
X1889209Y-3685D01*
X1889175Y-3869D01*
X1889158Y-4035D01*
Y-4135D01*
Y-4152D01*
Y-4169D01*
Y-4435D01*
X1889192Y-4719D01*
X1889275Y-5302D01*
X1889425Y-5901D01*
X1889608Y-6535D01*
X1889842Y-7168D01*
X1890075Y-7801D01*
X1890342Y-8418D01*
X1890608Y-9017D01*
X1890891Y-9584D01*
X1891158Y-10101D01*
X1891391Y-10584D01*
X1891508Y-10784D01*
X1891625Y-10984D01*
X1891725Y-11167D01*
X1891808Y-11317D01*
X1891875Y-11450D01*
X1891941Y-11567D01*
X1892008Y-11667D01*
X1892041Y-11733D01*
X1892058Y-11767D01*
X1892074Y-11783D01*
Y-12000D01*
X1887459D01*
Y-10584D01*
X1890058D01*
X1889825Y-10134D01*
X1889608Y-9701D01*
X1889409Y-9284D01*
X1889225Y-8901D01*
X1889075Y-8551D01*
X1888925Y-8234D01*
X1888792Y-7934D01*
X1888675Y-7668D01*
X1888559Y-7418D01*
X1888475Y-7218D01*
X1888409Y-7035D01*
X1888342Y-6885D01*
X1888292Y-6768D01*
X1888259Y-6685D01*
X1888242Y-6635D01*
Y-6618D01*
X1888059Y-6085D01*
X1887926Y-5568D01*
X1887825Y-5118D01*
X1887792Y-4902D01*
X1887759Y-4702D01*
X1887742Y-4535D01*
X1887726Y-4369D01*
X1887709Y-4235D01*
X1887692Y-4119D01*
Y-4019D01*
Y-3952D01*
Y-3919D01*
Y-3902D01*
X1887726Y-3386D01*
X1887792Y-2936D01*
X1887909Y-2536D01*
X1887975Y-2369D01*
X1888026Y-2219D01*
X1888092Y-2086D01*
X1888159Y-1953D01*
X1888209Y-1853D01*
X1888275Y-1769D01*
X1888309Y-1703D01*
X1888342Y-1653D01*
X1888375Y-1636D01*
Y-1619D01*
X1888509Y-1469D01*
X1888659Y-1336D01*
X1888809Y-1236D01*
X1888959Y-1136D01*
X1889259Y-986D01*
X1889558Y-886D01*
X1889825Y-836D01*
X1889942Y-803D01*
X1890042D01*
X1890125Y-786D01*
X1890242D01*
X1890525Y-803D01*
D02*
G37*
G36*
X1878395D02*
X1878678Y-853D01*
X1878945Y-919D01*
X1879194Y-986D01*
X1879394Y-1053D01*
X1879561Y-1119D01*
X1879628Y-1153D01*
X1879678Y-1169D01*
X1879694Y-1186D01*
X1879711D01*
Y-2669D01*
X1879428Y-2552D01*
X1879194Y-2452D01*
X1878978Y-2386D01*
X1878795Y-2352D01*
X1878661Y-2319D01*
X1878561Y-2303D01*
X1878478D01*
X1878245Y-2319D01*
X1878045Y-2386D01*
X1877861Y-2469D01*
X1877711Y-2552D01*
X1877595Y-2652D01*
X1877495Y-2736D01*
X1877445Y-2802D01*
X1877428Y-2819D01*
X1877295Y-3019D01*
X1877195Y-3236D01*
X1877128Y-3469D01*
X1877078Y-3685D01*
X1877045Y-3869D01*
X1877028Y-4035D01*
Y-4135D01*
Y-4152D01*
Y-4169D01*
Y-4435D01*
X1877062Y-4719D01*
X1877145Y-5302D01*
X1877295Y-5901D01*
X1877478Y-6535D01*
X1877711Y-7168D01*
X1877945Y-7801D01*
X1878211Y-8418D01*
X1878478Y-9017D01*
X1878761Y-9584D01*
X1879028Y-10101D01*
X1879261Y-10584D01*
X1879378Y-10784D01*
X1879494Y-10984D01*
X1879594Y-11167D01*
X1879678Y-11317D01*
X1879744Y-11450D01*
X1879811Y-11567D01*
X1879878Y-11667D01*
X1879911Y-11733D01*
X1879928Y-11767D01*
X1879944Y-11783D01*
Y-12000D01*
X1875329D01*
Y-10584D01*
X1877928D01*
X1877695Y-10134D01*
X1877478Y-9701D01*
X1877278Y-9284D01*
X1877095Y-8901D01*
X1876945Y-8551D01*
X1876795Y-8234D01*
X1876662Y-7934D01*
X1876545Y-7668D01*
X1876429Y-7418D01*
X1876345Y-7218D01*
X1876279Y-7035D01*
X1876212Y-6885D01*
X1876162Y-6768D01*
X1876129Y-6685D01*
X1876112Y-6635D01*
Y-6618D01*
X1875929Y-6085D01*
X1875795Y-5568D01*
X1875695Y-5118D01*
X1875662Y-4902D01*
X1875629Y-4702D01*
X1875612Y-4535D01*
X1875595Y-4369D01*
X1875579Y-4235D01*
X1875562Y-4119D01*
Y-4019D01*
Y-3952D01*
Y-3919D01*
Y-3902D01*
X1875595Y-3386D01*
X1875662Y-2936D01*
X1875779Y-2536D01*
X1875845Y-2369D01*
X1875895Y-2219D01*
X1875962Y-2086D01*
X1876029Y-1953D01*
X1876078Y-1853D01*
X1876145Y-1769D01*
X1876178Y-1703D01*
X1876212Y-1653D01*
X1876245Y-1636D01*
Y-1619D01*
X1876378Y-1469D01*
X1876528Y-1336D01*
X1876678Y-1236D01*
X1876828Y-1136D01*
X1877128Y-986D01*
X1877428Y-886D01*
X1877695Y-836D01*
X1877811Y-803D01*
X1877911D01*
X1877995Y-786D01*
X1878111D01*
X1878395Y-803D01*
D02*
G37*
G36*
X1872629Y-4252D02*
X1872813Y-4635D01*
X1872963Y-5035D01*
X1873096Y-5418D01*
X1873213Y-5802D01*
X1873296Y-6168D01*
X1873379Y-6535D01*
X1873446Y-6868D01*
X1873496Y-7185D01*
X1873546Y-7484D01*
X1873579Y-7751D01*
X1873596Y-7984D01*
X1873613Y-8184D01*
X1873629Y-8351D01*
Y-8468D01*
Y-8534D01*
Y-8568D01*
Y-8884D01*
X1873596Y-9184D01*
X1873562Y-9467D01*
X1873529Y-9734D01*
X1873479Y-9984D01*
X1873429Y-10200D01*
X1873363Y-10400D01*
X1873296Y-10584D01*
X1873246Y-10734D01*
X1873179Y-10884D01*
X1873129Y-11000D01*
X1873079Y-11100D01*
X1873046Y-11167D01*
X1873013Y-11217D01*
X1872979Y-11250D01*
Y-11267D01*
X1872846Y-11434D01*
X1872729Y-11567D01*
X1872596Y-11700D01*
X1872446Y-11800D01*
X1872180Y-11967D01*
X1871930Y-12083D01*
X1871696Y-12150D01*
X1871530Y-12183D01*
X1871463Y-12200D01*
X1871363D01*
X1871180Y-12183D01*
X1871013Y-12150D01*
X1870847Y-12100D01*
X1870680Y-12033D01*
X1870397Y-11867D01*
X1870163Y-11683D01*
X1869963Y-11500D01*
X1869814Y-11334D01*
X1869763Y-11267D01*
X1869730Y-11217D01*
X1869697Y-11184D01*
Y-11167D01*
X1869464Y-10767D01*
X1869297Y-10334D01*
X1869180Y-9901D01*
X1869097Y-9484D01*
X1869064Y-9301D01*
X1869047Y-9134D01*
X1869030Y-8967D01*
Y-8834D01*
X1869014Y-8734D01*
Y-8651D01*
Y-8601D01*
Y-8584D01*
X1869030Y-8034D01*
X1869097Y-7551D01*
X1869147Y-7334D01*
X1869197Y-7135D01*
X1869247Y-6951D01*
X1869297Y-6768D01*
X1869364Y-6618D01*
X1869414Y-6501D01*
X1869464Y-6385D01*
X1869497Y-6285D01*
X1869547Y-6218D01*
X1869563Y-6168D01*
X1869597Y-6135D01*
Y-6118D01*
X1869713Y-5951D01*
X1869830Y-5802D01*
X1869947Y-5685D01*
X1870063Y-5585D01*
X1870313Y-5418D01*
X1870563Y-5302D01*
X1870763Y-5235D01*
X1870947Y-5202D01*
X1871013Y-5185D01*
X1871096D01*
X1871296Y-5202D01*
X1871496Y-5235D01*
X1871580Y-5252D01*
X1871630Y-5268D01*
X1871680Y-5285D01*
X1871696D01*
X1869563Y-903D01*
X1870997D01*
X1872629Y-4252D01*
D02*
G37*
G36*
X1909303Y-10334D02*
X1909420Y-10367D01*
X1909537Y-10400D01*
X1909620Y-10450D01*
X1909703Y-10517D01*
X1909753Y-10550D01*
X1909787Y-10584D01*
X1909803Y-10600D01*
X1909887Y-10700D01*
X1909953Y-10817D01*
X1910003Y-10917D01*
X1910036Y-11017D01*
X1910053Y-11100D01*
X1910070Y-11167D01*
Y-11217D01*
Y-11234D01*
X1910053Y-11367D01*
X1910020Y-11500D01*
X1909987Y-11600D01*
X1909937Y-11700D01*
X1909887Y-11783D01*
X1909837Y-11833D01*
X1909820Y-11867D01*
X1909803Y-11883D01*
X1909703Y-11967D01*
X1909587Y-12033D01*
X1909487Y-12083D01*
X1909387Y-12117D01*
X1909303Y-12133D01*
X1909237Y-12150D01*
X1909170D01*
X1909037Y-12133D01*
X1908904Y-12100D01*
X1908804Y-12067D01*
X1908703Y-12017D01*
X1908620Y-11967D01*
X1908570Y-11917D01*
X1908537Y-11900D01*
X1908520Y-11883D01*
X1908437Y-11783D01*
X1908370Y-11667D01*
X1908320Y-11567D01*
X1908287Y-11450D01*
X1908270Y-11367D01*
X1908254Y-11300D01*
Y-11250D01*
Y-11234D01*
X1908270Y-11100D01*
X1908287Y-10984D01*
X1908337Y-10867D01*
X1908387Y-10784D01*
X1908437Y-10700D01*
X1908470Y-10650D01*
X1908504Y-10617D01*
X1908520Y-10600D01*
X1908620Y-10500D01*
X1908737Y-10434D01*
X1908837Y-10384D01*
X1908937Y-10350D01*
X1909037Y-10334D01*
X1909103Y-10317D01*
X1909170D01*
X1909303Y-10334D01*
D02*
G37*
G36*
X1894241D02*
X1894357Y-10367D01*
X1894474Y-10400D01*
X1894557Y-10450D01*
X1894641Y-10517D01*
X1894690Y-10550D01*
X1894724Y-10584D01*
X1894740Y-10600D01*
X1894824Y-10700D01*
X1894890Y-10817D01*
X1894940Y-10917D01*
X1894974Y-11017D01*
X1894990Y-11100D01*
X1895007Y-11167D01*
Y-11217D01*
Y-11234D01*
X1894990Y-11367D01*
X1894957Y-11500D01*
X1894924Y-11600D01*
X1894874Y-11700D01*
X1894824Y-11783D01*
X1894774Y-11833D01*
X1894757Y-11867D01*
X1894740Y-11883D01*
X1894641Y-11967D01*
X1894524Y-12033D01*
X1894424Y-12083D01*
X1894324Y-12117D01*
X1894241Y-12133D01*
X1894174Y-12150D01*
X1894107D01*
X1893974Y-12133D01*
X1893841Y-12100D01*
X1893741Y-12067D01*
X1893641Y-12017D01*
X1893557Y-11967D01*
X1893507Y-11917D01*
X1893474Y-11900D01*
X1893457Y-11883D01*
X1893374Y-11783D01*
X1893307Y-11667D01*
X1893257Y-11567D01*
X1893224Y-11450D01*
X1893208Y-11367D01*
X1893191Y-11300D01*
Y-11250D01*
Y-11234D01*
X1893208Y-11100D01*
X1893224Y-10984D01*
X1893274Y-10867D01*
X1893324Y-10784D01*
X1893374Y-10700D01*
X1893407Y-10650D01*
X1893441Y-10617D01*
X1893457Y-10600D01*
X1893557Y-10500D01*
X1893674Y-10434D01*
X1893774Y-10384D01*
X1893874Y-10350D01*
X1893974Y-10334D01*
X1894041Y-10317D01*
X1894107D01*
X1894241Y-10334D01*
D02*
G37*
G36*
X1915935Y-2202D02*
X1913136D01*
X1915069Y-11900D01*
X1913702Y-12200D01*
X1911403Y-903D01*
X1915935D01*
Y-2202D01*
D02*
G37*
G36*
X1904921Y-803D02*
X1905121Y-853D01*
X1905321Y-919D01*
X1905488Y-1036D01*
X1905654Y-1153D01*
X1905804Y-1319D01*
X1905954Y-1486D01*
X1906087Y-1686D01*
X1906204Y-1886D01*
X1906321Y-2119D01*
X1906504Y-2586D01*
X1906671Y-3102D01*
X1906787Y-3636D01*
X1906887Y-4169D01*
X1906954Y-4685D01*
X1907021Y-5168D01*
X1907037Y-5402D01*
X1907054Y-5602D01*
Y-5802D01*
X1907071Y-5968D01*
Y-6118D01*
X1907087Y-6251D01*
Y-6351D01*
Y-6435D01*
Y-6485D01*
Y-6501D01*
Y-7035D01*
X1907071Y-7518D01*
X1907037Y-7968D01*
X1907004Y-8401D01*
X1906954Y-8784D01*
X1906904Y-9134D01*
X1906854Y-9451D01*
X1906804Y-9734D01*
X1906754Y-9984D01*
X1906704Y-10200D01*
X1906654Y-10384D01*
X1906604Y-10534D01*
X1906571Y-10650D01*
X1906537Y-10734D01*
X1906521Y-10784D01*
Y-10800D01*
X1906404Y-11050D01*
X1906271Y-11267D01*
X1906138Y-11450D01*
X1905988Y-11617D01*
X1905838Y-11750D01*
X1905688Y-11850D01*
X1905538Y-11950D01*
X1905388Y-12017D01*
X1905121Y-12133D01*
X1905004Y-12150D01*
X1904904Y-12183D01*
X1904821D01*
X1904754Y-12200D01*
X1904704D01*
X1904471Y-12183D01*
X1904255Y-12133D01*
X1904055Y-12067D01*
X1903871Y-11983D01*
X1903555Y-11750D01*
X1903305Y-11483D01*
X1903105Y-11234D01*
X1902955Y-11000D01*
X1902922Y-10917D01*
X1902888Y-10850D01*
X1902855Y-10800D01*
Y-10784D01*
X1902755Y-10500D01*
X1902655Y-10200D01*
X1902588Y-9867D01*
X1902522Y-9517D01*
X1902422Y-8801D01*
X1902339Y-8118D01*
X1902322Y-7784D01*
X1902305Y-7484D01*
X1902289Y-7201D01*
Y-6968D01*
X1902272Y-6768D01*
Y-6635D01*
Y-6535D01*
Y-6501D01*
Y-5968D01*
X1902305Y-5468D01*
X1902322Y-5002D01*
X1902372Y-4568D01*
X1902405Y-4185D01*
X1902455Y-3819D01*
X1902522Y-3502D01*
X1902572Y-3219D01*
X1902622Y-2969D01*
X1902688Y-2752D01*
X1902738Y-2569D01*
X1902772Y-2436D01*
X1902822Y-2319D01*
X1902838Y-2236D01*
X1902872Y-2186D01*
Y-2169D01*
X1902988Y-1919D01*
X1903122Y-1719D01*
X1903255Y-1519D01*
X1903405Y-1369D01*
X1903555Y-1236D01*
X1903721Y-1119D01*
X1903871Y-1036D01*
X1904005Y-953D01*
X1904288Y-853D01*
X1904405Y-836D01*
X1904505Y-803D01*
X1904588D01*
X1904655Y-786D01*
X1904704D01*
X1904921Y-803D01*
D02*
G37*
G36*
X1900872Y-2202D02*
X1898073D01*
X1900006Y-11900D01*
X1898639Y-12200D01*
X1896340Y-903D01*
X1900872D01*
Y-2202D01*
D02*
G37*
G36*
X1883793Y-803D02*
X1883993Y-853D01*
X1884193Y-919D01*
X1884360Y-1036D01*
X1884526Y-1153D01*
X1884676Y-1319D01*
X1884826Y-1486D01*
X1884960Y-1686D01*
X1885076Y-1886D01*
X1885193Y-2119D01*
X1885376Y-2586D01*
X1885543Y-3102D01*
X1885659Y-3636D01*
X1885759Y-4169D01*
X1885826Y-4685D01*
X1885893Y-5168D01*
X1885909Y-5402D01*
X1885926Y-5602D01*
Y-5802D01*
X1885943Y-5968D01*
Y-6118D01*
X1885959Y-6251D01*
Y-6351D01*
Y-6435D01*
Y-6485D01*
Y-6501D01*
Y-7035D01*
X1885943Y-7518D01*
X1885909Y-7968D01*
X1885876Y-8401D01*
X1885826Y-8784D01*
X1885776Y-9134D01*
X1885726Y-9451D01*
X1885676Y-9734D01*
X1885626Y-9984D01*
X1885576Y-10200D01*
X1885526Y-10384D01*
X1885476Y-10534D01*
X1885443Y-10650D01*
X1885410Y-10734D01*
X1885393Y-10784D01*
Y-10800D01*
X1885276Y-11050D01*
X1885143Y-11267D01*
X1885010Y-11450D01*
X1884860Y-11617D01*
X1884710Y-11750D01*
X1884560Y-11850D01*
X1884410Y-11950D01*
X1884260Y-12017D01*
X1883993Y-12133D01*
X1883876Y-12150D01*
X1883777Y-12183D01*
X1883693D01*
X1883627Y-12200D01*
X1883577D01*
X1883343Y-12183D01*
X1883127Y-12133D01*
X1882927Y-12067D01*
X1882744Y-11983D01*
X1882427Y-11750D01*
X1882177Y-11483D01*
X1881977Y-11234D01*
X1881827Y-11000D01*
X1881794Y-10917D01*
X1881760Y-10850D01*
X1881727Y-10800D01*
Y-10784D01*
X1881627Y-10500D01*
X1881527Y-10200D01*
X1881461Y-9867D01*
X1881394Y-9517D01*
X1881294Y-8801D01*
X1881211Y-8118D01*
X1881194Y-7784D01*
X1881177Y-7484D01*
X1881161Y-7201D01*
Y-6968D01*
X1881144Y-6768D01*
Y-6635D01*
Y-6535D01*
Y-6501D01*
Y-5968D01*
X1881177Y-5468D01*
X1881194Y-5002D01*
X1881244Y-4568D01*
X1881277Y-4185D01*
X1881327Y-3819D01*
X1881394Y-3502D01*
X1881444Y-3219D01*
X1881494Y-2969D01*
X1881561Y-2752D01*
X1881611Y-2569D01*
X1881644Y-2436D01*
X1881694Y-2319D01*
X1881710Y-2236D01*
X1881744Y-2186D01*
Y-2169D01*
X1881860Y-1919D01*
X1881994Y-1719D01*
X1882127Y-1519D01*
X1882277Y-1369D01*
X1882427Y-1236D01*
X1882594Y-1119D01*
X1882744Y-1036D01*
X1882877Y-953D01*
X1883160Y-853D01*
X1883277Y-836D01*
X1883377Y-803D01*
X1883460D01*
X1883527Y-786D01*
X1883577D01*
X1883793Y-803D01*
D02*
G37*
G36*
X26735Y-235039D02*
Y-236080D01*
X25386Y-235689D01*
Y-240063D01*
X24011D01*
Y-234139D01*
X24136D01*
X26735Y-235039D01*
D02*
G37*
G36*
X29293Y-238205D02*
X29302Y-238347D01*
X29318Y-238472D01*
X29343Y-238580D01*
X29368Y-238663D01*
X29402Y-238738D01*
X29427Y-238788D01*
X29443Y-238822D01*
X29451Y-238830D01*
X29518Y-238905D01*
X29593Y-238955D01*
X29668Y-238996D01*
X29743Y-239021D01*
X29810Y-239038D01*
X29860Y-239046D01*
X29910D01*
X30026Y-239038D01*
X30118Y-239021D01*
X30201Y-238988D01*
X30268Y-238955D01*
X30318Y-238930D01*
X30351Y-238897D01*
X30368Y-238880D01*
X30376Y-238871D01*
X30426Y-238797D01*
X30460Y-238705D01*
X30485Y-238605D01*
X30501Y-238505D01*
X30510Y-238422D01*
X30518Y-238347D01*
Y-238297D01*
Y-238288D01*
Y-238280D01*
X31951D01*
X31943Y-238438D01*
X31926Y-238597D01*
X31901Y-238738D01*
X31868Y-238871D01*
X31826Y-238996D01*
X31784Y-239113D01*
X31734Y-239213D01*
X31684Y-239305D01*
X31634Y-239388D01*
X31584Y-239463D01*
X31543Y-239521D01*
X31501Y-239571D01*
X31468Y-239613D01*
X31443Y-239638D01*
X31426Y-239655D01*
X31418Y-239663D01*
X31309Y-239746D01*
X31201Y-239821D01*
X31076Y-239888D01*
X30951Y-239938D01*
X30826Y-239988D01*
X30701Y-240030D01*
X30460Y-240088D01*
X30351Y-240105D01*
X30243Y-240121D01*
X30151Y-240130D01*
X30068Y-240138D01*
X30001Y-240146D01*
X29910D01*
X29693Y-240138D01*
X29502Y-240105D01*
X29318Y-240071D01*
X29168Y-240021D01*
X29035Y-239979D01*
X28985Y-239963D01*
X28943Y-239938D01*
X28910Y-239930D01*
X28885Y-239913D01*
X28868Y-239904D01*
X28860D01*
X28693Y-239805D01*
X28552Y-239696D01*
X28427Y-239580D01*
X28319Y-239471D01*
X28244Y-239371D01*
X28185Y-239296D01*
X28160Y-239263D01*
X28143Y-239238D01*
X28135Y-239230D01*
Y-239221D01*
X28043Y-239046D01*
X27977Y-238871D01*
X27935Y-238705D01*
X27902Y-238547D01*
X27885Y-238405D01*
X27877Y-238347D01*
X27869Y-238297D01*
Y-238263D01*
Y-238230D01*
Y-238213D01*
Y-238205D01*
Y-234139D01*
X29293D01*
Y-238205D01*
D02*
G37*
G36*
X20362Y-234064D02*
X20537Y-234081D01*
X20695Y-234114D01*
X20837Y-234156D01*
X20979Y-234206D01*
X21104Y-234264D01*
X21212Y-234323D01*
X21320Y-234381D01*
X21412Y-234448D01*
X21487Y-234506D01*
X21553Y-234564D01*
X21612Y-234614D01*
X21653Y-234656D01*
X21687Y-234689D01*
X21704Y-234706D01*
X21712Y-234714D01*
X21804Y-234839D01*
X21887Y-234981D01*
X21962Y-235122D01*
X22020Y-235281D01*
X22070Y-235431D01*
X22112Y-235581D01*
X22178Y-235881D01*
X22203Y-236022D01*
X22220Y-236147D01*
X22228Y-236264D01*
X22237Y-236364D01*
X22245Y-236447D01*
Y-236514D01*
Y-236547D01*
Y-236564D01*
Y-237647D01*
X22237Y-237863D01*
X22220Y-238072D01*
X22195Y-238263D01*
X22162Y-238438D01*
X22120Y-238605D01*
X22070Y-238755D01*
X22028Y-238897D01*
X21970Y-239021D01*
X21920Y-239130D01*
X21878Y-239221D01*
X21828Y-239305D01*
X21787Y-239371D01*
X21753Y-239430D01*
X21728Y-239463D01*
X21712Y-239488D01*
X21704Y-239496D01*
X21595Y-239613D01*
X21479Y-239713D01*
X21362Y-239796D01*
X21237Y-239871D01*
X21112Y-239938D01*
X20987Y-239988D01*
X20862Y-240030D01*
X20737Y-240063D01*
X20620Y-240088D01*
X20521Y-240113D01*
X20420Y-240130D01*
X20337Y-240138D01*
X20271D01*
X20220Y-240146D01*
X20179D01*
X19996Y-240138D01*
X19829Y-240121D01*
X19671Y-240088D01*
X19529Y-240046D01*
X19387Y-239996D01*
X19262Y-239938D01*
X19154Y-239880D01*
X19046Y-239821D01*
X18954Y-239763D01*
X18879Y-239705D01*
X18813Y-239646D01*
X18754Y-239596D01*
X18713Y-239555D01*
X18679Y-239521D01*
X18663Y-239505D01*
X18654Y-239496D01*
X18563Y-239371D01*
X18479Y-239230D01*
X18404Y-239088D01*
X18338Y-238930D01*
X18288Y-238780D01*
X18246Y-238622D01*
X18179Y-238330D01*
X18154Y-238188D01*
X18138Y-238063D01*
X18129Y-237947D01*
X18121Y-237847D01*
X18113Y-237763D01*
Y-237697D01*
Y-237663D01*
Y-237647D01*
Y-236564D01*
X18121Y-236347D01*
X18138Y-236139D01*
X18163Y-235947D01*
X18196Y-235772D01*
X18238Y-235606D01*
X18288Y-235456D01*
X18329Y-235314D01*
X18379Y-235189D01*
X18438Y-235081D01*
X18479Y-234989D01*
X18529Y-234906D01*
X18571Y-234839D01*
X18604Y-234781D01*
X18629Y-234748D01*
X18646Y-234722D01*
X18654Y-234714D01*
X18763Y-234598D01*
X18879Y-234498D01*
X18996Y-234406D01*
X19121Y-234331D01*
X19246Y-234273D01*
X19379Y-234214D01*
X19504Y-234173D01*
X19621Y-234139D01*
X19737Y-234114D01*
X19846Y-234089D01*
X19937Y-234073D01*
X20021Y-234064D01*
X20096Y-234056D01*
X20187D01*
X20362Y-234064D01*
D02*
G37*
G36*
X2006544Y-237464D02*
X2006736Y-237498D01*
X2006919Y-237548D01*
X2007077Y-237598D01*
X2007202Y-237656D01*
X2007261Y-237681D01*
X2007302Y-237698D01*
X2007336Y-237723D01*
X2007361Y-237731D01*
X2007377Y-237748D01*
X2007386D01*
X2007552Y-237864D01*
X2007702Y-237989D01*
X2007827Y-238114D01*
X2007936Y-238239D01*
X2008019Y-238356D01*
X2008077Y-238439D01*
X2008102Y-238472D01*
X2008111Y-238498D01*
X2008127Y-238514D01*
Y-238522D01*
X2008219Y-238706D01*
X2008277Y-238889D01*
X2008327Y-239064D01*
X2008360Y-239231D01*
X2008377Y-239364D01*
X2008385Y-239422D01*
Y-239472D01*
X2008394Y-239514D01*
Y-239547D01*
Y-239564D01*
Y-239572D01*
X2008385Y-239739D01*
X2008377Y-239897D01*
X2008352Y-240047D01*
X2008319Y-240189D01*
X2008286Y-240314D01*
X2008244Y-240439D01*
X2008202Y-240547D01*
X2008161Y-240647D01*
X2008119Y-240730D01*
X2008077Y-240814D01*
X2008036Y-240880D01*
X2008002Y-240930D01*
X2007969Y-240972D01*
X2007944Y-241005D01*
X2007936Y-241022D01*
X2007927Y-241030D01*
X2007836Y-241122D01*
X2007736Y-241205D01*
X2007636Y-241280D01*
X2007527Y-241347D01*
X2007419Y-241397D01*
X2007311Y-241438D01*
X2007111Y-241505D01*
X2007011Y-241530D01*
X2006927Y-241547D01*
X2006844Y-241555D01*
X2006778Y-241563D01*
X2006719Y-241572D01*
X2006644D01*
X2006544Y-241563D01*
X2006444Y-241555D01*
X2006261Y-241513D01*
X2006086Y-241447D01*
X2005945Y-241372D01*
X2005820Y-241305D01*
X2005770Y-241272D01*
X2005728Y-241238D01*
X2005694Y-241213D01*
X2005670Y-241197D01*
X2005661Y-241180D01*
X2005653D01*
X2005694Y-241388D01*
X2005770Y-241580D01*
X2005853Y-241738D01*
X2005969Y-241880D01*
X2006086Y-242005D01*
X2006219Y-242105D01*
X2006361Y-242197D01*
X2006503Y-242263D01*
X2006636Y-242321D01*
X2006769Y-242363D01*
X2006894Y-242397D01*
X2007003Y-242413D01*
X2007094Y-242430D01*
X2007169Y-242438D01*
X2007211Y-242446D01*
X2007486D01*
Y-243546D01*
X2007402D01*
X2007227Y-243538D01*
X2007061Y-243529D01*
X2006894Y-243513D01*
X2006744Y-243488D01*
X2006594Y-243454D01*
X2006461Y-243421D01*
X2006336Y-243388D01*
X2006219Y-243355D01*
X2006111Y-243321D01*
X2006019Y-243288D01*
X2005936Y-243255D01*
X2005869Y-243221D01*
X2005820Y-243196D01*
X2005778Y-243180D01*
X2005753Y-243163D01*
X2005744D01*
X2005495Y-243005D01*
X2005270Y-242830D01*
X2005078Y-242646D01*
X2005003Y-242555D01*
X2004928Y-242471D01*
X2004861Y-242388D01*
X2004803Y-242313D01*
X2004753Y-242238D01*
X2004711Y-242180D01*
X2004686Y-242130D01*
X2004661Y-242097D01*
X2004653Y-242072D01*
X2004645Y-242063D01*
X2004578Y-241922D01*
X2004520Y-241780D01*
X2004420Y-241488D01*
X2004353Y-241205D01*
X2004328Y-241063D01*
X2004312Y-240938D01*
X2004295Y-240814D01*
X2004278Y-240705D01*
X2004270Y-240605D01*
Y-240522D01*
X2004261Y-240447D01*
Y-240397D01*
Y-240364D01*
Y-240355D01*
Y-239830D01*
X2004278Y-239572D01*
X2004312Y-239339D01*
X2004353Y-239131D01*
X2004403Y-238947D01*
X2004428Y-238864D01*
X2004453Y-238797D01*
X2004478Y-238739D01*
X2004495Y-238681D01*
X2004512Y-238647D01*
X2004528Y-238614D01*
X2004536Y-238597D01*
Y-238589D01*
X2004645Y-238398D01*
X2004761Y-238231D01*
X2004878Y-238089D01*
X2005003Y-237973D01*
X2005103Y-237873D01*
X2005195Y-237806D01*
X2005228Y-237789D01*
X2005245Y-237773D01*
X2005261Y-237756D01*
X2005270D01*
X2005453Y-237656D01*
X2005636Y-237581D01*
X2005811Y-237531D01*
X2005978Y-237489D01*
X2006119Y-237473D01*
X2006178Y-237464D01*
X2006228D01*
X2006269Y-237456D01*
X2006328D01*
X2006544Y-237464D01*
D02*
G37*
G36*
X2010593Y-241605D02*
X2010602Y-241747D01*
X2010618Y-241872D01*
X2010643Y-241980D01*
X2010668Y-242063D01*
X2010702Y-242138D01*
X2010727Y-242188D01*
X2010743Y-242222D01*
X2010752Y-242230D01*
X2010818Y-242305D01*
X2010893Y-242355D01*
X2010968Y-242397D01*
X2011043Y-242421D01*
X2011110Y-242438D01*
X2011160Y-242446D01*
X2011210D01*
X2011326Y-242438D01*
X2011418Y-242421D01*
X2011501Y-242388D01*
X2011568Y-242355D01*
X2011618Y-242330D01*
X2011651Y-242297D01*
X2011668Y-242280D01*
X2011676Y-242271D01*
X2011726Y-242197D01*
X2011760Y-242105D01*
X2011785Y-242005D01*
X2011801Y-241905D01*
X2011810Y-241822D01*
X2011818Y-241747D01*
Y-241697D01*
Y-241688D01*
Y-241680D01*
X2013251D01*
X2013243Y-241838D01*
X2013226Y-241997D01*
X2013201Y-242138D01*
X2013168Y-242271D01*
X2013126Y-242397D01*
X2013084Y-242513D01*
X2013034Y-242613D01*
X2012984Y-242705D01*
X2012934Y-242788D01*
X2012884Y-242863D01*
X2012843Y-242921D01*
X2012801Y-242971D01*
X2012768Y-243013D01*
X2012743Y-243038D01*
X2012726Y-243055D01*
X2012718Y-243063D01*
X2012609Y-243146D01*
X2012501Y-243221D01*
X2012376Y-243288D01*
X2012251Y-243338D01*
X2012126Y-243388D01*
X2012001Y-243430D01*
X2011760Y-243488D01*
X2011651Y-243505D01*
X2011543Y-243521D01*
X2011451Y-243529D01*
X2011368Y-243538D01*
X2011301Y-243546D01*
X2011210D01*
X2010993Y-243538D01*
X2010802Y-243505D01*
X2010618Y-243471D01*
X2010468Y-243421D01*
X2010335Y-243379D01*
X2010285Y-243363D01*
X2010243Y-243338D01*
X2010210Y-243330D01*
X2010185Y-243313D01*
X2010168Y-243305D01*
X2010160D01*
X2009993Y-243205D01*
X2009852Y-243096D01*
X2009727Y-242980D01*
X2009619Y-242871D01*
X2009543Y-242771D01*
X2009485Y-242696D01*
X2009460Y-242663D01*
X2009444Y-242638D01*
X2009435Y-242630D01*
Y-242621D01*
X2009344Y-242446D01*
X2009277Y-242271D01*
X2009235Y-242105D01*
X2009202Y-241947D01*
X2009185Y-241805D01*
X2009177Y-241747D01*
X2009169Y-241697D01*
Y-241663D01*
Y-241630D01*
Y-241613D01*
Y-241605D01*
Y-237539D01*
X2010593D01*
Y-241605D01*
D02*
G37*
%LPC*%
G36*
X1933775Y16722D02*
X1933725D01*
Y10098D01*
X1936599D01*
X1933775Y16722D01*
D02*
G37*
G36*
X1871380Y-6568D02*
X1871346D01*
X1871196Y-6585D01*
X1871063Y-6651D01*
X1870947Y-6735D01*
X1870847Y-6868D01*
X1870763Y-7001D01*
X1870697Y-7168D01*
X1870580Y-7518D01*
X1870530Y-7868D01*
X1870513Y-8034D01*
X1870497Y-8168D01*
X1870480Y-8284D01*
Y-8384D01*
Y-8451D01*
Y-8468D01*
X1870497Y-8884D01*
X1870513Y-9251D01*
X1870563Y-9551D01*
X1870613Y-9817D01*
X1870680Y-10050D01*
X1870747Y-10250D01*
X1870830Y-10400D01*
X1870896Y-10517D01*
X1870980Y-10617D01*
X1871063Y-10700D01*
X1871130Y-10750D01*
X1871196Y-10784D01*
X1871296Y-10817D01*
X1871330D01*
X1871480Y-10800D01*
X1871596Y-10734D01*
X1871713Y-10617D01*
X1871813Y-10484D01*
X1871896Y-10334D01*
X1871963Y-10150D01*
X1872063Y-9751D01*
X1872113Y-9367D01*
X1872130Y-9184D01*
X1872146Y-9034D01*
X1872163Y-8901D01*
Y-8784D01*
Y-8717D01*
Y-8701D01*
X1872146Y-8318D01*
X1872130Y-8001D01*
X1872080Y-7718D01*
X1872030Y-7468D01*
X1871980Y-7268D01*
X1871896Y-7085D01*
X1871830Y-6951D01*
X1871746Y-6835D01*
X1871680Y-6751D01*
X1871596Y-6685D01*
X1871530Y-6635D01*
X1871480Y-6601D01*
X1871380Y-6568D01*
D02*
G37*
G36*
X1904704Y-2086D02*
X1904688D01*
X1904605Y-2103D01*
X1904521Y-2119D01*
X1904371Y-2236D01*
X1904238Y-2386D01*
X1904138Y-2552D01*
X1904071Y-2719D01*
X1904005Y-2869D01*
X1903988Y-2986D01*
X1903971Y-3002D01*
Y-3019D01*
X1903938Y-3219D01*
X1903888Y-3435D01*
X1903855Y-3685D01*
X1903838Y-3952D01*
X1903788Y-4535D01*
X1903772Y-5118D01*
X1903755Y-5402D01*
Y-5652D01*
X1903738Y-5901D01*
Y-6101D01*
Y-6268D01*
Y-6401D01*
Y-6485D01*
Y-6518D01*
Y-6918D01*
X1903755Y-7285D01*
Y-7634D01*
X1903772Y-7968D01*
X1903805Y-8268D01*
X1903821Y-8551D01*
X1903855Y-8817D01*
X1903888Y-9051D01*
X1903921Y-9267D01*
X1903955Y-9484D01*
X1904005Y-9667D01*
X1904038Y-9834D01*
X1904121Y-10117D01*
X1904205Y-10350D01*
X1904305Y-10534D01*
X1904388Y-10667D01*
X1904471Y-10767D01*
X1904538Y-10834D01*
X1904605Y-10867D01*
X1904655Y-10884D01*
X1904671Y-10900D01*
X1904688D01*
X1904771Y-10884D01*
X1904854Y-10850D01*
X1904921Y-10784D01*
X1904988Y-10717D01*
X1905054Y-10617D01*
X1905121Y-10500D01*
X1905221Y-10217D01*
X1905321Y-9884D01*
X1905388Y-9517D01*
X1905454Y-9117D01*
X1905504Y-8701D01*
X1905538Y-8301D01*
X1905571Y-7901D01*
X1905588Y-7534D01*
X1905604Y-7201D01*
X1905621Y-6918D01*
Y-6801D01*
Y-6701D01*
Y-6618D01*
Y-6568D01*
Y-6535D01*
Y-6518D01*
Y-6018D01*
X1905604Y-5552D01*
Y-5152D01*
X1905588Y-4769D01*
X1905571Y-4435D01*
X1905554Y-4135D01*
X1905521Y-3885D01*
X1905504Y-3652D01*
X1905488Y-3469D01*
X1905454Y-3302D01*
X1905438Y-3169D01*
X1905421Y-3069D01*
X1905404Y-3002D01*
Y-2936D01*
X1905388Y-2919D01*
Y-2902D01*
X1905338Y-2752D01*
X1905288Y-2636D01*
X1905238Y-2519D01*
X1905171Y-2436D01*
X1905071Y-2286D01*
X1904955Y-2186D01*
X1904854Y-2136D01*
X1904771Y-2103D01*
X1904704Y-2086D01*
D02*
G37*
G36*
X1883577D02*
X1883560D01*
X1883477Y-2103D01*
X1883393Y-2119D01*
X1883243Y-2236D01*
X1883110Y-2386D01*
X1883010Y-2552D01*
X1882944Y-2719D01*
X1882877Y-2869D01*
X1882860Y-2986D01*
X1882843Y-3002D01*
Y-3019D01*
X1882810Y-3219D01*
X1882760Y-3435D01*
X1882727Y-3685D01*
X1882710Y-3952D01*
X1882660Y-4535D01*
X1882643Y-5118D01*
X1882627Y-5402D01*
Y-5652D01*
X1882610Y-5901D01*
Y-6101D01*
Y-6268D01*
Y-6401D01*
Y-6485D01*
Y-6518D01*
Y-6918D01*
X1882627Y-7285D01*
Y-7634D01*
X1882643Y-7968D01*
X1882677Y-8268D01*
X1882693Y-8551D01*
X1882727Y-8817D01*
X1882760Y-9051D01*
X1882793Y-9267D01*
X1882827Y-9484D01*
X1882877Y-9667D01*
X1882910Y-9834D01*
X1882993Y-10117D01*
X1883077Y-10350D01*
X1883177Y-10534D01*
X1883260Y-10667D01*
X1883343Y-10767D01*
X1883410Y-10834D01*
X1883477Y-10867D01*
X1883527Y-10884D01*
X1883543Y-10900D01*
X1883560D01*
X1883643Y-10884D01*
X1883727Y-10850D01*
X1883793Y-10784D01*
X1883860Y-10717D01*
X1883927Y-10617D01*
X1883993Y-10500D01*
X1884093Y-10217D01*
X1884193Y-9884D01*
X1884260Y-9517D01*
X1884326Y-9117D01*
X1884376Y-8701D01*
X1884410Y-8301D01*
X1884443Y-7901D01*
X1884460Y-7534D01*
X1884476Y-7201D01*
X1884493Y-6918D01*
Y-6801D01*
Y-6701D01*
Y-6618D01*
Y-6568D01*
Y-6535D01*
Y-6518D01*
Y-6018D01*
X1884476Y-5552D01*
Y-5152D01*
X1884460Y-4769D01*
X1884443Y-4435D01*
X1884426Y-4135D01*
X1884393Y-3885D01*
X1884376Y-3652D01*
X1884360Y-3469D01*
X1884326Y-3302D01*
X1884310Y-3169D01*
X1884293Y-3069D01*
X1884276Y-3002D01*
Y-2936D01*
X1884260Y-2919D01*
Y-2902D01*
X1884210Y-2752D01*
X1884160Y-2636D01*
X1884110Y-2519D01*
X1884043Y-2436D01*
X1883943Y-2286D01*
X1883827Y-2186D01*
X1883727Y-2136D01*
X1883643Y-2103D01*
X1883577Y-2086D01*
D02*
G37*
G36*
X20196Y-235114D02*
X20179D01*
X20054Y-235131D01*
X19946Y-235164D01*
X19854Y-235214D01*
X19779Y-235272D01*
X19729Y-235331D01*
X19687Y-235381D01*
X19662Y-235414D01*
X19654Y-235431D01*
X19596Y-235564D01*
X19554Y-235714D01*
X19529Y-235872D01*
X19504Y-236031D01*
X19496Y-236172D01*
Y-236231D01*
X19487Y-236280D01*
Y-236331D01*
Y-236364D01*
Y-236381D01*
Y-236389D01*
Y-237855D01*
X19496Y-238080D01*
X19512Y-238272D01*
X19546Y-238438D01*
X19571Y-238563D01*
X19604Y-238671D01*
X19637Y-238738D01*
X19654Y-238780D01*
X19662Y-238797D01*
X19729Y-238897D01*
X19812Y-238963D01*
X19896Y-239013D01*
X19979Y-239055D01*
X20054Y-239071D01*
X20112Y-239080D01*
X20154Y-239088D01*
X20171D01*
X20296Y-239071D01*
X20412Y-239038D01*
X20504Y-238996D01*
X20570Y-238938D01*
X20629Y-238880D01*
X20670Y-238838D01*
X20695Y-238805D01*
X20704Y-238788D01*
X20729Y-238730D01*
X20762Y-238655D01*
X20804Y-238505D01*
X20829Y-238347D01*
X20845Y-238188D01*
X20862Y-238038D01*
Y-237980D01*
X20870Y-237922D01*
Y-237880D01*
Y-237838D01*
Y-237822D01*
Y-237813D01*
Y-236297D01*
X20862Y-236089D01*
X20837Y-235906D01*
X20812Y-235756D01*
X20787Y-235631D01*
X20754Y-235539D01*
X20729Y-235472D01*
X20712Y-235431D01*
X20704Y-235414D01*
X20637Y-235314D01*
X20554Y-235239D01*
X20462Y-235189D01*
X20379Y-235147D01*
X20304Y-235131D01*
X20237Y-235122D01*
X20196Y-235114D01*
D02*
G37*
G36*
X2006353Y-238514D02*
X2006336D01*
X2006219Y-238522D01*
X2006119Y-238556D01*
X2006028Y-238597D01*
X2005953Y-238647D01*
X2005894Y-238706D01*
X2005853Y-238747D01*
X2005828Y-238781D01*
X2005820Y-238789D01*
X2005753Y-238906D01*
X2005711Y-239039D01*
X2005678Y-239172D01*
X2005653Y-239314D01*
X2005636Y-239439D01*
X2005628Y-239539D01*
Y-239572D01*
Y-239606D01*
Y-239622D01*
Y-239631D01*
Y-240197D01*
X2005670Y-240264D01*
X2005711Y-240322D01*
X2005811Y-240422D01*
X2005919Y-240489D01*
X2006028Y-240530D01*
X2006128Y-240564D01*
X2006203Y-240572D01*
X2006236Y-240580D01*
X2006278D01*
X2006403Y-240572D01*
X2006503Y-240539D01*
X2006603Y-240497D01*
X2006678Y-240447D01*
X2006736Y-240397D01*
X2006786Y-240355D01*
X2006811Y-240322D01*
X2006819Y-240314D01*
X2006886Y-240205D01*
X2006936Y-240080D01*
X2006969Y-239955D01*
X2006994Y-239839D01*
X2007011Y-239730D01*
X2007019Y-239647D01*
Y-239614D01*
Y-239589D01*
Y-239580D01*
Y-239572D01*
X2007011Y-239414D01*
X2006986Y-239272D01*
X2006961Y-239147D01*
X2006919Y-239039D01*
X2006886Y-238947D01*
X2006861Y-238889D01*
X2006836Y-238847D01*
X2006828Y-238831D01*
X2006753Y-238722D01*
X2006669Y-238647D01*
X2006586Y-238589D01*
X2006503Y-238556D01*
X2006436Y-238531D01*
X2006386Y-238522D01*
X2006353Y-238514D01*
D02*
G37*
%LPD*%
D10*
X1994800Y-351300D02*
Y-337500D01*
Y-351300D02*
X2008600D01*
X1994800Y-324800D02*
X2022400D01*
X1994800D02*
Y-247500D01*
X2022400D01*
Y-324800D02*
Y-247500D01*
X39600Y-324400D02*
Y-247100D01*
X12000D02*
X39600D01*
X12000Y-324400D02*
Y-247100D01*
Y-324400D02*
X39600D01*
X12000Y-350900D02*
X25800D01*
X12000D02*
Y-337100D01*
M02*
