G04*
G04 #@! TF.GenerationSoftware,Altium Limited,Altium Designer,26.5.1 (12)*
G04*
G04 Layer_Color=8388736*
G04 Board_Origin=43191543|373848902*
%FSLAX44Y44*%
%MOMM*%
G71*
G04*
G04 #@! TF.SameCoordinates,B701C1AE-6192-4D81-B682-5187BBF0BD92*
G04*
G04*
G04 #@! TF.FilePolarity,Negative*
G04*
G01*
G75*
%ADD10C,0.2540*%
G04:AMPARAMS|DCode=38|XSize=1mm|YSize=1.05mm|CornerRadius=0.1625mm|HoleSize=0mm|Usage=FLASHONLY|Rotation=180.000|XOffset=0mm|YOffset=0mm|HoleType=Round|Shape=RoundedRectangle|*
%AMROUNDEDRECTD38*
21,1,1.0000,0.7250,0,0,180.0*
21,1,0.6750,1.0500,0,0,180.0*
1,1,0.3250,-0.3375,0.3625*
1,1,0.3250,0.3375,0.3625*
1,1,0.3250,0.3375,-0.3625*
1,1,0.3250,-0.3375,-0.3625*
%
%ADD38ROUNDEDRECTD38*%
G04:AMPARAMS|DCode=39|XSize=1.575mm|YSize=0.5mm|CornerRadius=0.1mm|HoleSize=0mm|Usage=FLASHONLY|Rotation=0.000|XOffset=0mm|YOffset=0mm|HoleType=Round|Shape=RoundedRectangle|*
%AMROUNDEDRECTD39*
21,1,1.5750,0.3000,0,0,0.0*
21,1,1.3750,0.5000,0,0,0.0*
1,1,0.2000,0.6875,-0.1500*
1,1,0.2000,-0.6875,-0.1500*
1,1,0.2000,-0.6875,0.1500*
1,1,0.2000,0.6875,0.1500*
%
%ADD39ROUNDEDRECTD39*%
%ADD40R,1.3000X1.5000*%
G04:AMPARAMS|DCode=41|XSize=1.5mm|YSize=4.3mm|CornerRadius=0.176mm|HoleSize=0mm|Usage=FLASHONLY|Rotation=270.000|XOffset=0mm|YOffset=0mm|HoleType=Round|Shape=RoundedRectangle|*
%AMROUNDEDRECTD41*
21,1,1.5000,3.9480,0,0,270.0*
21,1,1.1480,4.3000,0,0,270.0*
1,1,0.3520,-1.9740,-0.5740*
1,1,0.3520,-1.9740,0.5740*
1,1,0.3520,1.9740,0.5740*
1,1,0.3520,1.9740,-0.5740*
%
%ADD41ROUNDEDRECTD41*%
G04:AMPARAMS|DCode=42|XSize=1.65mm|YSize=0.4mm|CornerRadius=0.0875mm|HoleSize=0mm|Usage=FLASHONLY|Rotation=0.000|XOffset=0mm|YOffset=0mm|HoleType=Round|Shape=RoundedRectangle|*
%AMROUNDEDRECTD42*
21,1,1.6500,0.2250,0,0,0.0*
21,1,1.4750,0.4000,0,0,0.0*
1,1,0.1750,0.7375,-0.1125*
1,1,0.1750,-0.7375,-0.1125*
1,1,0.1750,-0.7375,0.1125*
1,1,0.1750,0.7375,0.1125*
%
%ADD42ROUNDEDRECTD42*%
G04:AMPARAMS|DCode=43|XSize=0.4mm|YSize=1.65mm|CornerRadius=0.0875mm|HoleSize=0mm|Usage=FLASHONLY|Rotation=0.000|XOffset=0mm|YOffset=0mm|HoleType=Round|Shape=RoundedRectangle|*
%AMROUNDEDRECTD43*
21,1,0.4000,1.4750,0,0,0.0*
21,1,0.2250,1.6500,0,0,0.0*
1,1,0.1750,0.1125,-0.7375*
1,1,0.1750,-0.1125,-0.7375*
1,1,0.1750,-0.1125,0.7375*
1,1,0.1750,0.1125,0.7375*
%
%ADD43ROUNDEDRECTD43*%
G04:AMPARAMS|DCode=44|XSize=0.975mm|YSize=1.05mm|CornerRadius=0.1594mm|HoleSize=0mm|Usage=FLASHONLY|Rotation=180.000|XOffset=0mm|YOffset=0mm|HoleType=Round|Shape=RoundedRectangle|*
%AMROUNDEDRECTD44*
21,1,0.9750,0.7313,0,0,180.0*
21,1,0.6563,1.0500,0,0,180.0*
1,1,0.3188,-0.3281,0.3656*
1,1,0.3188,0.3281,0.3656*
1,1,0.3188,0.3281,-0.3656*
1,1,0.3188,-0.3281,-0.3656*
%
%ADD44ROUNDEDRECTD44*%
G04:AMPARAMS|DCode=45|XSize=0.9mm|YSize=1.05mm|CornerRadius=0.15mm|HoleSize=0mm|Usage=FLASHONLY|Rotation=180.000|XOffset=0mm|YOffset=0mm|HoleType=Round|Shape=RoundedRectangle|*
%AMROUNDEDRECTD45*
21,1,0.9000,0.7500,0,0,180.0*
21,1,0.6000,1.0500,0,0,180.0*
1,1,0.3000,-0.3000,0.3750*
1,1,0.3000,0.3000,0.3750*
1,1,0.3000,0.3000,-0.3750*
1,1,0.3000,-0.3000,-0.3750*
%
%ADD45ROUNDEDRECTD45*%
%ADD46C,3.5000*%
G04:AMPARAMS|DCode=47|XSize=1mm|YSize=1.05mm|CornerRadius=0.1625mm|HoleSize=0mm|Usage=FLASHONLY|Rotation=270.000|XOffset=0mm|YOffset=0mm|HoleType=Round|Shape=RoundedRectangle|*
%AMROUNDEDRECTD47*
21,1,1.0000,0.7250,0,0,270.0*
21,1,0.6750,1.0500,0,0,270.0*
1,1,0.3250,-0.3625,-0.3375*
1,1,0.3250,-0.3625,0.3375*
1,1,0.3250,0.3625,0.3375*
1,1,0.3250,0.3625,-0.3375*
%
%ADD47ROUNDEDRECTD47*%
%ADD48R,3.4020X3.4020*%
%ADD49R,0.3540X0.9128*%
%ADD50R,0.9128X0.3540*%
G04:AMPARAMS|DCode=51|XSize=1.125mm|YSize=1.5mm|CornerRadius=0.173mm|HoleSize=0mm|Usage=FLASHONLY|Rotation=90.000|XOffset=0mm|YOffset=0mm|HoleType=Round|Shape=RoundedRectangle|*
%AMROUNDEDRECTD51*
21,1,1.1250,1.1540,0,0,90.0*
21,1,0.7790,1.5000,0,0,90.0*
1,1,0.3460,0.5770,0.3895*
1,1,0.3460,0.5770,-0.3895*
1,1,0.3460,-0.5770,-0.3895*
1,1,0.3460,-0.5770,0.3895*
%
%ADD51ROUNDEDRECTD51*%
G04:AMPARAMS|DCode=52|XSize=1.1mm|YSize=1.55mm|CornerRadius=0.175mm|HoleSize=0mm|Usage=FLASHONLY|Rotation=270.000|XOffset=0mm|YOffset=0mm|HoleType=Round|Shape=RoundedRectangle|*
%AMROUNDEDRECTD52*
21,1,1.1000,1.2000,0,0,270.0*
21,1,0.7500,1.5500,0,0,270.0*
1,1,0.3500,-0.6000,-0.3750*
1,1,0.3500,-0.6000,0.3750*
1,1,0.3500,0.6000,0.3750*
1,1,0.3500,0.6000,-0.3750*
%
%ADD52ROUNDEDRECTD52*%
G04:AMPARAMS|DCode=53|XSize=0.9mm|YSize=1.05mm|CornerRadius=0.15mm|HoleSize=0mm|Usage=FLASHONLY|Rotation=90.000|XOffset=0mm|YOffset=0mm|HoleType=Round|Shape=RoundedRectangle|*
%AMROUNDEDRECTD53*
21,1,0.9000,0.7500,0,0,90.0*
21,1,0.6000,1.0500,0,0,90.0*
1,1,0.3000,0.3750,0.3000*
1,1,0.3000,0.3750,-0.3000*
1,1,0.3000,-0.3750,-0.3000*
1,1,0.3000,-0.3750,0.3000*
%
%ADD53ROUNDEDRECTD53*%
G04:AMPARAMS|DCode=54|XSize=3.6mm|YSize=2.6mm|CornerRadius=0.175mm|HoleSize=0mm|Usage=FLASHONLY|Rotation=90.000|XOffset=0mm|YOffset=0mm|HoleType=Round|Shape=RoundedRectangle|*
%AMROUNDEDRECTD54*
21,1,3.6000,2.2500,0,0,90.0*
21,1,3.2500,2.6000,0,0,90.0*
1,1,0.3500,1.1250,1.6250*
1,1,0.3500,1.1250,-1.6250*
1,1,0.3500,-1.1250,-1.6250*
1,1,0.3500,-1.1250,1.6250*
%
%ADD54ROUNDEDRECTD54*%
G04:AMPARAMS|DCode=55|XSize=1.1mm|YSize=1.55mm|CornerRadius=0.175mm|HoleSize=0mm|Usage=FLASHONLY|Rotation=0.000|XOffset=0mm|YOffset=0mm|HoleType=Round|Shape=RoundedRectangle|*
%AMROUNDEDRECTD55*
21,1,1.1000,1.2000,0,0,0.0*
21,1,0.7500,1.5500,0,0,0.0*
1,1,0.3500,0.3750,-0.6000*
1,1,0.3500,-0.3750,-0.6000*
1,1,0.3500,-0.3750,0.6000*
1,1,0.3500,0.3750,0.6000*
%
%ADD55ROUNDEDRECTD55*%
G04:AMPARAMS|DCode=56|XSize=3.1mm|YSize=1.3mm|CornerRadius=0.17mm|HoleSize=0mm|Usage=FLASHONLY|Rotation=90.000|XOffset=0mm|YOffset=0mm|HoleType=Round|Shape=RoundedRectangle|*
%AMROUNDEDRECTD56*
21,1,3.1000,0.9600,0,0,90.0*
21,1,2.7600,1.3000,0,0,90.0*
1,1,0.3400,0.4800,1.3800*
1,1,0.3400,0.4800,-1.3800*
1,1,0.3400,-0.4800,-1.3800*
1,1,0.3400,-0.4800,1.3800*
%
%ADD56ROUNDEDRECTD56*%
G04:AMPARAMS|DCode=57|XSize=1.8mm|YSize=5.8mm|CornerRadius=0.1775mm|HoleSize=0mm|Usage=FLASHONLY|Rotation=0.000|XOffset=0mm|YOffset=0mm|HoleType=Round|Shape=RoundedRectangle|*
%AMROUNDEDRECTD57*
21,1,1.8000,5.4450,0,0,0.0*
21,1,1.4450,5.8000,0,0,0.0*
1,1,0.3550,0.7225,-2.7225*
1,1,0.3550,-0.7225,-2.7225*
1,1,0.3550,-0.7225,2.7225*
1,1,0.3550,0.7225,2.7225*
%
%ADD57ROUNDEDRECTD57*%
%ADD58R,1.5000X1.7000*%
%ADD59R,1.6000X1.6000*%
%ADD60C,0.8874*%
%ADD61R,0.4000X0.4000*%
G04:AMPARAMS|DCode=62|XSize=1.325mm|YSize=3.45mm|CornerRadius=0.1725mm|HoleSize=0mm|Usage=FLASHONLY|Rotation=270.000|XOffset=0mm|YOffset=0mm|HoleType=Round|Shape=RoundedRectangle|*
%AMROUNDEDRECTD62*
21,1,1.3250,3.1050,0,0,270.0*
21,1,0.9800,3.4500,0,0,270.0*
1,1,0.3450,-1.5525,-0.4900*
1,1,0.3450,-1.5525,0.4900*
1,1,0.3450,1.5525,0.4900*
1,1,0.3450,1.5525,-0.4900*
%
%ADD62ROUNDEDRECTD62*%
%ADD63R,1.5000X1.3000*%
G04:AMPARAMS|DCode=64|XSize=2.6mm|YSize=1.9mm|CornerRadius=0.176mm|HoleSize=0mm|Usage=FLASHONLY|Rotation=270.000|XOffset=0mm|YOffset=0mm|HoleType=Round|Shape=RoundedRectangle|*
%AMROUNDEDRECTD64*
21,1,2.6000,1.5480,0,0,270.0*
21,1,2.2480,1.9000,0,0,270.0*
1,1,0.3520,-0.7740,-1.1240*
1,1,0.3520,-0.7740,1.1240*
1,1,0.3520,0.7740,1.1240*
1,1,0.3520,0.7740,-1.1240*
%
%ADD64ROUNDEDRECTD64*%
G04:AMPARAMS|DCode=65|XSize=2.6mm|YSize=1.9mm|CornerRadius=0.176mm|HoleSize=0mm|Usage=FLASHONLY|Rotation=0.000|XOffset=0mm|YOffset=0mm|HoleType=Round|Shape=RoundedRectangle|*
%AMROUNDEDRECTD65*
21,1,2.6000,1.5480,0,0,0.0*
21,1,2.2480,1.9000,0,0,0.0*
1,1,0.3520,1.1240,-0.7740*
1,1,0.3520,-1.1240,-0.7740*
1,1,0.3520,-1.1240,0.7740*
1,1,0.3520,1.1240,0.7740*
%
%ADD65ROUNDEDRECTD65*%
%ADD66C,3.1000*%
%ADD67R,1.8000X1.8000*%
%ADD68C,1.6000*%
%ADD69C,1.8000*%
%ADD70C,1.0906*%
%ADD71R,1.8000X1.8000*%
%ADD72R,1.9000X1.9000*%
%ADD73C,1.9000*%
%ADD74R,2.9000X2.9000*%
%ADD75C,2.9000*%
G36*
X1321335Y-364070D02*
X1309835D01*
X1314835Y-356570D01*
X1309835Y-349070D01*
X1321335D01*
Y-364070D01*
D02*
G37*
G36*
X1311835Y-356570D02*
X1306835Y-364070D01*
X1296835D01*
Y-349070D01*
X1306835D01*
X1311835Y-356570D01*
D02*
G37*
D10*
X1296835Y-364070D02*
Y-349070D01*
Y-364070D02*
X1321335D01*
Y-349070D01*
X1296835D02*
X1321335D01*
D38*
X723750Y-158125D02*
D03*
X708250D02*
D03*
X708188Y-337363D02*
D03*
X723688D02*
D03*
X722750Y-27125D02*
D03*
X707250D02*
D03*
X1253550Y-232000D02*
D03*
X1736550Y-300000D02*
D03*
X1721050D02*
D03*
X1700550Y-310000D02*
D03*
X1367050Y-374000D02*
D03*
X1382550D02*
D03*
X1330750Y-162125D02*
D03*
X1315250D02*
D03*
X1271550Y-332000D02*
D03*
X1256050D02*
D03*
X1238050Y-232000D02*
D03*
Y-314000D02*
D03*
X1253550D02*
D03*
X1928050Y-129000D02*
D03*
X1943550D02*
D03*
X1301050Y-381000D02*
D03*
X1316550D02*
D03*
X1754765Y-481430D02*
D03*
X1770265D02*
D03*
X1700550Y-328000D02*
D03*
X1685050D02*
D03*
X1330750Y-180125D02*
D03*
X1315250D02*
D03*
X1238050Y-250000D02*
D03*
X1253550D02*
D03*
X1928050Y-364000D02*
D03*
X1943550D02*
D03*
X1685050Y-310000D02*
D03*
X1928050Y-244000D02*
D03*
X1943550D02*
D03*
D39*
X723625Y-354550D02*
D03*
Y-361050D02*
D03*
Y-367550D02*
D03*
Y-374050D02*
D03*
Y-380550D02*
D03*
Y-387050D02*
D03*
Y-393550D02*
D03*
Y-400050D02*
D03*
X666375D02*
D03*
Y-393550D02*
D03*
Y-387050D02*
D03*
Y-380550D02*
D03*
Y-374050D02*
D03*
Y-367550D02*
D03*
Y-361050D02*
D03*
Y-354550D02*
D03*
Y-175375D02*
D03*
Y-181875D02*
D03*
Y-188375D02*
D03*
Y-194875D02*
D03*
Y-201375D02*
D03*
Y-207875D02*
D03*
Y-214375D02*
D03*
Y-220875D02*
D03*
X723625D02*
D03*
Y-214375D02*
D03*
Y-207875D02*
D03*
Y-201375D02*
D03*
Y-194875D02*
D03*
Y-188375D02*
D03*
Y-181875D02*
D03*
Y-175375D02*
D03*
X668375Y-43375D02*
D03*
Y-49875D02*
D03*
Y-56375D02*
D03*
Y-62875D02*
D03*
Y-69375D02*
D03*
Y-88875D02*
D03*
X725625D02*
D03*
Y-82375D02*
D03*
Y-69375D02*
D03*
Y-62875D02*
D03*
Y-56375D02*
D03*
Y-43375D02*
D03*
Y-49875D02*
D03*
X668375Y-75875D02*
D03*
Y-82375D02*
D03*
X725625Y-75875D02*
D03*
D40*
X1253885Y-271020D02*
D03*
X1237885Y-293020D02*
D03*
X1253885D02*
D03*
X1237885Y-271020D02*
D03*
D41*
X1196500Y-305300D02*
D03*
Y-268300D02*
D03*
D42*
X1300185Y-256770D02*
D03*
Y-236770D02*
D03*
Y-241770D02*
D03*
Y-246770D02*
D03*
Y-251770D02*
D03*
Y-261770D02*
D03*
Y-266770D02*
D03*
Y-271770D02*
D03*
Y-276770D02*
D03*
Y-281770D02*
D03*
Y-286770D02*
D03*
Y-291770D02*
D03*
Y-296770D02*
D03*
Y-301770D02*
D03*
Y-306770D02*
D03*
Y-311770D02*
D03*
X1413685D02*
D03*
Y-306770D02*
D03*
Y-301770D02*
D03*
Y-296770D02*
D03*
Y-291770D02*
D03*
Y-286770D02*
D03*
Y-281770D02*
D03*
Y-276770D02*
D03*
Y-271770D02*
D03*
Y-266770D02*
D03*
Y-261770D02*
D03*
Y-256770D02*
D03*
Y-251770D02*
D03*
Y-246770D02*
D03*
Y-241770D02*
D03*
Y-236770D02*
D03*
D43*
X1324435Y-331020D02*
D03*
X1344435D02*
D03*
X1319435D02*
D03*
X1329435D02*
D03*
X1334435D02*
D03*
X1339435D02*
D03*
X1349435D02*
D03*
X1354435D02*
D03*
X1359435D02*
D03*
X1364435D02*
D03*
X1369435D02*
D03*
X1374435D02*
D03*
X1379435D02*
D03*
X1384435D02*
D03*
X1389435D02*
D03*
X1394435D02*
D03*
Y-217520D02*
D03*
X1389435D02*
D03*
X1384435D02*
D03*
X1379435D02*
D03*
X1374435D02*
D03*
X1369435D02*
D03*
X1364435D02*
D03*
X1359435D02*
D03*
X1354435D02*
D03*
X1349435D02*
D03*
X1344435D02*
D03*
X1339435D02*
D03*
X1334435D02*
D03*
X1329435D02*
D03*
X1324435D02*
D03*
X1319435D02*
D03*
D44*
X473800Y-341375D02*
D03*
X489550D02*
D03*
X563925D02*
D03*
X579675D02*
D03*
X113050Y-426875D02*
D03*
X128800D02*
D03*
X203550Y-426500D02*
D03*
X219300D02*
D03*
X293675D02*
D03*
X309425D02*
D03*
X383800D02*
D03*
X399550D02*
D03*
X473925D02*
D03*
X489675D02*
D03*
X564050D02*
D03*
X579800D02*
D03*
X219050Y-256250D02*
D03*
X203300D02*
D03*
X128925D02*
D03*
X113175D02*
D03*
X293425D02*
D03*
X309175D02*
D03*
X309050Y-171125D02*
D03*
X293300D02*
D03*
X128800D02*
D03*
X113050D02*
D03*
X383550Y-256250D02*
D03*
X399300D02*
D03*
X473675D02*
D03*
X489425D02*
D03*
X563800D02*
D03*
X579550D02*
D03*
X113050Y-341625D02*
D03*
X128800D02*
D03*
X203425Y-341375D02*
D03*
X219175D02*
D03*
X293550D02*
D03*
X309300D02*
D03*
X383675D02*
D03*
X399425D02*
D03*
X473550Y-171125D02*
D03*
X489300D02*
D03*
X563675D02*
D03*
X579425D02*
D03*
X203175D02*
D03*
X218925D02*
D03*
X383425D02*
D03*
X399175D02*
D03*
D45*
X473750Y-322000D02*
D03*
X490250D02*
D03*
X563750D02*
D03*
X580250D02*
D03*
X112750Y-407000D02*
D03*
X129250D02*
D03*
X203750Y-406000D02*
D03*
X220250D02*
D03*
X293750D02*
D03*
X310250D02*
D03*
X383750Y-407000D02*
D03*
X400250D02*
D03*
X473750D02*
D03*
X490250D02*
D03*
X563750D02*
D03*
X580250D02*
D03*
X112750Y-322000D02*
D03*
X129250D02*
D03*
X202750D02*
D03*
X219250D02*
D03*
X292750D02*
D03*
X309250D02*
D03*
X129250Y-237000D02*
D03*
X112750D02*
D03*
X219250D02*
D03*
X202750D02*
D03*
X292750D02*
D03*
X112750Y-152000D02*
D03*
X129250D02*
D03*
X309250Y-237000D02*
D03*
X383750D02*
D03*
X400250D02*
D03*
X473750D02*
D03*
X490250D02*
D03*
X563750D02*
D03*
X580250D02*
D03*
X382750Y-322000D02*
D03*
X399250D02*
D03*
X1512050Y-233000D02*
D03*
X1698050Y-292000D02*
D03*
X1512050Y-251000D02*
D03*
Y-269000D02*
D03*
Y-287000D02*
D03*
X1698050Y-273000D02*
D03*
X1366835Y-356570D02*
D03*
X1383335D02*
D03*
X563750Y-152000D02*
D03*
X580250D02*
D03*
X35708Y-194393D02*
D03*
X19208D02*
D03*
X292750Y-152000D02*
D03*
X309250D02*
D03*
X1495550Y-233000D02*
D03*
X1681550Y-292000D02*
D03*
X202750Y-152000D02*
D03*
X219250D02*
D03*
X1383235Y-392570D02*
D03*
X1366735D02*
D03*
X1495550Y-251000D02*
D03*
X472750Y-152000D02*
D03*
X489250D02*
D03*
X1770515Y-500430D02*
D03*
X1754015D02*
D03*
X382750Y-152000D02*
D03*
X399250D02*
D03*
X1495550Y-269000D02*
D03*
X1681550Y-273000D02*
D03*
X1495550Y-287000D02*
D03*
X19408Y-212493D02*
D03*
X35908D02*
D03*
X1344550Y-493000D02*
D03*
X1361050D02*
D03*
D46*
X0Y0D02*
D03*
X2012800Y-601000D02*
D03*
D47*
X1407000Y-167375D02*
D03*
Y-182875D02*
D03*
X1389000Y-167375D02*
D03*
Y-182875D02*
D03*
X1702800Y-355250D02*
D03*
X1580270Y-386265D02*
D03*
X1634800Y-428750D02*
D03*
X1702800Y-370750D02*
D03*
X1682800Y-428750D02*
D03*
X1568800D02*
D03*
Y-413250D02*
D03*
X1682800D02*
D03*
X1457885Y-287620D02*
D03*
Y-272120D02*
D03*
X1439485Y-287320D02*
D03*
Y-271820D02*
D03*
X1634800Y-413250D02*
D03*
X1684800Y-348500D02*
D03*
Y-364000D02*
D03*
X1580270Y-370765D02*
D03*
D48*
X1629970Y-345315D02*
D03*
D49*
X1652470Y-374271D02*
D03*
X1647470D02*
D03*
X1642470D02*
D03*
X1637470D02*
D03*
X1632470D02*
D03*
X1627470D02*
D03*
X1622470D02*
D03*
X1617470D02*
D03*
X1612470D02*
D03*
X1607470D02*
D03*
Y-316359D02*
D03*
X1612470D02*
D03*
X1617470D02*
D03*
X1622470D02*
D03*
X1627470D02*
D03*
X1632470D02*
D03*
X1637470D02*
D03*
X1642470D02*
D03*
X1647470D02*
D03*
X1652470D02*
D03*
D50*
X1601014Y-367815D02*
D03*
Y-362815D02*
D03*
Y-357815D02*
D03*
Y-352815D02*
D03*
Y-347815D02*
D03*
Y-342815D02*
D03*
Y-337815D02*
D03*
Y-332815D02*
D03*
Y-327815D02*
D03*
Y-322815D02*
D03*
X1658926D02*
D03*
Y-327815D02*
D03*
Y-332815D02*
D03*
Y-337815D02*
D03*
Y-342815D02*
D03*
Y-347815D02*
D03*
Y-352815D02*
D03*
Y-357815D02*
D03*
Y-362815D02*
D03*
Y-367815D02*
D03*
D51*
X1694800Y-235875D02*
D03*
X1580800Y-308875D02*
D03*
Y-327125D02*
D03*
X1694800Y-254125D02*
D03*
D52*
Y-217500D02*
D03*
Y-198500D02*
D03*
D53*
X1664770Y-412965D02*
D03*
X1273800Y-206250D02*
D03*
Y-189750D02*
D03*
X1237800Y-206250D02*
D03*
Y-189750D02*
D03*
X1664770Y-429465D02*
D03*
X1255800Y-189750D02*
D03*
Y-206250D02*
D03*
X1869800Y-319250D02*
D03*
Y-302750D02*
D03*
X1615800Y-288250D02*
D03*
Y-271750D02*
D03*
X1980800Y-409000D02*
D03*
Y-425500D02*
D03*
X1633800Y-271750D02*
D03*
Y-288250D02*
D03*
X1704300Y-528950D02*
D03*
Y-512450D02*
D03*
X1980800Y-170750D02*
D03*
Y-187250D02*
D03*
X2000800D02*
D03*
Y-170750D02*
D03*
X1219800Y-189750D02*
D03*
Y-206250D02*
D03*
X2000800Y-425500D02*
D03*
Y-409000D02*
D03*
X1889800Y-302750D02*
D03*
Y-319250D02*
D03*
D54*
X1856800Y-205500D02*
D03*
Y-270500D02*
D03*
X1765800Y-205000D02*
D03*
Y-270000D02*
D03*
D55*
X1575300Y-284000D02*
D03*
X1594300D02*
D03*
D56*
X1851300Y-363500D02*
D03*
X1826300Y-438500D02*
D03*
X1851300D02*
D03*
X1826300Y-363500D02*
D03*
D57*
X1625300Y-230000D02*
D03*
X1670300D02*
D03*
X1555300D02*
D03*
X1600300D02*
D03*
D58*
X1740700Y-608000D02*
D03*
Y-528000D02*
D03*
X1785700Y-608000D02*
D03*
Y-528000D02*
D03*
D59*
X1644800Y-546000D02*
D03*
X1566800D02*
D03*
D60*
X1460385Y-411570D02*
D03*
X1473085D02*
D03*
X1460385Y-424270D02*
D03*
X1473085D02*
D03*
X1460385Y-436970D02*
D03*
X1473085D02*
D03*
D61*
X1301835Y-356570D02*
D03*
X1316335D02*
D03*
D62*
X1734370Y-319090D02*
D03*
Y-378340D02*
D03*
D63*
X1613870Y-411715D02*
D03*
X1589870D02*
D03*
Y-430715D02*
D03*
X1613870D02*
D03*
D64*
X1776800Y-328000D02*
D03*
Y-368000D02*
D03*
D65*
X1935000Y-505000D02*
D03*
X1895000D02*
D03*
D66*
X1855800Y-519000D02*
D03*
X1960800Y-49000D02*
D03*
X50800Y-549000D02*
D03*
X155800Y-49000D02*
D03*
D67*
X25800Y-337100D02*
D03*
X2008600Y-337500D02*
D03*
D68*
X1914984Y-148670D02*
D03*
Y-213669D02*
D03*
X1959984Y-148670D02*
D03*
Y-213669D02*
D03*
Y-331170D02*
D03*
Y-266169D02*
D03*
X1914984Y-331170D02*
D03*
Y-266169D02*
D03*
X1960484Y-448670D02*
D03*
Y-383670D02*
D03*
X1915484Y-448670D02*
D03*
Y-383670D02*
D03*
D69*
X2008600Y-312100D02*
D03*
Y-286700D02*
D03*
Y-261300D02*
D03*
X25800Y-260900D02*
D03*
Y-286300D02*
D03*
Y-311700D02*
D03*
X1450885Y-545570D02*
D03*
X1476285D02*
D03*
X1501685D02*
D03*
X1527085D02*
D03*
D70*
X1466735Y-398870D02*
D03*
X1476895Y-449670D02*
D03*
X1456575D02*
D03*
D71*
X1425485Y-545570D02*
D03*
D72*
X1704300Y-579700D02*
D03*
D73*
Y-554300D02*
D03*
D74*
X1876500Y-578000D02*
D03*
D75*
X1927300D02*
D03*
M02*
