G04*
G04 #@! TF.GenerationSoftware,Altium Limited,Altium Designer,26.5.1 (12)*
G04*
G04 Layer_Color=8388736*
G04 Board_Origin=0|0*
%FSLAX44Y44*%
%MOMM*%
G71*
G04*
G04 #@! TF.SameCoordinates,75EFAC43-1628-424D-8E1A-596EA3B04155*
G04*
G04*
G04 #@! TF.FilePolarity,Negative*
G04*
G01*
G75*
G04:AMPARAMS|DCode=11|XSize=4mm|YSize=2.5mm|CornerRadius=0.125mm|HoleSize=0mm|Usage=FLASHONLY|Rotation=270.000|XOffset=0mm|YOffset=0mm|HoleType=Round|Shape=RoundedRectangle|*
%AMROUNDEDRECTD11*
21,1,4.0000,2.2500,0,0,270.0*
21,1,3.7500,2.5000,0,0,270.0*
1,1,0.2500,-1.1250,-1.8750*
1,1,0.2500,-1.1250,1.8750*
1,1,0.2500,1.1250,1.8750*
1,1,0.2500,1.1250,-1.8750*
%
%ADD11ROUNDEDRECTD11*%
G04:AMPARAMS|DCode=12|XSize=4mm|YSize=2.5mm|CornerRadius=0.125mm|HoleSize=0mm|Usage=FLASHONLY|Rotation=180.000|XOffset=0mm|YOffset=0mm|HoleType=Round|Shape=RoundedRectangle|*
%AMROUNDEDRECTD12*
21,1,4.0000,2.2500,0,0,180.0*
21,1,3.7500,2.5000,0,0,180.0*
1,1,0.2500,-1.8750,1.1250*
1,1,0.2500,1.8750,1.1250*
1,1,0.2500,1.8750,-1.1250*
1,1,0.2500,-1.8750,-1.1250*
%
%ADD12ROUNDEDRECTD12*%
%ADD13C,3.0000*%
G04:AMPARAMS|DCode=14|XSize=2.1mm|YSize=3.6mm|CornerRadius=0.126mm|HoleSize=0mm|Usage=FLASHONLY|Rotation=90.000|XOffset=0mm|YOffset=0mm|HoleType=Round|Shape=RoundedRectangle|*
%AMROUNDEDRECTD14*
21,1,2.1000,3.3480,0,0,90.0*
21,1,1.8480,3.6000,0,0,90.0*
1,1,0.2520,1.6740,0.9240*
1,1,0.2520,1.6740,-0.9240*
1,1,0.2520,-1.6740,-0.9240*
1,1,0.2520,-1.6740,0.9240*
%
%ADD14ROUNDEDRECTD14*%
G04:AMPARAMS|DCode=15|XSize=2.1mm|YSize=3.6mm|CornerRadius=1.05mm|HoleSize=0mm|Usage=FLASHONLY|Rotation=90.000|XOffset=0mm|YOffset=0mm|HoleType=Round|Shape=RoundedRectangle|*
%AMROUNDEDRECTD15*
21,1,2.1000,1.5000,0,0,90.0*
21,1,0.0000,3.6000,0,0,90.0*
1,1,2.1000,0.7500,0.0000*
1,1,2.1000,0.7500,0.0000*
1,1,2.1000,-0.7500,0.0000*
1,1,2.1000,-0.7500,0.0000*
%
%ADD15ROUNDEDRECTD15*%
%ADD16C,2.0000*%
%ADD17R,1.7000X1.7000*%
%ADD18C,1.7000*%
D11*
X877471Y1788693D02*
D03*
Y1708693D02*
D03*
D12*
X1072683Y1739443D02*
D03*
X1152683D02*
D03*
D13*
X748183Y1710301D02*
D03*
X798183Y1010301D02*
D03*
X1248183D02*
D03*
Y1710301D02*
D03*
D14*
X1368071Y1585043D02*
D03*
Y1083043D02*
D03*
Y1417710D02*
D03*
X628071Y1635843D02*
D03*
Y1301177D02*
D03*
Y1133843D02*
D03*
X1368071Y1250377D02*
D03*
X628071Y1468510D02*
D03*
D15*
X1368071Y1635843D02*
D03*
Y1133843D02*
D03*
Y1468510D02*
D03*
X628071Y1585043D02*
D03*
Y1250377D02*
D03*
Y1083043D02*
D03*
X1368071Y1301177D02*
D03*
X628071Y1417710D02*
D03*
D16*
X1246471Y1313277D02*
D03*
Y1238277D02*
D03*
X1196471Y1313277D02*
D03*
Y1238277D02*
D03*
X1296871Y1313277D02*
D03*
Y1238277D02*
D03*
X1043471D02*
D03*
Y1313277D02*
D03*
Y1275777D02*
D03*
X952671D02*
D03*
Y1238277D02*
D03*
Y1313277D02*
D03*
X699271D02*
D03*
Y1238277D02*
D03*
X799671Y1313277D02*
D03*
Y1238277D02*
D03*
X749671Y1313277D02*
D03*
Y1238277D02*
D03*
X952671Y1108443D02*
D03*
Y1070943D02*
D03*
Y1145943D02*
D03*
X699271D02*
D03*
Y1070943D02*
D03*
X799671Y1145943D02*
D03*
Y1070943D02*
D03*
X749671Y1145943D02*
D03*
Y1070943D02*
D03*
X1043471Y1108443D02*
D03*
Y1145943D02*
D03*
Y1070943D02*
D03*
X1296871D02*
D03*
Y1145943D02*
D03*
X1196471Y1070943D02*
D03*
Y1145943D02*
D03*
X1246471Y1070943D02*
D03*
Y1145943D02*
D03*
X952671Y1610443D02*
D03*
Y1572943D02*
D03*
Y1647943D02*
D03*
X699271D02*
D03*
Y1572943D02*
D03*
X799671Y1647943D02*
D03*
Y1572943D02*
D03*
X749671Y1647943D02*
D03*
Y1572943D02*
D03*
X1043471Y1610443D02*
D03*
Y1647943D02*
D03*
Y1572943D02*
D03*
X1296871D02*
D03*
Y1647943D02*
D03*
X1196471Y1572943D02*
D03*
Y1647943D02*
D03*
X1246471Y1572943D02*
D03*
Y1647943D02*
D03*
X1043471Y1443110D02*
D03*
Y1480610D02*
D03*
Y1405610D02*
D03*
X1296871D02*
D03*
Y1480610D02*
D03*
X1196471Y1405610D02*
D03*
Y1480610D02*
D03*
X1246471Y1405610D02*
D03*
Y1480610D02*
D03*
X952671Y1443110D02*
D03*
Y1405610D02*
D03*
Y1480610D02*
D03*
X699271D02*
D03*
Y1405610D02*
D03*
X799671Y1480610D02*
D03*
Y1405610D02*
D03*
X749671Y1480610D02*
D03*
Y1405610D02*
D03*
D17*
X960083Y917943D02*
D03*
Y1788443D02*
D03*
D18*
X985483Y917943D02*
D03*
X1010883D02*
D03*
X1036283D02*
D03*
Y1788443D02*
D03*
X1010883D02*
D03*
X985483D02*
D03*
M02*
