G04 #@! TF.GenerationSoftware,KiCad,Pcbnew,8.0.2*
G04 #@! TF.CreationDate,2024-09-20T16:52:05+03:00*
G04 #@! TF.ProjectId,OE0113-WiFi_QR_Mifare_Reader,4f453031-3133-42d5-9769-46695f51525f,rev?*
G04 #@! TF.SameCoordinates,Original*
G04 #@! TF.FileFunction,Paste,Bot*
G04 #@! TF.FilePolarity,Positive*
%FSLAX46Y46*%
G04 Gerber Fmt 4.6, Leading zero omitted, Abs format (unit mm)*
G04 Created by KiCad (PCBNEW 8.0.2) date 2024-09-20 16:52:05*
%MOMM*%
%LPD*%
G01*
G04 APERTURE LIST*
G04 Aperture macros list*
%AMRoundRect*
0 Rectangle with rounded corners*
0 $1 Rounding radius*
0 $2 $3 $4 $5 $6 $7 $8 $9 X,Y pos of 4 corners*
0 Add a 4 corners polygon primitive as box body*
4,1,4,$2,$3,$4,$5,$6,$7,$8,$9,$2,$3,0*
0 Add four circle primitives for the rounded corners*
1,1,$1+$1,$2,$3*
1,1,$1+$1,$4,$5*
1,1,$1+$1,$6,$7*
1,1,$1+$1,$8,$9*
0 Add four rect primitives between the rounded corners*
20,1,$1+$1,$2,$3,$4,$5,0*
20,1,$1+$1,$4,$5,$6,$7,0*
20,1,$1+$1,$6,$7,$8,$9,0*
20,1,$1+$1,$8,$9,$2,$3,0*%
G04 Aperture macros list end*
%ADD10C,0.000000*%
%ADD11RoundRect,0.200000X-0.275000X0.200000X-0.275000X-0.200000X0.275000X-0.200000X0.275000X0.200000X0*%
%ADD12RoundRect,0.200000X0.200000X0.275000X-0.200000X0.275000X-0.200000X-0.275000X0.200000X-0.275000X0*%
%ADD13RoundRect,0.200000X-0.200000X-0.275000X0.200000X-0.275000X0.200000X0.275000X-0.200000X0.275000X0*%
%ADD14R,2.350000X0.850000*%
%ADD15RoundRect,0.225000X0.225000X0.250000X-0.225000X0.250000X-0.225000X-0.250000X0.225000X-0.250000X0*%
%ADD16RoundRect,0.150000X-0.587500X-0.150000X0.587500X-0.150000X0.587500X0.150000X-0.587500X0.150000X0*%
%ADD17R,1.903000X2.790000*%
%ADD18RoundRect,0.250000X0.250000X0.475000X-0.250000X0.475000X-0.250000X-0.475000X0.250000X-0.475000X0*%
%ADD19RoundRect,0.225000X-0.225000X-0.250000X0.225000X-0.250000X0.225000X0.250000X-0.225000X0.250000X0*%
%ADD20RoundRect,0.225000X0.250000X-0.225000X0.250000X0.225000X-0.250000X0.225000X-0.250000X-0.225000X0*%
%ADD21RoundRect,0.250000X0.900000X-1.000000X0.900000X1.000000X-0.900000X1.000000X-0.900000X-1.000000X0*%
%ADD22RoundRect,0.250000X-1.050000X-0.550000X1.050000X-0.550000X1.050000X0.550000X-1.050000X0.550000X0*%
%ADD23RoundRect,0.250000X-0.250000X-0.475000X0.250000X-0.475000X0.250000X0.475000X-0.250000X0.475000X0*%
%ADD24RoundRect,0.200000X0.275000X-0.200000X0.275000X0.200000X-0.275000X0.200000X-0.275000X-0.200000X0*%
%ADD25R,0.290000X0.804800*%
%ADD26R,0.804800X0.290000*%
%ADD27RoundRect,0.250000X0.480000X0.480000X-0.480000X0.480000X-0.480000X-0.480000X0.480000X-0.480000X0*%
%ADD28RoundRect,0.062500X0.337500X0.062500X-0.337500X0.062500X-0.337500X-0.062500X0.337500X-0.062500X0*%
%ADD29RoundRect,0.062500X0.062500X0.337500X-0.062500X0.337500X-0.062500X-0.337500X0.062500X-0.337500X0*%
%ADD30RoundRect,0.150000X-0.150000X0.587500X-0.150000X-0.587500X0.150000X-0.587500X0.150000X0.587500X0*%
%ADD31RoundRect,0.250000X-0.475000X0.250000X-0.475000X-0.250000X0.475000X-0.250000X0.475000X0.250000X0*%
%ADD32RoundRect,0.250000X0.650000X-1.000000X0.650000X1.000000X-0.650000X1.000000X-0.650000X-1.000000X0*%
%ADD33RoundRect,0.225000X0.225000X0.375000X-0.225000X0.375000X-0.225000X-0.375000X0.225000X-0.375000X0*%
%ADD34RoundRect,0.218750X-0.256250X0.218750X-0.256250X-0.218750X0.256250X-0.218750X0.256250X0.218750X0*%
%ADD35RoundRect,0.225000X-0.250000X0.225000X-0.250000X-0.225000X0.250000X-0.225000X0.250000X0.225000X0*%
%ADD36RoundRect,0.218750X-0.218750X-0.381250X0.218750X-0.381250X0.218750X0.381250X-0.218750X0.381250X0*%
%ADD37R,1.200000X1.400000*%
%ADD38RoundRect,0.073750X0.221250X-0.551250X0.221250X0.551250X-0.221250X0.551250X-0.221250X-0.551250X0*%
%ADD39RoundRect,0.250000X1.300000X-0.350000X1.300000X0.350000X-1.300000X0.350000X-1.300000X-0.350000X0*%
%ADD40RoundRect,0.250001X1.399999X-0.899999X1.399999X0.899999X-1.399999X0.899999X-1.399999X-0.899999X0*%
%ADD41R,1.100000X1.270000*%
%ADD42R,1.200000X2.000000*%
%ADD43R,2.000000X1.200000*%
%ADD44R,0.850000X2.350000*%
%ADD45RoundRect,0.218750X0.218750X0.256250X-0.218750X0.256250X-0.218750X-0.256250X0.218750X-0.256250X0*%
G04 #@! TA.AperFunction,Profile*
%ADD46C,0.050000*%
G04 #@! TD*
G04 #@! TA.AperFunction,Profile*
%ADD47C,0.100000*%
G04 #@! TD*
G04 APERTURE END LIST*
D10*
G36*
X37912700Y-27785300D02*
G01*
X36312300Y-27785300D01*
X36312300Y-26184900D01*
X37912700Y-26184900D01*
X37912700Y-27785300D01*
G37*
G36*
X37912700Y-29560300D02*
G01*
X36312300Y-29560300D01*
X36312300Y-27959900D01*
X37912700Y-27959900D01*
X37912700Y-29560300D01*
G37*
G36*
X39687700Y-27785300D02*
G01*
X38087300Y-27785300D01*
X38087300Y-26184900D01*
X39687700Y-26184900D01*
X39687700Y-27785300D01*
G37*
G36*
X39687700Y-29560300D02*
G01*
X38087300Y-29560300D01*
X38087300Y-27959900D01*
X39687700Y-27959900D01*
X39687700Y-29560300D01*
G37*
D11*
X34300000Y-22575000D03*
X34300000Y-24225000D03*
D12*
X63925000Y-43000000D03*
X62275000Y-43000000D03*
D13*
X58875000Y-42900000D03*
X60525000Y-42900000D03*
X61775000Y-75100000D03*
X63425000Y-75100000D03*
D14*
X32825000Y-86600000D03*
X35175000Y-84600000D03*
X32825000Y-82600000D03*
D15*
X61975000Y-31500000D03*
X60425000Y-31500000D03*
D11*
X44700000Y-52775000D03*
X44700000Y-54425000D03*
D16*
X61562500Y-48750000D03*
X61562500Y-46850000D03*
X63437500Y-47800000D03*
D13*
X54475000Y-82300000D03*
X56125000Y-82300000D03*
D11*
X46900000Y-52775000D03*
X46900000Y-54425000D03*
D17*
X56973500Y-67900000D03*
X61826500Y-67900000D03*
D15*
X61975000Y-29900000D03*
X60425000Y-29900000D03*
D18*
X53950000Y-62120000D03*
X52050000Y-62120000D03*
D19*
X60425000Y-21600000D03*
X61975000Y-21600000D03*
D20*
X41700000Y-24575000D03*
X41700000Y-23025000D03*
D19*
X56825000Y-21500000D03*
X58375000Y-21500000D03*
D12*
X61550000Y-81700000D03*
X59900000Y-81700000D03*
D13*
X58875000Y-44400000D03*
X60525000Y-44400000D03*
D21*
X46400000Y-62550000D03*
X46400000Y-58250000D03*
D13*
X58875000Y-41300000D03*
X60525000Y-41300000D03*
D11*
X50700000Y-52775000D03*
X50700000Y-54425000D03*
D19*
X60425000Y-23200000D03*
X61975000Y-23200000D03*
D22*
X59600000Y-38100000D03*
X63200000Y-38100000D03*
D19*
X60425000Y-28300000D03*
X61975000Y-28300000D03*
D15*
X57875000Y-31900000D03*
X56325000Y-31900000D03*
D23*
X62250000Y-60400000D03*
X64150000Y-60400000D03*
D24*
X59100000Y-58325000D03*
X59100000Y-56675000D03*
D25*
X36250000Y-25420200D03*
X36750000Y-25420200D03*
X37250000Y-25420200D03*
X37750000Y-25420200D03*
X38250000Y-25420200D03*
X38750000Y-25420200D03*
X39250000Y-25420200D03*
X39750000Y-25420200D03*
D26*
X40452400Y-26122600D03*
X40452400Y-26622600D03*
X40452400Y-27122600D03*
X40452400Y-27622600D03*
X40452400Y-28122600D03*
X40452400Y-28622600D03*
X40452400Y-29122600D03*
X40452400Y-29622600D03*
D25*
X39750000Y-30325000D03*
X39250000Y-30325000D03*
X38750000Y-30325000D03*
X38250000Y-30325000D03*
X37750000Y-30325000D03*
X37250000Y-30325000D03*
X36750000Y-30325000D03*
X36250000Y-30325000D03*
D26*
X35547600Y-29622600D03*
X35547600Y-29122600D03*
X35547600Y-28622600D03*
X35547600Y-28122600D03*
X35547600Y-27622600D03*
X35547600Y-27122600D03*
X35547600Y-26622600D03*
X35547600Y-26122600D03*
D11*
X48800000Y-52775000D03*
X48800000Y-54425000D03*
D23*
X62250000Y-58200000D03*
X64150000Y-58200000D03*
D19*
X42125000Y-30900000D03*
X43675000Y-30900000D03*
D20*
X43400000Y-24575000D03*
X43400000Y-23025000D03*
D27*
X52875000Y-25475000D03*
X52875000Y-23725000D03*
X51125000Y-25475000D03*
X51125000Y-23725000D03*
D28*
X54450000Y-22850000D03*
X54450000Y-23350000D03*
X54450000Y-23850000D03*
X54450000Y-24350000D03*
X54450000Y-24850000D03*
X54450000Y-25350000D03*
X54450000Y-25850000D03*
X54450000Y-26350000D03*
D29*
X53750000Y-27050000D03*
X53250000Y-27050000D03*
X52750000Y-27050000D03*
X52250000Y-27050000D03*
X51750000Y-27050000D03*
X51250000Y-27050000D03*
X50750000Y-27050000D03*
X50250000Y-27050000D03*
D28*
X49550000Y-26350000D03*
X49550000Y-25850000D03*
X49550000Y-25350000D03*
X49550000Y-24850000D03*
X49550000Y-24350000D03*
X49550000Y-23850000D03*
X49550000Y-23350000D03*
X49550000Y-22850000D03*
D29*
X50250000Y-22150000D03*
X50750000Y-22150000D03*
X51250000Y-22150000D03*
X51750000Y-22150000D03*
X52250000Y-22150000D03*
X52750000Y-22150000D03*
X53250000Y-22150000D03*
X53750000Y-22150000D03*
D15*
X47750000Y-21900000D03*
X46200000Y-21900000D03*
X47625000Y-27600000D03*
X46075000Y-27600000D03*
D13*
X54575000Y-54400000D03*
X56225000Y-54400000D03*
D30*
X61950000Y-77325000D03*
X63850000Y-77325000D03*
X62900000Y-79200000D03*
D19*
X59925000Y-34400000D03*
X61475000Y-34400000D03*
D31*
X60100000Y-60850000D03*
X60100000Y-62750000D03*
D15*
X58375000Y-23400000D03*
X56825000Y-23400000D03*
D13*
X54575000Y-52800000D03*
X56225000Y-52800000D03*
D19*
X60425000Y-24800000D03*
X61975000Y-24800000D03*
D32*
X61500000Y-88500000D03*
X61500000Y-84500000D03*
D13*
X45175000Y-30900000D03*
X46825000Y-30900000D03*
D33*
X47550000Y-65700000D03*
X44250000Y-65700000D03*
D34*
X58200000Y-80112500D03*
X58200000Y-81687500D03*
D12*
X58425000Y-25000000D03*
X56775000Y-25000000D03*
D24*
X32900000Y-31325000D03*
X32900000Y-29675000D03*
D13*
X56775000Y-26500000D03*
X58425000Y-26500000D03*
D23*
X62250000Y-62600000D03*
X64150000Y-62600000D03*
D15*
X61975000Y-26600000D03*
X60425000Y-26600000D03*
D35*
X48900000Y-29925000D03*
X48900000Y-31475000D03*
D36*
X56100000Y-30000000D03*
X58225000Y-30000000D03*
D24*
X59500000Y-48725000D03*
X59500000Y-47075000D03*
D36*
X56100000Y-28200000D03*
X58225000Y-28200000D03*
D13*
X51975000Y-96500000D03*
X53625000Y-96500000D03*
D24*
X50500000Y-31525000D03*
X50500000Y-29875000D03*
D37*
X45800000Y-25900000D03*
X47500000Y-23700000D03*
X45800000Y-23700000D03*
X47500000Y-25900000D03*
D38*
X57950000Y-63055000D03*
X57000000Y-63055000D03*
X56050000Y-63055000D03*
X56050000Y-60545000D03*
X57000000Y-60545000D03*
X57950000Y-60545000D03*
D12*
X43725000Y-28800000D03*
X42075000Y-28800000D03*
D18*
X53950000Y-60000000D03*
X52050000Y-60000000D03*
D24*
X32600000Y-24225000D03*
X32600000Y-22575000D03*
D35*
X52300000Y-29925000D03*
X52300000Y-31475000D03*
D24*
X56900000Y-58225000D03*
X56900000Y-56575000D03*
D39*
X38650000Y-66800000D03*
X38650000Y-64800000D03*
X38650000Y-62800000D03*
X38650000Y-60800000D03*
X38650000Y-58800000D03*
X38650000Y-56800000D03*
D40*
X33050000Y-71320000D03*
X33050000Y-52280000D03*
D12*
X46825000Y-29300000D03*
X45175000Y-29300000D03*
D18*
X53950000Y-64220000D03*
X52050000Y-64220000D03*
D11*
X52500000Y-52775000D03*
X52500000Y-54425000D03*
D41*
X39397000Y-78820000D03*
X37597000Y-78820000D03*
X56057000Y-72160000D03*
X57857000Y-72160000D03*
D42*
X40720000Y-34100000D03*
X42720000Y-34100000D03*
X44720000Y-34100000D03*
X46720000Y-34100000D03*
X48720000Y-34100000D03*
X50720000Y-34100000D03*
X52720000Y-34100000D03*
X54720000Y-34100000D03*
D43*
X56200000Y-37100000D03*
X56200000Y-39100000D03*
X56200000Y-41100000D03*
X56200000Y-43100000D03*
X56200000Y-45100000D03*
X56200000Y-47100000D03*
D42*
X54720000Y-50100000D03*
X52720000Y-50100000D03*
X50720000Y-50100000D03*
X48720000Y-50100000D03*
X46720000Y-50100000D03*
X44720000Y-50100000D03*
X42720000Y-50100000D03*
X40720000Y-50100000D03*
D44*
X63200000Y-53875000D03*
X61200000Y-51525000D03*
X59200000Y-53875000D03*
D45*
X63787500Y-44900000D03*
X62212500Y-44900000D03*
D11*
X55300000Y-56575000D03*
X55300000Y-58225000D03*
D46*
X32000000Y-91000000D02*
X35500000Y-91000000D01*
X55502694Y-75500000D02*
G75*
G02*
X39691306Y-75500000I-7905694J0D01*
G01*
X39691306Y-75500000D02*
G75*
G02*
X55502694Y-75500000I7905694J0D01*
G01*
X64900000Y-20000000D02*
X64900000Y-89000000D01*
X39200000Y-106000000D02*
X59400000Y-106000000D01*
X35500000Y-95700000D02*
X39200000Y-95700000D01*
X39200000Y-95700000D02*
X39200000Y-106000000D01*
X30000000Y-20000000D02*
X64900000Y-20000000D01*
X62900000Y-91000000D02*
X59400000Y-91000000D01*
X64900000Y-89000000D02*
X62900000Y-91000000D01*
D47*
X30000000Y-89000000D02*
X32000000Y-91000000D01*
D46*
X35500000Y-91000000D02*
X35500000Y-95700000D01*
X30000000Y-20000000D02*
X30000000Y-89000000D01*
X59400000Y-106000000D02*
X59400000Y-91000000D01*
M02*
