M48
;Layer_Color=9474304
;FILE_FORMAT=4:3
METRIC,LZ
;TYPE=PLATED
T01F00S00C0.300
T02F00S00C0.350
T03F00S00C0.500
T04F00S00C0.900
T05F00S00C0.991
T06F00S00C1.000
T07F00S00C1.060
T08F00S00C1.100
T09F00S00C3.000
%
T01
X0004164Y-0046586
X0013285Y-0042475
X0022485Y-00425
X0031285Y-0042475
X0040298Y-0042575
X007028Y-00391
X007248Y-00392
X0079768Y-00373
X008348Y-0041057
X008468Y-00423
X0085551Y-0043597
X008478Y-00464
X008348Y-00475
X008298Y-0052913
X008308Y-0055887
X007358Y-00511
X007168Y-00491
X007018Y-00466
X009318Y-00464
X009348Y-00454
X009415Y-0044755
X009598Y-00476
X009818Y-00441
X010328
X010748Y-00438
X0106268Y-00545
X0097237Y-0037122
X008978Y-00411
X0089173Y-0042327
X010938Y-00439
X010998Y-00413
X0111768Y-0037
X011588Y-0044
X0115977Y-0047313
X011478Y-00496
X011008Y-00476
X0124593Y-00367
X0127067Y-0037
X0132039Y-0041991
X0136548Y-00406
X013928Y-00399
X013338Y-00343
X013408Y-0031
X0131989Y-0030241
X012948Y-0029212
X013488Y-00284
X013558Y-00228
X013528Y-00167
X013448Y-00161
X013328Y-00173
X013278Y-00179
X013198Y-00185
X0127967Y-00203
X0128051Y-0021351
X0124193Y-00216
X0124093Y-00206
X0124193Y-00194
X0118768Y-001985
Y-002115
X0114793Y-002135
X0114893Y-002015
X010998Y-0019375
X011138Y-00225
X011118Y-00273
X011188Y-00283
X011318Y-00288
X012548Y-0034213
X0124593Y-00356
X0126868
X013858Y-0016013
X011068Y-0011
X010338Y-0017775
X010388Y-002642
X009978Y-00268
X009708Y-00277
X009718Y-00327
X010258Y-00299
X010708Y-00283
X0088555Y-002697
X0088508Y-0030757
X008978Y-00315
X008888Y-0034457
X0085965Y-00357
X0075453Y-0035265
X0075863Y-0034508
X0073423Y-00349
X0074Y-00356
X0072459Y-0034167
X00719Y-00253
X007348Y-0023002
X007578Y-00229
X0078943Y-0019987
X008108Y-00202
X0082Y-0010712
X00762Y-0008012
X00754Y-0007312
X00746Y-0006613
X00769Y-0005713
X007368Y-0011
X006298Y-00223
X006318Y-00244
X006338Y-00308
X00654Y-003383
X0040298Y-003405
Y-0025525
X0039812Y-00228
X00406Y-0016862
X0039713Y-00143
X00397Y-0006762
X00309Y-0006262
X0030913Y-00143
X0029913Y-00181
X0030612Y-00228
X0031285Y-0025425
Y-003395
X0051Y-0001112
X00528Y-0001013
X00214Y-0005412
X0021513Y-00142
X0022587Y-0017013
X0021712Y-00228
X0022285Y-0025425
Y-003395
X0013285
Y-0025425
X0012913Y-00228
X0012712Y-0014
X00037Y-0011812
X00025Y-0011212
X-00008Y-0010312
X0002564Y-0019086
X-00002Y-0022312
X00127Y-0002612
T02
X00143Y-0040812
X00245
X00318Y-0040612
X00425
X0097092Y-0038327
X010158Y-00385
X014218Y-00409
X014258Y-00203
X0130722Y-0019058
X012788Y-00291
X0104247Y-0033272
X0103497Y-0034432
X0102462Y-0033397
X0102322Y-0035607
X0104587Y-0035522
X0098437Y-0034272
X0094197Y-0024973
X0093405Y-0023113
X0086458Y-0025907
X0087708Y-0028707
X00757Y-00288
Y-0027
Y-00258
X0078458Y-0025607
X0077655Y-00232
X00757Y-00192
X007368Y-0014613
X0077684Y-0014444
X00825Y-0018013
X0073908Y-0027357
X00757Y-00311
X0068808Y-0031757
X0068608Y-0026457
X006763Y-002395
X0061558Y-0026607
X0061758Y-0031457
X00563Y-0020413
X00554Y-0021013
X00568Y-0019413
X00545Y-0018712
X00541Y-0015413
Y-0011012
X00546Y-0009012
X00554Y-0008113
X00561Y-0007312
X00568Y-0006713
X00517Y-0008212
X00415Y-0009012
X00325
X00332Y-0019612
X00322Y-0027112
X00328Y-0032213
X00415
X0043Y-0025112
X00459Y-00232
X00421Y-0020513
X00514Y-0021612
X00251Y-0022612
X0024Y-0018812
X00233Y-0009512
X00141
X00149Y-0021612
X0023Y-0032213
T03
X0005794Y-0060476
X0012794
X0019794
X0026794
X0023294Y-0053476
X0016294
X0009294
X0002294
X-0001206Y-0046476
X0002294Y-0039476
X0009294
X0016294
X0023294
X0030294
X0037294
X0044294
X0051294
X0058294
X0065294
Y-0053476
X0058294
X0051294
X0044294
X0037294
X0030294
X0033794Y-0060476
X0040794
X0047794
X0054794
X0061794
X0068794
X0075794
X0082794
X0089794
X0096794
X0103794
X0107294Y-0053476
X0100294
X0103794Y-0046476
X0079294Y-0053476
X0072294
X0110794Y-0060476
X0124794
X0131794
Y-0046476
X0138794
X0142294Y-0053476
X0135294Y-0039476
X0128294
X0121294
Y-0053476
X0124794Y-0032476
X0128294Y-0025476
X0121294
X0114294
X0117794Y-0004476
X0124794
X0131794
X0138794
X0142294Y-0011476
X0135294
X0128294
X0110794Y-0004476
X0103794
X0096794
X0089794
X0082794
X0075794
X0089794Y-0018476
X0082794Y-0032476
X0054794
X0047794
X0051294Y-0025476
X0054794Y-0004476
X0061794
X0068794
X0033794Y-0032476
X0026794
X0016294Y-0025476
X0009294
X0002294
X0005794Y-0018476
X0012794
X0019794
Y-0004476
X0005794
X-0001206
X0005794Y-0032476
T04
X011093Y-005787
Y-005533
T05
X0086157Y-0044867
X0088189
X0087173Y-0039787
T06
X0083048Y-0054457
X0085588
X0088128
X0090668
X0093208
X0139816Y-0033604
Y-0031064
Y-0028524
Y-0025984
X000045Y-002597
Y-002851
Y-003105
Y-003359
T07
X0132048Y-0044767
X0136548
Y-0038267
X0132048
X0131998Y-0033017
X0136498
Y-0026517
X0131998
Y-0021267
X0136498
Y-0014767
X0131998
T08
X012815Y-00577
X013323
T09
X001939Y-00518
X01344Y-00518
Y-00078
X001939
M30
