G04*
G04 #@! TF.GenerationSoftware,Altium Limited,Altium Designer,26.5.1 (12)*
G04*
G04 Layer_Color=8388736*
G04 Board_Origin=11460000|43560000*
%FSLAX44Y44*%
%MOMM*%
G71*
G04*
G04 #@! TF.SameCoordinates,403F51B2-EDFB-421F-B47B-56F750A890EC*
G04*
G04*
G04 #@! TF.FilePolarity,Negative*
G04*
G01*
G75*
%ADD44R,1.1032X0.8532*%
%ADD45R,1.0032X1.0032*%
%ADD46R,1.1632X1.6032*%
%ADD47R,0.9932X1.2032*%
%ADD48R,1.3232X1.4232*%
%ADD49R,0.8532X1.1032*%
%ADD50R,1.6032X1.1632*%
%ADD51R,0.9032X0.5032*%
%ADD52R,1.0032X1.0032*%
%ADD53R,1.0532X1.0532*%
%ADD54R,1.4232X1.3232*%
G04:AMPARAMS|DCode=55|XSize=1.1032mm|YSize=1.2032mm|CornerRadius=0.3266mm|HoleSize=0mm|Usage=FLASHONLY|Rotation=270.000|XOffset=0mm|YOffset=0mm|HoleType=Round|Shape=RoundedRectangle|*
%AMROUNDEDRECTD55*
21,1,1.1032,0.5500,0,0,270.0*
21,1,0.4500,1.2032,0,0,270.0*
1,1,0.6532,-0.2750,-0.2250*
1,1,0.6532,-0.2750,0.2250*
1,1,0.6532,0.2750,0.2250*
1,1,0.6532,0.2750,-0.2250*
%
%ADD55ROUNDEDRECTD55*%
%ADD56R,3.5532X3.5532*%
%ADD57R,0.5032X1.2032*%
%ADD58R,1.2032X0.5032*%
%ADD59R,1.6532X3.4532*%
%ADD60R,1.6532X1.1532*%
G04:AMPARAMS|DCode=61|XSize=1.1132mm|YSize=1.1532mm|CornerRadius=0.3291mm|HoleSize=0mm|Usage=FLASHONLY|Rotation=0.000|XOffset=0mm|YOffset=0mm|HoleType=Round|Shape=RoundedRectangle|*
%AMROUNDEDRECTD61*
21,1,1.1132,0.4950,0,0,0.0*
21,1,0.4550,1.1532,0,0,0.0*
1,1,0.6582,0.2275,-0.2475*
1,1,0.6582,-0.2275,-0.2475*
1,1,0.6582,-0.2275,0.2475*
1,1,0.6582,0.2275,0.2475*
%
%ADD61ROUNDEDRECTD61*%
%ADD62R,0.5032X0.9032*%
%ADD63C,3.0000*%
%ADD64R,0.9032X0.8032*%
%ADD65R,1.0032X1.7032*%
%ADD66R,1.1032X1.4032*%
G04:AMPARAMS|DCode=67|XSize=1.1132mm|YSize=1.1532mm|CornerRadius=0.3291mm|HoleSize=0mm|Usage=FLASHONLY|Rotation=90.000|XOffset=0mm|YOffset=0mm|HoleType=Round|Shape=RoundedRectangle|*
%AMROUNDEDRECTD67*
21,1,1.1132,0.4950,0,0,90.0*
21,1,0.4550,1.1532,0,0,90.0*
1,1,0.6582,0.2475,0.2275*
1,1,0.6582,0.2475,-0.2275*
1,1,0.6582,-0.2475,-0.2275*
1,1,0.6582,-0.2475,0.2275*
%
%ADD67ROUNDEDRECTD67*%
%ADD68R,1.1032X1.5032*%
%ADD69R,1.5032X1.1032*%
%ADD70R,1.1032X1.7032*%
%ADD71C,1.9032*%
%ADD72C,1.7032*%
%ADD73C,2.0182*%
%ADD74C,0.2032*%
%ADD75R,1.8532X1.8532*%
%ADD76C,1.8532*%
%ADD77C,0.6532*%
%ADD78C,0.8032*%
D44*
X397764Y87746D02*
D03*
Y102246D02*
D03*
X257556Y-312282D02*
D03*
Y-326782D02*
D03*
X241808Y-311774D02*
D03*
Y-326274D02*
D03*
X466852Y38746D02*
D03*
Y24246D02*
D03*
X375412Y-54218D02*
D03*
Y-68718D02*
D03*
X291592Y-36946D02*
D03*
Y-51446D02*
D03*
X306324Y-36946D02*
D03*
Y-51446D02*
D03*
D45*
X414020Y101480D02*
D03*
Y86480D02*
D03*
X133516Y-150774D02*
D03*
Y-163274D02*
D03*
X108516Y-150774D02*
D03*
X121016D02*
D03*
X108516Y-163274D02*
D03*
X121016Y-175774D02*
D03*
X133516D02*
D03*
X121016Y-163274D02*
D03*
X108516Y-175774D02*
D03*
D46*
X263596Y-14224D02*
D03*
X281996D02*
D03*
X64206Y-278384D02*
D03*
X82606D02*
D03*
D47*
X277706Y-30480D02*
D03*
X262806D02*
D03*
X319702Y-42673D02*
D03*
X334602D02*
D03*
X189146Y-261874D02*
D03*
X113876Y-261874D02*
D03*
X64686Y-261874D02*
D03*
X204046D02*
D03*
X98976Y-261874D02*
D03*
X79586Y-261874D02*
D03*
D48*
X181104Y-4064D02*
D03*
X213104D02*
D03*
X166624D02*
D03*
X134624D02*
D03*
X239525Y96485D02*
D03*
X271525D02*
D03*
D49*
X189854Y23876D02*
D03*
X204354D02*
D03*
X333894Y-13717D02*
D03*
X319394D02*
D03*
X319394Y-28449D02*
D03*
X333894D02*
D03*
X252615Y115281D02*
D03*
X238115D02*
D03*
X189346Y-275844D02*
D03*
X314569Y-179359D02*
D03*
X329069D02*
D03*
X328815Y-164627D02*
D03*
X314315D02*
D03*
X203846Y-275844D02*
D03*
X118756Y-277114D02*
D03*
X104256D02*
D03*
D50*
X319024Y59492D02*
D03*
Y41092D02*
D03*
D51*
X396282Y-65600D02*
D03*
Y-60600D02*
D03*
Y-55600D02*
D03*
Y-50600D02*
D03*
Y-45600D02*
D03*
Y-40600D02*
D03*
Y-35600D02*
D03*
Y-30600D02*
D03*
Y-25600D02*
D03*
Y-20600D02*
D03*
Y-15600D02*
D03*
Y-10600D02*
D03*
X413282Y-13100D02*
D03*
Y-18100D02*
D03*
Y-23100D02*
D03*
Y-28100D02*
D03*
Y-33100D02*
D03*
Y-38100D02*
D03*
Y-43100D02*
D03*
Y-48100D02*
D03*
Y-53100D02*
D03*
Y-58100D02*
D03*
Y-63100D02*
D03*
Y-68100D02*
D03*
D52*
X275316Y-364124D02*
D03*
X290316D02*
D03*
X215416D02*
D03*
X230416D02*
D03*
D53*
X305309Y-213489D02*
D03*
X295809Y-193489D02*
D03*
X314809D02*
D03*
X338329Y-213489D02*
D03*
X328829Y-193489D02*
D03*
X347829D02*
D03*
D54*
X360172Y-94236D02*
D03*
Y-126236D02*
D03*
X352552Y-43940D02*
D03*
Y-11940D02*
D03*
X448021Y22689D02*
D03*
Y54689D02*
D03*
D55*
X322580Y-144152D02*
D03*
Y-129152D02*
D03*
D56*
X317368Y-90344D02*
D03*
D57*
X332368Y-113844D02*
D03*
X327368D02*
D03*
X322368D02*
D03*
X317368D02*
D03*
X312368D02*
D03*
X307368D02*
D03*
X302368D02*
D03*
Y-66844D02*
D03*
X307368D02*
D03*
X312368D02*
D03*
X317368D02*
D03*
X322368D02*
D03*
X327368D02*
D03*
X332368D02*
D03*
D58*
X293868Y-105344D02*
D03*
Y-100344D02*
D03*
Y-95344D02*
D03*
Y-90344D02*
D03*
Y-85344D02*
D03*
Y-80344D02*
D03*
Y-75344D02*
D03*
X340868D02*
D03*
Y-80344D02*
D03*
Y-90344D02*
D03*
Y-95344D02*
D03*
Y-100344D02*
D03*
Y-105344D02*
D03*
Y-85344D02*
D03*
D59*
X234208Y29972D02*
D03*
D60*
X300208Y52872D02*
D03*
Y29972D02*
D03*
Y7072D02*
D03*
D61*
X239175Y75657D02*
D03*
X271875Y75657D02*
D03*
D62*
X201236Y44746D02*
D03*
X196236D02*
D03*
X191236D02*
D03*
X186236D02*
D03*
X181236D02*
D03*
X176236D02*
D03*
X171236D02*
D03*
X166236D02*
D03*
X161236D02*
D03*
X156236D02*
D03*
X151236D02*
D03*
X146236D02*
D03*
X148736Y61746D02*
D03*
X153736D02*
D03*
X158736D02*
D03*
X163736D02*
D03*
X168736D02*
D03*
X173736D02*
D03*
X178736D02*
D03*
X183736D02*
D03*
X188736D02*
D03*
X193736D02*
D03*
X198736D02*
D03*
X203736D02*
D03*
D63*
X0Y0D02*
D03*
D64*
X364186Y121506D02*
D03*
X303186D02*
D03*
D65*
X295686Y117006D02*
D03*
X371686D02*
D03*
D66*
X312686Y98506D02*
D03*
X354686D02*
D03*
D67*
X427368Y22864D02*
D03*
X427368Y55564D02*
D03*
D68*
X105496Y122428D02*
D03*
X84496D02*
D03*
D69*
X469900Y-104308D02*
D03*
Y-125308D02*
D03*
D70*
X63816Y-60724D02*
D03*
Y-235724D02*
D03*
X76516Y-60724D02*
D03*
X89216D02*
D03*
X101916D02*
D03*
X114616D02*
D03*
X127316D02*
D03*
X140016D02*
D03*
X152716D02*
D03*
X165416D02*
D03*
X178116D02*
D03*
X190816D02*
D03*
X203516D02*
D03*
X216216D02*
D03*
X228916D02*
D03*
Y-235724D02*
D03*
X216216D02*
D03*
X203516D02*
D03*
X190816D02*
D03*
X178116D02*
D03*
X165416D02*
D03*
X152716D02*
D03*
X140016D02*
D03*
X127316D02*
D03*
X114616D02*
D03*
X101916D02*
D03*
X89216D02*
D03*
X76516D02*
D03*
D71*
X415382Y-79400D02*
D03*
X215036Y63846D02*
D03*
D72*
X415382Y3200D02*
D03*
X132436Y63846D02*
D03*
D73*
X474882Y-83000D02*
D03*
Y6800D02*
D03*
X218636Y123346D02*
D03*
X128836D02*
D03*
D74*
X402882Y-74100D02*
D03*
Y-2100D02*
D03*
X209736Y51346D02*
D03*
X137736D02*
D03*
D75*
X452120Y-264668D02*
D03*
D76*
Y-239268D02*
D03*
Y-213868D02*
D03*
Y-188468D02*
D03*
Y-163068D02*
D03*
D77*
X322186Y111506D02*
D03*
X345186D02*
D03*
D78*
X488916Y93576D02*
D03*
X518916Y-326424D02*
D03*
X488916Y-386424D02*
D03*
X428916Y93576D02*
D03*
Y-146424D02*
D03*
X458916Y-326424D02*
D03*
X428916Y-386424D02*
D03*
X368916Y93576D02*
D03*
X398916Y33576D02*
D03*
Y-86424D02*
D03*
Y-206424D02*
D03*
Y-326424D02*
D03*
X368916Y-386424D02*
D03*
X338916Y33576D02*
D03*
X308916Y-266424D02*
D03*
X338916Y-326424D02*
D03*
X308916Y-386424D02*
D03*
X248916Y-26424D02*
D03*
Y-266424D02*
D03*
Y-386424D02*
D03*
X218916Y33576D02*
D03*
Y-86424D02*
D03*
X188916Y-386424D02*
D03*
X158916Y33576D02*
D03*
X128916Y-26424D02*
D03*
X158916Y-86424D02*
D03*
Y-206424D02*
D03*
Y-326424D02*
D03*
X128916Y-386424D02*
D03*
X68916Y93576D02*
D03*
X98916Y33576D02*
D03*
X68916Y-26424D02*
D03*
Y-146424D02*
D03*
X98916Y-206424D02*
D03*
Y-326424D02*
D03*
X68916Y-386424D02*
D03*
X8916Y93576D02*
D03*
X38916Y33576D02*
D03*
Y-326424D02*
D03*
X8916Y-386424D02*
D03*
M02*
