G04*
G04 #@! TF.GenerationSoftware,Altium Limited,Altium Designer,26.5.1 (12)*
G04*
G04 Layer_Color=128*
G04 Board_Origin=11460000|43560000*
%FSLAX44Y44*%
%MOMM*%
G71*
G04*
G04 #@! TF.SameCoordinates,403F51B2-EDFB-421F-B47B-56F750A890EC*
G04*
G04*
G04 #@! TF.FilePolarity,Positive*
G04*
G01*
G75*
%ADD94C,0.1270*%
D94*
X409332Y-79400D02*
X421432D01*
X415382Y-85450D02*
Y-73350D01*
X409332Y3200D02*
X421432D01*
X415382Y-2850D02*
Y9250D01*
X468832Y-83000D02*
X480932D01*
X474882Y-89050D02*
Y-76950D01*
X468832Y6800D02*
X480932D01*
X474882Y750D02*
Y12850D01*
X399632Y-74100D02*
X406132D01*
X402882Y-77350D02*
Y-70850D01*
X397132Y-2100D02*
X408632D01*
X402882Y-7850D02*
Y3650D01*
X446620Y-264668D02*
X457620D01*
X452120Y-270168D02*
Y-259168D01*
X446620Y-239268D02*
X457620D01*
X452120Y-244768D02*
Y-233768D01*
X446620Y-213868D02*
X457620D01*
X452120Y-219368D02*
Y-208368D01*
X446620Y-188468D02*
X457620D01*
X452120Y-193968D02*
Y-182968D01*
X446620Y-163068D02*
X457620D01*
X452120Y-168568D02*
Y-157568D01*
X208986Y63846D02*
X221086D01*
X215036Y57796D02*
Y69896D01*
X126386Y63846D02*
X138486D01*
X132436Y57796D02*
Y69896D01*
X212586Y123346D02*
X224686D01*
X218636Y117296D02*
Y129396D01*
X122786Y123346D02*
X134886D01*
X128836Y117296D02*
Y129396D01*
X206486Y51346D02*
X212986D01*
X209736Y48096D02*
Y54596D01*
X131986Y51346D02*
X143486D01*
X137736Y45596D02*
Y57096D01*
X317686Y111506D02*
X326686D01*
X322186Y107006D02*
Y116006D01*
X340686Y111506D02*
X349686D01*
X345186Y107006D02*
Y116006D01*
X487416Y93576D02*
X490416D01*
X488916Y92076D02*
Y95076D01*
X517416Y-326424D02*
X520416D01*
X518916Y-327924D02*
Y-324924D01*
X487416Y-386424D02*
X490416D01*
X488916Y-387924D02*
Y-384924D01*
X427416Y93576D02*
X430416D01*
X428916Y92076D02*
Y95076D01*
X427416Y-146424D02*
X430416D01*
X428916Y-147924D02*
Y-144924D01*
X457416Y-326424D02*
X460416D01*
X458916Y-327924D02*
Y-324924D01*
X427416Y-386424D02*
X430416D01*
X428916Y-387924D02*
Y-384924D01*
X367416Y93576D02*
X370416D01*
X368916Y92076D02*
Y95076D01*
X397416Y33576D02*
X400416D01*
X398916Y32076D02*
Y35076D01*
X397416Y-86424D02*
X400416D01*
X398916Y-87924D02*
Y-84924D01*
X397416Y-206424D02*
X400416D01*
X398916Y-207924D02*
Y-204924D01*
X397416Y-326424D02*
X400416D01*
X398916Y-327924D02*
Y-324924D01*
X367416Y-386424D02*
X370416D01*
X368916Y-387924D02*
Y-384924D01*
X337416Y33576D02*
X340416D01*
X338916Y32076D02*
Y35076D01*
X307416Y-266424D02*
X310416D01*
X308916Y-267924D02*
Y-264924D01*
X337416Y-326424D02*
X340416D01*
X338916Y-327924D02*
Y-324924D01*
X307416Y-386424D02*
X310416D01*
X308916Y-387924D02*
Y-384924D01*
X247416Y-26424D02*
X250416D01*
X248916Y-27924D02*
Y-24924D01*
X247416Y-266424D02*
X250416D01*
X248916Y-267924D02*
Y-264924D01*
X247416Y-386424D02*
X250416D01*
X248916Y-387924D02*
Y-384924D01*
X217416Y33576D02*
X220416D01*
X218916Y32076D02*
Y35076D01*
X217416Y-86424D02*
X220416D01*
X218916Y-87924D02*
Y-84924D01*
X187416Y-386424D02*
X190416D01*
X188916Y-387924D02*
Y-384924D01*
X157416Y33576D02*
X160416D01*
X158916Y32076D02*
Y35076D01*
X127416Y-26424D02*
X130416D01*
X128916Y-27924D02*
Y-24924D01*
X157416Y-86424D02*
X160416D01*
X158916Y-87924D02*
Y-84924D01*
X157416Y-206424D02*
X160416D01*
X158916Y-207924D02*
Y-204924D01*
X157416Y-326424D02*
X160416D01*
X158916Y-327924D02*
Y-324924D01*
X127416Y-386424D02*
X130416D01*
X128916Y-387924D02*
Y-384924D01*
X67416Y93576D02*
X70416D01*
X68916Y92076D02*
Y95076D01*
X97416Y33576D02*
X100416D01*
X98916Y32076D02*
Y35076D01*
X67416Y-26424D02*
X70416D01*
X68916Y-27924D02*
Y-24924D01*
X67416Y-146424D02*
X70416D01*
X68916Y-147924D02*
Y-144924D01*
X97416Y-206424D02*
X100416D01*
X98916Y-207924D02*
Y-204924D01*
X97416Y-326424D02*
X100416D01*
X98916Y-327924D02*
Y-324924D01*
X67416Y-386424D02*
X70416D01*
X68916Y-387924D02*
Y-384924D01*
X7416Y93576D02*
X10416D01*
X8916Y92076D02*
Y95076D01*
X37416Y33576D02*
X40416D01*
X38916Y32076D02*
Y35076D01*
X37416Y-326424D02*
X40416D01*
X38916Y-327924D02*
Y-324924D01*
X7416Y-386424D02*
X10416D01*
X8916Y-387924D02*
Y-384924D01*
X420394Y103632D02*
X423394D01*
X421894Y102132D02*
Y105132D01*
X256056Y-293116D02*
X259056D01*
X257556Y-294616D02*
Y-291616D01*
X239292Y-292608D02*
X242292D01*
X240792Y-294108D02*
Y-291108D01*
X228116Y-197612D02*
X231116D01*
X229616Y-199112D02*
Y-196112D01*
X223544Y-204724D02*
X226544D01*
X225044Y-206224D02*
Y-203224D01*
X179022Y-277602D02*
X182022D01*
X180522Y-279102D02*
Y-276102D01*
X179094Y-264834D02*
X182094D01*
X180594Y-266334D02*
Y-263334D01*
X120928Y-264534D02*
X123928D01*
X122428Y-266034D02*
Y-263034D01*
X216940Y-258064D02*
X219940D01*
X218440Y-259564D02*
Y-256564D01*
X359688Y-183896D02*
X362688D01*
X361188Y-185396D02*
Y-182396D01*
X358164Y-213360D02*
X361164D01*
X359664Y-214860D02*
Y-211860D01*
X372388Y-262128D02*
X375388D01*
X373888Y-263628D02*
Y-260628D01*
X372570Y-77270D02*
X375570D01*
X374070Y-78770D02*
Y-75770D01*
X372896Y-34036D02*
X375896D01*
X374396Y-35536D02*
Y-32536D01*
X372896Y-42164D02*
X375896D01*
X374396Y-43664D02*
Y-40664D01*
X385088Y55372D02*
X388088D01*
X386588Y53872D02*
Y56872D01*
X270280Y-46760D02*
X273280D01*
X271780Y-48260D02*
Y-45260D01*
X277900Y-50800D02*
X280900D01*
X279400Y-52300D02*
Y-49300D01*
X227144Y-43224D02*
X230144D01*
X228644Y-44724D02*
Y-41724D01*
X291108Y-283464D02*
X294108D01*
X292608Y-284964D02*
Y-281964D01*
X294156Y-215900D02*
X297156D01*
X295656Y-217400D02*
Y-214400D01*
X346988Y-156464D02*
X349988D01*
X348488Y-157964D02*
Y-154964D01*
X331748Y-154432D02*
X334748D01*
X333248Y-155932D02*
Y-152932D01*
X361720Y-272288D02*
X364720D01*
X363220Y-273788D02*
Y-270788D01*
X354608Y77216D02*
X357608D01*
X356108Y75716D02*
Y78716D01*
X312190Y87460D02*
X315190D01*
X313690Y85960D02*
Y88960D01*
X463574Y47298D02*
X466574D01*
X465074Y45798D02*
Y48798D01*
X444743Y63241D02*
X447743D01*
X446243Y61741D02*
Y64741D01*
X458240Y-7620D02*
X461240D01*
X459740Y-9120D02*
Y-6120D01*
X425728Y-31496D02*
X428728D01*
X427228Y-32996D02*
Y-29996D01*
X200176Y106680D02*
X203176D01*
X201676Y105180D02*
Y108180D01*
X166648Y75692D02*
X169648D01*
X168148Y74192D02*
Y77192D01*
X210585Y22098D02*
X213585D01*
X212085Y20598D02*
Y23598D01*
X259796Y117080D02*
X262796D01*
X261296Y115580D02*
Y118580D01*
X433668Y-44664D02*
X436668D01*
X435168Y-46164D02*
Y-43164D01*
X433668Y-36536D02*
X436668D01*
X435168Y-38036D02*
Y-35036D01*
X61238Y-48893D02*
X64238D01*
X62738Y-50393D02*
Y-47393D01*
X223927Y-2794D02*
X226927D01*
X225427Y-4294D02*
Y-1294D01*
X125121Y-5842D02*
X128121D01*
X126621Y-7342D02*
Y-4342D01*
X278791Y104394D02*
X281791D01*
X280291Y102894D02*
Y105894D01*
X200458Y69749D02*
X203458D01*
X201958Y68249D02*
Y71249D01*
X145458Y69749D02*
X148458D01*
X146958Y68249D02*
Y71249D01*
X329591Y42418D02*
X332591D01*
X331091Y40918D02*
Y43918D01*
X310795Y9906D02*
X313795D01*
X312295Y8406D02*
Y11406D01*
X289294Y-6195D02*
X292294D01*
X290794Y-7696D02*
Y-4696D01*
X274428Y-38483D02*
X277428D01*
X275928Y-39983D02*
Y-36983D01*
X291850Y-28265D02*
X294850D01*
X293350Y-29765D02*
Y-26765D01*
X323620Y-50800D02*
X326620D01*
X325120Y-52300D02*
Y-49300D01*
X355370Y-633D02*
X358370D01*
X356870Y-2133D02*
Y867D01*
X419785Y-11322D02*
X422785D01*
X421285Y-12822D02*
Y-9822D01*
X419785Y-66322D02*
X422785D01*
X421285Y-67822D02*
Y-64822D01*
X360450Y-137543D02*
X363450D01*
X361950Y-139043D02*
Y-136043D01*
X140019Y-161496D02*
X143019D01*
X141519Y-162996D02*
Y-159996D01*
X99013Y-152552D02*
X102013D01*
X100513Y-154052D02*
Y-151052D01*
X99013Y-165052D02*
X102013D01*
X100513Y-166552D02*
Y-163552D01*
X134390Y-185803D02*
X137390D01*
X135890Y-187303D02*
Y-184303D01*
X122198Y-185803D02*
X125198D01*
X123698Y-187303D02*
Y-184303D01*
X108482Y-186311D02*
X111482D01*
X109982Y-187811D02*
Y-184811D01*
X60730Y-223645D02*
X63730D01*
X62230Y-225145D02*
Y-222145D01*
X63016Y-293116D02*
X66016D01*
X64516Y-294616D02*
Y-291616D01*
X306582Y-28265D02*
X309582D01*
X308082Y-29765D02*
Y-26765D01*
X82320Y-292608D02*
X85320D01*
X83820Y-294108D02*
Y-291108D01*
X102132Y-129032D02*
X105132D01*
X103632Y-130532D02*
Y-127532D01*
X112800Y-136144D02*
X115800D01*
X114300Y-137644D02*
Y-134644D01*
X310920Y-147828D02*
X313920D01*
X312420Y-149328D02*
Y-146328D01*
X320572Y-153416D02*
X323572D01*
X322072Y-154916D02*
Y-151916D01*
X178800Y83632D02*
X181800D01*
X180300Y82132D02*
Y85132D01*
X168172Y22860D02*
X171172D01*
X169672Y21360D02*
Y24360D01*
X176300Y22860D02*
X179300D01*
X177800Y21360D02*
Y24360D01*
X170672Y83632D02*
X173672D01*
X172172Y82132D02*
Y85132D01*
M02*
