G04*
G04 #@! TF.GenerationSoftware,Altium Limited,Altium Designer,26.5.1 (12)*
G04*
G04 Layer_Color=16711935*
G04 Board_Origin=0|0*
%FSLAX44Y44*%
%MOMM*%
G71*
G04*
G04 #@! TF.SameCoordinates,86134935-5161-41E9-9ADC-20EAF1A2777D*
G04*
G04*
G04 #@! TF.FilePolarity,Negative*
G04*
G01*
G75*
G04:AMPARAMS|DCode=11|XSize=0.8mm|YSize=0.95mm|CornerRadius=0.1mm|HoleSize=0mm|Usage=FLASHONLY|Rotation=180.000|XOffset=0mm|YOffset=0mm|HoleType=Round|Shape=RoundedRectangle|*
%AMROUNDEDRECTD11*
21,1,0.8000,0.7500,0,0,180.0*
21,1,0.6000,0.9500,0,0,180.0*
1,1,0.2000,-0.3000,0.3750*
1,1,0.2000,0.3000,0.3750*
1,1,0.2000,0.3000,-0.3750*
1,1,0.2000,-0.3000,-0.3750*
%
%ADD11ROUNDEDRECTD11*%
%ADD12R,1.7000X1.7000*%
%ADD13C,1.7000*%
%ADD14C,3.0000*%
%ADD15C,2.0000*%
G04:AMPARAMS|DCode=16|XSize=2.1mm|YSize=3.6mm|CornerRadius=1.05mm|HoleSize=0mm|Usage=FLASHONLY|Rotation=90.000|XOffset=0mm|YOffset=0mm|HoleType=Round|Shape=RoundedRectangle|*
%AMROUNDEDRECTD16*
21,1,2.1000,1.5000,0,0,90.0*
21,1,0.0000,3.6000,0,0,90.0*
1,1,2.1000,0.7500,0.0000*
1,1,2.1000,0.7500,0.0000*
1,1,2.1000,-0.7500,0.0000*
1,1,2.1000,-0.7500,0.0000*
%
%ADD16ROUNDEDRECTD16*%
G04:AMPARAMS|DCode=17|XSize=2.1mm|YSize=3.6mm|CornerRadius=0.126mm|HoleSize=0mm|Usage=FLASHONLY|Rotation=90.000|XOffset=0mm|YOffset=0mm|HoleType=Round|Shape=RoundedRectangle|*
%AMROUNDEDRECTD17*
21,1,2.1000,3.3480,0,0,90.0*
21,1,1.8480,3.6000,0,0,90.0*
1,1,0.2520,1.6740,0.9240*
1,1,0.2520,1.6740,-0.9240*
1,1,0.2520,-1.6740,-0.9240*
1,1,0.2520,-1.6740,0.9240*
%
%ADD17ROUNDEDRECTD17*%
%ADD18C,2.4000*%
G04:AMPARAMS|DCode=19|XSize=2.4mm|YSize=2.4mm|CornerRadius=0.12mm|HoleSize=0mm|Usage=FLASHONLY|Rotation=270.000|XOffset=0mm|YOffset=0mm|HoleType=Round|Shape=RoundedRectangle|*
%AMROUNDEDRECTD19*
21,1,2.4000,2.1600,0,0,270.0*
21,1,2.1600,2.4000,0,0,270.0*
1,1,0.2400,-1.0800,-1.0800*
1,1,0.2400,-1.0800,1.0800*
1,1,0.2400,1.0800,1.0800*
1,1,0.2400,1.0800,-1.0800*
%
%ADD19ROUNDEDRECTD19*%
G04:AMPARAMS|DCode=28|XSize=0.9mm|YSize=0.95mm|CornerRadius=0.1125mm|HoleSize=0mm|Usage=FLASHONLY|Rotation=270.000|XOffset=0mm|YOffset=0mm|HoleType=Round|Shape=RoundedRectangle|*
%AMROUNDEDRECTD28*
21,1,0.9000,0.7250,0,0,270.0*
21,1,0.6750,0.9500,0,0,270.0*
1,1,0.2250,-0.3625,-0.3375*
1,1,0.2250,-0.3625,0.3375*
1,1,0.2250,0.3625,0.3375*
1,1,0.2250,0.3625,-0.3375*
%
%ADD28ROUNDEDRECTD28*%
G04:AMPARAMS|DCode=29|XSize=1.475mm|YSize=0.6mm|CornerRadius=0.075mm|HoleSize=0mm|Usage=FLASHONLY|Rotation=180.000|XOffset=0mm|YOffset=0mm|HoleType=Round|Shape=RoundedRectangle|*
%AMROUNDEDRECTD29*
21,1,1.4750,0.4500,0,0,180.0*
21,1,1.3250,0.6000,0,0,180.0*
1,1,0.1500,-0.6625,0.2250*
1,1,0.1500,0.6625,0.2250*
1,1,0.1500,0.6625,-0.2250*
1,1,0.1500,-0.6625,-0.2250*
%
%ADD29ROUNDEDRECTD29*%
G04:AMPARAMS|DCode=30|XSize=0.8mm|YSize=0.95mm|CornerRadius=0.1mm|HoleSize=0mm|Usage=FLASHONLY|Rotation=270.000|XOffset=0mm|YOffset=0mm|HoleType=Round|Shape=RoundedRectangle|*
%AMROUNDEDRECTD30*
21,1,0.8000,0.7500,0,0,270.0*
21,1,0.6000,0.9500,0,0,270.0*
1,1,0.2000,-0.3750,-0.3000*
1,1,0.2000,-0.3750,0.3000*
1,1,0.2000,0.3750,0.3000*
1,1,0.2000,0.3750,-0.3000*
%
%ADD30ROUNDEDRECTD30*%
G04:AMPARAMS|DCode=31|XSize=1.475mm|YSize=0.4mm|CornerRadius=0.05mm|HoleSize=0mm|Usage=FLASHONLY|Rotation=270.000|XOffset=0mm|YOffset=0mm|HoleType=Round|Shape=RoundedRectangle|*
%AMROUNDEDRECTD31*
21,1,1.4750,0.3000,0,0,270.0*
21,1,1.3750,0.4000,0,0,270.0*
1,1,0.1000,-0.1500,-0.6875*
1,1,0.1000,-0.1500,0.6875*
1,1,0.1000,0.1500,0.6875*
1,1,0.1000,0.1500,-0.6875*
%
%ADD31ROUNDEDRECTD31*%
G04:AMPARAMS|DCode=32|XSize=1.3mm|YSize=1.7mm|CornerRadius=0.1235mm|HoleSize=0mm|Usage=FLASHONLY|Rotation=270.000|XOffset=0mm|YOffset=0mm|HoleType=Round|Shape=RoundedRectangle|*
%AMROUNDEDRECTD32*
21,1,1.3000,1.4530,0,0,270.0*
21,1,1.0530,1.7000,0,0,270.0*
1,1,0.2470,-0.7265,-0.5265*
1,1,0.2470,-0.7265,0.5265*
1,1,0.2470,0.7265,0.5265*
1,1,0.2470,0.7265,-0.5265*
%
%ADD32ROUNDEDRECTD32*%
D11*
X515530Y1499898D02*
D03*
X499030D02*
D03*
X515530Y1515898D02*
D03*
X499030D02*
D03*
X384730Y2482898D02*
D03*
X401230D02*
D03*
X384730Y1606898D02*
D03*
X401230D02*
D03*
X387730Y1422398D02*
D03*
X404230D02*
D03*
X384730Y2644898D02*
D03*
X401230D02*
D03*
X384730Y2206898D02*
D03*
X401230D02*
D03*
X515530Y2522898D02*
D03*
X499030D02*
D03*
X515530Y2377898D02*
D03*
X499030D02*
D03*
X512230Y1792898D02*
D03*
X495730D02*
D03*
X515530Y2245898D02*
D03*
X499030D02*
D03*
X384730Y2351898D02*
D03*
X401230D02*
D03*
X384730Y3083898D02*
D03*
X401230D02*
D03*
X384730Y2335898D02*
D03*
X401230D02*
D03*
X384730Y2060898D02*
D03*
X401230D02*
D03*
X515530Y2666898D02*
D03*
X499030D02*
D03*
X515230Y1646898D02*
D03*
X498730D02*
D03*
X515530Y2393898D02*
D03*
X499030D02*
D03*
X384730Y2498898D02*
D03*
X401230D02*
D03*
X512230Y1808898D02*
D03*
X495730D02*
D03*
X515230Y1662898D02*
D03*
X498730D02*
D03*
X515530Y2977898D02*
D03*
X499030D02*
D03*
X515530Y2682898D02*
D03*
X499030D02*
D03*
X384730Y1897898D02*
D03*
X401230D02*
D03*
X384730Y2628898D02*
D03*
X401230D02*
D03*
X384730Y1913598D02*
D03*
X401230D02*
D03*
X515530Y2229898D02*
D03*
X499030D02*
D03*
X387730Y1463898D02*
D03*
X404230D02*
D03*
X384730Y1749898D02*
D03*
X401230D02*
D03*
X515530Y2538898D02*
D03*
X499030D02*
D03*
X384730Y2918898D02*
D03*
X401230D02*
D03*
X384730Y2190898D02*
D03*
X401230D02*
D03*
X384730Y2044898D02*
D03*
X401230D02*
D03*
X515530Y2960898D02*
D03*
X499030D02*
D03*
X384730Y3067898D02*
D03*
X401230D02*
D03*
X515530Y2100898D02*
D03*
X499030D02*
D03*
X515530Y1938298D02*
D03*
X499030D02*
D03*
X727730Y3190898D02*
D03*
X744230D02*
D03*
X384730Y2773898D02*
D03*
X401230D02*
D03*
X515530Y2829898D02*
D03*
X499030D02*
D03*
X384730Y2934898D02*
D03*
X401230D02*
D03*
X384730Y2790398D02*
D03*
X401230D02*
D03*
X384730Y1766898D02*
D03*
X401230D02*
D03*
X515530Y1953898D02*
D03*
X499030D02*
D03*
X515530Y2813898D02*
D03*
X499030D02*
D03*
X384730Y1622898D02*
D03*
X401230D02*
D03*
X515530Y2084898D02*
D03*
X499030D02*
D03*
D12*
X411880Y3271398D02*
D03*
X411480Y1288598D02*
D03*
D13*
X437280Y3271398D02*
D03*
X462680D02*
D03*
X488080D02*
D03*
X487680Y1288598D02*
D03*
X462280D02*
D03*
X436880D02*
D03*
D14*
X229980Y1441398D02*
D03*
X699980Y1336398D02*
D03*
X199980Y3246398D02*
D03*
X699980Y3141398D02*
D03*
D15*
X392980Y3001361D02*
D03*
Y2963861D02*
D03*
Y3038861D02*
D03*
X139580D02*
D03*
Y2963861D02*
D03*
X239980Y3038861D02*
D03*
Y2963861D02*
D03*
X189980Y3038861D02*
D03*
Y2963861D02*
D03*
X507280Y2894125D02*
D03*
Y2931625D02*
D03*
Y2856625D02*
D03*
X760680D02*
D03*
Y2931625D02*
D03*
X660280Y2856625D02*
D03*
Y2931625D02*
D03*
X710280Y2856625D02*
D03*
Y2931625D02*
D03*
X507280Y1872316D02*
D03*
Y1909816D02*
D03*
Y1834816D02*
D03*
X760680D02*
D03*
Y1909816D02*
D03*
X660280Y1834816D02*
D03*
Y1909816D02*
D03*
X710280Y1834816D02*
D03*
Y1909816D02*
D03*
X392980Y2563252D02*
D03*
Y2525752D02*
D03*
Y2600752D02*
D03*
X139580D02*
D03*
Y2525752D02*
D03*
X239980Y2600752D02*
D03*
Y2525752D02*
D03*
X189980Y2600752D02*
D03*
Y2525752D02*
D03*
X392980Y2125143D02*
D03*
Y2087643D02*
D03*
Y2162643D02*
D03*
X139580D02*
D03*
Y2087643D02*
D03*
X239980Y2162643D02*
D03*
Y2087643D02*
D03*
X189980Y2162643D02*
D03*
Y2087643D02*
D03*
X392980Y2709289D02*
D03*
Y2671789D02*
D03*
Y2746789D02*
D03*
X139580D02*
D03*
Y2671789D02*
D03*
X239980Y2746789D02*
D03*
Y2671789D02*
D03*
X189980Y2746789D02*
D03*
Y2671789D02*
D03*
X392980Y1979107D02*
D03*
Y1941607D02*
D03*
Y2016607D02*
D03*
X139580D02*
D03*
Y1941607D02*
D03*
X239980Y2016607D02*
D03*
Y1941607D02*
D03*
X189980Y2016607D02*
D03*
Y1941607D02*
D03*
X392980Y1687034D02*
D03*
Y1649534D02*
D03*
Y1724534D02*
D03*
X139580D02*
D03*
Y1649534D02*
D03*
X239980Y1724534D02*
D03*
Y1649534D02*
D03*
X189980Y1724534D02*
D03*
Y1649534D02*
D03*
X507280Y1726343D02*
D03*
Y1763843D02*
D03*
Y1688843D02*
D03*
X760680D02*
D03*
Y1763843D02*
D03*
X660280Y1688843D02*
D03*
Y1763843D02*
D03*
X710280Y1688843D02*
D03*
Y1763843D02*
D03*
X507280Y2164261D02*
D03*
Y2201761D02*
D03*
Y2126761D02*
D03*
X760680D02*
D03*
Y2201761D02*
D03*
X660280Y2126761D02*
D03*
Y2201761D02*
D03*
X710280Y2126761D02*
D03*
Y2201761D02*
D03*
X392980Y3147398D02*
D03*
Y3109898D02*
D03*
Y3184898D02*
D03*
X139580D02*
D03*
Y3109898D02*
D03*
X239980Y3184898D02*
D03*
Y3109898D02*
D03*
X189980Y3184898D02*
D03*
Y3109898D02*
D03*
X392980Y1833071D02*
D03*
Y1795571D02*
D03*
Y1870571D02*
D03*
X139580D02*
D03*
Y1795571D02*
D03*
X239980Y1870571D02*
D03*
Y1795571D02*
D03*
X189980Y1870571D02*
D03*
Y1795571D02*
D03*
X507280Y2456207D02*
D03*
Y2493707D02*
D03*
Y2418707D02*
D03*
X760680D02*
D03*
Y2493707D02*
D03*
X660280Y2418707D02*
D03*
Y2493707D02*
D03*
X710280Y2418707D02*
D03*
Y2493707D02*
D03*
X507280Y2018289D02*
D03*
Y2055789D02*
D03*
Y1980789D02*
D03*
X760680D02*
D03*
Y2055789D02*
D03*
X660280Y1980789D02*
D03*
Y2055789D02*
D03*
X710280Y1980789D02*
D03*
Y2055789D02*
D03*
X507280Y2602180D02*
D03*
Y2639680D02*
D03*
Y2564680D02*
D03*
X760680D02*
D03*
Y2639680D02*
D03*
X660280Y2564680D02*
D03*
Y2639680D02*
D03*
X710280Y2564680D02*
D03*
Y2639680D02*
D03*
X392980Y2271180D02*
D03*
Y2233680D02*
D03*
Y2308680D02*
D03*
X139580D02*
D03*
Y2233680D02*
D03*
X239980Y2308680D02*
D03*
Y2233680D02*
D03*
X189980Y2308680D02*
D03*
Y2233680D02*
D03*
X507280Y1434398D02*
D03*
Y1471898D02*
D03*
Y1396898D02*
D03*
X760680D02*
D03*
Y1471898D02*
D03*
X660280Y1396898D02*
D03*
Y1471898D02*
D03*
X710280Y1396898D02*
D03*
Y1471898D02*
D03*
X392980Y2855325D02*
D03*
Y2817825D02*
D03*
Y2892825D02*
D03*
X139580D02*
D03*
Y2817825D02*
D03*
X239980Y2892825D02*
D03*
Y2817825D02*
D03*
X189980Y2892825D02*
D03*
Y2817825D02*
D03*
X392980Y1540998D02*
D03*
Y1503498D02*
D03*
Y1578498D02*
D03*
X139580D02*
D03*
Y1503498D02*
D03*
X239980Y1578498D02*
D03*
Y1503498D02*
D03*
X189980Y1578498D02*
D03*
Y1503498D02*
D03*
X392980Y2417216D02*
D03*
Y2379716D02*
D03*
Y2454716D02*
D03*
X139580D02*
D03*
Y2379716D02*
D03*
X239980Y2454716D02*
D03*
Y2379716D02*
D03*
X189980Y2454716D02*
D03*
Y2379716D02*
D03*
X507280Y1580370D02*
D03*
Y1617870D02*
D03*
Y1542870D02*
D03*
X760680D02*
D03*
Y1617870D02*
D03*
X660280Y1542870D02*
D03*
Y1617870D02*
D03*
X710280Y1542870D02*
D03*
Y1617870D02*
D03*
X507280Y2310234D02*
D03*
Y2347734D02*
D03*
Y2272734D02*
D03*
X760680D02*
D03*
Y2347734D02*
D03*
X660280Y2272734D02*
D03*
Y2347734D02*
D03*
X710280Y2272734D02*
D03*
Y2347734D02*
D03*
X507280Y2748152D02*
D03*
Y2785652D02*
D03*
Y2710652D02*
D03*
X760680D02*
D03*
Y2785652D02*
D03*
X660280Y2710652D02*
D03*
Y2785652D02*
D03*
X710280Y2710652D02*
D03*
Y2785652D02*
D03*
X507280Y3040098D02*
D03*
Y3077598D02*
D03*
Y3002598D02*
D03*
X760680D02*
D03*
Y3077598D02*
D03*
X660280Y3002598D02*
D03*
Y3077598D02*
D03*
X710280Y3002598D02*
D03*
Y3077598D02*
D03*
D16*
X832280Y1897716D02*
D03*
Y2335634D02*
D03*
X67780Y2829925D02*
D03*
X832280Y2773553D02*
D03*
Y3065498D02*
D03*
X67780Y1515598D02*
D03*
X832280Y2919525D02*
D03*
Y2481607D02*
D03*
X67780Y2391816D02*
D03*
X832280Y1751743D02*
D03*
X67780Y2683889D02*
D03*
X832280Y1459798D02*
D03*
Y1605771D02*
D03*
X67780Y1807670D02*
D03*
Y2099743D02*
D03*
Y2245780D02*
D03*
Y3121998D02*
D03*
X832280Y2043689D02*
D03*
X67780Y2537852D02*
D03*
X832280Y2627580D02*
D03*
X67780Y1953707D02*
D03*
X832280Y2189662D02*
D03*
X67780Y2975962D02*
D03*
Y1661634D02*
D03*
D17*
X832280Y1846916D02*
D03*
Y2284834D02*
D03*
X67780Y2880725D02*
D03*
X832280Y2722752D02*
D03*
Y3014698D02*
D03*
X67780Y1566398D02*
D03*
X832280Y2868725D02*
D03*
Y2430807D02*
D03*
X67780Y2442616D02*
D03*
X832280Y1700943D02*
D03*
X67780Y2734689D02*
D03*
X832280Y1408998D02*
D03*
Y1554971D02*
D03*
X67780Y1858470D02*
D03*
Y2150543D02*
D03*
Y2296580D02*
D03*
Y3172798D02*
D03*
X832280Y1992889D02*
D03*
X67780Y2588652D02*
D03*
X832280Y2576779D02*
D03*
X67780Y2004507D02*
D03*
X832280Y2138862D02*
D03*
X67780Y3026761D02*
D03*
Y1712434D02*
D03*
D18*
X597280Y3216137D02*
D03*
X799280D02*
D03*
D19*
X597280Y3266137D02*
D03*
X799280D02*
D03*
D28*
X438980Y2118712D02*
D03*
Y2134211D02*
D03*
X496480Y1322898D02*
D03*
Y1338398D02*
D03*
X457580Y1510648D02*
D03*
Y1495148D02*
D03*
Y2757023D02*
D03*
Y2741523D02*
D03*
X439880Y2482848D02*
D03*
Y2498348D02*
D03*
X438980Y2337130D02*
D03*
Y2352630D02*
D03*
Y1422148D02*
D03*
Y1437648D02*
D03*
X457580Y2389748D02*
D03*
Y2374248D02*
D03*
X438980Y2704498D02*
D03*
Y2719998D02*
D03*
X457580Y1806523D02*
D03*
Y1791023D02*
D03*
Y2024448D02*
D03*
Y2008948D02*
D03*
X474380Y1732284D02*
D03*
Y1716784D02*
D03*
X189480Y1337648D02*
D03*
Y1353148D02*
D03*
X457580Y3050748D02*
D03*
Y3035248D02*
D03*
X438980Y1459348D02*
D03*
Y1474848D02*
D03*
Y2628348D02*
D03*
Y2643848D02*
D03*
Y2850348D02*
D03*
Y2865848D02*
D03*
X457580Y2170393D02*
D03*
Y2154893D02*
D03*
Y2462466D02*
D03*
Y2446966D02*
D03*
Y2244748D02*
D03*
Y2229248D02*
D03*
X438980Y2924148D02*
D03*
Y2939648D02*
D03*
X437480Y2047739D02*
D03*
Y2063239D02*
D03*
X438980Y2778148D02*
D03*
Y2793648D02*
D03*
X457580Y2832348D02*
D03*
Y2816848D02*
D03*
X438980Y2410657D02*
D03*
Y2426157D02*
D03*
Y1534821D02*
D03*
Y1550320D02*
D03*
Y2994748D02*
D03*
Y3010248D02*
D03*
X631980Y1314648D02*
D03*
Y1330148D02*
D03*
X474380Y1660648D02*
D03*
Y1645148D02*
D03*
X418980Y1338148D02*
D03*
Y1353648D02*
D03*
X421980Y1901448D02*
D03*
Y1916948D02*
D03*
X457580Y2316430D02*
D03*
Y2300930D02*
D03*
X421980Y1827066D02*
D03*
Y1842566D02*
D03*
X457580Y2976048D02*
D03*
Y2960548D02*
D03*
X262980Y1337648D02*
D03*
Y1353148D02*
D03*
X457580Y2904523D02*
D03*
Y2889023D02*
D03*
Y2097948D02*
D03*
Y2082448D02*
D03*
X438980Y1972739D02*
D03*
Y1988239D02*
D03*
Y2264684D02*
D03*
Y2280184D02*
D03*
Y2193712D02*
D03*
Y2209211D02*
D03*
Y3078148D02*
D03*
Y3093648D02*
D03*
X457580Y1953939D02*
D03*
Y1938439D02*
D03*
Y1878320D02*
D03*
Y1862820D02*
D03*
X456480Y3140548D02*
D03*
Y3125048D02*
D03*
X438980Y1609848D02*
D03*
Y1625348D02*
D03*
Y1680848D02*
D03*
Y1696348D02*
D03*
Y2556630D02*
D03*
Y2572130D02*
D03*
X457580Y2682748D02*
D03*
Y2667248D02*
D03*
X421980Y1756093D02*
D03*
Y1771593D02*
D03*
X457580Y2609248D02*
D03*
Y2593748D02*
D03*
Y1586248D02*
D03*
Y1570748D02*
D03*
X335980Y1337648D02*
D03*
Y1353148D02*
D03*
X458480Y2534048D02*
D03*
Y2518548D02*
D03*
X456480Y3192648D02*
D03*
Y3177148D02*
D03*
D29*
X417705Y2307805D02*
D03*
X436455Y2298305D02*
D03*
Y2317305D02*
D03*
X417705Y2161768D02*
D03*
X436455Y2152268D02*
D03*
Y2171268D02*
D03*
X478955Y1617870D02*
D03*
X460205Y1627370D02*
D03*
Y1608371D02*
D03*
X417705Y1869695D02*
D03*
X436455Y1860195D02*
D03*
Y1879196D02*
D03*
X417605Y3042998D02*
D03*
X436355Y3033498D02*
D03*
Y3052498D02*
D03*
X417705Y2823723D02*
D03*
X436455Y2814223D02*
D03*
Y2833223D02*
D03*
X478955Y2858398D02*
D03*
X460205Y2867898D02*
D03*
Y2848898D02*
D03*
X417705Y2089323D02*
D03*
X436455Y2079823D02*
D03*
Y2098823D02*
D03*
X478955Y3001998D02*
D03*
X460205Y3011498D02*
D03*
Y2992498D02*
D03*
X415705Y3132298D02*
D03*
X434455Y3122798D02*
D03*
Y3141798D02*
D03*
X479855Y2490898D02*
D03*
X461105Y2500398D02*
D03*
Y2481398D02*
D03*
X417605Y1724534D02*
D03*
X436355Y1715034D02*
D03*
Y1734034D02*
D03*
X417605Y1502898D02*
D03*
X436355Y1493398D02*
D03*
Y1512398D02*
D03*
X478955Y3085798D02*
D03*
X460205Y3095298D02*
D03*
Y3076298D02*
D03*
X765355Y3215898D02*
D03*
X746605Y3225398D02*
D03*
Y3206398D02*
D03*
X417705Y2525423D02*
D03*
X436455Y2515923D02*
D03*
Y2534923D02*
D03*
X478955Y2126761D02*
D03*
X460205Y2136261D02*
D03*
Y2117261D02*
D03*
X417705Y1797898D02*
D03*
X436455Y1788398D02*
D03*
Y1807398D02*
D03*
X417605Y2968298D02*
D03*
X436355Y2958798D02*
D03*
Y2977798D02*
D03*
X478955Y1834816D02*
D03*
X460205Y1844316D02*
D03*
Y1825316D02*
D03*
X417705Y2015823D02*
D03*
X436455Y2006323D02*
D03*
Y2025323D02*
D03*
X478955Y1980789D02*
D03*
X460205Y1990289D02*
D03*
Y1971289D02*
D03*
X478955Y2418707D02*
D03*
X460205Y2428207D02*
D03*
Y2409207D02*
D03*
X417705Y2236123D02*
D03*
X436455Y2226623D02*
D03*
Y2245623D02*
D03*
X478955Y2345180D02*
D03*
X460205Y2354680D02*
D03*
Y2335680D02*
D03*
X478955Y1429898D02*
D03*
X460205Y1439398D02*
D03*
Y1420398D02*
D03*
X478955Y2201761D02*
D03*
X460205Y2211261D02*
D03*
Y2192262D02*
D03*
X478955Y2055789D02*
D03*
X460205Y2065289D02*
D03*
Y2046289D02*
D03*
X417705Y2600623D02*
D03*
X436455Y2591123D02*
D03*
Y2610123D02*
D03*
X478955Y1467398D02*
D03*
X460205Y1476898D02*
D03*
Y1457898D02*
D03*
X478955Y2710798D02*
D03*
X460205Y2720298D02*
D03*
Y2701298D02*
D03*
X478955Y2564680D02*
D03*
X460205Y2574180D02*
D03*
Y2555180D02*
D03*
X417705Y2674123D02*
D03*
X436455Y2664623D02*
D03*
Y2683623D02*
D03*
X478955Y2932198D02*
D03*
X460205Y2941698D02*
D03*
Y2922698D02*
D03*
X415705Y3184898D02*
D03*
X434455Y3175398D02*
D03*
Y3194398D02*
D03*
X478955Y1909198D02*
D03*
X460205Y1918698D02*
D03*
Y1899698D02*
D03*
X417605Y1652898D02*
D03*
X436355Y1643398D02*
D03*
Y1662398D02*
D03*
X417705Y2895898D02*
D03*
X436455Y2886398D02*
D03*
Y2905398D02*
D03*
X478955Y1542870D02*
D03*
X460205Y1552371D02*
D03*
Y1533371D02*
D03*
X478955Y2786198D02*
D03*
X460205Y2795698D02*
D03*
Y2776698D02*
D03*
X417705Y1945523D02*
D03*
X436455Y1936023D02*
D03*
Y1955023D02*
D03*
X478955Y1763843D02*
D03*
X460205Y1773343D02*
D03*
Y1754343D02*
D03*
X478955Y2636398D02*
D03*
X460205Y2645898D02*
D03*
Y2626898D02*
D03*
X417705Y2453841D02*
D03*
X436455Y2444341D02*
D03*
Y2463341D02*
D03*
X478955Y1688843D02*
D03*
X460205Y1698343D02*
D03*
Y1679343D02*
D03*
X417705Y2748398D02*
D03*
X436455Y2738898D02*
D03*
Y2757898D02*
D03*
X417605Y1578498D02*
D03*
X436355Y1568998D02*
D03*
Y1587998D02*
D03*
X417705Y2381123D02*
D03*
X436455Y2371623D02*
D03*
Y2390623D02*
D03*
X478955Y2272734D02*
D03*
X460205Y2282234D02*
D03*
Y2263234D02*
D03*
D30*
X489980Y3124648D02*
D03*
Y3141148D02*
D03*
X438980Y1826266D02*
D03*
Y1842766D02*
D03*
X421980Y2193512D02*
D03*
Y2210011D02*
D03*
X474380Y2098448D02*
D03*
Y2081948D02*
D03*
Y2462966D02*
D03*
Y2446466D02*
D03*
X421980Y2923948D02*
D03*
Y2940448D02*
D03*
X474380Y2609748D02*
D03*
Y2593248D02*
D03*
X421980Y1609648D02*
D03*
Y1626148D02*
D03*
X474380Y3051248D02*
D03*
Y3034748D02*
D03*
Y2905023D02*
D03*
Y2888523D02*
D03*
X422880Y2482648D02*
D03*
Y2499148D02*
D03*
X474380Y2245248D02*
D03*
Y2228748D02*
D03*
X421980Y2994548D02*
D03*
Y3011048D02*
D03*
X474380Y2024948D02*
D03*
Y2008448D02*
D03*
Y2683248D02*
D03*
Y2666748D02*
D03*
X421980Y2777948D02*
D03*
Y2794448D02*
D03*
X474380Y1586748D02*
D03*
Y1570248D02*
D03*
X421980Y2628148D02*
D03*
Y2644648D02*
D03*
Y2118512D02*
D03*
Y2135011D02*
D03*
Y2264484D02*
D03*
Y2280984D02*
D03*
X474380Y1878820D02*
D03*
Y1862321D02*
D03*
X421980Y2556430D02*
D03*
Y2572930D02*
D03*
X724980Y3207648D02*
D03*
Y3224148D02*
D03*
X474380Y1954648D02*
D03*
Y1938148D02*
D03*
X421980Y2850148D02*
D03*
Y2866648D02*
D03*
X518000Y3262750D02*
D03*
Y3279250D02*
D03*
X474380Y2832848D02*
D03*
Y2816348D02*
D03*
X475280Y2534548D02*
D03*
Y2518048D02*
D03*
X457580Y1661148D02*
D03*
Y1644648D02*
D03*
X421980Y1534621D02*
D03*
Y1551120D02*
D03*
X474380Y2976548D02*
D03*
Y2960048D02*
D03*
X421980Y1421648D02*
D03*
Y1438148D02*
D03*
Y1459148D02*
D03*
Y1475648D02*
D03*
X474380Y2757523D02*
D03*
Y2741023D02*
D03*
X421980Y3077948D02*
D03*
Y3094448D02*
D03*
X473980Y3193148D02*
D03*
Y3176648D02*
D03*
X489980D02*
D03*
Y3193148D02*
D03*
X438980Y1900648D02*
D03*
Y1917148D02*
D03*
X474380Y1807023D02*
D03*
Y1790523D02*
D03*
X421980Y2410457D02*
D03*
Y2426957D02*
D03*
X421480Y2047539D02*
D03*
Y2064039D02*
D03*
X474380Y1511148D02*
D03*
Y1494648D02*
D03*
Y2316930D02*
D03*
Y2300430D02*
D03*
X457580Y1732784D02*
D03*
Y1716284D02*
D03*
X421980Y2336930D02*
D03*
Y2353430D02*
D03*
Y1972539D02*
D03*
Y1989039D02*
D03*
X473980Y3141048D02*
D03*
Y3124548D02*
D03*
X438980Y1755293D02*
D03*
Y1771793D02*
D03*
X474380Y2170893D02*
D03*
Y2154393D02*
D03*
Y2390248D02*
D03*
Y2373748D02*
D03*
X421980Y2703798D02*
D03*
Y2720298D02*
D03*
Y1680648D02*
D03*
Y1697148D02*
D03*
D31*
X276230Y1314898D02*
D03*
X282730D02*
D03*
X289230D02*
D03*
X295730D02*
D03*
X302230D02*
D03*
X308730D02*
D03*
X315230D02*
D03*
X321730D02*
D03*
Y1372148D02*
D03*
X315230D02*
D03*
X308730D02*
D03*
X302230D02*
D03*
X295730D02*
D03*
X289230D02*
D03*
X282730D02*
D03*
X276230D02*
D03*
X349730Y1314898D02*
D03*
X356230D02*
D03*
X362730D02*
D03*
X369230D02*
D03*
X375730D02*
D03*
X382230D02*
D03*
X388730D02*
D03*
X395230D02*
D03*
Y1372148D02*
D03*
X388730D02*
D03*
X382230D02*
D03*
X375730D02*
D03*
X369230D02*
D03*
X362730D02*
D03*
X356230D02*
D03*
X349730D02*
D03*
X572230Y1294273D02*
D03*
X578730D02*
D03*
X585230D02*
D03*
X591730D02*
D03*
X598230D02*
D03*
X604730D02*
D03*
X611230D02*
D03*
X617730D02*
D03*
Y1351523D02*
D03*
X611230D02*
D03*
X604730D02*
D03*
X598230D02*
D03*
X591730D02*
D03*
X585230D02*
D03*
X578730D02*
D03*
X572230D02*
D03*
X512230Y1294273D02*
D03*
X518730D02*
D03*
X525230D02*
D03*
X531730D02*
D03*
X538230D02*
D03*
X544730D02*
D03*
X551230D02*
D03*
X557730D02*
D03*
Y1351523D02*
D03*
X551230D02*
D03*
X544730D02*
D03*
X538230D02*
D03*
X531730D02*
D03*
X525230D02*
D03*
X518730D02*
D03*
X512230D02*
D03*
X433480Y1314898D02*
D03*
X439980D02*
D03*
X446480D02*
D03*
X452980D02*
D03*
X459480D02*
D03*
X465980D02*
D03*
X472480D02*
D03*
X478980D02*
D03*
Y1372148D02*
D03*
X472480D02*
D03*
X465980D02*
D03*
X459480D02*
D03*
X452980D02*
D03*
X446480D02*
D03*
X439980D02*
D03*
X433480D02*
D03*
X203230Y1314898D02*
D03*
X209730D02*
D03*
X216230D02*
D03*
X222730D02*
D03*
X229230D02*
D03*
X235730D02*
D03*
X242230D02*
D03*
X248730D02*
D03*
Y1372148D02*
D03*
X242230D02*
D03*
X235730D02*
D03*
X229230D02*
D03*
X222730D02*
D03*
X216230D02*
D03*
X209730D02*
D03*
X203230D02*
D03*
D32*
X691980Y3225173D02*
D03*
Y3260173D02*
D03*
M02*
