G04*
G04 #@! TF.GenerationSoftware,Altium Limited,Altium Designer,26.5.1 (12)*
G04*
G04 Layer_Color=65535*
G04 Board_Origin=0|0*
%FSLAX44Y44*%
%MOMM*%
G71*
G04*
G04 #@! TF.SameCoordinates,75EFAC43-1628-424D-8E1A-596EA3B04155*
G04*
G04*
G04 #@! TF.FilePolarity,Positive*
G04*
G01*
G75*
%ADD10C,0.2540*%
G36*
X940331Y1750181D02*
X941321D01*
Y1749716D01*
X940331D01*
Y1748775D01*
X939915D01*
X937680Y1749743D01*
Y1750181D01*
X940001D01*
Y1750381D01*
X940331D01*
Y1750181D01*
D02*
G37*
G36*
X941170Y1748520D02*
X941181Y1748515D01*
X941186Y1748499D01*
X941202Y1748482D01*
X941235Y1748428D01*
X941267Y1748358D01*
X941305Y1748277D01*
X941338Y1748179D01*
X941359Y1748082D01*
X941370Y1747974D01*
Y1747952D01*
X941365Y1747930D01*
Y1747898D01*
X941354Y1747860D01*
X941343Y1747811D01*
X941332Y1747763D01*
X941311Y1747709D01*
X941283Y1747655D01*
X941256Y1747595D01*
X941219Y1747536D01*
X941170Y1747476D01*
X941116Y1747417D01*
X941056Y1747357D01*
X940981Y1747303D01*
X940899Y1747254D01*
X940894D01*
X940878Y1747243D01*
X940851Y1747233D01*
X940813Y1747216D01*
X940764Y1747195D01*
X940705Y1747173D01*
X940634Y1747151D01*
X940553Y1747130D01*
X940461Y1747108D01*
X940358Y1747086D01*
X940245Y1747065D01*
X940126Y1747043D01*
X939996Y1747027D01*
X939855Y1747016D01*
X939704Y1747011D01*
X939541Y1747005D01*
X939531D01*
X939503D01*
X939455D01*
X939395Y1747011D01*
X939325D01*
X939238Y1747016D01*
X939141Y1747027D01*
X939038Y1747038D01*
X938930Y1747049D01*
X938822Y1747065D01*
X938589Y1747108D01*
X938367Y1747173D01*
X938265Y1747211D01*
X938167Y1747254D01*
X938162Y1747260D01*
X938146Y1747265D01*
X938119Y1747281D01*
X938092Y1747303D01*
X938054Y1747330D01*
X938010Y1747363D01*
X937967Y1747400D01*
X937918Y1747444D01*
X937870Y1747492D01*
X937826Y1747546D01*
X937783Y1747606D01*
X937745Y1747671D01*
X937713Y1747741D01*
X937691Y1747817D01*
X937675Y1747898D01*
X937670Y1747985D01*
Y1747995D01*
X937675Y1748022D01*
X937680Y1748071D01*
X937691Y1748131D01*
X937718Y1748206D01*
X937751Y1748288D01*
X937794Y1748380D01*
X937859Y1748482D01*
X938324D01*
X938313Y1748472D01*
X938292Y1748445D01*
X938254Y1748396D01*
X938211Y1748336D01*
X938173Y1748266D01*
X938135Y1748190D01*
X938113Y1748104D01*
X938102Y1748017D01*
Y1748006D01*
X938108Y1747974D01*
X938119Y1747925D01*
X938146Y1747866D01*
X938183Y1747801D01*
X938211Y1747763D01*
X938243Y1747730D01*
X938281Y1747698D01*
X938324Y1747671D01*
X938373Y1747644D01*
X938432Y1747617D01*
X938438D01*
X938448Y1747611D01*
X938470Y1747606D01*
X938497Y1747595D01*
X938530Y1747590D01*
X938578Y1747579D01*
X938633Y1747568D01*
X938692Y1747557D01*
X938762Y1747541D01*
X938844Y1747530D01*
X938930Y1747519D01*
X939027Y1747514D01*
X939136Y1747503D01*
X939255Y1747498D01*
X939385Y1747492D01*
X939520D01*
X939531D01*
X939552D01*
X939590D01*
X939644D01*
X939704Y1747498D01*
X939774D01*
X939855Y1747503D01*
X939942Y1747509D01*
X940120Y1747525D01*
X940299Y1747546D01*
X940385Y1747557D01*
X940467Y1747574D01*
X940542Y1747595D01*
X940607Y1747617D01*
X940613D01*
X940623Y1747622D01*
X940640Y1747633D01*
X940656Y1747638D01*
X940710Y1747671D01*
X940770Y1747714D01*
X940834Y1747774D01*
X940883Y1747844D01*
X940905Y1747887D01*
X940921Y1747930D01*
X940932Y1747979D01*
X940937Y1748033D01*
Y1748044D01*
X940932Y1748071D01*
X940921Y1748114D01*
X940905Y1748169D01*
X940872Y1748244D01*
X940829Y1748326D01*
X940764Y1748423D01*
X940721Y1748472D01*
X940677Y1748526D01*
X941170D01*
Y1748520D01*
D02*
G37*
G36*
X707325Y1702947D02*
X706617D01*
Y1705388D01*
X705550D01*
Y1702947D01*
X704842D01*
Y1708496D01*
X705550D01*
Y1706055D01*
X706617D01*
Y1708496D01*
X707325D01*
Y1702947D01*
D02*
G37*
G36*
X709399Y1708546D02*
X709482Y1708529D01*
X709591Y1708504D01*
X709707Y1708454D01*
X709841Y1708379D01*
X709907Y1708338D01*
X709974Y1708279D01*
X710041Y1708221D01*
X710107Y1708146D01*
X710116Y1708138D01*
X710124Y1708129D01*
X710141Y1708105D01*
X710166Y1708071D01*
X710191Y1708029D01*
X710216Y1707979D01*
X710249Y1707921D01*
X710282Y1707854D01*
X710349Y1707705D01*
X710399Y1707513D01*
X710441Y1707296D01*
X710457Y1707055D01*
Y1707046D01*
Y1707021D01*
Y1706980D01*
X710449Y1706921D01*
X710441Y1706855D01*
X710424Y1706780D01*
X710407Y1706696D01*
X710382Y1706605D01*
X710357Y1706505D01*
X710316Y1706405D01*
X710274Y1706305D01*
X710216Y1706205D01*
X710149Y1706105D01*
X710074Y1706005D01*
X709982Y1705913D01*
X709882Y1705830D01*
X709891Y1705822D01*
X709907Y1705813D01*
X709941Y1705788D01*
X709982Y1705755D01*
X710032Y1705713D01*
X710082Y1705655D01*
X710141Y1705588D01*
X710207Y1705513D01*
X710266Y1705430D01*
X710324Y1705330D01*
X710374Y1705222D01*
X710424Y1705105D01*
X710466Y1704972D01*
X710499Y1704830D01*
X710516Y1704672D01*
X710524Y1704505D01*
Y1704497D01*
Y1704472D01*
Y1704430D01*
X710516Y1704380D01*
Y1704314D01*
X710507Y1704247D01*
X710499Y1704164D01*
X710482Y1704072D01*
X710441Y1703880D01*
X710382Y1703681D01*
X710299Y1703481D01*
X710191Y1703297D01*
Y1703289D01*
X710174Y1703281D01*
X710132Y1703231D01*
X710057Y1703156D01*
X709957Y1703072D01*
X709841Y1702989D01*
X709691Y1702914D01*
X709516Y1702864D01*
X709424Y1702856D01*
X709324Y1702847D01*
X709274D01*
X709233Y1702856D01*
X709141Y1702872D01*
X709016Y1702906D01*
X708883Y1702956D01*
X708741Y1703031D01*
X708666Y1703081D01*
X708599Y1703147D01*
X708533Y1703214D01*
X708466Y1703289D01*
Y1703297D01*
X708449Y1703314D01*
X708433Y1703339D01*
X708416Y1703372D01*
X708391Y1703414D01*
X708366Y1703472D01*
X708333Y1703531D01*
X708308Y1703606D01*
X708275Y1703689D01*
X708241Y1703781D01*
X708191Y1703981D01*
X708158Y1704214D01*
X708141Y1704480D01*
Y1704489D01*
Y1704522D01*
X708149Y1704572D01*
Y1704639D01*
X708158Y1704714D01*
X708175Y1704805D01*
X708191Y1704905D01*
X708224Y1705005D01*
X708258Y1705122D01*
X708299Y1705230D01*
X708350Y1705347D01*
X708416Y1705455D01*
X708483Y1705563D01*
X708574Y1705663D01*
X708666Y1705747D01*
X708783Y1705830D01*
X708774Y1705838D01*
X708758Y1705847D01*
X708733Y1705872D01*
X708691Y1705913D01*
X708649Y1705955D01*
X708599Y1706005D01*
X708549Y1706072D01*
X708499Y1706147D01*
X708441Y1706230D01*
X708391Y1706322D01*
X708341Y1706422D01*
X708299Y1706530D01*
X708258Y1706647D01*
X708233Y1706772D01*
X708216Y1706913D01*
X708208Y1707055D01*
Y1707063D01*
Y1707088D01*
Y1707121D01*
X708216Y1707171D01*
Y1707230D01*
X708224Y1707296D01*
X708250Y1707455D01*
X708291Y1707630D01*
X708350Y1707813D01*
X708433Y1707996D01*
X708549Y1708154D01*
X708558Y1708163D01*
X708566Y1708171D01*
X708608Y1708221D01*
X708683Y1708279D01*
X708774Y1708354D01*
X708891Y1708429D01*
X709024Y1708496D01*
X709166Y1708538D01*
X709249Y1708546D01*
X709324Y1708554D01*
X709366D01*
X709399Y1708546D01*
D02*
G37*
G36*
X1311016Y1568036D02*
X1307413D01*
Y1568501D01*
X1311016D01*
Y1568036D01*
D02*
G37*
G36*
X1311222Y1566965D02*
X1311287Y1566959D01*
X1311357Y1566949D01*
X1311444Y1566932D01*
X1311530Y1566911D01*
X1311617Y1566878D01*
X1311709Y1566840D01*
X1311795Y1566797D01*
X1311877Y1566738D01*
X1311952Y1566667D01*
X1312012Y1566586D01*
X1312061Y1566489D01*
X1312093Y1566375D01*
X1312098Y1566315D01*
X1312104Y1566251D01*
Y1566213D01*
X1312098Y1566186D01*
X1312093Y1566121D01*
X1312082Y1566040D01*
X1311660Y1565986D01*
Y1566007D01*
X1311666Y1566034D01*
Y1566061D01*
X1311671Y1566132D01*
Y1566224D01*
X1311666Y1566256D01*
X1311660Y1566294D01*
X1311649Y1566337D01*
X1311628Y1566380D01*
X1311606Y1566418D01*
X1311574Y1566445D01*
X1311568Y1566451D01*
X1311557Y1566456D01*
X1311530Y1566467D01*
X1311492Y1566478D01*
X1311444Y1566489D01*
X1311384Y1566494D01*
X1311303Y1566505D01*
X1311211D01*
X1307413D01*
Y1566970D01*
X1311135D01*
X1311146D01*
X1311179D01*
X1311222Y1566965D01*
D02*
G37*
G36*
X1012404Y1320394D02*
X1012442D01*
X1012486Y1320389D01*
X1012588Y1320367D01*
X1012707Y1320335D01*
X1012832Y1320291D01*
X1012962Y1320227D01*
X1013021Y1320183D01*
X1013081Y1320140D01*
X1013086Y1320135D01*
X1013091Y1320129D01*
X1013108Y1320113D01*
X1013129Y1320091D01*
X1013178Y1320037D01*
X1013232Y1319967D01*
X1013292Y1319875D01*
X1013340Y1319767D01*
X1013362Y1319707D01*
X1013378Y1319648D01*
X1013384Y1319583D01*
X1013389Y1319512D01*
Y1319480D01*
X1013384Y1319437D01*
X1013373Y1319383D01*
X1013362Y1319318D01*
X1013346Y1319237D01*
X1013319Y1319150D01*
X1013281Y1319053D01*
X1012821D01*
X1012826Y1319063D01*
X1012837Y1319091D01*
X1012859Y1319134D01*
X1012880Y1319188D01*
X1012902Y1319247D01*
X1012924Y1319312D01*
X1012934Y1319383D01*
X1012940Y1319448D01*
Y1319458D01*
X1012934Y1319485D01*
X1012929Y1319523D01*
X1012918Y1319572D01*
X1012897Y1319626D01*
X1012864Y1319680D01*
X1012826Y1319734D01*
X1012767Y1319788D01*
X1012756Y1319794D01*
X1012734Y1319810D01*
X1012697Y1319832D01*
X1012642Y1319859D01*
X1012572Y1319880D01*
X1012491Y1319902D01*
X1012399Y1319918D01*
X1012291Y1319924D01*
X1012285D01*
X1012264D01*
X1012237Y1319918D01*
X1012199D01*
X1012156Y1319907D01*
X1012107Y1319897D01*
X1012053Y1319886D01*
X1011993Y1319864D01*
X1011939Y1319843D01*
X1011880Y1319810D01*
X1011825Y1319772D01*
X1011777Y1319729D01*
X1011728Y1319675D01*
X1011690Y1319610D01*
X1011663Y1319539D01*
X1011641Y1319458D01*
X1011182D01*
Y1319464D01*
X1011176Y1319475D01*
X1011171Y1319496D01*
X1011165Y1319523D01*
X1011138Y1319594D01*
X1011090Y1319669D01*
X1011063Y1319707D01*
X1011025Y1319745D01*
X1010981Y1319783D01*
X1010933Y1319815D01*
X1010873Y1319843D01*
X1010814Y1319864D01*
X1010738Y1319875D01*
X1010657Y1319880D01*
X1010651D01*
X1010646D01*
X1010619D01*
X1010576Y1319875D01*
X1010522Y1319864D01*
X1010462Y1319853D01*
X1010397Y1319832D01*
X1010332Y1319799D01*
X1010278Y1319761D01*
X1010273Y1319756D01*
X1010257Y1319740D01*
X1010229Y1319713D01*
X1010202Y1319680D01*
X1010181Y1319632D01*
X1010154Y1319577D01*
X1010137Y1319518D01*
X1010132Y1319448D01*
Y1319420D01*
X1010137Y1319393D01*
X1010143Y1319356D01*
X1010154Y1319307D01*
X1010170Y1319253D01*
X1010192Y1319193D01*
X1010224Y1319134D01*
X1009775D01*
X1009770Y1319145D01*
X1009759Y1319166D01*
X1009748Y1319204D01*
X1009726Y1319258D01*
X1009710Y1319318D01*
X1009699Y1319388D01*
X1009688Y1319464D01*
X1009683Y1319545D01*
Y1319577D01*
X1009688Y1319604D01*
Y1319632D01*
X1009694Y1319669D01*
X1009715Y1319745D01*
X1009748Y1319837D01*
X1009791Y1319935D01*
X1009856Y1320032D01*
X1009899Y1320081D01*
X1009943Y1320124D01*
X1009948Y1320129D01*
X1009954Y1320135D01*
X1009970Y1320146D01*
X1009986Y1320162D01*
X1010045Y1320200D01*
X1010116Y1320243D01*
X1010208Y1320281D01*
X1010321Y1320319D01*
X1010446Y1320346D01*
X1010511Y1320356D01*
X1010581D01*
X1010586D01*
X1010603D01*
X1010635Y1320351D01*
X1010673Y1320346D01*
X1010716Y1320340D01*
X1010770Y1320329D01*
X1010825Y1320313D01*
X1010890Y1320286D01*
X1010954Y1320259D01*
X1011019Y1320221D01*
X1011090Y1320178D01*
X1011160Y1320124D01*
X1011225Y1320064D01*
X1011290Y1319989D01*
X1011349Y1319907D01*
X1011403Y1319810D01*
Y1319815D01*
X1011414Y1319837D01*
X1011425Y1319864D01*
X1011447Y1319902D01*
X1011474Y1319945D01*
X1011506Y1319999D01*
X1011550Y1320048D01*
X1011598Y1320108D01*
X1011658Y1320162D01*
X1011723Y1320216D01*
X1011798Y1320264D01*
X1011885Y1320308D01*
X1011977Y1320346D01*
X1012085Y1320373D01*
X1012199Y1320394D01*
X1012329Y1320400D01*
X1012334D01*
X1012350D01*
X1012372D01*
X1012404Y1320394D01*
D02*
G37*
G36*
X1013324Y1318290D02*
X1012707Y1318154D01*
X1012702D01*
X1012680Y1318149D01*
X1012648Y1318138D01*
X1012605Y1318127D01*
X1012550Y1318117D01*
X1012491Y1318100D01*
X1012356Y1318062D01*
X1012215Y1318025D01*
X1012080Y1317981D01*
X1012015Y1317954D01*
X1011961Y1317933D01*
X1011912Y1317911D01*
X1011874Y1317889D01*
X1011869Y1317884D01*
X1011847Y1317868D01*
X1011820Y1317846D01*
X1011788Y1317814D01*
X1011755Y1317776D01*
X1011728Y1317733D01*
X1011712Y1317678D01*
Y1317619D01*
X1013324D01*
Y1317154D01*
X1009721D01*
Y1317581D01*
X1009726Y1317614D01*
X1009732Y1317651D01*
X1009737Y1317700D01*
X1009753Y1317803D01*
X1009786Y1317917D01*
X1009835Y1318035D01*
X1009867Y1318090D01*
X1009905Y1318144D01*
X1009948Y1318198D01*
X1009997Y1318246D01*
X1010002Y1318252D01*
X1010008Y1318257D01*
X1010024Y1318268D01*
X1010045Y1318284D01*
X1010072Y1318301D01*
X1010105Y1318322D01*
X1010143Y1318344D01*
X1010186Y1318371D01*
X1010294Y1318414D01*
X1010419Y1318452D01*
X1010559Y1318479D01*
X1010641Y1318490D01*
X1010722D01*
X1010727D01*
X1010743D01*
X1010770D01*
X1010808Y1318484D01*
X1010846Y1318479D01*
X1010900Y1318468D01*
X1011009Y1318441D01*
X1011073Y1318425D01*
X1011138Y1318398D01*
X1011203Y1318371D01*
X1011263Y1318333D01*
X1011328Y1318290D01*
X1011387Y1318241D01*
X1011441Y1318182D01*
X1011495Y1318117D01*
Y1318122D01*
X1011506Y1318127D01*
X1011523Y1318144D01*
X1011539Y1318165D01*
X1011571Y1318187D01*
X1011609Y1318219D01*
X1011652Y1318252D01*
X1011706Y1318284D01*
X1011777Y1318322D01*
X1011852Y1318365D01*
X1011939Y1318403D01*
X1012042Y1318447D01*
X1012156Y1318490D01*
X1012285Y1318528D01*
X1012431Y1318571D01*
X1012588Y1318609D01*
X1013324Y1318777D01*
Y1318290D01*
D02*
G37*
G36*
X930203Y919901D02*
X930253D01*
X930311Y919884D01*
X930445Y919860D01*
X930595Y919810D01*
X930745Y919735D01*
X930820Y919685D01*
X930895Y919635D01*
X930970Y919568D01*
X931036Y919493D01*
Y919485D01*
X931053Y919476D01*
X931070Y919451D01*
X931086Y919418D01*
X931120Y919376D01*
X931144Y919326D01*
X931178Y919260D01*
X931211Y919193D01*
X931236Y919118D01*
X931270Y919035D01*
X931328Y918835D01*
X931361Y918610D01*
X931378Y918352D01*
Y918343D01*
Y918327D01*
Y918293D01*
Y918243D01*
X931369Y918185D01*
X931361Y918118D01*
X931353Y918035D01*
X931345Y917952D01*
X931328Y917852D01*
X931311Y917743D01*
X931261Y917518D01*
X931195Y917260D01*
X931103Y916994D01*
Y916985D01*
X931095Y916960D01*
X931078Y916919D01*
X931053Y916860D01*
X931020Y916785D01*
X930986Y916694D01*
X930945Y916594D01*
X930886Y916469D01*
X930828Y916336D01*
X930761Y916186D01*
X930686Y916027D01*
X930611Y915852D01*
X930520Y915661D01*
X930420Y915452D01*
X930311Y915236D01*
X930195Y915011D01*
X931495D01*
Y914303D01*
X929187D01*
Y914411D01*
X929195Y914419D01*
X929203Y914436D01*
X929220Y914469D01*
X929253Y914519D01*
X929287Y914578D01*
X929320Y914644D01*
X929362Y914719D01*
X929412Y914811D01*
X929470Y914911D01*
X929528Y915011D01*
X929645Y915252D01*
X929778Y915511D01*
X929920Y915794D01*
X930053Y916094D01*
X930186Y916402D01*
X930303Y916719D01*
X930420Y917035D01*
X930511Y917352D01*
X930586Y917652D01*
X930628Y917943D01*
X930645Y918085D01*
Y918218D01*
Y918227D01*
Y918235D01*
Y918285D01*
X930636Y918368D01*
X930620Y918460D01*
X930595Y918568D01*
X930561Y918685D01*
X930511Y918793D01*
X930445Y918893D01*
X930436Y918902D01*
X930411Y918935D01*
X930361Y918976D01*
X930303Y919026D01*
X930228Y919068D01*
X930136Y919110D01*
X930036Y919143D01*
X929920Y919151D01*
X929878D01*
X929828Y919143D01*
X929762Y919126D01*
X929670Y919110D01*
X929562Y919076D01*
X929445Y919026D01*
X929303Y918968D01*
Y919710D01*
X929312D01*
X929320Y919718D01*
X929345Y919726D01*
X929378Y919743D01*
X929462Y919776D01*
X929562Y919810D01*
X929687Y919843D01*
X929820Y919876D01*
X929961Y919901D01*
X930103Y919910D01*
X930162D01*
X930203Y919901D01*
D02*
G37*
G36*
X927745Y914303D02*
X927029D01*
Y919851D01*
X927745D01*
Y914303D01*
D02*
G37*
G36*
X925388Y914119D02*
Y914103D01*
Y914053D01*
X925379Y913986D01*
X925371Y913886D01*
X925354Y913778D01*
X925329Y913644D01*
X925296Y913511D01*
X925246Y913378D01*
X925188Y913236D01*
X925121Y913103D01*
X925029Y912978D01*
X924921Y912861D01*
X924796Y912770D01*
X924646Y912695D01*
X924471Y912645D01*
X924380Y912636D01*
X924280Y912628D01*
X924221D01*
X924180Y912636D01*
X924080Y912645D01*
X923955Y912661D01*
X923871Y913311D01*
X923905D01*
X923946Y913303D01*
X923988D01*
X924096Y913295D01*
X924238D01*
X924288Y913303D01*
X924346Y913311D01*
X924413Y913328D01*
X924480Y913361D01*
X924538Y913394D01*
X924580Y913445D01*
X924588Y913453D01*
X924596Y913469D01*
X924613Y913511D01*
X924630Y913569D01*
X924646Y913644D01*
X924654Y913736D01*
X924671Y913861D01*
Y914003D01*
Y919851D01*
X925388D01*
Y914119D01*
D02*
G37*
G36*
X637595Y896130D02*
X637708Y896118D01*
X637845Y896093D01*
X638020Y896030D01*
X638208Y895955D01*
X638420Y895855D01*
X638658Y895705D01*
Y894631D01*
X638633Y894656D01*
X638570Y894706D01*
X638458Y894793D01*
X638320Y894893D01*
X638158Y894980D01*
X637983Y895068D01*
X637783Y895118D01*
X637583Y895143D01*
X637558D01*
X637483Y895130D01*
X637370Y895105D01*
X637233Y895043D01*
X637083Y894956D01*
X636996Y894893D01*
X636921Y894818D01*
X636846Y894731D01*
X636783Y894631D01*
X636721Y894518D01*
X636658Y894381D01*
Y894368D01*
X636646Y894343D01*
X636633Y894293D01*
X636608Y894231D01*
X636596Y894156D01*
X636571Y894043D01*
X636546Y893918D01*
X636521Y893781D01*
X636483Y893618D01*
X636458Y893431D01*
X636433Y893231D01*
X636421Y893006D01*
X636396Y892756D01*
X636383Y892481D01*
X636371Y892181D01*
Y891869D01*
Y891844D01*
Y891794D01*
Y891706D01*
Y891581D01*
X636383Y891444D01*
Y891281D01*
X636396Y891094D01*
X636408Y890894D01*
X636446Y890482D01*
X636496Y890069D01*
X636521Y889869D01*
X636558Y889682D01*
X636608Y889507D01*
X636658Y889357D01*
Y889344D01*
X636671Y889319D01*
X636696Y889282D01*
X636708Y889244D01*
X636783Y889119D01*
X636883Y888982D01*
X637020Y888832D01*
X637183Y888720D01*
X637283Y888670D01*
X637383Y888632D01*
X637495Y888607D01*
X637620Y888595D01*
X637645D01*
X637708Y888607D01*
X637808Y888632D01*
X637933Y888670D01*
X638108Y888745D01*
X638295Y888845D01*
X638520Y888995D01*
X638633Y889094D01*
X638758Y889194D01*
Y888057D01*
X638745D01*
X638733Y888032D01*
X638695Y888020D01*
X638658Y887982D01*
X638533Y887907D01*
X638370Y887832D01*
X638183Y887745D01*
X637958Y887670D01*
X637733Y887620D01*
X637483Y887595D01*
X637433D01*
X637383Y887607D01*
X637308D01*
X637220Y887632D01*
X637108Y887657D01*
X636996Y887682D01*
X636870Y887732D01*
X636746Y887795D01*
X636608Y887857D01*
X636471Y887945D01*
X636333Y888057D01*
X636196Y888182D01*
X636058Y888320D01*
X635933Y888495D01*
X635821Y888682D01*
Y888695D01*
X635796Y888732D01*
X635771Y888795D01*
X635733Y888882D01*
X635683Y888995D01*
X635633Y889132D01*
X635583Y889294D01*
X635533Y889482D01*
X635483Y889694D01*
X635433Y889932D01*
X635383Y890194D01*
X635333Y890469D01*
X635296Y890769D01*
X635271Y891094D01*
X635258Y891444D01*
X635246Y891819D01*
Y891844D01*
Y891906D01*
Y892019D01*
X635258Y892156D01*
Y892319D01*
X635271Y892519D01*
X635296Y892744D01*
X635321Y892981D01*
X635346Y893231D01*
X635383Y893481D01*
X635483Y894018D01*
X635633Y894531D01*
X635721Y894768D01*
X635821Y894993D01*
X635833Y895005D01*
X635846Y895043D01*
X635883Y895105D01*
X635933Y895168D01*
X635996Y895255D01*
X636071Y895355D01*
X636158Y895455D01*
X636258Y895568D01*
X636371Y895680D01*
X636496Y895780D01*
X636633Y895880D01*
X636783Y895968D01*
X636945Y896043D01*
X637121Y896093D01*
X637308Y896130D01*
X637508Y896143D01*
X637533D01*
X637595Y896130D01*
D02*
G37*
G36*
X597681Y892131D02*
X599155Y887707D01*
X598018D01*
X597043Y890819D01*
X597018D01*
X596068Y887707D01*
X594944D01*
X596406Y892131D01*
X595156Y896030D01*
X596281D01*
X597018Y893256D01*
X597043D01*
X597805Y896030D01*
X598943D01*
X597681Y892131D01*
D02*
G37*
G36*
X643456Y887707D02*
X642394D01*
Y891369D01*
X640795D01*
Y887707D01*
X639732D01*
Y896030D01*
X640795D01*
Y892369D01*
X642394D01*
Y896030D01*
X643456D01*
Y887707D01*
D02*
G37*
G36*
X594106D02*
X593244D01*
X591370Y892894D01*
X591357Y892881D01*
Y887707D01*
X590382D01*
Y896030D01*
X591232D01*
X593107Y890856D01*
X593132Y890894D01*
Y896030D01*
X594106D01*
Y887707D01*
D02*
G37*
G36*
X621562Y884671D02*
X620600D01*
X621712Y888682D01*
X620262Y893231D01*
X621274D01*
X622174Y890382D01*
X622199D01*
X622987Y893231D01*
X623961D01*
X621562Y884671D01*
D02*
G37*
G36*
X652441Y887582D02*
X652167D01*
X650517Y893231D01*
X651492D01*
X652292Y890082D01*
X652317D01*
X653116Y893231D01*
X654104D01*
X652441Y887582D01*
D02*
G37*
G36*
X662889Y896105D02*
X662964D01*
X663051Y896080D01*
X663251Y896043D01*
X663476Y895968D01*
X663701Y895855D01*
X663814Y895780D01*
X663926Y895705D01*
X664039Y895605D01*
X664138Y895493D01*
Y895480D01*
X664164Y895468D01*
X664189Y895430D01*
X664213Y895380D01*
X664264Y895318D01*
X664301Y895243D01*
X664351Y895143D01*
X664401Y895043D01*
X664438Y894930D01*
X664489Y894806D01*
X664576Y894506D01*
X664626Y894168D01*
X664651Y893781D01*
Y893768D01*
Y893743D01*
Y893693D01*
Y893618D01*
X664638Y893531D01*
X664626Y893431D01*
X664613Y893306D01*
X664601Y893181D01*
X664576Y893031D01*
X664551Y892868D01*
X664476Y892531D01*
X664376Y892144D01*
X664239Y891744D01*
Y891731D01*
X664226Y891694D01*
X664201Y891631D01*
X664164Y891544D01*
X664114Y891431D01*
X664064Y891294D01*
X664001Y891144D01*
X663914Y890956D01*
X663826Y890757D01*
X663726Y890532D01*
X663614Y890294D01*
X663501Y890032D01*
X663364Y889744D01*
X663214Y889432D01*
X663051Y889107D01*
X662876Y888770D01*
X664826D01*
Y887707D01*
X661364D01*
Y887870D01*
X661377Y887882D01*
X661389Y887907D01*
X661414Y887957D01*
X661464Y888032D01*
X661514Y888120D01*
X661564Y888220D01*
X661627Y888332D01*
X661702Y888470D01*
X661789Y888620D01*
X661877Y888770D01*
X662052Y889132D01*
X662252Y889519D01*
X662464Y889944D01*
X662664Y890394D01*
X662864Y890856D01*
X663039Y891331D01*
X663214Y891806D01*
X663351Y892281D01*
X663464Y892731D01*
X663526Y893168D01*
X663551Y893381D01*
Y893581D01*
Y893593D01*
Y893606D01*
Y893681D01*
X663539Y893806D01*
X663514Y893943D01*
X663476Y894106D01*
X663426Y894281D01*
X663351Y894443D01*
X663251Y894593D01*
X663239Y894606D01*
X663201Y894656D01*
X663126Y894718D01*
X663039Y894793D01*
X662926Y894855D01*
X662789Y894918D01*
X662639Y894968D01*
X662464Y894980D01*
X662402D01*
X662327Y894968D01*
X662226Y894943D01*
X662089Y894918D01*
X661927Y894868D01*
X661752Y894793D01*
X661539Y894706D01*
Y895818D01*
X661552D01*
X661564Y895830D01*
X661602Y895843D01*
X661652Y895868D01*
X661777Y895918D01*
X661927Y895968D01*
X662114Y896018D01*
X662314Y896068D01*
X662526Y896105D01*
X662739Y896118D01*
X662826D01*
X662889Y896105D01*
D02*
G37*
G36*
X615463Y887707D02*
X614489D01*
Y896030D01*
X615463D01*
Y887707D01*
D02*
G37*
G36*
X607291Y896018D02*
X607378Y896005D01*
X607491Y895993D01*
X607728Y895955D01*
X607990Y895880D01*
X608265Y895768D01*
X608390Y895693D01*
X608515Y895605D01*
X608640Y895505D01*
X608753Y895393D01*
X608765Y895380D01*
X608778Y895368D01*
X608803Y895330D01*
X608840Y895280D01*
X608878Y895218D01*
X608928Y895143D01*
X608978Y895055D01*
X609040Y894956D01*
X609140Y894706D01*
X609228Y894418D01*
X609290Y894093D01*
X609315Y893906D01*
Y893718D01*
Y893706D01*
Y893668D01*
Y893606D01*
X609303Y893518D01*
X609290Y893431D01*
X609265Y893306D01*
X609203Y893056D01*
X609165Y892906D01*
X609103Y892756D01*
X609040Y892606D01*
X608953Y892469D01*
X608853Y892319D01*
X608740Y892181D01*
X608603Y892056D01*
X608453Y891931D01*
X608465D01*
X608478Y891906D01*
X608515Y891869D01*
X608565Y891831D01*
X608615Y891756D01*
X608690Y891669D01*
X608765Y891569D01*
X608840Y891444D01*
X608928Y891281D01*
X609028Y891106D01*
X609115Y890907D01*
X609215Y890669D01*
X609315Y890407D01*
X609403Y890107D01*
X609502Y889769D01*
X609590Y889407D01*
X609977Y887707D01*
X608853D01*
X608540Y889132D01*
Y889145D01*
X608528Y889194D01*
X608503Y889269D01*
X608478Y889369D01*
X608453Y889494D01*
X608415Y889632D01*
X608328Y889944D01*
X608240Y890269D01*
X608140Y890582D01*
X608078Y890732D01*
X608028Y890856D01*
X607978Y890969D01*
X607928Y891057D01*
X607915Y891069D01*
X607878Y891119D01*
X607828Y891181D01*
X607753Y891256D01*
X607665Y891331D01*
X607565Y891394D01*
X607441Y891431D01*
X607303D01*
Y887707D01*
X606228D01*
Y896030D01*
X607216D01*
X607291Y896018D01*
D02*
G37*
G36*
X588033Y892069D02*
X589683Y887707D01*
X588570D01*
X587083Y891919D01*
X588258Y896030D01*
X589358D01*
X588033Y892069D01*
D02*
G37*
G36*
X587046Y887707D02*
X585971D01*
Y896030D01*
X587046D01*
Y887707D01*
D02*
G37*
G36*
X659940Y888957D02*
X660015Y888944D01*
X660090Y888920D01*
X660165Y888882D01*
X660252Y888832D01*
X660327Y888757D01*
X660340Y888745D01*
X660365Y888720D01*
X660389Y888682D01*
X660427Y888620D01*
X660464Y888557D01*
X660502Y888470D01*
X660515Y888382D01*
X660527Y888282D01*
Y888270D01*
Y888232D01*
X660515Y888182D01*
X660502Y888120D01*
X660477Y888032D01*
X660440Y887957D01*
X660389Y887870D01*
X660327Y887795D01*
X660314Y887782D01*
X660290Y887770D01*
X660252Y887732D01*
X660190Y887695D01*
X660115Y887657D01*
X660040Y887632D01*
X659940Y887607D01*
X659840Y887595D01*
X659790D01*
X659740Y887607D01*
X659677Y887620D01*
X659602Y887645D01*
X659527Y887682D01*
X659440Y887732D01*
X659365Y887795D01*
X659352Y887807D01*
X659340Y887832D01*
X659302Y887870D01*
X659265Y887932D01*
X659227Y888007D01*
X659202Y888082D01*
X659177Y888182D01*
X659165Y888282D01*
Y888295D01*
Y888332D01*
X659177Y888382D01*
X659190Y888445D01*
X659215Y888520D01*
X659252Y888595D01*
X659302Y888682D01*
X659365Y888757D01*
X659377Y888770D01*
X659402Y888795D01*
X659440Y888820D01*
X659502Y888869D01*
X659565Y888907D01*
X659652Y888932D01*
X659740Y888957D01*
X659840Y888969D01*
X659890D01*
X659940Y888957D01*
D02*
G37*
G36*
X618225Y893356D02*
X618375Y893331D01*
X618538Y893281D01*
X618713Y893206D01*
X618888Y893106D01*
X619050Y892969D01*
X619075Y892956D01*
X619125Y892894D01*
X619188Y892806D01*
X619275Y892681D01*
X619350Y892531D01*
X619425Y892344D01*
X619475Y892131D01*
X619487Y891894D01*
Y888782D01*
Y888770D01*
Y888732D01*
X619500Y888682D01*
X619512Y888632D01*
X619525Y888570D01*
X619550Y888520D01*
X619588Y888482D01*
X619637Y888470D01*
X619662D01*
X619687Y888482D01*
X619725Y888507D01*
X619775Y888532D01*
X619837Y888582D01*
X619925Y888657D01*
X620025Y888745D01*
Y887995D01*
X620000Y887982D01*
X619950Y887932D01*
X619862Y887870D01*
X619762Y887795D01*
X619637Y887707D01*
X619512Y887645D01*
X619388Y887595D01*
X619263Y887582D01*
X619238D01*
X619175Y887595D01*
X619075Y887620D01*
X618963Y887670D01*
X618850Y887745D01*
X618725Y887870D01*
X618675Y887957D01*
X618625Y888045D01*
X618575Y888145D01*
X618538Y888270D01*
Y888257D01*
X618513Y888245D01*
X618488Y888207D01*
X618450Y888157D01*
X618350Y888045D01*
X618213Y887920D01*
X618050Y887782D01*
X617875Y887670D01*
X617775Y887620D01*
X617688Y887582D01*
X617588Y887570D01*
X617488Y887557D01*
X617463D01*
X617413Y887570D01*
X617338Y887582D01*
X617226Y887607D01*
X617113Y887657D01*
X616988Y887732D01*
X616851Y887832D01*
X616726Y887970D01*
X616713Y887995D01*
X616676Y888045D01*
X616626Y888132D01*
X616576Y888245D01*
X616513Y888395D01*
X616463Y888557D01*
X616426Y888745D01*
X616413Y888944D01*
Y888957D01*
Y888969D01*
Y889007D01*
X616426Y889057D01*
X616438Y889182D01*
X616476Y889332D01*
X616526Y889507D01*
X616601Y889694D01*
X616713Y889882D01*
X616863Y890057D01*
X616888Y890082D01*
X616951Y890144D01*
X617001Y890182D01*
X617063Y890244D01*
X617151Y890307D01*
X617238Y890369D01*
X617338Y890457D01*
X617463Y890544D01*
X617601Y890632D01*
X617750Y890732D01*
X617913Y890844D01*
X618100Y890956D01*
X618300Y891081D01*
X618513Y891206D01*
Y891731D01*
Y891744D01*
Y891769D01*
Y891794D01*
X618500Y891844D01*
X618488Y891969D01*
X618438Y892106D01*
X618375Y892231D01*
X618263Y892356D01*
X618200Y892406D01*
X618125Y892431D01*
X618025Y892456D01*
X617925Y892469D01*
X617863D01*
X617825Y892456D01*
X617700Y892419D01*
X617538Y892356D01*
X617438Y892306D01*
X617338Y892244D01*
X617213Y892169D01*
X617101Y892081D01*
X616976Y891969D01*
X616838Y891844D01*
X616701Y891706D01*
X616551Y891544D01*
Y892656D01*
X616563Y892669D01*
X616588Y892694D01*
X616626Y892719D01*
X616676Y892768D01*
X616738Y892819D01*
X616826Y892881D01*
X617013Y893018D01*
X617238Y893156D01*
X617476Y893268D01*
X617613Y893318D01*
X617738Y893356D01*
X617875Y893368D01*
X618013Y893381D01*
X618113D01*
X618225Y893356D01*
D02*
G37*
G36*
X656528Y896105D02*
X656590D01*
X656665Y896080D01*
X656753Y896068D01*
X656965Y895993D01*
X657065Y895930D01*
X657178Y895868D01*
X657303Y895780D01*
X657415Y895680D01*
X657528Y895568D01*
X657628Y895418D01*
X657728Y895268D01*
X657815Y895080D01*
Y895068D01*
X657840Y895031D01*
X657853Y894968D01*
X657890Y894881D01*
X657915Y894781D01*
X657953Y894643D01*
X658003Y894481D01*
X658040Y894293D01*
X658078Y894081D01*
X658128Y893843D01*
X658165Y893568D01*
X658190Y893281D01*
X658228Y892956D01*
X658240Y892606D01*
X658265Y892231D01*
Y891831D01*
Y891806D01*
Y891731D01*
Y891631D01*
X658253Y891481D01*
Y891306D01*
X658240Y891094D01*
X658228Y890869D01*
X658215Y890619D01*
X658153Y890107D01*
X658078Y889569D01*
X658028Y889307D01*
X657978Y889057D01*
X657903Y888832D01*
X657828Y888620D01*
Y888607D01*
X657803Y888570D01*
X657778Y888520D01*
X657753Y888457D01*
X657640Y888282D01*
X657490Y888095D01*
X657303Y887895D01*
X657065Y887720D01*
X656928Y887657D01*
X656778Y887607D01*
X656616Y887570D01*
X656441Y887557D01*
X656403D01*
X656353Y887570D01*
X656291D01*
X656216Y887595D01*
X656128Y887607D01*
X655928Y887695D01*
X655816Y887745D01*
X655703Y887820D01*
X655591Y887895D01*
X655478Y887995D01*
X655366Y888120D01*
X655266Y888257D01*
X655166Y888420D01*
X655078Y888607D01*
Y888620D01*
X655066Y888657D01*
X655041Y888720D01*
X655016Y888807D01*
X654978Y888920D01*
X654941Y889057D01*
X654903Y889220D01*
X654866Y889407D01*
X654828Y889619D01*
X654791Y889857D01*
X654753Y890119D01*
X654716Y890407D01*
X654691Y890732D01*
X654666Y891069D01*
X654653Y891431D01*
Y891831D01*
Y891844D01*
Y891881D01*
Y891944D01*
Y892019D01*
X654666Y892119D01*
Y892231D01*
X654678Y892356D01*
Y892506D01*
X654691Y892656D01*
X654704Y892831D01*
X654753Y893193D01*
X654803Y893581D01*
X654878Y893981D01*
X654966Y894381D01*
X655091Y894768D01*
X655228Y895118D01*
X655316Y895293D01*
X655403Y895443D01*
X655503Y895593D01*
X655616Y895718D01*
X655728Y895843D01*
X655853Y895930D01*
X655978Y896018D01*
X656128Y896068D01*
X656278Y896105D01*
X656441Y896118D01*
X656478D01*
X656528Y896105D01*
D02*
G37*
G36*
X632672D02*
X632797Y896080D01*
X632959Y896043D01*
X633134Y895968D01*
X633334Y895855D01*
X633434Y895793D01*
X633534Y895705D01*
X633634Y895618D01*
X633734Y895505D01*
X633746Y895493D01*
X633759Y895480D01*
X633784Y895443D01*
X633821Y895393D01*
X633859Y895330D01*
X633896Y895255D01*
X633946Y895168D01*
X633996Y895068D01*
X634096Y894843D01*
X634171Y894556D01*
X634234Y894231D01*
X634259Y893868D01*
Y893856D01*
Y893818D01*
Y893756D01*
X634246Y893668D01*
X634234Y893568D01*
X634209Y893456D01*
X634184Y893331D01*
X634146Y893193D01*
X634109Y893044D01*
X634046Y892894D01*
X633984Y892744D01*
X633896Y892594D01*
X633796Y892444D01*
X633684Y892294D01*
X633546Y892156D01*
X633396Y892031D01*
X633409Y892019D01*
X633434Y892006D01*
X633484Y891969D01*
X633546Y891919D01*
X633621Y891856D01*
X633696Y891769D01*
X633784Y891669D01*
X633884Y891556D01*
X633971Y891431D01*
X634059Y891281D01*
X634134Y891119D01*
X634209Y890944D01*
X634271Y890744D01*
X634321Y890532D01*
X634346Y890294D01*
X634359Y890044D01*
Y890032D01*
Y889994D01*
Y889932D01*
X634346Y889857D01*
Y889757D01*
X634334Y889657D01*
X634321Y889532D01*
X634296Y889394D01*
X634234Y889107D01*
X634146Y888807D01*
X634021Y888507D01*
X633859Y888232D01*
Y888220D01*
X633834Y888207D01*
X633771Y888132D01*
X633659Y888020D01*
X633509Y887895D01*
X633334Y887770D01*
X633109Y887657D01*
X632847Y887582D01*
X632709Y887570D01*
X632559Y887557D01*
X632484D01*
X632422Y887570D01*
X632284Y887595D01*
X632097Y887645D01*
X631897Y887720D01*
X631684Y887832D01*
X631572Y887907D01*
X631472Y888007D01*
X631372Y888107D01*
X631272Y888220D01*
Y888232D01*
X631247Y888257D01*
X631222Y888295D01*
X631197Y888345D01*
X631160Y888407D01*
X631122Y888495D01*
X631072Y888582D01*
X631035Y888695D01*
X630984Y888820D01*
X630935Y888957D01*
X630860Y889257D01*
X630810Y889607D01*
X630785Y890007D01*
Y890019D01*
Y890069D01*
X630797Y890144D01*
Y890244D01*
X630810Y890357D01*
X630835Y890494D01*
X630860Y890644D01*
X630910Y890794D01*
X630960Y890969D01*
X631022Y891132D01*
X631097Y891306D01*
X631197Y891469D01*
X631297Y891631D01*
X631434Y891781D01*
X631572Y891906D01*
X631747Y892031D01*
X631734Y892044D01*
X631709Y892056D01*
X631672Y892094D01*
X631609Y892156D01*
X631547Y892219D01*
X631472Y892294D01*
X631397Y892394D01*
X631322Y892506D01*
X631235Y892631D01*
X631160Y892768D01*
X631085Y892918D01*
X631022Y893081D01*
X630960Y893256D01*
X630922Y893443D01*
X630897Y893656D01*
X630885Y893868D01*
Y893881D01*
Y893918D01*
Y893968D01*
X630897Y894043D01*
Y894131D01*
X630910Y894231D01*
X630947Y894468D01*
X631009Y894731D01*
X631097Y895005D01*
X631222Y895280D01*
X631397Y895518D01*
X631409Y895530D01*
X631422Y895543D01*
X631484Y895618D01*
X631597Y895705D01*
X631734Y895818D01*
X631909Y895930D01*
X632109Y896030D01*
X632322Y896093D01*
X632447Y896105D01*
X632559Y896118D01*
X632622D01*
X632672Y896105D01*
D02*
G37*
G36*
X612127Y893356D02*
X612227Y893331D01*
X612339Y893281D01*
X612464Y893218D01*
X612602Y893119D01*
X612739Y892993D01*
X612877Y892831D01*
X613014Y892619D01*
X613077Y892494D01*
X613139Y892369D01*
X613202Y892219D01*
X613252Y892069D01*
X613302Y891894D01*
X613352Y891706D01*
X613389Y891506D01*
X613414Y891294D01*
X613451Y891057D01*
X613464Y890807D01*
X613476Y890544D01*
Y890257D01*
X611427D01*
Y890232D01*
Y890182D01*
X611440Y890094D01*
Y889982D01*
X611452Y889844D01*
X611477Y889694D01*
X611552Y889369D01*
X611602Y889194D01*
X611665Y889032D01*
X611740Y888882D01*
X611839Y888745D01*
X611952Y888632D01*
X612077Y888545D01*
X612227Y888495D01*
X612402Y888470D01*
X612427D01*
X612489Y888482D01*
X612589Y888495D01*
X612727Y888532D01*
X612877Y888607D01*
X613039Y888695D01*
X613202Y888832D01*
X613289Y888907D01*
X613364Y889007D01*
Y888032D01*
X613339Y888007D01*
X613277Y887957D01*
X613164Y887882D01*
X613027Y887795D01*
X612852Y887707D01*
X612664Y887632D01*
X612439Y887582D01*
X612214Y887557D01*
X612139D01*
X612077Y887570D01*
X612002Y887582D01*
X611927Y887595D01*
X611740Y887657D01*
X611527Y887745D01*
X611427Y887807D01*
X611315Y887870D01*
X611202Y887957D01*
X611102Y888057D01*
X611002Y888170D01*
X610915Y888307D01*
Y888320D01*
X610890Y888345D01*
X610877Y888382D01*
X610840Y888445D01*
X610802Y888520D01*
X610765Y888620D01*
X610727Y888732D01*
X610690Y888857D01*
X610640Y889007D01*
X610602Y889169D01*
X610565Y889344D01*
X610527Y889532D01*
X610490Y889744D01*
X610477Y889969D01*
X610452Y890207D01*
Y890469D01*
Y890482D01*
Y890532D01*
Y890607D01*
X610465Y890694D01*
Y890807D01*
X610477Y890944D01*
X610490Y891094D01*
X610502Y891256D01*
X610552Y891594D01*
X610627Y891956D01*
X610715Y892294D01*
X610777Y892456D01*
X610852Y892606D01*
Y892619D01*
X610877Y892644D01*
X610890Y892681D01*
X610927Y892731D01*
X611027Y892856D01*
X611152Y892993D01*
X611315Y893131D01*
X611502Y893256D01*
X611614Y893306D01*
X611727Y893343D01*
X611852Y893368D01*
X611989Y893381D01*
X612052D01*
X612127Y893356D01*
D02*
G37*
G36*
X650492Y886158D02*
X644119D01*
Y886770D01*
X650492D01*
Y886158D01*
D02*
G37*
G36*
X630360D02*
X623986D01*
Y886770D01*
X630360D01*
Y886158D01*
D02*
G37*
G36*
X605554D02*
X599180D01*
Y886770D01*
X605554D01*
Y886158D01*
D02*
G37*
G36*
X1004683Y1807160D02*
X1003967D01*
Y1812709D01*
X1004683D01*
Y1807160D01*
D02*
G37*
G36*
X1007399Y1812759D02*
X1007441D01*
X1007491Y1812742D01*
X1007549Y1812734D01*
X1007691Y1812684D01*
X1007757Y1812642D01*
X1007832Y1812600D01*
X1007915Y1812542D01*
X1007990Y1812475D01*
X1008065Y1812400D01*
X1008132Y1812301D01*
X1008199Y1812200D01*
X1008257Y1812076D01*
Y1812067D01*
X1008274Y1812042D01*
X1008282Y1812000D01*
X1008307Y1811942D01*
X1008324Y1811876D01*
X1008349Y1811784D01*
X1008382Y1811676D01*
X1008407Y1811551D01*
X1008432Y1811409D01*
X1008465Y1811251D01*
X1008490Y1811067D01*
X1008507Y1810876D01*
X1008532Y1810659D01*
X1008540Y1810426D01*
X1008557Y1810176D01*
Y1809909D01*
Y1809893D01*
Y1809843D01*
Y1809776D01*
X1008549Y1809676D01*
Y1809559D01*
X1008540Y1809418D01*
X1008532Y1809268D01*
X1008524Y1809101D01*
X1008482Y1808760D01*
X1008432Y1808401D01*
X1008399Y1808226D01*
X1008365Y1808060D01*
X1008315Y1807910D01*
X1008265Y1807768D01*
Y1807760D01*
X1008249Y1807735D01*
X1008232Y1807702D01*
X1008215Y1807660D01*
X1008140Y1807543D01*
X1008040Y1807418D01*
X1007915Y1807285D01*
X1007757Y1807168D01*
X1007665Y1807127D01*
X1007566Y1807094D01*
X1007457Y1807068D01*
X1007341Y1807060D01*
X1007316D01*
X1007282Y1807068D01*
X1007241D01*
X1007191Y1807085D01*
X1007132Y1807094D01*
X1006999Y1807152D01*
X1006924Y1807185D01*
X1006849Y1807235D01*
X1006774Y1807285D01*
X1006699Y1807352D01*
X1006624Y1807435D01*
X1006557Y1807527D01*
X1006491Y1807635D01*
X1006432Y1807760D01*
Y1807768D01*
X1006424Y1807793D01*
X1006407Y1807835D01*
X1006391Y1807893D01*
X1006366Y1807968D01*
X1006341Y1808060D01*
X1006316Y1808168D01*
X1006291Y1808293D01*
X1006266Y1808435D01*
X1006241Y1808593D01*
X1006216Y1808768D01*
X1006191Y1808960D01*
X1006174Y1809176D01*
X1006158Y1809401D01*
X1006149Y1809643D01*
Y1809909D01*
Y1809918D01*
Y1809943D01*
Y1809984D01*
Y1810034D01*
X1006158Y1810101D01*
Y1810176D01*
X1006166Y1810259D01*
Y1810359D01*
X1006174Y1810459D01*
X1006183Y1810576D01*
X1006216Y1810818D01*
X1006249Y1811076D01*
X1006299Y1811342D01*
X1006357Y1811609D01*
X1006441Y1811867D01*
X1006533Y1812101D01*
X1006591Y1812217D01*
X1006649Y1812317D01*
X1006716Y1812417D01*
X1006791Y1812500D01*
X1006866Y1812584D01*
X1006949Y1812642D01*
X1007032Y1812700D01*
X1007132Y1812734D01*
X1007232Y1812759D01*
X1007341Y1812767D01*
X1007366D01*
X1007399Y1812759D01*
D02*
G37*
G36*
X1002325Y1806977D02*
Y1806960D01*
Y1806910D01*
X1002317Y1806844D01*
X1002309Y1806744D01*
X1002292Y1806635D01*
X1002267Y1806502D01*
X1002234Y1806369D01*
X1002184Y1806235D01*
X1002125Y1806094D01*
X1002059Y1805960D01*
X1001967Y1805836D01*
X1001859Y1805719D01*
X1001734Y1805627D01*
X1001584Y1805552D01*
X1001409Y1805502D01*
X1001317Y1805494D01*
X1001217Y1805486D01*
X1001159D01*
X1001117Y1805494D01*
X1001017Y1805502D01*
X1000892Y1805519D01*
X1000809Y1806169D01*
X1000842D01*
X1000884Y1806160D01*
X1000926D01*
X1001034Y1806152D01*
X1001176D01*
X1001226Y1806160D01*
X1001284Y1806169D01*
X1001350Y1806185D01*
X1001417Y1806219D01*
X1001475Y1806252D01*
X1001517Y1806302D01*
X1001525Y1806310D01*
X1001534Y1806327D01*
X1001550Y1806369D01*
X1001567Y1806427D01*
X1001584Y1806502D01*
X1001592Y1806594D01*
X1001609Y1806719D01*
Y1806860D01*
Y1812709D01*
X1002325D01*
Y1806977D01*
D02*
G37*
G36*
X985477Y1234478D02*
X985520D01*
X985575Y1234473D01*
X985629Y1234467D01*
X985688Y1234457D01*
X985824Y1234429D01*
X985964Y1234392D01*
X986105Y1234338D01*
X986235Y1234262D01*
X986240D01*
X986251Y1234251D01*
X986267Y1234240D01*
X986289Y1234224D01*
X986343Y1234175D01*
X986402Y1234110D01*
X986462Y1234035D01*
X986516Y1233943D01*
X986538Y1233888D01*
X986554Y1233834D01*
X986565Y1233780D01*
X986570Y1233721D01*
Y1233688D01*
X986565Y1233667D01*
X986554Y1233613D01*
X986532Y1233537D01*
X986494Y1233456D01*
X986440Y1233369D01*
X986408Y1233320D01*
X986365Y1233277D01*
X986321Y1233239D01*
X986267Y1233196D01*
X986262D01*
X986251Y1233185D01*
X986235Y1233174D01*
X986213Y1233164D01*
X986180Y1233147D01*
X986143Y1233131D01*
X986094Y1233109D01*
X986045Y1233093D01*
X985986Y1233072D01*
X985921Y1233050D01*
X985851Y1233034D01*
X985769Y1233018D01*
X985683Y1233007D01*
X985591Y1232996D01*
X985493Y1232985D01*
X985391D01*
X985380D01*
X985358D01*
X985320D01*
X985266Y1232990D01*
X985201Y1232996D01*
X985126Y1233001D01*
X985039Y1233012D01*
X984942Y1233028D01*
X984839Y1233045D01*
X984731Y1233066D01*
X984612Y1233093D01*
X984492Y1233120D01*
X984368Y1233158D01*
X984244Y1233201D01*
X984114Y1233250D01*
X983989Y1233310D01*
X982902Y1233840D01*
Y1234305D01*
X984325Y1233613D01*
Y1233618D01*
X984319Y1233634D01*
X984314Y1233651D01*
X984309Y1233678D01*
X984298Y1233742D01*
X984292Y1233807D01*
Y1233834D01*
X984298Y1233856D01*
X984309Y1233916D01*
X984330Y1233980D01*
X984368Y1234062D01*
X984422Y1234143D01*
X984455Y1234181D01*
X984492Y1234219D01*
X984541Y1234256D01*
X984595Y1234294D01*
X984601D01*
X984612Y1234305D01*
X984628Y1234311D01*
X984649Y1234327D01*
X984682Y1234338D01*
X984720Y1234354D01*
X984758Y1234370D01*
X984806Y1234392D01*
X984866Y1234408D01*
X984925Y1234424D01*
X984990Y1234440D01*
X985061Y1234457D01*
X985218Y1234478D01*
X985396Y1234484D01*
X985402D01*
X985418D01*
X985445D01*
X985477Y1234478D01*
D02*
G37*
G36*
X986505Y1232206D02*
X985888Y1232071D01*
X985883D01*
X985861Y1232065D01*
X985829Y1232055D01*
X985786Y1232044D01*
X985732Y1232033D01*
X985672Y1232017D01*
X985537Y1231979D01*
X985396Y1231941D01*
X985261Y1231898D01*
X985196Y1231870D01*
X985142Y1231849D01*
X985093Y1231827D01*
X985055Y1231806D01*
X985050Y1231800D01*
X985028Y1231784D01*
X985001Y1231762D01*
X984969Y1231730D01*
X984936Y1231692D01*
X984909Y1231649D01*
X984893Y1231595D01*
Y1231535D01*
X986505D01*
Y1231070D01*
X982902D01*
Y1231497D01*
X982907Y1231530D01*
X982913Y1231568D01*
X982918Y1231616D01*
X982934Y1231719D01*
X982967Y1231833D01*
X983016Y1231952D01*
X983048Y1232006D01*
X983086Y1232060D01*
X983129Y1232114D01*
X983178Y1232163D01*
X983183Y1232168D01*
X983189Y1232173D01*
X983205Y1232184D01*
X983227Y1232200D01*
X983254Y1232217D01*
X983286Y1232238D01*
X983324Y1232260D01*
X983367Y1232287D01*
X983475Y1232330D01*
X983600Y1232368D01*
X983740Y1232395D01*
X983822Y1232406D01*
X983903D01*
X983908D01*
X983924D01*
X983951D01*
X983989Y1232401D01*
X984027Y1232395D01*
X984081Y1232384D01*
X984190Y1232357D01*
X984255Y1232341D01*
X984319Y1232314D01*
X984384Y1232287D01*
X984444Y1232249D01*
X984509Y1232206D01*
X984568Y1232157D01*
X984622Y1232098D01*
X984677Y1232033D01*
Y1232038D01*
X984687Y1232044D01*
X984704Y1232060D01*
X984720Y1232082D01*
X984752Y1232103D01*
X984790Y1232136D01*
X984833Y1232168D01*
X984887Y1232200D01*
X984958Y1232238D01*
X985034Y1232282D01*
X985120Y1232320D01*
X985223Y1232363D01*
X985337Y1232406D01*
X985466Y1232444D01*
X985612Y1232487D01*
X985769Y1232525D01*
X986505Y1232693D01*
Y1232206D01*
D02*
G37*
G36*
X752391Y1006977D02*
X751683D01*
Y1009418D01*
X750617D01*
Y1006977D01*
X749909D01*
Y1012525D01*
X750617D01*
Y1010084D01*
X751683D01*
Y1012525D01*
X752391D01*
Y1006977D01*
D02*
G37*
G36*
X755282Y1011875D02*
X754216D01*
Y1010234D01*
X754233D01*
X754266Y1010226D01*
X754333Y1010209D01*
X754408Y1010184D01*
X754508Y1010151D01*
X754607Y1010101D01*
X754724Y1010042D01*
X754841Y1009967D01*
X754949Y1009876D01*
X755066Y1009768D01*
X755166Y1009643D01*
X755266Y1009493D01*
X755341Y1009318D01*
X755407Y1009126D01*
X755441Y1008901D01*
X755457Y1008651D01*
Y1008643D01*
Y1008618D01*
Y1008576D01*
X755449Y1008526D01*
Y1008459D01*
X755432Y1008384D01*
X755424Y1008301D01*
X755407Y1008210D01*
X755357Y1008010D01*
X755282Y1007801D01*
X755232Y1007693D01*
X755182Y1007585D01*
X755116Y1007485D01*
X755041Y1007385D01*
X755032Y1007376D01*
X755024Y1007360D01*
X754999Y1007335D01*
X754966Y1007310D01*
X754924Y1007268D01*
X754874Y1007226D01*
X754757Y1007135D01*
X754607Y1007035D01*
X754424Y1006960D01*
X754324Y1006927D01*
X754224Y1006902D01*
X754116Y1006885D01*
X753999Y1006877D01*
X753941D01*
X753874Y1006885D01*
X753783Y1006893D01*
X753683Y1006910D01*
X753566Y1006935D01*
X753441Y1006968D01*
X753316Y1007018D01*
Y1007693D01*
X753333Y1007685D01*
X753374Y1007676D01*
X753433Y1007651D01*
X753508Y1007635D01*
X753599Y1007610D01*
X753691Y1007585D01*
X753783Y1007576D01*
X753874Y1007568D01*
X753891D01*
X753941Y1007576D01*
X754008Y1007585D01*
X754099Y1007601D01*
X754191Y1007635D01*
X754299Y1007685D01*
X754399Y1007760D01*
X754491Y1007851D01*
X754499Y1007868D01*
X754524Y1007901D01*
X754566Y1007968D01*
X754607Y1008051D01*
X754649Y1008168D01*
X754691Y1008301D01*
X754716Y1008451D01*
X754724Y1008626D01*
Y1008634D01*
Y1008651D01*
Y1008676D01*
Y1008701D01*
X754707Y1008793D01*
X754691Y1008901D01*
X754666Y1009018D01*
X754616Y1009143D01*
X754557Y1009259D01*
X754474Y1009368D01*
X754466Y1009376D01*
X754433Y1009409D01*
X754374Y1009451D01*
X754299Y1009509D01*
X754208Y1009559D01*
X754091Y1009601D01*
X753949Y1009634D01*
X753799Y1009643D01*
X753691D01*
X753599Y1009626D01*
X753558Y1009618D01*
X753516Y1009609D01*
Y1012525D01*
X755282D01*
Y1011875D01*
D02*
G37*
G36*
X985499Y1067099D02*
X985542D01*
X985591Y1067088D01*
X985645Y1067083D01*
X985704Y1067072D01*
X985834Y1067039D01*
X985969Y1066991D01*
X986040Y1066958D01*
X986110Y1066926D01*
X986175Y1066882D01*
X986240Y1066834D01*
X986245Y1066828D01*
X986256Y1066823D01*
X986273Y1066807D01*
X986289Y1066785D01*
X986316Y1066758D01*
X986343Y1066726D01*
X986402Y1066650D01*
X986467Y1066553D01*
X986516Y1066433D01*
X986538Y1066368D01*
X986554Y1066304D01*
X986565Y1066233D01*
X986570Y1066158D01*
Y1066120D01*
X986565Y1066076D01*
X986559Y1066017D01*
X986548Y1065952D01*
X986532Y1065876D01*
X986510Y1065795D01*
X986478Y1065714D01*
X986040D01*
X986045Y1065725D01*
X986051Y1065752D01*
X986067Y1065790D01*
X986078Y1065838D01*
X986094Y1065898D01*
X986110Y1065957D01*
X986116Y1066017D01*
X986121Y1066076D01*
Y1066087D01*
X986116Y1066120D01*
X986110Y1066163D01*
X986099Y1066223D01*
X986078Y1066282D01*
X986045Y1066352D01*
X985997Y1066417D01*
X985937Y1066477D01*
X985926Y1066482D01*
X985905Y1066498D01*
X985861Y1066525D01*
X985807Y1066553D01*
X985732Y1066580D01*
X985645Y1066607D01*
X985547Y1066623D01*
X985434Y1066628D01*
X985428D01*
X985418D01*
X985402D01*
X985385D01*
X985326Y1066617D01*
X985255Y1066607D01*
X985180Y1066590D01*
X985098Y1066558D01*
X985023Y1066520D01*
X984952Y1066466D01*
X984947Y1066460D01*
X984925Y1066439D01*
X984898Y1066401D01*
X984860Y1066352D01*
X984828Y1066293D01*
X984801Y1066217D01*
X984779Y1066125D01*
X984774Y1066028D01*
Y1065957D01*
X984785Y1065898D01*
X984790Y1065871D01*
X984796Y1065844D01*
X982902D01*
Y1066991D01*
X983324D01*
Y1066298D01*
X984390D01*
Y1066309D01*
X984395Y1066331D01*
X984406Y1066374D01*
X984422Y1066423D01*
X984444Y1066488D01*
X984476Y1066553D01*
X984514Y1066628D01*
X984563Y1066704D01*
X984622Y1066774D01*
X984693Y1066850D01*
X984774Y1066915D01*
X984871Y1066980D01*
X984985Y1067029D01*
X985109Y1067072D01*
X985255Y1067094D01*
X985418Y1067104D01*
X985423D01*
X985439D01*
X985466D01*
X985499Y1067099D01*
D02*
G37*
G36*
X986505Y1064919D02*
X985888Y1064783D01*
X985883D01*
X985861Y1064778D01*
X985829Y1064767D01*
X985786Y1064756D01*
X985732Y1064745D01*
X985672Y1064729D01*
X985537Y1064691D01*
X985396Y1064653D01*
X985261Y1064610D01*
X985196Y1064583D01*
X985142Y1064561D01*
X985093Y1064540D01*
X985055Y1064518D01*
X985050Y1064513D01*
X985028Y1064497D01*
X985001Y1064475D01*
X984969Y1064443D01*
X984936Y1064405D01*
X984909Y1064361D01*
X984893Y1064307D01*
Y1064248D01*
X986505D01*
Y1063783D01*
X982902D01*
Y1064210D01*
X982907Y1064242D01*
X982913Y1064280D01*
X982918Y1064329D01*
X982934Y1064432D01*
X982967Y1064545D01*
X983016Y1064664D01*
X983048Y1064718D01*
X983086Y1064772D01*
X983129Y1064827D01*
X983178Y1064875D01*
X983183Y1064881D01*
X983189Y1064886D01*
X983205Y1064897D01*
X983227Y1064913D01*
X983254Y1064929D01*
X983286Y1064951D01*
X983324Y1064973D01*
X983367Y1065000D01*
X983475Y1065043D01*
X983600Y1065081D01*
X983740Y1065108D01*
X983822Y1065119D01*
X983903D01*
X983908D01*
X983924D01*
X983951D01*
X983989Y1065113D01*
X984027Y1065108D01*
X984081Y1065097D01*
X984190Y1065070D01*
X984255Y1065054D01*
X984319Y1065027D01*
X984384Y1065000D01*
X984444Y1064962D01*
X984509Y1064919D01*
X984568Y1064870D01*
X984622Y1064810D01*
X984677Y1064745D01*
Y1064751D01*
X984687Y1064756D01*
X984704Y1064772D01*
X984720Y1064794D01*
X984752Y1064816D01*
X984790Y1064848D01*
X984833Y1064881D01*
X984887Y1064913D01*
X984958Y1064951D01*
X985034Y1064994D01*
X985120Y1065032D01*
X985223Y1065076D01*
X985337Y1065119D01*
X985466Y1065157D01*
X985612Y1065200D01*
X985769Y1065238D01*
X986505Y1065406D01*
Y1064919D01*
D02*
G37*
G36*
X1310045Y1066569D02*
X1311035D01*
Y1066104D01*
X1310045D01*
Y1065162D01*
X1309629D01*
X1307394Y1066131D01*
Y1066569D01*
X1309715D01*
Y1066769D01*
X1310045D01*
Y1066569D01*
D02*
G37*
G36*
X1311241Y1064697D02*
X1311306Y1064691D01*
X1311376Y1064681D01*
X1311463Y1064665D01*
X1311549Y1064643D01*
X1311636Y1064610D01*
X1311728Y1064573D01*
X1311814Y1064529D01*
X1311895Y1064470D01*
X1311971Y1064399D01*
X1312031Y1064318D01*
X1312079Y1064221D01*
X1312112Y1064107D01*
X1312117Y1064048D01*
X1312123Y1063983D01*
Y1063945D01*
X1312117Y1063918D01*
X1312112Y1063853D01*
X1312101Y1063772D01*
X1311679Y1063718D01*
Y1063739D01*
X1311685Y1063766D01*
Y1063793D01*
X1311690Y1063864D01*
Y1063956D01*
X1311685Y1063988D01*
X1311679Y1064026D01*
X1311668Y1064069D01*
X1311647Y1064113D01*
X1311625Y1064150D01*
X1311593Y1064178D01*
X1311587Y1064183D01*
X1311576Y1064188D01*
X1311549Y1064199D01*
X1311511Y1064210D01*
X1311463Y1064221D01*
X1311403Y1064226D01*
X1311322Y1064237D01*
X1311230D01*
X1307432D01*
Y1064702D01*
X1311154D01*
X1311165D01*
X1311198D01*
X1311241Y1064697D01*
D02*
G37*
G36*
X1012301Y1152945D02*
X1013292D01*
Y1152479D01*
X1012301D01*
Y1151538D01*
X1011885D01*
X1009650Y1152506D01*
Y1152945D01*
X1011972D01*
Y1153145D01*
X1012301D01*
Y1152945D01*
D02*
G37*
G36*
X1013292Y1150878D02*
X1012675Y1150743D01*
X1012669D01*
X1012648Y1150737D01*
X1012615Y1150726D01*
X1012572Y1150716D01*
X1012518Y1150705D01*
X1012458Y1150689D01*
X1012323Y1150651D01*
X1012182Y1150613D01*
X1012047Y1150570D01*
X1011982Y1150543D01*
X1011928Y1150521D01*
X1011880Y1150499D01*
X1011842Y1150478D01*
X1011836Y1150472D01*
X1011815Y1150456D01*
X1011788Y1150434D01*
X1011755Y1150402D01*
X1011723Y1150364D01*
X1011696Y1150321D01*
X1011679Y1150267D01*
Y1150207D01*
X1013292D01*
Y1149742D01*
X1009688D01*
Y1150169D01*
X1009694Y1150202D01*
X1009699Y1150240D01*
X1009705Y1150288D01*
X1009721Y1150391D01*
X1009753Y1150505D01*
X1009802Y1150624D01*
X1009835Y1150678D01*
X1009872Y1150732D01*
X1009916Y1150786D01*
X1009964Y1150835D01*
X1009970Y1150840D01*
X1009975Y1150846D01*
X1009991Y1150856D01*
X1010013Y1150873D01*
X1010040Y1150889D01*
X1010072Y1150910D01*
X1010110Y1150932D01*
X1010154Y1150959D01*
X1010262Y1151002D01*
X1010386Y1151040D01*
X1010527Y1151067D01*
X1010608Y1151078D01*
X1010689D01*
X1010695D01*
X1010711D01*
X1010738D01*
X1010776Y1151073D01*
X1010814Y1151067D01*
X1010868Y1151057D01*
X1010976Y1151030D01*
X1011041Y1151013D01*
X1011106Y1150986D01*
X1011171Y1150959D01*
X1011230Y1150921D01*
X1011295Y1150878D01*
X1011355Y1150829D01*
X1011409Y1150770D01*
X1011463Y1150705D01*
Y1150710D01*
X1011474Y1150716D01*
X1011490Y1150732D01*
X1011506Y1150754D01*
X1011539Y1150775D01*
X1011577Y1150808D01*
X1011620Y1150840D01*
X1011674Y1150873D01*
X1011744Y1150910D01*
X1011820Y1150954D01*
X1011907Y1150992D01*
X1012009Y1151035D01*
X1012123Y1151078D01*
X1012253Y1151116D01*
X1012399Y1151159D01*
X1012556Y1151197D01*
X1013292Y1151365D01*
Y1150878D01*
D02*
G37*
G36*
X985593Y1569142D02*
X985637D01*
X985680Y1569137D01*
X985734Y1569131D01*
X985794Y1569120D01*
X985918Y1569093D01*
X986048Y1569056D01*
X986178Y1569001D01*
X986297Y1568931D01*
X986302D01*
X986308Y1568920D01*
X986340Y1568893D01*
X986389Y1568845D01*
X986443Y1568780D01*
X986497Y1568704D01*
X986546Y1568607D01*
X986578Y1568493D01*
X986584Y1568433D01*
X986589Y1568369D01*
Y1568336D01*
X986584Y1568309D01*
X986573Y1568250D01*
X986551Y1568168D01*
X986519Y1568082D01*
X986470Y1567990D01*
X986438Y1567941D01*
X986394Y1567898D01*
X986351Y1567854D01*
X986302Y1567811D01*
X986297D01*
X986286Y1567800D01*
X986270Y1567790D01*
X986248Y1567779D01*
X986221Y1567763D01*
X986183Y1567746D01*
X986145Y1567725D01*
X986097Y1567708D01*
X986043Y1567687D01*
X985983Y1567665D01*
X985853Y1567633D01*
X985702Y1567611D01*
X985529Y1567600D01*
X985523D01*
X985501D01*
X985469Y1567606D01*
X985426D01*
X985377Y1567611D01*
X985318Y1567622D01*
X985253Y1567633D01*
X985188Y1567654D01*
X985112Y1567676D01*
X985042Y1567703D01*
X984966Y1567735D01*
X984896Y1567779D01*
X984825Y1567822D01*
X984760Y1567882D01*
X984706Y1567941D01*
X984652Y1568017D01*
X984647Y1568011D01*
X984641Y1568001D01*
X984625Y1567984D01*
X984598Y1567957D01*
X984571Y1567930D01*
X984538Y1567898D01*
X984495Y1567865D01*
X984446Y1567833D01*
X984392Y1567795D01*
X984333Y1567763D01*
X984268Y1567730D01*
X984198Y1567703D01*
X984122Y1567676D01*
X984041Y1567660D01*
X983949Y1567649D01*
X983857Y1567643D01*
X983851D01*
X983835D01*
X983814D01*
X983781Y1567649D01*
X983743D01*
X983700Y1567654D01*
X983597Y1567671D01*
X983484Y1567698D01*
X983364Y1567735D01*
X983245Y1567790D01*
X983143Y1567865D01*
X983137Y1567871D01*
X983132Y1567876D01*
X983099Y1567903D01*
X983062Y1567952D01*
X983013Y1568011D01*
X982964Y1568087D01*
X982921Y1568174D01*
X982894Y1568266D01*
X982888Y1568320D01*
X982883Y1568369D01*
Y1568396D01*
X982888Y1568417D01*
X982899Y1568471D01*
X982915Y1568542D01*
X982948Y1568617D01*
X982997Y1568704D01*
X983024Y1568747D01*
X983062Y1568790D01*
X983099Y1568834D01*
X983148Y1568877D01*
X983154Y1568882D01*
X983159Y1568888D01*
X983175Y1568899D01*
X983197Y1568915D01*
X983224Y1568931D01*
X983256Y1568947D01*
X983294Y1568969D01*
X983337Y1568991D01*
X983435Y1569034D01*
X983559Y1569066D01*
X983700Y1569093D01*
X983857Y1569104D01*
X983862D01*
X983878D01*
X983905D01*
X983943Y1569099D01*
X983987Y1569093D01*
X984035Y1569083D01*
X984090Y1569072D01*
X984149Y1569056D01*
X984214Y1569039D01*
X984279Y1569012D01*
X984344Y1568985D01*
X984409Y1568947D01*
X984474Y1568904D01*
X984538Y1568855D01*
X984598Y1568796D01*
X984652Y1568731D01*
X984658Y1568736D01*
X984663Y1568747D01*
X984679Y1568769D01*
X984701Y1568796D01*
X984728Y1568828D01*
X984766Y1568861D01*
X984809Y1568899D01*
X984858Y1568942D01*
X984912Y1568980D01*
X984977Y1569018D01*
X985047Y1569050D01*
X985123Y1569083D01*
X985209Y1569110D01*
X985301Y1569131D01*
X985404Y1569142D01*
X985512Y1569148D01*
X985518D01*
X985534D01*
X985561D01*
X985593Y1569142D01*
D02*
G37*
G36*
X986524Y1566875D02*
X985907Y1566740D01*
X985902D01*
X985880Y1566735D01*
X985848Y1566724D01*
X985805Y1566713D01*
X985750Y1566702D01*
X985691Y1566686D01*
X985556Y1566648D01*
X985415Y1566610D01*
X985280Y1566567D01*
X985215Y1566540D01*
X985161Y1566518D01*
X985112Y1566497D01*
X985074Y1566475D01*
X985069Y1566470D01*
X985047Y1566453D01*
X985020Y1566432D01*
X984988Y1566399D01*
X984955Y1566361D01*
X984928Y1566318D01*
X984912Y1566264D01*
Y1566204D01*
X986524D01*
Y1565739D01*
X982921D01*
Y1566167D01*
X982926Y1566199D01*
X982932Y1566237D01*
X982937Y1566286D01*
X982953Y1566388D01*
X982986Y1566502D01*
X983035Y1566621D01*
X983067Y1566675D01*
X983105Y1566729D01*
X983148Y1566783D01*
X983197Y1566832D01*
X983202Y1566837D01*
X983208Y1566843D01*
X983224Y1566854D01*
X983245Y1566870D01*
X983272Y1566886D01*
X983305Y1566908D01*
X983343Y1566929D01*
X983386Y1566956D01*
X983494Y1567000D01*
X983619Y1567038D01*
X983759Y1567065D01*
X983841Y1567076D01*
X983922D01*
X983927D01*
X983943D01*
X983970D01*
X984008Y1567070D01*
X984046Y1567065D01*
X984100Y1567054D01*
X984209Y1567027D01*
X984273Y1567011D01*
X984338Y1566983D01*
X984403Y1566956D01*
X984463Y1566919D01*
X984528Y1566875D01*
X984587Y1566827D01*
X984641Y1566767D01*
X984695Y1566702D01*
Y1566708D01*
X984706Y1566713D01*
X984723Y1566729D01*
X984739Y1566751D01*
X984771Y1566772D01*
X984809Y1566805D01*
X984852Y1566837D01*
X984906Y1566870D01*
X984977Y1566908D01*
X985052Y1566951D01*
X985139Y1566989D01*
X985242Y1567032D01*
X985356Y1567076D01*
X985485Y1567113D01*
X985631Y1567157D01*
X985788Y1567195D01*
X986524Y1567362D01*
Y1566875D01*
D02*
G37*
G36*
X1112053Y1679231D02*
X1112101Y1679226D01*
X1112161Y1679215D01*
X1112237Y1679188D01*
X1112318Y1679156D01*
X1112410Y1679112D01*
X1112513Y1679048D01*
Y1678582D01*
X1112502Y1678593D01*
X1112475Y1678615D01*
X1112426Y1678652D01*
X1112366Y1678696D01*
X1112296Y1678734D01*
X1112220Y1678772D01*
X1112134Y1678793D01*
X1112047Y1678804D01*
X1112036D01*
X1112004Y1678799D01*
X1111955Y1678788D01*
X1111896Y1678761D01*
X1111831Y1678723D01*
X1111793Y1678696D01*
X1111760Y1678663D01*
X1111728Y1678625D01*
X1111701Y1678582D01*
X1111674Y1678533D01*
X1111647Y1678474D01*
Y1678469D01*
X1111641Y1678458D01*
X1111636Y1678436D01*
X1111625Y1678409D01*
X1111620Y1678377D01*
X1111609Y1678328D01*
X1111598Y1678274D01*
X1111587Y1678214D01*
X1111571Y1678144D01*
X1111560Y1678063D01*
X1111550Y1677976D01*
X1111544Y1677879D01*
X1111533Y1677771D01*
X1111528Y1677652D01*
X1111523Y1677522D01*
Y1677387D01*
Y1677376D01*
Y1677354D01*
Y1677316D01*
Y1677262D01*
X1111528Y1677203D01*
Y1677132D01*
X1111533Y1677051D01*
X1111539Y1676965D01*
X1111555Y1676786D01*
X1111577Y1676608D01*
X1111587Y1676521D01*
X1111604Y1676440D01*
X1111625Y1676364D01*
X1111647Y1676299D01*
Y1676294D01*
X1111652Y1676283D01*
X1111663Y1676267D01*
X1111668Y1676250D01*
X1111701Y1676196D01*
X1111744Y1676137D01*
X1111804Y1676072D01*
X1111874Y1676023D01*
X1111917Y1676002D01*
X1111961Y1675985D01*
X1112009Y1675974D01*
X1112064Y1675969D01*
X1112074D01*
X1112101Y1675974D01*
X1112145Y1675985D01*
X1112199Y1676002D01*
X1112274Y1676034D01*
X1112356Y1676077D01*
X1112453Y1676142D01*
X1112502Y1676185D01*
X1112556Y1676229D01*
Y1675737D01*
X1112550D01*
X1112545Y1675726D01*
X1112529Y1675720D01*
X1112513Y1675704D01*
X1112458Y1675672D01*
X1112388Y1675639D01*
X1112307Y1675601D01*
X1112210Y1675569D01*
X1112112Y1675547D01*
X1112004Y1675536D01*
X1111982D01*
X1111961Y1675542D01*
X1111928D01*
X1111890Y1675553D01*
X1111842Y1675563D01*
X1111793Y1675574D01*
X1111739Y1675596D01*
X1111685Y1675623D01*
X1111625Y1675650D01*
X1111566Y1675688D01*
X1111506Y1675737D01*
X1111447Y1675791D01*
X1111387Y1675850D01*
X1111333Y1675926D01*
X1111284Y1676007D01*
Y1676012D01*
X1111274Y1676029D01*
X1111263Y1676056D01*
X1111246Y1676093D01*
X1111225Y1676142D01*
X1111203Y1676202D01*
X1111182Y1676272D01*
X1111160Y1676353D01*
X1111138Y1676445D01*
X1111117Y1676548D01*
X1111095Y1676662D01*
X1111073Y1676781D01*
X1111057Y1676911D01*
X1111046Y1677051D01*
X1111041Y1677203D01*
X1111036Y1677365D01*
Y1677376D01*
Y1677403D01*
Y1677451D01*
X1111041Y1677511D01*
Y1677581D01*
X1111046Y1677668D01*
X1111057Y1677765D01*
X1111068Y1677868D01*
X1111079Y1677976D01*
X1111095Y1678085D01*
X1111138Y1678317D01*
X1111203Y1678539D01*
X1111241Y1678642D01*
X1111284Y1678739D01*
X1111290Y1678745D01*
X1111295Y1678761D01*
X1111311Y1678788D01*
X1111333Y1678815D01*
X1111360Y1678853D01*
X1111393Y1678896D01*
X1111431Y1678939D01*
X1111474Y1678988D01*
X1111523Y1679037D01*
X1111577Y1679080D01*
X1111636Y1679123D01*
X1111701Y1679161D01*
X1111771Y1679194D01*
X1111847Y1679215D01*
X1111928Y1679231D01*
X1112015Y1679237D01*
X1112026D01*
X1112053Y1679231D01*
D02*
G37*
G36*
X1114217Y1678766D02*
X1113524D01*
Y1677700D01*
X1113535D01*
X1113557Y1677695D01*
X1113600Y1677684D01*
X1113649Y1677668D01*
X1113714Y1677646D01*
X1113779Y1677614D01*
X1113854Y1677576D01*
X1113930Y1677527D01*
X1114000Y1677468D01*
X1114076Y1677397D01*
X1114141Y1677316D01*
X1114206Y1677219D01*
X1114255Y1677105D01*
X1114298Y1676981D01*
X1114320Y1676835D01*
X1114330Y1676672D01*
Y1676667D01*
Y1676651D01*
Y1676624D01*
X1114325Y1676591D01*
Y1676548D01*
X1114314Y1676499D01*
X1114309Y1676445D01*
X1114298Y1676386D01*
X1114265Y1676256D01*
X1114217Y1676121D01*
X1114184Y1676050D01*
X1114152Y1675980D01*
X1114109Y1675915D01*
X1114060Y1675850D01*
X1114054Y1675845D01*
X1114049Y1675834D01*
X1114033Y1675818D01*
X1114011Y1675801D01*
X1113984Y1675774D01*
X1113952Y1675747D01*
X1113876Y1675688D01*
X1113779Y1675623D01*
X1113660Y1675574D01*
X1113595Y1675553D01*
X1113530Y1675536D01*
X1113459Y1675526D01*
X1113384Y1675520D01*
X1113346D01*
X1113302Y1675526D01*
X1113243Y1675531D01*
X1113178Y1675542D01*
X1113102Y1675558D01*
X1113021Y1675580D01*
X1112940Y1675612D01*
Y1676050D01*
X1112951Y1676045D01*
X1112978Y1676039D01*
X1113016Y1676023D01*
X1113064Y1676012D01*
X1113124Y1675996D01*
X1113183Y1675980D01*
X1113243Y1675974D01*
X1113302Y1675969D01*
X1113313D01*
X1113346Y1675974D01*
X1113389Y1675980D01*
X1113448Y1675991D01*
X1113508Y1676012D01*
X1113578Y1676045D01*
X1113643Y1676093D01*
X1113703Y1676153D01*
X1113708Y1676164D01*
X1113724Y1676185D01*
X1113752Y1676229D01*
X1113779Y1676283D01*
X1113806Y1676359D01*
X1113833Y1676445D01*
X1113849Y1676543D01*
X1113854Y1676656D01*
Y1676662D01*
Y1676672D01*
Y1676689D01*
Y1676705D01*
X1113843Y1676764D01*
X1113833Y1676835D01*
X1113816Y1676911D01*
X1113784Y1676992D01*
X1113746Y1677067D01*
X1113692Y1677138D01*
X1113687Y1677143D01*
X1113665Y1677165D01*
X1113627Y1677192D01*
X1113578Y1677230D01*
X1113519Y1677262D01*
X1113443Y1677289D01*
X1113351Y1677311D01*
X1113254Y1677316D01*
X1113183D01*
X1113124Y1677305D01*
X1113097Y1677300D01*
X1113070Y1677295D01*
Y1679188D01*
X1114217D01*
Y1678766D01*
D02*
G37*
G36*
X1311035Y1399902D02*
X1310965D01*
X1310960Y1399907D01*
X1310949Y1399913D01*
X1310927Y1399924D01*
X1310895Y1399945D01*
X1310857Y1399967D01*
X1310813Y1399989D01*
X1310765Y1400016D01*
X1310705Y1400048D01*
X1310640Y1400086D01*
X1310576Y1400124D01*
X1310419Y1400199D01*
X1310251Y1400286D01*
X1310067Y1400378D01*
X1309872Y1400465D01*
X1309672Y1400551D01*
X1309466Y1400627D01*
X1309261Y1400703D01*
X1309055Y1400762D01*
X1308860Y1400811D01*
X1308671Y1400838D01*
X1308579Y1400849D01*
X1308492D01*
X1308487D01*
X1308482D01*
X1308449D01*
X1308395Y1400843D01*
X1308336Y1400833D01*
X1308265Y1400816D01*
X1308190Y1400795D01*
X1308119Y1400762D01*
X1308054Y1400719D01*
X1308049Y1400714D01*
X1308027Y1400697D01*
X1308000Y1400665D01*
X1307968Y1400627D01*
X1307941Y1400578D01*
X1307914Y1400519D01*
X1307892Y1400454D01*
X1307887Y1400378D01*
Y1400351D01*
X1307892Y1400318D01*
X1307903Y1400275D01*
X1307914Y1400216D01*
X1307935Y1400145D01*
X1307968Y1400070D01*
X1308006Y1399978D01*
X1307524D01*
Y1399983D01*
X1307519Y1399989D01*
X1307513Y1400005D01*
X1307502Y1400026D01*
X1307481Y1400081D01*
X1307459Y1400145D01*
X1307437Y1400227D01*
X1307416Y1400313D01*
X1307400Y1400405D01*
X1307394Y1400497D01*
Y1400535D01*
X1307400Y1400562D01*
Y1400594D01*
X1307410Y1400632D01*
X1307427Y1400719D01*
X1307459Y1400816D01*
X1307508Y1400914D01*
X1307540Y1400962D01*
X1307573Y1401011D01*
X1307616Y1401060D01*
X1307665Y1401103D01*
X1307670D01*
X1307676Y1401114D01*
X1307692Y1401125D01*
X1307713Y1401136D01*
X1307740Y1401157D01*
X1307773Y1401173D01*
X1307816Y1401195D01*
X1307859Y1401217D01*
X1307908Y1401233D01*
X1307962Y1401254D01*
X1308092Y1401292D01*
X1308238Y1401314D01*
X1308406Y1401325D01*
X1308411D01*
X1308422D01*
X1308444D01*
X1308476D01*
X1308514Y1401319D01*
X1308557Y1401314D01*
X1308612Y1401309D01*
X1308666Y1401303D01*
X1308731Y1401292D01*
X1308801Y1401282D01*
X1308947Y1401249D01*
X1309115Y1401206D01*
X1309288Y1401146D01*
X1309293D01*
X1309310Y1401141D01*
X1309337Y1401130D01*
X1309374Y1401114D01*
X1309423Y1401092D01*
X1309483Y1401071D01*
X1309547Y1401044D01*
X1309629Y1401006D01*
X1309715Y1400968D01*
X1309813Y1400925D01*
X1309915Y1400876D01*
X1310029Y1400827D01*
X1310154Y1400768D01*
X1310289Y1400703D01*
X1310429Y1400632D01*
X1310576Y1400557D01*
Y1401401D01*
X1311035D01*
Y1399902D01*
D02*
G37*
G36*
X1311241Y1399399D02*
X1311306Y1399393D01*
X1311376Y1399383D01*
X1311463Y1399366D01*
X1311549Y1399345D01*
X1311636Y1399312D01*
X1311728Y1399274D01*
X1311814Y1399231D01*
X1311895Y1399172D01*
X1311971Y1399101D01*
X1312031Y1399020D01*
X1312079Y1398923D01*
X1312112Y1398809D01*
X1312117Y1398750D01*
X1312123Y1398685D01*
Y1398647D01*
X1312117Y1398620D01*
X1312112Y1398555D01*
X1312101Y1398474D01*
X1311679Y1398420D01*
Y1398441D01*
X1311685Y1398468D01*
Y1398495D01*
X1311690Y1398566D01*
Y1398658D01*
X1311685Y1398690D01*
X1311679Y1398728D01*
X1311668Y1398771D01*
X1311647Y1398815D01*
X1311625Y1398852D01*
X1311593Y1398879D01*
X1311587Y1398885D01*
X1311576Y1398890D01*
X1311549Y1398901D01*
X1311511Y1398912D01*
X1311463Y1398923D01*
X1311403Y1398928D01*
X1311322Y1398939D01*
X1311230D01*
X1307432D01*
Y1399404D01*
X1311154D01*
X1311165D01*
X1311198D01*
X1311241Y1399399D01*
D02*
G37*
G36*
X1201320Y1007477D02*
X1200612D01*
Y1009918D01*
X1199546D01*
Y1007477D01*
X1198838D01*
Y1013025D01*
X1199546D01*
Y1010584D01*
X1200612D01*
Y1013025D01*
X1201320D01*
Y1007477D01*
D02*
G37*
G36*
X1203187Y1010834D02*
X1203195D01*
X1203220Y1010842D01*
X1203245Y1010851D01*
X1203287Y1010859D01*
X1203387Y1010876D01*
X1203487Y1010884D01*
X1203528D01*
X1203562Y1010876D01*
X1203653Y1010859D01*
X1203753Y1010826D01*
X1203878Y1010767D01*
X1204003Y1010684D01*
X1204062Y1010634D01*
X1204120Y1010576D01*
X1204178Y1010501D01*
X1204237Y1010417D01*
Y1010409D01*
X1204253Y1010393D01*
X1204261Y1010368D01*
X1204286Y1010334D01*
X1204303Y1010284D01*
X1204328Y1010226D01*
X1204353Y1010168D01*
X1204386Y1010093D01*
X1204411Y1010001D01*
X1204436Y1009909D01*
X1204461Y1009809D01*
X1204486Y1009701D01*
X1204520Y1009459D01*
X1204528Y1009184D01*
Y1009176D01*
Y1009151D01*
Y1009109D01*
X1204520Y1009060D01*
Y1008993D01*
X1204511Y1008910D01*
X1204503Y1008826D01*
X1204486Y1008735D01*
X1204445Y1008526D01*
X1204386Y1008310D01*
X1204303Y1008093D01*
X1204186Y1007893D01*
Y1007885D01*
X1204170Y1007868D01*
X1204153Y1007843D01*
X1204128Y1007810D01*
X1204053Y1007727D01*
X1203953Y1007635D01*
X1203837Y1007543D01*
X1203695Y1007460D01*
X1203612Y1007427D01*
X1203528Y1007402D01*
X1203445Y1007385D01*
X1203353Y1007377D01*
X1203303D01*
X1203270Y1007385D01*
X1203187Y1007402D01*
X1203070Y1007435D01*
X1202945Y1007493D01*
X1202812Y1007577D01*
X1202737Y1007626D01*
X1202670Y1007693D01*
X1202612Y1007760D01*
X1202545Y1007843D01*
Y1007851D01*
X1202529Y1007868D01*
X1202512Y1007893D01*
X1202495Y1007926D01*
X1202470Y1007976D01*
X1202445Y1008035D01*
X1202412Y1008110D01*
X1202387Y1008185D01*
X1202354Y1008276D01*
X1202320Y1008376D01*
X1202295Y1008485D01*
X1202270Y1008610D01*
X1202254Y1008743D01*
X1202237Y1008885D01*
X1202220Y1009035D01*
Y1009193D01*
Y1009210D01*
Y1009243D01*
Y1009301D01*
X1202229Y1009384D01*
X1202237Y1009484D01*
X1202245Y1009601D01*
X1202262Y1009734D01*
X1202287Y1009884D01*
X1202312Y1010043D01*
X1202345Y1010209D01*
X1202387Y1010393D01*
X1202429Y1010576D01*
X1202487Y1010767D01*
X1202554Y1010959D01*
X1202628Y1011159D01*
X1202720Y1011351D01*
X1203537Y1013025D01*
X1204253D01*
X1203187Y1010834D01*
D02*
G37*
G36*
X688905Y1655166D02*
X688948D01*
X688991Y1655161D01*
X689045Y1655155D01*
X689105Y1655145D01*
X689229Y1655118D01*
X689359Y1655080D01*
X689489Y1655026D01*
X689608Y1654955D01*
X689613D01*
X689619Y1654944D01*
X689651Y1654917D01*
X689700Y1654869D01*
X689754Y1654804D01*
X689808Y1654728D01*
X689857Y1654631D01*
X689890Y1654517D01*
X689895Y1654458D01*
X689900Y1654393D01*
Y1654360D01*
X689895Y1654333D01*
X689884Y1654274D01*
X689862Y1654193D01*
X689830Y1654106D01*
X689781Y1654014D01*
X689749Y1653965D01*
X689706Y1653922D01*
X689662Y1653879D01*
X689613Y1653835D01*
X689608D01*
X689597Y1653825D01*
X689581Y1653814D01*
X689559Y1653803D01*
X689532Y1653787D01*
X689494Y1653770D01*
X689457Y1653749D01*
X689408Y1653733D01*
X689354Y1653711D01*
X689294Y1653689D01*
X689165Y1653657D01*
X689013Y1653635D01*
X688840Y1653624D01*
X688835D01*
X688813D01*
X688780Y1653630D01*
X688737D01*
X688688Y1653635D01*
X688629Y1653646D01*
X688564Y1653657D01*
X688499Y1653678D01*
X688423Y1653700D01*
X688353Y1653727D01*
X688277Y1653760D01*
X688207Y1653803D01*
X688137Y1653846D01*
X688072Y1653906D01*
X688018Y1653965D01*
X687963Y1654041D01*
X687958Y1654036D01*
X687953Y1654025D01*
X687936Y1654009D01*
X687909Y1653981D01*
X687882Y1653954D01*
X687850Y1653922D01*
X687806Y1653889D01*
X687758Y1653857D01*
X687704Y1653819D01*
X687644Y1653787D01*
X687579Y1653754D01*
X687509Y1653727D01*
X687433Y1653700D01*
X687352Y1653684D01*
X687260Y1653673D01*
X687168Y1653668D01*
X687163D01*
X687147D01*
X687125D01*
X687092Y1653673D01*
X687055D01*
X687011Y1653678D01*
X686908Y1653695D01*
X686795Y1653722D01*
X686676Y1653760D01*
X686557Y1653814D01*
X686454Y1653889D01*
X686449Y1653895D01*
X686443Y1653900D01*
X686411Y1653927D01*
X686373Y1653976D01*
X686324Y1654036D01*
X686275Y1654111D01*
X686232Y1654198D01*
X686205Y1654290D01*
X686200Y1654344D01*
X686194Y1654393D01*
Y1654420D01*
X686200Y1654441D01*
X686210Y1654496D01*
X686227Y1654566D01*
X686259Y1654642D01*
X686308Y1654728D01*
X686335Y1654771D01*
X686373Y1654815D01*
X686411Y1654858D01*
X686459Y1654901D01*
X686465Y1654907D01*
X686470Y1654912D01*
X686486Y1654923D01*
X686508Y1654939D01*
X686535Y1654955D01*
X686568Y1654972D01*
X686606Y1654993D01*
X686649Y1655015D01*
X686746Y1655058D01*
X686871Y1655091D01*
X687011Y1655118D01*
X687168Y1655128D01*
X687173D01*
X687190D01*
X687217D01*
X687255Y1655123D01*
X687298Y1655118D01*
X687347Y1655107D01*
X687401Y1655096D01*
X687460Y1655080D01*
X687525Y1655063D01*
X687590Y1655036D01*
X687655Y1655009D01*
X687720Y1654972D01*
X687785Y1654928D01*
X687850Y1654880D01*
X687909Y1654820D01*
X687963Y1654755D01*
X687969Y1654761D01*
X687974Y1654771D01*
X687990Y1654793D01*
X688012Y1654820D01*
X688039Y1654852D01*
X688077Y1654885D01*
X688120Y1654923D01*
X688169Y1654966D01*
X688223Y1655004D01*
X688288Y1655042D01*
X688358Y1655074D01*
X688434Y1655107D01*
X688521Y1655134D01*
X688613Y1655155D01*
X688715Y1655166D01*
X688824Y1655172D01*
X688829D01*
X688845D01*
X688872D01*
X688905Y1655166D01*
D02*
G37*
G36*
X690041Y1653094D02*
X690106Y1653089D01*
X690176Y1653078D01*
X690263Y1653062D01*
X690349Y1653040D01*
X690436Y1653008D01*
X690528Y1652970D01*
X690614Y1652926D01*
X690696Y1652867D01*
X690771Y1652797D01*
X690831Y1652715D01*
X690880Y1652618D01*
X690912Y1652504D01*
X690917Y1652445D01*
X690923Y1652380D01*
Y1652342D01*
X690917Y1652315D01*
X690912Y1652250D01*
X690901Y1652169D01*
X690479Y1652115D01*
Y1652137D01*
X690485Y1652164D01*
Y1652191D01*
X690490Y1652261D01*
Y1652353D01*
X690485Y1652386D01*
X690479Y1652423D01*
X690468Y1652467D01*
X690447Y1652510D01*
X690425Y1652548D01*
X690393Y1652575D01*
X690387Y1652580D01*
X690376Y1652586D01*
X690349Y1652596D01*
X690311Y1652607D01*
X690263Y1652618D01*
X690203Y1652623D01*
X690122Y1652634D01*
X690030D01*
X686232D01*
Y1653100D01*
X689954D01*
X689965D01*
X689998D01*
X690041Y1653094D01*
D02*
G37*
G36*
X688789Y1320502D02*
X688832D01*
X688886Y1320497D01*
X688940Y1320491D01*
X688999Y1320481D01*
X689135Y1320454D01*
X689275Y1320416D01*
X689416Y1320362D01*
X689546Y1320286D01*
X689551D01*
X689562Y1320275D01*
X689578Y1320264D01*
X689600Y1320248D01*
X689654Y1320199D01*
X689714Y1320134D01*
X689773Y1320059D01*
X689827Y1319967D01*
X689849Y1319913D01*
X689865Y1319859D01*
X689876Y1319804D01*
X689881Y1319745D01*
Y1319713D01*
X689876Y1319691D01*
X689865Y1319637D01*
X689844Y1319561D01*
X689806Y1319480D01*
X689752Y1319393D01*
X689719Y1319345D01*
X689676Y1319301D01*
X689632Y1319263D01*
X689578Y1319220D01*
X689573D01*
X689562Y1319209D01*
X689546Y1319198D01*
X689524Y1319188D01*
X689492Y1319171D01*
X689454Y1319155D01*
X689405Y1319134D01*
X689357Y1319117D01*
X689297Y1319096D01*
X689232Y1319074D01*
X689162Y1319058D01*
X689081Y1319042D01*
X688994Y1319031D01*
X688902Y1319020D01*
X688805Y1319009D01*
X688702D01*
X688691D01*
X688669D01*
X688632D01*
X688577Y1319015D01*
X688512Y1319020D01*
X688437Y1319025D01*
X688350Y1319036D01*
X688253Y1319052D01*
X688150Y1319069D01*
X688042Y1319090D01*
X687923Y1319117D01*
X687804Y1319144D01*
X687679Y1319182D01*
X687555Y1319226D01*
X687425Y1319274D01*
X687301Y1319334D01*
X686213Y1319864D01*
Y1320329D01*
X687636Y1319637D01*
Y1319642D01*
X687631Y1319658D01*
X687625Y1319675D01*
X687620Y1319702D01*
X687609Y1319767D01*
X687604Y1319832D01*
Y1319859D01*
X687609Y1319880D01*
X687620Y1319940D01*
X687642Y1320005D01*
X687679Y1320086D01*
X687734Y1320167D01*
X687766Y1320205D01*
X687804Y1320243D01*
X687852Y1320280D01*
X687907Y1320318D01*
X687912D01*
X687923Y1320329D01*
X687939Y1320335D01*
X687961Y1320351D01*
X687993Y1320362D01*
X688031Y1320378D01*
X688069Y1320394D01*
X688118Y1320416D01*
X688177Y1320432D01*
X688237Y1320448D01*
X688301Y1320464D01*
X688372Y1320481D01*
X688529Y1320502D01*
X688707Y1320508D01*
X688713D01*
X688729D01*
X688756D01*
X688789Y1320502D01*
D02*
G37*
G36*
X690022Y1318425D02*
X690087Y1318419D01*
X690157Y1318409D01*
X690244Y1318392D01*
X690330Y1318371D01*
X690417Y1318338D01*
X690509Y1318300D01*
X690595Y1318257D01*
X690677Y1318198D01*
X690752Y1318127D01*
X690812Y1318046D01*
X690861Y1317949D01*
X690893Y1317835D01*
X690898Y1317776D01*
X690904Y1317711D01*
Y1317673D01*
X690898Y1317646D01*
X690893Y1317581D01*
X690882Y1317500D01*
X690460Y1317446D01*
Y1317467D01*
X690466Y1317494D01*
Y1317521D01*
X690471Y1317592D01*
Y1317684D01*
X690466Y1317716D01*
X690460Y1317754D01*
X690449Y1317797D01*
X690428Y1317841D01*
X690406Y1317878D01*
X690374Y1317905D01*
X690368Y1317911D01*
X690357Y1317916D01*
X690330Y1317927D01*
X690293Y1317938D01*
X690244Y1317949D01*
X690184Y1317954D01*
X690103Y1317965D01*
X690011D01*
X686213D01*
Y1318430D01*
X689935D01*
X689946D01*
X689979D01*
X690022Y1318425D01*
D02*
G37*
G36*
X688810Y1153123D02*
X688853D01*
X688902Y1153112D01*
X688956Y1153107D01*
X689016Y1153096D01*
X689146Y1153064D01*
X689281Y1153015D01*
X689351Y1152982D01*
X689421Y1152950D01*
X689486Y1152907D01*
X689551Y1152858D01*
X689557Y1152853D01*
X689567Y1152847D01*
X689584Y1152831D01*
X689600Y1152809D01*
X689627Y1152782D01*
X689654Y1152750D01*
X689714Y1152674D01*
X689779Y1152577D01*
X689827Y1152458D01*
X689849Y1152393D01*
X689865Y1152328D01*
X689876Y1152257D01*
X689881Y1152182D01*
Y1152144D01*
X689876Y1152101D01*
X689871Y1152041D01*
X689860Y1151976D01*
X689844Y1151900D01*
X689822Y1151819D01*
X689789Y1151738D01*
X689351D01*
X689357Y1151749D01*
X689362Y1151776D01*
X689378Y1151814D01*
X689389Y1151862D01*
X689405Y1151922D01*
X689421Y1151982D01*
X689427Y1152041D01*
X689432Y1152101D01*
Y1152111D01*
X689427Y1152144D01*
X689421Y1152187D01*
X689411Y1152247D01*
X689389Y1152306D01*
X689357Y1152376D01*
X689308Y1152441D01*
X689248Y1152501D01*
X689238Y1152506D01*
X689216Y1152523D01*
X689173Y1152550D01*
X689118Y1152577D01*
X689043Y1152604D01*
X688956Y1152631D01*
X688859Y1152647D01*
X688745Y1152652D01*
X688740D01*
X688729D01*
X688713D01*
X688697D01*
X688637Y1152642D01*
X688567Y1152631D01*
X688491Y1152615D01*
X688410Y1152582D01*
X688334Y1152544D01*
X688264Y1152490D01*
X688258Y1152485D01*
X688237Y1152463D01*
X688210Y1152425D01*
X688172Y1152376D01*
X688139Y1152317D01*
X688112Y1152241D01*
X688091Y1152149D01*
X688085Y1152052D01*
Y1151982D01*
X688096Y1151922D01*
X688101Y1151895D01*
X688107Y1151868D01*
X686213D01*
Y1153015D01*
X686635D01*
Y1152322D01*
X687701D01*
Y1152333D01*
X687706Y1152355D01*
X687717Y1152398D01*
X687734Y1152447D01*
X687755Y1152512D01*
X687788Y1152577D01*
X687825Y1152652D01*
X687874Y1152728D01*
X687934Y1152798D01*
X688004Y1152874D01*
X688085Y1152939D01*
X688183Y1153004D01*
X688296Y1153053D01*
X688421Y1153096D01*
X688567Y1153118D01*
X688729Y1153129D01*
X688734D01*
X688751D01*
X688778D01*
X688810Y1153123D01*
D02*
G37*
G36*
X690022Y1151137D02*
X690087Y1151132D01*
X690157Y1151121D01*
X690244Y1151105D01*
X690330Y1151083D01*
X690417Y1151051D01*
X690509Y1151013D01*
X690595Y1150970D01*
X690677Y1150910D01*
X690752Y1150840D01*
X690812Y1150759D01*
X690861Y1150661D01*
X690893Y1150548D01*
X690898Y1150488D01*
X690904Y1150423D01*
Y1150386D01*
X690898Y1150359D01*
X690893Y1150294D01*
X690882Y1150212D01*
X690460Y1150158D01*
Y1150180D01*
X690466Y1150207D01*
Y1150234D01*
X690471Y1150304D01*
Y1150396D01*
X690466Y1150429D01*
X690460Y1150467D01*
X690449Y1150510D01*
X690428Y1150553D01*
X690406Y1150591D01*
X690374Y1150618D01*
X690368Y1150624D01*
X690357Y1150629D01*
X690330Y1150640D01*
X690293Y1150651D01*
X690244Y1150661D01*
X690184Y1150667D01*
X690103Y1150678D01*
X690011D01*
X686213D01*
Y1151143D01*
X689935D01*
X689946D01*
X689979D01*
X690022Y1151137D01*
D02*
G37*
G36*
X1310116Y1234018D02*
X1310154D01*
X1310197Y1234013D01*
X1310300Y1233991D01*
X1310419Y1233959D01*
X1310543Y1233916D01*
X1310673Y1233851D01*
X1310732Y1233808D01*
X1310792Y1233764D01*
X1310797Y1233759D01*
X1310803Y1233753D01*
X1310819Y1233737D01*
X1310841Y1233716D01*
X1310889Y1233661D01*
X1310943Y1233591D01*
X1311003Y1233499D01*
X1311052Y1233391D01*
X1311073Y1233331D01*
X1311089Y1233272D01*
X1311095Y1233207D01*
X1311100Y1233137D01*
Y1233104D01*
X1311095Y1233061D01*
X1311084Y1233007D01*
X1311073Y1232942D01*
X1311057Y1232861D01*
X1311030Y1232774D01*
X1310992Y1232677D01*
X1310532D01*
X1310538Y1232688D01*
X1310548Y1232715D01*
X1310570Y1232758D01*
X1310592Y1232812D01*
X1310613Y1232872D01*
X1310635Y1232936D01*
X1310646Y1233007D01*
X1310651Y1233072D01*
Y1233083D01*
X1310646Y1233110D01*
X1310640Y1233148D01*
X1310630Y1233196D01*
X1310608Y1233250D01*
X1310576Y1233304D01*
X1310538Y1233359D01*
X1310478Y1233413D01*
X1310467Y1233418D01*
X1310446Y1233434D01*
X1310408Y1233456D01*
X1310354Y1233483D01*
X1310283Y1233505D01*
X1310202Y1233526D01*
X1310110Y1233542D01*
X1310002Y1233548D01*
X1309997D01*
X1309975D01*
X1309948Y1233542D01*
X1309910D01*
X1309867Y1233532D01*
X1309818Y1233521D01*
X1309764Y1233510D01*
X1309704Y1233488D01*
X1309650Y1233467D01*
X1309591Y1233434D01*
X1309537Y1233396D01*
X1309488Y1233353D01*
X1309439Y1233299D01*
X1309401Y1233234D01*
X1309374Y1233164D01*
X1309353Y1233083D01*
X1308893D01*
Y1233088D01*
X1308887Y1233099D01*
X1308882Y1233120D01*
X1308877Y1233148D01*
X1308850Y1233218D01*
X1308801Y1233294D01*
X1308774Y1233331D01*
X1308736Y1233369D01*
X1308693Y1233407D01*
X1308644Y1233440D01*
X1308584Y1233467D01*
X1308525Y1233488D01*
X1308449Y1233499D01*
X1308368Y1233505D01*
X1308363D01*
X1308357D01*
X1308330D01*
X1308287Y1233499D01*
X1308233Y1233488D01*
X1308173Y1233477D01*
X1308108Y1233456D01*
X1308044Y1233423D01*
X1307989Y1233385D01*
X1307984Y1233380D01*
X1307968Y1233364D01*
X1307941Y1233337D01*
X1307914Y1233304D01*
X1307892Y1233256D01*
X1307865Y1233202D01*
X1307849Y1233142D01*
X1307843Y1233072D01*
Y1233045D01*
X1307849Y1233018D01*
X1307854Y1232980D01*
X1307865Y1232931D01*
X1307881Y1232877D01*
X1307903Y1232818D01*
X1307935Y1232758D01*
X1307486D01*
X1307481Y1232769D01*
X1307470Y1232790D01*
X1307459Y1232828D01*
X1307437Y1232882D01*
X1307421Y1232942D01*
X1307410Y1233012D01*
X1307400Y1233088D01*
X1307394Y1233169D01*
Y1233202D01*
X1307400Y1233229D01*
Y1233256D01*
X1307405Y1233294D01*
X1307427Y1233369D01*
X1307459Y1233461D01*
X1307502Y1233559D01*
X1307567Y1233656D01*
X1307611Y1233705D01*
X1307654Y1233748D01*
X1307659Y1233753D01*
X1307665Y1233759D01*
X1307681Y1233770D01*
X1307697Y1233786D01*
X1307757Y1233824D01*
X1307827Y1233867D01*
X1307919Y1233905D01*
X1308033Y1233943D01*
X1308157Y1233970D01*
X1308222Y1233981D01*
X1308292D01*
X1308298D01*
X1308314D01*
X1308347Y1233975D01*
X1308384Y1233970D01*
X1308428Y1233964D01*
X1308482Y1233954D01*
X1308536Y1233937D01*
X1308601Y1233910D01*
X1308666Y1233883D01*
X1308731Y1233845D01*
X1308801Y1233802D01*
X1308871Y1233748D01*
X1308936Y1233689D01*
X1309001Y1233613D01*
X1309061Y1233532D01*
X1309115Y1233434D01*
Y1233440D01*
X1309126Y1233461D01*
X1309136Y1233488D01*
X1309158Y1233526D01*
X1309185Y1233569D01*
X1309218Y1233624D01*
X1309261Y1233672D01*
X1309310Y1233732D01*
X1309369Y1233786D01*
X1309434Y1233840D01*
X1309510Y1233889D01*
X1309596Y1233932D01*
X1309688Y1233970D01*
X1309796Y1233997D01*
X1309910Y1234018D01*
X1310040Y1234024D01*
X1310045D01*
X1310061D01*
X1310083D01*
X1310116Y1234018D01*
D02*
G37*
G36*
X1311241Y1232109D02*
X1311306Y1232103D01*
X1311376Y1232093D01*
X1311463Y1232076D01*
X1311549Y1232055D01*
X1311636Y1232022D01*
X1311728Y1231984D01*
X1311814Y1231941D01*
X1311895Y1231881D01*
X1311971Y1231811D01*
X1312031Y1231730D01*
X1312079Y1231633D01*
X1312112Y1231519D01*
X1312117Y1231460D01*
X1312123Y1231395D01*
Y1231357D01*
X1312117Y1231330D01*
X1312112Y1231265D01*
X1312101Y1231184D01*
X1311679Y1231130D01*
Y1231151D01*
X1311685Y1231178D01*
Y1231205D01*
X1311690Y1231276D01*
Y1231367D01*
X1311685Y1231400D01*
X1311679Y1231438D01*
X1311668Y1231481D01*
X1311647Y1231524D01*
X1311625Y1231562D01*
X1311593Y1231589D01*
X1311587Y1231595D01*
X1311576Y1231600D01*
X1311549Y1231611D01*
X1311511Y1231622D01*
X1311463Y1231633D01*
X1311403Y1231638D01*
X1311322Y1231649D01*
X1311230D01*
X1307432D01*
Y1232114D01*
X1311154D01*
X1311165D01*
X1311198D01*
X1311241Y1232109D01*
D02*
G37*
G36*
X1013273Y1654412D02*
X1009669D01*
Y1654877D01*
X1013273D01*
Y1654412D01*
D02*
G37*
G36*
Y1653146D02*
X1012656Y1653011D01*
X1012651D01*
X1012629Y1653005D01*
X1012596Y1652994D01*
X1012553Y1652984D01*
X1012499Y1652973D01*
X1012439Y1652956D01*
X1012304Y1652919D01*
X1012164Y1652881D01*
X1012028Y1652837D01*
X1011963Y1652810D01*
X1011909Y1652789D01*
X1011861Y1652767D01*
X1011823Y1652745D01*
X1011817Y1652740D01*
X1011796Y1652724D01*
X1011769Y1652702D01*
X1011736Y1652670D01*
X1011704Y1652632D01*
X1011677Y1652589D01*
X1011660Y1652534D01*
Y1652475D01*
X1013273D01*
Y1652010D01*
X1009669D01*
Y1652437D01*
X1009675Y1652469D01*
X1009680Y1652507D01*
X1009686Y1652556D01*
X1009702Y1652659D01*
X1009734Y1652773D01*
X1009783Y1652892D01*
X1009816Y1652946D01*
X1009853Y1653000D01*
X1009897Y1653054D01*
X1009945Y1653103D01*
X1009951Y1653108D01*
X1009956Y1653113D01*
X1009973Y1653124D01*
X1009994Y1653140D01*
X1010021Y1653157D01*
X1010054Y1653178D01*
X1010091Y1653200D01*
X1010135Y1653227D01*
X1010243Y1653270D01*
X1010367Y1653308D01*
X1010508Y1653335D01*
X1010589Y1653346D01*
X1010670D01*
X1010676D01*
X1010692D01*
X1010719D01*
X1010757Y1653341D01*
X1010795Y1653335D01*
X1010849Y1653324D01*
X1010957Y1653297D01*
X1011022Y1653281D01*
X1011087Y1653254D01*
X1011152Y1653227D01*
X1011211Y1653189D01*
X1011276Y1653146D01*
X1011336Y1653097D01*
X1011390Y1653038D01*
X1011444Y1652973D01*
Y1652978D01*
X1011455Y1652984D01*
X1011471Y1653000D01*
X1011487Y1653021D01*
X1011520Y1653043D01*
X1011558Y1653076D01*
X1011601Y1653108D01*
X1011655Y1653140D01*
X1011725Y1653178D01*
X1011801Y1653221D01*
X1011888Y1653259D01*
X1011991Y1653303D01*
X1012104Y1653346D01*
X1012234Y1653384D01*
X1012380Y1653427D01*
X1012537Y1653465D01*
X1013273Y1653633D01*
Y1653146D01*
D02*
G37*
G36*
X1288354Y1707977D02*
X1287646D01*
Y1710418D01*
X1286579D01*
Y1707977D01*
X1285871D01*
Y1713525D01*
X1286579D01*
Y1711084D01*
X1287646D01*
Y1713525D01*
X1288354D01*
Y1707977D01*
D02*
G37*
G36*
X1290345Y1707877D02*
X1289662Y1708027D01*
X1290628Y1712875D01*
X1289229D01*
Y1713525D01*
X1291495D01*
X1290345Y1707877D01*
D02*
G37*
G36*
X1013292Y1486278D02*
X1013221D01*
X1013216Y1486283D01*
X1013205Y1486289D01*
X1013183Y1486299D01*
X1013151Y1486321D01*
X1013113Y1486343D01*
X1013070Y1486364D01*
X1013021Y1486391D01*
X1012962Y1486424D01*
X1012897Y1486462D01*
X1012832Y1486500D01*
X1012675Y1486575D01*
X1012507Y1486662D01*
X1012323Y1486754D01*
X1012128Y1486840D01*
X1011928Y1486927D01*
X1011723Y1487003D01*
X1011517Y1487079D01*
X1011311Y1487138D01*
X1011117Y1487187D01*
X1010927Y1487214D01*
X1010835Y1487224D01*
X1010749D01*
X1010743D01*
X1010738D01*
X1010705D01*
X1010651Y1487219D01*
X1010592Y1487208D01*
X1010522Y1487192D01*
X1010446Y1487170D01*
X1010376Y1487138D01*
X1010311Y1487095D01*
X1010305Y1487089D01*
X1010284Y1487073D01*
X1010257Y1487041D01*
X1010224Y1487003D01*
X1010197Y1486954D01*
X1010170Y1486895D01*
X1010148Y1486830D01*
X1010143Y1486754D01*
Y1486727D01*
X1010148Y1486694D01*
X1010159Y1486651D01*
X1010170Y1486591D01*
X1010192Y1486521D01*
X1010224Y1486445D01*
X1010262Y1486353D01*
X1009780D01*
Y1486359D01*
X1009775Y1486364D01*
X1009770Y1486380D01*
X1009759Y1486402D01*
X1009737Y1486456D01*
X1009715Y1486521D01*
X1009694Y1486602D01*
X1009672Y1486689D01*
X1009656Y1486781D01*
X1009650Y1486873D01*
Y1486911D01*
X1009656Y1486938D01*
Y1486970D01*
X1009667Y1487008D01*
X1009683Y1487095D01*
X1009715Y1487192D01*
X1009764Y1487289D01*
X1009797Y1487338D01*
X1009829Y1487387D01*
X1009872Y1487435D01*
X1009921Y1487479D01*
X1009927D01*
X1009932Y1487490D01*
X1009948Y1487500D01*
X1009970Y1487511D01*
X1009997Y1487533D01*
X1010029Y1487549D01*
X1010072Y1487571D01*
X1010116Y1487592D01*
X1010164Y1487609D01*
X1010219Y1487630D01*
X1010348Y1487668D01*
X1010495Y1487690D01*
X1010662Y1487701D01*
X1010668D01*
X1010678D01*
X1010700D01*
X1010733D01*
X1010770Y1487695D01*
X1010814Y1487690D01*
X1010868Y1487684D01*
X1010922Y1487679D01*
X1010987Y1487668D01*
X1011057Y1487657D01*
X1011203Y1487625D01*
X1011371Y1487582D01*
X1011544Y1487522D01*
X1011550D01*
X1011566Y1487517D01*
X1011593Y1487506D01*
X1011631Y1487490D01*
X1011679Y1487468D01*
X1011739Y1487446D01*
X1011804Y1487419D01*
X1011885Y1487381D01*
X1011972Y1487344D01*
X1012069Y1487300D01*
X1012172Y1487252D01*
X1012285Y1487203D01*
X1012410Y1487143D01*
X1012545Y1487079D01*
X1012686Y1487008D01*
X1012832Y1486932D01*
Y1487776D01*
X1013292D01*
Y1486278D01*
D02*
G37*
G36*
Y1485580D02*
X1012675Y1485445D01*
X1012669D01*
X1012648Y1485439D01*
X1012615Y1485428D01*
X1012572Y1485417D01*
X1012518Y1485407D01*
X1012458Y1485390D01*
X1012323Y1485353D01*
X1012182Y1485315D01*
X1012047Y1485271D01*
X1011982Y1485244D01*
X1011928Y1485223D01*
X1011880Y1485201D01*
X1011842Y1485179D01*
X1011836Y1485174D01*
X1011815Y1485158D01*
X1011788Y1485136D01*
X1011755Y1485104D01*
X1011723Y1485066D01*
X1011696Y1485023D01*
X1011679Y1484969D01*
Y1484909D01*
X1013292D01*
Y1484444D01*
X1009688D01*
Y1484871D01*
X1009694Y1484904D01*
X1009699Y1484941D01*
X1009705Y1484990D01*
X1009721Y1485093D01*
X1009753Y1485206D01*
X1009802Y1485326D01*
X1009835Y1485380D01*
X1009872Y1485434D01*
X1009916Y1485488D01*
X1009964Y1485537D01*
X1009970Y1485542D01*
X1009975Y1485547D01*
X1009991Y1485558D01*
X1010013Y1485574D01*
X1010040Y1485591D01*
X1010072Y1485612D01*
X1010110Y1485634D01*
X1010154Y1485661D01*
X1010262Y1485704D01*
X1010386Y1485742D01*
X1010527Y1485769D01*
X1010608Y1485780D01*
X1010689D01*
X1010695D01*
X1010711D01*
X1010738D01*
X1010776Y1485775D01*
X1010814Y1485769D01*
X1010868Y1485758D01*
X1010976Y1485731D01*
X1011041Y1485715D01*
X1011106Y1485688D01*
X1011171Y1485661D01*
X1011230Y1485623D01*
X1011295Y1485580D01*
X1011355Y1485531D01*
X1011409Y1485472D01*
X1011463Y1485407D01*
Y1485412D01*
X1011474Y1485417D01*
X1011490Y1485434D01*
X1011506Y1485455D01*
X1011539Y1485477D01*
X1011577Y1485509D01*
X1011620Y1485542D01*
X1011674Y1485574D01*
X1011744Y1485612D01*
X1011820Y1485656D01*
X1011907Y1485693D01*
X1012009Y1485737D01*
X1012123Y1485780D01*
X1012253Y1485818D01*
X1012399Y1485861D01*
X1012556Y1485899D01*
X1013292Y1486067D01*
Y1485580D01*
D02*
G37*
G36*
X689881Y1487073D02*
X689784Y1486629D01*
X686635Y1487257D01*
Y1486348D01*
X686213D01*
Y1487820D01*
X689881Y1487073D01*
D02*
G37*
G36*
X690022Y1485780D02*
X690087Y1485774D01*
X690157Y1485764D01*
X690244Y1485747D01*
X690330Y1485726D01*
X690417Y1485693D01*
X690509Y1485655D01*
X690595Y1485612D01*
X690677Y1485553D01*
X690752Y1485482D01*
X690812Y1485401D01*
X690861Y1485304D01*
X690893Y1485190D01*
X690898Y1485131D01*
X690904Y1485066D01*
Y1485028D01*
X690898Y1485001D01*
X690893Y1484936D01*
X690882Y1484855D01*
X690460Y1484801D01*
Y1484822D01*
X690466Y1484849D01*
Y1484876D01*
X690471Y1484947D01*
Y1485039D01*
X690466Y1485071D01*
X690460Y1485109D01*
X690449Y1485152D01*
X690428Y1485195D01*
X690406Y1485233D01*
X690374Y1485260D01*
X690368Y1485266D01*
X690357Y1485271D01*
X690330Y1485282D01*
X690293Y1485293D01*
X690244Y1485304D01*
X690184Y1485309D01*
X690103Y1485320D01*
X690011D01*
X686213D01*
Y1485785D01*
X689935D01*
X689946D01*
X689979D01*
X690022Y1485780D01*
D02*
G37*
G36*
X986570Y1401049D02*
X986473Y1400605D01*
X983324Y1401233D01*
Y1400324D01*
X982902D01*
Y1401795D01*
X986570Y1401049D01*
D02*
G37*
G36*
X986505Y1399561D02*
X985888Y1399426D01*
X985883D01*
X985861Y1399420D01*
X985829Y1399409D01*
X985786Y1399399D01*
X985732Y1399388D01*
X985672Y1399372D01*
X985537Y1399334D01*
X985396Y1399296D01*
X985261Y1399252D01*
X985196Y1399225D01*
X985142Y1399204D01*
X985093Y1399182D01*
X985055Y1399161D01*
X985050Y1399155D01*
X985028Y1399139D01*
X985001Y1399117D01*
X984969Y1399085D01*
X984936Y1399047D01*
X984909Y1399004D01*
X984893Y1398950D01*
Y1398890D01*
X986505D01*
Y1398425D01*
X982902D01*
Y1398852D01*
X982907Y1398885D01*
X982913Y1398922D01*
X982918Y1398971D01*
X982934Y1399074D01*
X982967Y1399188D01*
X983016Y1399307D01*
X983048Y1399361D01*
X983086Y1399415D01*
X983129Y1399469D01*
X983178Y1399518D01*
X983183Y1399523D01*
X983189Y1399529D01*
X983205Y1399539D01*
X983227Y1399556D01*
X983254Y1399572D01*
X983286Y1399593D01*
X983324Y1399615D01*
X983367Y1399642D01*
X983475Y1399685D01*
X983600Y1399723D01*
X983740Y1399750D01*
X983822Y1399761D01*
X983903D01*
X983908D01*
X983924D01*
X983951D01*
X983989Y1399756D01*
X984027Y1399750D01*
X984081Y1399740D01*
X984190Y1399712D01*
X984255Y1399696D01*
X984319Y1399669D01*
X984384Y1399642D01*
X984444Y1399604D01*
X984509Y1399561D01*
X984568Y1399512D01*
X984622Y1399453D01*
X984677Y1399388D01*
Y1399393D01*
X984687Y1399399D01*
X984704Y1399415D01*
X984720Y1399436D01*
X984752Y1399458D01*
X984790Y1399491D01*
X984833Y1399523D01*
X984887Y1399556D01*
X984958Y1399593D01*
X985034Y1399637D01*
X985120Y1399675D01*
X985223Y1399718D01*
X985337Y1399761D01*
X985466Y1399799D01*
X985612Y1399842D01*
X985769Y1399880D01*
X986505Y1400048D01*
Y1399561D01*
D02*
G37*
%LPC*%
G36*
X940001Y1749716D02*
X938568D01*
Y1749705D01*
X940001Y1749094D01*
Y1749716D01*
D02*
G37*
G36*
X709316Y1707863D02*
X709299D01*
X709258Y1707846D01*
X709199Y1707813D01*
X709166Y1707788D01*
X709133Y1707746D01*
X709091Y1707705D01*
X709058Y1707638D01*
X709024Y1707571D01*
X708999Y1707480D01*
X708974Y1707380D01*
X708958Y1707255D01*
X708949Y1707113D01*
X708941Y1706955D01*
Y1706938D01*
Y1706888D01*
X708949Y1706821D01*
X708958Y1706738D01*
X708966Y1706638D01*
X708983Y1706538D01*
X709008Y1706438D01*
X709041Y1706347D01*
X709049Y1706338D01*
X709058Y1706313D01*
X709083Y1706280D01*
X709116Y1706238D01*
X709158Y1706197D01*
X709199Y1706163D01*
X709258Y1706138D01*
X709316Y1706130D01*
X709349D01*
X709374Y1706138D01*
X709416Y1706155D01*
X709457Y1706180D01*
X709508Y1706222D01*
X709549Y1706272D01*
X709591Y1706347D01*
X709599Y1706355D01*
X709607Y1706388D01*
X709624Y1706438D01*
X709649Y1706505D01*
X709666Y1706588D01*
X709682Y1706688D01*
X709691Y1706813D01*
X709699Y1706946D01*
Y1706955D01*
Y1706988D01*
Y1707030D01*
X709691Y1707088D01*
Y1707163D01*
X709682Y1707238D01*
X709649Y1707405D01*
X709607Y1707571D01*
X709574Y1707655D01*
X709541Y1707721D01*
X709491Y1707780D01*
X709441Y1707821D01*
X709382Y1707854D01*
X709316Y1707863D01*
D02*
G37*
G36*
X709324Y1705439D02*
X709307D01*
X709258Y1705422D01*
X709183Y1705388D01*
X709141Y1705363D01*
X709099Y1705322D01*
X709058Y1705272D01*
X709016Y1705213D01*
X708983Y1705139D01*
X708941Y1705047D01*
X708916Y1704939D01*
X708891Y1704814D01*
X708883Y1704672D01*
X708874Y1704505D01*
Y1704497D01*
Y1704489D01*
Y1704464D01*
Y1704430D01*
X708883Y1704355D01*
X708891Y1704255D01*
X708908Y1704147D01*
X708924Y1704030D01*
X708958Y1703914D01*
X708999Y1703806D01*
X709008Y1703797D01*
X709024Y1703764D01*
X709049Y1703722D01*
X709091Y1703672D01*
X709133Y1703622D01*
X709191Y1703581D01*
X709249Y1703547D01*
X709324Y1703539D01*
X709333D01*
X709358Y1703547D01*
X709399Y1703556D01*
X709441Y1703572D01*
X709499Y1703606D01*
X709549Y1703647D01*
X709607Y1703714D01*
X709658Y1703797D01*
X709666Y1703814D01*
X709682Y1703847D01*
X709699Y1703905D01*
X709724Y1703989D01*
X709749Y1704089D01*
X709774Y1704205D01*
X709782Y1704347D01*
X709791Y1704505D01*
Y1704514D01*
Y1704547D01*
Y1704589D01*
X709782Y1704655D01*
X709774Y1704722D01*
X709766Y1704797D01*
X709732Y1704972D01*
X709674Y1705147D01*
X709641Y1705222D01*
X709591Y1705297D01*
X709541Y1705355D01*
X709482Y1705397D01*
X709408Y1705430D01*
X709324Y1705439D01*
D02*
G37*
G36*
X1010738Y1318025D02*
X1010733D01*
X1010711D01*
X1010684D01*
X1010646Y1318019D01*
X1010603Y1318014D01*
X1010554Y1318003D01*
X1010446Y1317976D01*
X1010392Y1317954D01*
X1010343Y1317927D01*
X1010289Y1317895D01*
X1010246Y1317852D01*
X1010208Y1317808D01*
X1010181Y1317754D01*
X1010159Y1317689D01*
X1010154Y1317619D01*
X1011279D01*
Y1317651D01*
X1011274Y1317673D01*
X1011268Y1317695D01*
X1011252Y1317760D01*
X1011236Y1317792D01*
X1011209Y1317830D01*
X1011182Y1317868D01*
X1011149Y1317900D01*
X1011100Y1317933D01*
X1011052Y1317965D01*
X1010987Y1317987D01*
X1010917Y1318008D01*
X1010835Y1318019D01*
X1010738Y1318025D01*
D02*
G37*
G36*
X607303Y895031D02*
Y892431D01*
X607378D01*
X607428Y892444D01*
X607478Y892456D01*
X607628Y892494D01*
X607703Y892531D01*
X607790Y892594D01*
X607878Y892656D01*
X607953Y892731D01*
X608028Y892843D01*
X608103Y892956D01*
X608153Y893106D01*
X608203Y893268D01*
X608228Y893456D01*
X608240Y893681D01*
Y893693D01*
Y893743D01*
Y893806D01*
X608228Y893893D01*
X608215Y893993D01*
X608190Y894106D01*
X608128Y894356D01*
X608078Y894481D01*
X608015Y894593D01*
X607940Y894718D01*
X607840Y894818D01*
X607741Y894905D01*
X607616Y894968D01*
X607466Y895018D01*
X607303Y895031D01*
D02*
G37*
G36*
X618513Y890532D02*
X618500Y890519D01*
X618463Y890507D01*
X618400Y890457D01*
X618338Y890407D01*
X618238Y890344D01*
X618150Y890269D01*
X617938Y890094D01*
X617713Y889869D01*
X617626Y889757D01*
X617538Y889619D01*
X617463Y889494D01*
X617401Y889357D01*
X617363Y889220D01*
X617351Y889082D01*
Y889070D01*
Y889032D01*
X617363Y888982D01*
Y888920D01*
X617401Y888782D01*
X617476Y888632D01*
X617488Y888620D01*
X617500Y888607D01*
X617575Y888557D01*
X617675Y888495D01*
X617750Y888482D01*
X617825Y888470D01*
X617875D01*
X617925Y888482D01*
X617988Y888507D01*
X618063Y888532D01*
X618138Y888582D01*
X618225Y888657D01*
X618300Y888745D01*
X618313Y888757D01*
X618338Y888795D01*
X618363Y888832D01*
X618413Y888895D01*
X618475Y889007D01*
X618500Y889057D01*
X618513Y889094D01*
Y890532D01*
D02*
G37*
G36*
X656453Y895143D02*
X656441D01*
X656391Y895130D01*
X656328Y895105D01*
X656253Y895068D01*
X656166Y894993D01*
X656091Y894881D01*
X656041Y894818D01*
X656003Y894731D01*
X655966Y894643D01*
X655928Y894531D01*
Y894518D01*
X655916Y894506D01*
Y894456D01*
X655903Y894406D01*
X655891Y894331D01*
X655878Y894231D01*
X655853Y894106D01*
X655841Y893968D01*
X655828Y893793D01*
X655803Y893606D01*
X655791Y893381D01*
X655778Y893131D01*
X655766Y892843D01*
Y892544D01*
X655753Y892194D01*
Y891819D01*
Y891806D01*
Y891781D01*
Y891744D01*
Y891681D01*
Y891606D01*
Y891519D01*
X655766Y891306D01*
X655778Y891057D01*
X655791Y890782D01*
X655816Y890482D01*
X655841Y890182D01*
X655878Y889869D01*
X655928Y889569D01*
X655978Y889294D01*
X656053Y889044D01*
X656128Y888832D01*
X656178Y888745D01*
X656228Y888670D01*
X656278Y888620D01*
X656328Y888570D01*
X656391Y888545D01*
X656453Y888532D01*
X656466D01*
X656478Y888545D01*
X656516Y888557D01*
X656565Y888582D01*
X656616Y888632D01*
X656678Y888707D01*
X656740Y888807D01*
X656815Y888944D01*
X656878Y889119D01*
X656940Y889332D01*
X656965Y889457D01*
X657003Y889594D01*
X657028Y889757D01*
X657053Y889919D01*
X657078Y890094D01*
X657103Y890294D01*
X657115Y890507D01*
X657140Y890732D01*
X657153Y890982D01*
Y891244D01*
X657165Y891519D01*
Y891819D01*
Y891844D01*
Y891906D01*
Y892006D01*
Y892131D01*
Y892281D01*
X657153Y892469D01*
Y892656D01*
X657140Y892868D01*
X657128Y893306D01*
X657090Y893743D01*
X657078Y893943D01*
X657053Y894131D01*
X657015Y894293D01*
X656990Y894443D01*
Y894456D01*
X656978Y894468D01*
X656965Y894556D01*
X656915Y894668D01*
X656865Y894793D01*
X656790Y894918D01*
X656691Y895031D01*
X656578Y895118D01*
X656516Y895130D01*
X656453Y895143D01*
D02*
G37*
G36*
X632547Y895080D02*
X632522D01*
X632459Y895055D01*
X632372Y895005D01*
X632322Y894968D01*
X632272Y894905D01*
X632209Y894843D01*
X632159Y894743D01*
X632109Y894643D01*
X632072Y894506D01*
X632034Y894356D01*
X632009Y894168D01*
X631997Y893956D01*
X631984Y893718D01*
Y893693D01*
Y893618D01*
X631997Y893518D01*
X632009Y893393D01*
X632022Y893243D01*
X632047Y893093D01*
X632084Y892943D01*
X632134Y892806D01*
X632147Y892794D01*
X632159Y892756D01*
X632197Y892706D01*
X632247Y892644D01*
X632309Y892581D01*
X632372Y892531D01*
X632459Y892494D01*
X632547Y892481D01*
X632597D01*
X632634Y892494D01*
X632697Y892519D01*
X632759Y892556D01*
X632834Y892619D01*
X632896Y892694D01*
X632959Y892806D01*
X632971Y892819D01*
X632984Y892868D01*
X633009Y892943D01*
X633046Y893044D01*
X633072Y893168D01*
X633097Y893318D01*
X633109Y893506D01*
X633121Y893706D01*
Y893718D01*
Y893768D01*
Y893831D01*
X633109Y893918D01*
Y894031D01*
X633097Y894143D01*
X633046Y894393D01*
X632984Y894643D01*
X632934Y894768D01*
X632884Y894868D01*
X632809Y894956D01*
X632734Y895018D01*
X632647Y895068D01*
X632547Y895080D01*
D02*
G37*
G36*
X632559Y891444D02*
X632534D01*
X632459Y891419D01*
X632347Y891369D01*
X632284Y891331D01*
X632222Y891269D01*
X632159Y891194D01*
X632097Y891106D01*
X632047Y890994D01*
X631984Y890856D01*
X631947Y890694D01*
X631909Y890507D01*
X631897Y890294D01*
X631884Y890044D01*
Y890032D01*
Y890019D01*
Y889982D01*
Y889932D01*
X631897Y889819D01*
X631909Y889669D01*
X631934Y889507D01*
X631959Y889332D01*
X632009Y889157D01*
X632072Y888995D01*
X632084Y888982D01*
X632109Y888932D01*
X632147Y888869D01*
X632209Y888795D01*
X632272Y888720D01*
X632359Y888657D01*
X632447Y888607D01*
X632559Y888595D01*
X632572D01*
X632609Y888607D01*
X632672Y888620D01*
X632734Y888645D01*
X632822Y888695D01*
X632896Y888757D01*
X632984Y888857D01*
X633059Y888982D01*
X633072Y889007D01*
X633097Y889057D01*
X633121Y889145D01*
X633159Y889269D01*
X633196Y889419D01*
X633234Y889594D01*
X633246Y889807D01*
X633259Y890044D01*
Y890057D01*
Y890107D01*
Y890169D01*
X633246Y890269D01*
X633234Y890369D01*
X633222Y890482D01*
X633172Y890744D01*
X633084Y891006D01*
X633034Y891119D01*
X632959Y891231D01*
X632884Y891319D01*
X632797Y891381D01*
X632684Y891431D01*
X632559Y891444D01*
D02*
G37*
G36*
X611927Y892531D02*
X611902D01*
X611852Y892506D01*
X611814Y892481D01*
X611764Y892444D01*
X611715Y892406D01*
X611677Y892344D01*
X611627Y892256D01*
X611577Y892156D01*
X611539Y892031D01*
X611489Y891881D01*
X611465Y891706D01*
X611440Y891494D01*
X611415Y891256D01*
Y890982D01*
X612502D01*
Y890994D01*
Y891044D01*
Y891119D01*
X612489Y891219D01*
Y891344D01*
X612477Y891469D01*
X612427Y891756D01*
X612364Y892044D01*
X612314Y892169D01*
X612264Y892294D01*
X612189Y892394D01*
X612114Y892469D01*
X612027Y892519D01*
X611927Y892531D01*
D02*
G37*
G36*
X1007349Y1812117D02*
X1007341D01*
X1007307Y1812109D01*
X1007266Y1812092D01*
X1007216Y1812067D01*
X1007157Y1812017D01*
X1007107Y1811942D01*
X1007074Y1811901D01*
X1007049Y1811842D01*
X1007024Y1811784D01*
X1006999Y1811709D01*
Y1811701D01*
X1006991Y1811692D01*
Y1811659D01*
X1006982Y1811626D01*
X1006974Y1811576D01*
X1006966Y1811509D01*
X1006949Y1811426D01*
X1006941Y1811334D01*
X1006932Y1811217D01*
X1006916Y1811092D01*
X1006907Y1810943D01*
X1006899Y1810776D01*
X1006891Y1810584D01*
Y1810384D01*
X1006882Y1810151D01*
Y1809901D01*
Y1809893D01*
Y1809876D01*
Y1809851D01*
Y1809809D01*
Y1809759D01*
Y1809701D01*
X1006891Y1809559D01*
X1006899Y1809393D01*
X1006907Y1809210D01*
X1006924Y1809010D01*
X1006941Y1808810D01*
X1006966Y1808601D01*
X1006999Y1808401D01*
X1007032Y1808218D01*
X1007082Y1808052D01*
X1007132Y1807910D01*
X1007166Y1807852D01*
X1007199Y1807802D01*
X1007232Y1807768D01*
X1007266Y1807735D01*
X1007307Y1807718D01*
X1007349Y1807710D01*
X1007357D01*
X1007366Y1807718D01*
X1007391Y1807727D01*
X1007424Y1807743D01*
X1007457Y1807777D01*
X1007499Y1807827D01*
X1007541Y1807893D01*
X1007590Y1807985D01*
X1007632Y1808102D01*
X1007674Y1808243D01*
X1007691Y1808327D01*
X1007716Y1808418D01*
X1007732Y1808526D01*
X1007749Y1808635D01*
X1007766Y1808751D01*
X1007782Y1808885D01*
X1007791Y1809026D01*
X1007807Y1809176D01*
X1007815Y1809343D01*
Y1809518D01*
X1007824Y1809701D01*
Y1809901D01*
Y1809918D01*
Y1809959D01*
Y1810026D01*
Y1810109D01*
Y1810209D01*
X1007815Y1810334D01*
Y1810459D01*
X1007807Y1810601D01*
X1007799Y1810892D01*
X1007774Y1811184D01*
X1007766Y1811317D01*
X1007749Y1811442D01*
X1007724Y1811551D01*
X1007707Y1811651D01*
Y1811659D01*
X1007699Y1811667D01*
X1007691Y1811726D01*
X1007657Y1811801D01*
X1007624Y1811884D01*
X1007574Y1811967D01*
X1007507Y1812042D01*
X1007432Y1812101D01*
X1007391Y1812109D01*
X1007349Y1812117D01*
D02*
G37*
G36*
X985358Y1234007D02*
X985353D01*
X985331D01*
X985299D01*
X985261Y1234002D01*
X985218Y1233997D01*
X985163Y1233991D01*
X985050Y1233975D01*
X984936Y1233937D01*
X984882Y1233916D01*
X984839Y1233888D01*
X984796Y1233856D01*
X984769Y1233818D01*
X984747Y1233775D01*
X984741Y1233726D01*
Y1233715D01*
X984752Y1233683D01*
X984763Y1233667D01*
X984779Y1233645D01*
X984801Y1233618D01*
X984828Y1233596D01*
X984866Y1233569D01*
X984909Y1233548D01*
X984969Y1233521D01*
X985034Y1233504D01*
X985115Y1233488D01*
X985207Y1233472D01*
X985310Y1233466D01*
X985434Y1233461D01*
X985439D01*
X985461D01*
X985499D01*
X985542Y1233466D01*
X985591Y1233472D01*
X985650Y1233477D01*
X985775Y1233494D01*
X985905Y1233526D01*
X985964Y1233548D01*
X986013Y1233575D01*
X986056Y1233607D01*
X986094Y1233645D01*
X986116Y1233683D01*
X986121Y1233732D01*
Y1233742D01*
X986110Y1233775D01*
X986099Y1233796D01*
X986083Y1233818D01*
X986056Y1233845D01*
X986024Y1233872D01*
X985986Y1233894D01*
X985937Y1233921D01*
X985872Y1233943D01*
X985796Y1233964D01*
X985710Y1233980D01*
X985612Y1233997D01*
X985493Y1234002D01*
X985358Y1234007D01*
D02*
G37*
G36*
X983919Y1231941D02*
X983914D01*
X983892D01*
X983865D01*
X983827Y1231935D01*
X983784Y1231930D01*
X983735Y1231919D01*
X983627Y1231892D01*
X983573Y1231870D01*
X983524Y1231843D01*
X983470Y1231811D01*
X983427Y1231768D01*
X983389Y1231724D01*
X983362Y1231670D01*
X983340Y1231605D01*
X983335Y1231535D01*
X984460D01*
Y1231568D01*
X984455Y1231589D01*
X984449Y1231611D01*
X984433Y1231676D01*
X984417Y1231708D01*
X984390Y1231746D01*
X984363Y1231784D01*
X984330Y1231816D01*
X984281Y1231849D01*
X984233Y1231881D01*
X984168Y1231903D01*
X984098Y1231925D01*
X984016Y1231935D01*
X983919Y1231941D01*
D02*
G37*
G36*
Y1064653D02*
X983914D01*
X983892D01*
X983865D01*
X983827Y1064648D01*
X983784Y1064643D01*
X983735Y1064632D01*
X983627Y1064605D01*
X983573Y1064583D01*
X983524Y1064556D01*
X983470Y1064524D01*
X983427Y1064480D01*
X983389Y1064437D01*
X983362Y1064383D01*
X983340Y1064318D01*
X983335Y1064248D01*
X984460D01*
Y1064280D01*
X984455Y1064302D01*
X984449Y1064324D01*
X984433Y1064388D01*
X984417Y1064421D01*
X984390Y1064459D01*
X984363Y1064497D01*
X984330Y1064529D01*
X984281Y1064561D01*
X984233Y1064594D01*
X984168Y1064616D01*
X984098Y1064637D01*
X984016Y1064648D01*
X983919Y1064653D01*
D02*
G37*
G36*
X1309715Y1066104D02*
X1308282D01*
Y1066093D01*
X1309715Y1065481D01*
Y1066104D01*
D02*
G37*
G36*
X1011972Y1152479D02*
X1010538D01*
Y1152469D01*
X1011972Y1151857D01*
Y1152479D01*
D02*
G37*
G36*
X1010705Y1150613D02*
X1010700D01*
X1010678D01*
X1010651D01*
X1010613Y1150608D01*
X1010570Y1150602D01*
X1010522Y1150591D01*
X1010413Y1150564D01*
X1010359Y1150543D01*
X1010311Y1150516D01*
X1010257Y1150483D01*
X1010213Y1150440D01*
X1010175Y1150396D01*
X1010148Y1150342D01*
X1010127Y1150277D01*
X1010121Y1150207D01*
X1011246D01*
Y1150240D01*
X1011241Y1150261D01*
X1011236Y1150283D01*
X1011219Y1150348D01*
X1011203Y1150380D01*
X1011176Y1150418D01*
X1011149Y1150456D01*
X1011117Y1150489D01*
X1011068Y1150521D01*
X1011019Y1150553D01*
X1010954Y1150575D01*
X1010884Y1150597D01*
X1010803Y1150608D01*
X1010705Y1150613D01*
D02*
G37*
G36*
X983927Y1568612D02*
X983922D01*
X983900D01*
X983873D01*
X983835Y1568607D01*
X983786D01*
X983738Y1568601D01*
X983630Y1568580D01*
X983521Y1568553D01*
X983467Y1568531D01*
X983424Y1568509D01*
X983386Y1568477D01*
X983359Y1568444D01*
X983337Y1568406D01*
X983332Y1568363D01*
Y1568352D01*
X983343Y1568325D01*
X983364Y1568287D01*
X983381Y1568266D01*
X983408Y1568244D01*
X983435Y1568217D01*
X983478Y1568195D01*
X983521Y1568174D01*
X983581Y1568158D01*
X983646Y1568141D01*
X983727Y1568130D01*
X983819Y1568125D01*
X983922Y1568120D01*
X983933D01*
X983965D01*
X984008Y1568125D01*
X984062Y1568130D01*
X984127Y1568136D01*
X984192Y1568147D01*
X984257Y1568163D01*
X984317Y1568185D01*
X984322Y1568190D01*
X984338Y1568195D01*
X984360Y1568212D01*
X984387Y1568233D01*
X984414Y1568260D01*
X984436Y1568287D01*
X984452Y1568325D01*
X984457Y1568363D01*
Y1568385D01*
X984452Y1568401D01*
X984441Y1568428D01*
X984425Y1568455D01*
X984398Y1568488D01*
X984365Y1568515D01*
X984317Y1568542D01*
X984311Y1568547D01*
X984290Y1568553D01*
X984257Y1568563D01*
X984214Y1568580D01*
X984160Y1568590D01*
X984095Y1568601D01*
X984014Y1568607D01*
X983927Y1568612D01*
D02*
G37*
G36*
X985512Y1568672D02*
X985507D01*
X985485D01*
X985458D01*
X985415Y1568666D01*
X985372Y1568661D01*
X985323Y1568655D01*
X985209Y1568634D01*
X985096Y1568596D01*
X985047Y1568574D01*
X984998Y1568542D01*
X984960Y1568509D01*
X984933Y1568471D01*
X984912Y1568423D01*
X984906Y1568369D01*
Y1568358D01*
X984917Y1568325D01*
X984939Y1568277D01*
X984955Y1568250D01*
X984982Y1568222D01*
X985015Y1568195D01*
X985052Y1568168D01*
X985101Y1568147D01*
X985161Y1568120D01*
X985231Y1568103D01*
X985312Y1568087D01*
X985404Y1568082D01*
X985512Y1568076D01*
X985518D01*
X985523D01*
X985539D01*
X985561D01*
X985610Y1568082D01*
X985675Y1568087D01*
X985745Y1568098D01*
X985821Y1568109D01*
X985897Y1568130D01*
X985967Y1568158D01*
X985972Y1568163D01*
X985994Y1568174D01*
X986021Y1568190D01*
X986053Y1568217D01*
X986086Y1568244D01*
X986113Y1568282D01*
X986134Y1568320D01*
X986140Y1568369D01*
Y1568374D01*
X986134Y1568390D01*
X986129Y1568417D01*
X986118Y1568444D01*
X986097Y1568482D01*
X986070Y1568515D01*
X986026Y1568553D01*
X985972Y1568585D01*
X985961Y1568590D01*
X985940Y1568601D01*
X985902Y1568612D01*
X985848Y1568628D01*
X985783Y1568644D01*
X985707Y1568661D01*
X985615Y1568666D01*
X985512Y1568672D01*
D02*
G37*
G36*
X983938Y1566610D02*
X983933D01*
X983911D01*
X983884D01*
X983846Y1566605D01*
X983803Y1566599D01*
X983754Y1566589D01*
X983646Y1566561D01*
X983592Y1566540D01*
X983543Y1566513D01*
X983489Y1566480D01*
X983446Y1566437D01*
X983408Y1566394D01*
X983381Y1566340D01*
X983359Y1566275D01*
X983354Y1566204D01*
X984479D01*
Y1566237D01*
X984474Y1566259D01*
X984468Y1566280D01*
X984452Y1566345D01*
X984436Y1566378D01*
X984409Y1566415D01*
X984382Y1566453D01*
X984349Y1566486D01*
X984301Y1566518D01*
X984252Y1566551D01*
X984187Y1566572D01*
X984117Y1566594D01*
X984035Y1566605D01*
X983938Y1566610D01*
D02*
G37*
G36*
X1203362Y1010192D02*
X1203345D01*
X1203295Y1010176D01*
X1203270Y1010159D01*
X1203237Y1010134D01*
X1203195Y1010101D01*
X1203162Y1010059D01*
X1203120Y1010001D01*
X1203087Y1009934D01*
X1203045Y1009843D01*
X1203020Y1009743D01*
X1202995Y1009618D01*
X1202970Y1009476D01*
X1202962Y1009318D01*
X1202953Y1009126D01*
Y1009118D01*
Y1009084D01*
Y1009026D01*
X1202962Y1008960D01*
X1202970Y1008885D01*
X1202978Y1008793D01*
X1203003Y1008601D01*
X1203053Y1008401D01*
X1203087Y1008310D01*
X1203128Y1008235D01*
X1203178Y1008168D01*
X1203237Y1008110D01*
X1203295Y1008076D01*
X1203370Y1008068D01*
X1203387D01*
X1203437Y1008085D01*
X1203470Y1008101D01*
X1203503Y1008126D01*
X1203545Y1008168D01*
X1203587Y1008218D01*
X1203620Y1008276D01*
X1203662Y1008351D01*
X1203695Y1008451D01*
X1203728Y1008568D01*
X1203753Y1008701D01*
X1203778Y1008851D01*
X1203787Y1009035D01*
X1203795Y1009243D01*
Y1009251D01*
Y1009284D01*
Y1009334D01*
X1203787Y1009393D01*
X1203778Y1009459D01*
X1203770Y1009543D01*
X1203745Y1009718D01*
X1203687Y1009893D01*
X1203653Y1009976D01*
X1203612Y1010043D01*
X1203562Y1010109D01*
X1203503Y1010151D01*
X1203437Y1010184D01*
X1203362Y1010192D01*
D02*
G37*
G36*
X687238Y1654636D02*
X687233D01*
X687211D01*
X687184D01*
X687147Y1654631D01*
X687098D01*
X687049Y1654625D01*
X686941Y1654604D01*
X686833Y1654577D01*
X686779Y1654555D01*
X686735Y1654533D01*
X686697Y1654501D01*
X686670Y1654468D01*
X686649Y1654431D01*
X686643Y1654387D01*
Y1654376D01*
X686654Y1654349D01*
X686676Y1654312D01*
X686692Y1654290D01*
X686719Y1654268D01*
X686746Y1654241D01*
X686789Y1654220D01*
X686833Y1654198D01*
X686892Y1654182D01*
X686957Y1654165D01*
X687038Y1654155D01*
X687130Y1654149D01*
X687233Y1654144D01*
X687244D01*
X687276D01*
X687320Y1654149D01*
X687374Y1654155D01*
X687439Y1654160D01*
X687504Y1654171D01*
X687569Y1654187D01*
X687628Y1654209D01*
X687633Y1654214D01*
X687650Y1654220D01*
X687671Y1654236D01*
X687698Y1654257D01*
X687725Y1654285D01*
X687747Y1654312D01*
X687763Y1654349D01*
X687769Y1654387D01*
Y1654409D01*
X687763Y1654425D01*
X687752Y1654452D01*
X687736Y1654479D01*
X687709Y1654512D01*
X687677Y1654539D01*
X687628Y1654566D01*
X687623Y1654571D01*
X687601Y1654577D01*
X687569Y1654587D01*
X687525Y1654604D01*
X687471Y1654615D01*
X687406Y1654625D01*
X687325Y1654631D01*
X687238Y1654636D01*
D02*
G37*
G36*
X688824Y1654696D02*
X688818D01*
X688797D01*
X688770D01*
X688726Y1654690D01*
X688683Y1654685D01*
X688634Y1654679D01*
X688521Y1654658D01*
X688407Y1654620D01*
X688358Y1654598D01*
X688310Y1654566D01*
X688272Y1654533D01*
X688245Y1654496D01*
X688223Y1654447D01*
X688218Y1654393D01*
Y1654382D01*
X688229Y1654349D01*
X688250Y1654301D01*
X688266Y1654274D01*
X688293Y1654247D01*
X688326Y1654220D01*
X688364Y1654193D01*
X688412Y1654171D01*
X688472Y1654144D01*
X688542Y1654128D01*
X688624Y1654111D01*
X688715Y1654106D01*
X688824Y1654100D01*
X688829D01*
X688835D01*
X688851D01*
X688872D01*
X688921Y1654106D01*
X688986Y1654111D01*
X689056Y1654122D01*
X689132Y1654133D01*
X689208Y1654155D01*
X689278Y1654182D01*
X689284Y1654187D01*
X689305Y1654198D01*
X689332Y1654214D01*
X689365Y1654241D01*
X689397Y1654268D01*
X689424Y1654306D01*
X689446Y1654344D01*
X689451Y1654393D01*
Y1654398D01*
X689446Y1654414D01*
X689440Y1654441D01*
X689430Y1654468D01*
X689408Y1654506D01*
X689381Y1654539D01*
X689338Y1654577D01*
X689284Y1654609D01*
X689273Y1654615D01*
X689251Y1654625D01*
X689213Y1654636D01*
X689159Y1654652D01*
X689094Y1654669D01*
X689018Y1654685D01*
X688926Y1654690D01*
X688824Y1654696D01*
D02*
G37*
G36*
X688669Y1320032D02*
X688664D01*
X688642D01*
X688610D01*
X688572Y1320026D01*
X688529Y1320021D01*
X688475Y1320015D01*
X688361Y1319999D01*
X688247Y1319961D01*
X688193Y1319940D01*
X688150Y1319913D01*
X688107Y1319880D01*
X688080Y1319842D01*
X688058Y1319799D01*
X688053Y1319750D01*
Y1319740D01*
X688064Y1319707D01*
X688074Y1319691D01*
X688091Y1319669D01*
X688112Y1319642D01*
X688139Y1319621D01*
X688177Y1319593D01*
X688220Y1319572D01*
X688280Y1319545D01*
X688345Y1319529D01*
X688426Y1319512D01*
X688518Y1319496D01*
X688621Y1319491D01*
X688745Y1319485D01*
X688751D01*
X688772D01*
X688810D01*
X688853Y1319491D01*
X688902Y1319496D01*
X688962Y1319501D01*
X689086Y1319518D01*
X689216Y1319550D01*
X689275Y1319572D01*
X689324Y1319599D01*
X689367Y1319631D01*
X689405Y1319669D01*
X689427Y1319707D01*
X689432Y1319756D01*
Y1319767D01*
X689421Y1319799D01*
X689411Y1319821D01*
X689394Y1319842D01*
X689367Y1319869D01*
X689335Y1319896D01*
X689297Y1319918D01*
X689248Y1319945D01*
X689183Y1319967D01*
X689108Y1319988D01*
X689021Y1320005D01*
X688924Y1320021D01*
X688805Y1320026D01*
X688669Y1320032D01*
D02*
G37*
G36*
X1010687Y1652881D02*
X1010681D01*
X1010659D01*
X1010632D01*
X1010595Y1652875D01*
X1010551Y1652870D01*
X1010503Y1652859D01*
X1010394Y1652832D01*
X1010340Y1652810D01*
X1010292Y1652783D01*
X1010238Y1652751D01*
X1010194Y1652708D01*
X1010156Y1652664D01*
X1010129Y1652610D01*
X1010108Y1652545D01*
X1010102Y1652475D01*
X1011228D01*
Y1652507D01*
X1011222Y1652529D01*
X1011217Y1652551D01*
X1011201Y1652616D01*
X1011184Y1652648D01*
X1011157Y1652686D01*
X1011130Y1652724D01*
X1011098Y1652756D01*
X1011049Y1652789D01*
X1011000Y1652821D01*
X1010936Y1652843D01*
X1010865Y1652865D01*
X1010784Y1652875D01*
X1010687Y1652881D01*
D02*
G37*
G36*
X1010705Y1485315D02*
X1010700D01*
X1010678D01*
X1010651D01*
X1010613Y1485309D01*
X1010570Y1485304D01*
X1010522Y1485293D01*
X1010413Y1485266D01*
X1010359Y1485244D01*
X1010311Y1485217D01*
X1010257Y1485185D01*
X1010213Y1485142D01*
X1010175Y1485098D01*
X1010148Y1485044D01*
X1010127Y1484979D01*
X1010121Y1484909D01*
X1011246D01*
Y1484941D01*
X1011241Y1484963D01*
X1011236Y1484985D01*
X1011219Y1485050D01*
X1011203Y1485082D01*
X1011176Y1485120D01*
X1011149Y1485158D01*
X1011117Y1485190D01*
X1011068Y1485223D01*
X1011019Y1485255D01*
X1010954Y1485277D01*
X1010884Y1485298D01*
X1010803Y1485309D01*
X1010705Y1485315D01*
D02*
G37*
G36*
X983919Y1399296D02*
X983914D01*
X983892D01*
X983865D01*
X983827Y1399290D01*
X983784Y1399285D01*
X983735Y1399274D01*
X983627Y1399247D01*
X983573Y1399225D01*
X983524Y1399198D01*
X983470Y1399166D01*
X983427Y1399123D01*
X983389Y1399079D01*
X983362Y1399025D01*
X983340Y1398960D01*
X983335Y1398890D01*
X984460D01*
Y1398922D01*
X984455Y1398944D01*
X984449Y1398966D01*
X984433Y1399031D01*
X984417Y1399063D01*
X984390Y1399101D01*
X984363Y1399139D01*
X984330Y1399171D01*
X984281Y1399204D01*
X984233Y1399236D01*
X984168Y1399258D01*
X984098Y1399280D01*
X984016Y1399290D01*
X983919Y1399296D01*
D02*
G37*
%LPD*%
D10*
X835515Y1801293D02*
X862371D01*
X824871Y1790649D02*
X835515Y1801293D01*
X824871Y1696093D02*
Y1790649D01*
Y1696093D02*
X862371D01*
X905071Y1803693D02*
Y1816193D01*
X898821Y1809943D02*
X911321D01*
X892571Y1696093D02*
X930071D01*
Y1790649D01*
X919427Y1801293D02*
X930071Y1790649D01*
X892571Y1801293D02*
X919427D01*
X1315571Y1661243D02*
X1420571D01*
X1315571Y1559643D02*
Y1661243D01*
Y1559643D02*
X1420571D01*
Y1661243D01*
X1338971Y1582043D02*
Y1588043D01*
X1344971Y1585043D01*
X1338971Y1582043D02*
X1344971Y1585043D01*
X1389071Y1559643D02*
Y1661243D01*
X1403071Y1643343D02*
X1418071Y1645843D01*
X1403071Y1628343D02*
Y1643343D01*
Y1628343D02*
X1418071Y1625843D01*
Y1645843D01*
X1403071Y1592843D02*
X1418071Y1595343D01*
X1403071Y1577843D02*
Y1592843D01*
Y1577843D02*
X1418071Y1575343D01*
Y1595343D01*
X1019271Y1339277D02*
X1309971D01*
X1019271Y1212277D02*
Y1339277D01*
Y1212277D02*
X1309971D01*
Y1339277D01*
X1019271Y1220640D02*
X1033971Y1212277D01*
X946283Y904143D02*
X960083D01*
X946283D02*
Y917943D01*
X972783Y904143D02*
X1050083D01*
X972783D02*
Y931743D01*
X1050083D01*
Y904143D02*
Y931743D01*
Y1774643D02*
Y1802243D01*
X972783D02*
X1050083D01*
X972783Y1774643D02*
Y1802243D01*
Y1774643D02*
X1050083D01*
X946283D02*
Y1788443D01*
Y1774643D02*
X960083D01*
X962171Y1339277D02*
X976871Y1330913D01*
Y1212277D02*
Y1339277D01*
X686171Y1212277D02*
X976871D01*
X686171D02*
Y1339277D01*
X976871D01*
X962171Y1171943D02*
X976871Y1163580D01*
Y1044943D02*
Y1171943D01*
X686171Y1044943D02*
X976871D01*
X686171D02*
Y1171943D01*
X976871D01*
X1418071Y1073343D02*
Y1093343D01*
X1403071Y1075843D02*
X1418071Y1073343D01*
X1403071Y1075843D02*
Y1090843D01*
X1418071Y1093343D01*
Y1123843D02*
Y1143843D01*
X1403071Y1126343D02*
X1418071Y1123843D01*
X1403071Y1126343D02*
Y1141343D01*
X1418071Y1143843D01*
X1389071Y1057643D02*
Y1159243D01*
X1338971Y1080043D02*
X1344971Y1083043D01*
X1338971Y1086043D02*
X1344971Y1083043D01*
X1338971Y1080043D02*
Y1086043D01*
X1420571Y1057643D02*
Y1159243D01*
X1315571Y1057643D02*
X1420571D01*
X1315571D02*
Y1159243D01*
X1420571D01*
X1019271Y1053307D02*
X1033971Y1044943D01*
X1309971D02*
Y1171943D01*
X1019271Y1044943D02*
X1309971D01*
X1019271D02*
Y1171943D01*
X1309971D01*
X962171Y1673943D02*
X976871Y1665580D01*
Y1546943D02*
Y1673943D01*
X686171Y1546943D02*
X976871D01*
X686171D02*
Y1673943D01*
X976871D01*
X1167683Y1711843D02*
X1180183D01*
X1173933Y1705593D02*
Y1718093D01*
X1060083Y1686843D02*
Y1724343D01*
Y1686843D02*
X1154639D01*
X1165283Y1697488D01*
Y1724343D01*
X1060083Y1754543D02*
Y1792043D01*
X1154639D01*
X1165283Y1781399D01*
Y1754543D02*
Y1781399D01*
X1418071Y1408010D02*
Y1428010D01*
X1403071Y1410510D02*
X1418071Y1408010D01*
X1403071Y1410510D02*
Y1425510D01*
X1418071Y1428010D01*
Y1458510D02*
Y1478510D01*
X1403071Y1461010D02*
X1418071Y1458510D01*
X1403071Y1461010D02*
Y1476010D01*
X1418071Y1478510D01*
X1389071Y1392310D02*
Y1493910D01*
X1338971Y1414710D02*
X1344971Y1417710D01*
X1338971Y1420710D02*
X1344971Y1417710D01*
X1338971Y1414710D02*
Y1420710D01*
X1420571Y1392310D02*
Y1493910D01*
X1315571Y1392310D02*
X1420571D01*
X1315571D02*
Y1493910D01*
X1420571D01*
X651171Y1635843D02*
X657171Y1632843D01*
Y1638843D01*
X651171Y1635843D02*
X657171Y1638843D01*
X607071Y1559643D02*
Y1661243D01*
X593071Y1577543D02*
Y1592543D01*
X578071Y1575043D02*
X593071Y1577543D01*
X578071Y1575043D02*
Y1595043D01*
X593071Y1592543D01*
Y1628043D02*
Y1643043D01*
X578071Y1625543D02*
X593071Y1628043D01*
X578071Y1625543D02*
Y1645543D01*
X593071Y1643043D01*
X680471Y1661243D02*
X680571Y1559643D01*
X575571D02*
X680571D01*
X575571D02*
Y1661243D01*
X680471D01*
X651171Y1301177D02*
X657171Y1298177D01*
Y1304177D01*
X651171Y1301177D02*
X657171Y1304177D01*
X607071Y1224977D02*
Y1326577D01*
X593071Y1242877D02*
Y1257877D01*
X578071Y1240377D02*
X593071Y1242877D01*
X578071Y1240377D02*
Y1260377D01*
X593071Y1257877D01*
Y1293377D02*
Y1308377D01*
X578071Y1290877D02*
X593071Y1293377D01*
X578071Y1290877D02*
Y1310877D01*
X593071Y1308377D01*
X680471Y1326577D02*
X680571Y1224977D01*
X575571D02*
X680571D01*
X575571D02*
Y1326577D01*
X680471D01*
X651171Y1133843D02*
X657171Y1130843D01*
Y1136843D01*
X651171Y1133843D02*
X657171Y1136843D01*
X607071Y1057643D02*
Y1159243D01*
X593071Y1075543D02*
Y1090543D01*
X578071Y1073043D02*
X593071Y1075543D01*
X578071Y1073043D02*
Y1093043D01*
X593071Y1090543D01*
Y1126043D02*
Y1141043D01*
X578071Y1123543D02*
X593071Y1126043D01*
X578071Y1123543D02*
Y1143543D01*
X593071Y1141043D01*
X680471Y1159243D02*
X680571Y1057643D01*
X575571D02*
X680571D01*
X575571D02*
Y1159243D01*
X680471D01*
X1418071Y1240677D02*
Y1260677D01*
X1403071Y1243177D02*
X1418071Y1240677D01*
X1403071Y1243177D02*
Y1258177D01*
X1418071Y1260677D01*
Y1291177D02*
Y1311177D01*
X1403071Y1293677D02*
X1418071Y1291177D01*
X1403071Y1293677D02*
Y1308677D01*
X1418071Y1311177D01*
X1389071Y1224977D02*
Y1326577D01*
X1338971Y1247377D02*
X1344971Y1250377D01*
X1338971Y1253377D02*
X1344971Y1250377D01*
X1338971Y1247377D02*
Y1253377D01*
X1420571Y1224977D02*
Y1326577D01*
X1315571Y1224977D02*
X1420571D01*
X1315571D02*
Y1326577D01*
X1420571D01*
X1019271Y1555307D02*
X1033971Y1546943D01*
X1309971D02*
Y1673943D01*
X1019271Y1546943D02*
X1309971D01*
X1019271D02*
Y1673943D01*
X1309971D01*
X1019271Y1387974D02*
X1033971Y1379610D01*
X1309971D02*
Y1506610D01*
X1019271Y1379610D02*
X1309971D01*
X1019271D02*
Y1506610D01*
X1309971D01*
X651171Y1468510D02*
X657171Y1465510D01*
Y1471510D01*
X651171Y1468510D02*
X657171Y1471510D01*
X607071Y1392310D02*
Y1493910D01*
X593071Y1410210D02*
Y1425210D01*
X578071Y1407710D02*
X593071Y1410210D01*
X578071Y1407710D02*
Y1427710D01*
X593071Y1425210D01*
Y1460710D02*
Y1475710D01*
X578071Y1458210D02*
X593071Y1460710D01*
X578071Y1458210D02*
Y1478210D01*
X593071Y1475710D01*
X680471Y1493910D02*
X680571Y1392310D01*
X575571D02*
X680571D01*
X575571D02*
Y1493910D01*
X680471D01*
X962171Y1506610D02*
X976871Y1498246D01*
Y1379610D02*
Y1506610D01*
X686171Y1379610D02*
X976871D01*
X686171D02*
Y1506610D01*
X976871D01*
M02*
