G04*
G04 #@! TF.GenerationSoftware,Altium Limited,Altium Designer,26.5.1 (12)*
G04*
G04 Layer_Color=128*
G04 Board_Origin=0|0*
%FSLAX44Y44*%
%MOMM*%
G71*
G04*
G04 #@! TF.SameCoordinates,75EFAC43-1628-424D-8E1A-596EA3B04155*
G04*
G04*
G04 #@! TF.FilePolarity,Positive*
G04*
G01*
G75*
%ADD37C,0.1270*%
D37*
X733183Y1710301D02*
X763183D01*
X748183Y1695301D02*
Y1725301D01*
X1361071Y1585043D02*
X1375071D01*
X1368071Y1578043D02*
Y1592043D01*
X1361071Y1635843D02*
X1375071D01*
X1368071Y1628843D02*
Y1642843D01*
X1239471Y1313277D02*
X1253471D01*
X1246471Y1306277D02*
Y1320277D01*
X1239471Y1238277D02*
X1253471D01*
X1246471Y1231277D02*
Y1245277D01*
X1189471Y1313277D02*
X1203471D01*
X1196471Y1306277D02*
Y1320277D01*
X1189471Y1238277D02*
X1203471D01*
X1196471Y1231277D02*
Y1245277D01*
X1289871Y1313277D02*
X1303871D01*
X1296871Y1306277D02*
Y1320277D01*
X1289871Y1238277D02*
X1303871D01*
X1296871Y1231277D02*
Y1245277D01*
X1036471Y1238277D02*
X1050471D01*
X1043471Y1231277D02*
Y1245277D01*
X1036471Y1313277D02*
X1050471D01*
X1043471Y1306277D02*
Y1320277D01*
X1036471Y1275777D02*
X1050471D01*
X1043471Y1268777D02*
Y1282777D01*
X955083Y917943D02*
X965083D01*
X960083Y912943D02*
Y922943D01*
X980483Y917943D02*
X990483D01*
X985483Y912943D02*
Y922943D01*
X1005883Y917943D02*
X1015883D01*
X1010883Y912943D02*
Y922943D01*
X1031283Y917943D02*
X1041283D01*
X1036283Y912943D02*
Y922943D01*
X1031283Y1788443D02*
X1041283D01*
X1036283Y1783443D02*
Y1793443D01*
X1005883Y1788443D02*
X1015883D01*
X1010883Y1783443D02*
Y1793443D01*
X980483Y1788443D02*
X990483D01*
X985483Y1783443D02*
Y1793443D01*
X955083Y1788443D02*
X965083D01*
X960083Y1783443D02*
Y1793443D01*
X945671Y1275777D02*
X959671D01*
X952671Y1268777D02*
Y1282777D01*
X945671Y1238277D02*
X959671D01*
X952671Y1231277D02*
Y1245277D01*
X945671Y1313277D02*
X959671D01*
X952671Y1306277D02*
Y1320277D01*
X692271Y1313277D02*
X706271D01*
X699271Y1306277D02*
Y1320277D01*
X692271Y1238277D02*
X706271D01*
X699271Y1231277D02*
Y1245277D01*
X792671Y1313277D02*
X806671D01*
X799671Y1306277D02*
Y1320277D01*
X792671Y1238277D02*
X806671D01*
X799671Y1231277D02*
Y1245277D01*
X742671Y1313277D02*
X756671D01*
X749671Y1306277D02*
Y1320277D01*
X742671Y1238277D02*
X756671D01*
X749671Y1231277D02*
Y1245277D01*
X783183Y1010301D02*
X813183D01*
X798183Y995301D02*
Y1025301D01*
X945671Y1108443D02*
X959671D01*
X952671Y1101443D02*
Y1115443D01*
X945671Y1070943D02*
X959671D01*
X952671Y1063943D02*
Y1077943D01*
X945671Y1145943D02*
X959671D01*
X952671Y1138943D02*
Y1152943D01*
X692271Y1145943D02*
X706271D01*
X699271Y1138943D02*
Y1152943D01*
X692271Y1070943D02*
X706271D01*
X699271Y1063943D02*
Y1077943D01*
X792671Y1145943D02*
X806671D01*
X799671Y1138943D02*
Y1152943D01*
X792671Y1070943D02*
X806671D01*
X799671Y1063943D02*
Y1077943D01*
X742671Y1145943D02*
X756671D01*
X749671Y1138943D02*
Y1152943D01*
X742671Y1070943D02*
X756671D01*
X749671Y1063943D02*
Y1077943D01*
X1361071Y1133843D02*
X1375071D01*
X1368071Y1126843D02*
Y1140843D01*
X1361071Y1083043D02*
X1375071D01*
X1368071Y1076043D02*
Y1090043D01*
X1036471Y1108443D02*
X1050471D01*
X1043471Y1101443D02*
Y1115443D01*
X1036471Y1145943D02*
X1050471D01*
X1043471Y1138943D02*
Y1152943D01*
X1036471Y1070943D02*
X1050471D01*
X1043471Y1063943D02*
Y1077943D01*
X1289871Y1070943D02*
X1303871D01*
X1296871Y1063943D02*
Y1077943D01*
X1289871Y1145943D02*
X1303871D01*
X1296871Y1138943D02*
Y1152943D01*
X1189471Y1070943D02*
X1203471D01*
X1196471Y1063943D02*
Y1077943D01*
X1189471Y1145943D02*
X1203471D01*
X1196471Y1138943D02*
Y1152943D01*
X1239471Y1070943D02*
X1253471D01*
X1246471Y1063943D02*
Y1077943D01*
X1239471Y1145943D02*
X1253471D01*
X1246471Y1138943D02*
Y1152943D01*
X945671Y1610443D02*
X959671D01*
X952671Y1603443D02*
Y1617443D01*
X945671Y1572943D02*
X959671D01*
X952671Y1565943D02*
Y1579943D01*
X945671Y1647943D02*
X959671D01*
X952671Y1640943D02*
Y1654943D01*
X692271Y1647943D02*
X706271D01*
X699271Y1640943D02*
Y1654943D01*
X692271Y1572943D02*
X706271D01*
X699271Y1565943D02*
Y1579943D01*
X792671Y1647943D02*
X806671D01*
X799671Y1640943D02*
Y1654943D01*
X792671Y1572943D02*
X806671D01*
X799671Y1565943D02*
Y1579943D01*
X742671Y1647943D02*
X756671D01*
X749671Y1640943D02*
Y1654943D01*
X742671Y1572943D02*
X756671D01*
X749671Y1565943D02*
Y1579943D01*
X1361071Y1468510D02*
X1375071D01*
X1368071Y1461510D02*
Y1475510D01*
X1361071Y1417710D02*
X1375071D01*
X1368071Y1410710D02*
Y1424710D01*
X1233183Y1010301D02*
X1263183D01*
X1248183Y995301D02*
Y1025301D01*
X621071Y1585043D02*
X635071D01*
X628071Y1578043D02*
Y1592043D01*
X621071Y1635843D02*
X635071D01*
X628071Y1628843D02*
Y1642843D01*
X621071Y1250377D02*
X635071D01*
X628071Y1243377D02*
Y1257377D01*
X621071Y1301177D02*
X635071D01*
X628071Y1294177D02*
Y1308177D01*
X621071Y1083043D02*
X635071D01*
X628071Y1076043D02*
Y1090043D01*
X621071Y1133843D02*
X635071D01*
X628071Y1126843D02*
Y1140843D01*
X1361071Y1301177D02*
X1375071D01*
X1368071Y1294177D02*
Y1308177D01*
X1361071Y1250377D02*
X1375071D01*
X1368071Y1243377D02*
Y1257377D01*
X1036471Y1610443D02*
X1050471D01*
X1043471Y1603443D02*
Y1617443D01*
X1036471Y1647943D02*
X1050471D01*
X1043471Y1640943D02*
Y1654943D01*
X1036471Y1572943D02*
X1050471D01*
X1043471Y1565943D02*
Y1579943D01*
X1289871Y1572943D02*
X1303871D01*
X1296871Y1565943D02*
Y1579943D01*
X1289871Y1647943D02*
X1303871D01*
X1296871Y1640943D02*
Y1654943D01*
X1189471Y1572943D02*
X1203471D01*
X1196471Y1565943D02*
Y1579943D01*
X1189471Y1647943D02*
X1203471D01*
X1196471Y1640943D02*
Y1654943D01*
X1239471Y1572943D02*
X1253471D01*
X1246471Y1565943D02*
Y1579943D01*
X1239471Y1647943D02*
X1253471D01*
X1246471Y1640943D02*
Y1654943D01*
X1233183Y1710301D02*
X1263183D01*
X1248183Y1695301D02*
Y1725301D01*
X1036471Y1443110D02*
X1050471D01*
X1043471Y1436110D02*
Y1450110D01*
X1036471Y1480610D02*
X1050471D01*
X1043471Y1473610D02*
Y1487610D01*
X1036471Y1405610D02*
X1050471D01*
X1043471Y1398610D02*
Y1412610D01*
X1289871Y1405610D02*
X1303871D01*
X1296871Y1398610D02*
Y1412610D01*
X1289871Y1480610D02*
X1303871D01*
X1296871Y1473610D02*
Y1487610D01*
X1189471Y1405610D02*
X1203471D01*
X1196471Y1398610D02*
Y1412610D01*
X1189471Y1480610D02*
X1203471D01*
X1196471Y1473610D02*
Y1487610D01*
X1239471Y1405610D02*
X1253471D01*
X1246471Y1398610D02*
Y1412610D01*
X1239471Y1480610D02*
X1253471D01*
X1246471Y1473610D02*
Y1487610D01*
X621071Y1417710D02*
X635071D01*
X628071Y1410710D02*
Y1424710D01*
X621071Y1468510D02*
X635071D01*
X628071Y1461510D02*
Y1475510D01*
X945671Y1443110D02*
X959671D01*
X952671Y1436110D02*
Y1450110D01*
X945671Y1405610D02*
X959671D01*
X952671Y1398610D02*
Y1412610D01*
X945671Y1480610D02*
X959671D01*
X952671Y1473610D02*
Y1487610D01*
X692271Y1480610D02*
X706271D01*
X699271Y1473610D02*
Y1487610D01*
X692271Y1405610D02*
X706271D01*
X699271Y1398610D02*
Y1412610D01*
X792671Y1480610D02*
X806671D01*
X799671Y1473610D02*
Y1487610D01*
X792671Y1405610D02*
X806671D01*
X799671Y1398610D02*
Y1412610D01*
X742671Y1480610D02*
X756671D01*
X749671Y1473610D02*
Y1487610D01*
X742671Y1405610D02*
X756671D01*
X749671Y1398610D02*
Y1412610D01*
X900000Y1787000D02*
X904000D01*
X902000Y1785000D02*
Y1789000D01*
X1092500Y1770000D02*
X1097500D01*
X1095000Y1767500D02*
Y1772500D01*
X1092500Y1710000D02*
X1097500D01*
X1095000Y1707500D02*
Y1712500D01*
X1077500Y1680000D02*
X1082500D01*
X1080000Y1677500D02*
Y1682500D01*
X1077500Y1560000D02*
X1082500D01*
X1080000Y1557500D02*
Y1562500D01*
X1077500Y1500000D02*
X1082500D01*
X1080000Y1497500D02*
Y1502500D01*
X1077500Y1380000D02*
X1082500D01*
X1080000Y1377500D02*
Y1382500D01*
X1077500Y1320000D02*
X1082500D01*
X1080000Y1317500D02*
Y1322500D01*
X1077500Y1260000D02*
X1082500D01*
X1080000Y1257500D02*
Y1262500D01*
X1077500Y1200000D02*
X1082500D01*
X1080000Y1197500D02*
Y1202500D01*
X1077500Y1140000D02*
X1082500D01*
X1080000Y1137500D02*
Y1142500D01*
X1077500Y1080000D02*
X1082500D01*
X1080000Y1077500D02*
Y1082500D01*
X1077500Y1020000D02*
X1082500D01*
X1080000Y1017500D02*
Y1022500D01*
X1092500Y990000D02*
X1097500D01*
X1095000Y987500D02*
Y992500D01*
X1092500Y930000D02*
X1097500D01*
X1095000Y927500D02*
Y932500D01*
X1047500Y1799999D02*
X1052500D01*
X1050000Y1797500D02*
Y1802499D01*
X1062500Y1770000D02*
X1067500D01*
X1065000Y1767500D02*
Y1772500D01*
X1062500Y1710000D02*
X1067500D01*
X1065000Y1707500D02*
Y1712500D01*
X1032500Y1770000D02*
X1037500D01*
X1035000Y1767500D02*
Y1772500D01*
X1002500Y1770000D02*
X1007500D01*
X1005000Y1767500D02*
Y1772500D01*
X1002500Y1710000D02*
X1007500D01*
X1005000Y1707500D02*
Y1712500D01*
X987500Y900000D02*
X992500D01*
X990000Y897500D02*
Y902500D01*
X972500Y1710000D02*
X977500D01*
X975000Y1707500D02*
Y1712500D01*
X972500Y1290000D02*
X977500D01*
X975000Y1287500D02*
Y1292500D01*
X957500Y1260000D02*
X962500D01*
X960000Y1257500D02*
Y1262500D01*
X942500Y1710000D02*
X947500D01*
X945000Y1707500D02*
Y1712500D01*
X927500Y1680000D02*
X932500D01*
X930000Y1677500D02*
Y1682500D01*
X942500Y1590000D02*
X947500D01*
X945000Y1587500D02*
Y1592500D01*
X927500Y1560000D02*
X932500D01*
X930000Y1557500D02*
Y1562500D01*
X927500Y1500000D02*
X932500D01*
X930000Y1497500D02*
Y1502500D01*
X927500Y1380000D02*
X932500D01*
X930000Y1377500D02*
Y1382500D01*
X927500Y1320000D02*
X932500D01*
X930000Y1317500D02*
Y1322500D01*
X927500Y1260000D02*
X932500D01*
X930000Y1257500D02*
Y1262500D01*
X927500Y1200000D02*
X932500D01*
X930000Y1197500D02*
Y1202500D01*
X927500Y1140000D02*
X932500D01*
X930000Y1137500D02*
Y1142500D01*
X897500Y1020000D02*
X902500D01*
X900000Y1017500D02*
Y1022500D01*
X897500Y960000D02*
X902500D01*
X900000Y957500D02*
Y962500D01*
X897500Y900000D02*
X902500D01*
X900000Y897500D02*
Y902500D01*
X944288Y1686500D02*
X947288D01*
X945788Y1685000D02*
Y1688000D01*
X1036183Y995301D02*
X1039183D01*
X1037683Y993801D02*
Y996801D01*
X875933Y1695801D02*
X879433D01*
X877683Y1694051D02*
Y1697551D01*
X862683Y1695801D02*
X866683D01*
X864683Y1693801D02*
Y1697801D01*
X1014683Y959301D02*
X1017683D01*
X1016183Y957801D02*
Y960801D01*
X1080183Y959301D02*
X1083183D01*
X1081683Y957801D02*
Y960801D01*
X1047183Y936801D02*
X1050183D01*
X1048683Y935301D02*
Y938301D01*
X957183Y936301D02*
X960183D01*
X958683Y934801D02*
Y937801D01*
X1027683Y930801D02*
X1030683D01*
X1029183Y929301D02*
Y932301D01*
X914183Y935301D02*
X917183D01*
X915683Y933801D02*
Y936801D01*
X970183Y930801D02*
X973183D01*
X971683Y929301D02*
Y932301D01*
X1021183Y971301D02*
X1024183D01*
X1022683Y969801D02*
Y972801D01*
X963683Y971301D02*
X966683D01*
X965183Y969801D02*
Y972801D01*
X930683Y952801D02*
X933683D01*
X932183Y951301D02*
Y954301D01*
X976683Y964801D02*
X979683D01*
X978183Y963301D02*
Y966301D01*
X1055683Y965301D02*
X1058683D01*
X1057183Y963801D02*
Y966801D01*
X1034433Y965301D02*
X1037433D01*
X1035933Y963801D02*
Y966801D01*
X976203Y1030853D02*
X979203D01*
X977703Y1029352D02*
Y1032353D01*
X945683Y1333801D02*
X948683D01*
X947183Y1332301D02*
Y1335301D01*
X982183Y1023801D02*
X985183D01*
X983683Y1022301D02*
Y1025301D01*
X945683Y1357301D02*
X948683D01*
X947183Y1355801D02*
Y1358801D01*
X945683Y1203301D02*
X948683D01*
X947183Y1201801D02*
Y1204801D01*
X963068Y1031953D02*
X966068D01*
X964568Y1030453D02*
Y1033453D01*
X969703Y1034301D02*
X972703D01*
X971203Y1032801D02*
Y1035801D01*
X972183Y1275301D02*
X975183D01*
X973683Y1273801D02*
Y1276801D01*
X945683Y1166801D02*
X948683D01*
X947183Y1165301D02*
Y1168301D01*
X949183Y1023301D02*
X952183D01*
X950683Y1021801D02*
Y1024801D01*
X957433Y1027801D02*
X960433D01*
X958933Y1026301D02*
Y1029301D01*
X945683Y1184301D02*
X948683D01*
X947183Y1182801D02*
Y1185801D01*
X945683Y1379801D02*
X948683D01*
X947183Y1378301D02*
Y1381301D01*
X985183Y985311D02*
X988183D01*
X986683Y983811D02*
Y986811D01*
X935683Y1006301D02*
X938683D01*
X937183Y1004801D02*
Y1007801D01*
X935183Y1125301D02*
X938183D01*
X936683Y1123801D02*
Y1126801D01*
X979683Y1611301D02*
X982683D01*
X981183Y1609801D02*
Y1612801D01*
X1021400Y992788D02*
X1024399D01*
X1022899Y991288D02*
Y994288D01*
X1027933Y995301D02*
X1030933D01*
X1029433Y993801D02*
Y996801D01*
X944183Y1668801D02*
X947183D01*
X945683Y1667301D02*
Y1670301D01*
X944183Y1519801D02*
X947183D01*
X945683Y1518301D02*
Y1521301D01*
X1005953Y991301D02*
X1008953D01*
X1007453Y989801D02*
Y992801D01*
X947683Y1541301D02*
X950683D01*
X949183Y1539801D02*
Y1542801D01*
X1014596Y991141D02*
X1017596D01*
X1016096Y989641D02*
Y992641D01*
X945183Y1501301D02*
X948183D01*
X946683Y1499801D02*
Y1502801D01*
X999183Y985311D02*
X1002183D01*
X1000683Y983811D02*
Y986811D01*
X993033Y988654D02*
X996033D01*
X994533Y987154D02*
Y990154D01*
X972683Y1442301D02*
X975683D01*
X974183Y1440801D02*
Y1443801D01*
X909183Y1447801D02*
X913183D01*
X911183Y1445801D02*
Y1449801D01*
X909183Y1276301D02*
X913183D01*
X911183Y1274301D02*
Y1278301D01*
X1093183Y1454801D02*
X1097183D01*
X1095183Y1452801D02*
Y1456801D01*
X1147471Y1746943D02*
X1151471D01*
X1149471Y1744943D02*
Y1748943D01*
X1093183Y1620801D02*
X1097183D01*
X1095183Y1618801D02*
Y1622801D01*
X1164471Y1746943D02*
X1168471D01*
X1166471Y1744943D02*
Y1748943D01*
X909183Y1108301D02*
X913183D01*
X911183Y1106301D02*
Y1110301D01*
X1093183Y1282801D02*
X1097183D01*
X1095183Y1280801D02*
Y1284801D01*
X909183Y1617301D02*
X913183D01*
X911183Y1615301D02*
Y1619301D01*
X1093183Y1107801D02*
X1097183D01*
X1095183Y1105801D02*
Y1109801D01*
X1173471Y1746943D02*
X1177471D01*
X1175471Y1744943D02*
Y1748943D01*
X997183Y977801D02*
X1000183D01*
X998683Y976301D02*
Y979301D01*
X1041183Y982301D02*
X1044183D01*
X1042683Y980801D02*
Y983801D01*
X983433Y977301D02*
X986433D01*
X984933Y975801D02*
Y978801D01*
X917683Y982301D02*
X920683D01*
X919183Y980801D02*
Y983801D01*
X974683Y992301D02*
X977683D01*
X976183Y990801D02*
Y993801D01*
M02*
