G04*
G04 #@! TF.GenerationSoftware,Altium Limited,Altium Designer,26.5.1 (12)*
G04*
G04 Layer_Color=128*
G04 Board_Origin=43191543|373848902*
%FSLAX44Y44*%
%MOMM*%
G71*
G04*
G04 #@! TF.SameCoordinates,B701C1AE-6192-4D81-B682-5187BBF0BD92*
G04*
G04*
G04 #@! TF.FilePolarity,Positive*
G04*
G01*
G75*
%ADD94C,0.1270*%
D94*
X1840800Y-519000D02*
X1870800D01*
X1855800Y-534000D02*
Y-504000D01*
X1945800Y-49000D02*
X1975800D01*
X1960800Y-64000D02*
Y-34000D01*
X20800Y-337100D02*
X30800D01*
X25800Y-342100D02*
Y-332100D01*
X1909684Y-148670D02*
X1920284D01*
X1914984Y-153969D02*
Y-143370D01*
X1909684Y-213669D02*
X1920284D01*
X1914984Y-218969D02*
Y-208370D01*
X1954684Y-148670D02*
X1965284D01*
X1959984Y-153969D02*
Y-143370D01*
X1954684Y-213669D02*
X1965284D01*
X1959984Y-218969D02*
Y-208370D01*
X2003600Y-337500D02*
X2013600D01*
X2008600Y-342500D02*
Y-332500D01*
X2003600Y-312100D02*
X2013600D01*
X2008600Y-317100D02*
Y-307100D01*
X2003600Y-286700D02*
X2013600D01*
X2008600Y-291700D02*
Y-281700D01*
X2003600Y-261300D02*
X2013600D01*
X2008600Y-266300D02*
Y-256300D01*
X20800Y-260900D02*
X30800D01*
X25800Y-265900D02*
Y-255900D01*
X20800Y-286300D02*
X30800D01*
X25800Y-291300D02*
Y-281300D01*
X20800Y-311700D02*
X30800D01*
X25800Y-316700D02*
Y-306700D01*
X1954684Y-331170D02*
X1965284D01*
X1959984Y-336470D02*
Y-325870D01*
X1954684Y-266169D02*
X1965284D01*
X1959984Y-271469D02*
Y-260870D01*
X1909684Y-331170D02*
X1920284D01*
X1914984Y-336470D02*
Y-325870D01*
X1909684Y-266169D02*
X1920284D01*
X1914984Y-271469D02*
Y-260870D01*
X1955184Y-448670D02*
X1965784D01*
X1960484Y-453970D02*
Y-443370D01*
X1955184Y-383670D02*
X1965784D01*
X1960484Y-388969D02*
Y-378370D01*
X1910184Y-448670D02*
X1920784D01*
X1915484Y-453970D02*
Y-443370D01*
X1910184Y-383670D02*
X1920784D01*
X1915484Y-388969D02*
Y-378370D01*
X1461782Y-398870D02*
X1471688D01*
X1466735Y-403823D02*
Y-393917D01*
X1471942Y-449670D02*
X1481848D01*
X1476895Y-454623D02*
Y-444717D01*
X1451622Y-449670D02*
X1461528D01*
X1456575Y-454623D02*
Y-444717D01*
X1420485Y-545570D02*
X1430485D01*
X1425485Y-550570D02*
Y-540570D01*
X1445885Y-545570D02*
X1455885D01*
X1450885Y-550570D02*
Y-540570D01*
X1471285Y-545570D02*
X1481285D01*
X1476285Y-550570D02*
Y-540570D01*
X1496685Y-545570D02*
X1506685D01*
X1501685Y-550570D02*
Y-540570D01*
X1522085Y-545570D02*
X1532085D01*
X1527085Y-550570D02*
Y-540570D01*
X1699800Y-579700D02*
X1708800D01*
X1704300Y-584200D02*
Y-575200D01*
X1699800Y-554300D02*
X1708800D01*
X1704300Y-558800D02*
Y-549800D01*
X1871000Y-578000D02*
X1882000D01*
X1876500Y-583500D02*
Y-572500D01*
X1921800Y-578000D02*
X1932800D01*
X1927300Y-583500D02*
Y-572500D01*
X35800Y-549000D02*
X65800D01*
X50800Y-564000D02*
Y-534000D01*
X140800Y-49000D02*
X170800D01*
X155800Y-64000D02*
Y-34000D01*
X1506250Y-339000D02*
X1509750D01*
X1508000Y-340750D02*
Y-337250D01*
X1436250Y-328000D02*
X1439750D01*
X1438000Y-329750D02*
Y-326250D01*
X1550250Y-318000D02*
X1553750D01*
X1552000Y-319750D02*
Y-316250D01*
X1483250Y-222000D02*
X1486750D01*
X1485000Y-223750D02*
Y-220250D01*
X1455250Y-224000D02*
X1458750D01*
X1457000Y-225750D02*
Y-222250D01*
X1661250Y-156000D02*
X1664750D01*
X1663000Y-157750D02*
Y-154250D01*
X1577250Y-158000D02*
X1580750D01*
X1579000Y-159750D02*
Y-156250D01*
X1499250Y-160000D02*
X1502750D01*
X1501000Y-161750D02*
Y-158250D01*
X1448250Y-161000D02*
X1451750D01*
X1450000Y-162750D02*
Y-159250D01*
X1351250Y-310000D02*
X1354750D01*
X1353000Y-311750D02*
Y-308250D01*
X1351250Y-295000D02*
X1354750D01*
X1353000Y-296750D02*
Y-293250D01*
X1351250Y-276000D02*
X1354750D01*
X1353000Y-277750D02*
Y-274250D01*
X1351250Y-259000D02*
X1354750D01*
X1353000Y-260750D02*
Y-257250D01*
X663250Y-237000D02*
X666750D01*
X665000Y-238750D02*
Y-235250D01*
X646250Y-91000D02*
X649750D01*
X648000Y-92750D02*
Y-89250D01*
X1651050Y-282000D02*
X1654550D01*
X1652800Y-283750D02*
Y-280250D01*
X1351250Y-202000D02*
X1354750D01*
X1353000Y-203750D02*
Y-200250D01*
X1331250Y-297000D02*
X1334750D01*
X1333000Y-298750D02*
Y-295250D01*
X1331250Y-316000D02*
X1334750D01*
X1333000Y-317750D02*
Y-314250D01*
X2005435Y-135762D02*
X2010435D01*
X2007935Y-138262D02*
Y-133262D01*
X2005435Y-495762D02*
X2010435D01*
X2007935Y-498262D02*
Y-493262D01*
X1960435Y-585762D02*
X1965435D01*
X1962935Y-588262D02*
Y-583262D01*
X1870435Y-45762D02*
X1875435D01*
X1872935Y-48262D02*
Y-43262D01*
X1780435Y-45762D02*
X1785435D01*
X1782935Y-48262D02*
Y-43262D01*
X1825435Y-315762D02*
X1830435D01*
X1827935Y-318262D02*
Y-313262D01*
X1825435Y-495762D02*
X1830435D01*
X1827935Y-498262D02*
Y-493262D01*
X1690435Y-45762D02*
X1695435D01*
X1692935Y-48262D02*
Y-43262D01*
X1600435Y-45762D02*
X1605435D01*
X1602935Y-48262D02*
Y-43262D01*
X1600435Y-585762D02*
X1605435D01*
X1602935Y-588262D02*
Y-583262D01*
X1510435Y-45762D02*
X1515435D01*
X1512935Y-48262D02*
Y-43262D01*
X1510435Y-405762D02*
X1515435D01*
X1512935Y-408262D02*
Y-403262D01*
X1510435Y-585762D02*
X1515435D01*
X1512935Y-588262D02*
Y-583262D01*
X1420435Y-45762D02*
X1425435D01*
X1422935Y-48262D02*
Y-43262D01*
X1420435Y-225762D02*
X1425435D01*
X1422935Y-228262D02*
Y-223262D01*
X1420435Y-585762D02*
X1425435D01*
X1422935Y-588262D02*
Y-583262D01*
X1330435Y-45762D02*
X1335435D01*
X1332935Y-48262D02*
Y-43262D01*
X1375435Y-315762D02*
X1380435D01*
X1377935Y-318262D02*
Y-313262D01*
X1330435Y-585762D02*
X1335435D01*
X1332935Y-588262D02*
Y-583262D01*
X1240435Y-45762D02*
X1245435D01*
X1242935Y-48262D02*
Y-43262D01*
X1240435Y-405762D02*
X1245435D01*
X1242935Y-408262D02*
Y-403262D01*
X1285435Y-495762D02*
X1290435D01*
X1287935Y-498262D02*
Y-493262D01*
X1240435Y-585762D02*
X1245435D01*
X1242935Y-588262D02*
Y-583262D01*
X1150435Y-45762D02*
X1155435D01*
X1152935Y-48262D02*
Y-43262D01*
X1195435Y-135762D02*
X1200435D01*
X1197935Y-138262D02*
Y-133262D01*
X1150435Y-225762D02*
X1155435D01*
X1152935Y-228262D02*
Y-223262D01*
X1150435Y-405762D02*
X1155435D01*
X1152935Y-408262D02*
Y-403262D01*
X1195435Y-495762D02*
X1200435D01*
X1197935Y-498262D02*
Y-493262D01*
X1150435Y-585762D02*
X1155435D01*
X1152935Y-588262D02*
Y-583262D01*
X1060435Y-45762D02*
X1065435D01*
X1062935Y-48262D02*
Y-43262D01*
X1105435Y-135762D02*
X1110435D01*
X1107935Y-138262D02*
Y-133262D01*
X1060435Y-225762D02*
X1065435D01*
X1062935Y-228262D02*
Y-223262D01*
X1105435Y-315762D02*
X1110435D01*
X1107935Y-318262D02*
Y-313262D01*
X1060435Y-405762D02*
X1065435D01*
X1062935Y-408262D02*
Y-403262D01*
X1105435Y-495762D02*
X1110435D01*
X1107935Y-498262D02*
Y-493262D01*
X1060435Y-585762D02*
X1065435D01*
X1062935Y-588262D02*
Y-583262D01*
X970435Y-45762D02*
X975435D01*
X972935Y-48262D02*
Y-43262D01*
X1015435Y-135762D02*
X1020435D01*
X1017935Y-138262D02*
Y-133262D01*
X970435Y-225762D02*
X975435D01*
X972935Y-228262D02*
Y-223262D01*
X1015435Y-315762D02*
X1020435D01*
X1017935Y-318262D02*
Y-313262D01*
X970435Y-405762D02*
X975435D01*
X972935Y-408262D02*
Y-403262D01*
X1015435Y-495762D02*
X1020435D01*
X1017935Y-498262D02*
Y-493262D01*
X970435Y-585762D02*
X975435D01*
X972935Y-588262D02*
Y-583262D01*
X880435Y-45762D02*
X885435D01*
X882935Y-48262D02*
Y-43262D01*
X925435Y-135762D02*
X930435D01*
X927935Y-138262D02*
Y-133262D01*
X880435Y-225762D02*
X885435D01*
X882935Y-228262D02*
Y-223262D01*
X925435Y-315762D02*
X930435D01*
X927935Y-318262D02*
Y-313262D01*
X880435Y-405762D02*
X885435D01*
X882935Y-408262D02*
Y-403262D01*
X925435Y-495762D02*
X930435D01*
X927935Y-498262D02*
Y-493262D01*
X880435Y-585762D02*
X885435D01*
X882935Y-588262D02*
Y-583262D01*
X790435Y-45762D02*
X795435D01*
X792935Y-48262D02*
Y-43262D01*
X835435Y-135762D02*
X840435D01*
X837935Y-138262D02*
Y-133262D01*
X790435Y-225762D02*
X795435D01*
X792935Y-228262D02*
Y-223262D01*
X835435Y-315762D02*
X840435D01*
X837935Y-318262D02*
Y-313262D01*
X790435Y-405762D02*
X795435D01*
X792935Y-408262D02*
Y-403262D01*
X835435Y-495762D02*
X840435D01*
X837935Y-498262D02*
Y-493262D01*
X790435Y-585762D02*
X795435D01*
X792935Y-588262D02*
Y-583262D01*
X700435Y-225762D02*
X705435D01*
X702935Y-228262D02*
Y-223262D01*
X700435Y-405762D02*
X705435D01*
X702935Y-408262D02*
Y-403262D01*
X745435Y-495762D02*
X750435D01*
X747935Y-498262D02*
Y-493262D01*
X700435Y-585762D02*
X705435D01*
X702935Y-588262D02*
Y-583262D01*
X655435Y-135762D02*
X660435D01*
X657935Y-138262D02*
Y-133262D01*
X610435Y-225762D02*
X615435D01*
X612935Y-228262D02*
Y-223262D01*
X655435Y-315762D02*
X660435D01*
X657935Y-318262D02*
Y-313262D01*
X610435Y-405762D02*
X615435D01*
X612935Y-408262D02*
Y-403262D01*
X655435Y-495762D02*
X660435D01*
X657935Y-498262D02*
Y-493262D01*
X610435Y-585762D02*
X615435D01*
X612935Y-588262D02*
Y-583262D01*
X565435Y-135762D02*
X570435D01*
X567935Y-138262D02*
Y-133262D01*
X520435Y-225762D02*
X525435D01*
X522935Y-228262D02*
Y-223262D01*
X520435Y-405762D02*
X525435D01*
X522935Y-408262D02*
Y-403262D01*
X565435Y-495762D02*
X570435D01*
X567935Y-498262D02*
Y-493262D01*
X520435Y-585762D02*
X525435D01*
X522935Y-588262D02*
Y-583262D01*
X475435Y-135762D02*
X480435D01*
X477935Y-138262D02*
Y-133262D01*
X430435Y-225762D02*
X435435D01*
X432935Y-228262D02*
Y-223262D01*
X430435Y-405762D02*
X435435D01*
X432935Y-408262D02*
Y-403262D01*
X475435Y-495762D02*
X480435D01*
X477935Y-498262D02*
Y-493262D01*
X430435Y-585762D02*
X435435D01*
X432935Y-588262D02*
Y-583262D01*
X385435Y-135762D02*
X390435D01*
X387935Y-138262D02*
Y-133262D01*
X340435Y-225762D02*
X345435D01*
X342935Y-228262D02*
Y-223262D01*
X340435Y-405762D02*
X345435D01*
X342935Y-408262D02*
Y-403262D01*
X385435Y-495762D02*
X390435D01*
X387935Y-498262D02*
Y-493262D01*
X340435Y-585762D02*
X345435D01*
X342935Y-588262D02*
Y-583262D01*
X295435Y-135762D02*
X300435D01*
X297935Y-138262D02*
Y-133262D01*
X250435Y-225762D02*
X255435D01*
X252935Y-228262D02*
Y-223262D01*
X250435Y-405762D02*
X255435D01*
X252935Y-408262D02*
Y-403262D01*
X295435Y-495762D02*
X300435D01*
X297935Y-498262D02*
Y-493262D01*
X250435Y-585762D02*
X255435D01*
X252935Y-588262D02*
Y-583262D01*
X205435Y-135762D02*
X210435D01*
X207935Y-138262D02*
Y-133262D01*
X160435Y-225762D02*
X165435D01*
X162935Y-228262D02*
Y-223262D01*
X160435Y-405762D02*
X165435D01*
X162935Y-408262D02*
Y-403262D01*
X205435Y-495762D02*
X210435D01*
X207935Y-498262D02*
Y-493262D01*
X160435Y-585762D02*
X165435D01*
X162935Y-588262D02*
Y-583262D01*
X70435Y-45762D02*
X75435D01*
X72935Y-48262D02*
Y-43262D01*
X115435Y-135762D02*
X120435D01*
X117935Y-138262D02*
Y-133262D01*
X70435Y-225762D02*
X75435D01*
X72935Y-228262D02*
Y-223262D01*
X70435Y-405762D02*
X75435D01*
X72935Y-408262D02*
Y-403262D01*
X115435Y-495762D02*
X120435D01*
X117935Y-498262D02*
Y-493262D01*
X70435Y-585762D02*
X75435D01*
X72935Y-588262D02*
Y-583262D01*
X1330283Y-350000D02*
X1333283D01*
X1331783Y-351499D02*
Y-348499D01*
X1337280Y-350188D02*
X1340280D01*
X1338781Y-351688D02*
Y-348688D01*
X1328117Y-231020D02*
X1331117D01*
X1329617Y-232520D02*
Y-229520D01*
X1318250Y-343000D02*
X1321250D01*
X1319750Y-344500D02*
Y-341500D01*
X1312500Y-253000D02*
X1315500D01*
X1314000Y-254500D02*
Y-251500D01*
X1351300Y-230000D02*
X1354300D01*
X1352800Y-231500D02*
Y-228500D01*
X248250Y-91500D02*
X251750D01*
X250000Y-93250D02*
Y-89750D01*
X588250Y-79625D02*
X591750D01*
X590000Y-81375D02*
Y-77875D01*
X184500Y-40000D02*
X187500D01*
X186000Y-41500D02*
Y-38500D01*
X170250Y-89000D02*
X173750D01*
X172000Y-90750D02*
Y-87250D01*
X234500Y-55000D02*
X237500D01*
X236000Y-56500D02*
Y-53500D01*
X321500Y-63000D02*
X324500D01*
X323000Y-64500D02*
Y-61500D01*
X412500Y-69625D02*
X415500D01*
X414000Y-71125D02*
Y-68125D01*
X502250Y-76125D02*
X505750D01*
X504000Y-77875D02*
Y-74375D01*
X589283Y-168875D02*
X592283D01*
X590783Y-170375D02*
Y-167375D01*
X588499Y-254809D02*
X591499D01*
X589999Y-256309D02*
Y-253309D01*
X138683Y-425742D02*
X141683D01*
X140183Y-427242D02*
Y-424242D01*
X138750Y-406000D02*
X141750D01*
X140250Y-407500D02*
Y-404500D01*
X228533Y-425592D02*
X231533D01*
X230033Y-427092D02*
Y-424092D01*
X318783Y-425592D02*
X321783D01*
X320283Y-427092D02*
Y-424092D01*
X408783Y-425592D02*
X411783D01*
X410283Y-427092D02*
Y-424092D01*
X498533Y-425592D02*
X501533D01*
X500033Y-427092D02*
Y-424092D01*
X589533Y-425592D02*
X592533D01*
X591033Y-427092D02*
Y-424092D01*
X138433Y-340742D02*
X141433D01*
X139933Y-342242D02*
Y-339242D01*
X138500Y-321000D02*
X141500D01*
X140000Y-322500D02*
Y-319500D01*
X228283Y-340592D02*
X231283D01*
X229783Y-342092D02*
Y-339092D01*
X318533Y-340592D02*
X321533D01*
X320033Y-342092D02*
Y-339092D01*
X408533Y-340592D02*
X411533D01*
X410033Y-342092D02*
Y-339092D01*
X498283Y-340592D02*
X501283D01*
X499783Y-342092D02*
Y-339092D01*
X589283Y-340592D02*
X592283D01*
X590783Y-342092D02*
Y-339092D01*
X138433Y-255742D02*
X141433D01*
X139933Y-257242D02*
Y-254242D01*
X138500Y-236000D02*
X141500D01*
X140000Y-237500D02*
Y-234500D01*
X228350Y-235850D02*
X231350D01*
X229850Y-237350D02*
Y-234350D01*
X228283Y-255592D02*
X231283D01*
X229783Y-257092D02*
Y-254092D01*
X318533Y-255592D02*
X321533D01*
X320033Y-257092D02*
Y-254092D01*
X408533Y-255592D02*
X411533D01*
X410033Y-257092D02*
Y-254092D01*
X498283Y-255592D02*
X501283D01*
X499783Y-257092D02*
Y-254092D01*
X589350Y-150850D02*
X592350D01*
X590850Y-152350D02*
Y-149350D01*
X498283Y-170592D02*
X501283D01*
X499783Y-172092D02*
Y-169092D01*
X498350Y-150850D02*
X501350D01*
X499850Y-152350D02*
Y-149350D01*
X408533Y-170592D02*
X411533D01*
X410033Y-172092D02*
Y-169092D01*
X408600Y-150850D02*
X411600D01*
X410100Y-152350D02*
Y-149350D01*
X318533Y-170592D02*
X321533D01*
X320033Y-172092D02*
Y-169092D01*
X318600Y-150850D02*
X321600D01*
X320100Y-152350D02*
Y-149350D01*
X228283Y-170592D02*
X231283D01*
X229783Y-172092D02*
Y-169092D01*
X228350Y-150850D02*
X231350D01*
X229850Y-152350D02*
Y-149350D01*
X138500Y-151000D02*
X141500D01*
X140000Y-152500D02*
Y-149500D01*
X138433Y-170742D02*
X141433D01*
X139933Y-172242D02*
Y-169242D01*
X707250Y-396300D02*
X710750D01*
X709000Y-398050D02*
Y-394550D01*
X734250Y-155125D02*
X737750D01*
X736000Y-156875D02*
Y-153375D01*
X738250Y-188125D02*
X741750D01*
X740000Y-189875D02*
Y-186375D01*
X707250Y-217125D02*
X710750D01*
X709000Y-218875D02*
Y-215375D01*
X747250Y-211125D02*
X750750D01*
X749000Y-212875D02*
Y-209375D01*
X756250Y-205125D02*
X759750D01*
X758000Y-206875D02*
Y-203375D01*
X735150Y-221200D02*
X738650D01*
X736900Y-222950D02*
Y-219450D01*
X734250Y-111125D02*
X737750D01*
X736000Y-112875D02*
Y-109375D01*
X739250Y-91125D02*
X742750D01*
X741000Y-92875D02*
Y-89375D01*
X710250Y-83125D02*
X713750D01*
X712000Y-84875D02*
Y-81375D01*
X747250Y-82125D02*
X750750D01*
X749000Y-83875D02*
Y-80375D01*
X754250Y-74125D02*
X757750D01*
X756000Y-75875D02*
Y-72375D01*
X761250Y-68125D02*
X764750D01*
X763000Y-69875D02*
Y-66375D01*
X703500Y-12125D02*
X706500D01*
X705000Y-13625D02*
Y-10625D01*
X721500Y-11125D02*
X724500D01*
X723000Y-12625D02*
Y-9625D01*
X761250Y-195125D02*
X764750D01*
X763000Y-196875D02*
Y-193375D01*
X756250Y-384300D02*
X759750D01*
X758000Y-386050D02*
Y-382550D01*
X762750Y-374300D02*
X766250D01*
X764500Y-376050D02*
Y-372550D01*
X738250Y-367300D02*
X741750D01*
X740000Y-369050D02*
Y-365550D01*
X747250Y-390300D02*
X750750D01*
X749000Y-392050D02*
Y-388550D01*
X734250Y-334300D02*
X737750D01*
X736000Y-336050D02*
Y-332550D01*
X1225250Y-262100D02*
X1228750D01*
X1227000Y-263850D02*
Y-260350D01*
X1228594Y-321956D02*
X1232094D01*
X1230344Y-323706D02*
Y-320206D01*
X1269550Y-240500D02*
X1273050D01*
X1271300Y-242250D02*
Y-238750D01*
X1281335Y-318570D02*
X1284835D01*
X1283085Y-320320D02*
Y-316820D01*
X1355500Y-81125D02*
X1358500D01*
X1357000Y-82625D02*
Y-79625D01*
X1339500Y-67125D02*
X1342500D01*
X1341000Y-68625D02*
Y-65625D01*
X1362500Y-58125D02*
X1365500D01*
X1364000Y-59625D02*
Y-56625D01*
X1347500Y-74125D02*
X1350500D01*
X1349000Y-75625D02*
Y-72625D01*
X1413500Y-108125D02*
X1416500D01*
X1415000Y-109625D02*
Y-106625D01*
X1330300Y-111000D02*
X1333300D01*
X1331800Y-112500D02*
Y-109500D01*
X11800Y-104325D02*
X14800D01*
X13300Y-105825D02*
Y-102825D01*
X44800Y-113325D02*
X47800D01*
X46300Y-114825D02*
Y-111825D01*
X56800Y-119325D02*
X59800D01*
X58300Y-120825D02*
Y-117825D01*
X1418250Y-181125D02*
X1421750D01*
X1420000Y-182875D02*
Y-179375D01*
X1330050Y-147125D02*
X1333550D01*
X1331800Y-148875D02*
Y-145375D01*
X17800Y-224325D02*
X20800D01*
X19300Y-225825D02*
Y-222825D01*
X1345164Y-351373D02*
X1348164D01*
X1346664Y-352873D02*
Y-349873D01*
X1700300Y-111000D02*
X1703300D01*
X1701800Y-112500D02*
Y-109500D01*
X1382935Y-200865D02*
X1385935D01*
X1384435Y-202365D02*
Y-199365D01*
X1404300Y-203000D02*
X1407300D01*
X1405800Y-204500D02*
Y-201500D01*
X1627300Y-178750D02*
X1630300D01*
X1628800Y-180250D02*
Y-177250D01*
X1693300Y-194750D02*
X1696300D01*
X1694800Y-196250D02*
Y-193250D01*
X1223300Y-224000D02*
X1226300D01*
X1224800Y-225500D02*
Y-222500D01*
X1900470Y-191581D02*
X1903969D01*
X1902219Y-193331D02*
Y-189831D01*
X1872050Y-292000D02*
X1875550D01*
X1873800Y-293750D02*
Y-290250D01*
X1835425Y-195000D02*
X1838425D01*
X1836925Y-196500D02*
Y-193500D01*
X1781175Y-199500D02*
X1784175D01*
X1782675Y-201000D02*
Y-198000D01*
X1370090Y-145435D02*
X1373589D01*
X1371839Y-147185D02*
Y-143685D01*
X1295300Y-467000D02*
X1298300D01*
X1296800Y-468500D02*
Y-465500D01*
X1296300Y-392000D02*
X1299300D01*
X1297800Y-393500D02*
Y-390500D01*
X1453154Y-358000D02*
X1456154D01*
X1454654Y-359500D02*
Y-356500D01*
X1424300Y-559875D02*
X1427300D01*
X1425800Y-561375D02*
Y-558375D01*
X1423300Y-530125D02*
X1426300D01*
X1424800Y-531625D02*
Y-528625D01*
X1449010Y-436970D02*
X1452010D01*
X1450510Y-438470D02*
Y-435470D01*
X1986300Y-400000D02*
X1989300D01*
X1987800Y-401500D02*
Y-398500D01*
X1656175Y-546000D02*
X1659175D01*
X1657675Y-547500D02*
Y-544500D01*
X1391175Y-374000D02*
X1394175D01*
X1392675Y-375500D02*
Y-372500D01*
X1318300Y-393000D02*
X1321300D01*
X1319800Y-394500D02*
Y-391500D01*
X1247500Y-339300D02*
X1250500D01*
X1249000Y-340800D02*
Y-337800D01*
X1227300Y-309000D02*
X1230300D01*
X1228800Y-310500D02*
Y-307500D01*
X1225300Y-245000D02*
X1228300D01*
X1226800Y-246500D02*
Y-243500D01*
X1369800Y-233000D02*
X1373300D01*
X1371550Y-234750D02*
Y-231250D01*
X1564300Y-278000D02*
X1567300D01*
X1565800Y-279500D02*
Y-276500D01*
X1687300Y-440000D02*
X1690300D01*
X1688800Y-441500D02*
Y-438500D01*
X1668300Y-439000D02*
X1671300D01*
X1669800Y-440500D02*
Y-437500D01*
X1711175Y-371000D02*
X1714175D01*
X1712675Y-372500D02*
Y-369500D01*
X1839425Y-368000D02*
X1842425D01*
X1840925Y-369500D02*
Y-366500D01*
X1839425Y-357000D02*
X1842425D01*
X1840925Y-358500D02*
Y-355500D01*
X1864175Y-371000D02*
X1867175D01*
X1865675Y-372500D02*
Y-369500D01*
X1862175Y-357000D02*
X1865175D01*
X1863675Y-358500D02*
Y-355500D01*
X1848300Y-343125D02*
X1851300D01*
X1849800Y-344625D02*
Y-341625D01*
X1741425Y-214500D02*
X1744425D01*
X1742925Y-216000D02*
Y-213000D01*
X1742425Y-202500D02*
X1745425D01*
X1743925Y-204000D02*
Y-201000D01*
X1781175Y-212500D02*
X1784175D01*
X1782675Y-214000D02*
Y-211000D01*
X1874013Y-214508D02*
X1877013D01*
X1875513Y-216008D02*
Y-213008D01*
X1873175Y-204000D02*
X1876175D01*
X1874675Y-205500D02*
Y-202500D01*
X1835425Y-217000D02*
X1838425D01*
X1836925Y-218500D02*
Y-215500D01*
X1834425Y-207000D02*
X1837425D01*
X1835925Y-208500D02*
Y-205500D01*
X1888300Y-293125D02*
X1891300D01*
X1889800Y-294625D02*
Y-291625D01*
X1979300Y-161125D02*
X1982300D01*
X1980800Y-162625D02*
Y-159625D01*
X1664300Y-284000D02*
X1667300D01*
X1665800Y-285500D02*
Y-282500D01*
X1712300Y-284000D02*
X1715300D01*
X1713800Y-285500D02*
Y-282500D01*
X1705300Y-274000D02*
X1708300D01*
X1706800Y-275500D02*
Y-272500D01*
X1725300Y-289000D02*
X1728300D01*
X1726800Y-290500D02*
Y-287500D01*
X1694300Y-477000D02*
X1697300D01*
X1695800Y-478500D02*
Y-475500D01*
X1693300Y-414000D02*
X1696300D01*
X1694800Y-415500D02*
Y-412500D01*
X1591300Y-269000D02*
X1594300D01*
X1592800Y-270500D02*
Y-267500D01*
X1565300Y-328000D02*
X1568300D01*
X1566800Y-329500D02*
Y-326500D01*
X1564173Y-384268D02*
X1567673D01*
X1565923Y-386018D02*
Y-382519D01*
X1553300Y-477000D02*
X1556300D01*
X1554800Y-478500D02*
Y-475500D01*
X1528300Y-455000D02*
X1531300D01*
X1529800Y-456500D02*
Y-453500D01*
X1535000Y-448549D02*
X1538000D01*
X1536500Y-450049D02*
Y-447049D01*
X1575300Y-442000D02*
X1578300D01*
X1576800Y-443500D02*
Y-440500D01*
X1626300Y-442000D02*
X1629300D01*
X1627800Y-443500D02*
Y-440500D01*
X1428300Y-411570D02*
X1431300D01*
X1429800Y-413070D02*
Y-410070D01*
X1428300Y-476000D02*
X1431300D01*
X1429800Y-477500D02*
Y-474500D01*
X1741300Y-497000D02*
X1744300D01*
X1742800Y-498500D02*
Y-495500D01*
X1753265Y-474130D02*
X1756265D01*
X1754765Y-475630D02*
Y-472630D01*
X1752300Y-441000D02*
X1755300D01*
X1753800Y-442500D02*
Y-439500D01*
X1958983Y-407000D02*
X1961983D01*
X1960484Y-408500D02*
Y-405500D01*
X61442Y-467063D02*
X64443D01*
X62943Y-468563D02*
Y-465563D01*
X1707300Y-226000D02*
X1710300D01*
X1708800Y-227500D02*
Y-224500D01*
X2015050Y-410000D02*
X2018550D01*
X2016800Y-411750D02*
Y-408250D01*
X2019050Y-204000D02*
X2022550D01*
X2020800Y-205750D02*
Y-202250D01*
X1565870Y-372215D02*
X1568870D01*
X1567370Y-373715D02*
Y-370715D01*
X1609050Y-386000D02*
X1612550D01*
X1610800Y-387750D02*
Y-384250D01*
X1329300Y-512000D02*
X1332300D01*
X1330800Y-513500D02*
Y-510500D01*
X1310300Y-492000D02*
X1313300D01*
X1311800Y-493500D02*
Y-490500D01*
X1632300Y-265200D02*
X1635300D01*
X1633800Y-266700D02*
Y-263700D01*
X1619300Y-300000D02*
X1622300D01*
X1620800Y-301500D02*
Y-298500D01*
X1527300Y-232130D02*
X1530800D01*
X1529050Y-233880D02*
Y-230380D01*
X1535215Y-250730D02*
X1538715D01*
X1536965Y-252480D02*
Y-248980D01*
X45443Y-192063D02*
X48443D01*
X46943Y-193563D02*
Y-190563D01*
X1440300Y-424000D02*
X1443300D01*
X1441800Y-425500D02*
Y-422500D01*
X1441300Y-465000D02*
X1444300D01*
X1442800Y-466500D02*
Y-463500D01*
X1525300Y-465000D02*
X1528300D01*
X1526800Y-466500D02*
Y-463500D01*
X1491300Y-412000D02*
X1494300D01*
X1492800Y-413500D02*
Y-410500D01*
X1491300Y-316000D02*
X1494300D01*
X1492800Y-317500D02*
Y-314500D01*
X1482300Y-345570D02*
X1485300D01*
X1483800Y-347070D02*
Y-344070D01*
X1485235Y-424270D02*
X1488235D01*
X1486735Y-425770D02*
Y-422770D01*
X1946300Y-168000D02*
X1949300D01*
X1947800Y-169500D02*
Y-166500D01*
X1926300Y-174000D02*
X1929300D01*
X1927800Y-175500D02*
Y-172500D01*
X1921300Y-180000D02*
X1924300D01*
X1922800Y-181500D02*
Y-178500D01*
X1913300Y-186000D02*
X1916300D01*
X1914800Y-187500D02*
Y-184500D01*
X1949300Y-229000D02*
X1952300D01*
X1950800Y-230500D02*
Y-227500D01*
X1942300Y-285000D02*
X1945300D01*
X1943800Y-286500D02*
Y-283500D01*
X1938300Y-162000D02*
X1941300D01*
X1939800Y-163500D02*
Y-160500D01*
X1934300Y-311000D02*
X1937300D01*
X1935800Y-312500D02*
Y-309500D01*
X1913392Y-303408D02*
X1916392D01*
X1914892Y-304908D02*
Y-301908D01*
X1927300Y-344000D02*
X1930300D01*
X1928800Y-345500D02*
Y-342500D01*
X1913892Y-420908D02*
X1916892D01*
X1915392Y-422408D02*
Y-419408D01*
X1351693Y-348848D02*
X1354693D01*
X1353193Y-350348D02*
Y-347348D01*
X1470335Y-288070D02*
X1473835D01*
X1472085Y-289820D02*
Y-286320D01*
X1617870Y-334965D02*
X1621370D01*
X1619620Y-336715D02*
Y-333215D01*
X1577620Y-343715D02*
X1581120D01*
X1579370Y-345465D02*
Y-341965D01*
X1616470Y-357065D02*
X1619970D01*
X1618220Y-358815D02*
Y-355315D01*
X1635720Y-333715D02*
X1639220D01*
X1637470Y-335465D02*
Y-331965D01*
X1639120Y-356215D02*
X1642620D01*
X1640870Y-357965D02*
Y-354465D01*
X1628220Y-345315D02*
X1631720D01*
X1629970Y-347065D02*
Y-343565D01*
X1479050Y-270700D02*
X1482050D01*
X1480550Y-272200D02*
Y-269200D01*
X1478585Y-308570D02*
X1481585D01*
X1480085Y-310070D02*
Y-307070D01*
X1279335Y-265570D02*
X1282835D01*
X1281085Y-267320D02*
Y-263820D01*
X1332335Y-274570D02*
X1335835D01*
X1334085Y-276320D02*
Y-272820D01*
X1377835Y-257070D02*
X1381335D01*
X1379585Y-258820D02*
Y-255320D01*
X1457835Y-260070D02*
X1461335D01*
X1459585Y-261820D02*
Y-258320D01*
M02*
